<svg width="32" height="32" viewBox="0 0 32 32" fill="none" xmlns="http://www.w3.org/2000/svg">
<rect width="32" height="32" rx="16" fill="url(#paint0_linear_1768_25598)"/>
<path d="M8.00066 16.7501C7.80175 16.7501 7.61098 16.6711 7.47033 16.5304C7.32968 16.3897 7.25066 16.199 7.25066 16.0001C7.25066 15.8012 7.32968 15.6104 7.47033 15.4697C7.61098 15.3291 7.80175 15.2501 8.00066 15.2501L17.2507 15.2501L17.2507 10.0001C17.2508 9.85183 17.2948 9.70696 17.3773 9.58374C17.4597 9.46052 17.5768 9.3645 17.7137 9.30779C17.8507 9.25107 18.0014 9.23622 18.1468 9.26511C18.2922 9.29399 18.4258 9.36532 18.5307 9.47007L24.5307 15.4701C24.6711 15.6107 24.75 15.8013 24.75 16.0001C24.75 16.1988 24.6711 16.3894 24.5307 16.5301L18.5307 22.5301C18.4258 22.6348 18.2922 22.7062 18.1468 22.735C18.0014 22.7639 17.8507 22.7491 17.7137 22.6924C17.5768 22.6356 17.4597 22.5396 17.3773 22.4164C17.2948 22.2932 17.2508 22.1483 17.2507 22.0001L17.2507 16.7501L8.00066 16.7501Z" fill="white"/>
<defs>
<linearGradient id="paint0_linear_1768_25598" x1="16" y1="0" x2="16" y2="53.3333" gradientUnits="userSpaceOnUse">
<stop stop-color="#0E59AE"/>
<stop offset="1" stop-color="#9EDFE5"/>
</linearGradient>
</defs>
</svg>
