<svg width="403" height="614" viewBox="0 0 403 614" fill="none" xmlns="http://www.w3.org/2000/svg">
<path fill-rule="evenodd" clip-rule="evenodd" d="M203.223 470.669C159.071 442.649 92.5092 469.884 53.7779 434.749C14.1 398.756 -2.69943 340.119 0.347645 286.635C3.22265 236.171 59.4388 204.744 69.7014 155.252C85.5117 79.005 21.2553 -17.2484 75.0366 -73.5616C123.831 -124.653 212.122 -72.48 282.607 -67.6763C349.854 -63.0934 419.41 -76.4683 479.531 -45.9949C543.719 -13.4606 603.154 38.2655 626.151 106.454C648.693 173.291 617.591 243.772 600.324 312.162C584.332 375.5 566.521 436.901 529.184 490.505C487.531 550.303 446.314 642.125 373.573 637.698C292.554 632.768 271.756 514.162 203.223 470.669Z" fill="#2C7DFF" fill-opacity="0.25"/>
</svg>
