<svg width="341" height="231" viewBox="0 0 341 231" fill="none" xmlns="http://www.w3.org/2000/svg">
<rect x="0.428885" y="0.428885" width="340.142" height="229.548" rx="9.86436" fill="#DBE6F3"/>
<rect x="0.428885" y="0.428885" width="340.142" height="229.548" rx="9.86436" stroke="#B4CCE6" stroke-width="0.857771"/>
<path d="M32.8447 59.5984L25.6166 50.9009L32.6551 42.9381H36.6839L28.8396 51.5882V50.0952L36.9446 59.5984H32.8447ZM22.7727 59.5984V42.9381H25.9958V59.5984H22.7727ZM43.1669 59.8354C41.9661 59.8354 40.8997 59.5826 39.9675 59.077C39.0354 58.5556 38.2928 57.8447 37.7398 56.9441C37.2027 56.0436 36.9341 55.0166 36.9341 53.8633C36.9341 52.7257 37.1948 51.7146 37.7161 50.8298C38.2533 49.9293 38.9801 49.2183 39.8964 48.6969C40.8128 48.1597 41.8318 47.8912 42.9536 47.8912C44.0595 47.8912 45.0312 48.1439 45.8685 48.6495C46.7217 49.1393 47.3853 49.8187 47.8592 50.6876C48.349 51.5408 48.5939 52.5124 48.5939 53.6026C48.5939 53.808 48.5781 54.0213 48.5465 54.2424C48.5307 54.4478 48.4912 54.6848 48.428 54.9534L38.8063 54.9771V52.6546L46.9824 52.6309L45.7263 53.6026C45.6947 52.9232 45.5684 52.3544 45.3472 51.8963C45.1418 51.4381 44.8337 51.0905 44.4229 50.8535C44.0279 50.6007 43.5382 50.4743 42.9536 50.4743C42.3374 50.4743 41.8002 50.6165 41.3421 50.9009C40.8839 51.1695 40.5284 51.5566 40.2756 52.0622C40.0386 52.5519 39.9201 53.1365 39.9201 53.8159C39.9201 54.511 40.0465 55.1193 40.2993 55.6407C40.5679 56.1463 40.9471 56.5412 41.4369 56.8256C41.9266 57.0942 42.4954 57.2285 43.1432 57.2285C43.7277 57.2285 44.257 57.1337 44.731 56.9441C45.205 56.7387 45.6158 56.4385 45.9633 56.0436L47.7881 57.8684C47.2352 58.5161 46.5558 59.0059 45.75 59.3377C44.9601 59.6695 44.099 59.8354 43.1669 59.8354ZM53.931 59.6932L49.1438 48.1518H52.509L55.6847 56.9678H54.5471L57.8413 48.1518H61.2302L56.135 59.6932H53.931ZM50.7553 64.3856L54.239 57.0152L56.135 59.6932L54.0495 64.3856H50.7553ZM65.189 59.5984L60.8995 48.1518H64.0278L66.8242 56.4701L65.8763 56.4938L68.7438 48.1518H70.9952L73.8628 56.4938L72.9148 56.4701L75.7113 48.1518H78.8396L74.5738 59.5984H72.3224L69.4311 51.683H70.308L67.4167 59.5984H65.189ZM85.4708 59.8354C84.3174 59.8354 83.2747 59.5747 82.3425 59.0533C81.4262 58.5161 80.6915 57.7973 80.1386 56.8967C79.6014 55.9804 79.3328 54.9613 79.3328 53.8396C79.3328 52.7178 79.6014 51.7146 80.1386 50.8298C80.6757 49.9293 81.4104 49.2183 82.3425 48.6969C83.2747 48.1597 84.3095 47.8912 85.4471 47.8912C86.6162 47.8912 87.659 48.1597 88.5753 48.6969C89.5075 49.2183 90.2422 49.9293 90.7793 50.8298C91.3165 51.7146 91.5851 52.7178 91.5851 53.8396C91.5851 54.9613 91.3165 55.9804 90.7793 56.8967C90.2422 57.7973 89.5075 58.5161 88.5753 59.0533C87.659 59.5747 86.6241 59.8354 85.4708 59.8354ZM85.4471 56.9441C86.0317 56.9441 86.5451 56.8177 86.9875 56.5649C87.4457 56.2963 87.7933 55.933 88.0303 55.4748C88.2831 55.0008 88.4094 54.4636 88.4094 53.8633C88.4094 53.2629 88.2831 52.7336 88.0303 52.2754C87.7775 51.8173 87.4299 51.4618 86.9875 51.209C86.5451 50.9404 86.0317 50.8061 85.4471 50.8061C84.8783 50.8061 84.3727 50.9404 83.9304 51.209C83.488 51.4618 83.1404 51.8173 82.8876 52.2754C82.6348 52.7336 82.5084 53.2629 82.5084 53.8633C82.5084 54.4636 82.6348 55.0008 82.8876 55.4748C83.1404 55.933 83.488 56.2963 83.9304 56.5649C84.3727 56.8177 84.8783 56.9441 85.4471 56.9441ZM93.5838 59.5984V48.1518H96.6883V59.5984H93.5838ZM96.6883 53.2708L95.4797 52.465C95.6219 51.0589 96.0326 49.953 96.712 49.1472C97.3914 48.3256 98.3709 47.9149 99.6507 47.9149C100.204 47.9149 100.701 48.0097 101.144 48.1992C101.586 48.373 101.989 48.6653 102.352 49.0761L100.409 51.3038C100.235 51.1142 100.022 50.972 99.7692 50.8772C99.5322 50.7824 99.2557 50.735 98.9397 50.735C98.2761 50.735 97.7311 50.9483 97.3045 51.3749C96.8937 51.7857 96.6883 52.4176 96.6883 53.2708ZM107.953 59.8354C106.895 59.8354 105.947 59.5747 105.11 59.0533C104.272 58.5319 103.609 57.821 103.119 56.9204C102.645 56.0199 102.408 55.0087 102.408 53.887C102.408 52.7494 102.645 51.7304 103.119 50.8298C103.609 49.9293 104.264 49.2183 105.086 48.6969C105.923 48.1755 106.879 47.9149 107.953 47.9149C108.775 47.9149 109.51 48.0808 110.157 48.4125C110.821 48.7443 111.35 49.2104 111.745 49.8108C112.156 50.3953 112.377 51.0589 112.409 51.8015V55.8777C112.377 56.6202 112.164 57.2917 111.769 57.8921C111.374 58.4924 110.845 58.9664 110.181 59.314C109.518 59.6616 108.775 59.8354 107.953 59.8354ZM108.475 56.9678C109.059 56.9678 109.565 56.8414 109.991 56.5886C110.434 56.32 110.774 55.9567 111.011 55.4985C111.263 55.0245 111.39 54.4794 111.39 53.8633C111.39 53.2629 111.263 52.7336 111.011 52.2754C110.774 51.8015 110.434 51.4381 109.991 51.1853C109.565 50.9167 109.067 50.7824 108.498 50.7824C107.914 50.7824 107.4 50.9167 106.958 51.1853C106.531 51.4539 106.192 51.8173 105.939 52.2754C105.702 52.7336 105.584 53.2629 105.584 53.8633C105.584 54.4794 105.702 55.0245 105.939 55.4985C106.192 55.9567 106.539 56.32 106.982 56.5886C107.424 56.8414 107.922 56.9678 108.475 56.9678ZM114.305 59.5984H111.224V56.5175L111.722 53.7211L111.2 50.972V42.4641H114.305V59.5984ZM124.382 52.6309V50.1189H128.244C129.034 50.1189 129.643 49.9214 130.069 49.5264C130.512 49.1156 130.733 48.5547 130.733 47.8438C130.733 47.196 130.512 46.6588 130.069 46.2322C129.643 45.7899 129.034 45.5687 128.244 45.5687H124.382V42.9381H128.529C129.603 42.9381 130.543 43.1514 131.349 43.578C132.171 43.9887 132.803 44.5575 133.245 45.2843C133.703 46.0111 133.932 46.8484 133.932 47.7964C133.932 48.7759 133.703 49.6291 133.245 50.3558C132.803 51.0668 132.171 51.6277 131.349 52.0385C130.527 52.4334 129.572 52.6309 128.481 52.6309H124.382ZM122.012 59.5984V42.9381H125.235V59.5984H122.012ZM131.112 59.5984L125.614 52.3939L128.576 51.4697L135.022 59.5984H131.112ZM140.978 59.8354C139.935 59.8354 138.995 59.5747 138.158 59.0533C137.32 58.5319 136.665 57.821 136.191 56.9204C135.717 56.0199 135.48 55.0087 135.48 53.887C135.48 52.7494 135.717 51.7304 136.191 50.8298C136.665 49.9293 137.32 49.2183 138.158 48.6969C138.995 48.1755 139.935 47.9149 140.978 47.9149C141.799 47.9149 142.534 48.0808 143.182 48.4125C143.83 48.7443 144.343 49.2104 144.722 49.8108C145.117 50.3953 145.331 51.0589 145.362 51.8015V55.9251C145.331 56.6834 145.117 57.3549 144.722 57.9395C144.343 58.524 143.83 58.9901 143.182 59.3377C142.534 59.6695 141.799 59.8354 140.978 59.8354ZM141.547 56.9678C142.416 56.9678 143.119 56.6834 143.656 56.1147C144.193 55.5301 144.462 54.7796 144.462 53.8633C144.462 53.2629 144.335 52.7336 144.082 52.2754C143.845 51.8015 143.506 51.4381 143.063 51.1853C142.637 50.9167 142.131 50.7824 141.547 50.7824C140.978 50.7824 140.472 50.9167 140.03 51.1853C139.603 51.4381 139.264 51.8015 139.011 52.2754C138.774 52.7336 138.655 53.2629 138.655 53.8633C138.655 54.4794 138.774 55.0245 139.011 55.4985C139.264 55.9567 139.603 56.32 140.03 56.5886C140.472 56.8414 140.978 56.9678 141.547 56.9678ZM144.296 59.5984V56.5175L144.793 53.7211L144.296 50.972V48.1518H147.377V59.5984H144.296ZM157.825 59.5984V53.0338C157.825 52.3544 157.612 51.8015 157.185 51.3749C156.759 50.9483 156.206 50.735 155.526 50.735C155.084 50.735 154.689 50.8298 154.341 51.0194C153.994 51.209 153.717 51.4776 153.512 51.8252C153.322 52.1728 153.228 52.5756 153.228 53.0338L152.019 52.4176C152.019 51.5171 152.209 50.735 152.588 50.0715C152.983 49.3921 153.52 48.8628 154.199 48.4836C154.894 48.1044 155.677 47.9149 156.545 47.9149C157.383 47.9149 158.133 48.1281 158.797 48.5547C159.46 48.9655 159.982 49.5106 160.361 50.1899C160.74 50.8535 160.93 51.5724 160.93 52.3465V59.5984H157.825ZM150.123 59.5984V48.1518H153.228V59.5984H150.123ZM170.73 59.5984L166.298 53.6974L170.706 48.1518H174.285L169.118 54.4083L169.237 52.8916L174.522 59.5984H170.73ZM163.431 59.5984V42.4641H166.535V59.5984H163.431ZM175.535 59.5984V48.1518H178.663V59.5984H175.535ZM177.099 46.3033C176.593 46.3033 176.174 46.1374 175.843 45.8057C175.511 45.4581 175.345 45.0315 175.345 44.5259C175.345 44.0361 175.511 43.6175 175.843 43.2699C176.174 42.9223 176.593 42.7485 177.099 42.7485C177.62 42.7485 178.039 42.9223 178.355 43.2699C178.686 43.6175 178.852 44.0361 178.852 44.5259C178.852 45.0315 178.686 45.4581 178.355 45.8057C178.039 46.1374 177.62 46.3033 177.099 46.3033ZM189.115 59.5984V53.0338C189.115 52.3544 188.902 51.8015 188.475 51.3749C188.049 50.9483 187.496 50.735 186.816 50.735C186.374 50.735 185.979 50.8298 185.631 51.0194C185.284 51.209 185.007 51.4776 184.802 51.8252C184.612 52.1728 184.518 52.5756 184.518 53.0338L183.309 52.4176C183.309 51.5171 183.498 50.735 183.878 50.0715C184.273 49.3921 184.81 48.8628 185.489 48.4836C186.184 48.1044 186.966 47.9149 187.835 47.9149C188.673 47.9149 189.423 48.1281 190.087 48.5547C190.75 48.9655 191.272 49.5106 191.651 50.1899C192.03 50.8535 192.22 51.5724 192.22 52.3465V59.5984H189.115ZM181.413 59.5984V48.1518H184.518V59.5984H181.413ZM199.508 64.6699C198.291 64.6699 197.217 64.4488 196.285 64.0064C195.352 63.5798 194.61 62.9715 194.057 62.1816L196.024 60.2146C196.466 60.7359 196.956 61.1309 197.493 61.3995C198.046 61.6839 198.71 61.8261 199.484 61.8261C200.448 61.8261 201.206 61.5812 201.759 61.0914C202.328 60.6016 202.612 59.9223 202.612 59.0533V56.1858L203.134 53.6737L202.636 51.1616V48.1518H205.717V59.0059C205.717 60.1435 205.448 61.1309 204.911 61.9683C204.39 62.8214 203.663 63.485 202.731 63.959C201.798 64.433 200.724 64.6699 199.508 64.6699ZM199.365 59.2903C198.338 59.2903 197.414 59.0454 196.593 58.5556C195.771 58.0501 195.123 57.3628 194.649 56.4938C194.191 55.6249 193.962 54.6532 193.962 53.5789C193.962 52.5045 194.191 51.5408 194.649 50.6876C195.123 49.8345 195.771 49.163 196.593 48.6732C197.414 48.1676 198.338 47.9149 199.365 47.9149C200.219 47.9149 200.969 48.0808 201.617 48.4125C202.28 48.7443 202.802 49.2025 203.181 49.7871C203.56 50.3558 203.765 51.0273 203.797 51.8015V55.4037C203.765 56.1621 203.552 56.8414 203.157 57.4418C202.778 58.0264 202.257 58.4845 201.593 58.8163C200.945 59.1323 200.203 59.2903 199.365 59.2903ZM199.982 56.4701C200.55 56.4701 201.04 56.3516 201.451 56.1147C201.877 55.8619 202.209 55.5222 202.446 55.0956C202.683 54.6532 202.802 54.1556 202.802 53.6026C202.802 53.0338 202.683 52.5361 202.446 52.1096C202.209 51.683 201.877 51.3512 201.451 51.1142C201.04 50.8614 200.55 50.735 199.982 50.735C199.413 50.735 198.915 50.8614 198.489 51.1142C198.062 51.3512 197.73 51.6909 197.493 52.1333C197.256 52.5598 197.138 53.0496 197.138 53.6026C197.138 54.1398 197.256 54.6295 197.493 55.0719C197.73 55.4985 198.062 55.8382 198.489 56.091C198.915 56.3437 199.413 56.4701 199.982 56.4701Z" fill="black"/>
<line x1="27.6484" y1="198.149" x2="313.351" y2="198.149" stroke="black" stroke-width="1.3166"/>
<path d="M22.8886 78.7798V71.47H23.8681V78.7798H22.8886ZM21.3929 72.3548V71.47H23.7628V72.3548H21.3929ZM28.1938 78.8851C27.646 78.8851 27.144 78.7306 26.6876 78.4217C26.2382 78.1127 25.88 77.6774 25.6132 77.1156C25.3464 76.5468 25.213 75.8797 25.213 75.1144C25.213 74.349 25.3429 73.6854 25.6027 73.1237C25.8695 72.5619 26.2276 72.1301 26.677 71.8281C27.1264 71.5192 27.6215 71.3647 28.1622 71.3647C28.7169 71.3647 29.2189 71.5192 29.6683 71.8281C30.1177 72.1301 30.4724 72.5619 30.7322 73.1237C30.999 73.6854 31.1324 74.3525 31.1324 75.1249C31.1324 75.8903 30.999 76.5574 30.7322 77.1261C30.4724 77.6879 30.1177 78.1232 29.6683 78.4322C29.226 78.7341 28.7344 78.8851 28.1938 78.8851ZM28.1727 77.9477C28.5589 77.9477 28.8959 77.8424 29.1838 77.6317C29.4788 77.414 29.7105 77.0945 29.879 76.6732C30.0475 76.2519 30.1318 75.7323 30.1318 75.1144C30.1318 74.4964 30.0475 73.9803 29.879 73.566C29.7105 73.1447 29.4788 72.8287 29.1838 72.6181C28.8889 72.4004 28.5484 72.2916 28.1622 72.2916C27.783 72.2916 27.4459 72.4004 27.151 72.6181C26.8561 72.8287 26.6244 73.1447 26.4558 73.566C26.2943 73.9803 26.2136 74.4964 26.2136 75.1144C26.2136 75.7323 26.2943 76.2519 26.4558 76.6732C26.6244 77.0945 26.8561 77.414 27.151 77.6317C27.4459 77.8424 27.7865 77.9477 28.1727 77.9477ZM35.1059 78.8851C34.5582 78.8851 34.0561 78.7306 33.5997 78.4217C33.1503 78.1127 32.7922 77.6774 32.5254 77.1156C32.2585 76.5468 32.1251 75.8797 32.1251 75.1144C32.1251 74.349 32.255 73.6854 32.5148 73.1237C32.7817 72.5619 33.1398 72.1301 33.5892 71.8281C34.0386 71.5192 34.5336 71.3647 35.0743 71.3647C35.629 71.3647 36.1311 71.5192 36.5805 71.8281C37.0299 72.1301 37.3845 72.5619 37.6443 73.1237C37.9112 73.6854 38.0446 74.3525 38.0446 75.1249C38.0446 75.8903 37.9112 76.5574 37.6443 77.1261C37.3845 77.6879 37.0299 78.1232 36.5805 78.4322C36.1381 78.7341 35.6466 78.8851 35.1059 78.8851ZM35.0848 77.9477C35.4711 77.9477 35.8081 77.8424 36.096 77.6317C36.3909 77.414 36.6226 77.0945 36.7912 76.6732C36.9597 76.2519 37.044 75.7323 37.044 75.1144C37.044 74.4964 36.9597 73.9803 36.7912 73.566C36.6226 73.1447 36.3909 72.8287 36.096 72.6181C35.8011 72.4004 35.4605 72.2916 35.0743 72.2916C34.6951 72.2916 34.3581 72.4004 34.0632 72.6181C33.7682 72.8287 33.5365 73.1447 33.368 73.566C33.2065 73.9803 33.1257 74.4964 33.1257 75.1144C33.1257 75.7323 33.2065 76.2519 33.368 76.6732C33.5365 77.0945 33.7682 77.414 34.0632 77.6317C34.3581 77.8424 34.6986 77.9477 35.0848 77.9477ZM42.4394 78.7798L40.1011 76.2203L42.4183 73.7767H43.5664L40.9859 76.4731L41.028 75.9254L43.6612 78.7798H42.4394ZM39.2374 78.7798V71.2594H40.1854V78.7798H39.2374Z" fill="#454545"/>
<path d="M23.9629 107.001C23.4784 107.001 23.0501 106.91 22.6779 106.727C22.3128 106.544 22.0284 106.292 21.8248 105.969C21.6211 105.646 21.5193 105.28 21.5193 104.873C21.5193 104.543 21.5825 104.241 21.7089 103.967C21.8353 103.694 22.0214 103.462 22.2671 103.272C22.5129 103.076 22.8008 102.935 23.1308 102.851L23.1624 103.135C22.8816 103.058 22.6428 102.935 22.4462 102.767C22.2496 102.591 22.0986 102.387 21.9933 102.156C21.895 101.917 21.8458 101.664 21.8458 101.397C21.8458 101.018 21.9371 100.685 22.1197 100.397C22.3023 100.109 22.5515 99.8842 22.8675 99.7227C23.1905 99.5541 23.5557 99.4699 23.9629 99.4699C24.3772 99.4699 24.7424 99.5541 25.0583 99.7227C25.3743 99.8842 25.6236 100.109 25.8062 100.397C25.9887 100.685 26.08 101.018 26.08 101.397C26.08 101.664 26.0274 101.917 25.922 102.156C25.8237 102.387 25.6763 102.591 25.4797 102.767C25.2901 102.935 25.0548 103.058 24.774 103.135L24.795 102.851C25.1321 102.935 25.42 103.076 25.6587 103.272C25.9045 103.462 26.0906 103.694 26.217 103.967C26.3504 104.241 26.4171 104.543 26.4171 104.873C26.4171 105.28 26.3153 105.646 26.1116 105.969C25.908 106.292 25.6201 106.544 25.2479 106.727C24.8828 106.91 24.4545 107.001 23.9629 107.001ZM23.9629 106.106C24.2579 106.106 24.5141 106.049 24.7318 105.937C24.9565 105.818 25.1321 105.656 25.2585 105.453C25.3919 105.249 25.4586 105.014 25.4586 104.747C25.4586 104.487 25.3919 104.255 25.2585 104.052C25.1321 103.848 24.9565 103.69 24.7318 103.578C24.5141 103.458 24.2579 103.399 23.9629 103.399C23.675 103.399 23.4187 103.458 23.194 103.578C22.9693 103.69 22.7903 103.848 22.6569 104.052C22.5305 104.255 22.4673 104.487 22.4673 104.747C22.4673 105.014 22.5305 105.249 22.6569 105.453C22.7903 105.656 22.9693 105.818 23.194 105.937C23.4187 106.049 23.675 106.106 23.9629 106.106ZM23.9629 102.63C24.314 102.63 24.6019 102.521 24.8266 102.303C25.0513 102.086 25.1637 101.805 25.1637 101.461C25.1637 101.124 25.0513 100.85 24.8266 100.639C24.6019 100.421 24.314 100.312 23.9629 100.312C23.6189 100.312 23.3345 100.421 23.1098 100.639C22.8851 100.85 22.7727 101.124 22.7727 101.461C22.7727 101.805 22.8851 102.086 23.1098 102.303C23.3345 102.521 23.6189 102.63 23.9629 102.63ZM30.3332 107.001C29.7855 107.001 29.2835 106.846 28.827 106.537C28.3776 106.228 28.0195 105.793 27.7527 105.231C27.4859 104.663 27.3524 103.995 27.3524 103.23C27.3524 102.465 27.4823 101.801 27.7422 101.239C28.009 100.678 28.3671 100.246 28.8165 99.9438C29.2659 99.6349 29.7609 99.4804 30.3016 99.4804C30.8564 99.4804 31.3584 99.6349 31.8078 99.9438C32.2572 100.246 32.6118 100.678 32.8716 101.239C33.1385 101.801 33.2719 102.468 33.2719 103.241C33.2719 104.006 33.1385 104.673 32.8716 105.242C32.6118 105.804 32.2572 106.239 31.8078 106.548C31.3654 106.85 30.8739 107.001 30.3332 107.001ZM30.3122 106.063C30.6984 106.063 31.0354 105.958 31.3233 105.747C31.6182 105.53 31.85 105.21 32.0185 104.789C32.187 104.368 32.2713 103.848 32.2713 103.23C32.2713 102.612 32.187 102.096 32.0185 101.682C31.85 101.26 31.6182 100.944 31.3233 100.734C31.0284 100.516 30.6878 100.407 30.3016 100.407C29.9224 100.407 29.5854 100.516 29.2905 100.734C28.9956 100.944 28.7638 101.26 28.5953 101.682C28.4338 102.096 28.3531 102.612 28.3531 103.23C28.3531 103.848 28.4338 104.368 28.5953 104.789C28.7638 105.21 28.9956 105.53 29.2905 105.747C29.5854 105.958 29.926 106.063 30.3122 106.063ZM37.6667 106.896L35.3284 104.336L37.6456 101.892H38.7937L36.2132 104.589L36.2553 104.041L38.8885 106.896H37.6667ZM34.4647 106.896V99.3751H35.4127V106.896H34.4647Z" fill="#454545"/>
<path d="M24.0367 135.117C23.5522 135.117 23.1168 135.004 22.7306 134.78C22.3514 134.555 22.0495 134.253 21.8248 133.874C21.6001 133.495 21.4877 133.073 21.4877 132.61C21.4877 131.964 21.7124 131.321 22.1618 130.682L24.3105 127.702H25.4586L23.2572 130.704L22.8991 130.893C22.9834 130.746 23.0852 130.623 23.2046 130.524C23.3239 130.419 23.4714 130.338 23.6469 130.282C23.8225 130.226 24.0296 130.198 24.2684 130.198C24.6967 130.198 25.0829 130.3 25.427 130.503C25.7781 130.707 26.059 130.988 26.2696 131.346C26.4873 131.697 26.5961 132.108 26.5961 132.578C26.5961 133.042 26.4803 133.467 26.2486 133.853C26.0239 134.239 25.7149 134.548 25.3217 134.78C24.9355 135.004 24.5071 135.117 24.0367 135.117ZM24.0367 134.19C24.3316 134.19 24.5949 134.12 24.8266 133.979C25.0654 133.832 25.2514 133.639 25.3849 133.4C25.5253 133.154 25.5955 132.88 25.5955 132.578C25.5955 132.276 25.5253 132.006 25.3849 131.767C25.2514 131.522 25.0654 131.328 24.8266 131.188C24.5949 131.048 24.3316 130.977 24.0367 130.977C23.7417 130.977 23.4749 131.048 23.2362 131.188C23.0044 131.328 22.8184 131.522 22.6779 131.767C22.5445 132.006 22.4778 132.276 22.4778 132.578C22.4778 132.88 22.5445 133.154 22.6779 133.4C22.8184 133.646 23.0044 133.839 23.2362 133.979C23.4749 134.12 23.7417 134.19 24.0367 134.19ZM30.4875 135.117C29.9398 135.117 29.4377 134.962 28.9813 134.653C28.5319 134.344 28.1738 133.909 27.907 133.347C27.6401 132.779 27.5067 132.111 27.5067 131.346C27.5067 130.581 27.6366 129.917 27.8964 129.355C28.1633 128.794 28.5214 128.362 28.9708 128.06C29.4202 127.751 29.9152 127.596 30.4559 127.596C31.0106 127.596 31.5127 127.751 31.9621 128.06C32.4115 128.362 32.7661 128.794 33.0259 129.355C33.2928 129.917 33.4262 130.584 33.4262 131.357C33.4262 132.122 33.2928 132.789 33.0259 133.358C32.7661 133.92 32.4115 134.355 31.9621 134.664C31.5197 134.966 31.0282 135.117 30.4875 135.117ZM30.4665 134.179C30.8527 134.179 31.1897 134.074 31.4776 133.863C31.7725 133.646 32.0042 133.326 32.1728 132.905C32.3413 132.484 32.4256 131.964 32.4256 131.346C32.4256 130.728 32.3413 130.212 32.1728 129.798C32.0042 129.376 31.7725 129.06 31.4776 128.85C31.1827 128.632 30.8421 128.523 30.4559 128.523C30.0767 128.523 29.7397 128.632 29.4448 128.85C29.1499 129.06 28.9181 129.376 28.7496 129.798C28.5881 130.212 28.5073 130.728 28.5073 131.346C28.5073 131.964 28.5881 132.484 28.7496 132.905C28.9181 133.326 29.1499 133.646 29.4448 133.863C29.7397 134.074 30.0802 134.179 30.4665 134.179ZM37.821 135.011L35.4827 132.452L37.7999 130.008H38.948L36.3675 132.705L36.4096 132.157L39.0428 135.011H37.821ZM34.619 135.011V127.491H35.567V135.011H34.619Z" fill="#454545"/>
<path d="M21.414 160.61L24.0788 155.817H25.1953L22.4778 160.61H21.414ZM21.414 161.221V160.61L21.8353 160.336H27.0174V161.221H21.414ZM24.9846 163.127V158.293H25.9642V163.127H24.9846ZM30.8372 163.233C30.2895 163.233 29.7875 163.078 29.331 162.769C28.8816 162.46 28.5235 162.025 28.2567 161.463C27.9899 160.894 27.8565 160.227 27.8565 159.462C27.8565 158.696 27.9864 158.033 28.2462 157.471C28.513 156.909 28.8711 156.477 29.3205 156.176C29.7699 155.867 30.265 155.712 30.8056 155.712C31.3604 155.712 31.8624 155.867 32.3118 156.176C32.7612 156.477 33.1158 156.909 33.3757 157.471C33.6425 158.033 33.7759 158.7 33.7759 159.472C33.7759 160.238 33.6425 160.905 33.3757 161.474C33.1158 162.035 32.7612 162.471 32.3118 162.78C31.8695 163.082 31.3779 163.233 30.8372 163.233ZM30.8162 162.295C31.2024 162.295 31.5394 162.19 31.8273 161.979C32.1222 161.761 32.354 161.442 32.5225 161.021C32.691 160.599 32.7753 160.08 32.7753 159.462C32.7753 158.844 32.691 158.328 32.5225 157.913C32.354 157.492 32.1222 157.176 31.8273 156.965C31.5324 156.748 31.1918 156.639 30.8056 156.639C30.4265 156.639 30.0894 156.748 29.7945 156.965C29.4996 157.176 29.2679 157.492 29.0993 157.913C28.9378 158.328 28.8571 158.844 28.8571 159.462C28.8571 160.08 28.9378 160.599 29.0993 161.021C29.2679 161.442 29.4996 161.761 29.7945 161.979C30.0894 162.19 30.43 162.295 30.8162 162.295ZM38.1707 163.127L35.8324 160.568L38.1497 158.124H39.2977L36.7172 160.821L36.7593 160.273L39.3925 163.127H38.1707ZM34.9687 163.127V155.607H35.9167V163.127H34.9687Z" fill="#454545"/>
<path d="M21.414 190.643L24.1104 187.799C24.3842 187.518 24.5984 187.276 24.7529 187.072C24.9074 186.862 25.0162 186.668 25.0794 186.493C25.1496 186.317 25.1847 186.135 25.1847 185.945C25.1847 185.573 25.0654 185.282 24.8266 185.071C24.5879 184.86 24.2789 184.755 23.8997 184.755C23.5276 184.755 23.2011 184.846 22.9202 185.029C22.6393 185.204 22.39 185.478 22.1724 185.85L21.4772 185.271C21.7651 184.794 22.1127 184.435 22.5199 184.197C22.9272 183.951 23.3977 183.828 23.9313 183.828C24.3807 183.828 24.7704 183.916 25.1005 184.091C25.4375 184.267 25.6973 184.513 25.8799 184.829C26.0625 185.145 26.1538 185.513 26.1538 185.935C26.1538 186.237 26.1151 186.507 26.0379 186.746C25.9677 186.984 25.8378 187.23 25.6482 187.483C25.4656 187.729 25.2093 188.024 24.8793 188.368L22.699 190.611L21.414 190.643ZM21.414 191.243V190.643L22.2566 190.358H26.3223V191.243H21.414ZM30.2407 191.348C29.6929 191.348 29.1909 191.194 28.7345 190.885C28.2851 190.576 27.9269 190.141 27.6601 189.579C27.3933 189.01 27.2599 188.343 27.2599 187.578C27.2599 186.812 27.3898 186.149 27.6496 185.587C27.9164 185.025 28.2745 184.593 28.7239 184.292C29.1733 183.983 29.6684 183.828 30.2091 183.828C30.7638 183.828 31.2659 183.983 31.7153 184.292C32.1647 184.593 32.5193 185.025 32.7791 185.587C33.0459 186.149 33.1793 186.816 33.1793 187.588C33.1793 188.354 33.0459 189.021 32.7791 189.59C32.5193 190.151 32.1647 190.587 31.7153 190.896C31.2729 191.198 30.7813 191.348 30.2407 191.348ZM30.2196 190.411C30.6058 190.411 30.9428 190.306 31.2307 190.095C31.5257 189.877 31.7574 189.558 31.9259 189.137C32.0944 188.715 32.1787 188.196 32.1787 187.578C32.1787 186.96 32.0944 186.444 31.9259 186.029C31.7574 185.608 31.5257 185.292 31.2307 185.081C30.9358 184.864 30.5953 184.755 30.2091 184.755C29.8299 184.755 29.4928 184.864 29.1979 185.081C28.903 185.292 28.6713 185.608 28.5027 186.029C28.3412 186.444 28.2605 186.96 28.2605 187.578C28.2605 188.196 28.3412 188.715 28.5027 189.137C28.6713 189.558 28.903 189.877 29.1979 190.095C29.4928 190.306 29.8334 190.411 30.2196 190.411ZM37.5741 191.243L35.2358 188.684L37.5531 186.24H38.7011L36.1206 188.936L36.1627 188.389L38.7959 191.243H37.5741ZM34.3722 191.243V183.723H35.3201V191.243H34.3722Z" fill="#454545"/>
<path d="M302.006 78.7798V71.47H302.985V78.7798H302.006ZM300.51 72.3548V71.47H302.88V72.3548H300.51ZM304.183 78.1794L306.879 75.3356C307.153 75.0547 307.367 74.8124 307.522 74.6088C307.676 74.3981 307.785 74.205 307.848 74.0295C307.918 73.8539 307.953 73.6714 307.953 73.4818C307.953 73.1096 307.834 72.8182 307.595 72.6076C307.357 72.3969 307.048 72.2916 306.668 72.2916C306.296 72.2916 305.97 72.3829 305.689 72.5654C305.408 72.741 305.159 73.0148 304.941 73.387L304.246 72.8077C304.534 72.3302 304.881 71.9721 305.289 71.7333C305.696 71.4876 306.166 71.3647 306.7 71.3647C307.149 71.3647 307.539 71.4525 307.869 71.628C308.206 71.8035 308.466 72.0493 308.649 72.3653C308.831 72.6813 308.922 73.0499 308.922 73.4712C308.922 73.7732 308.884 74.0435 308.807 74.2823C308.736 74.521 308.606 74.7668 308.417 75.0196C308.234 75.2653 307.978 75.5603 307.648 75.9043L305.468 78.1478L304.183 78.1794ZM304.183 78.7798V78.1794L305.025 77.895H309.091V78.7798H304.183ZM312.146 78.8851C311.647 78.8851 311.201 78.7973 310.808 78.6218C310.422 78.4392 310.095 78.1759 309.828 77.8318L310.503 77.1577C310.664 77.4035 310.885 77.6001 311.166 77.7476C311.454 77.888 311.774 77.9582 312.125 77.9582C312.455 77.9582 312.743 77.895 312.988 77.7686C313.241 77.6422 313.438 77.4667 313.578 77.242C313.726 77.0103 313.799 76.7364 313.799 76.4204C313.799 76.0974 313.729 75.8236 313.589 75.5989C313.448 75.3742 313.259 75.2056 313.02 75.0933C312.788 74.9739 312.532 74.9142 312.251 74.9142C311.963 74.9142 311.7 74.9493 311.461 75.0196C311.229 75.0898 311.008 75.2092 310.797 75.3777L310.808 74.7457C310.927 74.5983 311.064 74.4789 311.219 74.3876C311.373 74.2963 311.549 74.2261 311.745 74.1769C311.942 74.1278 312.17 74.1032 312.43 74.1032C312.936 74.1032 313.364 74.2085 313.715 74.4192C314.066 74.6299 314.333 74.9142 314.516 75.2724C314.705 75.6305 314.8 76.0307 314.8 76.4731C314.8 76.9365 314.684 77.3508 314.452 77.716C314.228 78.0811 313.915 78.369 313.515 78.5797C313.115 78.7833 312.658 78.8851 312.146 78.8851ZM310.797 75.3777L310.26 74.8405L310.587 71.47H311.493L311.124 74.9353L310.797 75.3777ZM310.787 72.3548L310.587 71.47H314.431V72.3548H310.787ZM318.708 78.8851C318.16 78.8851 317.658 78.7306 317.202 78.4217C316.752 78.1127 316.394 77.6774 316.127 77.1156C315.86 76.5468 315.727 75.8797 315.727 75.1144C315.727 74.349 315.857 73.6854 316.117 73.1237C316.384 72.5619 316.742 72.1301 317.191 71.8281C317.64 71.5192 318.135 71.3647 318.676 71.3647C319.231 71.3647 319.733 71.5192 320.182 71.8281C320.632 72.1301 320.986 72.5619 321.246 73.1237C321.513 73.6854 321.646 74.3525 321.646 75.1249C321.646 75.8903 321.513 76.5574 321.246 77.1261C320.986 77.6879 320.632 78.1232 320.182 78.4322C319.74 78.7341 319.248 78.8851 318.708 78.8851ZM318.687 77.9477C319.073 77.9477 319.41 77.8424 319.698 77.6317C319.993 77.414 320.225 77.0945 320.393 76.6732C320.562 76.2519 320.646 75.7323 320.646 75.1144C320.646 74.4964 320.562 73.9803 320.393 73.566C320.225 73.1447 319.993 72.8287 319.698 72.6181C319.403 72.4004 319.062 72.2916 318.676 72.2916C318.297 72.2916 317.96 72.4004 317.665 72.6181C317.37 72.8287 317.138 73.1447 316.97 73.566C316.808 73.9803 316.728 74.4964 316.728 75.1144C316.728 75.7323 316.808 76.2519 316.97 76.6732C317.138 77.0945 317.37 77.414 317.665 77.6317C317.96 77.8424 318.301 77.9477 318.687 77.9477Z" fill="#454545"/>
<path d="M302.006 106.896V99.5857H302.985V106.896H302.006ZM300.51 100.47V99.5857H302.88V100.47H300.51ZM307.311 107.001C306.763 107.001 306.261 106.846 305.805 106.537C305.355 106.228 304.997 105.793 304.73 105.231C304.464 104.663 304.33 103.995 304.33 103.23C304.33 102.465 304.46 101.801 304.72 101.239C304.987 100.678 305.345 100.246 305.794 99.9438C306.244 99.6349 306.739 99.4804 307.279 99.4804C307.834 99.4804 308.336 99.6349 308.786 99.9438C309.235 100.246 309.59 100.678 309.849 101.239C310.116 101.801 310.25 102.468 310.25 103.241C310.25 104.006 310.116 104.673 309.849 105.242C309.59 105.804 309.235 106.239 308.786 106.548C308.343 106.85 307.852 107.001 307.311 107.001ZM307.29 106.063C307.676 106.063 308.013 105.958 308.301 105.747C308.596 105.53 308.828 105.21 308.996 104.789C309.165 104.368 309.249 103.848 309.249 103.23C309.249 102.612 309.165 102.096 308.996 101.682C308.828 101.26 308.596 100.944 308.301 100.734C308.006 100.516 307.666 100.407 307.279 100.407C306.9 100.407 306.563 100.516 306.268 100.734C305.973 100.944 305.742 101.26 305.573 101.682C305.412 102.096 305.331 102.612 305.331 103.23C305.331 103.848 305.412 104.368 305.573 104.789C305.742 105.21 305.973 105.53 306.268 105.747C306.563 105.958 306.904 106.063 307.29 106.063ZM314.223 107.001C313.675 107.001 313.173 106.846 312.717 106.537C312.268 106.228 311.909 105.793 311.643 105.231C311.376 104.663 311.242 103.995 311.242 103.23C311.242 102.465 311.372 101.801 311.632 101.239C311.899 100.678 312.257 100.246 312.706 99.9438C313.156 99.6349 313.651 99.4804 314.192 99.4804C314.746 99.4804 315.248 99.6349 315.698 99.9438C316.147 100.246 316.502 100.678 316.762 101.239C317.028 101.801 317.162 102.468 317.162 103.241C317.162 104.006 317.028 104.673 316.762 105.242C316.502 105.804 316.147 106.239 315.698 106.548C315.255 106.85 314.764 107.001 314.223 107.001ZM314.202 106.063C314.588 106.063 314.925 105.958 315.213 105.747C315.508 105.53 315.74 105.21 315.908 104.789C316.077 104.368 316.161 103.848 316.161 103.23C316.161 102.612 316.077 102.096 315.908 101.682C315.74 101.26 315.508 100.944 315.213 100.734C314.918 100.516 314.578 100.407 314.192 100.407C313.812 100.407 313.475 100.516 313.18 100.734C312.885 100.944 312.654 101.26 312.485 101.682C312.324 102.096 312.243 102.612 312.243 103.23C312.243 103.848 312.324 104.368 312.485 104.789C312.654 105.21 312.885 105.53 313.18 105.747C313.475 105.958 313.816 106.063 314.202 106.063ZM321.135 107.001C320.588 107.001 320.085 106.846 319.629 106.537C319.18 106.228 318.822 105.793 318.555 105.231C318.288 104.663 318.154 103.995 318.154 103.23C318.154 102.465 318.284 101.801 318.544 101.239C318.811 100.678 319.169 100.246 319.619 99.9438C320.068 99.6349 320.563 99.4804 321.104 99.4804C321.658 99.4804 322.16 99.6349 322.61 99.9438C323.059 100.246 323.414 100.678 323.674 101.239C323.941 101.801 324.074 102.468 324.074 103.241C324.074 104.006 323.941 104.673 323.674 105.242C323.414 105.804 323.059 106.239 322.61 106.548C322.167 106.85 321.676 107.001 321.135 107.001ZM321.114 106.063C321.5 106.063 321.837 105.958 322.125 105.747C322.42 105.53 322.652 105.21 322.821 104.789C322.989 104.368 323.073 103.848 323.073 103.23C323.073 102.612 322.989 102.096 322.821 101.682C322.652 101.26 322.42 100.944 322.125 100.734C321.83 100.516 321.49 100.407 321.104 100.407C320.724 100.407 320.387 100.516 320.093 100.734C319.798 100.944 319.566 101.26 319.397 101.682C319.236 102.096 319.155 102.612 319.155 103.23C319.155 103.848 319.236 104.368 319.397 104.789C319.566 105.21 319.798 105.53 320.093 105.747C320.387 105.958 320.728 106.063 321.114 106.063Z" fill="#454545"/>
<path d="M301.658 135.011L304.397 128.281L305.376 128.313L302.701 135.011H301.658ZM300.51 128.586V127.702H305.376V128.313L304.944 128.586H300.51ZM308.33 135.117C307.831 135.117 307.385 135.029 306.992 134.853C306.606 134.671 306.279 134.408 306.012 134.064L306.686 133.389C306.848 133.635 307.069 133.832 307.35 133.979C307.638 134.12 307.957 134.19 308.309 134.19C308.639 134.19 308.926 134.127 309.172 134C309.425 133.874 309.622 133.698 309.762 133.474C309.91 133.242 309.983 132.968 309.983 132.652C309.983 132.329 309.913 132.055 309.773 131.831C309.632 131.606 309.443 131.437 309.204 131.325C308.972 131.206 308.716 131.146 308.435 131.146C308.147 131.146 307.884 131.181 307.645 131.251C307.413 131.321 307.192 131.441 306.981 131.609L306.992 130.977C307.111 130.83 307.248 130.711 307.403 130.619C307.557 130.528 307.733 130.458 307.929 130.409C308.126 130.359 308.354 130.335 308.614 130.335C309.12 130.335 309.548 130.44 309.899 130.651C310.25 130.862 310.517 131.146 310.699 131.504C310.889 131.862 310.984 132.262 310.984 132.705C310.984 133.168 310.868 133.583 310.636 133.948C310.412 134.313 310.099 134.601 309.699 134.811C309.299 135.015 308.842 135.117 308.33 135.117ZM306.981 131.609L306.444 131.072L306.771 127.702H307.677L307.308 131.167L306.981 131.609ZM306.971 128.586L306.771 127.702H310.615V128.586H306.971ZM314.892 135.117C314.344 135.117 313.842 134.962 313.385 134.653C312.936 134.344 312.578 133.909 312.311 133.347C312.044 132.779 311.911 132.111 311.911 131.346C311.911 130.581 312.041 129.917 312.301 129.355C312.567 128.794 312.926 128.362 313.375 128.06C313.824 127.751 314.319 127.596 314.86 127.596C315.415 127.596 315.917 127.751 316.366 128.06C316.816 128.362 317.17 128.794 317.43 129.355C317.697 129.917 317.83 130.584 317.83 131.357C317.83 132.122 317.697 132.789 317.43 133.358C317.17 133.92 316.816 134.355 316.366 134.664C315.924 134.966 315.432 135.117 314.892 135.117ZM314.871 134.179C315.257 134.179 315.594 134.074 315.882 133.863C316.177 133.646 316.408 133.326 316.577 132.905C316.745 132.484 316.83 131.964 316.83 131.346C316.83 130.728 316.745 130.212 316.577 129.798C316.408 129.376 316.177 129.06 315.882 128.85C315.587 128.632 315.246 128.523 314.86 128.523C314.481 128.523 314.144 128.632 313.849 128.85C313.554 129.06 313.322 129.376 313.154 129.798C312.992 130.212 312.912 130.728 312.912 131.346C312.912 131.964 312.992 132.484 313.154 132.905C313.322 133.326 313.554 133.646 313.849 133.863C314.144 134.074 314.484 134.179 314.871 134.179Z" fill="#454545"/>
<path d="M302.796 163.233C302.297 163.233 301.851 163.145 301.458 162.969C301.072 162.787 300.745 162.523 300.479 162.179L301.153 161.505C301.314 161.751 301.535 161.948 301.816 162.095C302.104 162.235 302.424 162.306 302.775 162.306C303.105 162.306 303.393 162.242 303.638 162.116C303.891 161.99 304.088 161.814 304.228 161.589C304.376 161.358 304.449 161.084 304.449 160.768C304.449 160.445 304.379 160.171 304.239 159.946C304.098 159.722 303.909 159.553 303.67 159.441C303.438 159.321 303.182 159.262 302.901 159.262C302.613 159.262 302.35 159.297 302.111 159.367C301.879 159.437 301.658 159.557 301.448 159.725L301.458 159.093C301.577 158.946 301.714 158.826 301.869 158.735C302.023 158.644 302.199 158.574 302.395 158.524C302.592 158.475 302.82 158.451 303.08 158.451C303.586 158.451 304.014 158.556 304.365 158.767C304.716 158.977 304.983 159.262 305.166 159.62C305.355 159.978 305.45 160.378 305.45 160.821C305.45 161.284 305.334 161.698 305.102 162.063C304.878 162.429 304.565 162.716 304.165 162.927C303.765 163.131 303.308 163.233 302.796 163.233ZM301.448 159.725L300.91 159.188L301.237 155.817H302.143L301.774 159.283L301.448 159.725ZM301.437 156.702L301.237 155.817H305.081V156.702H301.437ZM309.358 163.233C308.81 163.233 308.308 163.078 307.852 162.769C307.402 162.46 307.044 162.025 306.777 161.463C306.51 160.894 306.377 160.227 306.377 159.462C306.377 158.696 306.507 158.033 306.767 157.471C307.034 156.909 307.392 156.477 307.841 156.176C308.291 155.867 308.786 155.712 309.326 155.712C309.881 155.712 310.383 155.867 310.832 156.176C311.282 156.477 311.636 156.909 311.896 157.471C312.163 158.033 312.297 158.7 312.297 159.472C312.297 160.238 312.163 160.905 311.896 161.474C311.636 162.035 311.282 162.471 310.832 162.78C310.39 163.082 309.899 163.233 309.358 163.233ZM309.337 162.295C309.723 162.295 310.06 162.19 310.348 161.979C310.643 161.761 310.875 161.442 311.043 161.021C311.212 160.599 311.296 160.08 311.296 159.462C311.296 158.844 311.212 158.328 311.043 157.913C310.875 157.492 310.643 157.176 310.348 156.965C310.053 156.748 309.712 156.639 309.326 156.639C308.947 156.639 308.61 156.748 308.315 156.965C308.02 157.176 307.788 157.492 307.62 157.913C307.458 158.328 307.378 158.844 307.378 159.462C307.378 160.08 307.458 160.599 307.62 161.021C307.788 161.442 308.02 161.761 308.315 161.979C308.61 162.19 308.951 162.295 309.337 162.295ZM316.27 163.233C315.722 163.233 315.22 163.078 314.764 162.769C314.314 162.46 313.956 162.025 313.689 161.463C313.423 160.894 313.289 160.227 313.289 159.462C313.289 158.696 313.419 158.033 313.679 157.471C313.946 156.909 314.304 156.477 314.753 156.176C315.203 155.867 315.698 155.712 316.238 155.712C316.793 155.712 317.295 155.867 317.745 156.176C318.194 156.477 318.549 156.909 318.808 157.471C319.075 158.033 319.209 158.7 319.209 159.472C319.209 160.238 319.075 160.905 318.808 161.474C318.549 162.035 318.194 162.471 317.745 162.78C317.302 163.082 316.811 163.233 316.27 163.233ZM316.249 162.295C316.635 162.295 316.972 162.19 317.26 161.979C317.555 161.761 317.787 161.442 317.955 161.021C318.124 160.599 318.208 160.08 318.208 159.462C318.208 158.844 318.124 158.328 317.955 157.913C317.787 157.492 317.555 157.176 317.26 156.965C316.965 156.748 316.625 156.639 316.238 156.639C315.859 156.639 315.522 156.748 315.227 156.965C314.932 157.176 314.701 157.492 314.532 157.913C314.371 158.328 314.29 158.844 314.29 159.462C314.29 160.08 314.371 160.599 314.532 161.021C314.701 161.442 314.932 161.761 315.227 161.979C315.522 162.19 315.863 162.295 316.249 162.295Z" fill="#454545"/>
<path d="M300.531 190.643L303.228 187.799C303.501 187.518 303.716 187.276 303.87 187.072C304.025 186.862 304.133 186.668 304.197 186.493C304.267 186.317 304.302 186.135 304.302 185.945C304.302 185.573 304.183 185.282 303.944 185.071C303.705 184.86 303.396 184.755 303.017 184.755C302.645 184.755 302.318 184.846 302.037 185.029C301.756 185.204 301.507 185.478 301.29 185.85L300.594 185.271C300.882 184.794 301.23 184.435 301.637 184.197C302.044 183.951 302.515 183.828 303.049 183.828C303.498 183.828 303.888 183.916 304.218 184.091C304.555 184.267 304.815 184.513 304.997 184.829C305.18 185.145 305.271 185.513 305.271 185.935C305.271 186.237 305.232 186.507 305.155 186.746C305.085 186.984 304.955 187.23 304.765 187.483C304.583 187.729 304.327 188.024 303.996 188.368L301.816 190.611L300.531 190.643ZM300.531 191.243V190.643L301.374 190.358H305.439V191.243H300.531ZM308.494 191.348C307.996 191.348 307.55 191.261 307.156 191.085C306.77 190.903 306.444 190.639 306.177 190.295L306.851 189.621C307.013 189.867 307.234 190.063 307.515 190.211C307.802 190.351 308.122 190.422 308.473 190.422C308.803 190.422 309.091 190.358 309.337 190.232C309.59 190.106 309.786 189.93 309.927 189.705C310.074 189.474 310.148 189.2 310.148 188.884C310.148 188.561 310.078 188.287 309.937 188.062C309.797 187.838 309.607 187.669 309.368 187.557C309.137 187.437 308.88 187.378 308.599 187.378C308.312 187.378 308.048 187.413 307.81 187.483C307.578 187.553 307.357 187.673 307.146 187.841L307.156 187.209C307.276 187.062 307.413 186.942 307.567 186.851C307.722 186.76 307.897 186.689 308.094 186.64C308.291 186.591 308.519 186.567 308.779 186.567C309.284 186.567 309.712 186.672 310.064 186.883C310.415 187.093 310.681 187.378 310.864 187.736C311.054 188.094 311.148 188.494 311.148 188.936C311.148 189.4 311.033 189.814 310.801 190.179C310.576 190.544 310.264 190.832 309.863 191.043C309.463 191.247 309.007 191.348 308.494 191.348ZM307.146 187.841L306.609 187.304L306.935 183.933H307.841L307.472 187.399L307.146 187.841ZM307.135 184.818L306.935 183.933H310.78V184.818H307.135ZM315.056 191.348C314.509 191.348 314.006 191.194 313.55 190.885C313.101 190.576 312.743 190.141 312.476 189.579C312.209 189.01 312.075 188.343 312.075 187.578C312.075 186.812 312.205 186.149 312.465 185.587C312.732 185.025 313.09 184.593 313.54 184.292C313.989 183.983 314.484 183.828 315.025 183.828C315.579 183.828 316.081 183.983 316.531 184.292C316.98 184.593 317.335 185.025 317.595 185.587C317.862 186.149 317.995 186.816 317.995 187.588C317.995 188.354 317.862 189.021 317.595 189.59C317.335 190.151 316.98 190.587 316.531 190.896C316.088 191.198 315.597 191.348 315.056 191.348ZM315.035 190.411C315.421 190.411 315.758 190.306 316.046 190.095C316.341 189.877 316.573 189.558 316.742 189.137C316.91 188.715 316.994 188.196 316.994 187.578C316.994 186.96 316.91 186.444 316.742 186.029C316.573 185.608 316.341 185.292 316.046 185.081C315.751 184.864 315.411 184.755 315.025 184.755C314.645 184.755 314.308 184.864 314.014 185.081C313.719 185.292 313.487 185.608 313.318 186.029C313.157 186.444 313.076 186.96 313.076 187.578C313.076 188.196 313.157 188.715 313.318 189.137C313.487 189.558 313.719 189.877 314.014 190.095C314.308 190.306 314.649 190.411 315.035 190.411Z" fill="#454545"/>
<rect x="55.2969" y="167.208" width="9.21622" height="28.9653" fill="#0E59AE"/>
<rect x="104.012" y="167.208" width="9.21622" height="28.9653" fill="#0E59AE"/>
<rect x="152.727" y="167.208" width="9.21622" height="28.9653" fill="#0E59AE"/>
<rect x="201.441" y="167.208" width="9.21622" height="28.9653" fill="#0E59AE"/>
<rect x="247.52" y="167.208" width="9.21622" height="28.9653" fill="#0E59AE"/>
<path d="M67.1484 167.208H76.3647V196.174H67.1484V167.208Z" fill="white"/>
<path d="M115.859 143.51H125.076V196.174H115.859V143.51Z" fill="white"/>
<path d="M164.574 125.077H173.79V196.174H164.574V125.077Z" fill="white"/>
<path d="M213.289 97.4285H222.505V196.174H213.289V97.4285Z" fill="white"/>
<rect x="262.004" y="69.7798" width="9.21622" height="126.394" fill="white"/>
<path d="M56.1924 215.812C55.771 215.812 55.3989 215.731 55.0759 215.57C54.7599 215.401 54.5001 215.176 54.2965 214.896L54.9916 214.253C55.125 214.45 55.29 214.601 55.4867 214.706C55.6903 214.811 55.915 214.864 56.1608 214.864C56.4065 214.864 56.6242 214.811 56.8138 214.706C57.0034 214.601 57.1508 214.446 57.2562 214.242C57.3685 214.032 57.4247 213.776 57.4247 213.474V208.397H58.4148V213.421C58.4148 213.905 58.3165 214.327 58.1199 214.685C57.9303 215.043 57.667 215.32 57.3299 215.517C56.9999 215.714 56.6207 215.812 56.1924 215.812ZM59.2957 215.707L62.287 208.397H63.0032L65.984 215.707H64.9097L62.4555 209.524H62.8242L60.349 215.707H59.2957ZM60.7176 214.053V213.189H64.5621V214.053H60.7176ZM67.0844 215.707V208.397H67.7796L68.0745 209.545V215.707H67.0844ZM72.1402 215.707L67.6532 209.713L67.7796 208.397L72.2771 214.379L72.1402 215.707ZM72.1402 215.707L71.8453 214.622V208.397H72.8354V215.707H72.1402Z" fill="black"/>
<path d="M104.875 214.39V207.08H105.865V214.39H104.875ZM105.55 211.177V210.272H109.362V211.177H105.55ZM105.55 207.986V207.08H109.541V207.986H105.55ZM110.841 214.39V207.08H111.831V214.39H110.841ZM111.515 214.39V213.484H115.707V214.39H111.515ZM111.515 211.083V210.219H115.36V211.083H111.515ZM111.515 207.986V207.08H115.655V207.986H111.515ZM117.718 214.39V213.526H119.929C120.351 213.526 120.681 213.403 120.92 213.158C121.158 212.905 121.278 212.603 121.278 212.252C121.278 212.013 121.225 211.799 121.12 211.609C121.014 211.413 120.86 211.258 120.656 211.146C120.46 211.033 120.228 210.977 119.961 210.977H117.718V210.114H119.814C120.165 210.114 120.442 210.022 120.646 209.84C120.856 209.65 120.962 209.38 120.962 209.029C120.962 208.678 120.853 208.411 120.635 208.228C120.417 208.039 120.13 207.944 119.771 207.944H117.718V207.08H119.793C120.27 207.08 120.667 207.168 120.983 207.343C121.306 207.512 121.548 207.737 121.709 208.018C121.878 208.298 121.962 208.607 121.962 208.944C121.962 209.338 121.853 209.682 121.636 209.977C121.425 210.272 121.113 210.503 120.698 210.672L120.783 210.356C121.253 210.524 121.618 210.781 121.878 211.125C122.145 211.462 122.278 211.862 122.278 212.325C122.278 212.712 122.183 213.059 121.994 213.368C121.804 213.677 121.53 213.926 121.172 214.116C120.821 214.299 120.389 214.39 119.877 214.39H117.718ZM117.054 214.39V207.08H118.044V214.39H117.054Z" fill="black"/>
<path d="M152.274 214.39V207.08H152.969L156.066 212.167H155.592L158.688 207.08H159.384V214.39H158.393V208.818L158.625 208.881L156.182 212.894H155.486L153.043 208.881L153.264 208.818V214.39H152.274ZM160.572 214.39L163.564 207.08H164.28L167.261 214.39H166.186L163.732 208.207H164.101L161.626 214.39H160.572ZM161.994 212.736V211.873H165.839V212.736H161.994ZM169.025 211.209V210.377H171.005C171.433 210.377 171.763 210.268 171.995 210.05C172.227 209.833 172.342 209.538 172.342 209.166C172.342 208.815 172.227 208.523 171.995 208.291C171.77 208.06 171.444 207.944 171.015 207.944H169.025V207.08H171.047C171.51 207.08 171.914 207.171 172.258 207.354C172.602 207.53 172.866 207.772 173.048 208.081C173.238 208.39 173.333 208.744 173.333 209.145C173.333 209.559 173.238 209.92 173.048 210.229C172.866 210.538 172.602 210.781 172.258 210.956C171.914 211.125 171.51 211.209 171.047 211.209H169.025ZM168.361 214.39V207.08H169.351V214.39H168.361ZM172.574 214.39L169.92 211.114L170.857 210.788L173.828 214.39H172.574Z" fill="black"/>
<path d="M200.452 214.39L203.443 207.08H204.159L207.14 214.39H206.066L203.611 208.207H203.98L201.505 214.39H200.452ZM201.873 212.736V211.873H205.718V212.736H201.873ZM208.904 211.546V210.682H210.895C211.168 210.682 211.411 210.626 211.621 210.514C211.839 210.401 212.008 210.243 212.127 210.04C212.253 209.836 212.316 209.594 212.316 209.313C212.316 209.032 212.253 208.79 212.127 208.586C212.008 208.383 211.839 208.225 211.621 208.112C211.411 208 211.168 207.944 210.895 207.944H208.904V207.08H210.958C211.407 207.08 211.807 207.171 212.158 207.354C212.517 207.537 212.797 207.796 213.001 208.133C213.212 208.463 213.317 208.857 213.317 209.313C213.317 209.762 213.212 210.156 213.001 210.493C212.797 210.823 212.517 211.083 212.158 211.272C211.807 211.455 211.407 211.546 210.958 211.546H208.904ZM208.24 214.39V207.08H209.23V214.39H208.24ZM215.209 211.209V210.377H217.189C217.618 210.377 217.948 210.268 218.179 210.05C218.411 209.833 218.527 209.538 218.527 209.166C218.527 208.815 218.411 208.523 218.179 208.291C217.955 208.06 217.628 207.944 217.2 207.944H215.209V207.08H217.231C217.695 207.08 218.099 207.171 218.443 207.354C218.787 207.53 219.05 207.772 219.233 208.081C219.422 208.39 219.517 208.744 219.517 209.145C219.517 209.559 219.422 209.92 219.233 210.229C219.05 210.538 218.787 210.781 218.443 210.956C218.099 211.125 217.695 211.209 217.231 211.209H215.209ZM214.546 214.39V207.08H215.536V214.39H214.546ZM218.759 214.39L216.104 211.114L217.042 210.788L220.012 214.39H218.759Z" fill="black"/>
<path d="M248.383 215.707V208.397H249.078L252.175 213.484H251.701L254.798 208.397H255.493V215.707H254.503V210.135L254.735 210.198L252.291 214.211H251.596L249.152 210.198L249.373 210.135V215.707H248.383ZM256.682 215.707L259.673 208.397H260.389L263.37 215.707H262.296L259.842 209.524H260.21L257.735 215.707H256.682ZM258.104 214.053V213.189H261.948V214.053H258.104ZM265.759 212.736L262.884 208.397H264.032L266.349 211.946H265.833L268.161 208.397H269.288L266.391 212.736H265.759ZM265.591 215.707V212.083H266.581V215.707H265.591Z" fill="black"/>
</svg>
