<svg width="32" height="32" viewBox="0 0 32 32" fill="none" xmlns="http://www.w3.org/2000/svg">
<path d="M19.8789 7.72637L16.0352 9.95762L12.1752 7.72637L16.0352 5.49512L19.8789 7.72637ZM25.7339 11.1132L21.8739 13.3445L25.7339 15.5757L29.5777 13.3445L25.7339 11.1132ZM7.33453 16.1532L11.1945 18.3845L15.0383 16.1532L11.1945 13.922L7.33453 16.1532ZM16.0545 11.1176L12.1945 13.3489L16.0545 15.5801L19.8983 13.3489L16.0545 11.1176ZM1.94141 18.6464L5.81641 20.877V16.4395L1.94141 14.2114V18.6489V18.6464ZM25.2539 17.0214L21.3789 19.252V23.6857L25.2539 21.457V17.0214ZM11.1845 8.30887L7.32453 10.5401L11.1845 12.7714L15.0283 10.5401L11.1845 8.30887ZM6.81641 21.4551L10.6914 23.6857V19.252L6.81641 17.0214V21.4589V21.4551ZM20.9045 13.927L17.0445 16.1582L20.9045 18.3895L24.7483 16.1582L20.9045 13.927ZM15.5664 22.0645L11.6914 19.8332V24.2707L15.5664 26.502V22.0645ZM20.3789 19.8351L16.5664 22.0645V26.4982L20.3789 24.2695V19.8351ZM20.8833 8.30387L17.0233 10.5351L20.8833 12.7664L24.727 10.5351L20.8833 8.30387ZM6.34578 11.1132L2.48516 13.3445L6.34516 15.5757L10.1889 13.3445L6.34578 11.1132ZM30.0664 14.2214L26.2539 16.4501V20.8839L30.0664 18.6551V14.2214ZM12.1845 18.967L16.0445 21.1982L19.8883 18.967L16.0445 16.7357L12.1845 18.967Z" fill="#128C90"/>
</svg>
