<svg width="32" height="32" viewBox="0 0 32 32" fill="none" xmlns="http://www.w3.org/2000/svg">
<path d="M25.3346 12.0008C25.3352 10.394 24.921 8.8143 24.132 7.41454C23.3431 6.01478 22.2061 4.84242 20.8311 4.01093C19.4562 3.17943 17.8899 2.71698 16.2839 2.66834C14.6778 2.6197 13.0864 2.98651 11.6637 3.73326C10.2409 4.48002 9.03508 5.58143 8.16284 6.93088C7.29061 8.28032 6.78152 9.83209 6.68487 11.436C6.58822 13.0399 6.90727 14.6415 7.61115 16.086C8.31502 17.5304 9.37988 18.7686 10.7026 19.6808L6.66797 26.6675L9.67597 26.7915L11.2866 29.3342L15.908 21.3288L16.0013 21.3342C16.048 21.3368 16.0626 21.3302 16.0946 21.3288L20.716 29.3342L22.3586 26.8462L25.3346 26.6675L21.3 19.6808C22.5448 18.8238 23.5625 17.6768 24.2654 16.3389C24.9682 15.001 25.3352 13.5122 25.3346 12.0008ZM9.33464 12.0008C9.33464 10.6823 9.72563 9.39336 10.4582 8.29703C11.1907 7.20071 12.2319 6.34622 13.4501 5.84164C14.6683 5.33705 16.0087 5.20503 17.3019 5.46227C18.5951 5.7195 19.783 6.35444 20.7153 7.28679C21.6477 8.21914 22.2826 9.40703 22.5399 10.7002C22.7971 11.9934 22.6651 13.3339 22.1605 14.5521C21.6559 15.7702 20.8014 16.8114 19.7051 17.544C18.6088 18.2765 17.3198 18.6675 16.0013 18.6675C14.2332 18.6675 12.5375 17.9651 11.2873 16.7149C10.037 15.4646 9.33464 13.7689 9.33464 12.0008Z" fill="#0E59AE"/>
<path d="M16 16C18.2091 16 20 14.2091 20 12C20 9.79086 18.2091 8 16 8C13.7909 8 12 9.79086 12 12C12 14.2091 13.7909 16 16 16Z" fill="#8DBFF7"/>
</svg>
