<svg width="32" height="32" viewBox="0 0 32 32" fill="none" xmlns="http://www.w3.org/2000/svg">
<path d="M7.06526 27.4401H24.9319C26.3186 27.4401 27.4386 26.3201 27.4386 24.9334V7.97339C27.4386 6.08006 25.9186 4.56006 24.0253 4.56006H7.97193C6.07859 4.56006 4.55859 6.08006 4.55859 7.97339V24.9067C4.55859 26.3201 5.67859 27.4401 7.06526 27.4401Z" fill="#C2E8FF"/>
<path d="M4.55859 7.7068V11.3068H27.4119V7.7068C27.4119 5.97346 25.9986 4.5868 24.2919 4.5868H7.70526C5.97193 4.56013 4.55859 5.97346 4.55859 7.7068Z" fill="#41A1FF"/>
<path d="M10.5352 18.7734L11.4152 23.1734C11.5218 23.6534 12.0018 24.0001 12.5352 24.0001H19.4418C20.0018 24.0001 20.4552 23.6534 20.5618 23.1734L21.4418 18.7734C21.4685 18.7734 10.5352 18.7734 10.5352 18.7734ZM14.3752 22.7468C14.3752 22.8801 14.2685 22.9868 14.1352 22.9868H13.6018C13.4685 22.9868 13.3618 22.8801 13.3618 22.7468V20.0001C13.3618 19.8668 13.4685 19.7601 13.6018 19.7601H14.1352C14.2685 19.7601 14.3752 19.8668 14.3752 20.0001V22.7468ZM16.5085 22.7468C16.5085 22.8801 16.4018 22.9868 16.2685 22.9868H15.7352C15.6018 22.9868 15.4952 22.8801 15.4952 22.7468V20.0001C15.4952 19.8668 15.6018 19.7601 15.7352 19.7601H16.2685C16.4018 19.7601 16.5085 19.8668 16.5085 20.0001V22.7468ZM18.6418 22.7468C18.6418 22.8801 18.5352 22.9868 18.4018 22.9868H17.8685C17.7352 22.9868 17.6285 22.8801 17.6285 22.7468V20.0001C17.6285 19.8668 17.7352 19.7601 17.8685 19.7601H18.4018C18.5352 19.7601 18.6418 19.8668 18.6418 20.0001V22.7468Z" fill="#FFC777"/>
<path d="M21.8672 18.7733H10.1072C9.97385 18.7733 9.86719 18.6666 9.86719 18.5333V17.6799C9.86719 17.5466 9.97385 17.4399 10.1072 17.4399H21.8672C22.0005 17.4399 22.1072 17.5466 22.1072 17.6799V18.5333C22.1072 18.6666 22.0005 18.7733 21.8672 18.7733Z" fill="#FCB75B"/>
<path d="M16.5878 14.32L16.1345 14.6133C16.0278 14.6666 16.0278 14.88 16.1078 15.04L18.2145 18.5066C18.3211 18.6666 18.4811 18.7466 18.5878 18.6666L19.0411 18.3733C19.1478 18.32 19.1478 18.1066 19.0678 17.9466L16.9878 14.48C16.8811 14.32 16.6945 14.24 16.5878 14.32Z" fill="#FFC777"/>
<path d="M15.3886 14.32L15.8419 14.6133C15.9486 14.6666 15.9486 14.88 15.8686 15.04L13.7619 18.5066C13.6553 18.6666 13.4953 18.7466 13.3886 18.6666L12.9353 18.4C12.8286 18.3466 12.8286 18.1333 12.9086 17.9733L14.9886 14.5066C15.1219 14.32 15.2819 14.24 15.3886 14.32Z" fill="#FFC777"/>
<path d="M13.4158 17.8667C13.2824 17.8667 13.1758 17.9734 13.1758 18.1067C13.1758 18.24 13.2824 18.3467 13.4158 18.3467C13.5491 18.3467 13.6558 18.24 13.6558 18.1067C13.6291 17.9734 13.5491 17.8667 13.4158 17.8667Z" fill="#F68989"/>
<path d="M18.5877 17.8667C18.4543 17.8667 18.3477 17.9734 18.3477 18.1067C18.3477 18.24 18.4543 18.3467 18.5877 18.3467C18.721 18.3467 18.8277 18.24 18.8277 18.1067C18.8277 17.9734 18.721 17.8667 18.5877 17.8667Z" fill="#F68989"/>
</svg>
