<svg width="32" height="32" viewBox="0 0 32 32" fill="none" xmlns="http://www.w3.org/2000/svg">
<g clip-path="url(#clip0_2909_12085)">
<path d="M16 32C24.8366 32 32 24.8366 32 16C32 7.16344 24.8366 0 16 0C7.16344 0 0 7.16344 0 16C0 24.8366 7.16344 32 16 32Z" fill="#1F625D"/>
<path d="M12.0054 6.8418V10.5581H8.28906V26.6908H25.0987V6.8418H12.0054Z" fill="#ACB3BA"/>
<path d="M10.6186 25.1581V21.4418H6.90234V5.30908H23.712V25.1581H10.6186Z" fill="white"/>
<path d="M10.6186 25.1577L6.90234 21.4414H10.6186V25.1577Z" fill="#CED5E0"/>
<path d="M21.2367 13.1528H9.37109V13.8629H21.2367V13.1528Z" fill="#CED5E0"/>
<path d="M21.2367 15.0308H9.37109V15.7408H21.2367V15.0308Z" fill="#CED5E0"/>
<path d="M21.2367 16.9155H9.37109V17.6256H21.2367V16.9155Z" fill="#CED5E0"/>
<path d="M16.4453 18.8003H9.37109V19.5104H16.4453V18.8003Z" fill="#CED5E0"/>
<path d="M10.943 8.70697C10.943 9.03878 10.8103 9.25114 10.5515 9.35069L11.0758 10.0873H10.5117L10.0538 9.43032H9.73524V10.0873H9.27734V8.02344H10.0604C10.379 8.02344 10.6112 8.07653 10.744 8.18271C10.87 8.28889 10.943 8.46807 10.943 8.70697ZM10.3856 8.95251C10.4453 8.89942 10.4719 8.81979 10.4719 8.70697C10.4719 8.59415 10.4453 8.52116 10.3856 8.48134C10.3259 8.44152 10.2263 8.42161 10.0737 8.42161H9.72861V9.03215H10.0671C10.2197 9.02551 10.3325 8.99897 10.3856 8.95251Z" fill="#54C0EB"/>
<path d="M12.9006 8.02324V8.43469H11.872V8.85941H12.7944V9.25094H11.872V9.67566H12.9338V10.0805H11.4141V8.0166H12.9006V8.02324Z" fill="#54C0EB"/>
<path d="M14.7639 8.20242C14.9099 8.32851 14.9829 8.51432 14.9829 8.7665C14.9829 9.01868 14.9099 9.20449 14.7573 9.32394C14.6113 9.4434 14.379 9.50312 14.0737 9.50312H13.8017V10.0805H13.3438V8.0166H14.0737C14.3856 8.02324 14.6179 8.08296 14.7639 8.20242ZM14.4255 9.01867C14.4785 8.95895 14.5051 8.86604 14.5051 8.74659C14.5051 8.62714 14.4719 8.54087 14.3989 8.49441C14.3259 8.44132 14.2131 8.42141 14.0671 8.42141H13.8017V9.11822H14.1136C14.2662 9.11158 14.3724 9.0784 14.4255 9.01867Z" fill="#54C0EB"/>
<path d="M17.0742 9.80182C16.8684 10.0075 16.6096 10.1071 16.3044 10.1071C15.9991 10.1071 15.7403 10.0075 15.5346 9.80182C15.3288 9.5961 15.2227 9.34392 15.2227 9.03865C15.2227 8.73338 15.3288 8.48121 15.5346 8.27548C15.7403 8.06976 15.9991 7.97021 16.3044 7.97021C16.6096 7.97021 16.8684 8.06976 17.0742 8.27548C17.2799 8.48121 17.3861 8.73338 17.3861 9.03865C17.3861 9.34392 17.2865 9.5961 17.0742 9.80182ZM16.9215 9.03865C16.9215 8.85284 16.8618 8.7002 16.7424 8.56748C16.6229 8.43475 16.4769 8.37503 16.3044 8.37503C16.1318 8.37503 15.9858 8.44139 15.8664 8.56748C15.7469 8.7002 15.6872 8.85284 15.6872 9.03865C15.6872 9.22447 15.7469 9.3771 15.8664 9.50983C15.9858 9.63591 16.1318 9.70228 16.3044 9.70228C16.4769 9.70228 16.6229 9.63591 16.7424 9.50983C16.8618 9.38374 16.9215 9.22447 16.9215 9.03865Z" fill="#54C0EB"/>
<path d="M19.4509 8.70697C19.4509 9.03878 19.3181 9.25114 19.0593 9.35069L19.5836 10.0873H19.0195L18.5616 9.43032H18.2431V10.0873H17.7852V8.02344H18.5682C18.8868 8.02344 19.119 8.07653 19.2518 8.18271C19.3845 8.28889 19.4509 8.46807 19.4509 8.70697ZM18.9 8.95251C18.9598 8.89942 18.9863 8.81979 18.9863 8.70697C18.9863 8.59415 18.9598 8.52116 18.9 8.48134C18.8403 8.44152 18.7408 8.42161 18.5881 8.42161H18.2431V9.03215H18.5815C18.7341 9.02551 18.8403 8.99897 18.9 8.95251Z" fill="#54C0EB"/>
<path d="M20.7567 8.42161V10.0873H20.2988V8.42161H19.7148V8.02344H21.3407V8.42161H20.7567Z" fill="#54C0EB"/>
</g>
<defs>
<clipPath id="clip0_2909_12085">
<rect width="32" height="32" rx="9" fill="white"/>
</clipPath>
</defs>
</svg>
