<svg width="29" height="32" viewBox="0 0 29 32" fill="none" xmlns="http://www.w3.org/2000/svg">
<path fill-rule="evenodd" clip-rule="evenodd" d="M13.3687 0.20505C14.0069 -0.0341752 14.7022 -0.0640782 15.3546 0.115341L15.6313 0.20505L26.9091 4.4319C28.083 4.87184 28.887 5.94791 28.989 7.18088L29 7.44731V16.0825C29 21.4102 26.0768 26.2942 21.4133 28.8214L20.9846 29.0445L15.5807 31.7451C14.976 32.0472 14.2761 32.0808 13.6502 31.8458L13.4193 31.7451L8.01541 29.0445C3.24751 26.662 0.184097 21.8646 0.00802002 16.5656L0 16.0825V7.44731C0 6.19437 0.725798 5.0641 1.84507 4.53574L2.09082 4.4319L13.3687 0.20505ZM13.1185 9.79705L9.9109 15.1401C9.26015 16.2241 10.0414 17.6032 11.3063 17.6032H14.8767L13.1185 20.5319C12.6608 21.2945 12.9081 22.2835 13.6711 22.7411C14.4341 23.1986 15.4237 22.9514 15.8815 22.1888L19.0891 16.8458C19.7398 15.7618 18.9586 14.3828 17.6937 14.3828H14.1233L15.8815 11.454C16.3392 10.6914 16.0919 9.70229 15.3289 9.24474C14.5659 8.7872 13.5764 9.03448 13.1185 9.79705Z" fill="#2D9DC1"/>
</svg>
