<svg width="88" height="88" viewBox="0 0 88 88" fill="none" xmlns="http://www.w3.org/2000/svg">
<g filter="url(#filter0_d_2874_20858)">
<rect x="12" y="8" width="64" height="64" rx="32" fill="white" shape-rendering="crispEdges"/>
<g clip-path="url(#clip0_2874_20858)">
<path d="M38.2208 38.4687V31.8296C38.2208 31.237 37.7476 30.6465 37.1693 30.5171L29.3038 28.7585C28.9872 28.6876 28.6548 28.7646 28.4011 28.9676C28.1475 29.1707 28 29.478 28 29.8028V51.8765C28 52.3775 28.3477 52.8115 28.8367 52.9208L37.1695 54.7838C37.7477 54.9131 38.2209 54.5341 38.2209 53.9415V52.3251C37.93 52.2264 37.6588 52.0721 37.4256 51.865C36.9992 51.4875 33.2602 48.0639 33.2602 44.1567C33.2601 41.2475 35.4254 38.8387 38.2208 38.4687Z" fill="#2EB8AE"/>
<path d="M54.7029 30.5215C54.7029 27.3918 52.1595 24.8459 49.0312 24.8459C45.9035 24.8459 43.3594 27.3918 43.3594 30.5215C43.3594 34.9386 48.0874 39.158 48.2888 39.3355C48.5007 39.5223 48.7664 39.616 49.0312 39.616C49.2963 39.616 49.5613 39.5224 49.7735 39.3355C49.9749 39.1581 54.7029 34.9386 54.7029 30.5215ZM49.0313 31.9285C48.2615 31.9285 47.6371 31.2986 47.6371 30.5215C47.6371 29.7441 48.2615 29.1147 49.0313 29.1147C49.8015 29.1147 50.426 29.7441 50.426 30.5215C50.426 31.2986 49.8014 31.9285 49.0313 31.9285Z" fill="#2EB8AE"/>
<path d="M49.7812 41.0031V52.057C49.7812 52.6496 50.2545 53.2402 50.8327 53.3696L58.6983 55.1282C58.7755 55.1456 58.8537 55.154 58.9316 55.154C59.1725 55.154 59.4093 55.0726 59.6008 54.9189C59.8545 54.7158 60.002 54.4087 60.002 54.0837V32.0101C60.002 31.5091 59.6542 31.0751 59.1652 30.9657L56.1966 30.302C56.1966 32.4699 55.2991 35.0072 53.5185 37.4104C52.2283 39.1518 50.9117 40.3305 50.7648 40.4599C50.4778 40.7125 50.1414 40.8956 49.7812 41.0031Z" fill="#2EB8AE"/>
<path d="M47.2281 53.3712C47.807 53.2448 48.2807 52.6565 48.2807 52.0639V41.0033C47.9201 40.8958 47.5837 40.7125 47.2969 40.4598C47.1513 40.3314 45.8361 39.1551 44.5435 37.4105C42.7627 35.0073 41.8598 32.4448 41.8598 30.2769L40.7713 30.5151C40.1924 30.6419 39.7188 31.2304 39.7188 31.823V38.4689C42.5143 38.8388 44.6797 41.2477 44.6797 44.157C44.6797 48.064 40.9405 51.4878 40.5158 51.8636C40.2817 52.0715 40.0099 52.2264 39.7188 52.3253V53.9326C39.7188 54.5252 40.1924 54.9066 40.7714 54.7802L47.2281 53.3712Z" fill="#2EB8AE"/>
<path d="M43.1811 44.1569C43.1811 41.8186 41.2918 39.916 38.9694 39.916C36.6469 39.916 34.7578 41.8186 34.7578 44.1569C34.7578 47.4579 38.2685 50.6108 38.4182 50.7434C38.5756 50.8832 38.7728 50.953 38.9694 50.953C39.1664 50.953 39.3633 50.8832 39.5206 50.7434C39.6703 50.6108 43.1811 47.4579 43.1811 44.1569ZM38.9694 45.2085C38.3977 45.2085 37.9343 44.7376 37.9343 44.1569C37.9343 43.5761 38.3978 43.1058 38.9694 43.1058C39.5412 43.1058 40.0048 43.5761 40.0048 44.1569C40.005 44.7376 39.5412 45.2085 38.9694 45.2085Z" fill="#2EB8AE"/>
</g>
</g>
<defs>
<filter id="filter0_d_2874_20858" x="0" y="0" width="88" height="88" filterUnits="userSpaceOnUse" color-interpolation-filters="sRGB">
<feFlood flood-opacity="0" result="BackgroundImageFix"/>
<feColorMatrix in="SourceAlpha" type="matrix" values="0 0 0 0 0 0 0 0 0 0 0 0 0 0 0 0 0 0 127 0" result="hardAlpha"/>
<feOffset dy="4"/>
<feGaussianBlur stdDeviation="6"/>
<feComposite in2="hardAlpha" operator="out"/>
<feColorMatrix type="matrix" values="0 0 0 0 0.054902 0 0 0 0 0.34902 0 0 0 0 0.682353 0 0 0 0.15 0"/>
<feBlend mode="normal" in2="BackgroundImageFix" result="effect1_dropShadow_2874_20858"/>
<feBlend mode="normal" in="SourceGraphic" in2="effect1_dropShadow_2874_20858" result="shape"/>
</filter>
<clipPath id="clip0_2874_20858">
<rect width="32" height="32" fill="white" transform="translate(28 24)"/>
</clipPath>
</defs>
</svg>
