<svg width="32" height="32" viewBox="0 0 32 32" fill="none" xmlns="http://www.w3.org/2000/svg">
<path d="M5.96094 0C9.4119 0 12.8629 0 16.3138 0C16.3138 10.6666 16.3138 21.3332 16.3138 31.9998C12.8629 31.9998 9.4119 31.9998 5.96094 31.9998C5.96094 21.3332 5.96094 10.6666 5.96094 0ZM10.2903 23.2156C9.391 23.2156 8.49165 23.2156 7.5923 23.2156C7.5923 24.1149 7.5923 25.0143 7.5923 25.9136C8.49165 25.9136 9.391 25.9136 10.2903 25.9136C10.2903 25.0143 10.2903 24.1149 10.2903 23.2156ZM14.4629 23.2156C13.5635 23.2156 12.6642 23.2156 11.7648 23.2156C11.7648 24.1149 11.7648 25.0143 11.7648 25.9136C12.6642 25.9136 13.5635 25.9136 14.4629 25.9136C14.4629 25.0143 14.4629 24.1149 14.4629 23.2156ZM10.2903 19.1371C9.391 19.1371 8.49165 19.1371 7.5923 19.1371C7.5923 20.0365 7.5923 20.9358 7.5923 21.8352C8.49165 21.8352 9.391 21.8352 10.2903 21.8352C10.2903 20.9358 10.2903 20.0365 10.2903 19.1371ZM14.4629 19.1371C13.5635 19.1371 12.6642 19.1371 11.7648 19.1371C11.7648 20.0365 11.7648 20.9358 11.7648 21.8352C12.6642 21.8352 13.5635 21.8352 14.4629 21.8352C14.4629 20.9358 14.4629 20.0365 14.4629 19.1371ZM10.2903 14.996C9.391 14.996 8.49165 14.996 7.5923 14.996C7.5923 15.8953 7.5923 16.7947 7.5923 17.694C8.49165 17.694 9.391 17.694 10.2903 17.694C10.2903 16.7947 10.2903 15.8953 10.2903 14.996ZM14.4629 14.996C13.5635 14.996 12.6642 14.996 11.7648 14.996C11.7648 15.8953 11.7648 16.7947 11.7648 17.694C12.6642 17.694 13.5635 17.694 14.4629 17.694C14.4629 16.7947 14.4629 15.8953 14.4629 14.996ZM10.2903 10.7921C9.391 10.7921 8.49165 10.7921 7.5923 10.7921C7.5923 11.6914 7.5923 12.5908 7.5923 13.4901C8.49165 13.4901 9.391 13.4901 10.2903 13.4901C10.2903 12.5908 10.2903 11.6914 10.2903 10.7921ZM14.4629 10.7921C13.5635 10.7921 12.6642 10.7921 11.7648 10.7921C11.7648 11.6914 11.7648 12.5908 11.7648 13.4901C12.6642 13.4901 13.5635 13.4901 14.4629 13.4901C14.4629 12.5908 14.4629 11.6914 14.4629 10.7921ZM10.2903 6.65092C9.391 6.65092 8.49165 6.65092 7.5923 6.65092C7.5923 7.55029 7.5923 8.44961 7.5923 9.34894C8.49165 9.34894 9.391 9.34894 10.2903 9.34894C10.2903 8.44961 10.2903 7.55029 10.2903 6.65092ZM14.4629 6.65092C13.5635 6.65092 12.6642 6.65092 11.7648 6.65092C11.7648 7.55029 11.7648 8.44961 11.7648 9.34894C12.6642 9.34894 13.5635 9.34894 14.4629 9.34894C14.4629 8.44961 14.4629 7.55029 14.4629 6.65092ZM10.2903 2.57254C9.391 2.57254 8.49165 2.57254 7.5923 2.57254C7.5923 3.47186 7.5923 4.37118 7.5923 5.27055C8.49165 5.27055 9.391 5.27055 10.2903 5.27055C10.2903 4.37118 10.2903 3.47186 10.2903 2.57254ZM14.4629 2.57254C13.5635 2.57254 12.6642 2.57254 11.7648 2.57254C11.7648 3.47186 11.7648 4.37118 11.7648 5.27055C12.6642 5.27055 13.5635 5.27055 14.4629 5.27055C14.4629 4.37118 14.4629 3.47186 14.4629 2.57254ZM17.5374 10.429C17.9452 10.4171 18.353 10.4409 18.7609 10.429C18.7609 9.33696 18.7609 8.24496 18.7609 7.1529C19.2628 7.1529 19.7648 7.1529 20.2668 7.1529C20.2668 6.08622 20.2668 5.01959 20.2668 3.95291C20.6223 3.95291 20.9779 3.95291 21.3334 3.95291C21.3334 2.94899 21.3334 1.94507 21.3334 0.941156C21.6472 0.941156 21.9609 0.941156 22.2746 0.941156C22.2746 1.94507 22.2746 2.94899 22.2746 3.95291C22.6302 3.95291 22.9857 3.95291 23.3412 3.95291C23.3412 5.01959 23.3412 6.08622 23.3412 7.1529C23.8432 7.1529 24.3452 7.1529 24.8471 7.1529C24.8471 8.24496 24.8471 9.33696 24.8471 10.429C25.2445 10.429 25.6419 10.429 26.0393 10.429C26.0393 17.6238 26.0393 24.8051 26.0393 31.9998C23.1947 31.9998 20.3502 31.9998 17.5056 31.9998C17.5162 24.8156 17.5268 17.6133 17.5374 10.429ZM21.7099 20.7058C20.7896 20.7058 19.8694 20.7058 18.9491 20.7058C18.9491 21.6051 18.9491 22.5045 18.9491 23.4038C19.8694 23.4038 20.7896 23.4038 21.7099 23.4038C21.7099 22.5045 21.7099 21.6051 21.7099 20.7058ZM24.9099 16.4391C24.0105 16.4391 23.1112 16.4391 22.2119 16.4391C22.2119 17.3385 22.2119 18.2378 22.2119 19.1371C23.1112 19.1371 24.0105 19.1371 24.9099 19.1371C24.9099 18.2378 24.9099 17.3385 24.9099 16.4391ZM21.7099 12.2352C20.7896 12.2352 19.8694 12.2352 18.9491 12.2352C18.9491 13.1346 18.9491 14.0339 18.9491 14.9332C19.8694 14.9332 20.7896 14.9332 21.7099 14.9332C21.7099 14.0339 21.7099 13.1346 21.7099 12.2352Z" fill="#18BFC9"/>
</svg>
