<svg width="88" height="88" viewBox="0 0 88 88" fill="none" xmlns="http://www.w3.org/2000/svg">
<g filter="url(#filter0_d_2874_20836)">
<rect x="12" y="8" width="64" height="64" rx="32" fill="white" shape-rendering="crispEdges"/>
<path d="M33.875 44.3501L29.7812 48.4438L35.5 54.1626L39.5938 50.0688L33.875 44.3501ZM35.3812 51.6251C35.2937 51.7126 35.1812 51.7501 35.075 51.7501C34.9625 51.7501 34.85 51.7063 34.7625 51.6188L32.3187 49.1751C32.15 49.0063 32.15 48.7251 32.3187 48.5563C32.4875 48.3876 32.7687 48.3876 32.9375 48.5563L35.3812 51.0001C35.55 51.1813 35.55 51.4563 35.3812 51.6251Z" fill="#3B4652"/>
<path d="M35.582 44.8188L39.1258 48.3625L46.957 46.2625L37.682 36.9875L35.582 44.8188Z" fill="#3B4652"/>
<path d="M29.9922 51.8812L32.0609 53.95L33.3047 53.2062L30.7359 50.6375L29.9922 51.8812Z" fill="#3B4652"/>
<path d="M37.4922 53.4L40.7984 54.8437L42.6172 53.0187L39.3172 51.575L37.4922 53.4Z" fill="#3B4652"/>
<path d="M38.8491 35.875C38.8866 36.0875 39.0679 36.2438 39.2804 36.2438C39.3054 36.2438 39.3304 36.2438 39.3491 36.2375C39.5866 36.2 39.7491 35.975 39.7116 35.7375L39.2429 32.8625C39.2054 32.625 38.9804 32.4625 38.7429 32.5C38.5054 32.5375 38.3429 32.7625 38.3804 33L38.8491 35.875Z" fill="#3B4652"/>
<path d="M50.4859 43.5875L47.4234 43.65C47.1797 43.6563 46.9922 43.8563 46.9922 44.0938C46.9984 44.3313 47.1922 44.525 47.4297 44.525H47.4359L50.4984 44.4625C50.7422 44.4563 50.9297 44.2563 50.9297 44.0188C50.9297 43.775 50.7297 43.5813 50.4859 43.5875Z" fill="#3B4652"/>
<path d="M52.1828 34.8999C51.7953 34.8999 51.4766 35.2187 51.4766 35.6062V36.6499C51.4766 37.0374 51.7953 37.3562 52.1828 37.3562C52.5703 37.3562 52.8891 37.0374 52.8891 36.6499V35.6062C52.8891 35.2124 52.5703 34.8999 52.1828 34.8999Z" fill="#3B4652"/>
<path d="M48.3742 31.2937C48.7617 31.2937 49.0805 30.9749 49.0805 30.5874V29.5437C49.0805 29.1562 48.7617 28.8374 48.3742 28.8374C47.9867 28.8374 47.668 29.1562 47.668 29.5437V30.5874C47.6742 30.9749 47.9867 31.2937 48.3742 31.2937Z" fill="#3B4652"/>
<path d="M50.2812 25.1562C45.9 25.1562 42.3438 28.7125 42.3438 33.0938C42.3438 34.75 42.85 36.2875 43.7188 37.5562L42.7688 39.8687L45.2375 39.2188C46.6062 40.35 48.3688 41.0312 50.2812 41.0312C54.6625 41.0312 58.2188 37.475 58.2188 33.0938C58.2188 28.7125 54.6625 25.1562 50.2812 25.1562ZM46.8 29.5437C46.8 28.675 47.5063 27.9625 48.3813 27.9625C49.25 27.9625 49.9625 28.6687 49.9625 29.5437V30.5875C49.9625 31.4563 49.2563 32.1687 48.3813 32.1687C47.5125 32.1687 46.8 31.4625 46.8 30.5875V29.5437ZM48.0125 37.4563C47.9313 37.5875 47.7875 37.6562 47.6437 37.6562C47.5625 37.6562 47.4812 37.6312 47.4062 37.5875C47.2 37.4562 47.1437 37.1875 47.275 36.9812L52.5438 28.725C52.675 28.5187 52.9437 28.4625 53.15 28.5938C53.3562 28.725 53.4125 28.9937 53.2812 29.2L48.0125 37.4563ZM53.7625 36.6438C53.7625 37.5125 53.0562 38.225 52.1812 38.225C51.3062 38.225 50.6 37.5188 50.6 36.6438V35.6C50.6 34.7313 51.3062 34.0188 52.1812 34.0188C53.0562 34.0188 53.7625 34.725 53.7625 35.6V36.6438Z" fill="#2B79C2"/>
</g>
<defs>
<filter id="filter0_d_2874_20836" x="0" y="0" width="88" height="88" filterUnits="userSpaceOnUse" color-interpolation-filters="sRGB">
<feFlood flood-opacity="0" result="BackgroundImageFix"/>
<feColorMatrix in="SourceAlpha" type="matrix" values="0 0 0 0 0 0 0 0 0 0 0 0 0 0 0 0 0 0 127 0" result="hardAlpha"/>
<feOffset dy="4"/>
<feGaussianBlur stdDeviation="6"/>
<feComposite in2="hardAlpha" operator="out"/>
<feColorMatrix type="matrix" values="0 0 0 0 0.054902 0 0 0 0 0.34902 0 0 0 0 0.682353 0 0 0 0.15 0"/>
<feBlend mode="normal" in2="BackgroundImageFix" result="effect1_dropShadow_2874_20836"/>
<feBlend mode="normal" in="SourceGraphic" in2="effect1_dropShadow_2874_20836" result="shape"/>
</filter>
</defs>
</svg>
