<svg width="88" height="88" viewBox="0 0 88 88" fill="none" xmlns="http://www.w3.org/2000/svg">
<g filter="url(#filter0_d_2874_20871)">
<rect x="12" y="8" width="64" height="64" rx="32" fill="white" shape-rendering="crispEdges"/>
<path d="M33.9609 24C37.4119 24 40.8629 24 44.3138 24C44.3138 34.6666 44.3138 45.3332 44.3138 55.9998C40.8629 55.9998 37.4119 55.9998 33.9609 55.9998C33.9609 45.3332 33.9609 34.6666 33.9609 24ZM38.2903 47.2156C37.391 47.2156 36.4916 47.2156 35.5923 47.2156C35.5923 48.1149 35.5923 49.0143 35.5923 49.9136C36.4916 49.9136 37.391 49.9136 38.2903 49.9136C38.2903 49.0143 38.2903 48.1149 38.2903 47.2156ZM42.4629 47.2156C41.5635 47.2156 40.6642 47.2156 39.7648 47.2156C39.7648 48.1149 39.7648 49.0143 39.7648 49.9136C40.6642 49.9136 41.5635 49.9136 42.4629 49.9136C42.4629 49.0143 42.4629 48.1149 42.4629 47.2156ZM38.2903 43.1371C37.391 43.1371 36.4916 43.1371 35.5923 43.1371C35.5923 44.0365 35.5923 44.9358 35.5923 45.8352C36.4916 45.8352 37.391 45.8352 38.2903 45.8352C38.2903 44.9358 38.2903 44.0365 38.2903 43.1371ZM42.4629 43.1371C41.5635 43.1371 40.6642 43.1371 39.7648 43.1371C39.7648 44.0365 39.7648 44.9358 39.7648 45.8352C40.6642 45.8352 41.5635 45.8352 42.4629 45.8352C42.4629 44.9358 42.4629 44.0365 42.4629 43.1371ZM38.2903 38.996C37.391 38.996 36.4916 38.996 35.5923 38.996C35.5923 39.8953 35.5923 40.7947 35.5923 41.694C36.4916 41.694 37.391 41.694 38.2903 41.694C38.2903 40.7947 38.2903 39.8953 38.2903 38.996ZM42.4629 38.996C41.5635 38.996 40.6642 38.996 39.7648 38.996C39.7648 39.8953 39.7648 40.7947 39.7648 41.694C40.6642 41.694 41.5635 41.694 42.4629 41.694C42.4629 40.7947 42.4629 39.8953 42.4629 38.996ZM38.2903 34.7921C37.391 34.7921 36.4916 34.7921 35.5923 34.7921C35.5923 35.6914 35.5923 36.5908 35.5923 37.4901C36.4916 37.4901 37.391 37.4901 38.2903 37.4901C38.2903 36.5908 38.2903 35.6914 38.2903 34.7921ZM42.4629 34.7921C41.5635 34.7921 40.6642 34.7921 39.7648 34.7921C39.7648 35.6914 39.7648 36.5908 39.7648 37.4901C40.6642 37.4901 41.5635 37.4901 42.4629 37.4901C42.4629 36.5908 42.4629 35.6914 42.4629 34.7921ZM38.2903 30.6509C37.391 30.6509 36.4916 30.6509 35.5923 30.6509C35.5923 31.5503 35.5923 32.4496 35.5923 33.3489C36.4916 33.3489 37.391 33.3489 38.2903 33.3489C38.2903 32.4496 38.2903 31.5503 38.2903 30.6509ZM42.4629 30.6509C41.5635 30.6509 40.6642 30.6509 39.7648 30.6509C39.7648 31.5503 39.7648 32.4496 39.7648 33.3489C40.6642 33.3489 41.5635 33.3489 42.4629 33.3489C42.4629 32.4496 42.4629 31.5503 42.4629 30.6509ZM38.2903 26.5725C37.391 26.5725 36.4916 26.5725 35.5923 26.5725C35.5923 27.4719 35.5923 28.3712 35.5923 29.2706C36.4916 29.2706 37.391 29.2706 38.2903 29.2706C38.2903 28.3712 38.2903 27.4719 38.2903 26.5725ZM42.4629 26.5725C41.5635 26.5725 40.6642 26.5725 39.7648 26.5725C39.7648 27.4719 39.7648 28.3712 39.7648 29.2706C40.6642 29.2706 41.5635 29.2706 42.4629 29.2706C42.4629 28.3712 42.4629 27.4719 42.4629 26.5725ZM45.5374 34.429C45.9452 34.4171 46.353 34.4409 46.7609 34.429C46.7609 33.337 46.7609 32.245 46.7609 31.1529C47.2628 31.1529 47.7648 31.1529 48.2668 31.1529C48.2668 30.0862 48.2668 29.0196 48.2668 27.9529C48.6223 27.9529 48.9779 27.9529 49.3334 27.9529C49.3334 26.949 49.3334 25.9451 49.3334 24.9412C49.6472 24.9412 49.9609 24.9412 50.2746 24.9412C50.2746 25.9451 50.2746 26.949 50.2746 27.9529C50.6302 27.9529 50.9857 27.9529 51.3412 27.9529C51.3412 29.0196 51.3412 30.0862 51.3412 31.1529C51.8432 31.1529 52.3452 31.1529 52.8471 31.1529C52.8471 32.245 52.8471 33.337 52.8471 34.429C53.2445 34.429 53.6419 34.429 54.0393 34.429C54.0393 41.6238 54.0393 48.8051 54.0393 55.9998C51.1947 55.9998 48.3502 55.9998 45.5056 55.9998C45.5162 48.8156 45.5268 41.6133 45.5374 34.429ZM49.7099 44.7058C48.7896 44.7058 47.8694 44.7058 46.9491 44.7058C46.9491 45.6051 46.9491 46.5045 46.9491 47.4038C47.8694 47.4038 48.7896 47.4038 49.7099 47.4038C49.7099 46.5045 49.7099 45.6051 49.7099 44.7058ZM52.9099 40.4391C52.0105 40.4391 51.1112 40.4391 50.2119 40.4391C50.2119 41.3385 50.2119 42.2378 50.2119 43.1371C51.1112 43.1371 52.0105 43.1371 52.9099 43.1371C52.9099 42.2378 52.9099 41.3385 52.9099 40.4391ZM49.7099 36.2352C48.7896 36.2352 47.8694 36.2352 46.9491 36.2352C46.9491 37.1346 46.9491 38.0339 46.9491 38.9332C47.8694 38.9332 48.7896 38.9332 49.7099 38.9332C49.7099 38.0339 49.7099 37.1346 49.7099 36.2352Z" fill="#18BFC9"/>
</g>
<defs>
<filter id="filter0_d_2874_20871" x="0" y="0" width="88" height="88" filterUnits="userSpaceOnUse" color-interpolation-filters="sRGB">
<feFlood flood-opacity="0" result="BackgroundImageFix"/>
<feColorMatrix in="SourceAlpha" type="matrix" values="0 0 0 0 0 0 0 0 0 0 0 0 0 0 0 0 0 0 127 0" result="hardAlpha"/>
<feOffset dy="4"/>
<feGaussianBlur stdDeviation="6"/>
<feComposite in2="hardAlpha" operator="out"/>
<feColorMatrix type="matrix" values="0 0 0 0 0.054902 0 0 0 0 0.34902 0 0 0 0 0.682353 0 0 0 0.15 0"/>
<feBlend mode="normal" in2="BackgroundImageFix" result="effect1_dropShadow_2874_20871"/>
<feBlend mode="normal" in="SourceGraphic" in2="effect1_dropShadow_2874_20871" result="shape"/>
</filter>
</defs>
</svg>
