<svg width="88" height="88" viewBox="0 0 88 88" fill="none" xmlns="http://www.w3.org/2000/svg">
<g filter="url(#filter0_d_2874_20849)">
<rect x="12" y="8" width="64" height="64" rx="32" fill="white" shape-rendering="crispEdges"/>
<path d="M34.6641 38.3001L31.3307 36.4001C31.1307 36.289 30.9694 36.1276 30.8467 35.9161C30.7241 35.7045 30.6632 35.4774 30.6641 35.2347V31.4347C30.6641 31.1903 30.7254 30.9623 30.8481 30.7507C30.9707 30.5392 31.1316 30.3779 31.3307 30.2667L34.6641 28.3667C34.8641 28.2556 35.0863 28.2001 35.3307 28.2001C35.5752 28.2001 35.7974 28.2556 35.9974 28.3667L39.3307 30.2667C39.5307 30.3779 39.6921 30.5392 39.8147 30.7507C39.9374 30.9623 39.9983 31.1899 39.9974 31.4334V35.2334C39.9974 35.4779 39.9365 35.7059 39.8147 35.9174C39.693 36.129 39.5316 36.2899 39.3307 36.4001L35.9974 38.3001C35.7974 38.4112 35.5752 38.4667 35.3307 38.4667C35.0863 38.4667 34.8641 38.4112 34.6641 38.3001ZM49.9974 41.3334V36.6001L53.3307 38.5667C53.753 38.8112 54.081 39.1334 54.3147 39.5334C54.5485 39.9334 54.665 40.3779 54.6641 40.8667V47.1334C54.6641 47.6223 54.5476 48.0667 54.3147 48.4667C54.0819 48.8667 53.7539 49.189 53.3307 49.4334L47.9974 52.5334C47.5752 52.7779 47.1307 52.9001 46.6641 52.9001C46.1974 52.9001 45.753 52.7779 45.3307 52.5334L39.9974 49.4334C39.5752 49.189 39.2476 48.8667 39.0147 48.4667C38.7818 48.0667 38.665 47.6223 38.6641 47.1334V40.8667C38.6641 40.3779 38.781 39.9334 39.0147 39.5334C39.2485 39.1334 39.5761 38.8112 39.9974 38.5667L43.3307 36.6001V41.3334C43.3307 42.2667 43.653 43.0556 44.2974 43.7001C44.9419 44.3445 45.7307 44.6667 46.6641 44.6667C47.5974 44.6667 48.3863 44.3445 49.0307 43.7001C49.6752 43.0556 49.9974 42.2667 49.9974 41.3334ZM47.9974 34.6667V41.3334C47.9974 41.7112 47.8694 42.0281 47.6134 42.2841C47.3574 42.5401 47.041 42.6676 46.6641 42.6667C46.2872 42.6659 45.9707 42.5379 45.7147 42.2827C45.4587 42.0276 45.3307 41.7112 45.3307 41.3334V28.0001C45.3307 27.6223 45.4587 27.3059 45.7147 27.0507C45.9707 26.7956 46.2872 26.6676 46.6641 26.6667H54.8307C55.3641 26.6667 55.7641 26.9001 56.0307 27.3667C56.2974 27.8334 56.2752 28.289 55.9641 28.7334L55.1641 29.9334C55.0085 30.1556 54.9307 30.4001 54.9307 30.6667C54.9307 30.9334 55.0085 31.1779 55.1641 31.4001L55.9641 32.6001C56.2752 33.0445 56.2974 33.5001 56.0307 33.9667C55.7641 34.4334 55.3641 34.6667 54.8307 34.6667H47.9974Z" fill="#2D9DC1"/>
</g>
<defs>
<filter id="filter0_d_2874_20849" x="0" y="0" width="88" height="88" filterUnits="userSpaceOnUse" color-interpolation-filters="sRGB">
<feFlood flood-opacity="0" result="BackgroundImageFix"/>
<feColorMatrix in="SourceAlpha" type="matrix" values="0 0 0 0 0 0 0 0 0 0 0 0 0 0 0 0 0 0 127 0" result="hardAlpha"/>
<feOffset dy="4"/>
<feGaussianBlur stdDeviation="6"/>
<feComposite in2="hardAlpha" operator="out"/>
<feColorMatrix type="matrix" values="0 0 0 0 0.054902 0 0 0 0 0.34902 0 0 0 0 0.682353 0 0 0 0.15 0"/>
<feBlend mode="normal" in2="BackgroundImageFix" result="effect1_dropShadow_2874_20849"/>
<feBlend mode="normal" in="SourceGraphic" in2="effect1_dropShadow_2874_20849" result="shape"/>
</filter>
</defs>
</svg>
