<svg width="32" height="32" viewBox="0 0 32 32" fill="none" xmlns="http://www.w3.org/2000/svg">
<path d="M6.66407 14.3001L3.33074 12.4001C3.13074 12.289 2.96941 12.1276 2.84674 11.9161C2.72407 11.7045 2.66318 11.4774 2.66407 11.2347V7.43475C2.66407 7.1903 2.72541 6.9623 2.84807 6.75075C2.97074 6.53919 3.13163 6.37786 3.33074 6.26675L6.66407 4.36675C6.86407 4.25564 7.08629 4.20008 7.33074 4.20008C7.57518 4.20008 7.79741 4.25564 7.99741 4.36675L11.3307 6.26675C11.5307 6.37786 11.6921 6.53919 11.8147 6.75075C11.9374 6.9623 11.9983 7.18986 11.9974 7.43341V11.2334C11.9974 11.4779 11.9365 11.7059 11.8147 11.9174C11.693 12.129 11.5316 12.2899 11.3307 12.4001L7.99741 14.3001C7.79741 14.4112 7.57518 14.4667 7.33074 14.4667C7.08629 14.4667 6.86407 14.4112 6.66407 14.3001ZM21.9974 17.3334V12.6001L25.3307 14.5667C25.753 14.8112 26.081 15.1334 26.3147 15.5334C26.5485 15.9334 26.665 16.3779 26.6641 16.8667V23.1334C26.6641 23.6223 26.5476 24.0667 26.3147 24.4667C26.0819 24.8667 25.7539 25.189 25.3307 25.4334L19.9974 28.5334C19.5752 28.7779 19.1307 28.9001 18.6641 28.9001C18.1974 28.9001 17.753 28.7779 17.3307 28.5334L11.9974 25.4334C11.5752 25.189 11.2476 24.8667 11.0147 24.4667C10.7818 24.0667 10.665 23.6223 10.6641 23.1334V16.8667C10.6641 16.3779 10.781 15.9334 11.0147 15.5334C11.2485 15.1334 11.5761 14.8112 11.9974 14.5667L15.3307 12.6001V17.3334C15.3307 18.2667 15.653 19.0556 16.2974 19.7001C16.9419 20.3445 17.7307 20.6667 18.6641 20.6667C19.5974 20.6667 20.3863 20.3445 21.0307 19.7001C21.6752 19.0556 21.9974 18.2667 21.9974 17.3334ZM19.9974 10.6667V17.3334C19.9974 17.7112 19.8694 18.0281 19.6134 18.2841C19.3574 18.5401 19.041 18.6676 18.6641 18.6667C18.2872 18.6659 17.9707 18.5379 17.7147 18.2827C17.4587 18.0276 17.3307 17.7112 17.3307 17.3334V4.00008C17.3307 3.6223 17.4587 3.30586 17.7147 3.05075C17.9707 2.79564 18.2872 2.66764 18.6641 2.66675H26.8307C27.3641 2.66675 27.7641 2.90008 28.0307 3.36675C28.2974 3.83341 28.2752 4.28897 27.9641 4.73341L27.1641 5.93341C27.0085 6.15564 26.9307 6.40008 26.9307 6.66675C26.9307 6.93341 27.0085 7.17786 27.1641 7.40008L27.9641 8.60008C28.2752 9.04453 28.2974 9.50008 28.0307 9.96675C27.7641 10.4334 27.3641 10.6667 26.8307 10.6667H19.9974Z" fill="#2D9DC1"/>
</svg>
