<svg width="32" height="32" viewBox="0 0 32 32" fill="none" xmlns="http://www.w3.org/2000/svg">
<path d="M5.875 20.3501L1.78125 24.4438L7.5 30.1626L11.5938 26.0688L5.875 20.3501ZM7.38125 27.6251C7.29375 27.7126 7.18125 27.7501 7.075 27.7501C6.9625 27.7501 6.85 27.7063 6.7625 27.6188L4.31875 25.1751C4.15 25.0063 4.15 24.7251 4.31875 24.5563C4.4875 24.3876 4.76875 24.3876 4.9375 24.5563L7.38125 27.0001C7.55 27.1813 7.55 27.4563 7.38125 27.6251Z" fill="#3B4652"/>
<path d="M7.58203 20.8188L11.1258 24.3625L18.957 22.2625L9.68203 12.9875L7.58203 20.8188Z" fill="#3B4652"/>
<path d="M1.99219 27.8812L4.06094 29.95L5.30469 29.2062L2.73594 26.6375L1.99219 27.8812Z" fill="#3B4652"/>
<path d="M9.49219 29.4L12.7984 30.8437L14.6172 29.0187L11.3172 27.575L9.49219 29.4Z" fill="#3B4652"/>
<path d="M10.8491 11.875C10.8866 12.0875 11.0679 12.2438 11.2804 12.2438C11.3054 12.2438 11.3304 12.2438 11.3491 12.2375C11.5866 12.2 11.7491 11.975 11.7116 11.7375L11.2429 8.86251C11.2054 8.62501 10.9804 8.46251 10.7429 8.50001C10.5054 8.53751 10.3429 8.76251 10.3804 9.00001L10.8491 11.875Z" fill="#3B4652"/>
<path d="M22.4859 19.5875L19.4234 19.65C19.1797 19.6563 18.9922 19.8563 18.9922 20.0938C18.9984 20.3313 19.1922 20.525 19.4297 20.525H19.4359L22.4984 20.4625C22.7422 20.4563 22.9297 20.2563 22.9297 20.0188C22.9297 19.775 22.7297 19.5813 22.4859 19.5875Z" fill="#3B4652"/>
<path d="M24.1828 10.8999C23.7953 10.8999 23.4766 11.2187 23.4766 11.6062V12.6499C23.4766 13.0374 23.7953 13.3562 24.1828 13.3562C24.5703 13.3562 24.8891 13.0374 24.8891 12.6499V11.6062C24.8891 11.2124 24.5703 10.8999 24.1828 10.8999Z" fill="#3B4652"/>
<path d="M20.3742 7.29365C20.7617 7.29365 21.0805 6.9749 21.0805 6.5874V5.54365C21.0805 5.15615 20.7617 4.8374 20.3742 4.8374C19.9867 4.8374 19.668 5.15615 19.668 5.54365V6.5874C19.6742 6.9749 19.9867 7.29365 20.3742 7.29365Z" fill="#3B4652"/>
<path d="M22.2812 1.15625C17.9 1.15625 14.3438 4.7125 14.3438 9.09375C14.3438 10.75 14.85 12.2875 15.7188 13.5562L14.7688 15.8687L17.2375 15.2188C18.6062 16.35 20.3688 17.0312 22.2812 17.0312C26.6625 17.0312 30.2188 13.475 30.2188 9.09375C30.2188 4.7125 26.6625 1.15625 22.2812 1.15625ZM18.8 5.54375C18.8 4.675 19.5063 3.9625 20.3813 3.9625C21.25 3.9625 21.9625 4.66875 21.9625 5.54375V6.5875C21.9625 7.45625 21.2563 8.16875 20.3813 8.16875C19.5125 8.16875 18.8 7.4625 18.8 6.5875V5.54375ZM20.0125 13.4563C19.9313 13.5875 19.7875 13.6562 19.6437 13.6562C19.5625 13.6562 19.4812 13.6312 19.4062 13.5875C19.2 13.4562 19.1437 13.1875 19.275 12.9812L24.5438 4.725C24.675 4.51875 24.9437 4.4625 25.15 4.59375C25.3562 4.725 25.4125 4.99375 25.2812 5.2L20.0125 13.4563ZM25.7625 12.6438C25.7625 13.5125 25.0562 14.225 24.1812 14.225C23.3062 14.225 22.6 13.5188 22.6 12.6438V11.6C22.6 10.7313 23.3062 10.0188 24.1812 10.0188C25.0562 10.0188 25.7625 10.725 25.7625 11.6V12.6438Z" fill="#2B79C2"/>
</svg>
