<svg width="32" height="32" viewBox="0 0 32 32" fill="none" xmlns="http://www.w3.org/2000/svg">
<g clip-path="url(#clip0_2874_20859)">
<path d="M10.2208 14.4687V7.8296C10.2208 7.237 9.74761 6.64646 9.16935 6.51706L1.30381 4.75846C0.987152 4.68756 0.654761 4.7646 0.401131 4.96759C0.147502 5.17069 0 5.47797 0 5.80282V27.8765C0 28.3775 0.34769 28.8115 0.836741 28.9208L9.16946 30.7838C9.74772 30.9131 10.2209 30.5341 10.2209 29.9415V28.3251C9.93002 28.2264 9.65883 28.0721 9.42556 27.865C8.99922 27.4875 5.26018 24.0639 5.26018 20.1567C5.26007 17.2475 7.4254 14.8387 10.2208 14.4687Z" fill="#2EB8AE"/>
<path d="M26.7029 6.52148C26.7029 3.39183 24.1595 0.845947 21.0312 0.845947C17.9035 0.845947 15.3594 3.39183 15.3594 6.52148C15.3594 10.9386 20.0874 15.158 20.2888 15.3355C20.5007 15.5223 20.7664 15.616 21.0312 15.616C21.2963 15.616 21.5613 15.5224 21.7735 15.3355C21.9749 15.1581 26.7029 10.9386 26.7029 6.52148ZM21.0313 7.92851C20.2615 7.92851 19.6371 7.29863 19.6371 6.52148C19.6371 5.7441 20.2615 5.11466 21.0313 5.11466C21.8015 5.11466 22.426 5.7441 22.426 6.52148C22.426 7.29863 21.8014 7.92851 21.0313 7.92851Z" fill="#2EB8AE"/>
<path d="M21.7812 17.0031V28.057C21.7812 28.6496 22.2545 29.2402 22.8327 29.3696L30.6983 31.1282C30.7755 31.1456 30.8537 31.154 30.9316 31.154C31.1725 31.154 31.4093 31.0726 31.6008 30.9189C31.8545 30.7158 32.002 30.4087 32.002 30.0837V8.01007C32.002 7.50906 31.6542 7.07507 31.1652 6.96571L28.1966 6.302C28.1966 8.46992 27.2991 11.0072 25.5185 13.4104C24.2283 15.1518 22.9117 16.3305 22.7648 16.4599C22.4778 16.7125 22.1414 16.8956 21.7812 17.0031Z" fill="#2EB8AE"/>
<path d="M19.2281 29.3712C19.807 29.2448 20.2807 28.6565 20.2807 28.0639V17.0033C19.9201 16.8958 19.5837 16.7125 19.2969 16.4598C19.1513 16.3314 17.8361 15.1551 16.5435 13.4105C14.7627 11.0073 13.8598 8.44477 13.8598 6.27686L12.7713 6.51508C12.1924 6.64189 11.7188 7.23039 11.7188 7.82298V14.4689C14.5143 14.8388 16.6797 17.2477 16.6797 20.157C16.6797 24.064 12.9405 27.4878 12.5158 27.8636C12.2817 28.0715 12.0099 28.2264 11.7188 28.3253V29.9326C11.7188 30.5252 12.1924 30.9066 12.7714 30.7802L19.2281 29.3712Z" fill="#2EB8AE"/>
<path d="M15.1811 20.1569C15.1811 17.8186 13.2918 15.916 10.9694 15.916C8.64689 15.916 6.75781 17.8186 6.75781 20.1569C6.75781 23.4579 10.2685 26.6108 10.4182 26.7434C10.5756 26.8832 10.7728 26.953 10.9694 26.953C11.1664 26.953 11.3633 26.8832 11.5206 26.7434C11.6703 26.6108 15.1811 23.4579 15.1811 20.1569ZM10.9694 21.2085C10.3977 21.2085 9.93432 20.7376 9.93432 20.1569C9.93432 19.5761 10.3978 19.1058 10.9694 19.1058C11.5412 19.1058 12.0048 19.5761 12.0048 20.1569C12.005 20.7376 11.5412 21.2085 10.9694 21.2085Z" fill="#2EB8AE"/>
</g>
<defs>
<clipPath id="clip0_2874_20859">
<rect width="32" height="32" fill="white"/>
</clipPath>
</defs>
</svg>
