<svg width="403" height="518" viewBox="0 0 403 518" fill="none" xmlns="http://www.w3.org/2000/svg">
<path fill-rule="evenodd" clip-rule="evenodd" d="M203.225 461.669C159.073 433.649 92.5112 460.884 53.7798 425.749C14.102 389.756 -2.69747 331.118 0.349599 277.634C3.2246 227.171 59.4408 195.744 69.7033 146.252C85.5137 70.0048 21.2573 -26.2487 75.0386 -82.5619C123.833 -133.653 212.124 -81.4803 282.609 -76.6766C349.856 -72.0936 419.412 -85.4685 479.533 -54.9951C543.721 -22.4608 603.156 29.2653 626.153 97.4536C648.695 164.291 617.593 234.772 600.326 303.162C584.334 366.5 566.523 427.901 529.186 481.505C487.533 541.303 446.316 633.124 373.575 628.698C292.556 623.768 271.758 505.161 203.225 461.669Z" fill="#2C7DFF" fill-opacity="0.25"/>
</svg>
