<svg width="48" height="48" viewBox="0 0 48 48" fill="none" xmlns="http://www.w3.org/2000/svg">
<rect width="48" height="48" rx="24" fill="#E7F6F7"/>
<path d="M11.5052 12.3916L11.8907 12.009L12.2757 12.3934L13.0744 13.1909L13.4617 13.5764L13.075 13.9637L10.5328 16.5065L11.7786 17.7523L12.92 16.6109L13.3068 16.2242L13.6917 16.6109L14.491 17.4072L14.8777 17.7934L14.4916 18.1801L13.3478 19.3227L14.5954 20.5703L15.7362 19.4271L16.1218 19.0416L16.5085 19.4271L17.3072 20.2252L17.6945 20.6102L17.3072 20.9969L16.1658 22.1395L17.1253 23.0983L23.0974 17.1262L14.1911 8.21923C14.0484 8.07874 13.8562 8 13.6559 8C13.4557 8 13.2634 8.07874 13.1207 8.21923L8.21952 13.1204C8.07885 13.2632 8 13.4555 8 13.6559C8 13.8563 8.07885 14.0487 8.21952 14.1914L8.96245 14.9332L11.4078 12.4873L11.5052 12.3916ZM33.5759 20.2704L27.7305 14.4256L23.7436 18.4125L17.5108 24.6446L11.0897 31.0646L11.3726 31.2576L12.4289 31.9783L12.5392 32.0534L12.6026 32.1707L12.6612 32.2752L13.7293 34.261L15.8196 35.386L15.9369 35.4494L16.0121 35.5597L16.6963 36.5649L16.931 36.9118L23.3545 30.4889L30.4857 23.3577L33.5759 20.2704ZM39.7811 33.8098L30.8753 24.9028L24.902 30.8768L25.8614 31.8357L27.0034 30.6937L27.3895 30.3058L27.7763 30.6943L28.5738 31.4935L28.9593 31.8791L28.5738 32.2652L27.4318 33.4066L28.6782 34.653L29.8208 33.5105L30.2075 33.1249L30.5936 33.5105L31.3905 34.3086L31.7773 34.6947L31.3905 35.0808L30.248 36.2228L31.4944 37.4693L33.9397 35.0228L34.0389 34.9248L34.4251 34.5415L34.81 34.9265L35.6075 35.724L35.9931 36.1113L35.6075 36.4975L33.0665 39.0384L33.8089 39.7802C33.9516 39.921 34.1441 40 34.3447 40C34.5452 40 34.7377 39.921 34.8804 39.7802L37.331 37.3302L39.7811 34.8778C39.9214 34.7351 40 34.543 40 34.3429C40 34.1428 39.9214 33.9507 39.7811 33.808V33.8098ZM12.8649 35.3473L12.7205 35.2698L12.6431 35.126L12.4259 34.7229L11.4964 32.9935L10.9231 32.6038L10.5287 32.3345L10.0305 35.4265L12.5761 37.9704L15.6629 37.4739L14.9957 36.4945L12.8649 35.3473ZM38.3774 15.4666C38.5177 15.3239 38.5963 15.1318 38.5963 14.9317C38.5963 14.7316 38.5177 14.5395 38.3774 14.3968L33.6017 9.62235C33.459 9.48204 33.2669 9.4034 33.0668 9.4034C32.8667 9.4034 32.6746 9.48204 32.5319 9.62235L29.8536 12.3012L35.6985 18.1467L38.3774 15.4666ZM34.7326 19.112L28.8871 13.2672L28.6964 13.4579L34.5418 19.3027L34.7326 19.112ZM9.66488 37.6958L9.5434 38.4587L10.9107 38.2398L9.76347 37.0913L9.66488 37.6958Z" fill="#35B0B3"/>
</svg>
