<svg width="48" height="48" viewBox="0 0 48 48" fill="none" xmlns="http://www.w3.org/2000/svg">
<rect width="48" height="48" rx="24" fill="#E7F6F7"/>
<path opacity="0.5" d="M26.3875 36.4255L25.5924 37.7688C24.8838 38.966 23.1135 38.966 22.4048 37.7688L21.6098 36.4255C20.9931 35.3836 20.6848 34.8627 20.1895 34.5746C19.6942 34.2866 19.0706 34.2758 17.8234 34.2543C15.9822 34.2226 14.8275 34.1098 13.859 33.7086C12.0622 32.9643 10.6345 31.5367 9.89024 29.7399C9.33203 28.3922 9.33203 26.6838 9.33203 23.2668V21.8002C9.33203 16.9991 9.33203 14.5986 10.4127 12.8352C11.0174 11.8484 11.847 11.0188 12.8337 10.4141C14.5972 9.3335 16.9977 9.3335 21.7987 9.3335H26.1987C30.9998 9.3335 33.4003 9.3335 35.1636 10.4141C36.1504 11.0188 36.98 11.8484 37.5847 12.8352C38.6654 14.5986 38.6654 16.9991 38.6654 21.8002V23.2668C38.6654 26.6838 38.6654 28.3922 38.1071 29.7399C37.3628 31.5367 35.9352 32.9643 34.1384 33.7086C33.1699 34.1098 32.0151 34.2226 30.1739 34.2543C28.9267 34.2758 28.3032 34.2866 27.8079 34.5746C27.3126 34.8627 27.0043 35.3836 26.3875 36.4255Z" fill="#35B0B3"/>
<path fill-rule="evenodd" clip-rule="evenodd" d="M28.3574 17.1061C28.787 16.6765 29.4835 16.6765 29.9131 17.1061L30.1647 17.3578C30.1827 17.3758 30.2007 17.3938 30.2186 17.4117C31.1504 18.3435 31.9275 19.1204 32.4614 19.8202C33.025 20.5588 33.4202 21.3392 33.4202 22.284C33.4202 23.2286 33.025 24.009 32.4614 24.7477C31.9275 25.4474 31.1504 26.2245 30.2186 27.1562L29.9131 27.4618C29.4835 27.8913 28.787 27.8913 28.3574 27.4618C27.9278 27.0322 27.9278 26.3357 28.3574 25.9061L28.6091 25.6545C29.6088 24.6548 30.2787 23.9816 30.7123 23.4132C31.1266 22.8702 31.2202 22.5542 31.2202 22.284C31.2202 22.0137 31.1266 21.6976 30.7123 21.1547C30.2787 20.5864 29.6088 19.9132 28.6091 18.9134L28.3574 18.6618C27.9278 18.2322 27.9278 17.5357 28.3574 17.1061Z" fill="#207DE9"/>
<path fill-rule="evenodd" clip-rule="evenodd" d="M26.1809 14.1388C26.7677 14.2961 27.116 14.8992 26.9588 15.4861L23.1628 29.653C23.0056 30.2398 22.4024 30.588 21.8156 30.4308C21.2288 30.2736 20.8805 29.6704 21.0378 29.0836L24.8337 14.9166C24.9909 14.3298 25.5941 13.9816 26.1809 14.1388Z" fill="#207DE9"/>
<path fill-rule="evenodd" clip-rule="evenodd" d="M19.6448 17.1061C19.2152 16.6765 18.5188 16.6765 18.0892 17.1061L17.8376 17.3578C17.8195 17.3758 17.8015 17.3938 17.7836 17.4117C16.8518 18.3435 16.0748 19.1204 15.5408 19.8202C14.9773 20.5588 14.582 21.3392 14.582 22.284C14.582 23.2286 14.9773 24.009 15.5408 24.7477C16.0748 25.4474 16.8518 26.2245 17.7836 27.1562L18.0892 27.4618C18.5188 27.8913 19.2152 27.8913 19.6448 27.4618C20.0744 27.0322 20.0744 26.3357 19.6448 25.9061L19.3932 25.6545C18.3934 24.6548 17.7235 23.9816 17.2899 23.4132C16.8757 22.8702 16.782 22.5542 16.782 22.284C16.782 22.0137 16.8757 21.6976 17.2899 21.1547C17.7235 20.5864 18.3934 19.9132 19.3932 18.9134L19.6448 18.6618C20.0744 18.2322 20.0744 17.5357 19.6448 17.1061Z" fill="#207DE9"/>
</svg>
