<svg width="88" height="88" viewBox="0 0 88 88" fill="none" xmlns="http://www.w3.org/2000/svg">
<g filter="url(#filter0_d_2909_11986)">
<rect x="12" y="8" width="64" height="64" rx="32" fill="white" shape-rendering="crispEdges"/>
<g clip-path="url(#clip0_2909_11986)">
<path d="M44 56C52.8366 56 60 48.8366 60 40C60 31.1634 52.8366 24 44 24C35.1634 24 28 31.1634 28 40C28 48.8366 35.1634 56 44 56Z" fill="#1D4D87"/>
<path d="M43.0687 46.0023V46.2994H42.3467V49.9428L47.9177 55.515C53.1737 54.1924 57.3925 50.2699 59.1342 45.1945L44.4611 30.5209C44.1365 30.2329 43.7091 30.0569 43.2406 30.0569C43.2038 30.0569 43.168 30.0604 43.1317 30.0626L43.1286 30.0593C43.1084 30.0604 43.0892 30.0639 43.0692 30.0656C43.0556 30.0669 43.042 30.0682 43.0284 30.0699C42.9806 30.0754 42.9332 30.0824 42.8862 30.0917C42.8733 30.0941 42.861 30.0968 42.8489 30.0994C42.8017 30.1094 42.7555 30.1213 42.7097 30.1349C42.6979 30.1384 42.6862 30.1419 42.6745 30.1459C42.6291 30.1603 42.5846 30.1767 42.5411 30.1948C42.5297 30.1993 42.5182 30.2039 42.5068 30.2087C42.464 30.2274 42.4222 30.2478 42.3809 30.2693C42.3695 30.2754 42.3585 30.2811 42.3477 30.2873C42.3073 30.3095 42.2682 30.3333 42.23 30.3583C42.219 30.3658 42.2081 30.3726 42.1971 30.3799C42.1603 30.4056 42.1245 30.4326 42.0896 30.4604C42.0785 30.4693 42.0673 30.4777 42.0567 30.4865C42.0234 30.5145 41.9912 30.5443 41.9597 30.5747C41.949 30.5849 41.9383 30.595 41.9277 30.6056C41.8977 30.6361 41.8693 30.6676 41.8417 30.6999C41.8313 30.7121 41.8204 30.7238 41.8102 30.7364C41.7842 30.7684 41.7599 30.8019 41.7359 30.8356C41.7258 30.8499 41.7156 30.8634 41.7058 30.878C41.6836 30.9113 41.6633 30.946 41.6433 30.9812C41.634 30.997 41.6239 31.0126 41.6151 31.029C41.5967 31.0638 41.5802 31.0994 41.5637 31.1353C41.5559 31.1532 41.5469 31.1703 41.5394 31.1885C41.5242 31.2243 41.5117 31.2611 41.4992 31.2984C41.4927 31.3175 41.4848 31.3362 41.4789 31.3559C41.4675 31.3931 41.4584 31.4314 41.4497 31.4698C41.4448 31.4898 41.4388 31.5096 41.4348 31.5298C41.4265 31.5706 41.4215 31.6122 41.4159 31.6535C41.4133 31.6724 41.4095 31.6908 41.4076 31.7098C41.4013 31.7708 41.3983 31.8322 41.3983 31.8946C41.3983 31.9798 41.4057 32.0633 41.4172 32.1455C41.4193 32.1618 41.4212 32.1778 41.424 32.194C41.4369 32.2737 41.4547 32.3516 41.4772 32.4273C41.4807 32.4389 41.4849 32.4498 41.4884 32.4613C41.5121 32.5346 41.5399 32.6066 41.5722 32.6754C41.5751 32.6813 41.5772 32.6872 41.58 32.693C41.6149 32.7659 41.6551 32.8353 41.6989 32.9021C41.7064 32.9132 41.7135 32.9239 41.7208 32.9346C41.7639 32.9972 41.8095 33.0581 41.86 33.1149C41.8645 33.1196 41.8669 33.1217 41.8692 33.1266L42.0109 33.2658L42.4429 33.6978C42.3795 33.8234 42.3469 33.9599 42.3469 34.0981V34.5692L41.8095 34.0323L41.8052 34.0276H40.9181V34.1693H40.9205L42.3468 35.5956V36.3413L40.7169 34.7109L40.7077 34.7019C40.4517 34.4482 40.0997 34.2925 39.7134 34.2925C38.9317 34.2925 38.3008 34.9259 38.3008 35.7053C38.3008 36.0713 38.4379 36.4048 38.6686 36.6562L42.3465 40.3336V41.4949L40.9523 40.1006C40.79 39.9408 40.5683 39.8398 40.3214 39.8398C40.0747 39.8398 39.8507 39.9408 39.6885 40.1006C39.5285 40.263 39.4277 40.4869 39.4277 40.7339C39.4277 40.9786 39.5285 41.2026 39.6885 41.3647L43.4347 45.1111V46.0023H43.0688L43.0687 46.0023Z" fill="#1D4D87"/>
<path d="M41.1228 35.7056C41.1228 36.4856 40.4903 37.1199 39.7103 37.1199C38.9291 37.1199 38.2969 36.4856 38.2969 35.7056C38.2969 34.9248 38.9291 34.2935 39.7103 34.2935C40.4903 34.2935 41.1228 34.9248 41.1228 35.7056Z" fill="#FF9D4D"/>
<path d="M39.7119 36.754C39.1333 36.754 38.6641 36.2843 38.6641 35.7059C38.6641 35.1279 39.1333 34.6572 39.7119 34.6572C40.2895 34.6572 40.7601 35.128 40.7601 35.7059C40.7601 36.2844 40.2896 36.754 39.7119 36.754Z" fill="#FF8E31"/>
<path d="M38.7479 35.7894C38.7479 35.2121 39.2171 34.7407 39.7954 34.7407C40.0634 34.7407 40.3079 34.8422 40.4931 35.0084C40.3008 34.7927 40.0224 34.6572 39.7119 34.6572C39.1333 34.6572 38.6641 35.128 38.6641 35.7059C38.6641 36.0166 38.7999 36.2962 39.0149 36.4881C38.8483 36.3025 38.7479 36.0577 38.7479 35.7894Z" fill="#F28124"/>
<path d="M45.0781 31.8954C45.0781 32.9119 44.2548 33.7375 43.2389 33.7375C42.2215 33.7375 41.3984 32.9118 41.3984 31.8954C41.3984 30.8791 42.2215 30.0569 43.2389 30.0569C44.2548 30.0569 45.0781 30.8791 45.0781 31.8954Z" fill="#FF9D4D"/>
<path d="M43.2396 33.2608C42.4859 33.2608 41.875 32.6493 41.875 31.8954C41.875 31.1432 42.4859 30.5303 43.2396 30.5303C43.9918 30.5303 44.6047 31.1432 44.6047 31.8954C44.6047 32.6495 43.9918 33.2608 43.2396 33.2608Z" fill="#FF8E31"/>
<path d="M41.9843 32.0048C41.9843 31.253 42.5953 30.639 43.3486 30.639C43.6975 30.639 44.0157 30.7707 44.2566 30.9876C44.0063 30.7067 43.6439 30.5305 43.2396 30.5305C42.4859 30.5305 41.875 31.1435 41.875 31.8956C41.875 32.3006 42.0523 32.6645 42.3324 32.9142C42.1156 32.6726 41.9843 32.3543 41.9843 32.0048Z" fill="#F28124"/>
<path d="M47.8304 34.6584C47.8304 35.1608 47.4235 35.5688 46.9218 35.5688C46.4184 35.5688 46.0117 35.1608 46.0117 34.6584C46.0117 34.156 46.4183 33.7498 46.9218 33.7498C47.4235 33.7499 47.8304 34.1562 47.8304 34.6584Z" fill="#FF9D4D"/>
<path d="M46.9248 35.3325C46.5521 35.3325 46.25 35.0309 46.25 34.6583C46.25 34.2868 46.5521 33.9834 46.9248 33.9834C47.2959 33.9834 47.5985 34.2868 47.5985 34.6583C47.5983 35.031 47.2959 35.3325 46.9248 35.3325Z" fill="#FF8E31"/>
<path d="M46.3039 34.7123C46.3039 34.3408 46.6056 34.0374 46.9782 34.0374C47.1504 34.0374 47.3074 34.1028 47.427 34.2099C47.3032 34.0707 47.1239 33.9836 46.9248 33.9836C46.5521 33.9836 46.25 34.287 46.25 34.6585C46.25 34.8587 46.3378 35.0382 46.4756 35.1616C46.3689 35.0425 46.3039 34.885 46.3039 34.7123Z" fill="#F28124"/>
<path d="M49.4387 37.8663C49.2639 37.6919 49.0356 37.6046 48.8072 37.6046C48.5788 37.6046 48.3505 37.6917 48.1764 37.8663C48.0017 38.0408 47.9147 38.269 47.9147 38.4974V39.9157H47.8432V37.8831C47.8432 37.6551 47.7558 37.4266 47.5815 37.2519C47.4073 37.0776 47.179 36.9903 46.9503 36.9903C46.7212 36.9903 46.4935 37.0776 46.3193 37.2519C46.1445 37.4266 46.0575 37.6551 46.0575 37.8831V39.9159H45.986V37.2863C45.986 37.0573 45.8992 36.8286 45.7249 36.6544C45.5502 36.4807 45.3218 36.3935 45.0937 36.3935C44.8651 36.3935 44.6369 36.4807 44.4622 36.6544C44.2878 36.8287 44.2006 37.0573 44.2006 37.2863V39.9157H44.1292V34.0986C44.1292 33.8701 44.0418 33.6416 43.8676 33.4672C43.6937 33.2929 43.465 33.2056 43.2362 33.2056C43.0077 33.2056 42.7793 33.2929 42.6045 33.4672C42.4308 33.6416 42.3434 33.8701 42.3434 34.0986V39.9157V41.4955L40.9497 40.1014C40.7879 39.9398 40.5653 39.8403 40.3186 39.8403C40.0717 39.8403 39.8488 39.94 39.6869 40.1014C39.5253 40.2632 39.4258 40.4861 39.4258 40.7328C39.4258 40.9792 39.5255 41.2028 39.6869 41.364L43.4328 45.1098H48.6111L49.4069 43.6161C49.5013 43.4398 49.5751 43.2496 49.626 43.0465C49.6763 42.8434 49.7002 42.6406 49.7002 42.4413V39.9156V38.4974C49.7 38.2689 49.6129 38.0408 49.4387 37.8663Z" fill="white"/>
<path d="M48.6118 45.1104H43.4336V46.004H48.6118V45.1104Z" fill="white"/>
<path d="M48.9798 46.0032H43.0703V46.3291H48.9798V46.0032Z" fill="#B8D1E6"/>
<path d="M49.7004 46.2991H42.3438V49.9429H49.7004V46.2991Z" fill="#231B42"/>
<path d="M46.022 46.2991H42.3438V49.9429H46.022V46.2991Z" fill="#231B42"/>
<path d="M48.977 47.4531C48.977 47.6907 48.7847 47.8827 48.5469 47.8827C48.309 47.8827 48.1172 47.6909 48.1172 47.4531C48.1172 47.2145 48.3089 47.0227 48.5469 47.0227C48.7846 47.0226 48.977 47.2145 48.977 47.4531Z" fill="white"/>
<path d="M41.807 34.0271H40.9141V34.1698H41.807V34.0271Z" fill="white"/>
<path d="M41.6441 32.4063L41.543 32.5076L42.1749 33.1386L42.276 33.0373L41.6441 32.4063Z" fill="white"/>
<path d="M43.3068 31.7771H43.1641V32.6699H43.3068V31.7771Z" fill="white"/>
<path d="M44.929 32.507L44.8281 32.4062L44.197 33.0384L44.2979 33.1391L44.929 32.507Z" fill="white"/>
<path d="M45.5569 34.0271H44.6641V34.1698H45.5569V34.0271Z" fill="white"/>
</g>
</g>
<defs>
<filter id="filter0_d_2909_11986" x="0" y="0" width="88" height="88" filterUnits="userSpaceOnUse" color-interpolation-filters="sRGB">
<feFlood flood-opacity="0" result="BackgroundImageFix"/>
<feColorMatrix in="SourceAlpha" type="matrix" values="0 0 0 0 0 0 0 0 0 0 0 0 0 0 0 0 0 0 127 0" result="hardAlpha"/>
<feOffset dy="4"/>
<feGaussianBlur stdDeviation="6"/>
<feComposite in2="hardAlpha" operator="out"/>
<feColorMatrix type="matrix" values="0 0 0 0 0.054902 0 0 0 0 0.34902 0 0 0 0 0.682353 0 0 0 0.15 0"/>
<feBlend mode="normal" in2="BackgroundImageFix" result="effect1_dropShadow_2909_11986"/>
<feBlend mode="normal" in="SourceGraphic" in2="effect1_dropShadow_2909_11986" result="shape"/>
</filter>
<clipPath id="clip0_2909_11986">
<rect width="32" height="32" fill="white" transform="translate(28 24)"/>
</clipPath>
</defs>
</svg>
