<svg width="88" height="88" viewBox="0 0 88 88" fill="none" xmlns="http://www.w3.org/2000/svg">
<g filter="url(#filter0_d_2909_11969)">
<rect x="12" y="8" width="64" height="64" rx="32" fill="white" shape-rendering="crispEdges"/>
<path fill-rule="evenodd" clip-rule="evenodd" d="M57.3346 40.0001C57.3346 47.3638 51.365 53.3334 44.0013 53.3334C36.6375 53.3334 30.668 47.3638 30.668 40.0001C30.668 32.6363 36.6375 26.6667 44.0013 26.6667C51.365 26.6667 57.3346 32.6363 57.3346 40.0001ZM45.9854 32.5946C46.5189 32.7376 46.8354 33.2859 46.6925 33.8194L43.2416 46.6983C43.0986 47.2318 42.5502 47.5485 42.0168 47.4055C41.4833 47.2625 41.1668 46.7142 41.3097 46.1807L44.7606 33.3017C44.9036 32.7683 45.452 32.4517 45.9854 32.5946ZM47.9609 35.293C48.3514 34.9025 48.9845 34.9025 49.375 35.293L49.6529 35.5708C50.5 36.4178 51.2064 37.1242 51.6917 37.7603C52.2041 38.4318 52.5634 39.1413 52.5634 40.0001C52.5634 40.8589 52.2041 41.5683 51.6917 42.2398C51.2064 42.8759 50.5 43.5823 49.6529 44.4294L49.375 44.7071C48.9845 45.0977 48.3514 45.0977 47.9609 44.7071C47.5704 44.3166 47.5704 43.6835 47.9609 43.293L48.1896 43.0642C49.0985 42.1553 49.7076 41.5433 50.1017 41.0266C50.4782 40.5331 50.5634 40.2458 50.5634 40.0001C50.5634 39.7543 50.4782 39.467 50.1017 38.9735C49.7076 38.4569 49.0985 37.8449 48.1896 36.936L47.9609 36.7072C47.5704 36.3167 47.5704 35.6835 47.9609 35.293ZM38.6278 35.293C39.0183 34.9025 39.6515 34.9025 40.042 35.293C40.4325 35.6835 40.4325 36.3167 40.042 36.7072L39.8132 36.936C38.9044 37.8449 38.2953 38.4569 37.9011 38.9735C37.5246 39.467 37.4394 39.7543 37.4394 40.0001C37.4394 40.2458 37.5246 40.5331 37.9011 41.0266C38.2953 41.5433 38.9044 42.1553 39.8132 43.0642L40.042 43.293C40.4325 43.6835 40.4325 44.3166 40.042 44.7071C39.6515 45.0977 39.0183 45.0977 38.6278 44.7071L38.35 44.4294C37.5029 43.5823 36.7965 42.8759 36.3111 42.2398C35.7988 41.5683 35.4394 40.8589 35.4394 40.0001C35.4394 39.1413 35.7988 38.4318 36.3111 37.7603C36.7965 37.1242 37.5029 36.4178 38.35 35.5708L38.6278 35.293Z" fill="#128C90"/>
</g>
<defs>
<filter id="filter0_d_2909_11969" x="0" y="0" width="88" height="88" filterUnits="userSpaceOnUse" color-interpolation-filters="sRGB">
<feFlood flood-opacity="0" result="BackgroundImageFix"/>
<feColorMatrix in="SourceAlpha" type="matrix" values="0 0 0 0 0 0 0 0 0 0 0 0 0 0 0 0 0 0 127 0" result="hardAlpha"/>
<feOffset dy="4"/>
<feGaussianBlur stdDeviation="6"/>
<feComposite in2="hardAlpha" operator="out"/>
<feColorMatrix type="matrix" values="0 0 0 0 0.054902 0 0 0 0 0.34902 0 0 0 0 0.682353 0 0 0 0.15 0"/>
<feBlend mode="normal" in2="BackgroundImageFix" result="effect1_dropShadow_2909_11969"/>
<feBlend mode="normal" in="SourceGraphic" in2="effect1_dropShadow_2909_11969" result="shape"/>
</filter>
</defs>
</svg>
