<svg width="88" height="88" viewBox="0 0 88 88" fill="none" xmlns="http://www.w3.org/2000/svg">
<g filter="url(#filter0_d_2909_11945)">
<rect x="12" y="8" width="64" height="64" rx="32" fill="white" shape-rendering="crispEdges"/>
<path d="M44 54C51.732 54 58 47.732 58 40C58 32.268 51.732 26 44 26C36.268 26 30 32.268 30 40C30 47.732 36.268 54 44 54Z" fill="#71A02D"/>
<path d="M46.4468 32.654C46.7494 32.1259 46.5685 31.4513 46.0428 31.1473C45.5171 30.8433 44.8456 31.025 44.543 31.5532L44.0153 32.4744L43.4875 31.5532C43.1849 31.025 42.5134 30.8433 41.9877 31.1473C41.462 31.4513 41.2811 32.1259 41.5837 32.654L42.748 34.6864L39.0652 41.1149H36.0983C35.4917 41.1149 35 41.6089 35 42.2183C35 42.8277 35.4917 43.3217 36.0983 43.3217H46.4324C46.523 43.0825 46.6184 42.6721 46.5169 42.2949C46.3644 41.7279 45.8 41.1149 44.8542 41.1149H41.5997L46.4468 32.654Z" fill="white"/>
<path d="M39.6378 44.5418C39.4504 44.3327 39.0306 43.9986 38.6624 43.8887C38.1011 43.721 37.6755 43.8262 37.4608 43.9178L36.6427 45.3459C36.3401 45.874 36.521 46.5486 37.0467 46.8526C37.5724 47.1566 38.2439 46.9749 38.5465 46.4467L39.6378 44.5418Z" fill="white"/>
<path d="M50.2308 43.3217H51.903C52.5096 43.3217 53.0013 42.8277 53.0013 42.2183C53.0013 41.6089 52.5096 41.1149 51.903 41.1149H48.9666L45.6588 35.3411C45.4131 35.5757 44.942 36.175 44.8708 36.8545C44.7793 37.728 44.9165 38.4636 45.3284 39.1839C46.7131 41.6056 48.1 44.0262 49.4867 46.4468C49.7893 46.975 50.4607 47.1567 50.9865 46.8527C51.5122 46.5487 51.6931 45.8741 51.3905 45.346L50.2308 43.3217Z" fill="white"/>
</g>
<defs>
<filter id="filter0_d_2909_11945" x="0" y="0" width="88" height="88" filterUnits="userSpaceOnUse" color-interpolation-filters="sRGB">
<feFlood flood-opacity="0" result="BackgroundImageFix"/>
<feColorMatrix in="SourceAlpha" type="matrix" values="0 0 0 0 0 0 0 0 0 0 0 0 0 0 0 0 0 0 127 0" result="hardAlpha"/>
<feOffset dy="4"/>
<feGaussianBlur stdDeviation="6"/>
<feComposite in2="hardAlpha" operator="out"/>
<feColorMatrix type="matrix" values="0 0 0 0 0.054902 0 0 0 0 0.34902 0 0 0 0 0.682353 0 0 0 0.15 0"/>
<feBlend mode="normal" in2="BackgroundImageFix" result="effect1_dropShadow_2909_11945"/>
<feBlend mode="normal" in="SourceGraphic" in2="effect1_dropShadow_2909_11945" result="shape"/>
</filter>
</defs>
</svg>
