<svg width="88" height="88" viewBox="0 0 88 88" fill="none" xmlns="http://www.w3.org/2000/svg">
<g filter="url(#filter0_d_2909_11923)">
<rect x="12" y="8" width="64" height="64" rx="32" fill="white" shape-rendering="crispEdges"/>
<path d="M47.5508 27.1055C48.0448 26.8586 48.6455 27.0588 48.8924 27.5528L51.8274 33.4225C53.6315 33.5611 54.7636 33.915 55.4942 34.8186C56.0747 35.5367 56.2626 36.4301 56.1935 37.6666H31.8027C31.7336 36.4301 31.9215 35.5367 32.502 34.8186C33.2325 33.915 34.3646 33.5611 36.1687 33.4225L39.1036 27.5528C39.3506 27.0588 39.9513 26.8586 40.4453 27.1055C40.9392 27.3525 41.1395 27.9532 40.8925 28.4472L38.4459 33.3403C39.0902 33.3333 39.7932 33.3333 40.5607 33.3333H47.4355C48.203 33.3333 48.9059 33.3333 49.5502 33.3403L47.1036 28.4472C46.8566 27.9532 47.0568 27.3525 47.5508 27.1055Z" fill="#BF2BCE"/>
<path fill-rule="evenodd" clip-rule="evenodd" d="M32.7386 43.0097C32.4626 41.7217 32.2264 40.6191 32.0586 39.6667H55.9383C55.7705 40.6191 55.5343 41.7215 55.2583 43.0095L54.6869 45.6763C54.0376 48.7063 53.7129 50.2214 52.6128 51.1107C51.5127 52.0001 49.9633 52.0001 46.8644 52.0001H41.1324C38.0336 52.0001 36.4842 52.0001 35.3841 51.1107C34.284 50.2214 33.9593 48.7063 33.31 45.6763L32.7386 43.0097ZM41.3317 41.6667C40.7795 41.6667 40.3317 42.1145 40.3317 42.6667C40.3317 43.219 40.7795 43.6667 41.3317 43.6667H46.6651C47.2173 43.6667 47.6651 43.219 47.6651 42.6667C47.6651 42.1145 47.2173 41.6667 46.6651 41.6667H41.3317Z" fill="#BF2BCE"/>
</g>
<defs>
<filter id="filter0_d_2909_11923" x="0" y="0" width="88" height="88" filterUnits="userSpaceOnUse" color-interpolation-filters="sRGB">
<feFlood flood-opacity="0" result="BackgroundImageFix"/>
<feColorMatrix in="SourceAlpha" type="matrix" values="0 0 0 0 0 0 0 0 0 0 0 0 0 0 0 0 0 0 127 0" result="hardAlpha"/>
<feOffset dy="4"/>
<feGaussianBlur stdDeviation="6"/>
<feComposite in2="hardAlpha" operator="out"/>
<feColorMatrix type="matrix" values="0 0 0 0 0.054902 0 0 0 0 0.34902 0 0 0 0 0.682353 0 0 0 0.15 0"/>
<feBlend mode="normal" in2="BackgroundImageFix" result="effect1_dropShadow_2909_11923"/>
<feBlend mode="normal" in="SourceGraphic" in2="effect1_dropShadow_2909_11923" result="shape"/>
</filter>
</defs>
</svg>
