<svg width="88" height="88" viewBox="0 0 88 88" fill="none" xmlns="http://www.w3.org/2000/svg">
<g filter="url(#filter0_d_2909_11978)">
<rect x="12" y="8" width="64" height="64" rx="32" fill="white" shape-rendering="crispEdges"/>
<path d="M41.2813 36.1826L42.4627 32.0506C42.9053 30.5039 45.0973 30.5039 45.54 32.0506L46.72 36.1826C46.7947 36.4439 46.9348 36.682 47.127 36.8742C47.3192 37.0664 47.5573 37.2065 47.8187 37.2812L51.9507 38.4612C53.4973 38.9039 53.4973 41.0959 51.9507 41.5386L47.8187 42.7186C47.5573 42.7933 47.3192 42.9333 47.127 43.1256C46.9348 43.3178 46.7947 43.5558 46.72 43.8172L45.54 47.9492C45.0973 49.4959 42.9053 49.4959 42.4627 47.9492L41.2827 43.8172C41.208 43.5558 41.0679 43.3178 40.8756 43.1256C40.6834 42.9333 40.4454 42.7933 40.184 42.7186L36.052 41.5386C34.5053 41.0959 34.5053 38.9039 36.052 38.4612L40.184 37.2812C40.4454 37.2065 40.6834 37.0664 40.8756 36.8742C41.0679 36.682 41.208 36.4439 41.2827 36.1826M52.14 46.0092C52.5253 44.8852 54.1453 44.8839 54.5293 46.0092L54.564 46.1252L54.9587 47.7092L56.5427 48.1052C57.8227 48.4252 57.8227 50.2412 56.5427 50.5612L54.9587 50.9572L54.564 52.5412C54.244 53.8199 52.4267 53.8199 52.1067 52.5412L51.7107 50.9572L50.1267 50.5612C48.8467 50.2412 48.8467 48.4239 50.1267 48.1052L51.7107 47.7092L52.1067 46.1252L52.14 46.0092ZM53.3347 49.0626C53.2579 49.1653 53.1668 49.2565 53.064 49.3332C53.1668 49.41 53.2579 49.5011 53.3347 49.6039C53.4114 49.5011 53.5026 49.41 53.6053 49.3332C53.5025 49.2561 53.4113 49.1645 53.3347 49.0612M33.4733 27.3412C33.8707 26.1799 35.5867 26.2186 35.8973 27.4572L36.292 29.0412L37.876 29.4372C39.156 29.7572 39.156 31.5732 37.876 31.8932L36.292 32.2892L35.8973 33.8732C35.5773 35.1519 33.76 35.1519 33.44 33.8732L33.044 32.2892L31.46 31.8932C30.18 31.5732 30.18 29.7559 31.46 29.4372L33.044 29.0412L33.44 27.4572L33.4733 27.3412ZM34.668 30.3959C34.5912 30.4982 34.5 30.5889 34.3973 30.6652C34.5002 30.7424 34.5914 30.834 34.668 30.9372C34.7446 30.834 34.8358 30.7424 34.9387 30.6652C34.8359 30.5885 34.7447 30.4987 34.668 30.3959Z" fill="#4B2EBB"/>
</g>
<defs>
<filter id="filter0_d_2909_11978" x="0" y="0" width="88" height="88" filterUnits="userSpaceOnUse" color-interpolation-filters="sRGB">
<feFlood flood-opacity="0" result="BackgroundImageFix"/>
<feColorMatrix in="SourceAlpha" type="matrix" values="0 0 0 0 0 0 0 0 0 0 0 0 0 0 0 0 0 0 127 0" result="hardAlpha"/>
<feOffset dy="4"/>
<feGaussianBlur stdDeviation="6"/>
<feComposite in2="hardAlpha" operator="out"/>
<feColorMatrix type="matrix" values="0 0 0 0 0.054902 0 0 0 0 0.34902 0 0 0 0 0.682353 0 0 0 0.15 0"/>
<feBlend mode="normal" in2="BackgroundImageFix" result="effect1_dropShadow_2909_11978"/>
<feBlend mode="normal" in="SourceGraphic" in2="effect1_dropShadow_2909_11978" result="shape"/>
</filter>
</defs>
</svg>
