<svg width="88" height="88" viewBox="0 0 88 88" fill="none" xmlns="http://www.w3.org/2000/svg">
<g filter="url(#filter0_d_2909_12017)">
<rect x="12" y="8" width="64" height="64" rx="32" fill="white" shape-rendering="crispEdges"/>
<g clip-path="url(#clip0_2909_12017)">
<path d="M55.201 48.4494C57.2513 45.8756 58.4833 42.6099 58.4824 39.067C58.4833 34.9116 56.7931 31.1339 54.0694 28.413C51.3478 25.6888 47.57 23.999 43.4149 24C39.2595 23.999 35.4821 25.6888 32.7607 28.413C30.0367 31.1339 28.3467 34.9116 28.3477 39.067C28.3467 43.2219 30.0367 46.9996 32.7607 49.721C35.4821 52.4452 39.2596 54.135 43.415 54.134C46.5992 54.135 49.5595 53.1396 51.995 51.4503L56.5455 56L59.6488 52.8967L55.201 48.4494ZM51.655 47.3072C49.5408 49.4181 46.6383 50.7192 43.4149 50.7201C40.1915 50.7192 37.289 49.4181 35.1746 47.3072C33.0631 45.1926 31.7624 42.2903 31.7615 39.067C31.7624 35.8436 33.0631 32.9413 35.1746 30.8268C37.289 28.7155 40.1915 27.4148 43.4149 27.4139C46.6383 27.4148 49.5408 28.7155 51.655 30.8268C53.7669 32.9413 55.0676 35.8437 55.0685 39.067C55.0676 42.2904 53.7669 45.1926 51.655 47.3072Z" fill="#18BFC9"/>
<path d="M37.745 38.6942L37.389 38.6447C36.4791 38.5161 36.1526 38.1999 36.1526 37.735C36.1526 37.2107 36.5284 36.8349 37.2109 36.8349C37.7745 36.8349 38.2789 37.0031 38.823 37.3592C38.8723 37.3888 38.9219 37.3788 38.9614 37.3292L39.4362 36.5977C39.4757 36.5382 39.4657 36.4987 39.4162 36.4591C38.8823 36.0539 38.0812 35.7866 37.2406 35.7866C35.8559 35.7866 34.9657 36.5977 34.9657 37.8141C34.9657 38.9314 35.6977 39.5549 36.9932 39.7325L37.3492 39.782C38.2789 39.9106 38.5756 40.2273 38.5756 40.7117C38.5756 41.2756 38.1108 41.6809 37.3097 41.6809C36.5582 41.6809 35.9152 41.3151 35.4801 40.9689C35.4406 40.9294 35.3813 40.9294 35.3417 40.9789L34.7286 41.6909C34.6891 41.7404 34.7088 41.7994 34.7483 41.8395C35.2724 42.3338 36.2316 42.7291 37.2209 42.7291C38.8921 42.7291 39.7527 41.8395 39.7527 40.6426C39.7527 39.4852 39.0404 38.8724 37.745 38.6942Z" fill="#18BFC9"/>
<path d="M45.222 35.895H41.009C40.9497 35.895 40.9102 35.9345 40.9102 35.9941V42.5213C40.9102 42.5808 40.9497 42.6203 41.009 42.6203H45.222C45.2815 42.6203 45.321 42.5808 45.321 42.5213V41.6711C45.321 41.6116 45.2815 41.5721 45.222 41.5721H42.1365L42.0772 41.5125V39.8118L42.1365 39.7523H44.7373C44.7969 39.7523 44.8365 39.7127 44.8365 39.6531V38.8026C44.8365 38.7435 44.7969 38.704 44.7373 38.704H42.1365L42.0772 38.6445V37.0028L42.1365 36.9438H45.222C45.2815 36.9438 45.321 36.9038 45.321 36.8447V35.9941C45.321 35.9345 45.2815 35.895 45.222 35.895Z" fill="#18BFC9"/>
<path d="M48.9031 35.7866C47.746 35.7866 46.8757 36.3406 46.5297 37.4087C46.3911 37.8241 46.3516 38.1999 46.3516 39.2581C46.3516 40.3163 46.3911 40.6921 46.5297 41.1074C46.8757 42.1756 47.7461 42.7291 48.9031 42.7291C50.0704 42.7291 50.9401 42.1756 51.2868 41.1074C51.4249 40.6921 51.4649 40.3163 51.4649 39.2581C51.4649 38.1998 51.4249 37.8241 51.2868 37.4087C50.9401 36.3406 50.0704 35.7866 48.9031 35.7866ZM50.159 40.8007C49.9713 41.3446 49.5761 41.6809 48.9031 41.6809C48.2406 41.6809 47.8448 41.3446 47.6569 40.8007C47.5779 40.5536 47.5383 40.2073 47.5383 39.2581C47.5383 38.2984 47.5779 37.9622 47.6569 37.715C47.8449 37.1711 48.2406 36.8349 48.9031 36.8349C49.5761 36.8349 49.9713 37.1711 50.159 37.715C50.2381 37.9622 50.278 38.2984 50.278 39.2581C50.2781 40.2073 50.2381 40.5535 50.159 40.8007Z" fill="#18BFC9"/>
</g>
</g>
<defs>
<filter id="filter0_d_2909_12017" x="0" y="0" width="88" height="88" filterUnits="userSpaceOnUse" color-interpolation-filters="sRGB">
<feFlood flood-opacity="0" result="BackgroundImageFix"/>
<feColorMatrix in="SourceAlpha" type="matrix" values="0 0 0 0 0 0 0 0 0 0 0 0 0 0 0 0 0 0 127 0" result="hardAlpha"/>
<feOffset dy="4"/>
<feGaussianBlur stdDeviation="6"/>
<feComposite in2="hardAlpha" operator="out"/>
<feColorMatrix type="matrix" values="0 0 0 0 0.054902 0 0 0 0 0.34902 0 0 0 0 0.682353 0 0 0 0.15 0"/>
<feBlend mode="normal" in2="BackgroundImageFix" result="effect1_dropShadow_2909_12017"/>
<feBlend mode="normal" in="SourceGraphic" in2="effect1_dropShadow_2909_12017" result="shape"/>
</filter>
<clipPath id="clip0_2909_12017">
<rect width="32" height="32" fill="white" transform="translate(28 24)"/>
</clipPath>
</defs>
</svg>
