<svg width="88" height="88" viewBox="0 0 88 88" fill="none" xmlns="http://www.w3.org/2000/svg">
<g filter="url(#filter0_d_2909_11956)">
<rect x="12" y="8" width="64" height="64" rx="32" fill="white" shape-rendering="crispEdges"/>
<g clip-path="url(#clip0_2909_11956)">
<path d="M38.6197 36.6584C38.6197 41.5268 42.522 45.4643 47.347 45.4643C47.7459 45.4643 48.1324 45.4392 48.5064 45.3763C52.7828 44.8102 56.0742 41.1243 56.0742 36.6584C56.0742 31.79 52.1719 27.8525 47.347 27.8525C42.921 27.8525 39.268 31.1736 38.7069 35.4885C38.6446 35.8659 38.6197 36.2559 38.6197 36.6584Z" stroke="#2EB8AE" stroke-width="4.8217" stroke-linecap="round" stroke-linejoin="round"/>
<path opacity="0.4" d="M31.1406 44.2061C31.1406 49.0745 35.0429 53.012 39.8678 53.012C44.2938 53.012 47.9468 49.6909 48.5078 45.376C48.1338 45.4389 47.7473 45.4641 47.3483 45.4641C42.5234 45.4641 38.6211 41.5266 38.6211 36.6582C38.6211 36.2557 38.646 35.8657 38.7084 35.4883C34.432 36.0544 31.1406 39.7402 31.1406 44.2061Z" stroke="#1F625D" stroke-width="4.8217" stroke-linecap="round" stroke-linejoin="round"/>
<path opacity="0.4" d="M40.9258 43.0994L39.2925 44.7222" stroke="#1F625D" stroke-width="4.8217" stroke-linecap="round" stroke-linejoin="round"/>
<path opacity="0.4" d="M37.3743 40.4323L38.6211 39.1743" stroke="#1F625D" stroke-width="4.8217" stroke-linecap="round" stroke-linejoin="round"/>
<path opacity="0.4" d="M43.6087 46.7223L44.8555 45.4644" stroke="#1F625D" stroke-width="4.8217" stroke-linecap="round" stroke-linejoin="round"/>
</g>
</g>
<defs>
<filter id="filter0_d_2909_11956" x="0" y="0" width="88" height="88" filterUnits="userSpaceOnUse" color-interpolation-filters="sRGB">
<feFlood flood-opacity="0" result="BackgroundImageFix"/>
<feColorMatrix in="SourceAlpha" type="matrix" values="0 0 0 0 0 0 0 0 0 0 0 0 0 0 0 0 0 0 127 0" result="hardAlpha"/>
<feOffset dy="4"/>
<feGaussianBlur stdDeviation="6"/>
<feComposite in2="hardAlpha" operator="out"/>
<feColorMatrix type="matrix" values="0 0 0 0 0.054902 0 0 0 0 0.34902 0 0 0 0 0.682353 0 0 0 0.15 0"/>
<feBlend mode="normal" in2="BackgroundImageFix" result="effect1_dropShadow_2909_11956"/>
<feBlend mode="normal" in="SourceGraphic" in2="effect1_dropShadow_2909_11956" result="shape"/>
</filter>
<clipPath id="clip0_2909_11956">
<rect width="30" height="32" fill="white" transform="matrix(-1 0 0 1 59 24)"/>
</clipPath>
</defs>
</svg>
