<svg width="533" height="511" viewBox="0 0 533 511" fill="none" xmlns="http://www.w3.org/2000/svg">
<rect width="533" height="511" rx="12" fill="url(#paint0_linear_107_5327)"/>
<g opacity="0.09">
<path d="M275.531 436.802C372.423 436.802 450.969 358.256 450.969 261.364C450.969 164.473 372.423 85.9268 275.531 85.9268C178.64 85.9268 100.094 164.473 100.094 261.364C100.094 358.256 178.64 436.802 275.531 436.802Z" fill="#078999"/>
<path d="M441.141 233.806L441.147 233.841C441.186 233.879 441.18 233.863 441.141 233.806Z" fill="#74C15D"/>
<path d="M296.343 87.1489C296.18 87.1287 296.016 87.1301 295.854 87.1489L294.27 87.3425L294.037 89.4424C294.004 89.7462 294.043 90.0541 294.15 90.3404L300.115 106.173C300.388 106.896 300.205 107.712 299.65 108.25L298.083 109.771L290.252 117.907C289.725 118.454 288.929 118.643 288.212 118.392L278.66 115.045C278.518 114.995 278.37 114.961 278.219 114.945L266.127 113.691C266.041 113.681 265.955 113.679 265.869 113.681L258.483 113.903C258.12 113.914 257.768 114.027 257.465 114.229L244.319 122.992C243.661 123.431 243.334 124.224 243.494 124.998L244.465 129.705C244.55 130.116 244.766 130.49 245.082 130.768L259.03 143.069C259.798 143.747 259.908 144.903 259.281 145.712L252.222 154.83C251.942 155.19 251.546 155.44 251.101 155.538L247.554 156.311C246.662 156.506 245.756 156.052 245.377 155.221L240.503 144.535C240.48 144.484 240.455 144.434 240.427 144.384L237.625 139.433C237.009 138.345 235.542 138.114 234.623 138.961L226.972 145.999C226.82 146.139 226.696 146.293 226.596 146.473C225.93 147.662 223.388 152.453 224.42 154.601C225.329 156.49 228.458 159.983 229.868 161.511C230.307 161.987 230.476 162.643 230.326 163.274L230.087 164.279C229.888 165.114 230.26 165.98 231.004 166.409L240.037 171.63C241.179 172.291 241.343 173.874 240.361 174.755L236.125 178.551C235.9 178.753 235.631 178.898 235.341 178.979L223.898 182.104C223.138 182.312 222.58 182.953 222.483 183.734C222.046 187.264 220.964 196.879 222.049 197.593C223.048 198.25 224.908 196.445 225.777 195.501C226.092 195.16 226.515 194.938 226.977 194.887L240.962 193.343C241.494 193.284 241.979 193.007 242.301 192.58L251.152 180.782C251.32 180.558 251.534 180.374 251.778 180.24L260.362 175.584C260.928 175.278 261.61 175.271 262.181 175.568L278.816 184.207C279.23 184.422 279.553 184.778 279.725 185.211L282.14 191.28C282.77 192.865 284.992 192.923 285.705 191.374L287.525 187.417C287.876 186.655 287.697 185.754 287.082 185.184L275.078 174.05C273.571 172.652 274.986 170.179 276.954 170.77L284.611 173.069C285.027 173.194 285.389 173.455 285.639 173.81L292.849 184.05C292.889 184.106 292.932 184.161 292.978 184.214L295.351 186.913C296.343 188.041 298.183 187.663 298.651 186.236C299.24 184.438 301.789 184.458 302.348 186.265C303.426 189.754 304.611 193.63 304.733 194.219C304.936 195.203 311.766 194.443 313.251 194.266C313.441 194.243 313.619 194.193 313.796 194.116L320.282 191.277C320.46 191.199 320.624 191.096 320.77 190.969L324.655 187.62C325.466 186.921 326.689 187.011 327.39 187.821L334.153 195.645C334.671 196.245 334.773 197.098 334.41 197.803L331.661 203.14C331.354 203.734 330.774 204.128 330.107 204.184C324.936 204.615 302.605 206.514 301.782 207.313C301.167 207.91 300.759 210.601 300.553 212.351C300.447 213.256 299.731 213.961 298.823 214.048C294.025 214.511 279.858 215.805 279.109 215.033C278.319 214.217 272.378 209.237 270.924 208.02C270.711 207.842 270.54 207.623 270.421 207.373L264.246 194.533C263.819 193.645 262.793 193.218 261.861 193.541L213.199 210.442C212.71 210.613 212.312 210.963 212.089 211.431C209.928 215.958 198.307 240.246 197.303 240.73C196.281 241.222 199.305 272.64 199.782 277.536C199.823 277.955 199.999 278.341 200.284 278.652L224.75 305.294C225.284 305.877 226.118 306.076 226.858 305.8L266.275 291.07C267.262 290.701 268.363 291.187 268.755 292.164L270 295.266C270.218 295.809 270.66 296.221 271.218 296.393C274.108 297.287 283.206 300.166 283.653 301.097C284.128 302.083 286.306 314.842 286.782 317.653C286.842 318.012 286.997 318.336 287.239 318.608C290.218 321.953 310.419 344.733 309.543 346.417C308.598 348.236 306.064 358.099 307.321 359.768C308.579 361.438 315.729 373.466 317.342 375.874C318.614 377.772 324.607 383.615 327.09 386.005C327.726 386.618 328.694 386.722 329.447 386.259L348.631 374.507C348.811 374.396 348.966 374.265 349.101 374.102C351.778 370.892 380.616 336.237 379.769 334.475C378.881 332.628 372.676 318.781 371.418 317.112C370.16 315.442 380.544 284.064 380.572 282.23C380.597 280.604 400.255 251.967 404.668 245.557C405.182 244.811 405.105 243.819 404.492 243.152L400.236 238.525C399.49 237.714 398.218 237.686 397.438 238.465L386.357 249.513C385.912 249.956 385.278 250.157 384.66 250.052L367.502 247.116C367.055 247.039 366.658 246.818 366.363 246.474C363.252 242.838 344.97 221.449 344.482 220.435C344.219 219.888 340.964 215.891 337.739 211.988L337.747 211.998L341.236 210.32C341.994 209.956 342.901 210.121 343.482 210.731L370.607 239.234C371.056 239.705 371.711 239.92 372.352 239.806L382.099 238.073C382.539 237.995 382.931 237.776 383.223 237.437C385.293 235.031 393.947 225.001 394.596 224.687C395.336 224.332 400.495 206.686 400.495 206.686L402.564 198.81C402.796 197.932 403.604 197.331 404.511 197.363L419.384 197.906C420.103 197.933 420.75 198.355 421.062 199.005L432.307 222.387C432.369 222.515 432.442 222.632 432.529 222.743C432.974 223.309 434.508 225.257 436.161 227.369C437.418 228.973 439.982 227.806 439.595 225.806L432.853 190.988C432.798 190.706 432.807 190.414 432.879 190.136L433.766 186.69C433.72 186.221 433.677 185.791 433.631 185.322C406.677 129.275 353.83 94.0711 296.343 87.1489Z" fill="#74C15D"/>
<path d="M171.489 402.651C170.974 398.9 169.677 388.948 170.286 387.918C171.039 386.647 175.977 387.456 175.977 387.456C175.977 387.456 169.716 377.275 159.492 357.627C149.27 337.979 158.386 350.881 159.167 347.775C159.948 344.67 163.863 340.513 164.082 338.134C164.302 335.753 155.823 326.638 152.91 325.31C149.997 323.981 133.71 309.98 132.274 307.94C130.838 305.901 127.945 291.371 127.945 291.371L114.153 282.556L106.505 266.655C106.505 266.655 103.646 262.299 100.111 256.891C99.4015 283.867 104.923 311.41 117.424 337.402C130.307 364.185 149.106 386.199 171.489 402.651Z" fill="#74C15D"/>
<path d="M116.312 187.667C120.167 184.979 125.966 181.326 125.966 181.326L132.345 171.89L145.832 177.231C145.832 177.231 146.729 190.446 146.963 187.15C147.197 183.853 150.092 174.74 150.092 174.74C150.092 174.74 152.389 168.163 155.947 163.267C159.506 158.371 163.996 152.573 166.76 151.699C169.524 150.825 172.471 138.035 172.471 138.035L172.91 133.274C174.935 132.755 179.78 127.695 179.78 127.695L182.367 126.451C182.367 126.451 190.551 118.876 192.974 116.346C195.396 113.816 197.449 111.464 197.449 111.464L188.137 132.774L185.894 139.462C185.894 139.462 198.01 130.603 211.386 127.202C224.763 123.802 229.01 122.227 229.01 122.227L233.184 116.72L234.402 105.064C234.402 105.064 239.055 100.551 239.645 97.9938C240.011 96.4088 236.6 93.1487 233.953 90.8955C222.288 93.7523 210.741 97.8472 199.486 103.26C161.307 121.622 132.799 151.997 116.312 187.667Z" fill="#74C15D"/>
<path d="M391.523 321.09C393.229 329.367 383.931 349.76 383.931 349.76C383.931 349.76 378.286 371.126 385.937 362.443C393.588 353.759 393.439 351.556 393.439 351.556L396.792 348.124L399.86 339.369C399.86 339.369 401.712 326.196 402.344 320.888C402.344 320.888 389.816 312.813 391.523 321.09Z" fill="#74C15D"/>
<g opacity="0.5">
<path d="M433.637 185.325C403.346 122.342 340.361 85.6794 274.838 85.8945C319.806 93.9849 360.391 122.791 381.708 167.113C416.998 240.488 386.123 328.576 312.749 363.866C239.375 399.156 151.286 368.281 115.996 294.906C107.224 276.667 102.545 257.52 101.585 238.499C97.2572 271.19 102.071 305.466 117.431 337.403C159.426 424.722 264.255 461.462 351.573 419.468C438.891 377.474 475.633 272.642 433.637 185.325Z" fill="#005479"/>
</g>
</g>
<circle cx="28.2271" cy="28.2271" r="28.2271" transform="matrix(-1 0 0 1 469 290.231)" fill="#FE1C7E"/>
<path d="M257.562 156.727C257.562 158.328 257.254 159.684 256.639 160.797C256.023 161.91 255.19 162.755 254.139 163.332C253.092 163.91 251.918 164.199 250.616 164.199C249.309 164.199 248.133 163.908 247.086 163.325C246.04 162.743 245.209 161.898 244.593 160.79C243.982 159.677 243.677 158.323 243.677 156.727C243.677 155.127 243.982 153.77 244.593 152.658C245.209 151.545 246.04 150.7 247.086 150.122C248.133 149.545 249.309 149.256 250.616 149.256C251.918 149.256 253.092 149.545 254.139 150.122C255.19 150.7 256.023 151.545 256.639 152.658C257.254 153.77 257.562 155.127 257.562 156.727ZM253.968 156.727C253.968 155.78 253.833 154.98 253.563 154.327C253.298 153.673 252.915 153.179 252.413 152.842C251.916 152.506 251.317 152.338 250.616 152.338C249.92 152.338 249.321 152.506 248.819 152.842C248.317 153.179 247.931 153.673 247.661 154.327C247.396 154.98 247.264 155.78 247.264 156.727C247.264 157.674 247.396 158.474 247.661 159.128C247.931 159.781 248.317 160.276 248.819 160.612C249.321 160.948 249.92 161.116 250.616 161.116C251.317 161.116 251.916 160.948 252.413 160.612C252.915 160.276 253.298 159.781 253.563 159.128C253.833 158.474 253.968 157.674 253.968 156.727ZM268.414 149.455H271.923V158.837C271.923 159.921 271.665 160.866 271.149 161.67C270.633 162.471 269.913 163.091 268.99 163.531C268.066 163.967 266.994 164.185 265.772 164.185C264.536 164.185 263.457 163.967 262.534 163.531C261.61 163.091 260.893 162.471 260.382 161.67C259.87 160.866 259.615 159.921 259.615 158.837V149.455H263.13V158.531C263.13 159.033 263.239 159.481 263.457 159.874C263.679 160.267 263.99 160.574 264.387 160.797C264.785 161.019 265.247 161.131 265.772 161.131C266.298 161.131 266.757 161.019 267.15 160.797C267.548 160.574 267.858 160.267 268.08 159.874C268.303 159.481 268.414 159.033 268.414 158.531V149.455ZM274.126 164V149.455H280.135C281.224 149.455 282.164 149.651 282.954 150.044C283.75 150.432 284.363 150.991 284.794 151.72C285.225 152.445 285.44 153.304 285.44 154.298C285.44 155.307 285.22 156.164 284.78 156.869C284.339 157.57 283.714 158.105 282.905 158.474C282.095 158.839 281.136 159.021 280.028 159.021H276.229V156.251H279.375C279.905 156.251 280.348 156.183 280.703 156.045C281.063 155.903 281.335 155.69 281.52 155.406C281.704 155.117 281.797 154.748 281.797 154.298C281.797 153.848 281.704 153.477 281.52 153.183C281.335 152.885 281.063 152.662 280.703 152.516C280.343 152.364 279.9 152.288 279.375 152.288H277.642V164H274.126ZM282.315 157.352L285.937 164H282.102L278.551 157.352H282.315ZM210.327 192V177.455H220.469V180.31H213.843V183.293H219.951V186.155H213.843V189.145H220.469V192H210.327ZM226.229 177.455L228.886 182.05H228.999L231.684 177.455H235.619L231.229 184.727L235.761 192H231.727L228.999 187.355H228.886L226.158 192H222.153L226.663 184.727L222.266 177.455H226.229ZM237.437 192V177.455H243.445C244.534 177.455 245.474 177.668 246.265 178.094C247.06 178.515 247.674 179.105 248.104 179.862C248.535 180.615 248.751 181.491 248.751 182.49C248.751 183.494 248.531 184.372 248.09 185.125C247.655 185.873 247.032 186.453 246.222 186.865C245.413 187.277 244.451 187.483 243.339 187.483H239.631V184.713H242.685C243.216 184.713 243.658 184.621 244.013 184.436C244.373 184.251 244.646 183.993 244.83 183.662C245.015 183.326 245.107 182.935 245.107 182.49C245.107 182.04 245.015 181.652 244.83 181.325C244.646 180.994 244.373 180.738 244.013 180.558C243.654 180.378 243.211 180.288 242.685 180.288H240.952V192H237.437ZM250.484 192V177.455H260.626V180.31H253.999V183.293H260.107V186.155H253.999V189.145H260.626V192H250.484ZM262.827 192V177.455H268.836C269.925 177.455 270.865 177.651 271.656 178.044C272.451 178.432 273.064 178.991 273.495 179.72C273.926 180.445 274.141 181.304 274.141 182.298C274.141 183.307 273.921 184.164 273.481 184.869C273.04 185.57 272.415 186.105 271.606 186.474C270.796 186.839 269.837 187.021 268.729 187.021H264.93V184.251H268.076C268.606 184.251 269.049 184.183 269.404 184.045C269.764 183.903 270.036 183.69 270.221 183.406C270.406 183.117 270.498 182.748 270.498 182.298C270.498 181.848 270.406 181.477 270.221 181.183C270.036 180.885 269.764 180.662 269.404 180.516C269.044 180.364 268.602 180.288 268.076 180.288H266.343V192H262.827ZM271.016 185.352L274.638 192H270.803L267.252 185.352H271.016ZM275.594 180.31V177.455H287.888V180.31H283.477V192H280.011V180.31H275.594ZM293.12 177.455V192H289.605V177.455H293.12ZM303.19 181.815C303.142 181.295 302.932 180.89 302.558 180.601C302.188 180.307 301.66 180.161 300.974 180.161C300.519 180.161 300.14 180.22 299.837 180.338C299.534 180.456 299.307 180.62 299.156 180.828C299.004 181.032 298.926 181.266 298.921 181.531C298.912 181.749 298.954 181.941 299.049 182.107C299.148 182.272 299.29 182.419 299.475 182.547C299.665 182.67 299.892 182.779 300.157 182.874C300.422 182.968 300.72 183.051 301.052 183.122L302.302 183.406C303.022 183.562 303.656 183.771 304.205 184.031C304.759 184.292 305.223 184.602 305.597 184.962C305.976 185.321 306.263 185.736 306.457 186.205C306.651 186.673 306.75 187.199 306.755 187.781C306.75 188.7 306.518 189.488 306.059 190.146C305.6 190.804 304.939 191.309 304.077 191.659C303.22 192.009 302.186 192.185 300.974 192.185C299.757 192.185 298.696 192.002 297.792 191.638C296.888 191.273 296.184 190.719 295.683 189.976C295.181 189.232 294.923 188.293 294.908 187.156H298.275C298.303 187.625 298.429 188.016 298.651 188.328C298.874 188.641 299.179 188.877 299.567 189.038C299.96 189.199 300.415 189.28 300.931 189.28C301.405 189.28 301.807 189.216 302.138 189.088C302.475 188.96 302.733 188.783 302.913 188.555C303.093 188.328 303.185 188.068 303.19 187.774C303.185 187.5 303.1 187.265 302.934 187.071C302.768 186.872 302.513 186.702 302.167 186.56C301.826 186.413 301.39 186.278 300.86 186.155L299.34 185.8C298.081 185.511 297.089 185.045 296.364 184.401C295.64 183.752 295.28 182.876 295.285 181.773C295.28 180.873 295.522 180.085 296.009 179.408C296.497 178.731 297.172 178.203 298.033 177.824C298.895 177.445 299.878 177.256 300.981 177.256C302.108 177.256 303.085 177.447 303.914 177.831C304.747 178.21 305.394 178.742 305.853 179.429C306.312 180.116 306.547 180.911 306.556 181.815H303.19ZM308.531 192V177.455H318.673V180.31H312.046V183.293H318.154V186.155H312.046V189.145H318.673V192H308.531Z" fill="#0E59AE"/>
<rect x="65" y="290.231" width="56.4541" height="56.4541" rx="28.2271" fill="#0E59AE"/>
<path d="M94.3173 331.877H91.8438C91.6863 331.877 91.5353 331.94 91.4239 332.051C91.3126 332.162 91.25 332.313 91.25 332.471C91.25 332.628 91.3126 332.779 91.4239 332.891C91.5353 333.002 91.6863 333.064 91.8438 333.064H94.3173C94.4748 333.064 94.6258 333.002 94.7372 332.891C94.8485 332.779 94.9111 332.628 94.9111 332.471C94.9111 332.313 94.8485 332.162 94.7372 332.051C94.6258 331.94 94.4748 331.877 94.3173 331.877Z" fill="white"/>
<path d="M105.515 308.371C105.515 308.302 105.503 308.233 105.479 308.169C105.47 308.154 105.462 308.138 105.456 308.121C105.444 308.098 105.438 308.08 105.426 308.056L101.62 302.077C101.516 301.911 101.371 301.775 101.2 301.68C101.029 301.586 100.836 301.536 100.64 301.537H85.3572C85.1615 301.536 84.9689 301.586 84.7976 301.68C84.6262 301.775 84.4817 301.911 84.3775 302.077L80.5716 308.056C80.5597 308.08 80.5538 308.098 80.5419 308.121C80.5352 308.138 80.5272 308.154 80.5181 308.169C80.4943 308.233 80.4823 308.302 80.4825 308.371L80.4766 308.377V311.114C80.4796 311.746 80.6846 312.361 81.0617 312.868C81.4387 313.375 81.9681 313.749 82.5725 313.934V331.948C82.5742 332.859 82.9372 333.732 83.5817 334.375C84.2262 335.019 85.0996 335.38 86.0103 335.38H99.9872C100.898 335.38 101.771 335.019 102.416 334.375C103.06 333.732 103.423 332.859 103.425 331.948V313.934C104.029 313.749 104.559 313.375 104.936 312.868C105.313 312.361 105.518 311.746 105.521 311.114V308.377L105.515 308.371ZM100.617 302.712L103.841 307.783H100.551L98.4316 302.712H100.617ZM97.1431 302.712L99.2628 307.783H95.9141L95.3619 302.718L97.1431 302.712ZM99.5597 308.97V311.114C99.5597 311.586 99.372 312.039 99.038 312.373C98.7039 312.707 98.2509 312.895 97.7784 312.895H97.7606C97.2882 312.895 96.8351 312.707 96.5011 312.373C96.167 312.039 95.9794 311.586 95.9794 311.114V308.97H99.5597ZM91.8291 302.718H94.1684L94.7206 307.783H91.2769L91.8291 302.718ZM91.2056 308.97H94.7919V311.114C94.7919 311.586 94.6042 312.039 94.2702 312.373C93.9361 312.707 93.483 312.895 93.0106 312.895H92.9869C92.5145 312.895 92.0614 312.707 91.7273 312.373C91.3933 312.039 91.2056 311.586 91.2056 311.114V308.97ZM90.6356 302.718L90.0834 307.783H86.7347L88.8544 302.724L90.6356 302.718ZM90.0181 308.97V311.114C90.0181 311.586 89.8305 312.039 89.4964 312.373C89.1624 312.707 88.7093 312.895 88.2369 312.895H88.2191C87.7466 312.895 87.2936 312.707 86.9595 312.373C86.6255 312.039 86.4378 311.586 86.4378 311.114V308.97H90.0181ZM85.3572 302.724H87.5659L85.4463 307.783H82.1509L85.3572 302.724ZM83.4691 312.895H83.4453C82.9729 312.895 82.5198 312.707 82.1858 312.373C81.8517 312.039 81.6641 311.586 81.6641 311.114V308.97H85.2503V311.114C85.2503 311.586 85.0626 312.039 84.7286 312.373C84.3945 312.707 83.9415 312.895 83.4691 312.895ZM102.238 331.948C102.236 332.544 101.998 333.115 101.576 333.536C101.154 333.956 100.583 334.193 99.9872 334.193H86.0103C85.4146 334.193 84.8433 333.956 84.4215 333.536C83.9998 333.115 83.7619 332.544 83.76 331.948V330.755H102.238V331.948ZM102.238 329.568H83.76V314.053C84.1703 314.014 84.5678 313.889 84.9268 313.686C85.2858 313.484 85.5983 313.208 85.8441 312.877C86.1176 313.25 86.4751 313.554 86.8877 313.763C87.3003 313.973 87.7564 314.082 88.2191 314.083H88.2369C88.6996 314.082 89.1556 313.973 89.5682 313.763C89.9808 313.554 90.3383 313.25 90.6119 312.877C90.8854 313.25 91.2429 313.554 91.6555 313.763C92.0681 313.973 92.5242 314.082 92.9869 314.083H93.0106C93.4733 314.082 93.9294 313.973 94.342 313.763C94.7546 313.554 95.1121 313.25 95.3856 312.877C95.6592 313.25 96.0167 313.554 96.4293 313.763C96.8419 313.973 97.2979 314.082 97.7606 314.083H97.7784C98.2411 314.082 98.6972 313.973 99.1098 313.763C99.5224 313.554 99.8799 313.25 100.153 312.877C100.399 313.208 100.712 313.484 101.071 313.686C101.43 313.889 101.827 314.014 102.238 314.053V329.568ZM104.333 311.114C104.333 311.586 104.146 312.039 103.812 312.373C103.478 312.707 103.025 312.895 102.552 312.895H102.528C102.056 312.895 101.603 312.707 101.269 312.373C100.935 312.039 100.747 311.586 100.747 311.114V308.97H104.333V311.114Z" fill="white"/>
<path d="M99.0866 325.619L95.91 322.442C96.4445 321.381 96.5836 320.165 96.3023 319.011C96.021 317.856 95.3378 316.84 94.3751 316.144C93.4124 315.448 92.2332 315.118 91.049 315.212C89.8648 315.307 88.753 315.82 87.913 316.66C87.073 317.5 86.5596 318.612 86.4651 319.796C86.3705 320.98 86.7009 322.159 87.397 323.122C88.0931 324.085 89.1093 324.768 90.2635 325.049C91.4177 325.331 92.6344 325.192 93.6953 324.657L96.8719 327.834C97.1675 328.118 97.5628 328.275 97.973 328.271C98.3831 328.267 98.7754 328.103 99.0654 327.812C99.3554 327.522 99.5201 327.13 99.5241 326.72C99.5281 326.31 99.371 325.915 99.0866 325.619ZM91.451 324.004C90.5696 324.005 89.7152 323.7 89.0333 323.142C88.3515 322.583 87.8844 321.806 87.7116 320.942C87.5389 320.077 87.6713 319.18 88.0861 318.402C88.501 317.625 89.1727 317.015 89.9867 316.677C90.8007 316.339 91.7067 316.294 92.5503 316.55C93.3938 316.805 94.1227 317.345 94.6127 318.077C95.1027 318.81 95.3235 319.69 95.2374 320.567C95.1513 321.444 94.7637 322.264 94.1406 322.888C93.7882 323.242 93.3691 323.523 92.9074 323.715C92.4458 323.906 91.9508 324.005 91.451 324.004ZM98.2494 326.991C98.1788 327.061 98.0833 327.101 97.9834 327.103C97.8835 327.104 97.7872 327.066 97.715 326.996L94.6988 323.98C94.7993 323.901 94.8945 323.816 94.9838 323.725C95.0716 323.636 95.1548 323.543 95.2331 323.446L98.2494 326.456C98.2847 326.491 98.3126 326.533 98.3317 326.579C98.3508 326.624 98.3607 326.674 98.3607 326.723C98.3607 326.773 98.3508 326.822 98.3317 326.868C98.3126 326.914 98.2847 326.956 98.2494 326.991Z" fill="white"/>
<rect x="70" y="205.843" width="56.4541" height="56.4541" rx="28.2271" fill="#9C71AF"/>
<g clip-path="url(#clip0_107_5327)">
<path d="M97.1532 225.274C95.2121 225.274 93.6328 226.854 93.6328 228.795C93.6328 230.736 95.2121 232.315 97.1532 232.315C99.0943 232.315 100.673 230.736 100.673 228.795C100.673 226.854 99.0942 225.274 97.1532 225.274ZM97.1532 231.018C95.9275 231.018 94.9301 230.02 94.9301 228.795C94.9301 227.569 95.9274 226.572 97.1532 226.572C98.3789 226.572 99.3762 227.569 99.3762 228.795C99.3761 230.02 98.3788 231.018 97.1532 231.018Z" fill="white"/>
<path d="M112.553 224.202C111.281 224.202 110.246 225.237 110.246 226.509C110.246 227.782 111.281 228.817 112.553 228.817C113.826 228.817 114.861 227.782 114.861 226.509C114.861 225.237 113.825 224.202 112.553 224.202ZM112.553 227.519C111.996 227.519 111.543 227.066 111.543 226.509C111.543 225.953 111.996 225.499 112.553 225.499C113.11 225.499 113.563 225.953 113.563 226.509C113.563 227.066 113.11 227.519 112.553 227.519Z" fill="white"/>
<path d="M114.387 217.994L104.955 217.994C103.514 217.994 102.342 219.166 102.342 220.607V223.585H98.4527C98.4518 223.585 98.451 223.585 98.4501 223.585H84.2875C84.2859 223.585 84.2843 223.585 84.2825 223.585H81.7721C80.2435 223.585 79 224.829 79 226.357V243.013C79 244.542 80.2435 245.785 81.7721 245.785H91.7039L90.8282 249.342C90.8274 249.345 90.8271 249.348 90.8265 249.351C90.8229 249.367 90.8201 249.383 90.8176 249.399C90.8165 249.407 90.815 249.414 90.8141 249.422C90.8123 249.437 90.8115 249.453 90.8108 249.469C90.8104 249.477 90.8097 249.485 90.8096 249.493C90.8096 249.495 90.8094 249.496 90.8094 249.498C90.8094 249.517 90.8106 249.536 90.8122 249.555C90.8125 249.557 90.8123 249.56 90.8126 249.562C90.8149 249.586 90.8188 249.61 90.8236 249.633C90.8242 249.636 90.8251 249.638 90.8258 249.641C90.8303 249.661 90.8356 249.681 90.8418 249.7C90.8436 249.705 90.8458 249.711 90.8478 249.716C90.8536 249.732 90.86 249.748 90.8671 249.764C90.87 249.771 90.8732 249.777 90.8764 249.783C90.8836 249.798 90.891 249.812 90.8991 249.826C90.9031 249.832 90.907 249.839 90.9112 249.846C90.9197 249.859 90.9288 249.872 90.9383 249.884C90.9414 249.889 90.9441 249.893 90.9475 249.898C90.949 249.899 90.9507 249.901 90.9522 249.903C90.9636 249.917 90.9757 249.931 90.9883 249.944C90.9916 249.948 90.9947 249.951 90.9981 249.955C91.0143 249.971 91.0311 249.986 91.0488 250.001C91.0535 250.004 91.0584 250.008 91.0632 250.011C91.0767 250.022 91.0904 250.032 91.1047 250.041C91.1108 250.045 91.1172 250.049 91.1235 250.053C91.1371 250.061 91.1509 250.069 91.1652 250.076C91.1718 250.079 91.1784 250.082 91.1851 250.085C91.1997 250.092 91.2145 250.098 91.2297 250.104C91.2364 250.107 91.243 250.109 91.2497 250.111C91.2654 250.117 91.2814 250.121 91.2976 250.125C91.3042 250.127 91.3106 250.129 91.3171 250.13C91.3343 250.134 91.3517 250.137 91.3693 250.139C91.3752 250.14 91.381 250.141 91.387 250.142C91.4104 250.145 91.434 250.146 91.458 250.146H99.2777H104.412C104.77 250.146 105.06 249.856 105.06 249.498C105.06 249.139 104.77 248.849 104.412 248.849H100.105L100.859 245.785L112.204 245.785C113.571 245.785 114.684 244.673 114.684 243.305V237.694C115.986 237.546 117 236.439 117 235.099V220.607C117 219.166 115.828 217.994 114.387 217.994ZM105.715 220.607C105.715 219.882 106.305 219.291 107.03 219.291H114.387C115.113 219.291 115.703 219.881 115.703 220.607V221.372H105.715V220.607ZM105.715 222.669H115.703V232.955H115.393L112.129 229.363C112.006 229.228 111.831 229.151 111.649 229.151C111.466 229.151 111.292 229.228 111.169 229.363L110.242 230.383L107.941 227.851C107.818 227.716 107.643 227.639 107.461 227.639C107.278 227.639 107.104 227.716 106.981 227.851L105.715 229.244L105.715 222.669ZM113.64 232.955H112.58L111.119 231.347L111.649 230.764L113.64 232.955ZM105.715 231.121L105.74 231.145L107.461 229.252L110.827 232.955H105.715V231.121ZM103.639 220.607C103.639 219.946 104.13 219.398 104.766 219.306C104.545 219.69 104.417 220.134 104.417 220.607V235.099C104.417 235.572 104.544 236.016 104.765 236.399C104.13 236.306 103.639 235.759 103.639 235.099V220.607H103.639ZM83.1044 238.184L88.3225 232.821L95.2595 240.451H83.1044V238.184ZM94.0311 237.171L95.5897 235.456L100.129 240.451H97.0126V240.451L94.0311 237.171ZM82.1079 244.488H81.7721C80.9589 244.488 80.2973 243.826 80.2973 243.013V226.357C80.2973 225.544 80.9589 224.882 81.7721 224.882H82.1079C81.9162 225.234 81.8071 225.637 81.8071 226.065V243.305C81.8071 243.733 81.9162 244.136 82.1079 244.488ZM98.7694 248.849H92.2857L93.0398 245.785H99.5235L98.7694 248.849ZM113.387 243.305C113.387 243.957 112.856 244.487 112.204 244.487H84.2875C83.6351 244.487 83.1044 243.957 83.1044 243.305V241.748H113.387V243.305ZM113.387 240.451H101.882L96.0698 234.055C95.9468 233.92 95.7725 233.843 95.5897 233.843C95.407 233.843 95.2327 233.92 95.1097 234.055L93.1545 236.206L88.8184 231.438C88.698 231.306 88.5284 231.229 88.3495 231.226C88.1688 231.225 87.9984 231.294 87.8737 231.422L83.1045 236.324V226.065C83.1045 225.414 83.6339 224.884 84.2851 224.882H102.342V235.099C102.342 236.539 103.514 237.711 104.955 237.711L113.387 237.712V240.451H113.387ZM115.703 235.099C115.703 235.824 115.113 236.414 114.387 236.414L107.025 236.414C106.302 236.411 105.715 235.822 105.715 235.099V234.252H115.703V235.099H115.703Z" fill="white"/>
</g>
<rect x="111.75" y="120.869" width="56.4541" height="56.4541" rx="28.2271" fill="#F87C4E"/>
<path d="M141.419 161.597C141.419 161.818 141.331 162.029 141.175 162.186C141.019 162.342 140.807 162.43 140.586 162.43H138.919C138.698 162.43 138.486 162.342 138.33 162.186C138.174 162.029 138.086 161.818 138.086 161.597C138.086 161.376 138.174 161.164 138.33 161.007C138.486 160.851 138.698 160.763 138.919 160.763H140.586C140.807 160.763 141.019 160.851 141.175 161.007C141.331 161.164 141.419 161.376 141.419 161.597Z" fill="white"/>
<path d="M147.253 132.43H132.253C131.148 132.431 130.089 132.87 129.308 133.651C128.526 134.432 128.087 135.492 128.086 136.596V161.596C128.087 162.701 128.526 163.76 129.307 164.542C130.089 165.323 131.148 165.762 132.253 165.763H147.253C148.357 165.762 149.417 165.323 150.198 164.542C150.979 163.76 151.418 162.701 151.419 161.596V136.596C151.418 135.492 150.979 134.432 150.198 133.651C149.416 132.87 148.357 132.431 147.253 132.43ZM142.572 134.096L141.738 135.763H137.767L136.934 134.096H142.572ZM149.753 161.596C149.752 162.259 149.488 162.895 149.02 163.363C148.551 163.832 147.915 164.096 147.253 164.096H132.253C131.59 164.096 130.954 163.832 130.486 163.363C130.017 162.895 129.753 162.259 129.753 161.596V136.596C129.753 135.934 130.017 135.298 130.486 134.829C130.954 134.361 131.59 134.097 132.253 134.096H135.071L136.507 136.969C136.576 137.107 136.683 137.224 136.814 137.305C136.946 137.387 137.098 137.43 137.253 137.43H142.253C142.407 137.43 142.559 137.387 142.691 137.305C142.822 137.224 142.929 137.107 142.998 136.969L144.434 134.096H147.253C147.915 134.097 148.551 134.361 149.02 134.829C149.488 135.298 149.752 135.934 149.753 136.596V161.596Z" fill="white"/>
<rect x="196.434" y="75" width="56.4541" height="56.4541" rx="28.2271" fill="#60CAC9"/>
<g clip-path="url(#clip1_107_5327)">
<path d="M238.495 107.915H237.549V107.868C237.549 103.124 235.014 98.9671 231.231 96.6646H235.943C236.268 97.2224 236.867 97.6021 237.559 97.6021C238.595 97.6021 239.434 96.7621 239.434 95.7271C239.434 94.6921 238.595 93.8521 237.559 93.8521C236.867 93.8521 236.269 94.2317 235.943 94.7896H227.246V93.8521C227.246 93.3346 226.826 92.9146 226.309 92.9146H222.559C222.041 92.9146 221.621 93.3346 221.621 93.8521V94.7896H212.924C212.6 94.2317 212.001 93.8521 211.31 93.8521C210.274 93.8521 209.435 94.6921 209.435 95.7271C209.435 96.7621 210.274 97.6021 211.31 97.6021C212.001 97.6021 212.6 97.2224 212.924 96.6646H217.635C213.852 98.9671 211.317 103.123 211.317 107.868V107.915H210.371C209.854 107.915 209.434 108.335 209.434 108.852V112.602C209.434 113.12 209.854 113.54 210.371 113.54H214.121C214.639 113.54 215.059 113.12 215.059 112.602V108.852C215.059 108.335 214.639 107.915 214.121 107.915H213.192V107.868C213.192 102.64 216.78 98.2386 221.622 96.9871V97.6021C221.622 98.1196 222.042 98.5396 222.56 98.5396H226.31C226.827 98.5396 227.247 98.1196 227.247 97.6021V96.9871C232.089 98.2386 235.677 102.64 235.677 107.868V107.915H234.748C234.23 107.915 233.81 108.335 233.81 108.852V112.602C233.81 113.12 234.23 113.54 234.748 113.54H238.498C239.015 113.54 239.435 113.12 239.435 112.602V108.852C239.435 108.335 239.015 107.915 238.498 107.915H238.495ZM213.183 111.665H211.308V109.79H213.183V111.665ZM225.37 96.6646H223.495V94.7896H225.37V96.6646ZM237.558 111.665H235.683V109.79H237.558V111.665Z" fill="white"/>
</g>
<rect x="281.113" y="75" width="56.4541" height="56.4541" rx="28.2271" fill="#1FA383"/>
<g clip-path="url(#clip2_107_5327)">
<path d="M315.488 109.962H302.738V117.157H315.488V109.962Z" fill="#BED7FF"/>
<path d="M302.738 111.207H310.325L302.738 115.052V111.207Z" fill="white"/>
<path d="M317.178 118.622H301.047C300.421 118.622 299.91 118.11 299.91 117.486C299.91 116.86 300.422 116.349 301.047 116.349H317.177C317.803 116.349 318.314 116.861 318.314 117.486C318.315 118.111 317.803 118.622 317.178 118.622Z" fill="white"/>
<path d="M323.988 111.207H294.238C293.07 111.207 292.113 110.25 292.113 109.082V89.9565C292.113 88.7878 293.07 87.8315 294.238 87.8315H323.988C325.157 87.8315 326.113 88.7878 326.113 89.9565V109.082C326.113 110.25 325.157 111.207 323.988 111.207Z" fill="white"/>
<path d="M324.659 89.2881H293.57V109.75H324.659V89.2881Z" fill="#BED7FF"/>
<path d="M300.062 99.2618L306.16 96.3027V97.4598L301.324 99.7112V99.7367L306.16 102.001V103.146L300.062 100.187V99.2618Z" fill="#0BA4E0"/>
<path d="M307.051 103.661L310.19 94.334H311.297L308.157 103.661H307.051Z" fill="#0BA4E0"/>
<path d="M318.168 100.214L312.07 103.147V102.002L316.985 99.7378V99.7123L312.07 97.4481V96.3027L318.168 99.2363V100.214Z" fill="#0BA4E0"/>
</g>
<rect x="365.797" y="120.869" width="56.4541" height="56.4541" rx="28.2271" fill="#65C8CB"/>
<g clip-path="url(#clip3_107_5327)">
<path d="M399.123 155.961C400.789 153.87 401.79 151.217 401.79 148.338C401.79 144.962 400.417 141.892 398.204 139.682C395.993 137.468 392.923 136.095 389.547 136.096C386.171 136.095 383.102 137.468 380.891 139.682C378.678 141.892 377.304 144.962 377.305 148.338C377.304 151.714 378.678 154.783 380.891 156.995C383.102 159.208 386.171 160.581 389.547 160.58C392.135 160.581 394.54 159.772 396.519 158.4L400.216 162.096L402.737 159.575L399.123 155.961ZM396.242 155.033C394.525 156.748 392.166 157.806 389.547 157.806C386.928 157.806 384.57 156.748 382.852 155.033C381.136 153.315 380.08 150.957 380.079 148.338C380.08 145.719 381.136 143.361 382.852 141.643C384.57 139.928 386.928 138.871 389.547 138.87C392.166 138.871 394.525 139.928 396.242 141.643C397.958 143.361 399.015 145.719 399.016 148.338C399.015 150.957 397.958 153.315 396.242 155.033Z" fill="white"/>
<path d="M384.938 148.035L384.648 147.995C383.909 147.891 383.644 147.634 383.644 147.256C383.644 146.83 383.949 146.525 384.504 146.525C384.962 146.525 385.371 146.661 385.813 146.951C385.854 146.975 385.894 146.967 385.926 146.926L386.312 146.332C386.344 146.283 386.336 146.251 386.295 146.219C385.862 145.89 385.211 145.673 384.528 145.673C383.403 145.673 382.679 146.332 382.679 147.32C382.679 148.228 383.274 148.735 384.327 148.879L384.616 148.919C385.371 149.024 385.612 149.281 385.612 149.674C385.612 150.133 385.235 150.462 384.584 150.462C383.973 150.462 383.451 150.165 383.097 149.883C383.065 149.851 383.017 149.851 382.985 149.892L382.487 150.47C382.455 150.51 382.471 150.558 382.503 150.591C382.929 150.992 383.708 151.314 384.512 151.314C385.87 151.314 386.569 150.591 386.569 149.618C386.569 148.678 385.99 148.18 384.938 148.035Z" fill="white"/>
<path d="M391.016 145.761H387.592C387.544 145.761 387.512 145.793 387.512 145.841V151.145C387.512 151.193 387.544 151.225 387.592 151.225H391.016C391.064 151.225 391.096 151.193 391.096 151.145V150.454C391.096 150.405 391.064 150.373 391.016 150.373H388.509L388.46 150.325V148.943L388.509 148.895H390.622C390.67 148.895 390.702 148.863 390.702 148.814V148.123C390.702 148.075 390.67 148.043 390.622 148.043H388.509L388.46 147.995V146.661L388.509 146.613H391.016C391.064 146.613 391.096 146.58 391.096 146.532V145.841C391.096 145.793 391.064 145.761 391.016 145.761Z" fill="white"/>
<path d="M394.003 145.673C393.063 145.673 392.356 146.123 392.075 146.991C391.962 147.328 391.93 147.634 391.93 148.493C391.93 149.353 391.962 149.659 392.075 149.996C392.356 150.864 393.063 151.314 394.003 151.314C394.952 151.314 395.658 150.864 395.94 149.996C396.052 149.659 396.085 149.353 396.085 148.493C396.085 147.634 396.052 147.328 395.94 146.991C395.658 146.123 394.952 145.673 394.003 145.673ZM395.024 149.747C394.871 150.189 394.55 150.462 394.003 150.462C393.465 150.462 393.143 150.189 392.991 149.747C392.927 149.546 392.894 149.265 392.894 148.493C392.894 147.714 392.927 147.441 392.991 147.24C393.143 146.798 393.465 146.525 394.003 146.525C394.55 146.525 394.871 146.798 395.024 147.24C395.088 147.44 395.12 147.714 395.12 148.493C395.12 149.265 395.088 149.546 395.024 149.747Z" fill="white"/>
</g>
<g clip-path="url(#clip4_107_5327)">
<path d="M406.057 137.912C406.256 137.329 407.062 137.311 407.298 137.859L407.318 137.912L407.587 138.699C407.649 138.879 407.749 139.045 407.88 139.183C408.01 139.322 408.169 139.431 408.346 139.503L408.418 139.53L409.205 139.798C409.788 139.998 409.806 140.804 409.258 141.04L409.205 141.06L408.418 141.329C408.238 141.391 408.073 141.49 407.934 141.621C407.795 141.752 407.686 141.911 407.614 142.088L407.587 142.16L407.319 142.947C407.119 143.53 406.313 143.548 406.077 143L406.057 142.947L405.788 142.16C405.726 141.98 405.627 141.814 405.496 141.676C405.365 141.537 405.206 141.428 405.029 141.356L404.957 141.329L404.171 141.06C403.587 140.861 403.569 140.055 404.117 139.819L404.171 139.798L404.957 139.53C405.138 139.468 405.303 139.368 405.442 139.238C405.58 139.107 405.689 138.948 405.761 138.771L405.788 138.699L406.057 137.912ZM409.354 136.763C409.417 136.763 409.478 136.78 409.531 136.813C409.584 136.846 409.626 136.893 409.654 136.949L409.67 136.988L409.786 137.33L410.129 137.447C410.191 137.468 410.246 137.508 410.286 137.56C410.326 137.612 410.35 137.676 410.354 137.741C410.358 137.807 410.343 137.873 410.31 137.93C410.277 137.987 410.227 138.033 410.168 138.062L410.129 138.078L409.787 138.195L409.67 138.537C409.649 138.6 409.609 138.654 409.557 138.694C409.505 138.734 409.441 138.758 409.376 138.762C409.31 138.766 409.244 138.751 409.187 138.718C409.13 138.685 409.084 138.635 409.055 138.576L409.039 138.537L408.922 138.195L408.58 138.078C408.518 138.057 408.463 138.018 408.423 137.965C408.382 137.913 408.359 137.85 408.355 137.784C408.35 137.718 408.366 137.653 408.399 137.595C408.432 137.538 408.481 137.492 408.541 137.463L408.58 137.447L408.922 137.331L409.039 136.988C409.061 136.923 409.104 136.865 409.16 136.825C409.217 136.784 409.285 136.763 409.354 136.763Z" fill="white"/>
</g>
<rect x="407.25" y="205.55" width="56.4541" height="56.4541" rx="28.2271" fill="#FEB31C"/>
<g clip-path="url(#clip5_107_5327)">
<path d="M437.166 223.152C436.073 220.651 433.578 218.902 430.672 218.902C427.768 218.902 425.273 220.651 424.179 223.152L423.59 223.86V225.985C423.59 229.898 426.761 233.069 430.672 233.069C434.585 233.069 437.756 229.898 437.756 225.985V223.86L437.166 223.152Z" fill="#F6BB42"/>
<path d="M437.756 223.86C437.756 227.773 434.585 230.944 430.672 230.944C426.761 230.944 423.59 227.773 423.59 223.86C423.59 219.949 426.761 216.777 430.672 216.777C434.585 216.777 437.756 219.949 437.756 223.86Z" fill="#FFCE54"/>
<path d="M434.214 229.351H432.797V231.741H434.214V229.351Z" fill="black"/>
<path d="M430.672 221.027C430.281 221.027 429.965 221.344 429.965 221.735V225.985C429.965 226.377 430.281 226.694 430.672 226.694C431.064 226.694 431.381 226.377 431.381 225.985V221.735C431.381 221.344 431.064 221.027 430.672 221.027Z" fill="#E8AA3D"/>
<path d="M446.177 236.33C446.177 235.448 445.549 234.733 444.661 234.733C443.773 234.733 442.761 235.448 442.761 236.33V235.546C442.761 234.664 441.858 233.948 440.971 233.948C440.082 233.948 439.18 234.664 439.18 235.546V234.355C439.18 233.483 438.288 232.775 437.414 232.759C437.376 232.756 437.337 232.754 437.296 232.754C436.409 232.754 435.516 233.469 435.516 234.351V228.292C435.516 227.41 434.677 226.694 433.789 226.694C432.901 226.694 432.089 227.41 432.089 228.292V240.49L430.914 238.955C430.292 238.145 429.127 237.987 428.311 238.605C427.494 239.222 427.336 240.379 427.959 241.19L433.465 248.377L433.792 249.381C433.882 249.775 434.237 250.07 434.662 250.07H443.345C443.345 250.07 443.346 250.069 443.348 250.068C443.356 250.068 443.362 250.07 443.369 250.07C443.776 250.07 444.117 249.8 444.226 249.431C444.228 249.425 444.231 249.42 444.232 249.414C446.545 239.97 446.177 236.33 446.177 236.33Z" fill="#F5F7FA"/>
<path d="M446.887 236.297C446.869 235.02 445.899 234.025 444.662 234.025C444.154 234.025 443.62 234.193 443.169 234.483C442.739 233.757 441.894 233.24 440.973 233.24C440.527 233.24 440.101 233.36 439.731 233.566C439.596 233.246 439.38 232.951 439.09 232.7C438.63 232.301 438.03 232.065 437.443 232.05C437.402 232.048 437.353 232.045 437.297 232.045C436.92 232.045 436.553 232.133 436.224 232.287V228.291C436.224 227.042 435.11 225.985 433.79 225.985C432.485 225.985 431.382 227.042 431.382 228.291V238.407C430.894 237.84 430.193 237.519 429.435 237.519C428.871 237.519 428.335 237.699 427.885 238.04C427.337 238.453 426.986 239.053 426.894 239.731C426.803 240.408 426.982 241.078 427.398 241.621L432.831 248.71L433.111 249.576C433.291 250.284 433.925 250.777 434.663 250.777H443.451L443.459 250.775C444.119 250.738 444.7 250.291 444.899 249.659C444.906 249.638 444.914 249.611 444.922 249.58C447.141 240.517 446.922 236.73 446.887 236.297ZM443.553 249.213C443.552 249.219 443.55 249.225 443.548 249.231C443.53 249.29 443.473 249.353 443.387 249.36C443.376 249.36 443.363 249.359 443.35 249.359H443.117L443.115 249.36H434.663C434.565 249.36 434.499 249.29 434.483 249.221L434.476 249.192L434.103 248.042L428.521 240.759C428.337 240.518 428.258 240.221 428.298 239.922C428.339 239.621 428.495 239.353 428.739 239.169C428.942 239.017 429.182 238.936 429.436 238.936C429.8 238.936 430.134 239.1 430.353 239.384L432.799 242.578V228.291C432.799 227.826 433.272 227.402 433.79 227.402C434.313 227.402 434.808 227.834 434.808 228.291V234.351V237.307H434.809C434.809 237.311 434.808 237.315 434.808 237.32C434.808 237.71 435.126 238.027 435.517 238.027C435.908 238.027 436.224 237.71 436.224 237.32C436.224 237.316 436.224 237.311 436.224 237.307V234.351C436.224 233.902 436.757 233.462 437.297 233.462C437.32 233.462 437.343 233.463 437.364 233.465L437.402 233.466C437.943 233.476 438.474 233.917 438.474 234.355V235.545V237.307C438.474 237.311 438.474 237.315 438.474 237.32C438.474 237.71 438.79 238.027 439.182 238.027C439.573 238.027 439.89 237.71 439.89 237.32C439.89 237.315 439.889 237.311 439.889 237.307H439.89V235.545C439.89 235.097 440.426 234.657 440.973 234.657C441.508 234.657 442.054 235.105 442.054 235.545V236.33V237.307H442.055C442.055 237.311 442.054 237.315 442.054 237.32C442.054 237.71 442.371 238.027 442.762 238.027C443.154 238.027 443.471 237.71 443.471 237.32C443.471 237.315 443.47 237.311 443.47 237.307H443.471V236.33C443.471 235.906 444.095 235.441 444.662 235.441C445.192 235.441 445.469 235.888 445.469 236.33V236.363L445.474 236.399C445.477 236.436 445.786 240.083 443.553 249.213Z" fill="#434A54"/>
</g>
<path d="M432.667 311.176H427.667C427.225 311.176 426.801 311.352 426.488 311.664C426.176 311.977 426 312.401 426 312.843V316.176C426 316.618 426.176 317.042 426.488 317.355C426.801 317.667 427.225 317.843 427.667 317.843H431C431.442 317.843 431.866 318.019 432.179 318.331C432.491 318.644 432.667 319.068 432.667 319.51V322.843C432.667 323.285 432.491 323.709 432.179 324.021C431.866 324.334 431.442 324.51 431 324.51H426M444.333 324.51H437.667V311.176H444.333M439.333 317.843H442.667M449.333 312.843C449.333 312.401 449.509 311.977 449.821 311.664C450.134 311.352 450.558 311.176 451 311.176H454.333C454.775 311.176 455.199 311.352 455.512 311.664C455.824 311.977 456 312.401 456 312.843V322.843C456 323.285 455.824 323.709 455.512 324.021C455.199 324.334 454.775 324.51 454.333 324.51H451C450.558 324.51 450.134 324.334 449.821 324.021C449.509 323.709 449.333 323.285 449.333 322.843V312.843Z" stroke="white" stroke-width="2" stroke-linecap="round" stroke-linejoin="round"/>
<path d="M325.415 364.431H207.583C203.443 364.431 200.086 361.091 200.086 356.972V289.013C200.086 284.893 203.443 281.554 207.583 281.554H325.415C329.555 281.554 332.912 284.893 332.912 289.013V356.972C332.912 361.091 329.555 364.431 325.415 364.431Z" fill="#262F38"/>
<path d="M332.912 364.432H200.086L185 371.987H347.999L332.912 364.432Z" fill="#262F38"/>
<path d="M192.941 370.11L200.534 366.308H332.465L340.058 370.11H192.941Z" fill="#999999"/>
<path d="M341.543 379H191.457C187.891 379 185 376.124 185 372.576V371.986H347.999V372.576C347.999 376.124 345.109 379 341.543 379Z" fill="#1E262D"/>
<path d="M326.331 288.558H206.668V357.426H326.331V288.558Z" fill="#0F4FDF"/>
<path d="M214.617 361.914V246.281C214.617 242.819 217.439 240.011 220.919 240.011H311.473C314.953 240.011 317.775 242.819 317.775 246.281V361.914C317.775 365.377 314.953 368.184 311.473 368.184H220.919C217.439 368.184 214.617 365.377 214.617 361.914Z" fill="#BABABA"/>
<path d="M314.005 243.763H218.391V364.431H314.005V243.763Z" fill="white"/>
<path d="M290.33 268.283H242.672V272.077H290.33V268.283Z" fill="#999999"/>
<path d="M290.33 291.379H242.672V295.172H290.33V291.379Z" fill="#999999"/>
<path d="M290.33 314.474H242.672V318.267H290.33V314.474Z" fill="#999999"/>
<path d="M290.33 337.57H242.672V341.363H290.33V337.57Z" fill="#999999"/>
<path d="M231.588 276.867C235.3 276.867 238.309 273.873 238.309 270.18C238.309 266.487 235.3 263.493 231.588 263.493C227.876 263.493 224.867 266.487 224.867 270.18C224.867 273.873 227.876 276.867 231.588 276.867Z" fill="#39AB68"/>
<path d="M231.092 273.169C231.089 273.169 231.084 273.169 231.08 273.169C230.729 273.165 230.395 273.014 230.162 272.754L227.897 270.22C227.667 269.962 227.69 269.568 227.949 269.338C228.207 269.108 228.605 269.131 228.835 269.389L231.101 271.924L235.118 267.577C235.353 267.324 235.75 267.309 236.005 267.542C236.26 267.777 236.276 268.172 236.04 268.426L232.006 272.772C231.771 273.025 231.438 273.169 231.092 273.169Z" fill="white"/>
<path d="M236.339 297.957C238.964 295.345 238.964 291.112 236.339 288.5C233.714 285.889 229.459 285.889 226.834 288.5C224.21 291.112 224.21 295.345 226.834 297.957C229.459 300.568 233.714 300.568 236.339 297.957Z" fill="#39AB68"/>
<path d="M231.093 296.218C231.089 296.218 231.085 296.218 231.08 296.218C230.729 296.215 230.395 296.063 230.162 295.803L227.897 293.269C227.667 293.011 227.69 292.616 227.949 292.387C228.207 292.157 228.605 292.181 228.835 292.438L231.101 294.972L235.118 290.627C235.353 290.373 235.75 290.357 236.005 290.592C236.26 290.825 236.276 291.221 236.04 291.475L232.006 295.82C231.772 296.073 231.439 296.218 231.093 296.218Z" fill="white"/>
<path d="M231.588 322.965C235.3 322.965 238.309 319.971 238.309 316.278C238.309 312.585 235.3 309.591 231.588 309.591C227.876 309.591 224.867 312.585 224.867 316.278C224.867 319.971 227.876 322.965 231.588 322.965Z" fill="#39AB68"/>
<path d="M231.093 319.267C231.089 319.267 231.085 319.267 231.08 319.267C230.73 319.263 230.395 319.112 230.163 318.852L227.897 316.317C227.667 316.059 227.69 315.664 227.949 315.435C228.207 315.205 228.605 315.229 228.835 315.486L231.101 318.021L235.118 313.674C235.353 313.421 235.75 313.405 236.005 313.639C236.26 313.873 236.276 314.269 236.04 314.522L232.006 318.869C231.772 319.122 231.438 319.267 231.093 319.267Z" fill="white"/>
<path d="M238.126 340.879C238.979 337.285 236.742 333.683 233.13 332.835C229.517 331.986 225.897 334.212 225.044 337.806C224.191 341.4 226.428 345.001 230.041 345.85C233.653 346.699 237.273 344.473 238.126 340.879Z" fill="#39AB68"/>
<path d="M231.092 342.316C231.088 342.316 231.084 342.316 231.08 342.316C230.729 342.312 230.395 342.161 230.162 341.901L227.897 339.367C227.667 339.109 227.69 338.714 227.949 338.485C228.207 338.255 228.605 338.278 228.835 338.536L231.101 341.07L235.118 336.724C235.353 336.471 235.75 336.456 236.005 336.689C236.26 336.923 236.276 337.319 236.04 337.572L232.006 341.918C231.771 342.172 231.438 342.316 231.092 342.316Z" fill="white"/>
<path d="M326.049 330.91L316.841 323.211L306.049 330.91V271.91H326.049V330.91Z" fill="#F74D57"/>
<path d="M320.377 244.582C321.786 235.685 310.311 235.685 311.721 244.582C310.311 235.685 299.398 239.231 303.488 247.257C299.398 239.231 290.115 245.976 296.485 252.345C290.115 245.976 283.37 255.259 291.396 259.349C283.37 255.259 279.825 266.172 288.722 267.582C279.825 266.172 279.825 277.647 288.722 276.238C279.825 277.647 283.37 288.56 291.396 284.471C283.37 288.56 290.115 297.844 296.485 291.474C290.115 297.844 299.398 304.588 303.488 296.562C299.398 304.588 310.311 308.135 311.721 299.237C310.311 308.134 321.786 308.134 320.377 299.237C321.786 308.134 332.699 304.588 328.61 296.562C332.699 304.588 341.983 297.844 335.613 291.474C341.983 297.844 348.727 288.56 340.701 284.471C348.727 288.56 352.274 277.647 343.376 276.238C352.273 277.647 352.273 266.172 343.376 267.582C352.273 266.172 348.727 255.259 340.701 259.349C348.727 255.259 341.983 245.976 335.613 252.345C341.983 245.976 332.699 239.231 328.61 247.257C332.699 239.231 321.786 235.685 320.377 244.582Z" fill="#CC3644"/>
<path d="M316.049 294.91C328.199 294.91 338.049 285.284 338.049 273.41C338.049 261.536 328.199 251.91 316.049 251.91C303.899 251.91 294.049 261.536 294.049 273.41C294.049 285.284 303.899 294.91 316.049 294.91Z" fill="#F74D57"/>
<path d="M310.331 266.132C309.836 266.129 309.358 266.045 308.897 265.882C308.44 265.719 308.029 265.455 307.665 265.088C307.302 264.721 307.014 264.235 306.8 263.631C306.59 263.026 306.485 262.283 306.485 261.402C306.489 260.593 306.581 259.871 306.763 259.235C306.948 258.595 307.211 258.053 307.553 257.608C307.897 257.163 308.31 256.825 308.789 256.593C309.269 256.358 309.806 256.24 310.402 256.24C311.044 256.24 311.611 256.365 312.104 256.616C312.596 256.864 312.99 257.201 313.288 257.627C313.589 258.053 313.771 258.531 313.834 259.061H311.826C311.748 258.726 311.583 258.462 311.332 258.271C311.082 258.08 310.771 257.984 310.402 257.984C309.775 257.984 309.298 258.257 308.972 258.802C308.65 259.348 308.485 260.089 308.479 261.026H308.545C308.689 260.741 308.883 260.498 309.128 260.297C309.375 260.094 309.656 259.938 309.969 259.832C310.286 259.722 310.619 259.667 310.97 259.667C311.541 259.667 312.049 259.802 312.494 260.072C312.939 260.338 313.29 260.705 313.547 261.172C313.804 261.639 313.932 262.173 313.932 262.775C313.932 263.427 313.78 264.007 313.476 264.514C313.175 265.022 312.754 265.42 312.212 265.709C311.673 265.994 311.046 266.135 310.331 266.132ZM310.322 264.533C310.635 264.533 310.916 264.458 311.163 264.308C311.411 264.157 311.605 263.953 311.746 263.696C311.887 263.439 311.958 263.151 311.958 262.831C311.958 262.512 311.887 262.225 311.746 261.971C311.608 261.717 311.417 261.515 311.173 261.365C310.928 261.214 310.649 261.139 310.336 261.139C310.101 261.139 309.883 261.183 309.682 261.27C309.485 261.358 309.311 261.48 309.16 261.637C309.013 261.794 308.897 261.976 308.813 262.183C308.728 262.386 308.686 262.604 308.686 262.836C308.686 263.146 308.756 263.43 308.897 263.687C309.041 263.944 309.236 264.149 309.48 264.303C309.728 264.456 310.008 264.533 310.322 264.533ZM318.253 264.533V257.876H319.936V264.533H318.253ZM315.766 262.046V260.363H322.423V262.046H315.766Z" fill="white"/>
<path d="M299.273 273.372H301.553L303.748 277.518H303.842L306.038 273.372H308.318L304.806 279.596V283H302.785V279.596L299.273 273.372ZM311.171 283.141C310.428 283.141 309.788 282.991 309.252 282.69C308.72 282.386 308.309 281.956 308.021 281.402C307.732 280.844 307.588 280.184 307.588 279.422C307.588 278.679 307.732 278.028 308.021 277.467C308.309 276.906 308.715 276.468 309.238 276.155C309.765 275.841 310.382 275.685 311.091 275.685C311.567 275.685 312.01 275.762 312.421 275.915C312.835 276.066 313.195 276.293 313.502 276.597C313.813 276.901 314.054 277.283 314.226 277.744C314.399 278.202 314.485 278.737 314.485 279.352V279.902H308.387V278.661H312.6C312.6 278.372 312.537 278.117 312.412 277.894C312.286 277.672 312.112 277.498 311.89 277.373C311.67 277.244 311.415 277.18 311.124 277.18C310.819 277.18 310.55 277.25 310.315 277.391C310.083 277.529 309.901 277.716 309.77 277.951C309.638 278.183 309.571 278.441 309.567 278.727V279.907C309.567 280.264 309.633 280.573 309.765 280.833C309.9 281.093 310.089 281.293 310.334 281.434C310.578 281.576 310.868 281.646 311.203 281.646C311.426 281.646 311.63 281.615 311.815 281.552C312 281.489 312.158 281.395 312.289 281.27C312.421 281.145 312.521 280.991 312.59 280.809L314.443 280.931C314.349 281.376 314.156 281.765 313.864 282.097C313.576 282.426 313.203 282.683 312.745 282.868C312.291 283.05 311.766 283.141 311.171 283.141ZM317.851 283.136C317.39 283.136 316.98 283.056 316.619 282.897C316.259 282.734 315.974 282.494 315.764 282.177C315.557 281.858 315.453 281.46 315.453 280.983C315.453 280.582 315.527 280.245 315.674 279.972C315.822 279.7 316.022 279.48 316.276 279.314C316.53 279.148 316.818 279.023 317.141 278.938C317.467 278.853 317.809 278.794 318.166 278.759C318.586 278.716 318.925 278.675 319.182 278.637C319.439 278.596 319.625 278.537 319.741 278.459C319.857 278.38 319.915 278.264 319.915 278.111V278.082C319.915 277.785 319.821 277.554 319.633 277.391C319.448 277.228 319.185 277.147 318.843 277.147C318.483 277.147 318.196 277.227 317.983 277.387C317.77 277.543 317.629 277.741 317.56 277.979L315.707 277.829C315.801 277.39 315.986 277.011 316.262 276.691C316.538 276.368 316.894 276.12 317.329 275.948C317.768 275.773 318.276 275.685 318.852 275.685C319.254 275.685 319.638 275.732 320.004 275.826C320.374 275.92 320.702 276.066 320.987 276.263C321.275 276.46 321.502 276.714 321.669 277.025C321.835 277.332 321.918 277.7 321.918 278.129V283H320.018V281.999H319.962C319.846 282.224 319.691 282.423 319.497 282.596C319.302 282.765 319.069 282.898 318.796 282.995C318.523 283.089 318.208 283.136 317.851 283.136ZM318.425 281.754C318.719 281.754 318.979 281.696 319.205 281.58C319.431 281.461 319.608 281.301 319.736 281.101C319.865 280.9 319.929 280.673 319.929 280.419V279.653C319.866 279.693 319.78 279.731 319.671 279.765C319.564 279.797 319.443 279.827 319.309 279.855C319.174 279.88 319.039 279.903 318.904 279.925C318.769 279.944 318.647 279.961 318.537 279.977C318.302 280.012 318.097 280.066 317.922 280.142C317.746 280.217 317.61 280.319 317.513 280.447C317.415 280.573 317.367 280.729 317.367 280.917C317.367 281.19 317.466 281.398 317.663 281.543C317.864 281.684 318.118 281.754 318.425 281.754ZM323.472 283V275.779H325.413V277.039H325.488C325.62 276.591 325.841 276.252 326.151 276.023C326.462 275.791 326.819 275.675 327.223 275.675C327.323 275.675 327.432 275.682 327.548 275.694C327.664 275.707 327.765 275.724 327.853 275.746V277.523C327.759 277.495 327.629 277.47 327.463 277.448C327.297 277.426 327.145 277.415 327.007 277.415C326.712 277.415 326.449 277.479 326.217 277.608C325.988 277.733 325.807 277.908 325.672 278.134C325.54 278.36 325.474 278.62 325.474 278.915V283H323.472ZM334.897 277.838L333.063 277.951C333.032 277.794 332.965 277.653 332.861 277.528C332.758 277.399 332.621 277.297 332.452 277.222C332.286 277.144 332.087 277.105 331.855 277.105C331.545 277.105 331.283 277.17 331.07 277.302C330.857 277.431 330.75 277.603 330.75 277.819C330.75 277.992 330.819 278.137 330.957 278.256C331.095 278.375 331.332 278.471 331.667 278.543L332.974 278.806C333.676 278.951 334.2 279.183 334.544 279.502C334.889 279.822 335.061 280.242 335.061 280.762C335.061 281.235 334.922 281.651 334.643 282.008C334.367 282.365 333.988 282.644 333.505 282.845C333.026 283.042 332.473 283.141 331.846 283.141C330.89 283.141 330.128 282.942 329.561 282.544C328.997 282.143 328.666 281.597 328.569 280.908L330.539 280.804C330.598 281.096 330.742 281.318 330.971 281.472C331.2 281.623 331.493 281.698 331.85 281.698C332.201 281.698 332.484 281.63 332.697 281.496C332.913 281.358 333.023 281.181 333.026 280.964C333.023 280.783 332.946 280.634 332.795 280.518C332.645 280.399 332.413 280.308 332.1 280.245L330.849 279.996C330.144 279.855 329.619 279.61 329.274 279.262C328.932 278.915 328.762 278.471 328.762 277.932C328.762 277.468 328.887 277.069 329.138 276.733C329.392 276.398 329.747 276.139 330.205 275.957C330.666 275.776 331.205 275.685 331.822 275.685C332.734 275.685 333.452 275.878 333.975 276.263C334.502 276.649 334.809 277.174 334.897 277.838Z" fill="white"/>
<path d="M273.755 237.592C273.755 232.148 269.315 227.734 263.843 227.734C258.37 227.734 253.935 232.148 253.935 237.592H242.594V247.713H285.095V237.592H273.755ZM263.843 242.654C261.037 242.654 258.759 240.388 258.759 237.592C258.759 234.8 261.036 232.533 263.843 232.533C266.653 232.533 268.93 234.799 268.93 237.592C268.931 240.388 266.653 242.654 263.843 242.654Z" fill="#0F4FDF"/>
<path d="M291.502 222.812L285.76 225.815L286.856 219.453L282.211 214.948L288.63 214.02L291.502 208.232L294.372 214.02L300.792 214.948L296.147 219.453L297.243 225.815L291.502 222.812Z" fill="#F7B313"/>
<path d="M242.08 222.812L236.337 225.815L237.434 219.453L232.789 214.948L239.209 214.02L242.08 208.232L244.95 214.02L251.37 214.948L246.724 219.453L247.821 225.815L242.08 222.812Z" fill="#F7B313"/>
<path d="M265.449 213.064L261.091 215.343L261.923 210.516L258.398 207.097L263.27 206.393L265.449 202L267.628 206.393L272.5 207.097L268.974 210.516L269.806 215.343L265.449 213.064Z" fill="#F7B313"/>
<defs>
<linearGradient id="paint0_linear_107_5327" x1="267" y1="-80" x2="266.5" y2="511" gradientUnits="userSpaceOnUse">
<stop stop-color="#EAF2FF"/>
<stop offset="1" stop-color="white"/>
</linearGradient>
<clipPath id="clip0_107_5327">
<rect width="38" height="38" fill="white" transform="translate(79 215.07)"/>
</clipPath>
<clipPath id="clip1_107_5327">
<rect width="30" height="30" fill="white" transform="translate(209.434 88.2271)"/>
</clipPath>
<clipPath id="clip2_107_5327">
<rect width="34" height="34" fill="white" transform="translate(292.113 86.2271)"/>
</clipPath>
<clipPath id="clip3_107_5327">
<rect width="26" height="26" fill="white" transform="translate(377.024 136.096)"/>
</clipPath>
<clipPath id="clip4_107_5327">
<rect width="8" height="8" fill="white" transform="translate(403.024 136.096)"/>
</clipPath>
<clipPath id="clip5_107_5327">
<rect width="34" height="34" fill="white" transform="translate(418.25 216.777)"/>
</clipPath>
</defs>
</svg>
