<svg width="589" height="615" viewBox="0 0 589 615" fill="none" xmlns="http://www.w3.org/2000/svg">
<g style="mix-blend-mode:luminosity">
<path d="M285.775 500.618C289.665 496.142 289.19 489.359 284.713 485.469C280.236 481.579 273.453 482.054 269.563 486.531C265.673 491.008 266.149 497.79 270.625 501.68C275.102 505.571 281.885 505.095 285.775 500.618Z" fill="#808080"/>
<path d="M284.971 496.617C283.308 500.636 278.701 502.545 274.683 500.883C270.663 499.22 268.754 494.613 270.417 490.593C272.079 486.573 276.687 484.664 280.706 486.327C284.724 487.991 286.633 492.597 284.971 496.617Z" fill="#808080"/>
<path d="M279.279 496.696C279.059 497.226 278.67 497.611 277.963 497.822C277.842 497.872 277.057 497.994 276.995 497.969C276.949 498.079 276.667 498.727 276.622 498.837L276.602 498.887C276.521 499.083 276.342 499.168 275.998 499.025C275.838 498.958 275.661 498.9 275.476 498.823L275.131 498.68C274.233 498.309 275.604 497.607 274.882 497.021C273.852 496.133 274.04 495.362 274.493 494.267C274.697 493.776 274.753 493.641 275.318 493.874C275.503 493.951 275.639 494.036 275.783 494.109C276.161 494.309 276.672 494.362 276.464 494.865C276.407 495 276.374 495.117 276.319 495.252C276.212 495.51 276.181 495.828 276.612 496.006C276.87 496.113 277.254 496.056 277.362 495.798C277.795 494.752 276.572 493.426 276.184 492.343C275.981 491.755 275.958 491.011 276.202 490.419C276.371 490.013 276.669 489.676 277.104 489.495C277.503 489.328 278.048 489.267 278.475 489.313C278.576 489.312 278.548 489.242 278.583 489.157C278.608 489.095 278.873 488.282 278.898 488.221C278.999 487.974 279.398 488.197 279.692 488.319C279.631 488.294 280.667 488.679 280.684 488.917L280.265 489.925C280.22 490.035 280.249 490.105 280.354 490.163C280.943 490.479 281.172 491.251 281.198 491.709C281.225 492.167 281.08 492.482 280.897 492.925C280.795 493.171 280.605 493.178 280.347 493.071L280.15 492.99C279.904 492.888 279.697 492.831 279.451 492.73C278.393 492.292 279.592 491.622 278.806 491.296C278.548 491.189 278.121 491.314 277.998 491.61C277.703 492.323 278.626 493.469 279.111 494.246C279.561 494.969 279.559 496.02 279.279 496.696Z" fill="#808080"/>
<path d="M319.915 501.171C321.669 506.836 318.499 512.853 312.834 514.607C307.168 516.361 301.152 513.191 299.397 507.526C297.643 501.86 300.813 495.844 306.479 494.089C312.144 492.334 318.159 495.505 319.915 501.171Z" fill="#808080"/>
<path d="M317.175 502.014C318.461 506.168 316.137 510.581 311.981 511.867C307.827 513.153 303.414 510.829 302.128 506.673C300.842 502.519 303.166 498.106 307.322 496.82C311.478 495.532 315.889 497.858 317.175 502.014Z" fill="#808080"/>
<path d="M312.845 505.713C313.015 506.26 312.962 506.806 312.552 507.421C312.49 507.537 311.964 508.132 311.9 508.152C311.935 508.267 312.132 508.945 312.167 509.058L312.184 509.11C312.247 509.313 312.162 509.493 311.807 509.603C311.642 509.655 311.467 509.723 311.277 509.781L310.921 509.891C309.993 510.179 310.599 508.765 309.668 508.773C308.309 508.748 307.963 508.034 307.611 506.903C307.453 506.395 307.409 506.255 307.996 506.073C308.186 506.015 308.347 505.991 308.504 505.958C308.922 505.87 309.35 505.585 309.512 506.106C309.555 506.246 309.603 506.358 309.647 506.496C309.73 506.763 309.91 507.028 310.355 506.891C310.621 506.808 310.881 506.519 310.798 506.251C310.463 505.17 308.674 504.93 307.684 504.344C307.153 504.021 306.658 503.463 306.47 502.853C306.34 502.433 306.353 501.983 306.573 501.567C306.775 501.184 307.155 500.787 307.513 500.551C307.589 500.486 307.523 500.449 307.496 500.361C307.476 500.298 307.161 499.503 307.141 499.44C307.063 499.185 307.511 499.102 307.816 499.008C307.753 499.028 308.795 498.664 308.96 498.835L309.283 499.878C309.318 499.993 309.385 500.028 309.505 500.005C310.16 499.871 310.829 500.319 311.141 500.654C311.454 500.989 311.544 501.324 311.686 501.782C311.764 502.037 311.622 502.163 311.356 502.247L311.153 502.31C310.898 502.388 310.703 502.477 310.448 502.557C309.353 502.895 309.85 501.614 309.035 501.865C308.769 501.948 308.521 502.317 308.614 502.623C308.842 503.361 310.285 503.653 311.154 503.941C311.96 504.202 312.628 505.014 312.845 505.713Z" fill="#808080"/>
<path d="M336.831 492.788C335.82 498.633 330.261 502.551 324.418 501.538C318.572 500.527 314.654 494.968 315.667 489.125C316.678 483.279 322.237 479.361 328.081 480.374C333.924 481.387 337.842 486.943 336.831 492.788Z" fill="#808080"/>
<path d="M334.008 492.295C333.267 496.581 329.191 499.454 324.905 498.712C320.619 497.97 317.745 493.894 318.488 489.608C319.229 485.322 323.306 482.448 327.592 483.191C331.876 483.932 334.75 488.009 334.008 492.295Z" fill="#808080"/>
<path d="M328.476 493.622C328.378 494.187 328.083 494.648 327.438 495.01C327.33 495.086 326.592 495.376 326.526 495.365C326.506 495.483 326.372 496.176 326.351 496.294L326.342 496.347C326.306 496.557 326.149 496.679 325.783 496.616C325.613 496.586 325.426 496.567 325.23 496.534L324.861 496.471C323.904 496.304 325.088 495.321 324.253 494.907C323.054 494.267 323.069 493.472 323.272 492.305C323.364 491.78 323.387 491.635 323.992 491.74C324.189 491.773 324.342 491.826 324.497 491.868C324.91 491.98 325.42 491.92 325.326 492.458C325.301 492.603 325.293 492.723 325.27 492.866C325.221 493.141 325.261 493.459 325.721 493.539C325.996 493.587 326.359 493.446 326.406 493.171C326.599 492.056 325.115 491.029 324.5 490.057C324.174 489.528 323.987 488.806 324.095 488.177C324.17 487.744 324.387 487.349 324.772 487.077C325.125 486.827 325.643 486.647 326.071 486.599C326.169 486.576 326.126 486.514 326.143 486.423C326.154 486.358 326.234 485.506 326.244 485.44C326.289 485.178 326.727 485.307 327.042 485.362C326.977 485.35 328.072 485.5 328.14 485.728L327.953 486.804C327.933 486.922 327.977 486.984 328.091 487.017C328.736 487.197 329.128 487.899 329.254 488.34C329.381 488.781 329.309 489.12 329.228 489.591C329.183 489.853 328.998 489.902 328.723 489.854L328.513 489.818C328.25 489.773 328.037 489.763 327.773 489.716C326.646 489.521 327.668 488.603 326.829 488.458C326.554 488.41 326.164 488.626 326.111 488.941C325.979 489.703 327.13 490.617 327.775 491.27C328.373 491.875 328.601 492.901 328.476 493.622Z" fill="#808080"/>
<path d="M307.663 461.643C306.652 467.489 301.093 471.407 295.25 470.394C289.404 469.383 285.486 463.824 286.499 457.98C287.51 452.135 293.069 448.217 298.913 449.23C304.758 450.241 308.676 455.798 307.663 461.643Z" fill="#808080"/>
<path d="M304.844 461.154C304.103 465.44 300.027 468.314 295.741 467.571C291.455 466.83 288.581 462.753 289.324 458.467C290.065 454.181 294.142 451.308 298.428 452.051C302.714 452.792 305.587 456.868 304.844 461.154Z" fill="#808080"/>
<path d="M299.313 462.48C299.215 463.045 298.92 463.506 298.275 463.868C298.167 463.944 297.429 464.234 297.363 464.222C297.343 464.341 297.209 465.034 297.188 465.152L297.178 465.205C297.141 465.415 296.986 465.537 296.618 465.473C296.448 465.443 296.261 465.425 296.065 465.392L295.697 465.328C294.739 465.164 295.923 464.179 295.089 463.764C293.889 463.125 293.906 462.33 294.108 461.162C294.199 460.638 294.224 460.493 294.827 460.598C295.024 460.631 295.177 460.686 295.332 460.726C295.745 460.837 296.255 460.777 296.161 461.316C296.137 461.46 296.128 461.58 296.105 461.724C296.057 461.999 296.097 462.317 296.556 462.397C296.831 462.445 297.194 462.303 297.241 462.028C297.434 460.914 295.95 459.886 295.335 458.915C295.009 458.385 294.822 457.664 294.93 457.034C295.005 456.601 295.222 456.207 295.607 455.935C295.962 455.685 296.478 455.505 296.906 455.457C297.004 455.434 296.961 455.372 296.978 455.28C296.989 455.215 297.069 454.364 297.079 454.299C297.124 454.038 297.562 454.166 297.877 454.221C297.812 454.209 298.907 454.359 298.975 454.587L298.788 455.663C298.768 455.782 298.812 455.843 298.927 455.877C299.571 456.055 299.963 456.758 300.089 457.199C300.216 457.641 300.143 457.979 300.061 458.45C300.016 458.712 299.831 458.762 299.556 458.714L299.346 458.677C299.083 458.632 298.87 458.622 298.607 458.575C297.479 458.38 298.502 457.463 297.662 457.318C297.388 457.269 296.998 457.486 296.944 457.801C296.813 458.562 297.966 459.476 298.609 460.129C299.21 460.733 299.438 461.759 299.313 462.48Z" fill="#808080"/>
<path d="M267.599 455.354C270.354 460.606 268.33 467.098 263.078 469.853C257.826 472.608 251.334 470.584 248.579 465.332C245.824 460.08 247.848 453.588 253.1 450.833C258.352 448.078 264.844 450.102 267.599 455.354Z" fill="#808080"/>
<path d="M265.066 456.688C267.086 460.539 265.602 465.3 261.751 467.321C257.899 469.341 253.139 467.857 251.118 464.006C249.097 460.154 250.582 455.393 254.433 453.373C258.284 451.351 263.045 452.835 265.066 456.688Z" fill="#808080"/>
<path d="M261.481 461.105C261.748 461.611 261.795 462.159 261.503 462.837C261.465 462.964 261.055 463.644 260.995 463.675C261.05 463.782 261.367 464.413 261.421 464.518L261.446 464.565C261.546 464.753 261.496 464.945 261.165 465.118C261.012 465.198 260.853 465.296 260.677 465.389L260.347 465.563C259.486 466.014 259.826 464.513 258.913 464.691C257.572 464.915 257.1 464.275 256.551 463.225C256.304 462.754 256.236 462.624 256.777 462.341C256.954 462.248 257.109 462.198 257.255 462.134C257.652 461.971 258.02 461.613 258.273 462.096C258.341 462.226 258.408 462.326 258.476 462.456C258.606 462.704 258.831 462.931 259.244 462.714C259.492 462.584 259.694 462.253 259.564 462.006C259.038 461.003 257.235 461.093 256.156 460.697C255.575 460.475 254.988 460.017 254.69 459.451C254.485 459.061 254.418 458.616 254.558 458.166C254.687 457.753 254.988 457.295 255.298 456.997C255.361 456.919 255.29 456.895 255.246 456.814C255.215 456.755 254.76 456.031 254.73 455.973C254.607 455.738 255.031 455.573 255.315 455.424C255.256 455.454 256.216 454.906 256.409 455.046L256.915 456.012C256.97 456.119 257.044 456.141 257.155 456.097C257.775 455.848 258.515 456.166 258.883 456.439C259.251 456.712 259.401 457.024 259.622 457.448C259.746 457.685 259.631 457.835 259.383 457.965L259.194 458.063C258.958 458.186 258.783 458.31 258.546 458.433C257.532 458.964 257.787 457.615 257.032 458.01C256.784 458.14 256.607 458.548 256.756 458.831C257.114 459.514 258.585 459.539 259.492 459.664C260.337 459.781 261.142 460.457 261.481 461.105Z" fill="#808080"/>
<path d="M346.805 460.091C346.943 466.021 342.249 470.94 336.319 471.078C330.389 471.217 325.469 466.522 325.331 460.592C325.193 454.662 329.887 449.743 335.816 449.605C341.748 449.466 346.667 454.161 346.805 460.091Z" fill="#808080"/>
<path d="M343.944 460.16C344.046 464.51 340.604 468.116 336.255 468.218C331.906 468.319 328.299 464.876 328.198 460.528C328.096 456.179 331.537 452.573 335.887 452.471C340.235 452.369 343.843 455.813 343.944 460.16Z" fill="#808080"/>
<path d="M338.776 462.534C338.79 463.107 338.59 463.617 338.027 464.096C337.935 464.191 337.267 464.619 337.2 464.621C337.204 464.741 337.207 465.447 337.209 465.566L337.21 465.619C337.215 465.832 337.086 465.98 336.714 465.99C336.541 465.994 336.354 466.012 336.156 466.017L335.783 466.025C334.812 466.049 335.783 464.854 334.883 464.608C333.582 464.213 333.444 463.43 333.417 462.246C333.404 461.714 333.401 461.568 334.014 461.553C334.214 461.548 334.374 461.571 334.534 461.581C334.96 461.611 335.45 461.453 335.461 461.999C335.465 462.146 335.481 462.266 335.485 462.411C335.491 462.69 335.591 462.994 336.058 462.984C336.338 462.977 336.666 462.769 336.659 462.491C336.632 461.359 334.978 460.64 334.187 459.805C333.764 459.349 333.441 458.678 333.426 458.038C333.416 457.598 333.552 457.17 333.877 456.828C334.177 456.515 334.648 456.237 335.058 456.109C335.15 456.067 335.097 456.014 335.093 455.922C335.092 455.856 335.005 455.006 335.003 454.939C334.997 454.673 335.451 454.716 335.77 454.708C335.703 454.71 336.807 454.643 336.917 454.854L336.942 455.946C336.946 456.066 337.001 456.117 337.12 456.127C337.787 456.179 338.308 456.792 338.516 457.2C338.726 457.608 338.72 457.955 338.731 458.434C338.738 458.701 338.566 458.784 338.287 458.791L338.073 458.796C337.807 458.802 337.595 458.832 337.329 458.839C336.184 458.866 337.011 457.768 336.159 457.788C335.879 457.795 335.54 458.083 335.548 458.401C335.566 459.174 336.874 459.849 337.632 460.363C338.338 460.84 338.76 461.801 338.776 462.534Z" fill="#808080"/>
<path d="M329.631 461.455C332.016 466.885 329.547 473.222 324.117 475.607C318.686 477.993 312.35 475.524 309.964 470.093C307.579 464.663 310.047 458.326 315.478 455.941C320.909 453.555 327.245 456.024 329.631 461.455Z" fill="#808080"/>
<path d="M326.999 462.606C328.749 466.589 326.938 471.235 322.955 472.984C318.972 474.733 314.326 472.922 312.577 468.939C310.828 464.956 312.639 460.31 316.621 458.561C320.603 456.812 325.25 458.623 326.999 462.606Z" fill="#808080"/>
<path d="M323.12 466.769C323.35 467.294 323.358 467.842 323.022 468.498C322.974 468.621 322.519 469.271 322.457 469.298C322.505 469.408 322.777 470.059 322.825 470.169L322.847 470.217C322.932 470.412 322.87 470.6 322.529 470.75C322.371 470.82 322.206 470.907 322.022 470.987L321.681 471.137C320.791 471.528 321.234 470.054 320.31 470.169C318.957 470.299 318.531 469.628 318.054 468.543C317.84 468.055 317.781 467.922 318.343 467.675C318.526 467.595 318.682 467.555 318.834 467.504C319.24 467.369 319.632 467.037 319.852 467.537C319.91 467.672 319.972 467.775 320.03 467.91C320.143 468.167 320.352 468.408 320.778 468.222C321.035 468.108 321.258 467.792 321.146 467.537C320.691 466.501 318.887 466.464 317.838 465.994C317.273 465.735 316.718 465.235 316.462 464.65C316.285 464.249 316.249 463.799 316.419 463.361C316.575 462.958 316.908 462.521 317.236 462.245C317.306 462.171 317.236 462.143 317.198 462.058C317.172 461.997 316.768 461.244 316.74 461.184C316.633 460.94 317.07 460.807 317.361 460.679C317.3 460.705 318.296 460.226 318.479 460.377L318.917 461.377C318.966 461.487 319.036 461.513 319.151 461.478C319.787 461.272 320.501 461.642 320.85 461.938C321.198 462.236 321.326 462.558 321.518 462.996C321.624 463.239 321.499 463.382 321.243 463.494L321.048 463.579C320.805 463.686 320.62 463.796 320.377 463.904C319.329 464.364 319.675 463.034 318.896 463.377C318.639 463.489 318.436 463.886 318.564 464.177C318.874 464.883 320.34 465.01 321.238 465.198C322.069 465.37 322.825 466.098 323.12 466.769Z" fill="#808080"/>
<path d="M291.749 471.623C292.87 477.448 289.057 483.079 283.232 484.198C277.406 485.319 271.776 481.506 270.656 475.681C269.535 469.856 273.348 464.225 279.174 463.106C284.997 461.985 290.628 465.798 291.749 471.623Z" fill="#808080"/>
<path d="M288.94 472.163C289.761 476.435 286.966 480.564 282.693 481.385C278.422 482.206 274.293 479.411 273.471 475.138C272.65 470.867 275.445 466.738 279.716 465.917C283.989 465.095 288.117 467.891 288.94 472.163Z" fill="#808080"/>
<path d="M284.232 475.36C284.34 475.924 284.227 476.46 283.752 477.025C283.679 477.135 283.089 477.668 283.024 477.679C283.048 477.798 283.168 478.492 283.189 478.61L283.199 478.662C283.239 478.872 283.136 479.04 282.771 479.11C282.601 479.143 282.421 479.192 282.225 479.228L281.858 479.298C280.904 479.482 281.663 478.142 280.737 478.051C279.39 477.876 279.123 477.128 278.898 475.964C278.798 475.44 278.77 475.297 279.371 475.181C279.568 475.142 279.729 475.139 279.889 475.122C280.314 475.081 280.77 474.844 280.874 475.38C280.902 475.524 280.937 475.64 280.965 475.784C281.019 476.058 281.167 476.342 281.625 476.253C281.9 476.2 282.188 475.942 282.136 475.667C281.923 474.556 280.171 474.119 279.253 473.43C278.76 473.05 278.33 472.442 278.21 471.814C278.127 471.383 278.19 470.936 278.453 470.546C278.697 470.188 279.116 469.837 279.499 469.64C279.583 469.583 279.521 469.54 279.504 469.45C279.491 469.385 279.265 468.561 279.253 468.496C279.203 468.234 279.658 468.201 279.971 468.141C279.906 468.154 280.982 467.906 281.127 468.094L281.334 469.165C281.357 469.284 281.418 469.325 281.538 469.315C282.205 469.255 282.819 469.773 283.093 470.142C283.367 470.51 283.419 470.851 283.509 471.323C283.559 471.584 283.404 471.696 283.129 471.747L282.919 471.787C282.658 471.837 282.455 471.904 282.191 471.954C281.067 472.17 281.7 470.951 280.864 471.111C280.589 471.164 280.302 471.504 280.362 471.817C280.507 472.575 281.91 473.025 282.743 473.406C283.519 473.763 284.094 474.643 284.232 475.36Z" fill="#808080"/>
<path d="M326.054 569.15C327.175 574.976 323.362 580.604 317.536 581.726C311.711 582.847 306.082 579.034 304.961 573.208C303.84 567.383 307.655 561.754 313.478 560.633C319.302 559.512 324.932 563.325 326.054 569.15Z" fill="#808080"/>
<path d="M323.245 569.686C324.066 573.957 321.271 578.086 316.998 578.908C312.727 579.729 308.597 576.934 307.776 572.662C306.955 568.391 309.75 564.262 314.023 563.441C318.296 562.618 322.423 565.413 323.245 569.686Z" fill="#808080"/>
<path d="M318.537 572.88C318.645 573.443 318.532 573.979 318.057 574.544C317.984 574.652 317.394 575.187 317.329 575.199C317.352 575.317 317.472 576.012 317.494 576.13L317.504 576.182C317.544 576.392 317.441 576.56 317.076 576.63C316.906 576.663 316.726 576.711 316.529 576.748L316.163 576.818C315.208 577.001 315.968 575.662 315.042 575.57C313.694 575.395 313.428 574.647 313.204 573.485C313.104 572.962 313.076 572.818 313.678 572.702C313.874 572.663 314.036 572.66 314.196 572.643C314.62 572.602 315.077 572.365 315.18 572.902C315.208 573.045 315.243 573.161 315.272 573.305C315.325 573.58 315.473 573.863 315.931 573.775C316.206 573.721 316.494 573.463 316.441 573.188C316.228 572.077 314.475 571.641 313.558 570.951C313.065 570.571 312.635 569.961 312.515 569.335C312.432 568.904 312.495 568.457 312.76 568.067C313.003 567.709 313.423 567.358 313.806 567.161C313.891 567.105 313.827 567.061 313.811 566.97C313.797 566.905 313.571 566.08 313.559 566.015C313.509 565.754 313.964 565.72 314.277 565.66C314.212 565.674 315.29 565.426 315.433 565.614L315.64 566.685C315.663 566.803 315.725 566.845 315.845 566.835C316.511 566.775 317.126 567.293 317.401 567.661C317.674 568.029 317.727 568.371 317.817 568.842C317.867 569.104 317.712 569.215 317.437 569.267L317.227 569.307C316.966 569.357 316.763 569.423 316.499 569.473C315.375 569.69 316.008 568.471 315.172 568.631C314.897 568.684 314.61 569.024 314.67 569.337C314.817 570.095 316.218 570.545 317.051 570.926C317.824 571.282 318.398 572.162 318.537 572.88Z" fill="#808080"/>
<path d="M296.886 601.849C298.007 607.675 294.194 613.304 288.368 614.425C282.543 615.546 276.913 611.733 275.793 605.907C274.672 600.082 278.485 594.453 284.31 593.332C290.136 592.211 295.766 596.026 296.886 601.849Z" fill="#808080"/>
<path d="M294.077 602.394C294.898 606.665 292.103 610.794 287.83 611.616C283.559 612.437 279.429 609.642 278.608 605.369C277.787 601.098 280.582 596.968 284.855 596.147C289.126 595.326 293.255 598.123 294.077 602.394Z" fill="#808080"/>
<path d="M289.365 605.589C289.473 606.152 289.36 606.688 288.885 607.253C288.812 607.363 288.222 607.896 288.157 607.907C288.18 608.026 288.3 608.72 288.322 608.839L288.332 608.89C288.372 609.1 288.269 609.268 287.904 609.338C287.734 609.372 287.554 609.42 287.358 609.457L286.991 609.527C286.037 609.71 286.796 608.371 285.87 608.279C284.522 608.104 284.256 607.356 284.031 606.192C283.931 605.669 283.903 605.525 284.504 605.409C284.701 605.37 284.862 605.367 285.022 605.351C285.449 605.309 285.903 605.072 286.007 605.609C286.035 605.752 286.07 605.867 286.098 606.012C286.151 606.287 286.3 606.57 286.758 606.482C287.033 606.428 287.321 606.17 287.269 605.895C287.056 604.784 285.304 604.348 284.386 603.658C283.893 603.278 283.463 602.669 283.343 602.042C283.26 601.611 283.323 601.164 283.588 600.775C283.831 600.416 284.251 600.065 284.634 599.868C284.717 599.812 284.656 599.768 284.639 599.677C284.626 599.612 284.399 598.787 284.387 598.722C284.337 598.461 284.792 598.427 285.105 598.367C285.04 598.381 286.118 598.133 286.261 598.321L286.468 599.392C286.491 599.51 286.553 599.552 286.673 599.542C287.339 599.482 287.954 600 288.229 600.368C288.502 600.736 288.555 601.078 288.645 601.549C288.695 601.811 288.54 601.922 288.267 601.974L288.057 602.014C287.796 602.064 287.591 602.13 287.329 602.18C286.205 602.397 286.838 601.178 286.002 601.338C285.727 601.391 285.44 601.731 285.5 602.044C285.645 602.802 287.048 603.252 287.881 603.633C288.65 603.99 289.227 604.869 289.365 605.589Z" fill="#808080"/>
<path d="M284.768 556.645C283.753 562.489 278.193 566.405 272.349 565.389C266.505 564.375 262.591 558.814 263.605 552.971C264.62 547.127 270.18 543.211 276.024 544.227C281.868 545.241 285.782 550.802 284.768 556.645Z" fill="#808080"/>
<path d="M281.942 556.154C281.197 560.44 277.121 563.31 272.835 562.567C268.549 561.822 265.679 557.746 266.422 553.46C267.165 549.174 271.243 546.304 275.529 547.047C279.815 547.79 282.685 551.868 281.942 556.154Z" fill="#808080"/>
<path d="M276.405 557.484C276.307 558.049 276.012 558.511 275.367 558.872C275.259 558.949 274.521 559.239 274.455 559.227C274.435 559.345 274.3 560.038 274.28 560.156L274.271 560.21C274.235 560.42 274.078 560.541 273.712 560.476C273.542 560.446 273.355 560.428 273.159 560.395L272.792 560.331C271.834 560.165 273.019 559.182 272.186 558.767C270.986 558.126 271.003 557.333 271.206 556.165C271.298 555.64 271.323 555.495 271.926 555.6C272.123 555.634 272.276 555.689 272.431 555.729C272.844 555.84 273.354 555.78 273.26 556.318C273.235 556.463 273.227 556.583 273.202 556.726C273.154 557.001 273.194 557.32 273.653 557.399C273.928 557.448 274.291 557.308 274.338 557.033C274.531 555.919 273.049 554.891 272.434 553.92C272.108 553.39 271.921 552.669 272.031 552.039C272.106 551.606 272.322 551.211 272.707 550.941C273.062 550.691 273.578 550.511 274.007 550.465C274.105 550.441 274.061 550.38 274.078 550.288C274.09 550.223 274.17 549.372 274.181 549.307C274.226 549.045 274.665 549.174 274.979 549.229C274.914 549.217 276.009 549.367 276.077 549.595L275.891 550.671C275.871 550.79 275.914 550.851 276.029 550.885C276.673 551.064 277.065 551.767 277.19 552.207C277.316 552.647 277.243 552.987 277.162 553.458C277.117 553.72 276.932 553.77 276.657 553.721L276.447 553.685C276.184 553.64 275.97 553.628 275.707 553.583C274.58 553.388 275.604 552.47 274.764 552.325C274.49 552.277 274.1 552.494 274.045 552.809C273.913 553.57 275.064 554.486 275.707 555.137C276.304 555.737 276.53 556.763 276.405 557.484Z" fill="#808080"/>
<path d="M309.988 481.858C308.976 487.703 303.418 491.621 297.574 490.609C291.729 489.597 287.811 484.039 288.824 478.195C289.835 472.35 295.393 468.432 301.237 469.445C307.082 470.456 311 476.013 309.988 481.858Z" fill="#808080"/>
<path d="M307.161 481.373C306.419 485.659 302.343 488.533 298.057 487.79C293.771 487.048 290.897 482.972 291.64 478.686C292.382 474.4 296.458 471.526 300.744 472.269C305.03 473.011 307.904 477.087 307.161 481.373Z" fill="#808080"/>
<path d="M301.63 482.695C301.531 483.259 301.236 483.721 300.592 484.082C300.484 484.159 299.746 484.449 299.679 484.437C299.659 484.556 299.524 485.248 299.504 485.367L299.494 485.42C299.457 485.63 299.302 485.752 298.934 485.688C298.764 485.658 298.578 485.64 298.381 485.607L298.013 485.543C297.055 485.378 298.24 484.394 297.405 483.979C296.206 483.339 296.222 482.545 296.424 481.377C296.516 480.852 296.541 480.709 297.144 480.812C297.34 480.847 297.493 480.901 297.648 480.941C298.061 481.052 298.571 480.992 298.478 481.53C298.453 481.675 298.445 481.795 298.421 481.939C298.373 482.213 298.413 482.532 298.873 482.612C299.148 482.66 299.511 482.518 299.557 482.243C299.751 481.129 298.266 480.101 297.652 479.13C297.325 478.6 297.139 477.879 297.247 477.249C297.322 476.816 297.538 476.421 297.923 476.15C298.276 475.9 298.794 475.72 299.223 475.672C299.321 475.648 299.277 475.587 299.294 475.495C299.306 475.43 299.386 474.579 299.396 474.514C299.441 474.253 299.879 474.381 300.194 474.436C300.129 474.424 301.223 474.574 301.291 474.802L301.105 475.878C301.085 475.997 301.128 476.058 301.243 476.092C301.888 476.271 302.279 476.973 302.406 477.414C302.532 477.854 302.461 478.194 302.379 478.665C302.334 478.927 302.149 478.977 301.874 478.928L301.665 478.892C301.401 478.847 301.188 478.835 300.925 478.79C299.797 478.595 300.82 477.677 299.98 477.532C299.706 477.484 299.316 477.701 299.263 478.016C299.131 478.777 300.284 479.691 300.927 480.343C301.528 480.947 301.755 481.973 301.63 482.695Z" fill="#808080"/>
<path d="M301.777 522.296C300.765 528.141 295.207 532.059 289.363 531.046C283.518 530.035 279.6 524.476 280.613 518.633C281.625 512.789 287.183 508.869 293.026 509.882C298.87 510.893 302.788 516.45 301.777 522.296Z" fill="#808080"/>
<path d="M298.954 521.81C298.212 526.097 294.136 528.97 289.85 528.227C285.564 527.486 282.69 523.41 283.433 519.124C284.175 514.837 288.251 511.964 292.537 512.707C296.823 513.448 299.695 517.524 298.954 521.81Z" fill="#808080"/>
<path d="M293.419 523.132C293.321 523.696 293.026 524.158 292.381 524.519C292.273 524.596 291.535 524.886 291.469 524.874C291.449 524.992 291.315 525.685 291.294 525.804L291.285 525.855C291.249 526.065 291.092 526.187 290.726 526.123C290.556 526.093 290.369 526.075 290.173 526.042L289.806 525.979C288.848 525.814 290.033 524.829 289.198 524.414C287.999 523.775 288.015 522.98 288.217 521.812C288.307 521.288 288.332 521.144 288.937 521.248C289.133 521.281 289.286 521.336 289.441 521.376C289.854 521.488 290.364 521.428 290.271 521.966C290.246 522.111 290.238 522.231 290.213 522.374C290.164 522.649 290.204 522.967 290.664 523.047C290.939 523.095 291.302 522.953 291.349 522.679C291.542 521.564 290.058 520.536 289.443 519.565C289.116 519.036 288.93 518.314 289.038 517.685C289.113 517.251 289.33 516.857 289.714 516.585C290.068 516.335 290.586 516.155 291.014 516.107C291.112 516.084 291.069 516.022 291.085 515.93C291.097 515.865 291.177 515.014 291.187 514.948C291.232 514.686 291.67 514.814 291.985 514.869C291.92 514.858 293.014 515.008 293.083 515.236L292.896 516.312C292.876 516.43 292.919 516.492 293.034 516.525C293.679 516.703 294.071 517.406 294.197 517.848C294.324 518.288 294.252 518.627 294.171 519.099C294.126 519.36 293.941 519.41 293.666 519.362L293.456 519.325C293.193 519.28 292.979 519.27 292.716 519.224C291.589 519.029 292.611 518.111 291.772 517.966C291.497 517.918 291.107 518.134 291.052 518.449C290.921 519.21 292.073 520.125 292.716 520.778C293.316 521.384 293.544 522.41 293.419 523.132Z" fill="#808080"/>
<path d="M381.25 446.235C381.25 453.734 344.313 459.814 298.746 459.814C253.18 459.814 216.242 453.734 216.242 446.235L206.141 390.207H391.353L381.25 446.235Z" fill="#808080"/>
<path d="M298.743 398.901C281.476 398.901 265.321 398.457 251.484 397.684L258.614 458.099C270.495 459.19 284.174 459.815 298.743 459.815C313.314 459.815 326.992 459.19 338.873 458.099L346.002 397.684C332.164 398.457 316.011 398.901 298.743 398.901Z" fill="#808080"/>
<path d="M298.746 398.903C349.891 398.903 391.352 395.01 391.352 390.207C391.352 385.405 349.891 381.512 298.746 381.512C247.601 381.512 206.141 385.405 206.141 390.207C206.141 395.01 247.601 398.903 298.746 398.903Z" fill="#808080"/>
<path opacity="0.5" d="M298.744 403.832C344.964 403.832 383.266 400.652 390.217 396.495L391.352 390.207C391.352 395.01 349.89 398.903 298.746 398.903C247.601 398.903 206.141 395.01 206.141 390.207L207.275 396.495C214.221 400.652 252.525 403.832 298.744 403.832Z" fill="white"/>
<path d="M398.388 369.925C398.388 377.425 353.773 383.505 298.738 383.505C243.703 383.505 199.088 377.425 199.088 369.925L188.781 312.875H408.693L398.388 369.925Z" fill="#808080"/>
<path d="M298.738 321.573C277.358 321.573 257.418 321.088 240.535 320.254L247.773 381.597C262.687 382.81 280.111 383.508 298.737 383.508C317.364 383.508 334.788 382.81 349.7 381.597L356.938 320.254C340.057 321.088 320.117 321.573 298.738 321.573Z" fill="#808080"/>
<path d="M298.738 321.571C359.465 321.571 408.694 317.678 408.694 312.875C408.694 308.073 359.465 304.18 298.738 304.18C238.01 304.18 188.781 308.073 188.781 312.875C188.781 317.678 238.01 321.571 298.738 321.571Z" fill="#808080"/>
<path opacity="0.5" d="M298.738 326.5C354.192 326.5 400.034 323.253 407.582 319.032L408.694 312.875C408.694 317.678 359.465 321.571 298.738 321.571C238.011 321.571 188.781 317.678 188.781 312.875L189.894 319.032C197.44 323.253 243.283 326.5 298.738 326.5Z" fill="white"/>
<path d="M414.327 292.223C414.327 299.723 362.58 305.803 298.748 305.803C234.916 305.803 183.17 299.723 183.17 292.223L167.484 234.148H430.012L414.327 292.223Z" fill="#808080"/>
<path d="M298.742 242.842C273.372 242.842 249.687 242.365 229.609 241.539L236.944 303.694C254.821 305.026 276.005 305.801 298.742 305.801C321.479 305.801 342.663 305.026 360.54 303.694L367.875 241.539C347.797 242.365 324.112 242.842 298.742 242.842Z" fill="#808080"/>
<path d="M430 234.153C430 238.955 371.23 242.848 298.734 242.848C226.238 242.848 167.469 238.955 167.469 234.153C167.469 229.35 226.238 225.457 298.734 225.457C371.23 225.457 430 229.35 430 234.153Z" fill="#808080"/>
<path opacity="0.5" d="M298.741 247.779C364.036 247.779 418.183 244.621 428.296 240.484L429.928 234.438C427.675 239.108 369.806 242.85 298.74 242.85C227.673 242.85 169.805 239.108 167.551 234.438L169.183 240.484C179.3 244.621 233.447 247.779 298.741 247.779Z" fill="white"/>
<path d="M307.849 215.683C307.408 215.829 306.928 215.878 306.437 215.808C304.738 215.568 303.557 213.995 303.797 212.298C306.194 195.373 311.619 180.599 319.925 168.387C320.888 166.97 322.82 166.6 324.239 167.566C325.659 168.53 326.027 170.463 325.061 171.88C315.387 186.106 311.503 202.185 309.947 213.167C309.778 214.377 308.934 215.323 307.849 215.683Z" fill="#808080"/>
<path d="M321.64 203.168L307.496 208.156L294.086 201.438L305.812 234.962L321.64 203.168Z" fill="#808080"/>
<path d="M281.028 177.265C279.915 177.007 278.986 176.142 278.704 174.955C276.141 164.162 270.788 148.51 259.842 135.239C258.751 133.916 258.94 131.957 260.262 130.866C261.586 129.775 263.544 129.963 264.635 131.286C274.032 142.678 280.8 156.887 284.75 173.519C285.146 175.188 284.115 176.862 282.446 177.259C281.963 177.373 281.48 177.37 281.028 177.265Z" fill="#808080"/>
<path d="M293.418 161.805L280.686 169.732L266.141 166.072L284.839 196.269L293.418 161.805Z" fill="#808080"/>
<path d="M343.961 204.288C343.443 204.402 342.888 204.385 342.347 204.209C340.714 203.682 339.816 201.933 340.341 200.301C346.33 181.692 355.725 169.676 367.51 165.555C378.568 161.692 391.523 164.624 406.041 174.274C407.468 175.223 407.858 177.152 406.907 178.582C405.957 180.008 404.028 180.399 402.599 179.448C389.789 170.934 378.676 168.227 369.559 171.42C357.079 175.785 349.996 190.569 346.251 202.205C345.903 203.296 345.005 204.059 343.961 204.288Z" fill="#808080"/>
<path d="M359.477 194.323L344.693 196.857L332.605 187.977L338.519 222.997L359.477 194.323Z" fill="#808080"/>
<path d="M198.097 199.867C197.817 199.702 197.558 199.491 197.333 199.233C196.202 197.942 196.332 195.979 197.623 194.85C210.736 183.364 223.198 178.742 234.66 181.11C246.889 183.636 257.79 194.304 266.189 211.956C266.925 213.505 266.267 215.359 264.718 216.096C263.169 216.834 261.315 216.174 260.577 214.625C255.326 203.587 246.349 189.869 233.402 187.194C223.946 185.24 213.284 189.388 201.715 199.523C200.683 200.429 199.22 200.525 198.097 199.867Z" fill="#808080"/>
<path d="M272.227 198.711L261.421 209.114L246.434 208.558L270.999 234.206L272.227 198.711Z" fill="#808080"/>
<path opacity="0.5" d="M269.736 11.7656H231.332V40.9089H269.736V11.7656Z" fill="white"/>
<path opacity="0.5" d="M279.197 26.332H257.727V33.1185H279.197V26.332Z" fill="white"/>
<path opacity="0.5" d="M96.6457 140.41H58.2422V169.553H96.6457V140.41Z" fill="white"/>
<path opacity="0.5" d="M106.115 154.98H84.6445V198.055H106.115V154.98Z" fill="white"/>
<path opacity="0.5" d="M559.957 98.5898H526.969V103.641H559.957V98.5898Z" fill="white"/>
<path opacity="0.5" d="M559.957 108.262H526.969V113.312H559.957V108.262Z" fill="white"/>
<path opacity="0.5" d="M559.957 117.934H526.969V122.984H559.957V117.934Z" fill="white"/>
<path opacity="0.5" d="M154.038 0H117.898V5.53215H154.038V0Z" fill="white"/>
<path opacity="0.5" d="M154.038 10.5938H117.898V16.1259H154.038V10.5938Z" fill="white"/>
<path opacity="0.5" d="M154.038 21.1875H117.898V26.7196H154.038V21.1875Z" fill="white"/>
<path d="M162.929 178.065L158.043 178.295L177.153 152.378L182.041 152.148L162.929 178.065Z" fill="#808080"/>
<path d="M178.171 177.347C174.956 177.497 172.219 175.005 172.069 171.79C171.919 168.575 174.411 165.838 177.626 165.686C180.841 165.536 183.578 168.028 183.728 171.243C183.878 174.458 181.386 177.195 178.171 177.347ZM177.761 168.583C176.143 168.658 174.891 170.036 174.966 171.653C175.042 173.271 176.418 174.523 178.036 174.448C179.653 174.372 180.906 172.996 180.831 171.378C180.754 169.761 179.378 168.508 177.761 168.583Z" fill="#808080"/>
<path d="M162.526 164.745C159.311 164.895 156.574 162.403 156.424 159.188C156.274 155.973 158.767 153.236 161.982 153.085C165.197 152.935 167.933 155.427 168.083 158.642C168.233 161.857 165.741 164.594 162.526 164.745ZM162.116 155.981C160.499 156.056 159.246 157.434 159.321 159.051C159.398 160.669 160.774 161.922 162.391 161.847C164.009 161.77 165.262 160.394 165.187 158.777C165.11 157.161 163.734 155.906 162.116 155.981Z" fill="#808080"/>
<path d="M148.084 261.205H139.94V253.062H136.254V261.205H128.109V264.891H136.254V273.036H139.94V264.891H148.084V261.205Z" fill="#808080"/>
<path d="M478.891 19.9706H470.749V11.8281H467.06V19.9706H458.918V23.6587H467.06V31.8011H470.749V23.6587H478.891V19.9706Z" fill="#808080"/>
<path d="M162.842 119.543H154.698V111.398H151.011V119.543H142.867V123.229H151.011V131.371H154.698V123.229H162.842V119.543Z" fill="#808080"/>
<path d="M437.986 187.14H429.842V178.996H426.156V187.14H418.012V190.827H426.156V198.969H429.842V190.827H437.986V187.14Z" fill="#808080"/>
<path d="M62.5907 220.933L59.6022 217.945L62.5907 214.958L61.238 213.605L58.2512 216.592L55.2628 213.605L53.9102 214.958L56.8986 217.945L53.9102 220.933L55.2628 222.284L58.2512 219.298L61.238 222.284L62.5907 220.933Z" fill="white"/>
<path d="M149.374 91.324L146.387 88.3355L149.374 85.3487L148.022 83.9961L145.035 86.9845L142.046 83.9961L140.695 85.3487L143.682 88.3355L140.695 91.324L142.046 92.6766L145.035 89.6882L148.022 92.6766L149.374 91.324Z" fill="white"/>
<path d="M8.67886 108.59L5.69207 105.601L8.67886 102.614L7.32622 101.262L4.33943 104.249L1.35264 101.262L0 102.614L2.9868 105.601L0 108.59L1.35264 109.942L4.33943 106.954L7.32622 109.942L8.67886 108.59Z" fill="white"/>
<path d="M588.253 98.3692L585.266 95.3824L588.253 92.3956L586.9 91.043L583.914 94.0298L580.927 91.043L579.574 92.3956L582.561 95.3824L579.574 98.3692L580.927 99.7218L583.914 96.735L586.9 99.7218L588.253 98.3692Z" fill="white"/>
<path d="M442.737 41.6504L439.751 38.6636L442.737 35.6769L441.385 34.3242L438.398 37.311L435.411 34.3242L434.059 35.6769L437.045 38.6636L434.059 41.6504L435.411 43.0031L438.398 40.0163L441.385 43.0031L442.737 41.6504Z" fill="white"/>
<path d="M79.882 37.8318L76.8952 34.8433L79.882 31.8565L78.5293 30.5039L75.5426 33.4924L72.5558 30.5039L71.2031 31.8565L74.1899 34.8433L71.2031 37.8318L72.5558 39.1844L75.5426 36.196L78.5293 39.1844L79.882 37.8318Z" fill="white"/>
<path d="M318.663 10.4802L315.676 7.49343L318.663 4.50497L317.311 3.15234L314.324 6.1408L311.337 3.15234L309.984 4.50497L312.971 7.49343L309.984 10.4802L311.337 11.8329L314.324 8.8444L317.311 11.8329L318.663 10.4802Z" fill="white"/>
<path d="M533.255 195.916L530.266 192.929L533.255 189.942L531.902 188.59L528.915 191.577L525.927 188.59L524.574 189.942L527.563 192.929L524.576 195.916L525.927 197.269L528.915 194.282L531.902 197.269L533.255 195.916Z" fill="white"/>
<path d="M447.077 212.44L444.09 209.453L447.077 206.466L445.725 205.113L442.738 208.1L439.751 205.113L438.398 206.466L441.385 209.453L438.398 212.44L439.751 213.792L442.738 210.805L445.725 213.792L447.077 212.44Z" fill="white"/>
<path d="M406.335 108.205C406.332 107.907 406.135 107.647 405.852 107.559L399.302 105.53L399.207 98.6734C399.204 98.3752 399.007 98.1153 398.724 98.027C398.439 97.9388 398.131 98.0437 397.959 98.2869L394.006 103.889L387.456 101.86C387.172 101.772 386.863 101.877 386.692 102.12C386.52 102.363 386.525 102.69 386.703 102.926L390.81 108.417L386.857 114.019C386.685 114.262 386.69 114.588 386.868 114.825C387.047 115.065 387.356 115.16 387.64 115.063L394.131 112.854L398.238 118.345C398.327 118.465 398.449 118.548 398.584 118.59C398.719 118.631 398.867 118.631 399.009 118.583C399.29 118.488 399.479 118.222 399.474 117.923L399.379 111.067L405.87 108.858C406.152 108.77 406.34 108.502 406.335 108.205Z" fill="#808080"/>
<path d="M436.515 117.549C436.511 117.251 436.315 116.991 436.032 116.903L429.482 114.874L429.387 108.017C429.383 107.719 429.187 107.459 428.904 107.371C428.619 107.282 428.311 107.387 428.139 107.631L424.186 113.233L417.636 111.204C417.351 111.116 417.043 111.22 416.872 111.464C416.7 111.707 416.705 112.033 416.883 112.27L420.989 117.76L417.036 123.363C416.865 123.606 416.87 123.932 417.048 124.169C417.226 124.409 417.536 124.504 417.819 124.409L424.309 122.2L428.416 127.69C428.506 127.81 428.627 127.894 428.762 127.935C428.897 127.977 429.045 127.977 429.187 127.928C429.468 127.834 429.657 127.567 429.652 127.269L429.557 120.412L436.048 118.204C436.33 118.112 436.518 117.845 436.515 117.549Z" fill="white"/>
<path d="M466.683 126.893C466.679 126.594 466.484 126.335 466.2 126.246L459.65 124.217L459.555 117.361C459.551 117.063 459.355 116.803 459.072 116.715C458.787 116.626 458.479 116.731 458.307 116.974L454.354 122.577L447.804 120.548C447.519 120.459 447.211 120.564 447.039 120.807C446.868 121.051 446.873 121.377 447.051 121.614L451.157 127.104L447.204 132.706C447.033 132.949 447.038 133.276 447.216 133.513C447.394 133.752 447.704 133.847 447.987 133.751L454.477 131.542L458.584 137.032C458.673 137.152 458.795 137.236 458.93 137.277C459.065 137.319 459.213 137.319 459.355 137.271C459.636 137.176 459.825 136.909 459.82 136.611L459.725 129.754L466.216 127.546C466.499 127.457 466.688 127.189 466.683 126.893Z" fill="white"/>
<path d="M335.697 75.5263L296.666 67.8086L283.789 112.707L330.518 121.947L335.697 75.5263Z" fill="white"/>
<path d="M325.116 77.3547L327.003 67.808C328.057 62.4707 324.576 57.2717 319.239 56.2156C313.901 55.1612 308.701 58.6427 307.646 63.98L305.757 73.5367C304.293 73.7399 303.045 74.8343 302.744 76.3636C302.362 78.2926 303.622 80.1732 305.552 80.5547C307.481 80.9362 309.362 79.6768 309.744 77.7478C310.048 76.2053 309.294 74.7061 307.998 73.9681L309.885 64.4247C310.696 60.3218 314.694 57.6416 318.799 58.4528C322.903 59.2641 325.579 63.2637 324.768 67.3682L322.878 76.9216C321.411 77.1215 320.158 78.2159 319.855 79.7501C319.474 81.6791 320.733 83.5598 322.662 83.9413C324.591 84.3228 326.472 83.0634 326.853 81.1344C327.158 79.5902 326.407 78.096 325.116 77.3547ZM307.8 77.363C307.63 78.2226 306.793 78.7823 305.936 78.6124C305.076 78.4425 304.516 77.6062 304.686 76.7484C304.856 75.8888 305.692 75.3291 306.552 75.499C307.41 75.6689 307.97 76.5035 307.8 77.363ZM323.045 81.994C322.186 81.8241 321.626 80.9878 321.796 80.1299C321.966 79.2704 322.802 78.7107 323.66 78.8806C324.519 79.0505 325.079 79.8867 324.909 80.7446C324.739 81.6025 323.905 82.1639 323.045 81.994Z" fill="#808080"/>
<path d="M365.738 47.1422L361.047 45.7579L387.59 27.5273L392.282 28.9116L365.738 47.1422Z" fill="#808080"/>
<path d="M380.373 51.4579C377.286 50.5467 375.516 47.2968 376.427 44.21C377.336 41.1233 380.588 39.3525 383.675 40.2621C386.761 41.1716 388.532 44.4249 387.621 47.5116C386.71 50.5984 383.458 52.3691 380.373 51.4579ZM382.854 43.0456C381.301 42.5875 379.665 43.4787 379.207 45.0313C378.749 46.5838 379.64 48.2196 381.193 48.6777C382.745 49.1358 384.381 48.2446 384.839 46.6921C385.297 45.1379 384.406 43.502 382.854 43.0456Z" fill="#808080"/>
<path d="M369.721 34.4345C366.634 33.5233 364.863 30.2733 365.775 27.1866C366.684 24.0998 369.936 22.3291 373.022 23.2386C376.109 24.1481 377.88 27.4015 376.969 30.4882C376.059 33.5749 372.808 35.3457 369.721 34.4345ZM372.203 26.0205C370.65 25.5624 369.014 26.4536 368.556 28.0062C368.098 29.5587 368.99 31.1945 370.542 31.6526C372.095 32.1107 373.73 31.2195 374.188 29.667C374.647 28.1144 373.755 26.4786 372.203 26.0205Z" fill="#808080"/>
<path opacity="0.5" d="M494.318 196.157C504.969 195.059 512.713 185.535 511.616 174.885C510.518 164.234 500.994 156.489 490.344 157.587C479.693 158.685 471.948 168.208 473.046 178.859C474.143 189.51 483.667 197.254 494.318 196.157Z" fill="white"/>
<path d="M508.406 176.262C510.171 165.43 502.821 155.218 491.988 153.453C481.156 151.688 470.944 159.039 469.18 169.871C467.415 180.703 474.766 190.915 485.598 192.68C496.43 194.444 506.642 187.094 508.406 176.262Z" fill="#808080"/>
<path d="M499.68 172.072L483.617 162.868C483.295 162.683 482.9 162.685 482.579 162.87C482.259 163.057 482.061 163.398 482.061 163.768L482.051 182.158C482.051 182.528 482.247 182.871 482.567 183.058C482.729 183.151 482.909 183.198 483.089 183.198C483.267 183.198 483.445 183.153 483.605 183.061L499.678 173.874C500.002 173.689 500.201 173.346 500.201 172.973C500.201 172.6 500.002 172.257 499.68 172.072Z" fill="white"/>
<path opacity="0.5" d="M95.3955 290.163C105.941 288.303 112.981 278.247 111.121 267.702C109.261 257.157 99.2051 250.116 88.66 251.976C78.1149 253.836 71.0742 263.892 72.9342 274.437C74.7941 284.982 84.8504 292.023 95.3955 290.163Z" fill="white"/>
<path d="M88.4703 287.015C99.1782 287.015 107.859 278.334 107.859 267.627C107.859 256.919 99.1782 248.238 88.4703 248.238C77.7625 248.238 69.082 256.919 69.082 267.627C69.082 278.334 77.7625 287.015 88.4703 287.015Z" fill="white"/>
<path d="M85.9227 276.096C85.4596 276.096 84.9965 275.93 84.6267 275.595L78.8197 270.323C78.0317 269.606 77.9718 268.387 78.6881 267.599C79.406 266.809 80.6254 266.753 81.4117 267.469L85.8077 271.46L96.7021 259.761C97.43 258.983 98.6494 258.94 99.429 259.665C100.207 260.391 100.252 261.612 99.5256 262.39L87.3319 275.483C86.9555 275.891 86.4407 276.096 85.9227 276.096Z" fill="#808080"/>
<g opacity="0.5">
<path d="M97.4516 88.3437C97.8281 86.558 96.662 84.8039 94.8979 84.3441L89.684 82.9831L83.6671 81.4106L80.0356 80.4628C80.2405 80.5161 81.2716 78.7237 81.4066 78.4921C82.501 76.6048 82.8175 74.331 82.441 72.1937C82.1679 70.6462 81.4815 67.6178 79.4609 67.5978C77.6985 67.5811 76.9989 69.4585 76.4508 71.5057C75.0715 76.5515 72.4079 77.5376 66.5826 80.4445C65.2499 81.1091 64.3304 81.5189 64.3304 81.5189L58.9648 102.072L63.2759 103.196L72.3129 105.556L83.0541 108.362L83.6354 108.513C85.4478 108.986 87.3002 107.902 87.7733 106.091C88.1314 104.717 87.59 103.319 86.5189 102.518L86.7521 102.578C88.5162 103.039 90.3803 102.08 90.9267 100.343C91.3664 98.9466 90.8617 97.5023 89.8589 96.6761C91.6713 97.1492 93.5236 96.0631 93.9967 94.2523C94.3332 92.963 93.8768 91.6553 92.9356 90.8374L93.2788 90.9274C95.1411 91.4138 97.0468 90.2494 97.4516 88.3437Z" fill="white"/>
<path d="M48.8838 99.4342L56.9263 101.535L62.3385 80.8071L54.296 78.7065C52.517 78.2418 50.6962 79.3079 50.2315 81.087L46.5034 95.3696C46.0386 97.1503 47.1048 98.9694 48.8838 99.4342Z" fill="white"/>
</g>
<path d="M95.7915 84.76C96.1679 82.9743 95.0019 81.2202 93.2378 80.7604L88.0238 79.3995L82.0069 77.827L78.3755 76.8791C78.5787 76.9324 79.6115 75.14 79.7464 74.9085C80.8409 73.0211 81.1574 70.7473 80.7809 68.6101C80.5077 67.0625 79.8214 64.0341 77.8008 64.0158C76.0383 63.9974 75.3387 65.8765 74.7906 67.9237C73.4114 72.9695 70.7477 73.9556 64.9224 76.8625C63.5898 77.5288 62.6702 77.9369 62.6702 77.9369L57.3047 98.4896L61.6158 99.614L70.6528 101.974L81.3939 104.78L81.9753 104.931C83.786 105.404 85.6384 104.32 86.1115 102.509C86.4713 101.135 85.9299 99.7373 84.8571 98.936L85.0903 98.9977C86.8544 99.4591 88.7184 98.4996 89.2648 96.7638C89.7046 95.3679 89.1999 93.9236 88.1971 93.0974C90.0094 93.5705 91.8618 92.4844 92.3349 90.6737C92.6714 89.3843 92.215 88.0767 91.2738 87.2588L91.617 87.3487C93.481 87.8301 95.3867 86.6674 95.7915 84.76Z" fill="white"/>
<path d="M47.2247 95.856L55.2672 97.9566L60.6794 77.229L52.6369 75.1284C50.8561 74.6636 49.0371 75.7298 48.5723 77.5105L44.8426 91.7931C44.3795 93.5722 45.4456 95.3912 47.2247 95.856Z" fill="white"/>
<path d="M32.7567 128.4H87.3251C88.2547 128.4 89.0076 127.647 89.0076 126.718C89.0076 125.788 88.2547 125.035 87.3251 125.035H32.7567C31.8272 125.035 31.0742 125.788 31.0742 126.718C31.0742 127.647 31.8272 128.4 32.7567 128.4Z" fill="#808080"/>
<path d="M32.7567 137.365H87.3251C88.2547 137.365 89.0076 136.612 89.0076 135.682C89.0076 134.753 88.2547 134 87.3251 134H32.7567C31.8272 134 31.0742 134.753 31.0742 135.682C31.0742 136.612 31.8272 137.365 32.7567 137.365Z" fill="#808080"/>
<path d="M53.1356 146.338H87.3213C88.2508 146.338 89.0037 145.585 89.0037 144.655C89.0037 143.726 88.2508 142.973 87.3213 142.973H53.1356C52.2061 142.973 51.4531 143.726 51.4531 144.655C51.4531 145.583 52.2077 146.338 53.1356 146.338Z" fill="#808080"/>
<path opacity="0.5" d="M515.316 275.712V249.082H475.264V275.712H515.316Z" fill="white"/>
<path opacity="0.5" d="M484.164 267.987V229.582H455.021V267.987H484.164Z" fill="white"/>
<path d="M552.329 262.396H497.761C496.831 262.396 496.078 261.643 496.078 260.714C496.078 259.784 496.831 259.031 497.761 259.031H552.329C553.259 259.031 554.011 259.784 554.011 260.714C554.011 261.643 553.259 262.396 552.329 262.396Z" fill="#808080"/>
<path d="M552.329 271.361H497.761C496.831 271.361 496.078 270.608 496.078 269.679C496.078 268.749 496.831 267.996 497.761 267.996H552.329C553.259 267.996 554.011 268.749 554.011 269.679C554.011 270.608 553.259 271.361 552.329 271.361Z" fill="#808080"/>
<path d="M531.946 280.326H497.761C496.831 280.326 496.078 279.573 496.078 278.643C496.078 277.714 496.831 276.961 497.761 276.961H531.946C532.876 276.961 533.629 277.714 533.629 278.643C533.629 279.573 532.876 280.326 531.946 280.326Z" fill="#808080"/>
<path d="M230.121 122.867L196.505 137.415C194.661 138.212 192.519 137.365 191.719 135.52L163.156 69.5163C162.358 67.6722 163.206 65.5283 165.05 64.7304L198.666 50.1829C200.51 49.385 202.652 50.2329 203.451 52.077L232.017 118.079C232.815 119.925 231.967 122.067 230.121 122.867Z" fill="#808080"/>
<path d="M205.714 57.3223L165.422 74.7617L187.757 126.366L228.05 108.927L205.714 57.3223Z" fill="white"/>
<path d="M200.231 71.0026L177.684 80.7617L178.589 82.8545L201.137 73.0953L200.231 71.0026Z" fill="#808080"/>
<path d="M202.595 76.4518L180.047 86.2109L180.953 88.3037L203.5 78.5445L202.595 76.4518Z" fill="#808080"/>
<path d="M204.946 81.901L182.398 91.6602L183.304 93.7529L205.852 83.9937L204.946 81.901Z" fill="#808080"/>
<path d="M207.302 87.3541L184.754 97.1133L185.66 99.206L208.207 89.4469L207.302 87.3541Z" fill="#808080"/>
<path d="M210.839 103.146L193.868 110.49C192.327 111.157 190.538 110.449 189.872 108.908C189.205 107.367 189.913 105.578 191.454 104.912L208.425 97.567C209.966 96.9007 211.755 97.6087 212.422 99.1496C213.088 100.689 212.38 102.479 210.839 103.146Z" fill="#808080"/>
<path d="M213.4 122.728C214.063 124.259 213.359 126.038 211.828 126.701C210.297 127.364 208.518 126.66 207.855 125.129C207.192 123.598 207.896 121.819 209.427 121.156C210.958 120.493 212.737 121.196 213.4 122.728Z" fill="#808080"/>
<path opacity="0.5" d="M521.128 70.5782L460.067 81.1743C453.966 82.2338 448.16 78.1442 447.101 72.0424C446.041 65.9405 450.129 60.1352 456.233 59.0758L517.293 48.4796C523.395 47.4201 529.2 51.5097 530.259 57.6115C531.319 63.7134 527.229 69.5187 521.128 70.5782Z" fill="white"/>
<path d="M516.807 66.2813L455.747 76.8775C449.645 77.937 443.84 73.8474 442.78 67.7456C441.721 61.6437 445.809 55.8384 451.912 54.7789L512.972 44.1828C519.074 43.1233 524.88 47.2112 525.939 53.3147C526.999 59.4166 522.911 65.2219 516.807 66.2813Z" fill="white"/>
<path d="M465.598 63.7399L464.397 56.6813L466.865 56.2615C467.357 56.1779 467.777 56.1939 468.125 56.3096C468.473 56.423 468.749 56.6089 468.954 56.8672C469.158 57.1232 469.29 57.4236 469.349 57.7683C469.4 58.0716 469.389 58.3312 469.314 58.5472C469.242 58.7628 469.129 58.9428 468.974 59.0874C468.821 59.2316 468.648 59.3485 468.455 59.4381L468.467 59.507C468.685 59.484 468.915 59.5229 469.157 59.6236C469.399 59.7244 469.615 59.8909 469.806 60.1232C469.997 60.3556 470.124 60.6578 470.187 61.0301C470.247 61.3839 470.221 61.7158 470.108 62.0258C469.996 62.3358 469.78 62.603 469.461 62.8275C469.142 63.0519 468.705 63.2115 468.149 63.3061L465.598 63.7399ZM466.324 62.8363L468.02 62.5478C468.578 62.4528 468.956 62.2774 469.154 62.0216C469.353 61.763 469.427 61.4786 469.374 61.1684C469.333 60.9295 469.235 60.7193 469.079 60.5378C468.922 60.354 468.721 60.2204 468.475 60.1369C468.229 60.0511 467.951 60.0344 467.644 60.0868L465.906 60.3823L466.324 62.8363ZM465.78 59.6378L467.365 59.3681C467.623 59.3244 467.846 59.2343 468.036 59.0981C468.228 58.9614 468.369 58.7908 468.459 58.5862C468.552 58.3813 468.577 58.1548 468.535 57.9066C468.482 57.5964 468.33 57.3517 468.077 57.1725C467.824 56.9909 467.463 56.94 466.994 57.0198L465.381 57.2942L465.78 59.6378ZM475.342 54.8195L476.197 54.6741L476.992 59.3476C477.074 59.8302 477.033 60.2803 476.87 60.6982C476.709 61.1133 476.442 61.465 476.068 61.7532C475.693 62.0392 475.229 62.2293 474.675 62.3235C474.121 62.4177 473.621 62.3918 473.172 62.2457C472.724 62.0974 472.354 61.8542 472.062 61.5161C471.773 61.1752 471.587 60.7636 471.505 60.2811L470.71 55.6075L471.565 55.4621L472.348 60.0667C472.407 60.4114 472.535 60.7052 472.732 60.9483C472.929 61.189 473.181 61.3625 473.487 61.4688C473.796 61.5723 474.146 61.5907 474.539 61.5239C474.932 61.457 475.257 61.3237 475.514 61.124C475.77 60.922 475.95 60.675 476.054 60.383C476.16 60.0884 476.184 59.7688 476.125 59.4241L475.342 54.8195ZM477.297 54.4869L478.276 54.3204L480.794 57.2823L480.877 57.2682L482.274 53.6402L483.253 53.4737L481.408 58.0573L481.903 60.9662L481.048 61.1116L480.554 58.2027L477.297 54.4869Z" fill="#808080"/>
</g>
</svg>
