<svg width="46" height="32" viewBox="0 0 46 32" fill="none" xmlns="http://www.w3.org/2000/svg">
<g clip-path="url(#clip0_3094_31711)">
<path fill-rule="evenodd" clip-rule="evenodd" d="M42.9153 13.5516V31.463C42.9153 31.7565 42.6696 32 42.3732 32H37.6987C37.4023 32 37.1566 31.7584 37.1566 31.463V18.1399C38.1107 17.2153 39.2835 16.0968 40.4802 14.9559L42.3684 13.1534C42.5404 13.2995 42.7232 13.4326 42.9153 13.5516ZM17.7004 8.32344L21.2994 5.20382C24.0343 7.85824 26.6858 11.0669 29.3931 13.7169L39.2625 3.89245L36.0839 0.743097L46 0L45.4424 10.0114L42.3933 6.98973C40.2043 9.18688 35.0276 14.0289 32.8359 16.2006C30.0674 18.9441 28.7451 18.9936 25.9755 16.2494L21.2994 11.0931L20.3914 11.8909C20.2511 11.59 20.0971 11.2955 19.9299 11.0083C19.5822 10.4116 19.1831 9.85761 18.7408 9.35512L18.7469 9.34996C18.4329 8.99265 18.0827 8.64914 17.7004 8.32344ZM11.3471 8.42928C10.3172 8.35905 9.28347 8.49103 8.30522 8.81765L8.28446 8.8253C7.31264 9.15283 6.4148 9.66541 5.64144 10.3342C4.86226 11.0082 4.22472 11.8277 3.76523 12.7459C3.30678 13.6618 3.03527 14.6583 2.96625 15.6783C2.91446 16.4307 2.97299 17.1866 3.14001 17.9224C3.28545 18.5619 3.5122 19.1806 3.81483 19.7636L0.117308 23.2708C0.0449004 23.339 0.00275829 23.4329 0.000130639 23.5318C-0.00249701 23.6308 0.0346044 23.7267 0.103292 23.7986L2.19656 25.9678C2.26534 26.0391 2.35986 26.0805 2.45939 26.0829C2.55891 26.0852 2.65532 26.0483 2.72745 25.9804L6.28562 22.5773C6.82608 22.9561 7.4129 23.2653 8.032 23.4976C8.75404 23.7675 9.51224 23.9307 10.2822 23.982C11.3116 24.0521 12.3448 23.9202 13.3226 23.594C14.303 23.2668 15.2087 22.7514 15.9879 22.0772C16.7669 21.4033 17.4043 20.5841 17.8638 19.6663C18.311 18.775 18.5914 17.7844 18.6635 16.7328C18.7354 15.6811 18.5925 14.662 18.2716 13.719L18.2639 13.6984C17.9328 12.7359 17.4151 11.8468 16.7398 11.0809C16.0607 10.3086 15.2344 9.67676 14.3081 9.22169C13.4087 8.77857 12.4085 8.50058 11.3471 8.42928ZM10.0615 19.2439C9.64703 19.2152 9.1192 19.114 8.71284 19.0061V17.7433C9.25226 17.7865 10.5806 17.8988 11.0703 17.789C11.4378 17.7063 11.3971 17.1315 11.1551 17.0595C10.8637 16.9696 10.2538 17.0774 9.76338 16.9367C9.51308 16.8648 9.30185 16.7564 9.12971 16.6115C8.95389 16.4629 8.82227 16.266 8.73584 16.0214C8.65148 15.7833 8.60898 15.4998 8.60898 15.1711V14.7383C8.60898 13.813 9.12396 13.2618 10.0615 13.1066V12.4432H11.3971V13.0808C11.8114 13.1135 12.3269 13.2184 12.738 13.3171V14.582C12.1775 14.5331 11.1144 14.4338 10.5827 14.5295C10.5391 14.5369 10.4967 14.5498 10.4565 14.5679C10.2382 14.6705 10.2469 15.2621 10.5144 15.3321C10.6893 15.3776 11.0481 15.3536 11.2393 15.3536C11.4329 15.3536 11.6124 15.3724 11.7771 15.4093C11.9434 15.4468 12.0938 15.5035 12.2272 15.579C12.7865 15.8948 13.0332 16.4518 13.0332 17.067V17.5003C13.0332 17.7573 13.01 17.9868 12.9642 18.1875C12.7815 18.9833 12.1584 19.155 11.3971 19.2376V19.953H10.0615V19.2439ZM6.68632 11.5202C7.30436 10.9862 8.02598 10.5709 8.81059 10.3093C9.56752 10.0565 10.3886 9.94413 11.2393 10.0012C12.09 10.0583 12.8886 10.2797 13.6034 10.6311C14.3459 10.9958 15.0038 11.5036 15.5431 12.1157L15.5623 12.1357C16.0961 12.7473 16.505 13.4559 16.7663 14.222L16.7731 14.2406C17.0229 14.9843 17.134 15.7913 17.0768 16.6266C17.0193 17.4686 16.7961 18.2596 16.4419 18.9673C16.074 19.6994 15.5645 20.3527 14.9424 20.8902C14.3247 21.4246 13.603 21.84 12.8184 22.1018C12.0623 22.3542 11.2408 22.4667 10.39 22.4095C9.54039 22.3525 8.74267 22.1314 8.02769 21.7799L8.009 21.7715C6.52856 21.0389 5.39203 19.7422 4.86339 18.1893L4.85657 18.1708C4.60671 17.4269 4.49566 16.6201 4.5528 15.7845C4.61048 14.9419 4.83384 14.1509 5.18854 13.4425C5.5555 12.7105 6.06446 12.0573 6.68632 11.5202ZM14.7045 25.8906V31.463C14.7045 31.7573 14.4596 32 14.1624 32H9.48792C9.19072 32 8.9458 31.7584 8.9458 31.463V26.4696C9.31946 26.5355 9.70642 26.5827 10.1055 26.6096C10.7827 26.6548 11.4699 26.6307 12.1561 26.5431C12.8392 26.457 13.5121 26.3043 14.165 26.0874C14.3465 26.0268 14.5263 25.9614 14.7045 25.8906ZM24.108 20.4796V31.463C24.108 31.7571 23.8626 32 23.5657 32H18.8914C18.5946 32 18.3491 31.7584 18.3491 31.463V23.48C19.1166 22.7001 19.7564 21.8062 20.2453 20.8307C20.5524 20.2196 20.7979 19.58 20.9781 18.9211C21.0945 18.4936 21.1828 18.0591 21.2425 17.6203L22.4905 18.9957C22.5423 19.0528 22.5958 19.1086 22.6507 19.1629C23.1487 19.6563 23.6314 20.095 24.108 20.4796ZM33.5114 21.2975V31.463C33.5114 31.7571 33.2662 32 32.9694 32H28.2948C27.9981 32 27.7528 31.7584 27.7528 31.463V22.3587C28.2985 22.4788 28.8638 22.5352 29.4597 22.528C30.9496 22.5101 32.2373 22.099 33.5114 21.2975Z" fill="#1D4D87"/>
</g>
<defs>
<clipPath id="clip0_3094_31711">
<rect width="46" height="32" fill="white"/>
</clipPath>
</defs>
</svg>
