<svg width="32" height="32" viewBox="0 0 32 32" fill="none" xmlns="http://www.w3.org/2000/svg">
<g clip-path="url(#clip0_2988_7756)">
<path d="M26.5475 19.199H18.3242V26.2606H26.5475V19.199Z" fill="#2EB8AE"/>
<path d="M15.1061 19.3059H5.45312V20.3785H15.1061V19.3059Z" fill="#2EB8AE"/>
<path d="M15.1061 25.0811H5.45312V26.1537H15.1061V25.0811Z" fill="#2EB8AE"/>
<path d="M15.1061 22.1938H5.45312V23.2665H15.1061V22.1938Z" fill="#2EB8AE"/>
<path d="M26.0268 0.000244141H5.97375C2.67419 0.000806641 0.001 2.67449 0 5.97356V24.9539C0.0015625 28.8452 3.15394 31.9987 7.04637 31.9997H24.9541C28.846 31.9987 31.9989 28.8457 32 24.9539V5.97356C31.9995 2.67449 29.3258 0.000806641 26.0268 0.000244141ZM29.0503 24.9539C29.0498 26.0882 28.5936 27.1054 27.8504 27.8501C27.1057 28.5933 26.0886 29.0495 24.9542 29.05H7.04637C5.912 29.0494 4.89431 28.5932 4.14962 27.8501C3.40637 27.1054 2.95075 26.0882 2.94975 24.9539V7.41849H29.0504V24.9539H29.0503Z" fill="#2EB8AE"/>
<path d="M5.55981 16.7441H7.72125C8.95312 16.7441 9.69887 16.2078 9.69887 15.0849C9.69887 14.4066 9.31344 13.9369 8.93638 13.7944V13.7776C9.3135 13.5681 9.59837 13.1827 9.59837 12.5631C9.59837 11.6576 9.02019 11.0464 7.7805 11.0464H5.55981C5.51006 11.0464 5.47656 11.0799 5.47656 11.1301V16.6598C5.47656 16.7106 5.51006 16.7441 5.55981 16.7441ZM6.70844 12.0933C6.70844 12.0603 6.72413 12.0431 6.75869 12.0431H7.63019C8.09894 12.0431 8.3755 12.2861 8.3755 12.7046C8.3755 13.1241 8.09894 13.3754 7.63019 13.3754H6.75869C6.72413 13.3754 6.70844 13.3587 6.70844 13.3252V12.0933ZM6.70844 14.3721C6.70844 14.3391 6.72413 14.3224 6.75869 14.3224H7.69619C8.2 14.3224 8.46763 14.5989 8.46763 15.0352C8.46763 15.4788 8.2 15.7474 7.69619 15.7474H6.75869C6.72413 15.7474 6.70844 15.7302 6.70844 15.6967V14.3721Z" fill="#2EB8AE"/>
<path d="M11.345 16.7443H15.0578C15.1075 16.7443 15.141 16.7108 15.141 16.66V15.7304C15.141 15.6796 15.1075 15.6466 15.0578 15.6466H12.5438C12.5098 15.6466 12.4935 15.6298 12.4935 15.5958V11.1304C12.4935 11.0801 12.4605 11.0466 12.4097 11.0466H11.345C11.2947 11.0466 11.2617 11.0801 11.2617 11.1304V16.6601C11.2617 16.7108 11.2947 16.7443 11.345 16.7443Z" fill="#2EB8AE"/>
<path d="M18.296 16.836C19.2937 16.836 20.0809 16.3756 20.3742 15.4538C20.4999 15.06 20.5329 14.7415 20.5329 13.8952C20.5329 13.0488 20.4999 12.7303 20.3742 12.3365C20.0809 11.4153 19.2937 10.9543 18.296 10.9543C17.2988 10.9543 16.5112 11.4153 16.2183 12.3365C16.0921 12.7303 16.0586 13.0488 16.0586 13.8952C16.0586 14.7415 16.0921 15.06 16.2183 15.4538C16.5111 16.3757 17.2988 16.836 18.296 16.836ZM17.3993 12.6717C17.525 12.2779 17.8273 12.0433 18.296 12.0433C18.7652 12.0433 19.0669 12.2779 19.1926 12.6717C19.2597 12.8733 19.2847 13.1488 19.2847 13.8952C19.2847 14.6405 19.2596 14.9175 19.1926 15.1182C19.0669 15.5125 18.7652 15.7477 18.296 15.7477C17.8272 15.7477 17.525 15.5125 17.3993 15.1182C17.3328 14.9175 17.3072 14.6405 17.3072 13.8952C17.3072 13.1488 17.3328 12.8733 17.3993 12.6717Z" fill="#2EB8AE"/>
<path d="M24.2474 16.836C25.2525 16.836 26.0402 16.3253 26.3256 15.4113C26.4256 15.1018 26.4671 14.6326 26.4671 14.1298V13.66C26.4671 13.6107 26.4336 13.5767 26.3838 13.5767H24.4234C24.3726 13.5767 24.3391 13.6107 24.3391 13.66V14.4655C24.3391 14.5152 24.3726 14.5487 24.4234 14.5487H25.1938C25.2273 14.5487 25.2441 14.566 25.2441 14.599C25.2441 14.8415 25.2189 15.018 25.1771 15.161C25.0597 15.5376 24.691 15.7476 24.2637 15.7476C23.7693 15.7476 23.4587 15.5124 23.333 15.1181C23.2665 14.9175 23.2414 14.6404 23.2414 13.8952C23.2414 13.1488 23.2665 12.8812 23.333 12.6801C23.4587 12.2862 23.7609 12.0432 24.2474 12.0432C24.7162 12.0432 25.0006 12.2443 25.2273 12.6298C25.2441 12.6717 25.286 12.6885 25.3452 12.6717L26.2413 12.2946C26.2911 12.2695 26.3005 12.2192 26.2748 12.1684C26.0061 11.4812 25.3111 10.9543 24.2474 10.9543C23.2329 10.9543 22.4452 11.4153 22.1519 12.3365C22.0262 12.7303 21.9922 13.0488 21.9922 13.8952C21.9922 14.7415 22.0262 15.06 22.1519 15.4538C22.4452 16.3757 23.233 16.836 24.2474 16.836Z" fill="#2EB8AE"/>
</g>
<defs>
<clipPath id="clip0_2988_7756">
<rect width="32" height="32" fill="white"/>
</clipPath>
</defs>
</svg>
