<svg width="36" height="32" viewBox="0 0 36 32" fill="none" xmlns="http://www.w3.org/2000/svg">
<g clip-path="url(#clip0_3015_8444)">
<path d="M0.829052 23.1519L12.7811 2.90771C14.2992 3.79203 21.9549 7.98375 23.1912 8.78097L11.2392 29.0263C9.93213 30.7348 -0.826948 25.7446 0.829052 23.1508V23.1519Z" fill="#FBBC04"/>
<path d="M35.1679 23.1516L23.2159 2.90865C21.545 0.157487 17.9464 -0.842304 14.9906 0.7826C12.0348 2.4075 11.1348 5.90775 12.8057 8.78176L24.7577 29.0272C26.4286 31.7771 30.0274 32.7768 32.9832 31.152C35.8097 29.5269 36.8388 25.9026 35.1679 23.1539V23.1516Z" fill="#4285F4"/>
<path d="M5.99963 31.9344C9.31313 31.9344 11.9993 29.3429 11.9993 26.146C11.9993 22.9492 9.31313 20.3577 5.99963 20.3577C2.68612 20.3577 0 22.9492 0 26.146C0 29.3429 2.68612 31.9344 5.99963 31.9344Z" fill="#34A853"/>
</g>
<defs>
<clipPath id="clip0_3015_8444">
<rect width="36" height="32" fill="white"/>
</clipPath>
</defs>
</svg>
