<svg width="32" height="32" viewBox="0 0 32 32" fill="none" xmlns="http://www.w3.org/2000/svg">
<path fill-rule="evenodd" clip-rule="evenodd" d="M12.7912 4.26711C12.4665 4.54382 12.3041 4.68219 12.1307 4.7984C11.7333 5.0648 11.2869 5.2497 10.8174 5.34238C10.6127 5.38282 10.4 5.39978 9.97474 5.43371C8.90624 5.51899 8.37197 5.56162 7.92625 5.71906C6.89532 6.08319 6.08441 6.8941 5.72028 7.92503C5.56284 8.37075 5.52021 8.90502 5.43493 9.97352C5.401 10.3988 5.38404 10.6114 5.3436 10.8162C5.25092 11.2856 5.06603 11.732 4.79963 12.1295C4.68341 12.3029 4.54505 12.4652 4.26833 12.79C3.57308 13.6058 3.22544 14.0137 3.0216 14.4402C2.55009 15.4268 2.55009 16.5734 3.0216 17.56C3.22545 17.9865 3.57308 18.3944 4.26833 19.2102C4.54501 19.5349 4.68341 19.6973 4.79963 19.8706C5.06603 20.2681 5.25092 20.7145 5.3436 21.184C5.38404 21.3888 5.401 21.6014 5.43493 22.0266C5.52021 23.0951 5.56284 23.6294 5.72028 24.0751C6.08441 25.1061 6.89532 25.917 7.92625 26.2811C8.37197 26.4385 8.90624 26.4811 9.97474 26.5665C10.4 26.6003 10.6127 26.6174 10.8174 26.6578C11.2869 26.7505 11.7333 26.9354 12.1307 27.2018C12.3041 27.3179 12.4665 27.4563 12.7912 27.733C13.607 28.4283 14.0149 28.7759 14.4414 28.9798C15.428 29.4513 16.5746 29.4513 17.5612 28.9798C17.9877 28.7759 18.3956 28.4283 19.2114 27.733C19.5361 27.4563 19.6985 27.3179 19.8718 27.2018C20.2693 26.9354 20.7157 26.7505 21.1852 26.6578C21.39 26.6174 21.6026 26.6003 22.0278 26.5665C23.0964 26.4811 23.6306 26.4385 24.0764 26.2811C25.1073 25.917 25.9182 25.1061 26.2824 24.0751C26.4397 23.6294 26.4824 23.0951 26.5677 22.0266C26.6016 21.6014 26.6186 21.3888 26.659 21.184C26.7517 20.7145 26.9366 20.2681 27.203 19.8706C27.3192 19.6973 27.4576 19.5349 27.7342 19.2102C28.4296 18.3944 28.7772 17.9865 28.981 17.56C29.4525 16.5734 29.4525 15.4268 28.981 14.4402C28.7772 14.0137 28.4296 13.6058 27.7342 12.79C27.4576 12.4652 27.3192 12.3029 27.203 12.1295C26.9366 11.732 26.7517 11.2856 26.659 10.8162C26.6186 10.6114 26.6016 10.3988 26.5677 9.97352C26.4824 8.90502 26.4397 8.37075 26.2824 7.92503C25.9182 6.8941 25.1073 6.08319 24.0764 5.71906C23.6306 5.56162 23.0964 5.51899 22.0278 5.43371C21.6026 5.39978 21.39 5.38282 21.1852 5.34238C20.7157 5.2497 20.2693 5.0648 19.8718 4.7984C19.6985 4.68219 19.5361 4.54383 19.2114 4.26711C18.3956 3.57186 17.9877 3.22423 17.5612 3.02038C16.5746 2.54887 15.428 2.54887 14.4414 3.02038C14.0149 3.22422 13.607 3.57186 12.7912 4.26711ZM21.1092 10.8929C21.5329 11.3166 21.5329 12.0037 21.1092 12.4275L12.428 21.1086C12.0042 21.5325 11.3172 21.5325 10.8934 21.1086C10.4696 20.6849 10.4696 19.9978 10.8934 19.5741L19.5745 10.8929C19.9984 10.4691 20.6854 10.4691 21.1092 10.8929ZM21.0653 19.618C21.0653 20.417 20.4176 21.0648 19.6185 21.0648C18.8193 21.0648 18.1716 20.417 18.1716 19.618C18.1716 18.8189 18.8193 18.171 19.6185 18.171C20.4176 18.171 21.0653 18.8189 21.0653 19.618ZM12.3841 13.8305C13.1832 13.8305 13.831 13.1827 13.831 12.3836C13.831 11.5845 13.1832 10.9368 12.3841 10.9368C11.5851 10.9368 10.9373 11.5845 10.9373 12.3836C10.9373 13.1827 11.5851 13.8305 12.3841 13.8305Z" fill="#128C90"/>
</svg>
