<svg width="32" height="32" viewBox="0 0 32 32" fill="none" xmlns="http://www.w3.org/2000/svg">
<g clip-path="url(#clip0_2984_31399)">
<path d="M15.9998 31.9996C24.8363 31.9996 31.9996 24.8363 31.9996 15.9998C31.9996 7.16336 24.8363 0 15.9998 0C7.16336 0 0 7.16336 0 15.9998C0 24.8363 7.16336 31.9996 15.9998 31.9996Z" fill="#3A99D7"/>
<path d="M31.6539 19.3201C30.1268 26.5615 23.6933 32 15.9987 32C15.8017 32 15.6046 32 15.4076 31.9901L8.36328 24.9458L22.2943 9.97046L31.6539 19.33V19.3201Z" fill="#2682BF"/>
<path d="M8.36328 7.06396H19.388L22.2944 9.9704V24.9457H8.36328V7.06396Z" fill="#F7F7F8"/>
<path d="M19.3906 7.06396V9.9704H22.2971L19.3906 7.06396Z" fill="#CCCCCC"/>
<path d="M19.7834 10.9856H10.3945V11.8822H19.7834V10.9856Z" fill="#E84F4F"/>
<path d="M19.7834 12.6504H10.3945V13.547H19.7834V12.6504Z" fill="#E84F4F"/>
<path d="M19.7834 14.3057H10.3945V15.2022H19.7834V14.3057Z" fill="#E84F4F"/>
<path d="M19.7834 15.9604H10.3945V16.857H19.7834V15.9604Z" fill="#E84F4F"/>
<path d="M17.5865 17.626H10.3945V18.5225H17.5865V17.626Z" fill="#E84F4F"/>
<path d="M23.1578 14.5122L25.2089 16.4603L19.883 22.0512L17.832 20.103L23.1578 14.5122Z" fill="#E84F4F"/>
<path d="M17.8332 20.0984L19.8825 22.0491L17.8332 22.9556L17.0352 22.197L17.8332 20.0984Z" fill="#FFF094"/>
<path d="M18.8484 21.074L19.8829 22.0493L17.8336 22.9558L17.4297 22.5715L18.8583 21.074H18.8484Z" fill="#F0DD85"/>
<path d="M24.7601 13.8324L25.834 14.8472C26.1099 15.1132 26.0508 15.6157 25.7158 15.9802L25.2429 16.4728L25.233 16.4827L23.1641 14.5122L23.1739 14.5023L23.6469 14.0097C23.9917 13.6551 24.4941 13.5664 24.77 13.8323L24.7601 13.8324Z" fill="#00CC96"/>
<path d="M25.2909 14.335L25.8328 14.8473C26.1087 15.1133 26.0496 15.6158 25.7146 15.9803L25.2417 16.4729L25.2318 16.4828L24.1875 15.4975L25.2909 14.3448V14.335Z" fill="#12B589"/>
<path d="M17.833 22.9556L16.3945 23.6551L17.025 22.197L17.8231 22.9556L17.833 22.9556Z" fill="#9D9E9E"/>
<path d="M17.833 22.9558L16.3945 23.6553L17.429 22.5715L17.833 22.9558Z" fill="#727271"/>
</g>
<defs>
<clipPath id="clip0_2984_31399">
<rect width="32" height="32" fill="white"/>
</clipPath>
</defs>
</svg>
