<svg width="32" height="32" viewBox="0 0 32 32" fill="none" xmlns="http://www.w3.org/2000/svg">
<g clip-path="url(#clip0_2984_31418)">
<path fill-rule="evenodd" clip-rule="evenodd" d="M4.26827 0.214844C2.11056 0.214844 0.464844 2.00913 0.464844 4.09141V27.904C0.464844 29.9886 2.11056 31.7828 4.26827 31.7828H23.0683C25.226 31.7828 26.8717 29.9886 26.8717 27.904V4.21484C26.8717 3.15398 26.4503 2.13656 25.7001 1.38642C24.95 0.636271 23.9326 0.214844 22.8717 0.214844H4.26827Z" fill="#8FBFFA"/>
<path fill-rule="evenodd" clip-rule="evenodd" d="M2.17913 23.4285H0.464844V27.9085C0.464844 29.9908 2.11056 31.785 4.26827 31.785H23.0683C25.226 31.785 26.8717 29.9908 26.8717 27.9062V23.4285H2.17913ZM6.46484 6.87305C6.08596 6.87305 5.7226 7.02356 5.45469 7.29147C5.18678 7.55937 5.03627 7.92274 5.03627 8.30162C5.03627 8.6805 5.18678 9.04386 5.45469 9.31177C5.7226 9.57968 6.08596 9.73019 6.46484 9.73019H12.1677C12.5466 9.73019 12.9099 9.57968 13.1779 9.31177C13.4458 9.04386 13.5963 8.6805 13.5963 8.30162C13.5963 7.92274 13.4458 7.55937 13.1779 7.29147C12.9099 7.02356 12.5466 6.87305 12.1677 6.87305H6.46484ZM6.46484 13.4285C6.08596 13.4285 5.7226 13.579 5.45469 13.8469C5.18678 14.1148 5.03627 14.4782 5.03627 14.857C5.03627 15.2359 5.18678 15.5993 5.45469 15.8672C5.7226 16.1351 6.08596 16.2856 6.46484 16.2856H9.31742C9.6963 16.2856 10.0597 16.1351 10.3276 15.8672C10.5955 15.5993 10.746 15.2359 10.746 14.857C10.746 14.4782 10.5955 14.1148 10.3276 13.8469C10.0597 13.579 9.6963 13.4285 9.31742 13.4285H6.46484Z" fill="#2D9DC1"/>
<path d="M21.492 16.9006C21.3269 17.0671 21.1147 17.1788 20.884 17.2206L15.9743 18.1028C15.7942 18.1353 15.6091 18.124 15.4343 18.07C15.2595 18.016 15.1003 17.9208 14.97 17.7925C14.8396 17.6641 14.742 17.5064 14.6853 17.3325C14.6285 17.1586 14.6144 16.9736 14.644 16.7931L15.4645 11.8057C15.5032 11.5693 15.6151 11.351 15.7845 11.1817L25.1925 1.81942C25.405 1.60518 25.6578 1.43514 25.9364 1.3191C26.2149 1.20306 26.5137 1.14331 26.8154 1.14331C27.1171 1.14331 27.4159 1.20306 27.6944 1.3191C27.973 1.43514 28.2258 1.60518 28.4383 1.81942L30.8611 4.24228C31.0753 4.45476 31.2454 4.70757 31.3614 4.9861C31.4775 5.26464 31.5372 5.56339 31.5372 5.86514C31.5372 6.16688 31.4775 6.46563 31.3614 6.74417C31.2454 7.0227 31.0753 7.27551 30.8611 7.48799L21.492 16.9006Z" fill="#2D9DC1"/>
</g>
<defs>
<clipPath id="clip0_2984_31418">
<rect width="32" height="32" fill="white"/>
</clipPath>
</defs>
</svg>
