<svg width="32" height="32" viewBox="0 0 32 32" fill="none" xmlns="http://www.w3.org/2000/svg">
<path d="M12.8013 4.42678C11.7828 4.42678 10.7872 4.72896 9.94059 5.29508C9.09393 5.86119 8.43428 6.66578 8.04514 7.60699C7.656 8.5482 7.55486 9.5837 7.75452 10.5824C7.95419 11.5811 8.44569 12.4982 9.1668 13.2174C9.88791 13.9366 10.8062 14.4258 11.8054 14.6228C12.8047 14.8199 13.8399 14.7161 14.7801 14.3245C15.7203 13.9329 16.5232 13.2712 17.0871 12.4231C17.651 11.575 17.9506 10.5786 17.948 9.56011C17.948 8.88487 17.8148 8.21626 17.5559 7.59258C17.2971 6.96891 16.9178 6.40242 16.4397 5.92557C15.9617 5.44872 15.3942 5.07088 14.7698 4.81369C14.1455 4.5565 13.4765 4.42502 12.8013 4.42678ZM21.8013 14.6668C21.7221 14.6683 21.6459 14.697 21.5852 14.7479C21.5246 14.7989 21.4832 14.869 21.468 14.9468L21.228 16.6401C20.8442 16.8027 20.4779 17.0037 20.1346 17.2401L18.5346 16.6001C18.4583 16.5872 18.3799 16.5967 18.3089 16.6275C18.238 16.6583 18.1774 16.709 18.1346 16.7734L16.8013 18.9868C16.7624 19.0537 16.749 19.1325 16.7638 19.2085C16.7785 19.2845 16.8202 19.3525 16.8813 19.4001L18.2146 20.4534C18.158 20.8961 18.158 21.3441 18.2146 21.7868L16.8813 22.8401C16.8212 22.8854 16.7799 22.9511 16.7652 23.0249C16.7504 23.0986 16.7633 23.1752 16.8013 23.2401L18.1346 25.4668C18.2146 25.6401 18.388 25.6401 18.5346 25.6401L20.1346 24.9868C20.4727 25.2351 20.8398 25.4411 21.228 25.6001L21.468 27.2934C21.481 27.3711 21.5222 27.4413 21.5837 27.4905C21.6452 27.5397 21.7227 27.5645 21.8013 27.5601H24.3746C24.4487 27.5581 24.5198 27.5303 24.5757 27.4817C24.6317 27.4331 24.669 27.3665 24.6813 27.2934L24.9213 25.6001C25.2996 25.4297 25.6612 25.2244 26.0013 24.9868L27.588 25.6401C27.748 25.6401 27.9213 25.6401 28.0146 25.4668L29.348 23.2401C29.386 23.1752 29.3989 23.0986 29.3841 23.0249C29.3694 22.9511 29.328 22.8854 29.268 22.8401L27.9346 21.7868C27.948 21.5692 27.948 21.351 27.9346 21.1334C27.9539 20.9205 27.9539 20.7063 27.9346 20.4934L29.268 19.4401C29.3268 19.3909 29.3669 19.323 29.3815 19.2477C29.3961 19.1724 29.3842 19.0944 29.348 19.0268L28.0146 16.8134C27.9346 16.6401 27.7613 16.6401 27.6013 16.6401L26.0013 17.3334C25.6611 17.0921 25.2943 16.8908 24.908 16.7334L24.668 15.0401C24.6615 14.9657 24.6282 14.8963 24.5742 14.8447C24.5202 14.7932 24.4492 14.7631 24.3746 14.7601H21.948M12.948 17.3334C7.26797 17.3334 2.66797 19.6001 2.66797 22.4401V25.0001H15.108C14.5467 23.8143 14.2556 22.5187 14.2556 21.2068C14.2556 19.8948 14.5467 18.5993 15.108 17.4134C14.3902 17.3437 13.6689 17.317 12.948 17.3334ZM23.0813 19.2401C23.3478 19.2179 23.616 19.2513 23.8689 19.338C24.1219 19.4248 24.3541 19.563 24.5508 19.7441C24.7476 19.9252 24.9047 20.1451 25.0121 20.39C25.1196 20.6349 25.1751 20.8994 25.1751 21.1668C25.1751 21.4342 25.1196 21.6987 25.0121 21.9436C24.9047 22.1884 24.7476 22.4084 24.5508 22.5894C24.3541 22.7705 24.1219 22.9088 23.8689 22.9955C23.616 23.0823 23.3478 23.1156 23.0813 23.0934C22.598 23.0532 22.1475 22.8328 21.8191 22.4759C21.4907 22.119 21.3084 21.6518 21.3084 21.1668C21.3084 20.6818 21.4907 20.2145 21.8191 19.8576C22.1475 19.5008 22.598 19.2803 23.0813 19.2401Z" fill="#2D9DC1"/>
</svg>
