<svg width="32" height="32" viewBox="0 0 32 32" fill="none" xmlns="http://www.w3.org/2000/svg">
<g clip-path="url(#clip0_2988_7767)">
<path d="M26.6667 29.3334H5.33333C4.97971 29.3334 4.64057 29.1929 4.39052 28.9429C4.14048 28.6928 4 28.3537 4 28.0001V4.00008C4 3.64646 4.14048 3.30732 4.39052 3.05727C4.64057 2.80722 4.97971 2.66675 5.33333 2.66675H26.6667C27.0203 2.66675 27.3594 2.80722 27.6095 3.05727C27.8595 3.30732 28 3.64646 28 4.00008V28.0001C28 28.3537 27.8595 28.6928 27.6095 28.9429C27.3594 29.1929 27.0203 29.3334 26.6667 29.3334ZM9.33333 8.00008V13.3334H14.6667V8.00008H9.33333ZM9.33333 16.0001V18.6667H22.6667V16.0001H9.33333ZM9.33333 21.3334V24.0001H22.6667V21.3334H9.33333ZM17.3333 9.33341V12.0001H22.6667V9.33341H17.3333Z" fill="#71A02D"/>
</g>
<defs>
<clipPath id="clip0_2988_7767">
<rect width="32" height="32" fill="white"/>
</clipPath>
</defs>
</svg>
