<svg width="36" height="36" viewBox="0 0 36 36" fill="none" xmlns="http://www.w3.org/2000/svg">
<path d="M27.9536 18.2023L18.9219 20.2079V33.1278L28.3473 31.0299C28.5526 30.9855 28.7366 30.8722 28.8686 30.7088C29.0007 30.5454 29.0729 30.3417 29.0732 30.1317V19.1005C29.0734 18.9626 29.0425 18.8266 28.983 18.7023C28.9234 18.578 28.8367 18.4687 28.7292 18.3824C28.6217 18.2962 28.4962 18.2352 28.3619 18.204C28.2277 18.1728 28.0881 18.1722 27.9536 18.2023ZM26.6554 28.1691L21.7335 29.2642C20.5568 29.515 20.1462 27.7437 21.3337 27.4616L26.2556 26.3665C27.4426 26.1228 27.8377 27.8864 26.6554 28.1691ZM26.6554 23.8624L21.7335 24.9576C20.5568 25.2084 20.1462 23.437 21.3337 23.155L26.2556 22.0598C27.4426 21.8162 27.8377 23.5797 26.6554 23.8624Z" fill="#1D4D87"/>
<path d="M6.92579 19.1006V30.1318C6.92488 30.3413 6.99586 30.5448 7.12688 30.7082C7.25791 30.8717 7.44104 30.9853 7.64572 31.0301L17.0772 33.128V20.208L8.04556 18.2024C7.91099 18.1719 7.77128 18.1721 7.63683 18.2031C7.50238 18.2341 7.37666 18.2951 7.26903 18.3814C7.1614 18.4677 7.07464 18.5772 7.01521 18.7018C6.95578 18.8263 6.92521 18.9626 6.92579 19.1006ZM9.73745 21.9369L14.6593 23.032C14.7777 23.0583 14.8897 23.1076 14.989 23.1771C15.0883 23.2467 15.173 23.3351 15.2381 23.4374C15.3032 23.5396 15.3476 23.6537 15.3686 23.7731C15.3896 23.8925 15.387 24.0149 15.3607 24.1332C15.3345 24.2516 15.2851 24.3636 15.2156 24.4629C15.146 24.5622 15.0576 24.6469 14.9554 24.712C14.8531 24.7771 14.739 24.8215 14.6196 24.8425C14.5002 24.8636 14.3778 24.8609 14.2595 24.8346L9.33761 23.7395C8.15776 23.4575 8.54784 21.6932 9.73745 21.9369ZM9.73745 26.2435L14.6593 27.3387C14.7777 27.3649 14.8897 27.4142 14.989 27.4838C15.0883 27.5533 15.173 27.6417 15.2381 27.744C15.3032 27.8463 15.3476 27.9603 15.3686 28.0797C15.3896 28.1991 15.387 28.3215 15.3607 28.4399C15.3345 28.5582 15.2851 28.6703 15.2156 28.7696C15.146 28.8689 15.0576 28.9535 14.9554 29.0186C14.8531 29.0838 14.739 29.1281 14.6196 29.1492C14.5002 29.1702 14.3778 29.1675 14.2595 29.1413L9.33761 28.0461C8.15776 27.7642 8.54784 25.9998 9.73745 26.2435Z" fill="#1D4D87"/>
<path d="M20.7694 13.9512H15.2323C14.8413 18.4417 21.1562 18.4444 20.7694 13.9512Z" fill="#1D4D87"/>
<path d="M15.7378 12.105H20.2599L21.4472 10.4193C22.0127 9.60796 22.2751 8.62371 22.1885 7.63856C22.1019 6.65341 21.6719 5.73003 20.9735 5.02982C17.2782 1.50244 11.7169 6.17002 14.5566 10.4193L15.7378 12.105Z" fill="#1D4D87"/>
<path d="M23.8432 12.4451C24.1462 12.5864 24.9292 13.1763 25.2798 13.1326C26.1957 13.1545 26.558 11.8612 25.7418 11.4104L24.7661 10.8469C23.7062 10.2569 22.8029 11.8212 23.8432 12.4451Z" fill="#1D4D87"/>
<path d="M11.2315 10.8466L10.2552 11.4101C9.43865 11.8613 9.80154 13.1539 10.7172 13.1327C11.072 13.1744 11.8464 12.5876 12.1544 12.4454C13.1946 11.8206 12.2921 10.2591 11.2315 10.8466Z" fill="#1D4D87"/>
<path d="M24.3555 8.00635C24.3555 8.2511 24.4527 8.48582 24.6258 8.65889C24.7988 8.83196 25.0336 8.92919 25.2783 8.9292H26.4049C27.6179 8.9087 27.6176 7.104 26.4049 7.0835H25.2783C25.0336 7.08351 24.7988 7.18074 24.6258 7.35381C24.4527 7.52687 24.3555 7.7616 24.3555 8.00635Z" fill="#1D4D87"/>
<path d="M9.59082 8.9292H10.7173C11.9304 8.9087 11.9301 7.104 10.7173 7.0835H9.59082C9.34607 7.0835 9.11133 7.18072 8.93827 7.35379C8.7652 7.52686 8.66797 7.76159 8.66797 8.00635C8.66797 8.2511 8.7652 8.48583 8.93827 8.6589C9.11133 8.83197 9.34607 8.9292 9.59082 8.9292Z" fill="#1D4D87"/>
<path d="M24.3031 5.28893C24.6579 5.33046 25.4318 4.74354 25.7397 4.60137C26.7805 3.97728 25.8761 2.4132 24.8168 3.00317L23.8411 3.56673C23.0245 4.01753 23.3877 5.31056 24.3031 5.28893Z" fill="#1D4D87"/>
<path d="M10.2573 4.60182C10.5603 4.74315 11.3437 5.33286 11.6944 5.28908C12.6105 5.31064 12.9727 4.01753 12.1565 3.56654L11.1801 3.00306C10.1193 2.41483 9.21743 3.97751 10.2573 4.60182Z" fill="#1D4D87"/>
</svg>
