<svg width="32" height="32" viewBox="0 0 32 32" fill="none" xmlns="http://www.w3.org/2000/svg">
<g clip-path="url(#clip0_3015_8451)">
<path d="M12 2C17.514 2 22 6.486 22 12C22 17.514 17.514 22 12 22C6.486 22 2 17.514 2 12C2 6.486 6.486 2 12 2Z" fill="#FDFFFF"/>
<path d="M12.0016 2C9.24459 2 6.74459 3.122 4.93359 4.932L19.0686 19.067C20.8796 17.257 22.0016 14.757 22.0016 12C22.0016 6.486 17.5156 2 12.0016 2Z" fill="#E1E5E5"/>
<path d="M12 2C17.514 2 22 6.486 22 12C22 17.514 17.514 22 12 22C6.486 22 2 17.514 2 12C2 6.486 6.486 2 12 2ZM12 0C5.373 0 0 5.373 0 12C0 18.627 5.373 24 12 24C18.627 24 24 18.627 24 12C24 5.373 18.627 0 12 0ZM29 32L32 29L24 21L21 24L29 32ZM15 12H9V11H15V12ZM15 13H9V14H15V13ZM15 9H9V10H15V9Z" fill="#0E59AE"/>
<path d="M15 10H10L9 9H15V10ZM15 11H11L12 12H15V11ZM15 13H13L14 14H15V13ZM19.961 20.961L22 23L23 22L20.961 19.961C20.648 20.314 20.314 20.648 19.961 20.961Z" fill="#8D998E"/>
</g>
<defs>
<clipPath id="clip0_3015_8451">
<rect width="32" height="32" fill="white"/>
</clipPath>
</defs>
</svg>
