<svg width="59" height="58" viewBox="0 0 59 58" fill="none" xmlns="http://www.w3.org/2000/svg">
<path d="M19.818 57.3292C36.3499 60.2443 51.1826 47.7105 53.5325 34.3835C55.8824 21.0565 45.6862 18.81 43.2435 11.2661C40.3139 2.21795 32.9121 -0.297735 25.3445 0.0271808C17.5739 0.360783 13.5739 7.19971 13.1274 14.9454C12.2918 29.4382 3.37959 26.0693 2.28933 37.408C1.19907 48.7467 12.3241 56.0079 19.818 57.3292Z" fill="#E7EEF7"/>
<path d="M18.9154 41.4096C18.9154 41.2892 18.8917 41.17 18.8456 41.0588C18.7995 40.9476 18.732 40.8465 18.6469 40.7614C18.5618 40.6763 18.4607 40.6088 18.3495 40.5627C18.2383 40.5166 18.1191 40.4929 17.9987 40.4929H15.2487C15.1283 40.4929 15.0091 40.5166 14.8979 40.5627C14.7867 40.6088 14.6856 40.6763 14.6005 40.7614C14.5154 40.8465 14.4479 40.9476 14.4018 41.0588C14.3557 41.17 14.332 41.2892 14.332 41.4096V45.9929C14.332 46.236 14.4286 46.4692 14.6005 46.6411C14.7724 46.813 15.0056 46.9096 15.2487 46.9096H17.9987C18.2418 46.9096 18.475 46.813 18.6469 46.6411C18.8188 46.4692 18.9154 46.236 18.9154 45.9929V41.4096ZM43.6654 41.4096C43.6654 41.2892 43.6417 41.17 43.5956 41.0588C43.5495 40.9476 43.482 40.8465 43.3969 40.7614C43.3118 40.6763 43.2107 40.6088 43.0995 40.5627C42.9883 40.5166 42.8691 40.4929 42.7487 40.4929H39.9987C39.8783 40.4929 39.7591 40.5166 39.6479 40.5627C39.5367 40.6088 39.4356 40.6763 39.3505 40.7614C39.2654 40.8465 39.1979 40.9476 39.1518 41.0588C39.1057 41.17 39.082 41.2892 39.082 41.4096V45.9929C39.082 46.236 39.1786 46.4692 39.3505 46.6411C39.5224 46.813 39.7556 46.9096 39.9987 46.9096H42.7487C42.9918 46.9096 43.225 46.813 43.3969 46.6411C43.5688 46.4692 43.6654 46.236 43.6654 45.9929V41.4096Z" fill="#6D4C41"/>
<path d="M40 34.9928H18C18 34.9928 21.0791 26.7428 21.6667 25.8262C22.2543 24.9095 23.1993 24.9095 23.5 24.9095H34.5C34.6962 24.9095 35.7888 24.8811 36.3333 25.8262C36.7953 26.6292 40 34.9928 40 34.9928Z" fill="#E3F2FD"/>
<path d="M41.832 34.0763L28.9987 33.1597L16.1654 34.0763C15.6791 34.0763 15.2128 34.2695 14.869 34.6133C14.5252 34.9571 14.332 35.4234 14.332 35.9097V43.243C14.332 43.4861 14.4286 43.7193 14.6005 43.8912C14.7724 44.0631 15.0056 44.1597 15.2487 44.1597H42.7487C42.9918 44.1597 43.225 44.0631 43.3969 43.8912C43.5688 43.7193 43.6654 43.4861 43.6654 43.243V35.9097C43.6654 35.4234 43.4722 34.9571 43.1284 34.6133C42.7846 34.2695 42.3183 34.0763 41.832 34.0763Z" fill="#0E59AE"/>
<path d="M34.5 25.8263C34.8107 25.8263 36.4094 25.9482 37.3838 28.3489C37.5791 28.8283 39.2135 32.9222 39.2135 32.9231L39.6746 34.0763H18.3263L18.7865 32.9203C19.3383 31.5334 20.4292 28.7963 20.6079 28.3645C21.5906 26.0087 23.0701 25.8263 23.5 25.8263H34.5ZM34.5028 23.9929H34.5H23.5C23.1993 23.9929 20.4448 23.9929 18.9167 27.6596C18.6838 28.2188 17.0833 32.2429 17.0833 32.2429H13.4167C13.2963 32.2429 13.1771 32.2666 13.0659 32.3127C12.9547 32.3588 12.8536 32.4263 12.7685 32.5114C12.6834 32.5965 12.6158 32.6976 12.5698 32.8088C12.5237 32.92 12.5 33.0392 12.5 33.1596V34.9929C12.5 35.1133 12.5237 35.2325 12.5698 35.3437C12.6158 35.4549 12.6834 35.556 12.7685 35.6411C12.8536 35.7262 12.9547 35.7937 13.0659 35.8398C13.1771 35.8859 13.2963 35.9096 13.4167 35.9096H44.5833C44.8265 35.9096 45.0596 35.813 45.2315 35.6411C45.4034 35.4692 45.5 35.236 45.5 34.9929V33.1596C45.5 32.9165 45.4034 32.6833 45.2315 32.5114C45.0596 32.3395 44.8265 32.2429 44.5833 32.2429H40.9167C40.9167 32.2429 39.2786 28.1399 39.0833 27.6596C37.5938 23.9929 34.7768 23.9929 34.5 23.9929H34.4945H34.5028Z" fill="#0E59AE"/>
<path d="M41.8346 39.5763C41.8346 39.6967 41.8109 39.8159 41.7649 39.9271C41.7188 40.0383 41.6513 40.1394 41.5662 40.2245C41.481 40.3096 41.38 40.3772 41.2688 40.4232C41.1575 40.4693 41.0383 40.493 40.918 40.493H17.0846C16.9643 40.493 16.8451 40.4693 16.7338 40.4232C16.6226 40.3772 16.5216 40.3096 16.4365 40.2245C16.3513 40.1394 16.2838 40.0383 16.2377 39.9271C16.1917 39.8159 16.168 39.6967 16.168 39.5763V36.8263C16.168 36.706 16.1917 36.5868 16.2377 36.4755C16.2838 36.3643 16.3513 36.2633 16.4365 36.1782C16.5216 36.093 16.6226 36.0255 16.7338 35.9794C16.8451 35.9334 16.9643 35.9097 17.0846 35.9097H40.918C41.0383 35.9097 41.1575 35.9334 41.2688 35.9794C41.38 36.0255 41.481 36.093 41.5662 36.1782C41.6513 36.2633 41.7188 36.3643 41.7649 36.4755C41.8109 36.5868 41.8346 36.706 41.8346 36.8263V39.5763Z" fill="#2C7DFF"/>
<path d="M17.082 38.2012C17.082 38.5658 17.2269 38.9156 17.4848 39.1734C17.7426 39.4313 18.0924 39.5762 18.457 39.5762C18.8217 39.5762 19.1714 39.4313 19.4293 39.1734C19.6872 38.9156 19.832 38.5658 19.832 38.2012C19.832 37.8365 19.6872 37.4868 19.4293 37.2289C19.1714 36.971 18.8217 36.8262 18.457 36.8262C18.0924 36.8262 17.7426 36.971 17.4848 37.2289C17.2269 37.4868 17.082 37.8365 17.082 38.2012Z" fill="#FFF176"/>
<path d="M38.168 38.2012C38.168 38.5658 38.3128 38.9156 38.5707 39.1734C38.8286 39.4313 39.1783 39.5762 39.543 39.5762C39.9076 39.5762 40.2574 39.4313 40.5152 39.1734C40.7731 38.9156 40.918 38.5658 40.918 38.2012C40.918 37.8365 40.7731 37.4868 40.5152 37.2289C40.2574 36.971 39.9076 36.8262 39.543 36.8262C39.1783 36.8262 38.8286 36.971 38.5707 37.2289C38.3128 37.4868 38.168 37.8365 38.168 38.2012Z" fill="#FFF176"/>
<path d="M37.2487 17.5763H25.332V13.9097H29.9154V15.743L31.7487 13.9097H33.582V15.743L35.4154 13.9097H37.2487L39.082 14.8245V16.6597L37.2487 17.5763Z" fill="#FFA000"/>
<path d="M23.5013 11.1597C20.9695 11.1597 18.918 13.2112 18.918 15.743C18.918 18.2748 20.9695 20.3263 23.5013 20.3263C26.0331 20.3263 28.0846 18.2748 28.0846 15.743C28.0846 13.2112 26.0331 11.1597 23.5013 11.1597ZM21.668 16.6597C21.4249 16.6597 21.1917 16.5631 21.0198 16.3912C20.8479 16.2193 20.7513 15.9861 20.7513 15.743C20.7513 15.4999 20.8479 15.2667 21.0198 15.0948C21.1917 14.9229 21.4249 14.8263 21.668 14.8263C21.9111 14.8263 22.1442 14.9229 22.3161 15.0948C22.4881 15.2667 22.5846 15.4999 22.5846 15.743C22.5846 15.9861 22.4881 16.2193 22.3161 16.3912C22.1442 16.5631 21.9111 16.6597 21.668 16.6597Z" fill="#FFA000"/>
<path d="M29.9155 17.5763V13.9097H27.6953C27.9499 14.4873 28.0814 15.1117 28.0814 15.743C28.0814 16.3743 27.9499 16.9987 27.6953 17.5763H29.9155Z" fill="#D67C05"/>
</svg>
