<svg width="60" height="51" viewBox="0 0 60 51" fill="none" xmlns="http://www.w3.org/2000/svg">
<path d="M2.99263 36.3968C11.3861 50.9347 30.5219 54.2407 42.2414 47.4744C53.961 40.7081 49.1278 31.4533 53.3367 24.733C58.3848 16.6727 55.5542 9.38557 50.4409 3.7973C45.1905 -1.94093 37.3805 -0.609069 31.1599 4.02771C19.5207 12.7034 16.3727 3.71075 6.98599 10.1639C-2.40078 16.6171 -0.812092 29.8068 2.99263 36.3968Z" fill="#E7EEF7"/>
<g clip-path="url(#clip0_901_19148)">
<path d="M30.2135 6.052L12.9961 23.2694V25.1825V45.1536C12.9961 45.9462 13.6383 46.5885 14.4309 46.5885H45.9962C46.7888 46.5885 47.431 45.9462 47.431 45.1536V23.2694L30.2135 6.052Z" fill="#B4CCE6"/>
<path d="M30.2148 6.052V46.5885H45.9975C46.7901 46.5885 47.4323 45.9462 47.4323 45.1536V23.2694L30.2148 6.052Z" fill="#0E59AE"/>
<path d="M47.4329 23.6318L38.8242 15.0231V11.6753C38.8242 10.8829 39.4666 10.2405 40.259 10.2405H45.9982C46.7906 10.2405 47.433 10.8829 47.433 11.6753V23.6318H47.4329Z" fill="#051F3D"/>
<path d="M50.7802 27.9363C50.4131 27.9363 50.0459 27.7961 49.7658 27.5159L30.2149 7.96516L10.664 27.5159C10.1036 28.0763 9.19563 28.0763 8.63514 27.5159C8.07474 26.9559 8.07474 26.047 8.63514 25.487L29.2004 4.92176C29.7608 4.36136 30.6688 4.36136 31.2293 4.92176L51.7945 25.487C52.3549 26.047 52.3549 26.9558 51.7945 27.5159C51.5143 27.7961 51.1472 27.9363 50.7802 27.9363Z" fill="#2C7DFF"/>
<path d="M31.2293 4.92187C30.9491 4.64163 30.582 4.50146 30.2148 4.50146V7.9651L49.7657 27.516C50.046 27.7962 50.4131 27.9364 50.7802 27.9364C51.1472 27.9364 51.5144 27.7962 51.7946 27.516C52.355 26.956 52.355 26.0472 51.7946 25.4871L31.2293 4.92187Z" fill="#2C7DFF"/>
<path d="M40.3173 34.0963L38.8825 32.6614C38.6146 32.3936 38.2512 32.2406 37.8686 32.2406H35.9555V30.3275C35.9555 29.945 35.8025 29.5814 35.5347 29.3137L33.0382 26.8172C33.0669 26.5493 33.0861 26.2815 33.0861 26.0233C33.0861 23.6798 31.9574 21.5946 30.2165 20.3033C29.0209 19.385 27.5287 18.8494 25.9122 18.8494C21.9522 18.8494 18.7383 22.0633 18.7383 26.0233C18.7383 29.9833 21.9522 33.1972 25.9122 33.1972C26.1704 33.1972 26.4383 33.178 26.7061 33.1493L33.9853 40.4285C34.253 40.6963 34.6166 40.8493 34.9991 40.8493H39.3035C40.0974 40.8493 40.7383 40.2085 40.7383 39.4145V35.1101C40.7382 34.7276 40.5851 34.364 40.3173 34.0963Z" fill="#EFBE44"/>
<path d="M25.9114 24.5884C25.4767 24.5884 25.0881 24.7823 24.825 25.0877C24.6084 25.339 24.4766 25.6654 24.4766 26.0232C24.4766 26.8155 25.1189 27.458 25.9114 27.458C26.2691 27.458 26.5956 27.3262 26.8469 27.1096C27.1521 26.8466 27.3462 26.4579 27.3462 26.0232C27.3462 25.2308 26.7038 24.5884 25.9114 24.5884Z" fill="#95673F"/>
<path d="M25.9122 27.4579C25.1198 27.4579 24.4774 26.8155 24.4774 26.0231C24.4774 25.6653 24.6092 25.3389 24.8258 25.0876L20.7666 21.0283C19.5122 22.3204 18.7383 24.0814 18.7383 26.0231C18.7383 29.9831 21.9522 33.197 25.9122 33.197C26.1704 33.197 26.4383 33.1778 26.7061 33.1491L33.9853 40.4283C34.253 40.696 34.6166 40.8492 34.9992 40.8492H39.3035C39.662 40.8492 39.9883 40.7177 40.2395 40.5014L26.8477 27.1095C26.5964 27.3261 26.2699 27.4579 25.9122 27.4579Z" fill="#EFBE44"/>
<path d="M40.7372 39.4145V35.1101C40.7372 34.7276 40.5841 34.364 40.3164 34.0963L38.8815 32.6614C38.6137 32.3936 38.2502 32.2406 37.8677 32.2406H35.9546V30.3275C35.9546 29.945 35.8015 29.5814 35.5338 29.3137L33.0373 26.8172C33.066 26.5493 33.0851 26.2815 33.0851 26.0233C33.0851 23.6798 31.9564 21.5946 30.2156 20.3033C29.0199 19.385 27.5277 18.8494 25.9112 18.8494C23.8929 18.8494 22.0696 19.6855 20.7656 21.0286L24.8248 25.0878C25.0879 24.7825 25.4766 24.5885 25.9112 24.5885C26.7036 24.5885 27.346 25.2309 27.346 26.0234C27.346 26.458 27.152 26.8466 26.8467 27.1098L40.2387 40.5017C40.5436 40.2386 40.7372 39.85 40.7372 39.4145Z" fill="#E4A738"/>
<path d="M27.3455 26.0232C27.3455 25.2308 26.7031 24.5884 25.9106 24.5884C25.476 24.5884 25.0874 24.7823 24.8242 25.0877L26.8462 27.1095C27.1514 26.8465 27.3455 26.4579 27.3455 26.0232Z" fill="#875334"/>
</g>
<defs>
<clipPath id="clip0_901_19148">
<rect width="44" height="44" fill="white" transform="translate(8.21484 3.54492)"/>
</clipPath>
</defs>
</svg>
