<svg width="59" height="57" viewBox="0 0 59 57" fill="none" xmlns="http://www.w3.org/2000/svg">
<path d="M11.1775 52.5361C25.7155 60.9296 43.9405 54.2247 50.7068 42.5052C57.4731 30.7856 48.6601 25.1873 48.9449 17.2629C49.2866 7.75843 43.1916 2.8629 35.9693 0.579953C28.5531 -1.76428 22.4554 3.29415 19.3866 10.42C13.6446 23.753 6.42205 17.5391 1.51947 27.8211C-3.3831 38.1031 4.58757 48.7314 11.1775 52.5361Z" fill="#E7EEF7"/>
<path d="M41.2634 10.7404L34.2208 17.784L16.9248 13.2995L14.3675 15.8629L28.4559 23.5493L21.4088 30.5963L14.3908 28.8539L13.1914 30.0569L23.182 36.5055L32.2966 27.3887L39.9817 41.4784L42.5429 38.9189L38.0615 21.6252L45.1028 14.5799C46.1681 13.5164 46.1681 11.8026 45.1046 10.7369C44.0429 9.67695 42.3273 9.67695 41.2634 10.7404Z" fill="#0E59AE"/>
<path d="M16.9249 13.2996L14.3672 15.863L28.4555 23.5494L34.2209 17.784L16.9249 13.2996Z" fill="#0E59AE"/>
<path d="M13.2664 16.6476L6.52344 23.3906L6.83861 23.7058L13.5816 16.9628L13.2664 16.6476Z" fill="#F1B57D"/>
<path d="M15.3733 17.7961L9.96875 23.2007L10.2839 23.5159L15.6885 18.1113L15.3733 17.7961Z" fill="#F1B57D"/>
<path d="M17.4755 18.9446L13.9922 22.428L14.3074 22.7431L17.7907 19.2598L17.4755 18.9446Z" fill="#F1B57D"/>
<path d="M19.5822 20.0924L17.1094 22.5652L17.4245 22.8804L19.8974 20.4075L19.5822 20.0924Z" fill="#F1B57D"/>
<path d="M21.6846 21.2407L19.9414 22.9839L20.2566 23.2991L21.9998 21.5558L21.6846 21.2407Z" fill="#F1B57D"/>
<path d="M23.6232 22.2974L22.5859 23.3347L22.9011 23.6499L23.9384 22.6126L23.6232 22.2974Z" fill="#F1B57D"/>
<path d="M25.4442 23.3525L24.7227 24.074L25.0378 24.3891L25.7593 23.6676L25.4442 23.3525Z" fill="#F1B57D"/>
<path d="M38.8839 42.265L32.1406 49.0083L32.4558 49.3235L39.1991 42.5802L38.8839 42.265Z" fill="#F1B57D"/>
<path d="M37.7323 40.1602L32.3281 45.5645L32.6433 45.8796L38.0475 40.4754L37.7323 40.1602Z" fill="#F1B57D"/>
<path d="M36.5849 38.0545L33.1016 41.5378L33.4167 41.853L36.9001 38.3697L36.5849 38.0545Z" fill="#F1B57D"/>
<path d="M35.4377 35.9498L32.9648 38.4226L33.28 38.7378L35.7528 36.265L35.4377 35.9498Z" fill="#F1B57D"/>
<path d="M34.2898 33.842L32.5469 35.585L32.862 35.9001L34.605 34.1572L34.2898 33.842Z" fill="#F1B57D"/>
<path d="M33.2326 31.9075L32.1953 32.9448L32.5105 33.26L33.5478 32.2227L33.2326 31.9075Z" fill="#F1B57D"/>
<path d="M32.1785 30.0876L31.457 30.8091L31.7722 31.1243L32.4937 30.4028L32.1785 30.0876Z" fill="#F1B57D"/>
<path d="M42.1118 12.5736C42.0247 12.4865 41.8839 12.4865 41.7968 12.5736L41.245 13.1254C41.1579 13.2125 41.1579 13.3533 41.245 13.4404C41.2886 13.484 41.3458 13.5056 41.4025 13.5056C41.4593 13.5056 41.5165 13.484 41.5601 13.4404L42.1118 12.8887C42.1989 12.8016 42.1989 12.6608 42.1118 12.5736Z" fill="white"/>
<path d="M28.4479 25.9254L27.2841 27.0892C27.197 27.1764 27.197 27.3172 27.2841 27.4043C27.3276 27.4478 27.3844 27.4694 27.4416 27.4694C27.4988 27.4694 27.5556 27.4478 27.5991 27.4043L28.7629 26.2405C28.85 26.1534 28.85 26.0126 28.7629 25.9254C28.6758 25.8383 28.535 25.8383 28.4479 25.9254Z" fill="white"/>
<path d="M33.1002 21.2706L31.9364 22.4344C31.8493 22.5215 31.8493 22.6623 31.9364 22.7494C31.98 22.793 32.0368 22.8145 32.094 22.8145C32.1512 22.8145 32.2079 22.793 32.2515 22.7494L33.4153 21.5856C33.5024 21.4985 33.5024 21.3577 33.4153 21.2706C33.3286 21.1839 33.1874 21.1839 33.1002 21.2706Z" fill="white"/>
<path d="M35.4284 18.9435L34.2646 20.1073C34.1774 20.1944 34.1774 20.3352 34.2646 20.4224C34.3081 20.4659 34.3653 20.4875 34.4221 20.4875C34.4788 20.4875 34.536 20.4659 34.5796 20.4224L35.7434 19.2586C35.8305 19.1714 35.8305 19.0306 35.7434 18.9435C35.6563 18.8564 35.5155 18.8564 35.4284 18.9435Z" fill="white"/>
<path d="M40.0846 14.2887L38.9208 15.4525C38.8337 15.5396 38.8337 15.6804 38.9208 15.7676C38.9644 15.8111 39.0216 15.8327 39.0783 15.8327C39.1351 15.8327 39.1923 15.8111 39.2359 15.7676L40.3996 14.6038C40.4868 14.5166 40.4868 14.3758 40.3996 14.2887C40.3125 14.2016 40.1717 14.2016 40.0846 14.2887Z" fill="white"/>
<path d="M37.7565 16.616L36.5927 17.7798C36.5056 17.867 36.5056 18.0078 36.5927 18.0949C36.6362 18.1384 36.6934 18.16 36.7502 18.16C36.807 18.16 36.8642 18.1384 36.9077 18.0949L38.0715 16.9311C38.1586 16.844 38.1586 16.7032 38.0715 16.616C37.9844 16.5294 37.8436 16.5294 37.7565 16.616Z" fill="white"/>
<path d="M30.7721 23.5983L29.6083 24.7621C29.5212 24.8492 29.5212 24.99 29.6083 25.0771C29.6519 25.1207 29.7086 25.1423 29.7658 25.1423C29.823 25.1423 29.8798 25.1207 29.9233 25.0771L31.0871 23.9133C31.1743 23.8262 31.1743 23.6854 31.0871 23.5983C31.0005 23.5112 30.8592 23.5112 30.7721 23.5983Z" fill="white"/>
<path d="M26.1198 28.2531L24.956 29.4169C24.8688 29.504 24.8688 29.6448 24.956 29.7319C24.9995 29.7755 25.0563 29.7975 25.1135 29.7975C25.1707 29.7975 25.2274 29.7755 25.271 29.7319L26.4348 28.5681C26.5219 28.481 26.5219 28.3402 26.4348 28.2531C26.3477 28.166 26.2069 28.166 26.1198 28.2531Z" fill="white"/>
<path d="M23.7924 30.5803L23.2411 31.1316C23.154 31.2188 23.154 31.3596 23.2411 31.4467C23.2847 31.4902 23.3419 31.5118 23.3986 31.5118C23.4558 31.5118 23.5126 31.4902 23.5562 31.4467L24.1075 30.8954C24.1946 30.8082 24.1946 30.6674 24.1075 30.5803C24.0204 30.4932 23.8796 30.4936 23.7924 30.5803Z" fill="white"/>
<path d="M46.1253 12.6589C46.1253 11.8753 45.8191 11.1369 45.2625 10.579C44.1167 9.43501 42.2524 9.43677 41.1062 10.583L34.1538 17.5363L16.981 13.0839C16.9049 13.0637 16.8231 13.0861 16.7672 13.142L14.2095 15.7055C14.1597 15.7552 14.1364 15.8256 14.147 15.8947C14.1571 15.9642 14.1989 16.0249 14.2609 16.0583L28.0875 23.6021L21.3405 30.35L14.4449 28.6379C14.3687 28.6195 14.2887 28.6415 14.2332 28.6969L13.0338 29.8999C12.9863 29.9474 12.9629 30.0143 12.97 30.0811C12.977 30.148 13.014 30.2083 13.0707 30.2444L23.0614 36.693C23.1489 36.7498 23.2651 36.7379 23.3399 36.6635L32.2437 27.7571L39.7862 41.5854C39.8201 41.647 39.8804 41.6892 39.9499 41.6993C39.9605 41.7007 39.971 41.7015 39.9816 41.7015C40.0401 41.7015 40.0969 41.6787 40.1391 41.6364L42.7003 39.0769C42.7562 39.0211 42.7782 38.9397 42.7584 38.8635L38.3096 21.6925L45.2603 14.7375C45.8182 14.1809 46.1253 13.443 46.1253 12.6589ZM16.9929 13.5473L33.7881 17.9019L28.4162 23.2739L14.7353 15.8097L16.9929 13.5473ZM38.1701 21.2015L37.7512 19.7724L37.3235 19.8978L37.848 21.6881L42.2955 38.8521L40.0348 41.1111L32.4923 27.2819C32.4585 27.2203 32.3977 27.178 32.3287 27.1679C32.3181 27.1666 32.3075 27.1657 32.297 27.1657C32.238 27.1657 32.1813 27.189 32.1395 27.2308L23.152 36.2209L13.5442 30.0191L14.4598 29.1008L21.3555 30.8129C21.4316 30.8318 21.5117 30.8093 21.5667 30.7539L28.6133 23.7069L34.3786 17.9415L41.4217 10.898C42.3941 9.92561 43.9759 9.92429 44.9474 10.8941C45.42 11.3675 45.68 11.9941 45.68 12.6589C45.68 13.3237 45.4191 13.9499 44.9461 14.422L38.1701 21.2015Z" fill="#136296"/>
</svg>
