<svg width="59" height="50" viewBox="0 0 59 50" fill="none" xmlns="http://www.w3.org/2000/svg">
<path d="M0 20.7821C0 37.5691 14.9191 50 28.4517 50C41.9842 50 42.426 39.5686 49.4312 35.853C57.8331 31.3967 59.0253 23.6705 57.3912 16.2743C55.7133 8.67964 48.2837 5.92806 40.5781 6.83335C26.1604 8.52706 27.9305 -0.834746 16.5748 0.0605086C5.21899 0.955763 0 13.1727 0 20.7821Z" fill="#E7EEF7"/>
<g clip-path="url(#clip0_901_19046)">
<path d="M8 48.5C6.343 48.5 5 47.157 5 45.5V4.5C5 2.843 6.343 1.5 8 1.5C9.657 1.5 11 2.843 11 4.5V45.5C11 47.157 9.657 48.5 8 48.5Z" fill="#051F3D"/>
<path d="M50 48.5C48.343 48.5 47 47.157 47 45.5V4.5C47 2.843 48.343 1.5 50 1.5C51.657 1.5 53 2.843 53 4.5V45.5C53 47.157 51.657 48.5 50 48.5Z" fill="#051F3D"/>
<path d="M17 10.5H11V12.5H17V10.5Z" fill="#051F3D"/>
<path d="M47 10.5H29V12.5H47V10.5Z" fill="#051F3D"/>
<path d="M29 38.5H11V40.5H29V38.5Z" fill="#051F3D"/>
<path d="M19 24.5H11V26.5H19V24.5Z" fill="#051F3D"/>
<path d="M47 24.5H37V26.5H47V24.5Z" fill="#051F3D"/>
<path d="M47 38.5H41V40.5H47V38.5Z" fill="#051F3D"/>
<path d="M21.577 16.5H18.423C17.637 16.5 17 15.863 17 15.077V7.923C17 7.137 17.637 6.5 18.423 6.5H21.577C22.363 6.5 23 7.137 23 7.923V15.077C23 15.863 22.363 16.5 21.577 16.5Z" fill="#CC66A1"/>
<path d="M27.577 16.5H24.423C23.637 16.5 23 15.863 23 15.077V7.923C23 7.137 23.637 6.5 24.423 6.5H27.577C28.363 6.5 29 7.137 29 7.923V15.077C29 15.863 28.363 16.5 27.577 16.5Z" fill="#B49ACA"/>
<path d="M33.505 44.5H30.495C29.669 44.5 29 43.831 29 43.005V35.995C29 35.169 29.669 34.5 30.495 34.5H33.505C34.331 34.5 35 35.169 35 35.995V43.005C35 43.831 34.331 44.5 33.505 44.5Z" fill="#49CCEA"/>
<path d="M39.505 44.5H36.495C35.669 44.5 35 43.831 35 43.005V35.995C35 35.169 35.669 34.5 36.495 34.5H39.505C40.331 34.5 41 35.169 41 35.995V43.005C41 43.831 40.331 44.5 39.505 44.5Z" fill="#2FA8CC"/>
<path d="M23.875 30.5H20.125C19.504 30.5 19 29.996 19 29.375V21.625C19 21.004 19.504 20.5 20.125 20.5H23.875C24.496 20.5 25 21.004 25 21.625V29.375C25 29.996 24.496 30.5 23.875 30.5Z" fill="#F29C1F"/>
<path d="M29.875 30.5H26.125C25.504 30.5 25 29.996 25 29.375V21.625C25 21.004 25.504 20.5 26.125 20.5H29.875C30.496 20.5 31 21.004 31 21.625V29.375C31 29.996 30.496 30.5 29.875 30.5Z" fill="#F0C419"/>
<path d="M35.875 30.5H32.125C31.504 30.5 31 29.996 31 29.375V21.625C31 21.004 31.504 20.5 32.125 20.5H35.875C36.496 20.5 37 21.004 37 21.625V29.375C37 29.996 36.496 30.5 35.875 30.5Z" fill="#71C285"/>
</g>
<defs>
<clipPath id="clip0_901_19046">
<rect width="48" height="48" fill="white" transform="translate(5 1)"/>
</clipPath>
</defs>
</svg>
