<svg width="60" height="53" viewBox="0 0 60 53" fill="none" xmlns="http://www.w3.org/2000/svg">
<path d="M5.33116 42.7887C16.1216 55.6483 35.5407 55.5811 45.9073 46.8825C56.2738 38.1839 49.907 29.909 52.885 22.5599C56.4568 13.7455 52.4038 7.06061 46.3978 2.44516C40.2307 -2.29417 32.7706 0.373651 27.4497 6.02018C17.4938 16.5852 12.8321 8.2758 4.70856 16.2609C-3.41501 24.2461 0.439899 36.9595 5.33116 42.7887Z" fill="#E7EEF7"/>
<path d="M40.5664 6.7478H19.9414V47.9978H40.5664V6.7478Z" fill="#0E59AE"/>
<path d="M50.8789 19.8103H40.5664V47.9978H50.8789V19.8103Z" fill="#B4CCE6"/>
<path d="M47.4414 22.5603H43.3164V26.6853H47.4414V22.5603Z" fill="#051F3D"/>
<path d="M47.4414 29.4353H43.3164V33.5603H47.4414V29.4353Z" fill="#051F3D"/>
<path d="M47.4414 36.3103H43.3164V40.4353H47.4414V36.3103Z" fill="#051F3D"/>
<path d="M19.9414 19.8103H9.62891V47.9978H19.9414V19.8103Z" fill="#B4CCE6"/>
<path d="M17.1914 22.5603H13.0664V26.6853H17.1914V22.5603Z" fill="#051F3D"/>
<path d="M25.4414 21.1853H22.6914V23.9353H25.4414V21.1853Z" fill="#ACD3FF"/>
<path d="M31.6289 21.1853H28.8789V23.9353H31.6289V21.1853Z" fill="#ACD3FF"/>
<path d="M37.8164 21.1853H35.0664V23.9353H37.8164V21.1853Z" fill="#ACD3FF"/>
<path d="M25.4414 26.6853H22.6914V29.4353H25.4414V26.6853Z" fill="#ACD3FF"/>
<path d="M31.6289 26.6853H28.8789V29.4353H31.6289V26.6853Z" fill="#B4CCE6"/>
<path d="M37.8164 26.6853H35.0664V29.4353H37.8164V26.6853Z" fill="#ACD3FF"/>
<path d="M25.4414 32.1853H22.6914V34.9353H25.4414V32.1853Z" fill="#ACD3FF"/>
<path d="M31.6289 32.1853H28.8789V34.9353H31.6289V32.1853Z" fill="#ACD3FF"/>
<path d="M37.8164 32.1853H35.0664V34.9353H37.8164V32.1853Z" fill="#B4CCE6"/>
<path d="M17.1914 29.4353H13.0664V33.5603H17.1914V29.4353Z" fill="#051F3D"/>
<path d="M17.1914 36.3103H13.0664V40.4353H17.1914V36.3103Z" fill="#051F3D"/>
<path d="M34.3789 12.9353H31.6289V10.1853H28.8789V12.9353H26.1289V15.6853H28.8789V18.4353H31.6289V15.6853H34.3789V12.9353Z" fill="#E8E9EB"/>
<path d="M33.0039 39.0603H27.5039V47.9978H33.0039V39.0603Z" fill="#B4CCE6"/>
<path d="M35.0664 38.3728H25.4414V39.7478H35.0664V38.3728Z" fill="#B4CCE6"/>
<path d="M38.5039 43.8728H37.1289V45.2478H38.5039V43.8728Z" fill="#B4CCE6"/>
<path d="M38.5039 41.1228H37.1289V42.4978H38.5039V41.1228Z" fill="#B4CCE6"/>
<path d="M38.5039 38.3728H37.1289V39.7478H38.5039V38.3728Z" fill="#B4CCE6"/>
</svg>
