<svg width="59" height="51" viewBox="0 0 59 51" fill="none" xmlns="http://www.w3.org/2000/svg">
<path d="M0.288467 25.8836C3.2035 42.4156 20.0545 52.067 33.3815 49.717C46.7085 47.3671 45.3322 37.0175 51.5857 32.1419C59.0862 26.2943 58.9186 18.4785 56.025 11.4784C53.0538 4.2905 45.2592 2.87086 37.8279 5.10045C23.9234 9.27205 24.0409 -0.254915 13.0132 2.59865C1.98536 5.45221 -1.0329 18.3898 0.288467 25.8836Z" fill="#E7EEF7"/>
<g clip-path="url(#clip0_901_19079)">
<path d="M21.7933 17.7605C21.7243 17.6387 20.062 14.7778 16.4883 14.7778C12.9145 14.7778 11.2523 17.6387 11.1833 17.7606L10.8477 18.3529L13.5243 26L16.4883 27.6375L19.4527 26L22.1292 18.3527L21.7933 17.7605Z" fill="#50412E"/>
<path d="M16.4883 27.6376L19.4526 26.0001L22.1291 18.3528L21.7935 17.7605C21.7245 17.6387 20.0621 14.7778 16.4884 14.7778" fill="black"/>
<path d="M19.4883 34.8H13.4883V47.0001H19.4883V34.8Z" fill="#B4CCE6"/>
<path d="M19.4883 34.8H16.4883V47.0001H19.4883V34.8Z" fill="#2C7DFF"/>
<path d="M19.4883 26H13.4883V35H19.4883V26Z" fill="#FFE98F"/>
<path d="M19.4883 26H16.4883V35H19.4883V26Z" fill="#FFC170"/>
<path d="M33.1172 27.833H27.1172V47H33.1172V27.833Z" fill="#2C7DFF"/>
<path d="M33.1172 27.833H30.1172V47H33.1172V27.833Z" fill="#0B4383"/>
<path d="M33.1172 17.5H27.1172V28H33.1172V17.5Z" fill="#FFE98F"/>
<path d="M33.1172 17.5H30.1172V28H33.1172V17.5Z" fill="#FFC170"/>
<path d="M40.0213 7.64578C39.8899 7.45612 36.7267 3 30.1135 3C23.5015 3 20.3313 7.45457 20.1995 7.64432L19.6172 8.48273L27.1288 19H33.1181L40.6189 8.50834L40.0213 7.64578Z" fill="#50412E"/>
<path d="M30.1179 19H33.1179L40.6187 8.50834L40.0211 7.64587C39.8897 7.45612 36.7265 3 30.1133 3" fill="black"/>
<path d="M39.8984 14.703L40.8154 20.5L43.8072 22.0001L46.8072 20.5L48.3154 9.65283L39.8984 14.703Z" fill="#50412E"/>
<path d="M43.8086 12.3579V20.5H46.8086L48.3168 9.65283L43.8086 12.3579Z" fill="black"/>
<path d="M46.8086 30.833H40.8086V47H46.8086V30.833Z" fill="#BED7FF"/>
<path d="M46.8086 30.833H43.8086V47H46.8086V30.833Z" fill="#2C7DFF"/>
<path d="M46.8086 20.5H40.8086V31H46.8086V20.5Z" fill="#FFE98F"/>
<path d="M46.8086 20.5H43.8086V31H46.8086V20.5Z" fill="#FFC170"/>
</g>
<defs>
<clipPath id="clip0_901_19079">
<rect width="44" height="44" fill="white" transform="translate(7.58203 3)"/>
</clipPath>
</defs>
</svg>
