<svg width="59" height="51" viewBox="0 0 59 51" fill="none" xmlns="http://www.w3.org/2000/svg">
<path d="M1.27197 30.9583C7.01346 46.7329 25.2844 53.3115 38.0009 48.683C50.7173 44.0546 47.5647 34.1012 52.8766 28.2138C59.2477 21.1526 57.7255 13.4846 53.6603 7.09335C49.486 0.530569 41.5634 0.486002 34.6322 3.97215C21.6632 10.4949 20.1247 1.09223 9.75994 5.8174C-0.604798 10.5426 -1.33061 23.8077 1.27197 30.9583Z" fill="#E7EEF7"/>
<path d="M27.5971 36.2927L27.6655 35.7488H22.1133V37.7902H38.205V35.7488H32.6527L32.7174 36.2625C32.7188 36.2687 32.7187 36.2755 32.7195 36.2819L32.7199 36.284C32.72 36.2843 32.7199 36.2849 32.72 36.2852C32.7222 36.2993 32.7249 36.3131 32.7249 36.3278C32.7249 36.398 32.6984 36.4615 32.6559 36.5109C32.6559 36.5109 32.6559 36.511 32.6557 36.511V36.5111C32.6423 36.5266 32.6277 36.5406 32.6113 36.5527L32.6112 36.5528C32.5641 36.588 32.5064 36.6097 32.4431 36.6097C32.4425 36.6097 32.442 36.6097 32.4414 36.6097H27.8768C27.8564 36.6097 27.8362 36.6075 27.8166 36.6032C27.8095 36.6015 27.8029 36.5984 27.796 36.5965C27.7838 36.5927 27.7714 36.5895 27.7599 36.5842C27.7521 36.5807 27.7452 36.5754 27.7378 36.5713C27.7278 36.5656 27.7177 36.5605 27.7084 36.5538C27.701 36.5483 27.6948 36.5413 27.688 36.535C27.6804 36.5281 27.6722 36.522 27.6654 36.5143C27.6649 36.5139 27.6646 36.5131 27.6642 36.5126C27.6636 36.512 27.663 36.5116 27.6624 36.511C27.6568 36.5043 27.6527 36.4964 27.6477 36.4894C27.6416 36.4805 27.6348 36.4722 27.6296 36.4627C27.6251 36.4546 27.6224 36.446 27.6188 36.4375C27.6146 36.4275 27.6098 36.4178 27.6067 36.4075C27.6041 36.3986 27.6031 36.3894 27.6013 36.3804C27.5994 36.3699 27.5968 36.3595 27.5959 36.3487C27.5952 36.3393 27.5962 36.3299 27.5964 36.3203C27.5969 36.3112 27.596 36.302 27.5971 36.2927Z" fill="#0E59AE"/>
<path d="M42.8088 38.354H38.4844H21.829H17.5039V39.2705H42.8088V38.354Z" fill="#0E59AE"/>
<path d="M18.2351 33.2668C21.7307 33.2668 24.5916 30.4958 24.7397 27.0339H22.4575C22.4573 27.0339 22.4569 27.0341 22.4567 27.0341C22.4563 27.0341 22.456 27.0339 22.4556 27.0339H11.7305C11.8785 30.4958 14.7396 33.2668 18.2351 33.2668ZM13.4604 28.4792C13.6113 28.4424 13.7635 28.5349 13.8006 28.6857C13.8036 28.6979 14.1176 29.9094 15.354 30.665C15.4868 30.7461 15.5287 30.9196 15.4475 31.0525C15.3944 31.1394 15.3017 31.1874 15.2067 31.1874C15.1566 31.1874 15.1059 31.1741 15.06 31.146C13.6178 30.2648 13.2672 28.8782 13.2529 28.8196C13.2162 28.6684 13.3091 28.5159 13.4604 28.4792Z" fill="#0E59AE"/>
<path d="M28.0859 14.2841C28.0859 15.428 29.0147 16.3585 30.1562 16.3585C31.3 16.3585 32.2305 15.428 32.2305 14.2841C32.2305 13.1404 31.3 12.21 30.1562 12.21C29.0147 12.2099 28.0859 13.1404 28.0859 14.2841Z" fill="#0E59AE"/>
<path d="M18.2321 16.27L14.3711 26.4702H22.0488L18.2321 16.27Z" fill="#0E59AE"/>
<path d="M28.2031 36.0459H29.8792V29.5839C29.8792 29.4282 30.0054 29.3021 30.161 29.3021C30.3168 29.3021 30.4429 29.4283 30.4429 29.5839V36.0459H32.1082L32.024 35.5107C32.0171 35.4667 32.0215 35.4226 32.0347 35.3812L30.1538 20.4463L28.2764 35.381C28.2897 35.4224 28.2943 35.4667 28.2873 35.5108L28.2031 36.0459Z" fill="#0E59AE"/>
<path d="M41.693 30.752C45.1886 30.752 48.0495 27.9847 48.1976 24.5269H45.9188C45.9188 24.5269 45.9183 24.5269 45.918 24.5269C45.9177 24.5269 45.9171 24.5269 45.9168 24.5269H35.1875C35.3358 27.9846 38.1971 30.752 41.693 30.752Z" fill="#0E59AE"/>
<path d="M37.832 23.9631H45.5096L41.6899 13.7698L37.832 23.9631Z" fill="#0E59AE"/>
<path d="M15.8361 16.0086C15.8461 16.0086 15.8562 16.008 15.8665 16.0069L26.0171 14.9208C26.3246 16.928 28.063 18.4703 30.1546 18.4703C32.465 18.4703 34.3447 16.5923 34.3447 14.284C34.3447 14.2004 34.3415 14.1176 34.3366 14.0351L41.7093 13.2502L41.7438 13.2464C41.7448 13.2461 41.7461 13.2462 41.7471 13.246L44.4201 12.9558C44.5748 12.939 44.6867 12.7999 44.6698 12.6452C44.6529 12.4904 44.5138 12.3779 44.3592 12.3953L41.9721 12.6546V9.65496C41.9721 9.49924 41.8461 9.37308 41.6903 9.37308C41.5347 9.37308 41.4086 9.49932 41.4086 9.65496V12.7153L34.2656 13.4757C33.9572 11.907 32.7692 10.6502 31.2375 10.2405V8.37113C31.2375 7.77842 30.7519 7.29614 30.1547 7.29614C29.5599 7.29614 29.0761 7.77834 29.0761 8.37113V10.2397C27.2892 10.7167 25.9688 12.3488 25.9688 14.2841C25.9688 14.3092 25.9702 14.334 25.9707 14.3589L18.5162 15.1565V12.1623C18.5162 12.0065 18.39 11.8804 18.2343 11.8804C18.0787 11.8804 17.9524 12.0065 17.9524 12.1623V15.2167L15.8066 15.4464C15.6518 15.4629 15.5397 15.6017 15.5563 15.7566C15.5717 15.9012 15.694 16.0086 15.8361 16.0086ZM32.7937 14.2841C32.7937 15.7386 31.6103 16.9221 30.1557 16.9221C28.7034 16.9221 27.5217 15.7386 27.5217 14.2841C27.5217 12.8296 28.7034 11.6461 30.1557 11.6461C31.6102 11.646 32.7937 12.8295 32.7937 14.2841ZM30.6626 10.1298C30.6663 10.1303 30.6701 10.1304 30.6737 10.1309C30.6695 10.1304 30.6656 10.1304 30.6617 10.1298C30.6605 10.1297 30.6597 10.1295 30.6585 10.1295C30.6599 10.1296 30.6614 10.1297 30.6626 10.1298ZM30.4462 10.1092C30.4479 10.1094 30.4496 10.1096 30.4514 10.1097C30.4494 10.1096 30.4473 10.1094 30.4452 10.1093C30.4435 10.1091 30.4419 10.1089 30.44 10.1088C30.4421 10.1089 30.4442 10.109 30.4462 10.1092ZM30.4009 10.1059C30.4012 10.1059 30.4014 10.1059 30.4016 10.1059C30.4011 10.1059 30.4004 10.1059 30.4 10.1059C30.3998 10.1059 30.3994 10.1058 30.3993 10.1058C30.3998 10.1058 30.4004 10.1058 30.4009 10.1059ZM30.1598 10.0982C30.1581 10.0982 30.1567 10.0981 30.155 10.0981C30.1551 10.0981 30.1555 10.0981 30.1556 10.0981C30.1571 10.098 30.1584 10.0982 30.1598 10.0982ZM29.6398 8.37113C29.6398 8.08926 29.8708 7.85989 30.1546 7.85989C30.1548 7.85989 30.155 7.85998 30.1552 7.85998C29.8714 7.86024 29.6408 8.08943 29.6408 8.37113V10.1307C29.6404 10.1307 29.6401 10.1307 29.6398 10.1308L29.6398 8.37113ZM29.4077 10.7397C29.41 10.7393 29.4123 10.7396 29.4145 10.7391C29.6642 10.6878 29.9134 10.6619 30.1546 10.6619C30.1548 10.6619 30.155 10.6619 30.1552 10.6619C29.914 10.662 29.6652 10.6879 29.4155 10.7391C29.4133 10.7396 29.4111 10.7393 29.4088 10.7397C29.2597 10.771 29.114 10.8119 28.9721 10.8611C29.1136 10.812 29.2589 10.771 29.4077 10.7397ZM27.6625 11.6591C27.4083 11.9007 27.1892 12.1784 27.0132 12.4843C27.1892 12.1784 27.4082 11.9007 27.6625 11.6591ZM26.9358 12.6261C26.7965 12.8954 26.69 13.1844 26.6217 13.4878C26.69 13.1844 26.7964 12.8955 26.9358 12.6261ZM26.5646 13.8093C26.5441 13.9647 26.5335 14.1231 26.5335 14.284C26.5335 16.2813 28.1581 17.9062 30.1552 17.9066C30.155 17.9066 30.1548 17.9066 30.1546 17.9066C28.1574 17.9066 26.5325 16.2815 26.5325 14.284C26.5324 14.1231 26.544 13.9648 26.5646 13.8093Z" fill="#0E59AE"/>
<path d="M15.6021 40.7129C15.4465 40.7129 15.3203 40.8391 15.3203 40.9947C15.3203 41.1504 15.4466 41.2766 15.6021 41.2766H36.6075C36.7632 41.2766 36.8892 41.1503 36.8892 40.9947C36.8892 40.839 36.7631 40.7129 36.6075 40.7129H15.6021Z" fill="#0E59AE"/>
<path d="M43.1306 42.1399H26.8678C26.7121 42.1399 26.5859 42.2661 26.5859 42.4218C26.5859 42.5774 26.7121 42.7036 26.8678 42.7036H43.1306C43.2862 42.7036 43.4125 42.5774 43.4125 42.4218C43.4125 42.2661 43.2862 42.1399 43.1306 42.1399Z" fill="#0E59AE"/>
<path d="M46.8289 42.1399H44.7935C44.6379 42.1399 44.5117 42.2661 44.5117 42.4218C44.5117 42.5774 44.638 42.7036 44.7935 42.7036H46.8289C46.9845 42.7036 47.1106 42.5774 47.1106 42.4218C47.1106 42.2661 46.9844 42.1399 46.8289 42.1399Z" fill="#0E59AE"/>
<path d="M19.8903 42.1025H12.1842C12.0285 42.1025 11.9023 42.2288 11.9023 42.3843C11.9023 42.54 12.0285 42.6662 12.1842 42.6662H19.8903C20.046 42.6662 20.1722 42.54 20.1722 42.3843C20.1722 42.2287 20.046 42.1025 19.8903 42.1025Z" fill="#0E59AE"/>
</svg>
