<svg width="59" height="50" viewBox="0 0 59 50" fill="none" xmlns="http://www.w3.org/2000/svg">
<path d="M58.0195 29.2179C58.0195 12.4309 43.1005 0 29.5679 0C16.0353 0 15.5935 10.4314 8.58837 14.147C0.186424 18.6033 -1.00573 26.3295 0.628345 33.7257C2.30624 41.3204 9.73584 44.0719 17.4414 43.1666C31.8591 41.4729 30.089 50.8347 41.4448 49.9395C52.8005 49.0442 58.0195 36.8273 58.0195 29.2179Z" fill="#E7EEF7"/>
<g clip-path="url(#clip0_901_19339)">
<path d="M36.7675 44.1587H21.2305L22.3397 41.5633L22.762 40.5764L23.6838 38.4202H34.3142L35.236 40.5764L35.6583 41.5633L36.7675 44.1587Z" fill="#ABB9C6"/>
<path d="M35.2356 40.5764H22.7617L23.6835 38.4202H34.3139L35.2356 40.5764Z" fill="#93A0AA"/>
<path d="M40.814 45.1458H17.1875C18.0289 43.911 19.4265 43.1721 20.9208 43.1721H37.0807C38.575 43.1721 39.9725 43.911 40.814 45.1458Z" fill="#B6C7D3"/>
<path d="M51 7.73463V35.8354C51 37.4262 49.7112 38.716 48.1203 38.716H9.87968C8.2888 38.716 7 37.4262 7 35.8354V7.73463C7 6.14384 8.2888 4.854 9.87968 4.854H48.1204C49.7112 4.854 51 6.14384 51 7.73463Z" fill="#ABB9C6"/>
<path d="M51.001 7.73463V35.8354C51.001 37.4262 49.7122 38.716 48.1213 38.716H22.5469L24.6568 33.5705L36.432 4.854H48.1213C49.7122 4.854 51.001 6.14384 51.001 7.73463Z" fill="#C5D6E2"/>
<path d="M29.0009 36.7918C28.7046 36.7918 28.4308 36.6084 28.317 36.3349C28.1911 36.0323 28.2861 35.6737 28.5423 35.4705C29.0786 35.0452 29.8769 35.5537 29.7216 36.2185C29.6442 36.549 29.3417 36.7918 29.0009 36.7918Z" fill="#93A0AA"/>
<path d="M51 7.73463V33.5705H7V7.73463C7 6.14384 8.2888 4.854 9.87968 4.854H48.1204C49.7112 4.854 51 6.14393 51 7.73463Z" fill="#0E59AE"/>
<path d="M51.0004 7.73463V33.5705H24.6562L36.4314 4.854H48.1207C49.7116 4.854 51.0004 6.14393 51.0004 7.73463Z" fill="#D4F7FC"/>
<path d="M29.0007 11.2349C23.137 11.2349 18.0247 14.4495 15.3281 19.2121C18.0247 23.9747 23.137 27.1893 29.0007 27.1893C34.8644 27.1893 39.9767 23.9747 42.6733 19.2121C39.9767 14.4496 34.8645 11.2349 29.0007 11.2349Z" fill="white"/>
<path d="M29.0008 13.6032C34.3639 13.6032 39.0969 16.2933 41.9295 20.3963C42.194 20.0132 42.443 19.6188 42.6734 19.2121C39.9768 14.4495 34.8645 11.2349 29.0008 11.2349C23.1371 11.2349 18.0248 14.4495 15.3281 19.2121C15.5584 19.6187 15.8076 20.0132 16.072 20.3963C18.9048 16.2933 23.6378 13.6032 29.0008 13.6032Z" fill="#E6E6E6"/>
<path d="M36.1898 16.3528C36.1898 20.3179 32.9755 23.5322 29.0114 23.5322C25.0463 23.5322 21.832 20.3179 21.832 16.3528C21.832 15.9955 21.8577 15.6432 21.909 15.2998C22.0629 14.2507 22.4438 13.2767 23.0005 12.4271L23.0045 12.4211V12.4202C24.3772 11.8527 25.8466 11.4747 27.3821 11.3179C27.4719 11.309 27.5607 11.3011 27.6505 11.2932C27.7403 11.2853 27.8301 11.2784 27.9199 11.2725C28.0096 11.2656 28.1005 11.2606 28.1913 11.2558L28.208 11.2549C28.287 11.2509 28.3659 11.248 28.4459 11.245C28.5505 11.241 28.655 11.2391 28.7607 11.2371C28.8405 11.236 28.9195 11.2351 28.9994 11.2351H29.0102C29.0833 11.2351 29.1564 11.236 29.2294 11.2371C29.2856 11.2371 29.3418 11.2391 29.3991 11.24C29.4652 11.242 29.5313 11.244 29.5974 11.2459C29.7198 11.2508 29.8422 11.2568 29.9635 11.2637C29.9814 11.2647 29.9982 11.2657 30.0159 11.2677C30.0741 11.2716 30.1314 11.2756 30.1895 11.2795C30.2616 11.2855 30.3326 11.2914 30.4037 11.2974C30.5152 11.3073 30.6258 11.3181 30.7352 11.33L30.7599 11.3329L30.7708 11.3338C30.8093 11.3387 30.8488 11.3426 30.8873 11.3476C30.9632 11.3565 31.0392 11.3663 31.1142 11.3762C31.1902 11.3871 31.2661 11.398 31.3422 11.4097C31.4014 11.4186 31.4616 11.4275 31.5207 11.4374C31.6707 11.4612 31.8197 11.4867 31.9678 11.5164C32.0299 11.5273 32.0911 11.5402 32.1533 11.5529C32.3369 11.5894 32.5194 11.63 32.7 11.6742C33.5004 11.8677 34.2771 12.1234 35.0251 12.4341C35.5797 13.2818 35.9596 14.2538 36.1135 15.3C36.1641 15.6432 36.1898 15.9955 36.1898 16.3528Z" fill="#616C77"/>
<path d="M36.1149 15.2999C34.4129 14.4335 32.5539 13.8858 30.6544 13.6884C28.718 13.487 26.7447 13.6432 24.8666 14.1568C23.8456 14.436 22.8534 14.8196 21.9102 15.2999C22.0641 14.2508 22.4449 13.2768 23.0016 12.4271C24.2788 11.8968 25.626 11.5386 26.9976 11.3626C27.196 11.3372 27.3949 11.3161 27.5941 11.2983C27.7959 11.2804 28.0101 11.2881 28.2093 11.2547C29.0577 11.2122 29.9176 11.2297 30.7613 11.3326L30.7722 11.3336C32.237 11.5206 33.6606 11.8662 35.0265 12.4339C35.5811 13.2817 35.9611 14.2539 36.1149 15.2999Z" fill="#4A555E"/>
<path d="M31.9715 16.5011C31.9715 14.8661 30.6461 13.5408 29.0112 13.5408C27.3761 13.5408 26.0508 14.8662 26.0508 16.5011C26.0508 18.1362 27.3762 19.4616 29.0112 19.4616C30.646 19.4615 31.9715 18.1362 31.9715 16.5011Z" fill="#4A555E"/>
<path d="M33.1453 15.8881C33.1453 15.2158 32.6004 14.6709 31.9281 14.6709C31.256 14.6709 30.7109 15.2158 30.7109 15.8881C30.7109 16.5602 31.2559 17.1052 31.9281 17.1052C32.6004 17.1052 33.1453 16.5603 33.1453 15.8881Z" fill="#D4F7FC"/>
<path d="M29.0015 27.7814C23.1411 27.7814 17.7046 24.6097 14.8136 19.5039L14.6484 19.212L14.8136 18.9202C17.7046 13.8144 23.1411 10.6426 29.0015 10.6426C34.8619 10.6426 40.2984 13.8144 43.1893 18.9202L43.3545 19.212L43.1893 19.5037C40.2984 24.6097 34.862 27.7814 29.0015 27.7814ZM16.0136 19.2121C18.7342 23.7763 23.6794 26.5972 29.0015 26.5972C34.3236 26.5972 39.2688 23.7763 41.9893 19.2121C39.2688 14.648 34.3236 11.827 29.0015 11.827C23.6794 11.827 18.7342 14.648 16.0136 19.2121Z" fill="#626F77"/>
<path d="M48.1208 4.854H36.4315L33.7646 11.3578C37.6987 12.5649 41.1045 15.2402 43.1882 18.9203L43.3533 19.212L43.1882 19.5038C40.2972 24.6097 34.8607 27.7814 29.0003 27.7814C28.3532 27.7814 27.7109 27.7427 27.077 27.6671L24.6562 33.5707H51.0005V7.73489C51.0005 6.14393 49.7117 4.854 48.1208 4.854Z" fill="#2C7DFF"/>
<path d="M36.1139 15.3052C36.1637 15.6469 36.1891 15.9973 36.1891 16.3528C36.1891 20.3179 32.9748 23.5321 29.0107 23.5321C28.9309 23.5321 28.8515 23.5309 28.7723 23.5282L27.543 26.5266C28.024 26.5734 28.5098 26.5972 28.9987 26.5972C34.0534 26.5972 38.7685 24.0523 41.5601 19.8862C40.1238 17.9739 38.2614 16.3995 36.1139 15.3052Z" fill="#FDFDFD"/>
<path d="M35.5156 13.3086C35.807 13.9288 36.0123 14.5977 36.1156 15.2999C36.1158 15.3017 36.1161 15.3035 36.1163 15.3053C38.2638 16.3996 40.1263 17.9739 41.5624 19.8863C41.71 19.666 41.8521 19.4414 41.9888 19.2122C40.4392 16.6123 38.1675 14.578 35.5156 13.3086Z" fill="#E9E9E9"/>
<path d="M32.6673 14.0322L32.3712 14.7542C32.8241 14.9316 33.1448 15.3722 33.1448 15.888C33.1448 16.5601 32.5999 17.105 31.9276 17.105C31.9217 17.105 31.9157 17.105 31.9097 17.1049C31.7486 17.8827 31.2822 18.5488 30.6415 18.9723L28.7734 23.5281C28.8527 23.5307 28.9319 23.5321 29.0118 23.5321C32.976 23.5321 36.1902 20.3179 36.1902 16.3527C36.1902 15.9974 36.1648 15.6469 36.115 15.3051C36.1147 15.3033 36.1145 15.3015 36.1142 15.2997C35.0197 14.7426 33.8605 14.3174 32.6673 14.0322Z" fill="#7E8790"/>
<path d="M33.3134 12.4583L32.668 14.0322C33.8612 14.3174 35.0204 14.7426 36.1148 15.2997C36.0115 14.5976 35.8063 13.9286 35.5149 13.3084C34.806 12.969 34.0701 12.6844 33.3134 12.4583Z" fill="#6C757C"/>
<path d="M31.4467 17.0066L30.6406 18.9722C31.2813 18.5486 31.7477 17.8826 31.9088 17.1048C31.7449 17.1024 31.5888 17.0677 31.4467 17.0066Z" fill="#6C757C"/>
<path d="M32.373 14.7544L31.4492 17.007C31.5914 17.0681 31.7474 17.1028 31.9115 17.1052C31.9174 17.1053 31.9233 17.1053 31.9294 17.1053C32.6016 17.1053 33.1466 16.5604 33.1466 15.8882C33.1466 15.3725 32.8259 14.9316 32.373 14.7544Z" fill="#FDFDFD"/>
<path d="M33.7656 11.3579L33.3144 12.4583C34.0712 12.6845 34.807 12.9692 35.5159 13.3085C38.1678 14.5779 40.4394 16.6122 41.9892 19.2122C41.8526 19.4414 41.7104 19.666 41.5628 19.8863C38.7712 24.0523 34.0562 26.5973 29.0014 26.5973C28.5125 26.5973 28.0268 26.5735 27.5457 26.5267L27.0781 27.6671C27.712 27.7428 28.3543 27.7815 29.0014 27.7815C34.8618 27.7815 40.2983 24.6097 43.1893 19.5038L43.3544 19.2121L43.1893 18.9204C41.1056 15.2403 37.6997 12.5651 33.7656 11.3579Z" fill="#7E878C"/>
</g>
<defs>
<clipPath id="clip0_901_19339">
<rect width="44" height="44" fill="white" transform="translate(7 3)"/>
</clipPath>
</defs>
</svg>
