<svg width="59" height="55" viewBox="0 0 59 55" fill="none" xmlns="http://www.w3.org/2000/svg">
<path d="M8.11535 48.2293C20.9749 59.0198 40.0873 55.5816 48.7859 45.215C57.4845 34.8484 49.7775 27.8048 51.4341 20.0503C53.421 10.7495 48.2687 4.86999 41.5525 1.36758C34.6561 -2.22884 27.7726 1.69388 23.5131 8.17859C15.543 20.3119 9.50926 12.9383 2.89572 22.2127C-3.71783 31.4872 2.28618 43.3381 8.11535 48.2293Z" fill="#E7EEF7"/>
<path d="M39.3972 23.649C38.6372 23.649 38.0222 23.0334 38.0222 22.274V18.2887C38.0222 13.8038 34.4169 10.1555 29.9857 10.1555C25.5546 10.1555 21.9492 13.8038 21.9492 18.2887V22.274C21.9492 23.0334 21.3342 23.649 20.5742 23.649C19.8142 23.649 19.1992 23.0334 19.1992 22.274V18.2887C19.1992 12.2878 24.0386 7.40552 29.9857 7.40552C35.9329 7.40552 40.7722 12.2878 40.7722 18.2887V22.274C40.7722 23.0334 40.1572 23.649 39.3972 23.649Z" fill="#2C7DFF"/>
<path d="M50.6094 30.2341V24.9219C50.6094 23.4597 49.4362 22.2744 47.989 22.2744H11.9797C10.5325 22.2744 9.35938 23.4597 9.35938 24.9219V30.2341L29.9844 32.5685L50.6094 30.2341Z" fill="#0E59AE"/>
<path d="M30.1392 35.3185C30.0881 35.3246 30.0358 35.3273 29.9847 35.3273C29.9337 35.3273 29.8813 35.3246 29.8303 35.3185L9.68359 33.0381L12.6531 47.4215C12.9668 48.9415 14.2928 50.0306 15.8296 50.0306H44.1399C45.6766 50.0306 47.0026 48.9415 47.3164 47.4215L50.2859 33.0381L30.1392 35.3185Z" fill="#2C7DFF"/>
</svg>
