<svg width="59" height="58" viewBox="0 0 59 58" fill="none" xmlns="http://www.w3.org/2000/svg">
<path d="M15.1226 55.5847C30.8972 61.3262 47.681 51.5585 52.3094 38.842C56.9378 26.1255 47.2866 22.1426 46.191 14.2892C44.8771 4.86977 38.0246 1.107 30.5155 0.112877C22.805 -0.90795 17.6783 5.1325 15.8935 12.683C12.554 26.8105 4.36215 21.9452 1.31951 32.9223C-1.72313 43.8994 7.97203 52.9821 15.1226 55.5847Z" fill="#E7EEF7"/>
<path d="M29 48.5173C39.3553 48.5173 47.75 40.1227 47.75 29.7673C47.75 19.412 39.3553 11.0173 29 11.0173C18.6447 11.0173 10.25 19.412 10.25 29.7673C10.25 40.1227 18.6447 48.5173 29 48.5173Z" fill="#325AA6"/>
<path d="M42.75 22.2673C46.2018 22.2673 49 19.4691 49 16.0173C49 12.5656 46.2018 9.76733 42.75 9.76733C39.2982 9.76733 36.5 12.5656 36.5 16.0173C36.5 19.4691 39.2982 22.2673 42.75 22.2673Z" fill="#5EA7FF"/>
<path d="M45.6627 12.9259L42.6583 19.3752L39.7852 17.0734" stroke="white" stroke-width="1.8125" stroke-linecap="square"/>
<path fill-rule="evenodd" clip-rule="evenodd" d="M25.1814 18.5173C22.5186 18.5173 20.7617 21.5754 20.7617 25.3477C20.7617 29.12 22.5186 41.0173 25.1814 41.0173C26.7347 41.0173 26.9112 31.1373 28.9983 31.1284C31.4872 31.1373 31.2619 41.0173 32.8153 41.0173C35.4781 41.0173 37.2349 29.12 37.2349 25.3477C37.2349 21.5754 35.4781 18.5173 32.8153 18.5173C31.543 18.5173 30.2706 19.7227 28.9983 19.7227C27.726 19.7227 26.4537 18.5173 25.1814 18.5173Z" fill="#B4DFFB"/>
<path d="M25.875 20.3923C24.1491 20.3923 22.75 21.7914 22.75 23.5173" stroke="white" stroke-width="1.8125" stroke-linecap="round"/>
</svg>
