<svg width="557" height="321" viewBox="0 0 557 321" fill="none" xmlns="http://www.w3.org/2000/svg">
<path d="M347.153 177.656C342.82 180.586 337.156 181.462 332.139 179.976C331.576 179.811 330.965 179.569 330.708 179.038C330.322 178.245 330.938 177.349 331.05 176.474C331.369 173.959 327.788 172.875 326.647 170.613C326.196 169.72 326.16 168.682 326.084 167.686C325.388 158.84 320.778 150.869 316.893 142.889C316.613 142.309 316.327 141.678 316.445 141.041C316.562 140.407 317.291 139.858 317.857 140.171C317.435 141.675 318.359 143.429 319.837 143.933C320.512 141.359 320.878 137.979 318.571 136.655C317.786 136.204 316.846 136.124 315.94 136.08C312.378 135.903 308.797 136.103 305.278 136.676C304.689 136.77 304.046 136.867 303.536 136.564C303.081 136.296 302.848 135.779 302.53 135.358C301.665 134.203 299.362 133.575 298.138 134.582C296.781 135.702 297.817 138.137 295.218 138.477C293.743 138.668 292.331 137.911 291.039 137.177C289.656 136.392 288.243 135.582 287.234 134.356C286.877 133.917 286.562 133.424 286.084 133.124C285.164 132.546 283.981 132.859 282.896 132.847C281.811 132.838 280.486 132.048 280.778 131.004C280.87 130.68 281.106 130.421 281.292 130.137C282.657 128.045 280.85 125.064 278.469 124.307C276.087 123.549 273.514 124.303 271.128 125.055C267.554 126.184 263.976 127.313 260.398 128.438C259.047 128.866 257.632 129.297 256.237 129.043C255.043 128.824 253.789 128.118 252.697 128.648C251.216 129.367 251.456 131.573 250.562 132.955C249.707 134.276 247.884 134.7 247.002 136.006C245.982 137.518 246.589 139.537 246.483 141.358C246.274 144.869 243.386 147.534 240.847 149.971C238.307 152.407 235.73 155.581 236.382 159.038C236.582 160.1 237.083 161.102 237.158 162.178C237.218 163.071 236.981 163.953 236.745 164.813C236.002 167.534 235.258 170.255 234.512 172.976C237.01 177.389 239.773 181.654 242.782 185.736C244.265 187.749 245.841 189.752 247.896 191.175C249.949 192.601 252.571 193.398 254.989 192.755C256.071 192.466 257.082 191.903 258.197 191.788C259.752 191.626 261.279 192.357 262.836 192.289C264.655 192.212 266.236 191.077 267.699 189.992C269.161 188.908 270.751 187.785 272.571 187.731C274.394 187.678 276.355 189.258 275.968 191.035C275.882 191.424 275.694 191.81 275.75 192.205C275.868 193.052 276.965 193.343 277.809 193.229C278.655 193.113 279.558 192.801 280.324 193.176C281.369 193.689 281.486 195.159 281.141 196.27C280.673 197.777 279.663 199.047 278.994 200.474C278.324 201.903 278.047 203.713 278.999 204.969C279.492 205.621 280.241 206.022 280.852 206.564C281.869 207.463 282.477 208.733 282.97 209.998C285.087 215.41 285.556 221.444 284.379 227.13C283.857 229.641 282.258 231.69 281.755 234.01C281.188 236.627 283.276 239.552 284.5 241.682C286.367 244.927 287.473 248.61 287.708 252.344C287.8 253.833 287.773 255.392 288.455 256.719C288.968 257.712 289.829 258.472 290.541 259.336C293.26 262.653 293.602 267.254 293.826 271.537C294.398 272.301 295.581 272.292 296.445 271.888C297.309 271.481 298.005 270.782 298.846 270.332C300.955 269.2 303.532 269.789 305.909 269.521C310.003 269.058 313.595 265.68 314.303 261.624C314.501 260.498 314.503 259.316 314.99 258.284C315.719 256.728 317.471 255.672 317.706 253.969C317.797 253.294 317.629 252.592 317.776 251.926C318.242 249.824 321.459 249.164 321.738 247.027C321.873 246.002 321.245 245.055 320.847 244.1C319.664 241.265 320.661 237.682 323.135 235.864C324.061 235.182 325.144 234.741 326.087 234.087C330.635 230.933 330.535 224.091 328.617 218.9C327.868 216.875 326.906 214.83 327.045 212.675C327.136 211.254 327.706 209.907 328.369 208.648C330.035 205.482 332.344 202.656 335.114 200.392C336.919 198.919 338.993 197.592 340.022 195.502C340.653 194.226 340.83 192.772 341.323 191.437C342.219 189.002 344.095 187.087 345.558 184.946C347.024 182.809 348.109 180.067 347.153 177.656ZM320.633 230.367C320.508 231.257 319.506 232.091 318.736 231.628C318.706 229.249 318.196 226.906 317.686 224.58C317.441 223.466 317.197 222.352 316.952 221.241C316.839 220.722 316.68 220.144 316.217 219.893C315.884 219.713 315.46 219.743 315.155 219.522C314.698 219.189 314.731 218.472 314.35 218.05C313.854 217.502 312.925 217.697 312.297 217.304C311.675 216.915 311.528 216.09 311.442 215.359L310.495 207.303C310.46 206.993 310.427 206.655 310.593 206.387C310.776 206.089 311.142 205.974 311.469 205.85C312.877 205.316 314.068 204.23 314.72 202.874C314.997 202.296 315.186 201.671 315.563 201.155C316.934 199.298 318.771 199.852 318.928 201.674C319.146 204.205 318.141 203.885 316.723 204.775C315.634 205.456 313.762 206.602 313.012 207.737C311.883 209.45 312.886 209.931 313.664 211.596C314.384 213.139 313.697 215.219 314.83 216.494C315.561 217.323 316.791 217.47 317.726 218.063C319.186 218.988 319.726 220.86 319.822 222.581C319.92 224.305 319.696 226.066 320.129 227.737C320.353 228.61 320.757 229.477 320.633 230.367Z" fill="#B4CCE6"/>
<path d="M334.79 234.042C333.863 235.737 335.757 237.703 335.604 239.63C335.447 241.603 333.235 242.843 332.784 244.77C332.598 245.564 332.734 246.396 332.917 247.19C333.27 248.712 333.8 250.192 334.495 251.591C334.718 252.042 334.966 252.492 335.333 252.836C336.466 253.896 338.424 253.54 339.524 252.447C340.625 251.355 341.049 249.76 341.28 248.226C341.511 246.693 341.602 245.11 342.213 243.684C343.103 241.61 345.074 239.859 344.962 237.607C344.906 236.481 344.317 235.457 344.057 234.36C343.797 233.264 344.018 231.87 345.046 231.409C345.157 232.129 345.269 232.847 345.38 233.567C348.3 232.655 344.719 223.008 341.546 227.889C340.254 229.877 341.533 231.215 338.968 232.243C337.586 232.797 335.624 232.517 334.79 234.042Z" fill="#D4DEEF"/>
<path d="M556.973 62.0616C556.896 61.7353 556.636 61.4759 556.377 61.2452C554.617 59.6309 552.655 58.2364 550.55 57.1221C551.877 57.0067 553.252 56.8814 554.435 56.2473C555.618 55.6232 556.57 54.354 556.397 53.0276C556.099 50.7595 552.886 49.443 553.214 47.1836C553.368 46.1649 554.253 45.1364 553.771 44.2232C553.435 43.599 552.627 43.4353 551.915 43.3386C548.203 42.8386 544.491 42.3386 540.77 41.8485C540.934 43.2617 540.539 44.8375 539.394 45.6935C538.24 46.5397 536.298 46.2606 535.749 44.9441C535.567 44.4825 535.547 43.9441 535.23 43.5507C534.566 42.7045 533.23 43.1946 532.211 43.5891C530.029 44.4353 527.527 44.4353 525.345 43.5792C524.922 43.4067 524.46 43.1759 524.287 42.7529C524.028 42.1287 524.46 41.4463 524.498 40.7726C524.555 39.6199 523.364 38.7254 522.209 38.6199C521.065 38.5243 519.949 38.9847 518.844 39.3408C515.641 40.3792 511.843 40.5133 509.208 38.4177C508.429 37.8023 507.785 37.0144 506.948 36.4858C505.765 35.7364 504.314 35.5826 502.919 35.4386C499.331 35.0738 495.754 34.7078 492.167 34.343C491.82 34.3045 491.427 34.2858 491.138 34.4869C490.676 34.8232 490.753 35.5254 490.599 36.0727C490.311 37.1397 489.099 37.6968 488.002 37.7738C486.896 37.8507 485.781 37.5913 484.684 37.7166C483.867 37.8034 483.068 38.1111 482.25 38.0628C481.424 38.0144 480.529 37.4375 480.548 36.621C479.519 37.265 478.836 38.4375 478.798 39.6584C476.711 39.8891 474.086 38.399 474.537 36.3419C474.663 35.8133 474.97 35.3419 475.018 34.8045C475.297 31.4595 467.027 30.7199 465.161 32.1617C464.651 32.5562 464.257 33.0847 463.777 33.5067C461.747 35.2748 458.112 34.5738 456.882 32.1705C453.958 31.8056 450.986 31.8243 448.054 32.2089C446.861 30.1902 443.765 31.1419 441.784 32.4012C439.802 33.6606 436.917 34.9001 435.408 33.1034C440.408 31.9694 445.149 29.7012 449.179 26.5287C449.582 26.2111 450.025 25.7793 449.929 25.2595C449.871 24.9034 449.564 24.654 449.265 24.443C447.409 23.1551 445.129 22.4727 442.87 22.5298C441.216 22.5683 439.254 22.8661 438.206 21.5979C437.552 20.8188 437.485 19.6177 436.686 18.9738C435.927 18.3584 434.84 18.5023 433.878 18.6661C431.753 19.0507 429.618 19.4353 427.492 19.8188C427.166 19.876 426.8 19.9529 426.569 20.1936C426.271 20.5199 426.29 21.0199 426.261 21.4716C426.079 24.2782 422.549 26.2584 420.049 24.9507C419.27 24.5375 418.606 23.8837 417.76 23.6243C416.692 23.3067 415.548 23.6727 414.5 24.0375C410.085 25.5661 405.681 27.0935 401.277 28.6221C402.46 29.4298 404.008 29.6891 405.393 29.3232C405.806 30.0639 404.729 30.7166 403.902 30.8902C400.536 31.5924 397.179 32.2935 393.814 32.9858C395.737 34.4463 397.603 35.9946 399.392 37.6188C400.257 37.0133 401.075 38.5891 400.747 39.599C400.43 40.6078 399.824 41.8573 400.593 42.5781C399.564 42.232 398.679 41.4727 398.18 40.4924C398.719 40.0979 399.238 39.6946 399.776 39.2913C398.603 39.532 397.315 38.7628 396.959 37.6188C394.813 37.2056 392.765 36.2825 391.044 34.9375C390.698 35.7452 391.17 36.8023 392.006 37.1001C391.218 37.2056 390.42 37.3023 389.632 37.3979C389.891 38.6287 390.997 39.6276 392.247 39.7716C390.671 40.1748 388.91 39.8001 387.622 38.8012C388.795 37.0331 387.073 34.2265 384.958 34.476C386.169 34.6397 386.371 36.3793 385.843 37.4749C385.304 38.5803 384.362 39.5704 384.381 40.7913C384.4 42.2913 385.795 44.088 384.631 45.0397C386.045 46.2221 388.679 44.0694 389.862 45.4726C390.227 45.9144 390.266 46.5199 390.42 47.0682C390.882 48.7122 392.689 49.8551 394.372 49.5671C393.402 51.1045 391.093 49.5869 390.035 48.1067C388.987 46.6265 386.621 45.1562 385.707 46.7221C385.409 47.2408 385.467 47.866 385.467 48.4518C385.408 52.7287 380.389 56.1221 376.398 54.5748C377.918 52.7001 381.485 53.4408 382.649 51.3353C383.119 50.4704 382.995 49.4133 382.851 48.4419C382.379 45.2704 381.919 42.0979 381.447 38.9265C381.726 37.4661 381.832 35.9661 381.765 34.4858C380.091 35.0727 377.399 34.9957 377.457 33.2265C376.034 35.5815 374.61 37.9265 373.188 40.2814C372.322 41.6946 371.668 43.9243 373.149 44.6638C374.14 44.2606 375.294 45.0957 375.572 46.1342C375.86 47.1627 375.495 48.2584 375.024 49.2199C372.888 43.3188 362.089 46.0386 359.281 40.4254C357.993 40.9254 359.166 42.9056 360.464 43.3759C361.773 43.8474 363.56 44.6825 363.08 45.9803C362.715 46.999 361.311 46.999 360.233 46.9221C357.117 46.7012 353.934 47.4221 351.203 48.9595C350.962 47.8639 350.713 46.7781 350.472 45.6913C348.203 47.2968 345.923 48.9012 343.654 50.5166C342.548 51.2946 341.375 52.1023 340.028 52.2463C338.682 52.3803 337.133 51.5737 336.96 50.2375C336.788 48.8913 338.739 47.7188 339.605 48.7573C339.98 46.2968 336.614 44.2397 334.594 45.7012C335.931 47.9693 335.97 50.9485 334.671 53.2463C334.191 54.1012 333.45 54.9089 332.488 55.0627C331.517 55.2067 330.401 54.3704 330.603 53.41C329.372 54.4957 328.68 56.1583 328.766 57.7924C326.766 58.4463 324.381 57.6671 323.14 55.9561C323.294 56.9078 323.448 57.8496 323.602 58.8012C322.159 60.3484 319.005 59.2342 318.861 57.1188C318.822 56.4946 318.986 55.8792 318.986 55.254C318.986 53.1199 317.101 51.5342 315.389 50.2562C317.948 51.2265 320.525 52.1979 323.083 53.1682C324.525 53.7155 326.063 54.2737 327.574 53.9847C329.786 53.5616 331.209 50.5924 329.247 49.054C325.718 46.2957 321.65 44.2188 317.342 42.9792C316.102 42.6232 314.775 42.3353 313.553 42.7298C312.553 43.0474 311.217 43.6814 310.678 42.7869C311.679 42.9309 312.755 42.5463 313.438 41.7869C311.351 41.3254 309.236 41.0276 307.1 40.9221C304.639 43.1045 302.965 46.199 303.677 49.3133C304.773 54.11 311.005 58.1265 308.725 62.4814C310.871 62.0012 313.11 61.5298 315.236 62.0682C316.38 62.3473 317.486 63.0199 318.236 63.9232C318.226 63.8748 318.236 63.8276 318.246 63.7792C318.88 63.5682 319.563 63.3473 320.217 63.5298C320.862 63.7023 321.39 64.4616 321.064 65.0583C320.843 65.4715 320.266 65.8177 320.468 66.2408C320.602 66.51 320.958 66.5484 321.238 66.6353C322.026 66.8759 322.468 67.8946 322.103 68.6342C320.968 68.5671 319.834 68.5089 318.699 68.4616C318.314 69.288 317.795 70.0759 317.429 70.9034C315.9 74.3539 317.016 78.3133 317.141 82.0814C317.198 84.0133 316.756 86.166 315.795 87.8385C316.026 87.7902 316.257 87.7429 316.488 87.7045C320.767 86.9737 325.652 88.0605 328.278 91.5198C330.893 94.9803 330.018 100.93 325.998 102.554C324.469 103.169 322.69 103.149 321.296 104.024C320.729 104.37 320.305 104.986 320.113 105.63C322.71 104.159 325.383 102.746 328.316 102.199C327.672 103.584 326.393 104.64 324.921 105.006C325.411 105.323 325.248 106.149 324.757 106.466C324.267 106.784 323.622 106.725 323.055 106.61C322.478 106.495 321.882 106.341 321.315 106.485C320.814 106.61 320.421 106.993 320.228 107.465C320.133 107.677 320.084 107.907 320.084 108.137C320.084 108.301 320.113 108.445 320.161 108.599C321.652 107.349 324.037 107.311 325.556 108.532C326.144 109.002 326.604 109.618 327.23 110.041C327.923 110.502 328.826 110.713 329.355 111.367C329.874 112.031 329.509 113.357 328.692 113.184C328.664 113.597 329.096 113.895 329.5 113.971C329.904 114.048 330.347 114.02 330.712 114.202C331.559 114.644 331.405 116.009 330.664 116.606C329.924 117.201 328.895 117.249 327.942 117.259C325.442 117.298 322.855 117.317 320.567 116.298C319.489 115.826 318.519 115.125 317.403 114.731C316.297 114.336 314.951 114.298 314.046 115.057C313.623 115.413 313.344 115.912 312.94 116.297C311.969 117.229 310.324 117.354 309.228 116.576C308.324 115.922 307.881 114.711 308.093 113.615C307.055 114.663 306.17 115.874 305.535 117.191C306.083 118.748 306.631 120.324 307.18 121.881C307.362 122.391 307.536 122.89 307.718 123.39C308.247 124.919 309.112 126.707 310.719 126.812C312.757 126.947 314.796 124.179 316.412 126.678C316.72 127.158 316.816 127.735 316.816 128.312C316.806 129.446 318.364 130.869 319.2 129.985C319.105 129.168 319.018 128.293 319.393 127.553C319.768 126.822 320.797 126.37 321.451 126.88C321.893 127.226 321.98 127.851 322.008 128.399C322.047 129.215 322.008 130.043 321.903 130.849C321.653 132.781 320.884 134.79 319.249 135.829C317.97 136.636 316.143 137.213 317.181 138.923C317.421 139.298 318.392 138.866 318.662 139.231C319.267 140.077 318.844 140.97 318.931 141.97C319.095 144.094 321.508 145.162 322.825 146.834C324.653 149.141 324.268 152.447 325.172 155.254C327.009 160.992 334.24 164.674 333.836 170.68C333.672 173.015 332.527 175.947 334.451 177.293C335.74 178.187 337.5 177.553 338.923 176.89C341.587 175.659 344.26 174.42 346.934 173.18C348.02 172.68 349.175 172.113 349.732 171.046C350.02 170.489 350.117 169.835 350.52 169.355C351.116 168.653 352.145 168.557 353.021 168.269C354.992 167.605 356.309 165.751 357.3 163.915C358.367 161.925 359.204 159.811 359.8 157.63C359.954 157.053 360.098 156.447 359.954 155.862C359.435 153.737 355.713 153.535 355.521 151.354C355.444 150.441 356.078 149.633 356.376 148.768C356.674 147.903 356.348 146.625 355.434 146.634C354.885 148.248 354.289 149.931 353.068 151.113C351.836 152.305 349.76 152.804 348.414 151.757C347.413 150.988 347.087 149.653 346.404 148.594C345.365 146.96 343.48 145.97 342.577 144.259C341.673 142.548 343 139.665 344.789 140.405C345.664 143.645 347.885 146.49 350.828 148.123C352.646 147.508 354.396 146.681 356.031 145.663C356.848 145.009 357.925 146.23 358.012 147.268C358.099 148.315 357.935 149.585 358.782 150.19C359.215 150.508 359.791 150.526 360.33 150.526C364.735 150.526 369.129 150.016 373.409 149.008C372.533 151.565 374.89 154.64 377.592 154.448C377.266 155.496 376.217 156.275 375.12 156.285C375.649 157.313 376.207 158.389 377.149 159.081C378.091 159.764 379.525 159.918 380.352 159.101C381.131 158.342 381.237 156.929 382.246 156.505C383.419 156.015 384.583 157.486 384.487 158.755C384.391 160.024 383.593 161.11 383.17 162.311C382.314 164.762 383.113 167.453 383.901 169.923C385.43 174.69 387.017 179.582 390.142 183.504C391.266 182.447 392.392 181.4 393.517 180.342C395.037 180.601 395.085 182.783 394.603 184.234C394.113 185.704 393.661 187.675 394.978 188.472C396.161 189.183 397.748 188.041 398.007 186.694C398.267 185.339 397.651 184.003 397.055 182.764C396.277 181.178 395.507 179.582 394.738 177.987C394.468 177.438 394.189 176.853 394.237 176.237C394.276 175.709 394.535 175.237 394.756 174.757C395.449 173.21 395.67 171.441 395.362 169.769C399.487 167.674 402.94 164.271 405.065 160.157C405.392 159.542 405.699 158.889 406.267 158.475C407.959 157.244 410.805 158.975 412.306 157.504C414.393 158.282 416.153 159.878 417.144 161.878C417.865 163.338 418.538 165.28 420.163 165.405C417.673 166.424 415.98 169.135 416.172 171.816C418.682 172.451 421.452 170.077 421.201 167.51C422.182 166.953 423.48 167.635 423.999 168.634C424.518 169.634 424.461 170.825 424.394 171.941C424.202 175.333 423.999 178.716 423.807 182.1C423.75 183.109 423.711 184.196 424.269 185.032C424.798 185.82 425.798 186.263 426.163 187.146C426.712 188.444 425.615 190.078 426.327 191.298C426.712 191.942 427.472 192.23 428.058 192.681C429.308 193.643 429.731 195.324 430.635 196.622C431.539 197.92 433.625 198.765 434.606 197.525C432.519 195.891 431.182 193.334 431.048 190.682C431.02 190.077 431.038 189.443 430.789 188.894C430.481 188.202 429.818 187.751 429.259 187.242C425.989 184.253 426.394 179.091 427.057 174.709C428.577 176.929 431.01 178.496 433.664 178.957C432.809 180.716 433.548 183.07 435.25 184.032C435.366 182.311 436.655 180.735 438.318 180.283C439.039 180.081 439.809 180.071 440.492 179.774C442.54 178.889 442.761 176.121 442.656 173.901C442.617 173.026 442.569 172.113 442.098 171.383C441.31 170.182 439.713 169.903 438.463 169.192C436.222 167.924 435.126 164.934 436.03 162.512C436.924 160.1 439.703 158.543 442.232 159.052C443.069 159.416 442.694 160.743 441.963 161.291C441.232 161.838 440.232 162.166 439.896 163.021C439.415 164.193 440.838 165.501 442.079 165.232C443.32 164.972 444.118 163.656 444.205 162.387C444.282 161.118 443.82 159.888 443.358 158.696C446.031 159.281 448.974 158.34 450.812 156.322C451.331 155.755 451.792 155.091 452.456 154.708C453.755 153.948 455.611 154.362 456.678 153.294C457.495 152.478 457.438 151.17 457.688 150.046C458.159 147.951 459.775 146.346 460.737 144.433C461.679 142.52 462.621 139.579 462.112 137.465C461.747 135.927 460.949 134.533 460.4 133.053C460.006 132.006 459.736 130.919 459.592 129.804C459.535 129.353 459.496 128.853 459.708 128.449C460.082 127.729 461.006 127.556 461.698 127.133C462.727 126.499 463.266 125.163 462.958 124C460.101 124.952 456.755 124.231 454.553 122.174C455.188 120.943 456.601 120.367 457.823 119.713C459.054 119.069 460.333 118.012 460.275 116.619C461.053 116.619 461.823 116.619 462.593 116.609C462.65 117.877 462.054 119.156 461.054 119.934C462.112 120.847 463.699 119.982 464.949 119.329C466.189 118.675 468.267 118.675 468.421 120.068C468.565 121.404 466.536 122.308 466.815 123.624C468.237 123.144 469.757 125.037 468.988 126.325C468.777 126.671 468.44 127.008 468.498 127.411C468.565 127.901 469.142 128.093 469.574 128.334C470.776 128.968 471.296 130.622 470.68 131.833C471.517 131.179 472.354 130.535 473.191 129.882C473.383 130.652 474.248 131.17 475.028 130.997C475.797 130.814 476.336 129.949 476.163 129.18C475.999 128.421 475.297 127.892 475.066 127.162C474.72 126.056 475.508 124.826 475.125 123.73C474.827 122.875 473.913 122.423 473.172 121.885C472.432 121.346 471.768 120.376 472.21 119.578C472.479 119.088 473.056 118.886 473.527 118.598C475.883 117.137 476.383 112.975 479.153 112.879C479.711 112.859 480.259 113.033 480.807 112.956C482.383 112.735 482.932 110.822 483.673 109.409C485.308 106.266 489.117 104.737 490.837 101.633C492.155 99.2495 492.001 96.3374 492.78 93.7132C493.348 91.81 494.425 89.8297 493.761 87.9561C492.934 85.6209 489.154 85.1594 487.789 87.2352C488.01 86.0627 488.231 84.8902 488.461 83.7078C487.635 86.3704 482.144 83.9671 486.923 81.3627C490.116 79.633 492.973 77.2583 495.271 74.4517C496.049 73.5001 496.79 72.4715 497.809 71.7792C501.57 69.2418 506.743 72.3847 511.147 71.2792C511.301 71.7122 511.445 72.144 511.599 72.577C510.416 73.0671 509.243 73.5671 508.07 74.0572C510.551 75.2199 513.224 72.4616 515.965 72.577C516.763 72.6056 517.918 72.6155 517.965 71.8276C517.224 71.7122 516.273 71.3089 516.407 70.5781C516.456 70.3089 516.648 70.0979 516.84 69.9056C517.552 69.1462 518.273 68.3968 518.994 67.6375C520.196 66.3682 522.139 65.0232 523.514 66.1188C524.553 66.955 524.072 68.9638 522.764 69.2429C523.621 70.099 525.072 69.3199 525.929 68.455C526.784 67.599 527.89 66.5616 529.025 67.0034C529.343 66.3693 529.343 65.5902 529.045 64.9561C529.958 64.4462 531.083 64.332 532.074 64.6385C531.468 65.1484 531.055 65.888 530.929 66.6759C530.842 67.1858 530.881 67.7045 530.727 68.1946C530.178 70.021 527.736 70.2319 526.015 71.0682C522.976 72.5385 521.918 76.432 519.187 78.4023C518.514 78.8924 517.754 79.2583 517.195 79.8726C515.994 81.199 516.148 83.2649 516.705 84.9671C517.282 86.6682 518.196 88.3022 518.302 90.0902C518.321 90.4264 518.311 90.7627 518.283 91.0902C518.158 92.2825 519.62 92.9451 520.457 92.099C520.659 91.888 520.86 91.6858 521.062 91.4836C522.033 90.4836 523.044 89.4561 523.534 88.1484C523.87 87.2253 524.024 86.1012 524.88 85.6209C525.505 85.2649 526.284 85.4187 526.995 85.2946C527.707 85.1792 528.466 84.4583 528.111 83.8242C526.948 82.9979 527.149 80.9122 528.438 80.3067C528.977 80.5561 529.515 80.8166 530.053 81.0759C531.332 80.4891 529.399 78.3946 530.101 77.1737C530.371 76.7023 531.015 76.4144 530.995 75.8759C530.975 75.2034 530.024 75.088 529.36 75.1935C528.918 73.0122 530.428 70.6188 532.582 70.0803C532.543 70.5319 532.505 70.9935 532.466 71.4451C533.534 70.7726 534.602 70.099 535.669 69.4166C535.862 69.9353 536.044 70.455 536.227 70.9836C537.505 71.6462 538.506 68.7342 539.833 69.2726C540.121 69.3979 540.313 69.6572 540.554 69.8495C541.506 70.6276 543.218 70.032 543.478 68.8309C544.468 64.2748 550.008 64.0638 554.652 63.6792C555.732 63.5902 557.222 63.1188 556.973 62.0616ZM351.907 117.684C351.128 118.386 350.003 118.577 348.965 118.414C348.715 118.625 348.898 119.058 349.176 119.231C349.455 119.403 349.801 119.452 350.041 119.682C350.474 120.096 350.301 120.807 350.368 121.393C350.493 122.355 351.31 123.085 351.531 124.018C351.926 125.7 350.107 127.247 348.376 127.256C344.76 127.285 342.221 124.354 341.289 121.201C340.75 119.403 339.721 114.512 342.491 114.233C341.654 113.137 342.529 111.926 342.01 110.754C341.722 110.12 341.01 109.812 340.529 109.302C339.567 108.284 339.712 106.563 340.529 105.419C341.346 104.275 342.655 103.602 343.962 103.092C345.241 102.592 346.683 102.208 347.943 102.728C349.213 103.246 349.972 105.044 349.029 106.034C348.01 107.101 345.923 106.486 344.991 107.64C344.404 108.351 344.606 109.476 345.193 110.187C345.789 110.898 346.674 111.292 347.53 111.629C348.01 111.821 348.53 112.042 348.723 112.513C349.021 113.215 348.415 113.926 348.03 114.579C347.655 115.243 347.732 116.396 348.492 116.396C349.232 116.386 349.348 115.338 349.762 114.723C350.339 113.858 351.829 113.992 352.406 114.867C352.974 115.733 352.677 116.991 351.907 117.684ZM442.178 84.0726C442.015 84.3902 441.813 84.7066 441.707 85.0528C441.591 85.4374 441.591 85.8506 441.496 86.2352C441.208 87.388 440.14 88.1385 439.178 88.8396C438.505 89.3198 437.841 89.8583 437.437 90.5792C437.274 90.877 437.158 91.2033 436.976 91.5023C436.023 93.1077 433.167 93.4341 434.966 91.1946C436.072 89.8012 437.725 87.7539 439.101 86.5429C439.571 86.1297 440.149 85.7836 440.466 85.2451C440.985 84.3605 440.697 83.255 440.736 82.2363C440.764 81.2177 441.544 79.9968 442.525 80.2858C442.891 81.5253 442.765 82.9089 442.178 84.0726ZM319.21 66.3298C319.22 66.4353 319.22 66.5407 319.21 66.6561C319.182 67.0506 319.095 67.4254 318.969 67.7902C319.123 67.8001 319.267 67.8001 319.383 67.7902C319.615 67.3001 319.471 66.8199 319.21 66.3298ZM311.7 90.7143C313.527 90.5803 314.892 89.4264 315.796 87.8407C314.066 88.2528 312.364 89.099 311.7 90.7143Z" fill="#D4DEEF"/>
<path d="M325.999 102.555C324.47 103.171 322.691 103.151 321.297 104.026C320.729 104.372 320.306 104.987 320.114 105.631C319.883 105.756 319.652 105.891 319.421 106.016C315.363 108.322 316.882 103.248 313.084 103.276C309.382 103.305 310.449 109.505 308.795 108.956C308.371 109.898 309.064 111.023 308.766 112.012C308.66 112.359 308.448 112.656 308.294 112.983C308.199 113.185 308.13 113.396 308.092 113.617C307.054 114.664 306.169 115.875 305.533 117.193C305.485 117.049 305.438 116.914 305.389 116.77C304.486 115.876 302.831 116.827 302.543 118.058C302.254 119.287 302.792 120.547 303.159 121.758C303.524 122.969 303.649 124.449 302.745 125.342C302.273 125.814 301.505 126.14 302.188 127.217C302.428 127.611 302.909 127.765 303.371 127.697C304.351 127.553 305.188 129.37 304.227 129.427C302.458 129.638 301.16 127.783 300.602 126.082C300.054 124.39 299.669 122.42 298.179 121.439C297.448 120.959 296.457 120.728 296.102 119.93C295.506 118.594 297.237 117.028 296.602 115.71C295.977 114.422 293.881 114.894 292.794 113.942C291.88 113.126 292.005 111.559 291.12 110.722C290.668 110.289 290.043 110.127 289.467 109.906C287.639 109.204 286.13 107.743 285.37 105.945C284.322 106.138 284.476 107.695 284.976 108.637C286.899 112.231 289.958 115.211 293.602 117.047C292.419 117.642 291.833 118.988 291.351 120.228C290.611 122.073 289.88 123.928 289.149 125.783C288.033 125.649 286.87 125.485 285.976 124.812C285.082 124.14 284.6 122.765 285.264 121.872C286.486 123.054 288.852 122.631 289.582 121.103C290.313 119.555 289.159 117.46 287.467 117.267C288.178 115.249 285.909 113.481 283.909 112.721C281.909 111.962 279.456 111 279.216 108.876C278.302 108.06 276.831 108.473 275.841 109.184C274.85 109.905 274.023 110.895 272.86 111.289C271.706 111.684 270.062 111.02 270.129 109.799C269.533 110.318 268.936 110.828 268.34 111.347C269.696 111.731 268.927 113.904 267.677 114.548C266.427 115.182 264.725 115.586 264.417 116.96C264.292 117.508 264.455 118.084 264.445 118.661C264.436 119.526 264.032 120.343 263.637 121.121C262.657 123.034 261.397 125.167 259.281 125.562C258.041 125.793 256.147 125.927 256.319 127.167C254.53 125.61 252.03 124.889 249.684 125.264C249.828 124.169 249.972 123.073 250.107 121.986C249.299 121.861 248.482 121.745 247.674 121.63C248.924 119.9 249.376 117.603 248.876 115.527C248.596 114.364 248.26 112.73 249.386 112.317C248.78 111.778 248.338 111.058 248.116 110.27C249.799 109.53 251.761 109.453 253.511 110.039C254.271 110.288 254.992 110.663 255.762 110.894C257.935 111.548 260.551 110.817 261.801 108.933C263.051 107.04 262.532 104.099 260.541 103.012C259.493 102.445 258.223 102.397 257.194 101.782C256.185 101.166 255.656 99.4751 256.675 98.8696C257.512 100.148 259.435 100.542 260.705 99.7059C260.109 98.6872 259.85 97.4861 259.965 96.3136C260.898 95.929 262.1 96.8136 261.985 97.8224C263.638 97.8609 265.255 96.7268 265.784 95.1598C265.976 94.6213 266.053 94.0257 266.428 93.5839C266.928 92.9982 267.793 92.9114 268.515 92.6422C270.304 91.9696 271.361 89.7872 270.774 87.9806C273.082 86.9136 275.659 86.4334 278.189 86.5774C277.295 84.9246 276.372 83.1653 276.458 81.2818C276.545 79.407 278.074 77.4664 279.939 77.6389C280.228 78.7345 280.209 79.907 279.901 81.0026C280.45 81.1279 280.987 81.2433 281.536 81.3675C280.353 82.3477 279.151 84.2411 280.381 85.1642C281.362 85.8949 282.766 84.9532 283.969 85.2026C284.518 85.318 284.988 85.6828 285.527 85.8081C287.96 86.4136 290.316 82.4147 292.374 83.8477C293.066 84.3279 293.344 85.3081 294.528 85.1642C295.182 85.0774 295.749 84.6642 296.066 84.0872C296.749 82.9048 296.527 81.54 296.662 80.2334C296.777 79.0993 297.326 77.84 298.431 77.5422C299.642 77.2158 300.806 78.2147 302.056 78.3499C304.161 78.5905 305.816 75.6971 304.537 74.0059C302.941 75.2268 300.892 75.8323 298.883 75.6686C298.287 74.6301 299.527 73.5059 300.613 73.0158C304.354 71.3532 308.596 70.8433 312.624 71.5741C313.345 70.9015 312.306 69.8444 311.422 69.4213C310.537 69.0081 309.556 67.8741 310.316 67.2587C307.662 66.1917 305.334 69.9114 302.469 70.0455C299.536 70.1895 297.834 66.2686 298.921 63.5389C300.017 60.8191 302.739 59.1565 305.287 57.695C303.604 55.0521 299.2 54.84 297.276 57.3104C297.517 59.329 296.699 61.4433 295.161 62.7697C293.574 64.1345 290.987 65.384 291.526 67.4114C291.998 69.1895 294.834 70.0455 294.449 71.8521C294.103 73.5147 291.382 73.5345 290.738 75.1004C290.276 76.2444 291.171 77.6477 290.622 78.7532C290.065 79.8686 288.478 79.907 287.478 80.6565C286.795 81.1664 286.41 81.9729 285.785 82.5499C285.151 83.1169 284.007 83.3378 283.545 82.6169C283.093 81.9059 283.689 81.0312 284.015 80.2521C285.016 77.9554 283.573 75.3982 282.178 73.3125C279.351 73.0818 277.889 78.4257 275.263 77.34C274.523 77.0323 274.09 76.2829 273.715 75.5719C272.676 73.6499 271.628 71.6884 271.234 69.5356C270.849 67.3829 271.224 64.9796 272.733 63.4038C274.743 61.3082 278.119 61.184 280.35 59.3378C282.85 57.2719 283.456 53.4367 286.138 51.6202C287.745 50.5345 290.207 49.9477 290.399 48.0159C288.63 48.1598 286.86 48.3038 285.091 48.4488C285.899 46.9686 287.812 46.1994 289.408 46.7093C288.744 45.2873 290.389 43.7587 291.957 43.5378C293.525 43.3269 295.169 43.7785 296.679 43.3269C297.911 42.9521 298.891 42.0389 300.073 41.5291C301.093 41.0873 302.227 40.9818 303.343 40.9236C304.593 40.8653 305.853 40.8653 307.104 40.9236C304.642 43.106 302.968 46.2005 303.68 49.3148C304.776 54.1115 311.008 58.1279 308.729 62.4829C310.874 62.0027 313.113 61.5312 315.239 62.0697C316.383 62.3488 317.489 63.0213 318.239 63.9246C318.134 64.7609 318.816 65.5488 319.21 66.3279C319.22 66.4334 319.22 66.5389 319.21 66.6543C319.181 67.0488 319.095 67.4235 318.969 67.7884C317.123 67.7213 312.786 66.8268 314.863 69.8543C315.786 68.7587 316.218 69.4598 317.286 69.3444C317.728 69.296 318.142 68.8345 317.979 68.4213C318.219 68.4312 318.459 68.4411 318.7 68.4598C318.315 69.2862 317.796 70.0741 317.43 70.9015C315.901 74.3521 317.017 78.3114 317.142 82.0796C317.199 84.0114 316.757 86.1642 315.796 87.8367C316.027 87.7883 316.258 87.7411 316.489 87.7026C320.768 86.9719 325.653 88.0587 328.279 91.518C330.894 94.9817 330.019 100.931 325.999 102.555Z" fill="#D4DEEF"/>
<path d="M246.072 86.0445C246.065 87.1093 247.092 88.0719 246.808 89.0983C246.528 90.1126 245.091 90.573 245.029 91.6236C244.96 92.7972 246.595 93.2214 247.749 92.9862C249.879 92.5533 251.82 91.2566 253.037 89.4555C253.632 88.5741 253.865 87.0621 252.861 86.7115C254.237 86.2291 255.611 85.7456 256.986 85.2632C258.066 86.1829 259.227 87.7335 258.337 88.8379C257.762 89.55 256.409 90.0423 256.817 90.8621C256.983 91.1961 257.425 91.3632 257.503 91.7291C257.586 92.1148 257.218 92.4302 256.916 92.684C255.614 93.7763 254.848 95.4785 254.895 97.1774C256.85 95.373 259.538 94.3884 262.197 94.5027C262.819 94.5291 263.514 94.5917 263.99 94.1906C264.466 93.7895 264.255 92.7555 263.642 92.8555C264.386 92.3214 265.13 91.7873 265.875 91.2522C266.043 91.1313 266.218 91.0016 266.3 90.8126C266.493 90.3676 266.059 89.8829 265.601 89.7269C265.142 89.5708 264.63 89.5939 264.19 89.3884C263.219 88.9335 263.057 87.6643 262.721 86.6467C262.387 85.6291 261.193 84.5972 260.37 85.284C260.576 84.306 260.777 83.2566 260.392 82.3346C260.006 81.4126 258.774 80.7851 257.969 81.3797C257.504 80.6906 258.582 80.0533 259.147 79.4434C259.763 78.7796 259.751 77.6258 259.11 76.9863C258.467 76.3478 257.296 76.3489 256.67 77.0016C256.756 75.1181 257.155 72.7994 258.951 72.2258C259.445 72.0676 259.983 72.0775 260.473 71.9104C260.963 71.7423 261.432 71.2939 261.351 70.7819C261.437 71.3819 262.406 71.4126 262.765 70.9258C263.125 70.439 263.049 69.7676 262.958 69.1698C261.558 68.7687 260.955 71.1247 259.568 71.5698C258.93 71.7742 258.201 71.5313 257.583 71.7896C256.12 72.4016 256.514 75.1236 254.984 75.5478C254.623 75.6478 254.223 75.5797 253.878 75.728C253.182 76.0269 253.105 76.9884 253.275 77.7269C253.444 78.4654 253.743 79.2599 253.423 79.9467C253.247 80.3236 252.886 80.6983 253.033 81.0873C253.225 81.6016 253.982 81.4632 254.501 81.6456C255.804 82.1082 255.093 83.6412 254.417 84.2456C253.57 85.0016 252.143 84.8038 251.146 84.6654C249.647 84.4533 246.091 83.1456 246.072 86.0445Z" fill="#D4DEEF"/>
<path d="M278.772 116.617C278.595 116.469 278.417 116.322 278.24 116.175C278.792 116.043 279.16 115.471 279.192 114.904C279.224 114.338 278.982 113.787 278.665 113.318C278.283 112.753 277.622 112.223 276.978 112.445C276.159 112.728 276.146 113.889 276.42 114.71C276.695 115.531 277.083 116.49 276.584 117.198C276.89 117.126 277.231 117.223 277.452 117.448C276.26 118.212 275.98 120.643 277.741 120.785C279.498 120.927 279.843 118.671 278.066 118.261C278.099 118.151 278.791 116.632 278.772 116.617Z" fill="#D4DEEF"/>
<path d="M478.128 135.651C478.226 134.703 478.325 133.598 479.126 133.081C479.383 133.738 479.865 134.305 480.472 134.664C481.019 134.349 481.317 133.744 481.636 133.199C481.955 132.654 482.391 132.094 483.014 131.992C483.637 131.889 484.339 132.585 484.011 133.125C485.64 133.767 486.721 131.396 488.232 130.511C489.029 130.045 489.997 130.01 490.892 129.782C491.787 129.553 492.731 128.983 492.858 128.069C492.931 127.534 492.705 127.005 492.687 126.465C492.65 125.314 493.532 124.374 494.099 123.372C495.09 121.622 495.135 119.375 494.217 117.587C493.719 116.618 492.954 115.764 492.708 114.703C492.462 113.641 493.078 112.256 494.167 112.272C494.468 113.198 494.873 114.237 495.783 114.583C496.694 114.929 497.914 113.772 497.255 113.054C498.278 112.773 499.353 112.68 500.41 112.78C500.856 112.122 500.75 111.149 500.173 110.604C503.514 109.439 506.389 107.141 508.594 104.374C505.548 106.265 502.504 108.156 499.458 110.047C499.097 110.271 498.667 110.503 498.272 110.351C497.911 110.214 497.736 109.817 497.554 109.476C496.733 107.938 495.009 106.927 493.267 106.962C493.407 108.417 493.549 109.872 493.691 111.327C492.654 111.138 491.714 112.112 491.473 113.139C491.234 114.165 491.473 115.233 491.56 116.283C491.866 119.974 490.118 123.77 487.114 125.938C487.102 125.341 487.09 124.745 487.078 124.149C485.49 124.381 486.217 127.341 484.788 128.07C484.386 128.274 483.91 128.236 483.461 128.283C481.223 128.519 481.259 130.818 478.839 129.901C478.6 132.838 474.866 132.32 475.135 135.276C475.359 137.774 477.714 139.679 478.128 135.651Z" fill="#B1C7EF"/>
<path d="M497.752 89.1903C497.792 89.4024 497.83 89.62 497.797 89.8343C497.734 90.2442 497.418 90.5716 497.303 90.9694C497.102 91.6628 497.549 92.3782 498.07 92.8771C498.591 93.3771 499.221 93.7958 499.553 94.4365C500.11 95.5068 499.714 96.9727 500.512 97.8782C500.262 98.4936 499.329 98.3068 498.789 97.9211C498.248 97.5354 497.583 97.0299 496.999 97.3464C496.312 98.3365 496.693 99.7002 497.237 100.777C497.78 101.853 498.485 102.953 498.376 104.153C498.325 104.718 497.896 105.371 497.343 105.239C497.131 105.188 496.963 105.031 496.807 104.879C496.063 104.163 495.278 103.366 495.139 102.344C495.036 101.599 495.298 100.861 495.485 100.133C495.87 98.6332 495.945 97.0551 495.703 95.5255C495.599 94.8694 495.437 94.2145 495.462 93.5507C495.507 92.32 496.156 90.9519 495.439 89.9497C495.215 89.6365 494.853 89.2881 495.022 88.9431C495.329 88.3145 496.692 87.1332 497.175 86.6387C497.486 87.4376 497.594 88.3277 497.752 89.1903Z" fill="#B1C7EF"/>
<path d="M420.063 193.249C421.069 193.99 422.322 194.52 422.911 195.623C423.365 196.473 423.365 197.581 424.064 198.245C424.439 198.6 424.96 198.767 425.34 199.116C426.23 199.935 426.033 201.372 426.461 202.502C427.068 204.103 428.935 205.053 429.29 206.729C429.411 207.302 429.341 207.92 429.59 208.45C430.065 209.461 431.428 209.675 432.19 210.492C432.565 210.894 432.773 211.423 433.095 211.869C434.004 213.129 435.893 213.556 437.258 212.811C436.773 212.068 436.499 211.189 436.479 210.302C436.467 209.779 436.541 209.249 436.441 208.736C436.199 207.494 435.014 206.622 434.686 205.4C435.242 204.992 435.97 205.591 436.386 206.141C436.8 206.692 437.496 207.312 438.076 206.939C437.019 205.559 435.813 204.293 434.485 203.172C434.589 203.673 433.914 204.045 433.433 203.87C432.951 203.694 432.661 203.215 432.409 202.768C432.22 202.431 432.024 202.069 432.059 201.685C432.089 201.364 432.277 201.078 432.334 200.761C432.454 200.096 431.976 199.464 431.431 199.066C430.885 198.667 430.241 198.396 429.765 197.915C428.817 196.958 428.655 195.294 427.47 194.652C426.904 194.346 426.211 194.349 425.637 194.057C423.852 193.146 423.509 190.504 421.468 189.69C418.571 188.531 417.96 191.7 420.063 193.249Z" fill="#B1C7EF"/>
<path d="M437.922 213.237C437.498 213.83 437.072 214.422 436.648 215.015C436.556 215.144 436.46 215.284 436.461 215.441C436.464 215.881 437.094 215.946 437.532 215.886C438.913 215.696 440.329 215.766 441.684 216.091C443.97 216.64 446.148 217.911 448.495 217.764C448.851 217.742 449.21 217.686 449.561 217.74C449.942 217.797 450.293 217.976 450.661 218.086C451.514 218.338 452.475 218.197 453.218 217.708C452.586 217.098 451.598 217.143 450.722 217.078C449.847 217.013 448.806 216.613 448.7 215.742C448.672 215.506 448.72 215.262 448.661 215.031C448.534 214.541 447.972 214.297 447.466 214.267C446.96 214.237 446.448 214.351 445.951 214.255C445.112 214.095 444.47 213.318 443.636 213.202C442.794 213.086 442.422 213.726 441.743 213.758C440.34 213.824 439.233 211.409 437.922 213.237Z" fill="#B1C7EF"/>
<path d="M457.783 218.21C458.52 218.226 459.241 218.806 459.933 218.551C460.108 218.486 460.267 218.371 460.453 218.354C460.683 218.334 460.893 218.471 461.102 218.567C463.125 219.5 465.448 216.837 467.523 217.646C467.039 219.613 464.436 220.234 463.413 221.983C465.177 221.724 466.84 220.826 468.023 219.491C468.344 219.129 468.64 218.728 469.049 218.468C469.284 218.319 469.549 218.222 469.782 218.071C470.329 217.715 470.658 217.052 470.612 216.401C470.01 216.387 469.405 216.535 468.877 216.827C468.487 217.042 468.127 217.339 467.692 217.439C466.967 217.605 466.247 217.186 465.511 217.082C463.955 216.862 462.458 218.48 461.041 218.212C460.486 218.107 460.196 217.478 459.485 217.299C458.911 217.155 457.998 217.401 457.348 217.309C456.622 217.206 455.127 216.471 454.579 217.243C452.966 219.52 457.384 218.202 457.783 218.21Z" fill="#B1C7EF"/>
<path d="M457.389 220.369C457.701 220.02 458.3 220.239 458.607 220.59C458.915 220.942 459.109 221.409 459.507 221.654C459.906 221.902 460.467 221.849 460.812 221.531C461.015 221.344 461.145 221.042 461.041 220.786C460.935 220.527 460.64 220.407 460.376 220.314C460.119 220.223 459.861 220.132 459.604 220.042C459.152 219.883 458.68 219.722 458.205 219.787C457.731 219.852 457.261 220.219 457.254 220.698" fill="#B1C7EF"/>
<path d="M444.763 206.721C443.913 206.811 442.799 206.886 442.47 206.097C442.277 205.632 442.496 205.108 442.508 204.606C442.529 203.78 441.997 203.061 441.616 202.328C440.95 201.045 440.709 199.546 440.942 198.121C441.002 197.761 441.099 197.386 441.351 197.121C441.512 196.952 441.722 196.841 441.927 196.733C442.719 196.318 443.511 195.902 444.301 195.487C445.338 194.943 446.376 194.398 447.349 193.747C449.777 192.124 451.763 189.85 453.043 187.224C453.486 186.754 454.307 187.197 454.602 187.77C454.898 188.344 454.973 189.05 455.428 189.509C456.127 190.212 457.656 190.368 457.538 191.352C457.492 191.741 457.162 192.022 456.891 192.307C455.945 193.303 455.552 194.796 455.889 196.129C456.225 197.462 457.278 198.59 458.585 199.019C457.387 199.134 455.846 199.601 455.841 200.803C455.839 201.561 456.511 202.358 456.096 202.991C455.664 203.651 454.508 203.342 453.996 203.942C453.585 204.423 453.841 205.146 453.928 205.773C454.145 207.34 452.93 208.965 451.365 209.201C450.706 209.301 449.935 209.122 449.602 208.544C449.427 208.241 449.399 207.875 449.257 207.555C448.682 206.269 447.822 207.043 446.975 207.031C446.386 207.022 445.555 206.637 444.763 206.721Z" fill="#B1C7EF"/>
<path d="M468.092 197.516C468.233 197.468 468.372 197.422 468.512 197.375C468.213 197.178 467.808 197.24 467.517 197.446C467.225 197.654 467.018 197.956 466.779 198.223C465.952 199.146 464.678 199.649 463.443 199.539C462.667 199.469 461.893 199.175 461.128 199.322C460.189 199.504 459.48 200.341 459.201 201.255C459.061 201.716 459.195 202.417 459.674 202.378C459.941 201.556 460.689 200.952 461.514 200.69C462.338 200.429 463.23 200.472 464.081 200.625C464.748 200.745 465.422 200.933 466.094 200.845C466.767 200.757 467.453 200.297 467.534 199.623C467.593 199.135 467.332 198.611 467.541 198.166C467.722 197.779 468.237 197.435 468.035 197.06C467.817 197.101 468.312 197.474 468.092 197.516Z" fill="#D4DEEF"/>
<path d="M457.756 208.377C458.065 209.767 458.715 211.22 458.211 212.552C458.77 212.804 459.441 212.332 459.63 211.748C459.819 211.165 459.671 210.531 459.526 209.935C459.382 209.339 459.243 208.701 459.45 208.123C459.498 207.99 459.581 207.848 459.719 207.819C459.787 207.803 459.859 207.819 459.926 207.837C460.684 208.054 461.203 208.775 461.441 209.526C461.68 210.277 461.696 211.077 461.804 211.857C461.871 212.344 462.006 212.875 462.414 213.148C463.087 213.599 464.045 212.997 464.298 212.228C464.55 211.459 464.346 210.626 464.238 209.825C464.088 208.712 464.005 207.369 463.019 206.83C462.613 206.608 462.047 206.508 461.916 206.065C461.759 205.533 462.39 205.123 462.922 204.966C463.406 204.824 463.902 204.721 464.402 204.659C464.999 204.586 465.773 204.417 465.834 203.819C465.896 203.197 465.11 202.887 464.494 202.783C463.752 202.656 462.998 202.531 462.251 202.627C461.505 202.723 460.755 203.077 460.361 203.718C460.278 203.853 460.2 204.01 460.052 204.069C459.846 204.154 459.614 204 459.492 203.813C459.37 203.626 459.308 203.402 459.167 203.229C457.558 201.237 457.636 207.836 457.756 208.377Z" fill="#B1C7EF"/>
<path d="M471.169 206.985C470.349 206.792 469.481 206.812 468.67 207.042C468.524 207.084 468.353 207.166 468.346 207.317C468.338 207.48 468.522 207.577 468.679 207.618C469.457 207.83 470.315 207.741 471.033 207.373C470.924 207.052 470.501 206.886 470.203 207.048" fill="#B1C7EF"/>
<path d="M474.689 206.554C474.278 206.343 473.743 206.403 473.389 206.702C473.036 207 472.885 207.517 473.024 207.958C473.843 208.166 474.673 207.198 475.456 207.517C475.969 207.727 476.23 208.433 476.784 208.462C477.256 208.488 477.59 207.825 477.289 207.461C477.035 207.154 476.551 207.157 476.244 206.903C475.686 206.441 476.032 205.544 476.413 204.928C475.79 204.793 475.324 205.524 475.242 206.156C475.206 206.434 475.202 206.726 475.072 206.976C474.943 207.225 474.634 207.412 474.379 207.294" fill="#B1C7EF"/>
<path d="M471.202 202.701C471.193 202.929 471.187 203.167 471.292 203.371C471.395 203.574 471.647 203.72 471.856 203.628C472.013 203.558 472.092 203.385 472.158 203.227C472.37 202.716 472.582 202.129 472.344 201.63C472.237 201.406 472.047 201.223 471.965 200.988C471.721 200.289 472.568 199.908 473.113 199.963C472.984 199.078 472.231 199.705 472.229 198.743C472.229 198.597 473.89 197.962 472.508 197.73C470.704 197.427 471.246 201.529 471.202 202.701Z" fill="#D4DEEF"/>
<path d="M478.681 201.602C477.847 201.666 476.934 201.643 476.279 201.122C475.662 201.635 476.067 202.704 476.747 203.131C477.427 203.558 478.276 203.633 478.982 204.017C479.688 204.4 480.218 205.375 479.705 205.992C480.271 206.139 480.835 206.286 481.4 206.432C481.531 206.963 480.929 207.345 480.472 207.646C480.015 207.947 479.645 208.69 480.12 208.962C480.34 209.433 481.044 209.356 481.5 209.108C481.957 208.858 482.446 208.5 482.943 208.652C483.267 208.751 483.485 209.042 483.723 209.284C484.722 210.3 486.245 210.544 487.526 211.172C488.807 211.798 489.964 213.317 489.271 214.562C489.008 215.033 488.535 215.343 488.179 215.748C487.823 216.153 487.588 216.777 487.894 217.221C489.02 217.298 490.17 216.939 491.052 216.234C491.958 217.204 493.029 218.11 494.328 218.392C495.626 218.674 497.179 218.141 497.685 216.914C497.785 216.672 497.854 216.396 498.057 216.228C498.342 215.993 498.763 216.072 499.119 216.172C500.211 216.479 501.277 216.875 502.305 217.354C502.501 217.445 502.711 217.554 502.804 217.75C502.938 218.033 502.774 218.358 502.73 218.668C502.567 219.819 503.989 220.482 505.134 220.685C506.686 220.959 508.261 221.101 509.837 221.109C509.89 220.319 509.037 219.779 508.264 219.606C507.491 219.432 506.623 219.408 506.036 218.877C505.343 218.252 505.278 217.121 504.552 216.536C504.007 216.098 503.045 215.808 503.193 215.124C503.351 214.391 504.639 214.488 504.886 213.78C505.039 213.343 504.657 212.879 504.224 212.715C503.791 212.552 503.31 212.581 502.855 212.495C501.716 212.279 500.779 211.258 500.663 210.106C500.619 209.669 500.677 209.209 500.5 208.808C500.232 208.201 499.53 207.936 498.898 207.733C495.536 206.65 492.174 205.566 488.811 204.483C488.329 204.326 487.803 204.172 487.325 204.339C486.034 204.79 486.123 207.109 484.778 207.354C484.08 207.481 483.463 206.923 482.973 206.41C482.493 205.908 481.802 205.185 481.741 204.45C481.698 203.944 482.214 203.503 482.165 203.057C481.976 201.344 480.007 201.501 478.681 201.602Z" fill="#B1C7EF"/>
<path d="M504.828 212.202C504.924 212.35 505.104 212.414 505.273 212.461C506.674 212.847 508.219 212.688 509.511 212.025C509.927 211.812 510.334 211.542 510.799 211.493C511.104 211.461 511.413 211.526 511.717 211.494C512.022 211.462 512.351 211.287 512.408 210.986C512.464 210.691 512.247 210.35 512.422 210.105C512.605 209.849 513.053 209.949 513.256 209.707C513.481 209.439 513.212 209.048 512.957 208.806C511.919 207.827 510.91 206.77 509.801 205.882C509.702 207.281 510.725 208.894 509.628 210.093C508.993 210.791 504.496 211.685 504.828 212.202Z" fill="#B1C7EF"/>
<path d="M518.605 216.569C519.116 216.738 519.655 216.814 520.153 217.014C520.653 217.214 521.128 217.575 521.277 218.091C521.275 218.067 521.272 218.044 521.269 218.021C521.094 216.645 519.694 215.786 518.453 215.137C518.29 215.053 518.117 214.958 518.03 214.796C517.977 214.693 516.316 215.812 518.605 216.569Z" fill="#D4DEEF"/>
<path d="M533.199 243.19C533.074 242.62 532.874 242.05 532.496 241.605C532.117 241.159 531.532 240.857 530.953 240.936C530.457 242.027 531.319 243.27 532.309 243.946C533.006 244.422 533.796 244.727 534.581 244.996C533.592 245.163 533.365 243.945 533.199 243.19Z" fill="#D4DEEF"/>
<path d="M536.456 233.241C536.916 234.357 537.248 235.526 537.443 236.717C537.996 236.402 538.151 235.56 537.746 235.069C538.142 235.421 538.146 236.021 538.238 236.543C538.475 237.91 539.56 239.091 540.903 239.445C541.11 239.044 540.939 238.539 540.65 238.192C540.361 237.845 539.969 237.6 539.642 237.289C539.025 236.702 538.648 235.87 538.615 235.021C538.585 234.255 538.724 233.283 538.053 232.913C537.936 233.244 537.821 233.576 537.704 233.906C537.512 233.887 537.386 233.697 537.311 233.519C536.846 232.408 537.316 230.816 536.266 230.01C536.105 230.501 535.79 231.013 535.248 231.079C535.238 231.875 536.143 232.48 536.456 233.241Z" fill="#D4DEEF"/>
<path d="M522.999 216.925C523.767 217.252 524.755 217.129 525.337 217.729C525.91 218.32 525.787 219.322 526.274 219.985C526.503 220.298 526.849 220.507 527.099 220.803C527.349 221.099 527.484 221.567 527.232 221.862C526.917 222.231 526.265 222.003 526.024 221.583C525.783 221.163 525.804 220.65 525.745 220.169C525.687 219.687 525.48 219.154 525.021 218.998C524.579 218.849 523.993 219.082 523.684 218.732C523.581 218.616 523.54 218.458 523.484 218.312C523.037 217.13 521.524 216.545 521.262 215.348C521.864 215.811 522.23 216.597 522.999 216.925Z" fill="#D4DEEF"/>
<path d="M477.996 214.947C477.224 215.603 476.525 216.345 475.916 217.155C476.379 217.381 476.987 217.262 477.329 216.876C477.671 216.49 477.717 215.873 477.434 215.44" fill="#B1C7EF"/>
<path d="M483.108 211.728C483.562 212.07 483.972 212.554 483.988 213.123C484.003 213.691 483.442 214.272 482.902 214.093C483.008 213.279 483.113 212.465 483.218 211.65" fill="#B1C7EF"/>
<path d="M478.21 224.084C477.81 223.247 476.633 222.898 475.841 223.384C476.531 223.96 476.597 225.135 475.975 225.784C475.657 226.116 475.218 226.3 474.854 226.581C473.653 227.508 473.6 229.569 474.754 230.555C474.196 230.844 473.638 231.133 473.08 231.423C472.689 229.958 471.567 228.706 470.153 228.154C468.227 229.361 466.793 231.328 466.234 233.529C466.01 233.567 465.786 233.607 465.563 233.645C465.46 234.296 465.357 234.948 465.255 235.598C464.759 234.937 464.559 234.063 464.718 233.252C463.555 233.483 462.9 234.719 462.58 235.86C462.26 237 462.07 238.262 461.229 239.098C460.613 239.71 459.748 239.985 458.918 240.24C457.643 240.63 456.369 241.021 455.096 241.411C454.045 241.733 452.901 242.126 452.334 243.067C451.874 243.83 451.58 245.049 450.696 244.942C450.323 244.897 450.032 244.591 449.668 244.498C448.917 244.309 448.245 245.137 448.213 245.91C448.18 246.684 448.546 247.41 448.747 248.159C448.949 248.907 448.931 249.829 448.322 250.308C449.029 250.351 449.758 250.627 450.176 251.199C450.593 251.772 450.591 252.666 450.054 253.128C449.515 253.588 448.496 253.326 448.372 252.628C449.923 256.85 451.018 261.238 451.634 265.693C451.885 267.514 452.032 269.475 451.149 271.087C452.684 272.243 454.924 272.364 456.576 271.381C457.502 270.829 458.233 269.978 459.201 269.506C460.888 268.683 462.934 269.16 464.731 268.616C466.377 268.118 467.716 266.793 469.409 266.495C470.687 266.27 472.109 266.64 473.229 265.984C473.758 265.674 474.145 265.169 474.654 264.828C475.222 264.447 475.917 264.292 476.601 264.252C479.318 264.097 482.1 265.966 482.713 268.616C482.866 269.278 482.894 269.975 483.155 270.604C483.415 271.231 484.008 271.798 484.686 271.738C484.857 269.662 486.83 267.9 488.913 267.966C489.013 268.634 488.534 269.248 488.025 269.692C487.515 270.137 486.923 270.54 486.658 271.162C486.393 271.784 486.69 272.696 487.364 272.744C487.706 272.099 488.176 271.522 488.741 271.06C489.801 272.003 489.302 274.079 487.929 274.438C489.246 274.048 491.112 273.917 491.553 275.217C491.678 275.585 491.637 275.985 491.675 276.372C491.868 278.381 493.971 279.555 495.811 280.383C496.185 280.551 496.586 280.723 496.991 280.655C497.687 280.539 498.058 279.801 498.464 279.223C498.869 278.645 499.699 278.14 500.23 278.606C500.69 279.008 500.499 279.803 500.863 280.293C501.356 280.956 502.456 280.601 502.995 279.975C503.535 279.349 503.855 278.509 504.554 278.067C505.856 277.247 508.217 277.887 508.601 276.398C508.81 275.588 508.129 274.842 507.907 274.037C507.559 272.776 508.374 271.489 509.31 270.576C510.245 269.662 511.372 268.874 511.927 267.69C512.854 265.712 511.881 263.359 512.255 261.206C512.629 259.045 514.342 256.897 513.445 254.895C513.093 254.109 512.378 253.519 512.082 252.711C511.798 251.931 511.915 250.984 511.384 250.345C511.048 249.941 510.521 249.755 510.093 249.448C508.675 248.426 508.637 246.384 508.095 244.722C507.107 241.695 504.266 239.727 502.301 237.221C501.939 236.759 501.598 236.261 501.442 235.694C501.26 235.034 501.343 234.336 501.289 233.654C501.158 231.995 500.158 230.429 498.708 229.611C498.392 229.432 498.044 229.278 497.822 228.991C497.506 228.582 497.524 228.019 497.508 227.504C497.446 225.562 496.674 223.65 495.372 222.207C494.51 226.47 493.648 230.731 492.786 234.994C492.286 235.374 491.678 235.61 491.051 235.666C490.803 234.577 490.553 233.488 490.305 232.4C489.076 232.463 487.785 232.515 486.681 231.972C485.577 231.429 484.768 230.074 485.263 228.948C485.532 228.332 486.142 227.648 485.741 227.109C486.841 227.522 487.802 225.737 486.997 224.882C485.728 223.536 484.34 225.487 483.033 225.417C481.408 225.328 479.955 223.058 478.21 224.084Z" fill="#B4CCE6"/>
<path d="M501.575 290.547C501.566 290.862 501.557 291.247 501.827 291.409C501.936 291.473 502.068 291.484 502.195 291.493C503.121 291.556 504.29 291.433 504.607 290.56C504.861 289.859 504.379 289.048 504.639 288.349C504.724 288.119 504.883 287.925 505.018 287.72C505.356 287.208 505.553 286.565 505.39 285.973C505.225 285.382 504.619 284.899 504.016 285.014C503.687 285.078 503.406 285.299 503.082 285.384C502.038 285.658 499.044 283.426 499.303 285.928C499.384 286.713 500.467 287.329 500.867 287.968C501.346 288.736 501.603 289.643 501.575 290.547Z" fill="#B1C7EF"/>
<path d="M536.118 294.93C535.423 295.16 534.66 295.26 534.079 295.704C533.498 296.148 533.237 297.127 533.804 297.588C534.241 297.942 534.891 297.798 535.426 297.97C536.626 298.353 536.735 299.984 536.611 301.238C537.453 301.597 538.365 300.862 538.83 300.075C539.295 299.288 539.614 298.342 540.391 297.862C540.898 297.549 541.562 297.463 541.937 297C542.465 296.349 542.117 295.373 542.312 294.557C542.803 292.512 545.75 292.334 546.538 290.339C547.084 288.952 548.085 286.238 546.443 285.952C542.347 285.234 539.667 293.756 536.118 294.93Z" fill="#D4DEEF"/>
<path d="M549.011 287.377C549.01 287.486 549.011 287.601 549.068 287.692C549.213 287.92 549.573 287.829 549.782 287.658C550.983 286.674 550.257 284.572 551.179 283.322C551.484 282.909 551.939 282.638 552.34 282.319C553.631 281.295 554.426 279.672 554.443 278.024C553.849 278.347 553.238 278.676 552.568 278.769C551.898 278.863 551.145 278.674 550.745 278.129C550.252 277.458 550.417 276.474 549.951 275.785C549.413 274.991 548.251 274.878 547.606 274.171C547.013 273.521 546.999 272.555 546.865 271.687C546.73 270.819 546.282 269.83 545.411 269.709C543.688 271.685 547.072 274.161 547.512 275.846C547.933 277.463 547.1 277.916 546.452 279.273C545.778 280.685 545.329 281.799 546.669 282.897C547.531 283.602 548.242 282.527 548.992 283.833C549.423 284.585 549.021 286.542 549.011 287.377Z" fill="#D4DEEF"/>
<path d="M458.87 169.065C458.775 169.341 458.678 169.624 458.684 169.916C458.701 170.916 459.856 171.595 459.941 172.592C459.975 172.988 459.83 173.381 459.831 173.779C459.833 174.176 460.076 174.637 460.474 174.641C460.818 174.645 461.057 174.319 461.303 174.079C461.549 173.838 462.005 173.684 462.199 173.969C462.285 174.095 462.276 174.26 462.262 174.412C462.156 175.479 461.865 176.526 461.406 177.495C461.981 177.724 462.654 177.351 462.973 176.821C463.292 176.292 463.345 175.649 463.389 175.032C463.411 174.726 463.43 174.405 463.307 174.123C463.12 173.698 462.661 173.471 462.358 173.119C461.795 172.465 461.855 171.468 462.169 170.664C462.484 169.861 463.013 169.156 463.331 168.353C463.414 168.145 463.483 167.92 463.451 167.698C463.417 167.468 463.279 167.269 463.177 167.06C462.926 166.541 462.898 165.946 462.788 165.38C461.824 160.428 459.17 168.196 458.87 169.065Z" fill="#D4DEEF"/>
<path d="M468.343 176.774C468.448 177.692 468.062 178.652 467.351 179.242C467.19 179.375 467.01 179.496 466.911 179.679C466.571 180.305 467.362 180.902 467.929 181.331C469.714 182.681 469.93 185.65 468.361 187.243C468.214 187.394 468.05 187.537 467.959 187.726C467.869 187.912 467.855 188.125 467.853 188.331C467.842 189.268 468.009 190.206 468.344 191.082C467.415 191.547 466.255 190.78 465.901 189.804C465.547 188.828 465.75 187.75 465.92 186.726C465.984 186.346 466.034 185.921 465.817 185.602C465.467 185.084 464.619 185.191 464.181 185.636C463.743 186.081 463.595 186.725 463.421 187.324C463.248 187.924 462.988 188.56 462.442 188.862C462.026 186.779 463.735 184.529 465.854 184.371C466.318 184.337 466.81 184.382 467.224 184.172C467.639 183.961 467.886 183.343 467.543 183.029C467.139 183.042 466.978 182.504 467.014 182.102C467.051 181.699 467.118 181.207 466.791 180.97C466.457 180.726 465.967 180.979 465.744 181.328C465.522 181.677 465.453 182.106 465.236 182.459C464.911 182.988 464.244 183.285 463.631 183.173C463.597 182.251 464.146 181.332 464.974 180.924C464.238 180.664 463.479 180.244 463.194 179.519C462.907 178.794 463.41 177.77 464.188 177.832C464.465 178.546 464.742 179.259 465.02 179.971C465.622 180.349 466.475 179.969 466.825 179.35C467.176 178.731 467.148 177.972 467.05 177.268C467.836 177.67 468.737 176.563 468.415 175.742C468.23 175.271 467.795 174.944 467.359 174.882C467.853 175.386 468.261 176.064 468.343 176.774Z" fill="#D4DEEF"/>
<path d="M350.459 40.4271C350.994 40.0458 350.588 39.1205 349.964 38.9117C349.341 38.7029 348.663 38.9062 348.006 38.9271C347.348 38.9469 346.556 38.6359 346.485 37.9821C346.464 37.7886 346.513 37.5941 346.589 37.415C347.047 36.326 348.341 35.8919 349.186 35.0656C350.501 33.7799 350.616 31.6645 351.77 30.2315C353.366 28.2502 356.382 28.1645 358.427 26.648C359.069 26.1722 359.606 25.5601 360.273 25.1183C362.002 23.9744 364.245 24.1645 366.318 24.1095C369.034 24.037 371.735 23.4623 374.245 22.4238C373.714 24.9392 370.701 25.881 368.207 26.5095C366.529 26.9326 364.868 27.4227 363.228 27.9766C361.143 28.681 359.055 29.5117 357.348 30.9007C355.642 32.2898 354.347 34.3282 354.315 36.5282C354.298 37.6832 355.68 40.1788 354.914 41.0733C354.015 42.126 351.444 40.8667 350.459 40.4271Z" fill="#D4DEEF"/>
<path d="M413.964 11.056C413.335 11.2571 412.707 11.4582 412.078 11.6593C412.658 12.5516 413.857 12.9879 414.875 12.6758C415.941 12.3494 416.979 11.3065 417.979 11.7978C418.237 12.278 417.648 12.7549 417.169 13.0164C416.69 13.278 416.181 13.8989 416.57 14.2813C416.664 14.3736 416.793 14.4208 416.918 14.4615C419.112 15.1648 421.614 14.567 423.713 15.5175C424.374 15.8164 425.015 16.2725 425.739 16.2406C426.464 16.2087 427.142 15.2923 426.642 14.7681C426.315 14.4252 425.65 14.4197 425.519 13.9659C425.281 13.1318 427.248 12.7956 426.863 12.0175C425.44 12.0615 424.019 12.1054 422.596 12.1494C422.112 12.1637 421.521 12.1175 421.312 11.6824C421.193 11.4362 421.239 11.123 421.075 10.9033C420.875 10.6351 420.478 10.6417 420.145 10.6758C419.393 10.7516 418.642 10.8274 417.89 10.9033C419.536 10.7373 421.69 9.86259 423.34 9.46259C421.151 6.98457 414.82 7.28348 413.964 11.056Z" fill="#D4DEEF"/>
<path d="M433.836 14.6667C433.801 13.7425 432.523 13.3371 431.688 13.7338C430.852 14.1305 430.349 14.9788 429.781 15.7096C429.102 16.5854 428.277 17.3371 427.457 18.0843C429.612 17.8063 431.766 17.5283 433.921 17.2513C434.753 17.1436 435.753 16.9052 436.001 16.1041C435.164 15.5349 434.188 15.1755 433.182 15.0645" fill="#D4DEEF"/>
<path d="M490.341 27.7268C490.616 27.562 490.867 27.3455 491.174 27.2565C492.402 26.9005 493.453 28.7115 494.698 28.417C495.223 28.2928 495.595 27.8159 496.099 27.6236C497.281 27.1741 498.599 28.4093 499.719 27.6488C501.18 26.6565 500.551 25.806 499.401 25.3576C498.346 24.9455 496.711 25.3796 495.522 25.0378C494.641 24.7851 493.88 24.2983 493.045 23.9422C491.085 23.1049 487.98 21.7027 486.646 24.2302C485.446 26.5005 488.105 29.0675 490.341 27.7268Z" fill="#D4DEEF"/>
<path d="M507.741 27.1091C506.87 26.397 505.86 25.8553 504.785 25.5267C504.632 25.4794 504.473 25.4366 504.314 25.4443C503.741 25.4695 503.379 26.1827 503.564 26.7256C503.748 27.2684 504.309 27.6102 504.873 27.7179C505.437 27.8256 506.016 27.7476 506.589 27.708C507.793 27.6256 509.009 27.7223 510.185 27.9937C510.406 27.241 509.664 26.4827 508.887 26.3783C508.11 26.2739 507.348 26.6168 506.637 26.952" fill="#D4DEEF"/>
<path d="M496.67 31.4848C496.002 31.1651 495.287 30.9442 494.555 30.8299C494.167 30.7695 493.596 30.9277 493.69 31.309C493.731 31.4727 493.891 31.5728 494.04 31.6541C495.042 32.198 496.109 32.6255 497.211 32.9244C497.72 33.0629 498.426 33.076 498.597 32.5782C498.717 32.2288 498.463 31.8618 498.177 31.6277C497.481 31.0574 496.499 30.8574 495.636 31.109" fill="#D4DEEF"/>
<path d="M282.509 15.7199C283.445 16.2705 284.584 16.3738 285.55 16.8694C286.683 17.4485 287.517 18.5782 287.738 19.8298C287.874 20.5969 287.807 21.4397 288.233 22.0914C288.852 23.0375 290.338 23.1045 291.24 22.4221C292.143 21.7397 292.517 20.5397 292.512 19.409C292.508 18.5199 292.353 17.4903 292.991 16.8705C293.264 16.6046 293.637 16.4738 293.999 16.3529C294.706 16.1167 295.451 15.8859 296.187 16.0122C296.922 16.1375 297.633 16.7386 297.617 17.4848C297.6 18.3837 296.592 19.2177 296.99 20.0243C298.412 20.0046 299.836 19.9848 301.259 19.965C301.751 19.4672 301.405 18.5716 300.823 18.1815C300.242 17.7914 299.513 17.7035 298.872 17.4199C298.232 17.1364 297.629 16.4903 297.809 15.8133C298.078 14.7925 299.528 14.9221 300.583 14.9595C303.394 15.0606 305.989 12.4123 305.827 9.60567C303.33 9.22435 302.097 11.954 300.024 12.6672C298.312 13.2562 297.374 12.2606 295.806 12.4079C294.136 12.565 293.739 13.6309 292.45 13.9397C290.444 14.4189 289.001 13.4265 286.925 13.1507C285.305 12.9331 278.265 13.2254 282.509 15.7199Z" fill="#B1C7EF"/>
<path d="M257.34 3.80277C255.752 6.55332 253.061 8.64672 250.004 9.51046C248.562 9.91705 246.959 10.1072 245.872 11.1357C245.198 11.7731 244.819 12.6522 244.456 13.505C243.742 15.1841 243.016 16.9137 242.978 18.7379C242.94 20.5621 243.748 22.5247 245.39 23.3203C243.101 24.4533 242.877 28.2357 245.016 29.6302C244.143 31.8082 240.487 30.5918 238.76 32.1819C237.419 33.4181 237.939 35.6324 238.747 37.2676C239.555 38.9016 240.58 40.7302 239.929 42.4335C237.475 41.4775 235.02 40.5203 232.566 39.5643C231.639 41.5643 234.303 44.0434 236.234 42.9775C234.377 46.317 229.422 45.6588 225.943 47.239C222.227 48.9258 220.228 53.2643 216.473 54.8588C214.624 55.6434 212.522 55.6774 210.68 56.4785C208.839 57.2796 207.248 59.4038 208.114 61.2148C208.286 61.573 208.551 61.9258 208.503 62.3192C208.454 62.7335 208.083 63.0203 207.766 63.2906C204.749 65.8609 204.715 70.4247 204.926 74.3807C203.85 75.1851 202.333 74.0928 201.741 72.8873C201.148 71.6829 200.842 70.2038 199.708 69.4862C198.577 68.7708 197.061 69.1126 195.824 68.6038C194.696 68.139 193.974 67.0477 193.321 66.017C192.097 64.0851 190.874 62.1522 189.651 60.2203C188.62 58.5928 187.566 56.9038 187.278 55.0005C186.99 53.0961 187.677 50.9049 189.388 50.0181C190.596 49.3917 192.56 48.4445 191.685 47.4027C191.489 47.1698 191.189 47.0588 190.902 46.9566C188.684 46.1687 186.465 45.3807 184.248 44.5928C185.111 41.9214 188.209 40.1939 190.937 40.8632C191.942 39.2588 189.619 37.4994 187.726 37.5302C185.833 37.5621 183.723 38.2489 182.187 37.1423C183.617 35.1511 183.542 32.3313 182.389 30.1676C181.238 28.0038 179.165 26.4456 176.921 25.4577C175.92 25.017 174.857 24.672 173.764 24.6566C172.037 24.6313 170.381 25.4236 168.655 25.4346C166.209 25.45 163.977 23.8654 162.576 21.8632C161.174 19.861 160.456 17.472 159.76 15.1291C161.729 16.2171 164.326 16.2786 166.158 14.972C167.989 13.6654 168.743 10.9138 167.546 9.00826C170.036 8.45112 172.526 7.89398 175.015 7.33684C175.645 7.19618 176.288 7.04893 176.834 6.70498C177.53 6.26432 177.999 5.54453 178.63 5.01596C179.841 4.00278 181.51 3.78739 183.08 3.61267C187.282 3.14564 191.483 2.6786 195.685 2.21157C196.492 2.12146 197.322 2.03355 198.107 2.24234C200.172 2.79179 202.044 5.29288 203.898 4.22915C203.971 3.41596 203.728 2.57751 203.229 1.93135C205.592 0.84564 208.322 1.17861 210.922 1.21597C216.163 1.29289 221.348 0.0808078 226.587 0.00388485C231.728 -0.0719392 236.882 0.96322 241.595 3.01816C240.018 4.10717 238.218 4.87091 236.339 5.24783C237.566 5.17091 238.81 5.38299 239.942 5.85992C239.041 5.4797 234.958 8.69947 234.309 9.27969C236.53 11.005 241.41 7.43354 243.706 6.34014C248.051 4.26981 252.489 3.08629 257.34 3.80277Z" fill="#D4DEEF"/>
<path d="M249.461 59.7827C248.285 60.264 247.185 60.931 246.214 61.7508C245.315 62.5112 244.31 63.4706 243.154 63.2398C241.982 63.0046 241.429 61.7002 240.915 60.6211C240.4 59.542 239.357 58.3794 238.225 58.7684C238.84 58.0288 239.456 57.2881 240.07 56.5486C238.605 56.3354 237.14 56.1211 235.675 55.9079C235.316 55.8563 234.926 55.7859 234.69 55.5112C234.141 54.8695 234.961 53.9189 235.771 53.6794C237.595 53.1409 239.604 53.9596 240.974 55.2783C241.547 55.8299 242.276 56.5277 243.009 56.2178C243.494 56.0123 243.701 55.453 244.025 55.0387C244.802 54.0453 246.255 53.9145 247.509 54.0607C249.627 54.3079 253.855 52.7563 254.681 55.2892C255.609 58.1288 251.164 59.0859 249.461 59.7827Z" fill="#B1C7EF"/>
<path d="M67.0029 40.2822C61.4626 42.5866 55.7155 44.8822 49.7156 44.8086C47.1142 44.7767 44.5414 44.2976 41.9851 43.8196C36.425 42.7811 30.8066 41.7251 25.6335 39.4383C24.2514 38.8273 22.8628 38.1196 21.3543 38.0273C19.6687 37.924 18.0404 38.6053 16.5275 39.3548C11.9426 41.6284 7.74257 44.6767 4.16043 48.3317C7.88661 48.9174 11.35 51.024 13.5831 54.0624C11.8228 54.9163 9.44898 54.1306 8.5463 52.3954C6.18239 51.7097 3.42816 53.5778 3.19397 56.0273C2.95978 58.4767 5.31049 60.8328 7.76126 60.6064C8.63095 59.4536 9.97563 58.6701 11.4083 58.4833C12.0834 59.6185 12.7573 60.7547 13.4324 61.8899C12.2549 63.3108 10.1845 63.4569 8.38467 63.8646C6.5848 64.2723 4.55734 65.5405 4.76515 67.3734C5.11149 70.4273 10.9784 70.6844 10.7211 73.747C10.8079 72.7075 22.9364 71.8976 17.0706 78.8569C16.1515 79.947 14.7694 80.736 13.3489 80.6108C13.7436 81.7272 13.6545 83.1162 12.7749 83.9108C11.8953 84.7053 10.1713 84.4184 9.89537 83.2679C8.95531 85.2756 6.3649 85.7514 4.15823 85.969C3.89655 86.8558 3.63487 87.7437 3.37319 88.6305C3.19507 87.5239 1.73165 86.869 0.776196 87.4558C-0.179262 88.0437 -0.269423 89.6184 0.599174 90.3272C1.4073 90.9866 2.58375 90.8272 3.60848 90.6327C3.9911 90.5602 4.4276 90.447 4.59363 90.0943C4.69478 89.8778 4.66399 89.6272 4.67169 89.3888C4.71017 88.2239 5.7305 87.3009 6.8212 86.8866C7.91189 86.4734 9.10374 86.4261 10.2395 86.1624C12.1174 85.725 13.8096 84.6965 15.3115 83.4888C16.9464 82.1734 18.4175 80.6162 20.2713 79.6327C20.9815 79.2558 21.7391 78.9679 22.423 78.5448C27.452 75.4284 24.2448 70.0328 31.6851 69.1053C31.7906 70.1372 31.0815 71.1932 30.0864 71.4877C32.4701 73.2481 35.0781 67.7053 37.8708 68.6987C38.6581 68.9789 39.1671 69.7272 39.8433 70.2163C41.0978 71.1229 42.7745 71.0591 44.316 71.1899C50.4578 71.7119 56.0597 76.2635 57.8255 82.1657C60.5115 81.3734 62.7479 84.2415 64.0849 86.7009C66.2926 90.7613 68.4993 94.8228 70.7071 98.8833C72.109 101.461 73.524 104.073 74.2519 106.916C75.2931 110.982 74.8742 115.306 75.8472 119.389C76.8203 123.471 79.9659 127.625 84.1638 127.514C84.8444 133.911 86.7179 140.179 89.6612 145.9C88.2264 147.355 90.5353 149.512 92.4979 150.082C94.4605 150.652 97.0454 152.106 96.1878 153.961C98.5033 151.386 95.5556 147.503 92.7365 145.491C89.9174 143.479 86.608 140.147 88.3726 137.167C89.3347 136.197 91.0191 137.328 91.4721 138.616C91.9251 139.904 91.8844 141.429 92.7937 142.447C93.5908 143.338 94.8805 143.563 95.9096 144.173C99.6391 146.386 98.8563 152.674 102.466 155.078C103.784 155.955 105.518 156.159 106.66 157.256C107.481 158.044 107.863 159.169 108.4 160.171C110.295 163.713 114.108 165.718 117.703 167.517C118.75 168.041 119.798 168.566 120.847 169.091C126.849 172.094 132.851 175.097 138.854 178.101C139.431 178.39 140.097 178.684 140.697 178.447C143.165 177.471 138.126 173.085 140.22 171.46C137.272 170.039 134.325 168.619 131.377 167.199C133.216 165.557 133.461 162.429 131.897 160.523C132.984 160.267 133.885 159.346 134.118 158.255C132.82 156.905 130.444 158.022 129.435 159.599C128.427 161.177 128.021 163.16 126.662 164.448C123.586 167.363 118.142 164.27 116.953 160.203C115.763 156.136 117.124 151.825 117.578 147.612C117.762 145.91 117.906 143.97 119.254 142.914C122.337 140.501 126.876 145.59 130.453 143.999C131.823 143.39 132.63 141.933 133.92 141.17C136.144 139.856 139.169 141.074 140.711 143.147C142.251 145.221 142.683 147.888 143.07 150.441C143.798 151.635 145.821 150.316 145.708 148.923C145.595 147.53 144.446 146.486 143.688 145.312C141.753 142.313 142.63 137.851 145.557 135.807C148.159 133.99 152.444 133.279 152.613 130.111C152.721 128.063 150.775 126.385 150.695 124.336C150.624 122.533 151.99 121.032 153.265 119.754C156.866 116.139 160.467 112.525 164.069 108.912C164.915 108.063 165.937 107.148 167.128 107.282C168.319 107.416 168.982 109.383 167.849 109.773C172.096 109.937 177.785 108.913 178.126 104.68C176.411 106.183 174.376 107.32 172.197 107.991C171.97 105.976 172.562 103.879 173.81 102.279C172.229 99.5547 168.444 98.8052 165.436 99.7426C162.428 100.681 160.017 102.895 157.714 105.047C161.172 100.969 165.8 97.5525 171.113 96.9316C173.114 96.6975 175.259 96.8371 176.999 95.8228C179.421 94.4118 181.564 90.8569 184.005 92.2349C182.223 95.3602 180.442 98.4855 178.66 101.61C180.581 101.467 182.502 101.324 184.424 101.181C185.205 102.513 185.585 104.074 185.505 105.615C187.856 105.451 191.09 103.903 190.04 101.794C189.507 100.723 188.114 100.454 187.188 99.6953C184.644 97.6118 186.625 93.3305 185.351 90.2998C184.713 88.7844 183.322 87.747 182.049 86.7053C176.642 82.2756 172.403 76.4349 169.871 69.9218C169.253 71.4679 168.575 73.0943 167.238 74.0866C165.901 75.08 163.693 75.0965 162.814 73.6822C162.331 72.9075 162.358 71.9295 162.108 71.0514C161.538 69.0624 159.637 67.8031 157.874 66.7196C155.734 65.4042 153.213 64.0393 150.839 64.8591C148.465 65.6789 147.914 69.9503 150.396 70.3437C148.085 70.4273 148.161 74.0163 149.479 75.9163C150.797 77.8163 152.65 80.1822 151.387 82.1185C150.266 83.8349 147.427 83.6668 146.299 85.3778C145.212 87.0272 146.394 89.1525 147.221 90.947C148.047 92.7415 148.025 95.5635 146.087 95.947C144.431 96.2745 143.231 94.3569 142.921 92.6986C142.433 90.0877 142.778 87.2569 141.557 84.8987C140.337 82.5393 136.417 81.4283 135.189 83.7833C134.515 81.3833 132.569 79.3811 130.188 78.6382C128.253 78.0338 126.099 78.2174 124.261 77.3602C121.512 76.0789 120.279 72.9185 119.297 70.0503C122.886 67.9998 126.71 65.691 128.308 61.8822C128.738 60.8569 129.02 59.7086 129.832 58.9492C130.563 58.2657 131.604 58.0218 132.417 57.4383C133.231 56.8547 133.75 55.5712 133.019 54.8877C134.073 54.2438 135.362 53.9954 136.58 54.1998C138.663 57.0251 132.274 61.8383 135.282 63.6481C136.904 64.624 138.657 62.6196 139.495 60.924C140.805 61.4525 142.116 61.98 143.426 62.5086C145.116 61.1361 143.132 58.5119 141.195 57.5152C139.259 56.5185 136.807 54.724 137.778 52.7756C139.511 52.7449 141.244 52.713 142.977 52.6822C143.085 51.0284 141.987 49.3679 140.421 48.8196C141.314 47.4449 142.206 46.069 143.099 44.6943C142.288 43.802 140.973 43.402 139.802 43.6899C143.311 43.1734 146.737 42.102 149.913 40.5262C152.514 43.4921 154.96 46.5932 157.239 49.8108C157.605 50.3273 157.981 50.8943 157.968 51.5262C157.938 52.9075 156.268 53.4976 155.061 54.1723C153.854 54.846 153.125 56.9866 154.465 57.3273C154.282 58.3493 152.747 58.3393 151.884 57.7635C151.021 57.1866 150.227 56.28 149.19 56.3405C147.229 56.4536 147.552 59.9086 149.427 60.4932C151.303 61.0767 153.219 59.8668 154.812 58.7174C158.476 62.0218 162.844 64.5416 167.54 66.0591C165.646 65.6646 164.265 63.6108 164.615 61.7086C166.814 62.3416 168.908 63.335 170.79 64.6371C172.388 62.6943 170.341 59.8723 168.247 58.4789C166.153 57.0855 163.531 55.3602 163.859 52.8668C166.607 52.7998 169.333 54.3657 170.657 56.7723C171.699 55.2932 172.741 53.813 173.782 52.3339C172.605 48.4416 165.092 49.6339 164.309 45.6427C164.158 44.8723 164.31 43.9888 163.827 43.369C163.076 42.4064 161.576 42.8778 160.355 42.8405C156.085 42.7075 153.5 35.5592 149.558 37.2086C151.205 34.1251 146.52 30.2218 143.781 32.3954C145.286 32.9548 146.923 33.7306 147.47 35.2383C148.019 36.746 146.419 38.8075 145.019 38.0218C143.604 37.2273 144.28 34.9866 143.499 33.5647C142.548 31.8328 139.686 32.1779 138.535 33.7833C137.384 35.3888 137.528 37.5768 137.988 39.4987C137.037 39.4757 136.086 39.4515 135.136 39.4284C134.927 36.7405 135.451 33.9987 136.635 31.5768C135.52 29.9152 132.988 31.5108 131.762 33.0921C130.473 34.7537 129.145 36.4976 128.744 38.5603C128.341 40.624 129.185 43.0932 131.152 43.8361C132.414 44.313 133.872 44.0086 135.127 44.5031C137.999 45.6339 136.868 50.991 133.783 50.8657C132.829 49.2998 132.272 47.4965 132.175 45.6658C130.689 46.1009 129.303 46.8745 128.153 47.9108C126.646 44.191 124.548 40.7108 121.963 37.6405C122.578 36.4526 123.192 35.2647 123.807 34.0768C126.281 35.1581 129.452 32.5108 128.827 29.8844C126.771 29.3086 124.611 28.7284 122.527 29.1987C120.444 29.668 118.517 31.5713 118.808 33.6855C118.982 34.9537 119.883 36.0064 120.215 37.2427C120.548 38.4789 119.805 40.2064 118.542 39.9987C117.882 43.0031 124.251 43.0745 124.536 46.1383C124.736 48.2866 121.819 49.1317 119.661 49.102C120.292 51.1723 120.194 53.457 119.389 55.4657C117.77 52.4273 118.656 48.2833 121.376 46.1712C119.743 43.6625 115.969 42.8723 113.466 44.5152C114.402 45.9449 115.884 47.0075 117.538 47.435C116.665 48.446 115.792 49.458 114.919 50.469C113.028 49.1097 110.437 50.1767 108.112 50.3097C105.786 50.4427 102.96 47.8756 104.602 46.2251C103.204 45.38 101.307 45.091 99.9778 46.0438C98.6496 46.9954 98.5385 49.413 100.021 50.102C96.9311 50.8954 91.8096 45.2163 89.5744 49.5679C88.1747 45.1405 85.9241 43.8207 81.4898 43.5943C78.5465 43.4438 69.8209 41.2657 68.3179 43.7383C68.1772 43.4262 66.9446 40.3075 67.0029 40.2822Z" fill="#B4CCE6"/>
<path d="M75.1799 28.6693C73.5053 28.8484 72.5719 30.7253 72.3575 32.3946C72.1431 34.0638 72.3058 35.8572 71.4834 37.3264C71.28 37.6891 71.0161 38.0341 70.9512 38.444C70.7643 39.6176 72.2882 40.3682 73.4624 40.1814C76.8841 39.6352 79.0325 34.9616 82.4486 35.5429C82.4827 36.4594 82.5168 37.3759 82.5497 38.2924C84.7993 38.3121 87.0522 37.9858 89.2039 37.3308C89.8592 37.755 89.4919 38.8682 88.7926 39.2132C88.0934 39.5594 87.2665 39.4429 86.4892 39.5143C85.7119 39.5858 84.8268 40.0066 84.7432 40.7825C86.2451 40.3473 87.8163 39.9078 89.3523 40.2012C90.8883 40.4946 92.3583 41.7715 92.3077 43.333C90.1296 43.2352 87.9427 43.3143 85.7779 43.5704C86.9697 44.9858 89.1324 44.8176 90.9729 45.0165C92.8124 45.2154 94.9971 46.6891 94.3473 48.4209C96.8398 45.7957 100.998 44.9154 104.342 46.3044C105.177 46.6517 105.97 47.1275 106.857 47.3055C107.745 47.4836 108.793 47.2792 109.289 46.5231C109.785 45.7671 109.292 44.4825 108.388 44.5121C109.56 44.3506 110.588 43.4187 110.862 42.2671C108.845 42.922 106.419 41.8055 105.605 39.8495C104.867 38.0748 105.305 35.7935 103.982 34.399C105.135 34.7462 106.284 33.3737 106.005 32.2023C105.727 31.0308 104.464 30.2979 103.259 30.2682C102.465 30.2484 101.616 30.5121 101.148 31.1528C100.679 31.7935 100.766 32.844 101.453 33.2396C100.524 32.788 99.5962 32.3352 98.6672 31.8825C98.2977 34.155 102.766 35.511 101.718 37.5616C101.05 38.8682 98.776 38.044 98.5067 36.6012C98.3296 35.6517 98.5484 34.388 97.6787 33.9682C96.0196 33.1671 94.8091 37.2341 93.2236 36.2968C93.3236 35.3847 93.4237 34.4726 93.5227 33.5616C91.4787 33.399 89.3787 34.1363 87.8867 35.5418C88.0725 34.6583 88.2572 33.7748 88.443 32.8902C86.2253 31.6605 84.0275 36.0165 81.6328 35.1891C83.9362 35.9858 89.0939 31.4869 85.0379 29.5825C84.0659 29.1253 82.0363 29.8385 80.9566 29.7627C79.0589 29.6286 77.0853 28.466 75.1799 28.6693Z" fill="#D4DEEF"/>
<path d="M85.2561 19.2402C83.6828 18.4544 81.7685 19.3072 80.4349 20.4511C79.1001 21.5962 77.9907 23.0643 76.3964 23.8072C75.6422 24.1588 74.7494 24.3753 74.2832 25.0643C76.9308 25.0281 79.5762 24.8489 82.205 24.5281C82.0566 25.4215 81.6091 26.261 80.9505 26.8819C82.182 27.3314 83.2067 25.7819 83.376 24.483C83.4288 24.0786 83.4771 23.6215 83.7993 23.372C84.0577 23.1709 84.4117 23.1698 84.7361 23.1171C85.8509 22.938 86.8317 21.8808 86.6965 20.7599C86.5601 19.6391 85.0879 18.8511 84.1786 19.5204" fill="#D4DEEF"/>
<path d="M93.5245 26.6079C93.8488 26.4342 94.0269 26.0254 93.9324 25.6694C92.2875 25.7233 90.7208 24.3584 90.5503 22.7222C89.6136 22.1244 88.182 22.5892 87.7763 23.6233C87.3706 24.6573 88.104 25.9716 89.1969 26.1694C87.6026 26.8507 86.0083 27.532 84.4141 28.2134C87.4597 29.854 91.0726 26.2815 94.4568 26.998C94.4557 27.4068 94.4535 27.8156 94.4524 28.2244C92.9923 28.2419 91.5531 28.9156 90.6031 30.0243C93.1231 30.2485 95.7102 29.6189 97.8444 28.2617C98.448 27.8782 99.0472 27.4255 99.7553 27.3255C100.378 27.2375 100.999 27.4342 101.621 27.5222C103.092 27.7298 104.958 26.8969 104.905 25.4123C103.912 25.0804 102.853 24.9507 101.809 25.0342C101.489 23.1046 99.078 21.854 97.3166 22.7035C97.3452 24.032 97.9653 25.3375 98.9779 26.1991C97.9774 27.0738 96.4139 27.232 95.2583 26.5738C94.7097 26.2617 94.205 25.7727 93.5739 25.7694C92.8966 25.7661 92.016 26.2551 91.6718 25.6716" fill="#D4DEEF"/>
<path d="M95.4206 16.9788C92.938 16.6832 90.374 17.1096 88.1211 18.192C89.3382 18.7415 90.5565 19.2898 91.7736 19.8393C92.0507 19.9646 92.3398 20.092 92.6433 20.0865C92.9116 20.0821 93.1667 19.9744 93.4141 19.8678C94.5872 19.3646 95.7615 18.8602 96.9346 18.3558C96.7312 18.058 96.5278 17.7613 96.3244 17.4635C96.8477 17.8184 97.6383 17.3019 97.6724 16.6712C97.7065 16.0393 97.1732 15.4843 96.5696 15.2975C95.9649 15.1107 95.3107 15.2129 94.695 15.3591C93.9792 15.5294 93.2766 15.7569 92.5971 16.0404C92.9545 16.7898 93.6603 17.3635 94.4663 17.5602C94.4795 17.8558 94.4926 18.1514 94.5058 18.4481" fill="#D4DEEF"/>
<path d="M112.775 17.3502C112.235 17.3776 111.914 16.737 111.89 16.1974C111.866 15.6579 111.983 15.0765 111.716 14.6062C111.061 13.4491 109.286 14.3062 107.973 14.0952C107.193 13.97 106.551 13.4249 105.81 13.1502C105.069 12.8754 104.017 13.0293 103.804 13.7897C103.566 14.6403 104.608 15.3249 105.492 15.3425C106.376 15.3601 107.287 15.0458 108.127 15.326C108.285 15.3787 108.441 15.4557 108.54 15.5875C109.164 16.4205 106.92 17.0293 107.127 18.0491C107.229 18.5502 107.857 18.7073 108.365 18.7611C109.12 18.8425 109.876 18.9227 110.631 19.004C111.417 19.0886 112.288 19.1513 112.92 18.6765C113.552 18.2018 113.568 16.9732 112.8 16.7831" fill="#D4DEEF"/>
<path d="M116.775 25.3179C117.215 24.8036 116.946 23.9453 116.394 23.5519C115.842 23.1574 115.122 23.108 114.445 23.1036C112.467 23.0904 110.487 23.3442 108.577 23.8574C107.985 24.0168 107.371 24.2014 106.771 24.0739C106.172 23.9465 105.617 23.3761 105.75 22.7783C104.932 23.6981 105.916 25.2267 107.106 25.5442C108.295 25.8618 109.555 25.4948 110.785 25.5607C112.014 25.6267 113.423 26.4717 113.294 27.6959C113.263 27.9882 113.146 28.2948 113.266 28.5629C113.41 28.8827 113.82 28.9794 114.171 28.9629C115.808 28.886 117.06 26.9574 116.464 25.4322C116.071 25.4937 115.651 25.2651 115.487 24.9025C116.205 24.6201 116.767 23.9695 116.942 23.2179C115.606 22.7135 114.048 22.8344 112.806 23.5388" fill="#D4DEEF"/>
<path d="M116.078 32.0875C116.759 31.593 116.309 30.3776 115.502 30.1391C114.695 29.9007 113.843 30.3281 113.177 30.8413C113.135 31.5325 113.092 32.2237 113.05 32.916C112.252 32.7468 111.388 32.9149 110.711 33.371C111.89 33.6864 112.859 34.6908 113.128 35.882C112.006 36.6512 110.227 36.1116 109.722 34.8468C109.488 34.2589 109.403 33.4688 108.801 33.2743C107.95 32.9985 107.453 34.3457 107.845 35.149C108.884 37.2732 112.048 37.1347 113.813 38.7083C114.448 39.2743 115.411 40.082 115.949 39.4237C116.376 38.9006 115.82 38.16 115.302 37.7248C115.928 37.8039 116.593 37.8611 117.16 37.5875C117.728 37.3138 118.121 36.5831 117.813 36.0336C117.654 35.7479 117.353 35.5776 117.096 35.3721C116.161 34.6182 115.821 33.2117 116.31 32.1139C115.973 31.9721 115.636 31.8292 115.299 31.6875" fill="#D4DEEF"/>
<path d="M147.062 26.4542C144.925 25.1707 142.273 24.7751 139.854 25.3784C138.105 25.8146 136.472 26.7465 134.674 26.8729C132.046 27.0564 129.533 25.4091 128.1 23.2004C130.091 21.8366 133.004 24.5114 135.102 23.3179C135.706 22.974 136.126 22.3498 136.762 22.0685C137.411 21.7806 138.158 21.9004 138.858 22.0256C142.218 22.6267 145.579 23.2289 148.939 23.83C149.335 22.3938 148.106 20.752 146.616 20.7245C148.376 20.0158 150.137 19.307 151.897 18.5982C152.786 18.241 153.737 17.83 154.222 17.0048C154.706 16.1784 154.363 14.8388 153.413 14.7191C157.466 13.3092 161.394 11.5377 165.133 9.43115C164.757 8.7806 164.38 8.13005 164.004 7.4795C166.604 7.74763 169.299 6.95203 171.338 5.31577C168.418 5.07511 165.458 5.35203 162.634 6.12896C167.49 6.74104 172.518 5.92456 176.931 3.80808C175.345 2.42676 172.46 4.22456 170.898 2.81687C170.429 2.3949 170.197 1.75753 169.72 1.34544C169.133 0.838848 168.299 0.768523 167.525 0.726765C159.599 0.30259 151.64 0.526766 143.751 1.39709C142.45 1.54105 140.808 2.04325 140.733 3.34984C138.844 3.27182 136.955 3.19379 135.066 3.11577C133.708 4.94544 131.031 5.65533 128.943 4.74105C128.471 5.4894 127.999 6.23775 127.527 6.9872C128.847 7.89599 130.496 8.31357 132.088 8.14324C133.062 10.1487 136.219 10.5883 137.704 8.92565C138.365 11.1982 141.765 10.7718 143.782 9.53225C145.799 8.29269 148.389 6.71027 150.278 8.13664C147.769 10.0773 144.554 11.0828 141.385 10.918C142.179 11.8718 142.972 12.8267 143.766 13.7817C141.82 13.9015 140.093 12.6652 138.39 11.7147C136.687 10.7641 134.456 10.096 132.883 11.2476C134.306 12.407 135.727 13.5663 137.15 14.7267C133.23 12.663 129.312 10.6004 125.392 8.53665C124.243 7.93225 122.915 7.31137 121.698 7.76302C120.481 8.21467 120.115 10.3399 121.367 10.6817C120.396 10.8597 119.559 11.6333 119.309 12.5883C121.631 12.7751 123.914 13.4202 125.99 14.4762C125.013 14.7894 124.036 15.1037 123.059 15.4169C125.291 16.1432 127.523 16.8696 129.756 17.5971C130.211 17.7454 130.73 17.8883 131.149 17.6575C131.57 17.4245 131.722 16.9092 131.957 16.4883C132.659 15.2322 134.46 14.7487 135.695 15.485C135.412 16.1586 135.128 16.8311 134.845 17.5048C135.9 17.5114 136.954 17.5168 138.01 17.5234C138.027 18.1015 138.045 18.6806 138.063 19.2586C139.592 19.4949 141.164 19.4509 142.678 19.13C142.124 21.1795 139.148 21.3597 137.292 20.3289C135.436 19.2971 133.972 17.5289 131.929 16.9509C132.581 18.4751 133.625 19.83 134.935 20.8487C132.208 20.4103 129.37 20.6806 126.775 21.6278C126.521 21.0817 126.268 20.5344 126.014 19.9883C123.881 20.8729 124.202 23.9597 124.897 26.1608C125.102 26.8069 125.315 27.4707 125.744 27.996C126.716 29.1861 128.452 29.3234 129.988 29.3685C132.3 29.4344 134.612 29.5015 136.925 29.5674C140.143 29.6553 147.185 31.1674 147.062 26.4542Z" fill="#D4DEEF"/>
<path d="M121.7 23.9687C122.333 23.5313 123.48 23.9005 123.773 23.1885C123.992 22.6522 123.421 22.1423 122.915 21.8588C122.409 21.5753 121.808 21.1346 121.946 20.572C121.495 20.6357 121.024 20.5379 120.636 20.3016C121.602 20.0478 122.569 19.7928 123.535 19.539C123.903 19.4423 124.371 19.1093 124.153 18.7972C124.078 18.6907 123.944 18.6445 123.818 18.6126C123.218 18.4588 122.566 18.439 122.041 18.1137C121.515 17.7885 121.221 16.972 121.679 16.5566C121.348 16.5269 121.016 16.4972 120.685 16.4665C120.671 16.2038 120.657 15.9401 120.642 15.6775C118.929 15.6313 117.218 15.4918 115.52 15.2588C115.271 16.4038 116.374 17.6247 117.539 17.4951C117.728 17.4742 117.936 17.4291 118.093 17.5368C118.231 17.6324 118.273 17.8137 118.345 17.9665C118.564 18.4203 119.17 18.639 119.629 18.4291C119.494 18.7588 119.267 19.0511 118.98 19.2621C119.533 19.5566 120.141 19.7467 120.763 19.8214C120.273 20.2104 119.693 20.4852 119.081 20.6181C119.333 20.8225 119.586 21.0269 119.837 21.2313C119.191 21.2445 118.544 21.2566 117.898 21.2698C117.701 21.8775 118.294 22.461 118.887 22.6972C119.545 22.9588 122.743 24.9939 120.825 25.9016C119.735 26.417 119.279 24.6203 119.664 23.9335C120.273 25.3412 120.087 27.3038 121.155 28.5357C121.933 29.4335 123.118 29.6005 123.875 28.4159C125.184 26.3676 122.017 25.7533 121.7 23.9687Z" fill="#D4DEEF"/>
<path d="M140.851 182.499C140.091 184.534 142.54 186.911 144.554 186.09C145.134 185.854 145.64 185.423 146.258 185.314C147.987 185.012 148.981 187.187 149.347 188.903C149.766 190.867 150.175 192.965 149.443 194.834C148.566 197.075 146.164 198.638 145.883 201.028C145.653 202.981 146.942 204.997 146.28 206.848C145.98 207.688 145.311 208.355 144.997 209.19C144.433 210.686 145.107 212.336 145.769 213.791C147.972 218.627 150.175 223.464 152.379 228.299C152.875 229.387 153.406 230.52 154.356 231.245C155.112 231.822 156.063 232.082 156.865 232.593C158.175 233.427 158.976 234.846 159.724 236.206C161.109 238.723 162.51 241.286 163.102 244.095C163.909 247.928 163.149 251.898 162.39 255.74C161.279 261.359 160.167 266.978 159.057 272.598C157.834 278.779 156.613 284.961 155.39 291.143C156.697 290.35 157.668 289.022 158.025 287.536C158.648 291.556 157.855 295.78 155.816 299.3C155.639 297.782 155.462 296.265 155.285 294.747C153.789 297.972 153.017 301.53 153.042 305.085C153.046 305.725 153.101 306.426 153.545 306.887C153.967 307.324 154.622 307.421 155.16 307.702C156.33 308.314 156.832 309.94 156.209 311.104C156.828 311.247 157.447 311.39 158.065 311.534C159.024 312.292 156.761 313.355 156.771 314.577C156.774 315.073 157.178 315.463 157.551 315.792C159.301 317.334 161.051 318.874 162.802 320.416C164.021 320.777 165.289 321.14 166.546 320.945C167.801 320.749 169.04 319.823 169.157 318.558C169.316 316.821 167.509 315.66 166.34 314.365C164.526 312.354 164.084 309.395 164.541 306.726C164.999 304.058 166.242 301.598 167.47 299.184C166.676 298.885 165.883 298.587 165.089 298.289C165.147 296.506 166.967 295.401 168.117 294.037C170.207 291.559 169.977 287.457 167.623 285.226C168.494 284.613 169.365 284 170.236 283.387C170.95 284.528 171.665 285.669 172.38 286.81C174.166 285.377 174.835 282.712 173.938 280.606C177.986 281.644 182.56 278.328 182.831 274.161C181.83 274.127 181.038 272.977 181.365 272.029C181.691 271.082 183.024 270.664 183.834 271.254C183.388 272.411 184.709 273.672 185.941 273.522C187.172 273.37 188.093 272.265 188.508 271.095C188.922 269.926 188.958 268.662 189.187 267.444C189.557 265.489 190.442 263.634 191.729 262.116C192.8 260.855 194.17 259.78 194.795 258.248C195.252 257.126 195.256 255.881 195.449 254.686C196.082 250.784 198.96 247.328 202.683 245.998C202.836 247.742 205.592 247.381 206.884 246.2C208.814 244.434 210.117 241.995 210.512 239.41C210.857 237.14 210.552 234.692 211.626 232.665C212.081 231.806 212.769 231.059 213.03 230.123C213.253 229.321 213.135 228.469 213.179 227.638C213.415 223.176 218.199 219.653 217.641 215.22C217.279 212.341 214.774 210.278 212.458 208.528C208.921 205.856 205.161 203.09 200.762 202.542C197.968 202.193 194.961 202.744 192.45 201.472C193.567 201.404 194.359 200.238 194.416 199.122C194.472 198.004 193.989 196.939 193.515 195.925C193.196 195.241 192.876 194.555 192.556 193.87C191.259 191.089 189.131 187.824 186.092 188.26C185.187 188.39 184.197 188.844 183.426 188.353C182.72 187.902 182.642 186.922 182.26 186.178C180.761 183.264 175.081 184.453 174.22 181.29C173.996 180.466 174.183 179.467 173.59 178.853C173.11 178.354 172.328 178.345 171.635 178.371C168.494 178.487 165.352 178.603 162.21 178.719C162.105 179.95 161.3 181.099 160.176 181.617C160.34 182.341 160.504 183.063 160.668 183.786C160.41 185.069 158.251 184.912 157.687 183.731C157.122 182.549 157.667 181.147 158.331 180.017C158.995 178.889 159.809 177.738 159.791 176.428C158.365 175.748 156.923 177.23 155.894 178.427C154.865 179.625 152.848 180.665 151.905 179.398C152.026 180.701 152.148 182.005 152.269 183.309C150.243 185.076 146.594 184.303 145.46 181.867C144.677 182.834 143.816 183.854 142.617 184.191C141.419 184.528 139.851 183.777 139.855 182.533C140.468 185.223 143.13 187.294 145.889 187.228" fill="#D4DEEF"/>
<path d="M137.994 156.724C138.954 157.69 140.437 156.236 141.788 156.068C143.094 155.905 144.163 157.002 145.143 157.88C146.123 158.758 147.65 159.495 148.668 158.663C149.156 160.697 151.985 161.713 153.656 160.453C153.505 161.171 154.45 161.662 155.174 161.535C155.897 161.408 156.541 160.952 157.274 160.899C158.331 160.823 159.353 161.761 159.367 162.82C159.39 163.208 158.846 163.351 158.47 163.253C158.094 163.156 157.676 162.961 157.344 163.164C157.111 163.307 157.021 163.596 156.859 163.816C156.27 164.618 155.031 164.313 154.09 163.989C153.148 163.663 151.809 163.571 151.451 164.498C154.406 165.082 157.484 165.037 160.42 164.365C160.179 164.596 160.357 165.042 160.662 165.179C160.968 165.314 161.321 165.238 161.646 165.16C162.9 164.859 164.153 164.558 165.408 164.256C166.162 164.713 167.17 164.716 167.927 164.263C167.875 164.607 167.822 164.952 167.771 165.296C169.243 165.934 171.143 165.324 171.968 163.949C169.883 163.604 167.798 163.259 165.712 162.914C164.216 162.667 162.681 162.405 161.375 161.637C160.086 160.879 159.063 159.651 157.64 159.19C155.654 158.546 153.374 159.556 151.443 158.762C149.573 157.993 148.398 155.668 146.377 155.63C145.72 155.618 145.026 155.861 144.429 155.587C142.917 154.893 143.116 153.459 141.155 154.206C140.786 154.346 138.324 157.056 137.994 156.724Z" fill="#D4DEEF"/>
<path d="M305.536 117.193C304.584 119.154 304.151 121.336 304.526 123.479C305.171 127.17 308.037 130.582 307.229 134.244C305.979 133.918 304.729 133.59 303.479 133.274" fill="#D4DEEF"/>
<path d="M318.971 67.791C318.894 68.0218 318.797 68.2427 318.701 68.4635L318.971 67.791Z" fill="#D4DEEF"/>
<path d="M319.209 66.33C319.19 65.4454 318.814 64.6191 318.238 63.9268L319.209 66.33Z" fill="#D4DEEF"/>
<path d="M86.3369 66.8784C86.3369 75.6902 70.3813 94.9229 70.3813 94.9229C70.3813 94.9229 54.4258 75.6902 54.4258 66.8784C54.4258 58.0666 61.5695 50.9229 70.3813 50.9229C79.1931 50.9229 86.3369 58.0666 86.3369 66.8784Z" fill="#43BCCD"/>
<path d="M159.001 214.652C159.001 223.604 142.791 243.144 142.791 243.144C142.791 243.144 126.582 223.604 126.582 214.652C126.582 205.7 133.839 198.442 142.791 198.442C151.743 198.442 159.001 205.7 159.001 214.652Z" fill="#662E9B"/>
<path d="M300.476 175.191C300.476 184.003 284.521 203.236 284.521 203.236C284.521 203.236 268.566 184.003 268.566 175.191C268.566 166.38 275.71 159.236 284.521 159.236C293.333 159.236 300.476 166.38 300.476 175.191Z" fill="#F9C80E"/>
<path d="M294.22 34.2466C294.22 43.0584 278.264 62.291 278.264 62.291C278.264 62.291 262.309 43.0569 262.309 34.2466C262.309 25.4347 269.452 18.291 278.264 18.291C287.076 18.291 294.22 25.4347 294.22 34.2466Z" fill="#A0C261"/>
<path d="M423.322 106.496C423.322 115.308 407.367 134.541 407.367 134.541C407.367 134.541 391.412 115.308 391.412 106.496C391.412 97.6845 398.556 90.541 407.367 90.541C416.179 90.541 423.322 97.6845 423.322 106.496Z" fill="#F86624"/>
<path d="M497.148 237.346C497.148 246.157 481.193 265.391 481.193 265.391C481.193 265.391 465.238 246.157 465.238 237.346C465.238 228.534 472.382 221.391 481.193 221.391C490.005 221.391 497.148 228.534 497.148 237.346Z" fill="#EA3546"/>
<path d="M473.186 240.108C473.186 238.584 473.479 237.382 474.064 236.505C474.658 235.627 475.611 235.188 476.923 235.188C478.235 235.188 479.183 235.627 479.768 236.505C480.362 237.382 480.659 238.584 480.659 240.108C480.659 241.651 480.362 242.861 479.768 243.738C479.183 244.616 478.235 245.055 476.923 245.055C475.611 245.055 474.658 244.616 474.064 243.738C473.479 242.861 473.186 241.651 473.186 240.108ZM478.425 240.108C478.425 239.213 478.328 238.526 478.133 238.047C477.938 237.56 477.534 237.316 476.923 237.316C476.311 237.316 475.908 237.56 475.713 238.047C475.518 238.526 475.42 239.213 475.42 240.108C475.42 240.711 475.456 241.212 475.527 241.611C475.597 242.001 475.739 242.32 475.952 242.568C476.174 242.808 476.497 242.927 476.923 242.927C477.348 242.927 477.667 242.808 477.88 242.568C478.102 242.32 478.248 242.001 478.319 241.611C478.39 241.212 478.425 240.711 478.425 240.108ZM486.661 238.007C486.59 237.679 486.466 237.436 486.288 237.276C486.111 237.108 485.859 237.023 485.531 237.023C485.025 237.023 484.662 237.245 484.44 237.688C484.219 238.123 484.103 238.814 484.094 239.763C484.289 239.452 484.569 239.209 484.932 239.031C485.304 238.854 485.712 238.765 486.155 238.765C487.024 238.765 487.72 239.04 488.243 239.59C488.775 240.139 489.041 240.906 489.041 241.89C489.041 242.537 488.908 243.105 488.642 243.592C488.385 244.08 488.004 244.461 487.498 244.736C487.002 245.011 486.413 245.148 485.73 245.148C484.365 245.148 483.416 244.722 482.884 243.871C482.353 243.012 482.087 241.779 482.087 240.175C482.087 238.491 482.366 237.241 482.924 236.425C483.492 235.601 484.396 235.188 485.637 235.188C486.302 235.188 486.86 235.321 487.312 235.587C487.773 235.844 488.119 236.186 488.349 236.611C488.589 237.037 488.731 237.502 488.775 238.007H486.661ZM485.61 240.56C485.229 240.56 484.91 240.676 484.653 240.906C484.405 241.128 484.281 241.447 484.281 241.864C484.281 242.289 484.396 242.621 484.626 242.861C484.866 243.1 485.203 243.22 485.637 243.22C486.027 243.22 486.333 243.105 486.554 242.874C486.785 242.635 486.9 242.311 486.9 241.903C486.9 241.487 486.789 241.159 486.568 240.919C486.346 240.68 486.027 240.56 485.61 240.56Z" fill="white"/>
<path d="M274.458 177.953C274.458 176.428 274.75 175.227 275.335 174.35C275.929 173.472 276.882 173.033 278.194 173.033C279.506 173.033 280.455 173.472 281.04 174.35C281.634 175.227 281.931 176.428 281.931 177.953C281.931 179.496 281.634 180.706 281.04 181.583C280.455 182.461 279.506 182.9 278.194 182.9C276.882 182.9 275.929 182.461 275.335 181.583C274.75 180.706 274.458 179.496 274.458 177.953ZM279.697 177.953C279.697 177.058 279.599 176.371 279.404 175.892C279.209 175.404 278.806 175.161 278.194 175.161C277.583 175.161 277.179 175.404 276.984 175.892C276.789 176.371 276.692 177.058 276.692 177.953C276.692 178.556 276.727 179.057 276.798 179.456C276.869 179.846 277.011 180.165 277.224 180.413C277.445 180.652 277.769 180.772 278.194 180.772C278.62 180.772 278.939 180.652 279.152 180.413C279.373 180.165 279.519 179.846 279.59 179.456C279.661 179.057 279.697 178.556 279.697 177.953ZM283.185 181.211V179.376L287.387 173.366H289.927V179.243H291.017V181.211H289.927V182.939H287.653V181.211H283.185ZM287.813 175.865L285.579 179.243H287.813V175.865Z" fill="white"/>
<path d="M61.4519 69.2878C61.4519 67.7631 61.7444 66.5619 62.3295 65.6842C62.9235 64.8066 63.8765 64.3678 65.1885 64.3678C66.5005 64.3678 67.4491 64.8066 68.0342 65.6842C68.6281 66.5619 68.9251 67.7631 68.9251 69.2878C68.9251 70.8304 68.6281 72.0404 68.0342 72.9181C67.4491 73.7957 66.5005 74.2345 65.1885 74.2345C63.8765 74.2345 62.9235 73.7957 62.3295 72.9181C61.7444 72.0404 61.4519 70.8304 61.4519 69.2878ZM66.6911 69.2878C66.6911 68.3925 66.5936 67.7054 66.3986 67.2267C66.2035 66.7392 65.8002 66.4954 65.1885 66.4954C64.5768 66.4954 64.1735 66.7392 63.9784 67.2267C63.7834 67.7054 63.6859 68.3925 63.6859 69.2878C63.6859 69.8907 63.7213 70.3915 63.7923 70.7905C63.8632 71.1805 64.005 71.4997 64.2178 71.7479C64.4394 71.9872 64.763 72.1069 65.1885 72.1069C65.614 72.1069 65.9332 71.9872 66.1459 71.7479C66.3676 71.4997 66.5138 71.1805 66.5847 70.7905C66.6557 70.3915 66.6911 69.8907 66.6911 69.2878ZM70.0467 72.4527C70.3481 72.2133 70.4855 72.1025 70.4589 72.1202C71.3277 71.4022 72.0103 70.8126 72.5067 70.3516C73.012 69.8907 73.4375 69.4075 73.7833 68.9022C74.129 68.3969 74.3019 67.9049 74.3019 67.4262C74.3019 67.0627 74.2177 66.779 74.0492 66.5752C73.8808 66.3713 73.6281 66.2693 73.2913 66.2693C72.9544 66.2693 72.6884 66.3979 72.4934 66.6549C72.3072 66.9032 72.2142 67.2578 72.2142 67.7187H70.0201C70.0378 66.9652 70.1974 66.3358 70.4988 65.8305C70.8091 65.3252 71.2124 64.9529 71.7089 64.7135C72.2142 64.4741 72.7727 64.3545 73.3843 64.3545C74.4393 64.3545 75.2327 64.6249 75.7646 65.1656C76.3054 65.7064 76.5757 66.4112 76.5757 67.2799C76.5757 68.2285 76.2522 69.1105 75.605 69.9261C74.9579 70.7328 74.1334 71.5218 73.1317 72.2931H76.722V74.1414H70.0467V72.4527Z" fill="white"/>
<path d="M135.612 216.654C135.612 215.105 135.909 213.884 136.503 212.993C137.107 212.101 138.075 211.655 139.408 211.655C140.741 211.655 141.704 212.101 142.299 212.993C142.902 213.884 143.204 215.105 143.204 216.654C143.204 218.221 142.902 219.45 142.299 220.342C141.704 221.233 140.741 221.679 139.408 221.679C138.075 221.679 137.107 221.233 136.503 220.342C135.909 219.45 135.612 218.221 135.612 216.654ZM140.934 216.654C140.934 215.744 140.835 215.046 140.637 214.56C140.439 214.065 140.029 213.817 139.408 213.817C138.786 213.817 138.377 214.065 138.179 214.56C137.98 215.046 137.881 215.744 137.881 216.654C137.881 217.266 137.917 217.775 137.989 218.18C138.061 218.577 138.206 218.901 138.422 219.153C138.647 219.396 138.976 219.518 139.408 219.518C139.84 219.518 140.164 219.396 140.381 219.153C140.606 218.901 140.754 218.577 140.826 218.18C140.898 217.775 140.934 217.266 140.934 216.654ZM144.181 214.006V211.858H147.923V221.72H145.519V214.006H144.181Z" fill="white"/>
<path d="M270.616 35.5291C270.616 34.0043 270.909 32.8031 271.494 31.9254C272.088 31.0478 273.041 30.609 274.353 30.609C275.665 30.609 276.613 31.0478 277.198 31.9254C277.792 32.8031 278.089 34.0043 278.089 35.5291C278.089 37.0716 277.792 38.2816 277.198 39.1593C276.613 40.0369 275.665 40.4757 274.353 40.4757C273.041 40.4757 272.088 40.0369 271.494 39.1593C270.909 38.2816 270.616 37.0716 270.616 35.5291ZM275.855 35.5291C275.855 34.6337 275.758 33.9467 275.563 33.4679C275.368 32.9804 274.964 32.7366 274.353 32.7366C273.741 32.7366 273.338 32.9804 273.142 33.4679C272.947 33.9467 272.85 34.6337 272.85 35.5291C272.85 36.1319 272.885 36.6328 272.956 37.0317C273.027 37.4217 273.169 37.7409 273.382 37.9891C273.603 38.2285 273.927 38.3481 274.353 38.3481C274.778 38.3481 275.097 38.2285 275.31 37.9891C275.532 37.7409 275.678 37.4217 275.749 37.0317C275.82 36.6328 275.855 36.1319 275.855 35.5291ZM279.37 33.5477C279.406 32.5992 279.716 31.8678 280.301 31.3536C280.886 30.8395 281.68 30.5824 282.681 30.5824C283.346 30.5824 283.914 30.6976 284.383 30.9281C284.862 31.1586 285.221 31.4733 285.461 31.8722C285.709 32.2712 285.833 32.7188 285.833 33.2153C285.833 33.8004 285.687 34.2791 285.394 34.6514C285.102 35.0149 284.76 35.2631 284.37 35.3961V35.4493C284.875 35.6177 285.274 35.897 285.567 36.287C285.859 36.6771 286.006 37.1779 286.006 37.7896C286.006 38.3393 285.877 38.8268 285.62 39.2524C285.372 39.669 285.004 39.997 284.516 40.2364C284.038 40.4757 283.466 40.5954 282.801 40.5954C281.737 40.5954 280.886 40.3339 280.248 39.8109C279.619 39.2878 279.286 38.4988 279.251 37.4439H281.458C281.467 37.834 281.578 38.1442 281.79 38.3747C282.003 38.5964 282.313 38.7072 282.721 38.7072C283.067 38.7072 283.333 38.6096 283.519 38.4146C283.714 38.2107 283.812 37.9448 283.812 37.6168C283.812 37.1912 283.674 36.8854 283.399 36.6992C283.133 36.5042 282.704 36.4067 282.11 36.4067H281.684V34.5583H282.11C282.562 34.5583 282.925 34.483 283.2 34.3323C283.484 34.1727 283.626 33.8935 283.626 33.4945C283.626 33.1754 283.537 32.9272 283.36 32.7499C283.182 32.5726 282.938 32.4839 282.628 32.4839C282.291 32.4839 282.039 32.5859 281.87 32.7898C281.711 32.9937 281.618 33.2463 281.591 33.5477H279.37Z" fill="white"/>
<path d="M397.997 109.258C397.997 107.733 398.289 106.532 398.874 105.654C399.468 104.777 400.421 104.338 401.733 104.338C403.045 104.338 403.994 104.777 404.579 105.654C405.173 106.532 405.47 107.733 405.47 109.258C405.47 110.8 405.173 112.01 404.579 112.888C403.994 113.765 403.045 114.204 401.733 114.204C400.421 114.204 399.468 113.765 398.874 112.888C398.289 112.01 397.997 110.8 397.997 109.258ZM403.236 109.258C403.236 108.362 403.138 107.675 402.943 107.197C402.748 106.709 402.345 106.465 401.733 106.465C401.122 106.465 400.718 106.709 400.523 107.197C400.328 107.675 400.231 108.362 400.231 109.258C400.231 109.861 400.266 110.361 400.337 110.76C400.408 111.15 400.55 111.469 400.763 111.718C400.984 111.957 401.308 112.077 401.733 112.077C402.159 112.077 402.478 111.957 402.691 111.718C402.912 111.469 403.059 111.15 403.129 110.76C403.2 110.361 403.236 109.861 403.236 109.258ZM413.506 106.519H409.357V108.354C409.534 108.159 409.783 107.999 410.102 107.875C410.421 107.751 410.767 107.689 411.139 107.689C411.804 107.689 412.353 107.839 412.788 108.141C413.231 108.442 413.555 108.832 413.758 109.311C413.962 109.79 414.064 110.308 414.064 110.867C414.064 111.904 413.772 112.728 413.187 113.34C412.602 113.943 411.777 114.244 410.713 114.244C410.004 114.244 409.388 114.124 408.865 113.885C408.342 113.637 407.939 113.296 407.655 112.861C407.371 112.427 407.216 111.926 407.19 111.359H409.41C409.463 111.633 409.592 111.864 409.796 112.05C410 112.227 410.279 112.316 410.634 112.316C411.05 112.316 411.361 112.183 411.564 111.917C411.768 111.651 411.87 111.297 411.87 110.853C411.87 110.419 411.764 110.087 411.551 109.856C411.338 109.626 411.028 109.51 410.62 109.51C410.319 109.51 410.071 109.586 409.876 109.736C409.681 109.878 409.552 110.069 409.49 110.308H407.296V104.524H413.506V106.519Z" fill="white"/>
<path d="M141.714 245.141C105.135 240.502 69.7923 226.435 40.0297 204.67C28.0897 195.939 16.4076 184.951 13.3853 170.471C11.036 159.219 14.4146 147.325 20.5517 137.607C26.6888 127.887 35.3932 120.069 44.4329 112.968C107.347 63.554 261.572 42.6821 278.265 63.9584C294.957 85.2347 261.228 146.429 262.247 180.203C262.407 185.482 262.972 191.008 265.914 195.395C268.683 199.524 273.275 202.14 278.042 203.552C295.461 208.713 313.54 199.366 329.304 190.335C353.588 176.423 379.385 137.042 407.367 136.541C482.538 135.195 441.136 211.498 455.584 260.564C460.071 275.8 484.763 268.314 482.89 267.048" stroke="#7998CD" stroke-width="1.17231" stroke-miterlimit="10" stroke-linecap="round" stroke-dasharray="2.34 2.34"/>
</svg>
