<svg width="145" height="32" viewBox="0 0 145 32" fill="none" xmlns="http://www.w3.org/2000/svg">
<g clip-path="url(#clip0_293_877)">
<path d="M97.2228 26.2867C97.2834 26.2873 97.3435 26.2756 97.3994 26.2522C97.4552 26.2287 97.5056 26.1942 97.5474 26.1506C97.5892 26.107 97.6216 26.0554 97.6425 25.9989C97.6634 25.9424 97.6723 25.8822 97.6689 25.8221C97.6689 25.4926 97.4687 25.3352 97.058 25.3352H96.3945V27.0603H96.6441V26.3083H96.9508L96.9578 26.3175L97.4337 27.0603H97.7006L97.1885 26.2915L97.2228 26.2867ZM96.9342 26.1139H96.6448V25.5307H97.0116C97.2011 25.5307 97.4171 25.5615 97.4171 25.8079C97.4171 26.0912 97.1985 26.1139 96.9327 26.1139" fill="#0A66C2"/>
<path d="M0 7.42407H3.68373V20.7506H10.5034V24.1269H0V7.42407Z" fill="#0A66C2"/>
<path d="M12.1315 12.8022H15.6704V24.121H12.1315V12.8022ZM13.9009 7.17505C14.3069 7.17512 14.7038 7.29476 15.0414 7.51884C15.3789 7.74292 15.642 8.06138 15.7973 8.43394C15.9526 8.8065 15.9932 9.21644 15.914 9.61192C15.8347 10.0074 15.6392 10.3707 15.3521 10.6558C15.0649 10.9409 14.6991 11.135 14.3009 11.2137C13.9027 11.2923 13.49 11.2519 13.1149 11.0976C12.7398 10.9432 12.4192 10.6819 12.1936 10.3466C11.968 10.0114 11.8477 9.61717 11.8477 9.21393C11.8477 8.94615 11.9008 8.68099 12.004 8.4336C12.1072 8.18621 12.2584 7.96143 12.4491 7.77209C12.6397 7.58276 12.8661 7.43259 13.1152 7.33015C13.3643 7.2277 13.6313 7.175 13.9009 7.17505Z" fill="#0A66C2"/>
<path d="M30.4766 7.42114H34.0154V17.4032L38.0261 12.7964H42.3649L37.7202 18.0366L42.2672 24.125H37.8193L34.0626 18.5301H34.0162V24.1243H30.4773L30.4766 7.42114Z" fill="#0A66C2"/>
<path d="M17.6328 12.803H21.0312V14.3498H21.0795C21.419 13.7722 21.91 13.297 22.5002 12.975C23.0903 12.653 23.7575 12.4962 24.4304 12.5214C28.019 12.5214 28.6796 14.8664 28.6796 17.9128V24.1199H25.1407V18.6168C25.1407 17.3032 25.1164 15.6147 23.2976 15.6147C21.4581 15.6147 21.1743 17.0451 21.1743 18.5213V24.1184H17.6354L17.6328 12.803Z" fill="#0A66C2"/>
<path d="M49.8154 17.1445C49.8222 16.8594 49.7706 16.5758 49.6638 16.311C49.557 16.0463 49.3971 15.8058 49.194 15.6042C48.9909 15.4026 48.7486 15.244 48.482 15.1381C48.2153 15.0322 47.9298 14.9812 47.6427 14.9881C47.0244 14.9499 46.4157 15.1545 45.9479 15.5579C45.4801 15.9613 45.1906 16.5311 45.1419 17.1445H49.8154ZM52.8131 22.1602C52.2251 22.8685 51.4858 23.438 50.6488 23.8275C49.8118 24.217 48.898 24.4167 47.9737 24.4122C44.4349 24.4122 41.6016 22.0662 41.6016 18.4332C41.6016 14.8003 44.4345 12.4553 47.9737 12.4553C51.2815 12.4553 53.3557 14.7984 53.3557 18.4332V19.5352H45.1419C45.2442 20.1602 45.5704 20.7274 46.0605 21.1324C46.5506 21.5373 47.1716 21.7527 47.8089 21.7389C48.3126 21.7358 48.8076 21.6076 49.2487 21.366C49.6898 21.1244 50.063 20.7771 50.3344 20.3557L52.8131 22.1602Z" fill="#0A66C2"/>
<path d="M60.7323 15.5376C58.9628 15.5376 57.9012 16.711 57.9012 18.4208C57.9012 20.1305 58.9625 21.305 60.7323 21.305C62.5021 21.305 63.5659 20.1334 63.5659 18.4208C63.5659 16.7081 62.5039 15.5376 60.7323 15.5376ZM66.8239 24.1182H63.5659V22.6171H63.5176C63.1089 23.1631 62.5788 23.608 61.9685 23.9172C61.3583 24.2263 60.6844 24.3913 59.9994 24.3994C56.5992 24.3994 54.3594 21.9622 54.3594 18.5156C54.3594 15.3502 56.3415 12.4436 59.5998 12.4436C61.0644 12.4436 62.4324 12.8416 63.2349 13.9447H63.2813V7.42017H66.8235L66.8239 24.1182Z" fill="#0A66C2"/>
<path d="M90.7136 24.1254H87.1747V18.6212C87.1747 17.3087 87.1511 15.6191 85.3341 15.6191C83.491 15.6191 83.209 17.0491 83.209 18.5257V24.125H79.6701V12.8062H83.0674V14.3531H83.115C83.455 13.7757 83.9463 13.3008 84.5365 12.9788C85.1268 12.6568 85.794 12.4999 86.4669 12.5247C90.0537 12.5247 90.715 14.8678 90.715 17.9161L90.7136 24.1254ZM75.6771 11.259C75.2709 11.2591 74.8738 11.1396 74.5361 10.9155C74.1983 10.6915 73.9351 10.373 73.7796 10.0003C73.6241 9.62764 73.5833 9.21754 73.6625 8.82188C73.7416 8.42622 73.9372 8.06276 74.2243 7.77747C74.5115 7.49217 74.8774 7.29785 75.2757 7.21908C75.6741 7.14031 76.087 7.18063 76.4623 7.33494C76.8376 7.48924 77.1583 7.75061 77.3841 8.08598C77.6098 8.42135 77.7303 8.81567 77.7304 9.21907C77.7304 9.48691 77.6773 9.75215 77.5742 9.99962C77.471 10.2471 77.3198 10.472 77.1291 10.6614C76.9385 10.8508 76.7121 11.0011 76.463 11.1037C76.2138 11.2062 75.9468 11.259 75.6771 11.259ZM77.4465 24.1254H73.904V12.8062H77.4465V24.1254ZM92.4778 3.91592H72.1257C71.6638 3.91075 71.2186 4.08792 70.8882 4.40852C70.5577 4.72911 70.3689 5.16689 70.3633 5.62567V25.9226C70.3687 26.3816 70.5574 26.8197 70.8879 27.1406C71.2183 27.4615 71.6635 27.6391 72.1257 27.6342H92.4778C92.9409 27.6399 93.3874 27.4629 93.7192 27.142C94.0509 26.8211 94.2408 26.3825 94.2473 25.9226V5.62421C94.2407 5.16452 94.0506 4.72624 93.7188 4.40565C93.387 4.08506 92.9407 3.90839 92.4778 3.91446" fill="#0A66C2"/>
<path d="M96.9645 24.5667C96.534 24.5708 96.1226 24.744 95.8203 25.0486C95.518 25.3532 95.3495 25.7642 95.3516 26.1918C95.3537 26.6195 95.5262 27.0289 95.8314 27.3305C96.1366 27.6322 96.5496 27.8015 96.9802 27.8015C97.4108 27.8015 97.8238 27.6322 98.129 27.3305C98.4342 27.0289 98.6067 26.6195 98.6088 26.1918C98.6109 25.7642 98.4423 25.3532 98.1401 25.0486C97.8378 24.744 97.4264 24.5708 96.9958 24.5667H96.9645ZM96.9645 27.6164C96.6821 27.621 96.4047 27.5424 96.1672 27.3905C95.9298 27.2385 95.7431 27.0201 95.6307 26.7627C95.5182 26.5054 95.4852 26.2207 95.5357 25.9447C95.5862 25.6687 95.7179 25.4138 95.9143 25.2122C96.1107 25.0105 96.3628 24.8713 96.6389 24.812C96.9149 24.7527 97.2025 24.776 97.4652 24.879C97.7279 24.9821 97.954 25.1601 98.1148 25.3907C98.2756 25.6214 98.3639 25.8941 98.3686 26.1746C98.3686 26.1827 98.3686 26.1904 98.3686 26.1984C98.3765 26.5664 98.237 26.9224 97.9806 27.1881C97.7243 27.4539 97.3722 27.6077 97.0017 27.6156H96.9649" fill="#0A66C2"/>
</g>
<path d="M103.188 24.3728H101.113L107.115 8.02723H109.158L115.16 24.3728H113.085L108.2 10.6132H108.073L103.188 24.3728ZM103.954 17.9878H112.319V19.7437H103.954V17.9878ZM122.08 24.6282C121.058 24.6282 120.156 24.3701 119.374 23.854C118.592 23.3326 117.98 22.5983 117.538 21.6512C117.097 20.6988 116.876 19.5734 116.876 18.2751C116.876 16.9875 117.097 15.8701 117.538 14.923C117.98 13.9759 118.595 13.2443 119.382 12.7282C120.17 12.2121 121.08 11.954 122.112 11.954C122.91 11.954 123.54 12.087 124.003 12.3531C124.472 12.6138 124.828 12.9117 125.073 13.247C125.323 13.5769 125.517 13.8482 125.655 14.061H125.815V8.02723H127.699V24.3728H125.879V22.4892H125.655C125.517 22.7127 125.32 22.9947 125.065 23.3352C124.809 23.6705 124.445 23.9711 123.971 24.2371C123.498 24.4978 122.867 24.6282 122.08 24.6282ZM122.335 22.9362C123.091 22.9362 123.729 22.7393 124.251 22.3456C124.772 21.9465 125.169 21.3958 125.44 20.6935C125.711 19.9858 125.847 19.169 125.847 18.2432C125.847 17.328 125.714 16.5272 125.448 15.8409C125.182 15.1492 124.788 14.6118 124.267 14.2287C123.745 13.8402 123.101 13.646 122.335 13.646C121.537 13.646 120.872 13.8509 120.34 14.2606C119.813 14.665 119.417 15.2157 119.151 15.9127C118.89 16.6044 118.76 17.3812 118.76 18.2432C118.76 19.1158 118.893 19.9086 119.159 20.6216C119.43 21.3293 119.829 21.8933 120.356 22.3136C120.888 22.7287 121.548 22.9362 122.335 22.9362ZM140.093 14.8592L138.401 15.338C138.295 15.056 138.138 14.782 137.931 14.516C137.728 14.2446 137.452 14.0211 137.101 13.8456C136.749 13.67 136.3 13.5822 135.752 13.5822C135.001 13.5822 134.376 13.7551 133.876 14.101C133.381 14.4415 133.134 14.8751 133.134 15.4019C133.134 15.8701 133.304 16.2399 133.645 16.5113C133.985 16.7826 134.517 17.0088 135.241 17.1897L137.061 17.6366C138.157 17.9027 138.973 18.3097 139.511 18.8578C140.048 19.4005 140.317 20.1002 140.317 20.9568C140.317 21.6592 140.115 22.287 139.71 22.8404C139.311 23.3938 138.753 23.8301 138.034 24.1493C137.316 24.4686 136.481 24.6282 135.528 24.6282C134.278 24.6282 133.243 24.3568 132.424 23.8141C131.604 23.2714 131.085 22.4786 130.867 21.4357L132.655 20.9888C132.825 21.6485 133.147 22.1434 133.621 22.4733C134.1 22.8032 134.725 22.9681 135.496 22.9681C136.374 22.9681 137.071 22.7819 137.587 22.4094C138.109 22.0316 138.37 21.5794 138.37 21.0526C138.37 20.6269 138.221 20.2704 137.923 19.9831C137.625 19.6905 137.167 19.4723 136.55 19.3287L134.507 18.8498C133.384 18.5837 132.559 18.1714 132.032 17.6127C131.511 17.0487 131.25 16.3437 131.25 15.4977C131.25 14.806 131.444 14.1941 131.833 13.662C132.227 13.1299 132.761 12.7122 133.437 12.4089C134.118 12.1056 134.89 11.954 135.752 11.954C136.965 11.954 137.917 12.22 138.609 12.7521C139.306 13.2842 139.801 13.9866 140.093 14.8592Z" fill="#0A66C2"/>
<defs>
<clipPath id="clip0_293_877">
<rect width="98.6104" height="23.9167" fill="white" transform="translate(0 3.91431)"/>
</clipPath>
</defs>
</svg>
