<svg width="45" height="31" viewBox="0 0 45 31" fill="none" xmlns="http://www.w3.org/2000/svg">
<g clip-path="url(#clip0_796_35831)">
<mask id="mask0_796_35831" style="mask-type:luminance" maskUnits="userSpaceOnUse" x="0" y="0" width="44" height="32">
<path d="M0 0.880859H43.8556V31.6066H0V0.880859Z" fill="white"/>
</mask>
<g mask="url(#mask0_796_35831)">
<path fill-rule="evenodd" clip-rule="evenodd" d="M18.2423 4.23304C19.6569 2.75774 21.6266 1.84229 23.8049 1.84229C26.7003 1.84229 29.2268 3.4586 30.5718 5.85839C31.7753 5.32009 33.0788 5.04264 34.3969 5.04426C39.6196 5.04426 43.8535 9.31964 43.8535 14.5939C43.8535 19.8681 39.6196 24.1437 34.3969 24.1437C33.7592 24.1437 33.1364 24.0794 32.5339 23.9578C31.3495 26.0728 29.0915 27.5021 26.5005 27.5021C25.4525 27.5036 24.418 27.2652 23.4761 26.8053C22.2753 29.6334 19.4767 31.6163 16.2161 31.6163C12.8197 31.6163 9.92503 29.4653 8.81471 26.4486C8.31985 26.5531 7.81545 26.6057 7.30969 26.6054C3.26604 26.6054 -0.0117188 23.2898 -0.0117188 19.2C-0.0117188 16.4588 1.46075 14.0656 3.64931 12.7854C3.18562 11.7166 2.94701 10.5635 2.94837 9.39821C2.94837 4.69432 6.76283 0.880859 11.4681 0.880859C14.2306 0.880859 16.6857 2.19547 18.2423 4.23304Z" fill="#00A1E0"/>
</g>
<path fill-rule="evenodd" clip-rule="evenodd" d="M6.342 16.8187C6.31444 16.8907 6.35183 16.9057 6.3607 16.9184C6.44305 16.9781 6.5267 17.0214 6.61116 17.0699C7.05841 17.3069 7.48116 17.3765 7.92278 17.3765C8.8226 17.3765 9.38155 16.8976 9.38155 16.1264V16.1112C9.38155 15.3981 8.75056 15.139 8.15922 14.952L8.08201 14.927C7.63605 14.7821 7.25117 14.6568 7.25117 14.3626V14.3476C7.25117 14.0958 7.47617 13.9107 7.82478 13.9107C8.2124 13.9107 8.67174 14.0396 8.96798 14.2034C8.96798 14.2034 9.05533 14.2599 9.08708 14.1755C9.10433 14.1298 9.25406 13.7261 9.27001 13.6824C9.2871 13.6351 9.25712 13.5995 9.22634 13.5811C8.88804 13.3747 8.4208 13.2344 7.93712 13.2344L7.84735 13.2347C7.02376 13.2347 6.4487 13.7332 6.4487 14.4467V14.462C6.4487 15.2139 7.08307 15.4583 7.67731 15.6282L7.77272 15.6579C8.20547 15.7908 8.57923 15.9057 8.57923 16.2105V16.2256C8.57923 16.5048 8.33634 16.7121 7.94518 16.7121C7.79352 16.7121 7.30935 16.7095 6.78619 16.3783C6.72285 16.3413 6.68675 16.3147 6.63791 16.2848C6.61212 16.2692 6.54766 16.241 6.51961 16.3255L6.342 16.8187ZM19.5146 16.8187C19.487 16.8907 19.5244 16.9057 19.5336 16.9184C19.6157 16.9781 19.6995 17.0214 19.7838 17.0699C20.2312 17.3069 20.6539 17.3765 21.0954 17.3765C21.9952 17.3765 22.5543 16.8976 22.5543 16.1264V16.1112C22.5543 15.3981 21.9235 15.139 21.332 14.952L21.2548 14.927C20.8088 14.7821 20.4238 14.6568 20.4238 14.3626V14.3476C20.4238 14.0958 20.6489 13.9107 20.9977 13.9107C21.3852 13.9107 21.8443 14.0396 22.1406 14.2034C22.1406 14.2034 22.2279 14.2599 22.2598 14.1755C22.2769 14.1298 22.4268 13.7261 22.4426 13.6824C22.4599 13.6351 22.4297 13.5995 22.3991 13.5811C22.0606 13.3747 21.5936 13.2344 21.1099 13.2344L21.0199 13.2347C20.1965 13.2347 19.6215 13.7332 19.6215 14.4467V14.462C19.6215 15.2139 20.2557 15.4583 20.8501 15.6282L20.9453 15.6579C21.3782 15.7908 21.752 15.9057 21.752 16.2105V16.2256C21.752 16.5048 21.5089 16.7121 21.1181 16.7121C20.9661 16.7121 20.482 16.7095 19.959 16.3783C19.8956 16.3413 19.8585 16.3158 19.8105 16.2848C19.7942 16.2745 19.7183 16.2448 19.6924 16.3255L19.5146 16.8187ZM28.5072 15.3079C28.5072 15.7436 28.426 16.0875 28.2664 16.33C28.1078 16.5704 27.8685 16.6874 27.5347 16.6874C27.2009 16.6874 26.9628 16.5706 26.8068 16.3303C26.6494 16.0877 26.5694 15.7436 26.5694 15.3079C26.5694 14.8726 26.6494 14.5298 26.8068 14.2897C26.9628 14.0517 27.2009 13.9362 27.5347 13.9362C27.8685 13.9362 28.1078 14.0519 28.2664 14.2899C28.4263 14.5298 28.5072 14.8726 28.5072 15.3079ZM29.2586 14.5001C29.1846 14.2502 29.0697 14.0303 28.9167 13.8468C28.7635 13.6629 28.5696 13.5149 28.3397 13.4078C28.1102 13.3005 27.8395 13.2462 27.5347 13.2462C27.2299 13.2462 26.959 13.3005 26.7293 13.4078C26.4998 13.5149 26.3057 13.6629 26.1525 13.8471C25.9997 14.0309 25.8844 14.2505 25.8108 14.5001C25.7375 14.7481 25.7002 15.0199 25.7002 15.3079C25.7002 15.5961 25.7375 15.8681 25.8108 16.1158C25.8844 16.3652 25.9994 16.5849 26.1526 16.769C26.3059 16.9533 26.5004 17.0999 26.7296 17.2045C26.9595 17.309 27.2302 17.3623 27.5347 17.3623C27.8393 17.3623 28.1098 17.309 28.3394 17.2045C28.5689 17.0999 28.7631 16.9533 28.9167 16.769C29.0697 16.5856 29.1846 16.3655 29.2586 16.1158C29.3318 15.8676 29.369 15.5958 29.369 15.3079C29.369 15.0203 29.3318 14.7482 29.2586 14.5001ZM35.4262 16.5707C35.4015 16.4977 35.3303 16.5252 35.3303 16.5252C35.2211 16.567 35.1051 16.6058 34.981 16.6251C34.8559 16.6448 34.7175 16.6546 34.5694 16.6546C34.2062 16.6546 33.9169 16.5464 33.7105 16.3324C33.5031 16.1183 33.3865 15.7724 33.3878 15.3045C33.3889 14.8792 33.4918 14.5588 33.6762 14.3146C33.8589 14.0719 34.1381 13.9473 34.5093 13.9473C34.8192 13.9473 35.0556 13.9833 35.3033 14.0611C35.3033 14.0611 35.3622 14.0867 35.3904 14.0091C35.4563 13.8263 35.505 13.6963 35.5752 13.4954C35.5952 13.4381 35.5462 13.4139 35.5283 13.407C35.431 13.3689 35.201 13.3065 35.0274 13.2802C34.8651 13.2554 34.6754 13.2424 34.4638 13.2424C34.1484 13.2424 33.8671 13.2965 33.6267 13.4036C33.3867 13.5106 33.1831 13.6584 33.0218 13.8421C32.8605 14.0262 32.7376 14.2461 32.6564 14.4956C32.575 14.7437 32.5339 15.0161 32.5339 15.3049C32.5339 15.9284 32.702 16.4323 33.0336 16.8015C33.3662 17.1719 33.8652 17.36 34.5165 17.36C34.9012 17.36 35.2959 17.2821 35.5802 17.1701C35.5802 17.1701 35.6344 17.144 35.6109 17.0807L35.4262 16.5707ZM36.7404 14.8902C36.7763 14.648 36.8425 14.4469 36.9459 14.2897C37.1017 14.0517 37.3389 13.9206 37.6727 13.9206C38.0067 13.9206 38.2267 14.0519 38.3853 14.2899C38.49 14.4472 38.5358 14.6568 38.5537 14.8905L36.7404 14.8902ZM39.269 14.3583C39.205 14.1172 39.0474 13.8738 38.9437 13.7624C38.7802 13.5859 38.6199 13.4624 38.4609 13.3941C38.2306 13.2962 37.983 13.2458 37.7329 13.2462C37.4155 13.2462 37.1272 13.2999 36.8933 13.4096C36.6591 13.5196 36.4623 13.67 36.3081 13.8568C36.1535 14.0435 36.0376 14.2657 35.9637 14.5177C35.8895 14.7682 35.8521 15.0414 35.8521 15.3299C35.8521 15.6232 35.891 15.8967 35.9674 16.1425C36.0446 16.3905 36.1685 16.6082 36.3358 16.7894C36.503 16.9712 36.7181 17.1138 36.9752 17.2132C37.231 17.3124 37.5417 17.3639 37.8981 17.3628C38.6327 17.3603 39.019 17.1964 39.1786 17.1082C39.2068 17.0924 39.2334 17.0651 39.2002 16.9865L39.0338 16.5206C39.0084 16.451 38.9381 16.4762 38.9381 16.4762C38.7558 16.5443 38.4978 16.6658 37.8944 16.6645C37.5001 16.6638 37.2081 16.5472 37.0245 16.365C36.8367 16.1787 36.7445 15.9051 36.7289 15.5185L39.2709 15.5204C39.2709 15.5204 39.338 15.5198 39.3449 15.4543C39.3476 15.4272 39.4321 14.9315 39.269 14.3583ZM16.378 14.8902C16.414 14.648 16.4804 14.4469 16.5835 14.2897C16.7395 14.0517 16.9765 13.9206 17.3106 13.9206C17.6445 13.9206 17.8645 14.0519 18.0231 14.2899C18.1277 14.4472 18.1735 14.6568 18.1914 14.8905L16.378 14.8902ZM18.9067 14.3583C18.8428 14.1172 18.685 13.8738 18.5816 13.7624C18.418 13.5859 18.2579 13.4624 18.0987 13.3941C17.8685 13.2962 17.6208 13.2459 17.3707 13.2462C17.0533 13.2462 16.765 13.2999 16.5311 13.4096C16.297 13.5196 16.1002 13.67 15.9456 13.8568C15.7914 14.0435 15.6755 14.2657 15.6012 14.5177C15.5272 14.7682 15.49 15.0414 15.49 15.3299C15.49 15.6232 15.5285 15.8967 15.6054 16.1425C15.6824 16.3905 15.8065 16.6082 15.9735 16.7894C16.1408 16.9712 16.3558 17.1138 16.6129 17.2132C16.8688 17.3124 17.1792 17.3639 17.5359 17.3628C18.2704 17.3603 18.6568 17.1964 18.8164 17.1082C18.8444 17.0924 18.8712 17.0651 18.8378 16.9865L18.6717 16.5206C18.646 16.451 18.5758 16.4762 18.5758 16.4762C18.3936 16.5443 18.1356 16.6658 17.532 16.6645C17.138 16.6638 16.8457 16.5472 16.6622 16.365C16.4746 16.1787 16.3822 15.9051 16.3666 15.5185L18.9088 15.5204C18.9088 15.5204 18.9758 15.5198 18.9827 15.4543C18.9855 15.4272 19.0699 14.9315 18.9067 14.3583ZM10.8825 16.5569C10.7828 16.4772 10.7689 16.4576 10.7359 16.4059C10.6854 16.3279 10.6596 16.2169 10.6596 16.0748C10.6596 15.8513 10.7338 15.6903 10.8866 15.5822C10.885 15.5825 11.1058 15.3915 11.6239 15.3983C11.8551 15.4024 12.0857 15.4221 12.3142 15.4572V16.614H12.3146C12.3146 16.614 11.9914 16.6835 11.6276 16.7055C11.1106 16.7366 10.8809 16.5564 10.8825 16.5569ZM11.8942 14.7682C11.7911 14.7607 11.6575 14.757 11.4973 14.757C11.2795 14.757 11.0689 14.7841 10.8711 14.8373C10.6725 14.8909 10.494 14.9738 10.3404 15.0837C10.1869 15.1934 10.0606 15.3371 9.97144 15.5035C9.88134 15.6714 9.83541 15.8688 9.83541 16.0899C9.83541 16.3157 9.87457 16.5112 9.95193 16.6709C10.0276 16.8293 10.1416 16.9663 10.2835 17.0695C10.4248 17.1724 10.5992 17.2479 10.8015 17.294C11.0012 17.3397 11.2274 17.3628 11.4747 17.3628C11.7358 17.3628 11.9954 17.3408 12.247 17.2984C12.4613 17.2614 12.6748 17.2199 12.8874 17.1738C12.9721 17.1543 13.0656 17.1287 13.0656 17.1287C13.1285 17.1127 13.1236 17.0454 13.1236 17.0454L13.1222 14.7179C13.1222 14.2074 12.9862 13.8292 12.7181 13.5943C12.4514 13.3605 12.0586 13.2424 11.5504 13.2424C11.3596 13.2424 11.0531 13.2683 10.869 13.3052C10.869 13.3052 10.3139 13.413 10.0854 13.5922C10.0854 13.5922 10.0351 13.6232 10.0625 13.6934L10.2425 14.1774C10.2649 14.2402 10.326 14.2187 10.326 14.2187C10.326 14.2187 10.3452 14.2111 10.3678 14.1977C10.8568 13.9315 11.4755 13.9394 11.4755 13.9394C11.7501 13.9394 11.9618 13.9951 12.1039 14.104C12.2427 14.2106 12.3131 14.3712 12.3131 14.7105V14.8181C12.095 14.7865 11.8942 14.7682 11.8942 14.7682ZM32.401 13.457C32.4046 13.4485 32.4065 13.4394 32.4066 13.4301C32.4066 13.4208 32.4048 13.4116 32.4013 13.4031C32.3977 13.3945 32.3925 13.3868 32.3858 13.3803C32.3792 13.3738 32.3714 13.3688 32.3628 13.3654C32.3194 13.3489 32.1033 13.3033 31.9366 13.2929C31.617 13.2729 31.4399 13.3268 31.281 13.3985C31.1233 13.4696 30.9488 13.5846 30.8514 13.7158L30.8511 13.4054C30.8511 13.3628 30.821 13.3284 30.7781 13.3284H30.1263C30.0841 13.3284 30.0535 13.3628 30.0535 13.4054V17.2021C30.0535 17.2226 30.0617 17.2422 30.0761 17.2567C30.0906 17.2712 30.1102 17.2793 30.1307 17.2794H30.7987C30.8192 17.2793 30.8388 17.2712 30.8532 17.2567C30.8677 17.2422 30.8758 17.2225 30.8758 17.2021V15.3055C30.8758 15.0508 30.9038 14.797 30.9598 14.6374C31.0149 14.4794 31.0898 14.3536 31.1827 14.2631C31.2706 14.1757 31.3783 14.1109 31.4966 14.074C31.6075 14.0421 31.7223 14.026 31.8377 14.0259C31.9706 14.0259 32.117 14.0601 32.117 14.0601C32.166 14.0656 32.1932 14.0356 32.2098 13.9914C32.2535 13.8751 32.3773 13.5264 32.401 13.457Z" fill="#FFFFFE"/>
<path fill-rule="evenodd" clip-rule="evenodd" d="M26.1316 11.6999C26.0491 11.6749 25.9652 11.655 25.8803 11.6402C25.7662 11.6211 25.6505 11.6121 25.5348 11.6134C25.075 11.6134 24.7125 11.7434 24.458 12.0003C24.2053 12.2552 24.0333 12.6436 23.9471 13.1545L23.916 13.327H23.3388C23.3388 13.327 23.2684 13.3241 23.2536 13.4011L23.1588 13.9303C23.1522 13.9809 23.1739 14.0125 23.2416 14.0122H23.8035L23.2334 17.1976C23.1888 17.4541 23.1377 17.6651 23.0811 17.825C23.0253 17.9828 22.9709 18.1011 22.9038 18.1869C22.8389 18.27 22.7773 18.3312 22.6711 18.3668C22.5834 18.3963 22.4825 18.4099 22.372 18.4099C22.3104 18.4099 22.2285 18.3996 22.1681 18.3875C22.1076 18.3755 22.0762 18.362 22.0309 18.3429C22.0309 18.3429 21.965 18.3178 21.939 18.3839C21.9179 18.438 21.7682 18.8502 21.7505 18.9012C21.7324 18.9515 21.7577 18.9912 21.7896 19.0027C21.8644 19.0294 21.92 19.0465 22.0219 19.0706C22.1634 19.104 22.2827 19.1061 22.3944 19.1061C22.6284 19.1061 22.8416 19.0732 23.0184 19.0093C23.1963 18.9449 23.3512 18.8328 23.4882 18.6809C23.6363 18.5172 23.7295 18.3457 23.8186 18.1117C23.9068 17.8799 23.9819 17.592 24.042 17.2566L24.6148 14.0122H25.4523C25.4523 14.0122 25.5229 14.0148 25.5375 13.9382L25.6323 13.409C25.6389 13.3583 25.6173 13.3267 25.5493 13.327H24.7365C24.7405 13.3086 24.7774 13.0224 24.8708 12.7529C24.9106 12.6379 24.9855 12.5451 25.049 12.4814C25.1083 12.4207 25.1813 12.3752 25.2619 12.3488C25.3503 12.3215 25.4423 12.3082 25.5348 12.3094C25.6114 12.3094 25.6865 12.3186 25.7437 12.3306C25.8225 12.3473 25.8531 12.3562 25.8737 12.3623C25.9566 12.3877 25.9677 12.3631 25.984 12.323L26.1784 11.7886C26.1983 11.7312 26.1497 11.707 26.1316 11.6999ZM14.7732 17.2043C14.7732 17.2469 14.7429 17.2816 14.7003 17.2816H14.0261C13.9834 17.2816 13.9531 17.2469 13.9531 17.2043V11.7723C13.9531 11.7299 13.9834 11.6955 14.0261 11.6955H14.7003C14.7429 11.6955 14.7732 11.7299 14.7732 11.7723V17.2043Z" fill="#FFFFFE"/>
</g>
<defs>
<clipPath id="clip0_796_35831">
<rect width="44.023" height="30.8" fill="white"/>
</clipPath>
</defs>
</svg>
