<svg width="79" height="29" viewBox="0 0 79 29" fill="none" xmlns="http://www.w3.org/2000/svg">
<g clip-path="url(#clip0_796_35856)">
<path d="M59.8281 14.8401V21.2421H62.4375V15.2338C62.4375 12.5557 66.065 12.5557 66.065 12.5557V9.95312C66.065 9.95312 65.0525 10.0005 64.2512 10.1821C61.9812 10.6932 59.8281 11.8213 59.8281 14.8457V14.8401Z" fill="#1C1C1E"/>
<path d="M40.1364 9.81792C41.1545 9.81792 42.4244 10.3933 43.1143 11.4097C43.8279 10.488 45.0101 9.85853 46.4665 9.83597C48.3151 9.81228 50.603 10.9697 50.603 14.4353V21.2254H47.9937V14.4353C47.9937 13.2778 47.1632 12.4498 45.917 12.4498C44.6707 12.4498 43.8392 13.2778 43.8392 14.4353V21.2254H41.2298V14.4353C41.2298 13.2778 40.3993 12.4498 39.1531 12.4498C37.9069 12.4498 37.0528 13.2778 37.0528 14.4353V21.2254H34.3086V10.153H37.0528V11.263C37.7956 10.3639 38.8778 9.80664 40.1476 9.80664L40.1364 9.81792Z" fill="#1C1C1E"/>
<path d="M56.6136 10.3008V21.2378H53.957V10.3008H56.6136Z" fill="#1C1C1E"/>
<path d="M55.2808 8.56173C56.1 8.56173 56.7608 7.8984 56.7608 7.08164C56.7608 6.26489 56.1 5.60156 55.2808 5.60156C54.4616 5.60156 53.8008 6.26489 53.8008 7.08164C53.8008 7.8984 54.4616 8.56173 55.2808 8.56173Z" fill="#1C1C1E"/>
<path d="M73.1542 9.79688C69.9358 9.79688 67.332 12.3994 67.332 15.6123C67.332 18.8251 69.9414 21.4277 73.1542 21.4277C76.367 21.4277 78.9764 18.8251 78.9764 15.6123C78.9764 12.3994 76.367 9.79688 73.1542 9.79688ZM73.1542 18.8127C71.3348 18.8127 69.8605 17.3383 69.8605 15.5175C69.8605 13.6968 71.3348 12.2223 73.1542 12.2223C74.9736 12.2223 76.4491 13.6968 76.4491 15.5175C76.4491 17.3383 74.9747 18.8127 73.1542 18.8127Z" fill="#1C1C1E"/>
<path d="M0.0585938 7.31496C0.0585938 3.32144 3.28827 0.078125 7.26636 0.078125H21.6841C25.6634 0.078125 28.893 3.32032 28.893 7.31496V21.7875C28.893 25.7821 25.6634 29.0243 21.6841 29.0243H7.26636C3.28827 29.0255 0.0585938 25.7821 0.0585938 21.7886V7.31496Z" fill="#FFDD33"/>
<path fill-rule="evenodd" clip-rule="evenodd" d="M19.2284 5.60156H16.6134L18.7957 9.44842L13.9973 5.60156H11.3823L13.7815 10.3001L8.76732 5.60156H6.15234L8.76732 11.5873L6.15234 23.5577H8.76732L13.7815 10.7356L11.3823 23.5577H13.9973L18.7957 9.8771L16.6134 23.5577H19.2284L24.0268 8.5967L19.2284 5.6072V5.60156Z" fill="#1C1C1E"/>
</g>
<defs>
<clipPath id="clip0_796_35856">
<rect width="79" height="28.9667" fill="white"/>
</clipPath>
</defs>
</svg>
