<svg width="124" height="18" viewBox="0 0 124 18" fill="none" xmlns="http://www.w3.org/2000/svg">
<path d="M7.34552e-05 0.189905H3.62291L7.44928 9.52515H7.6121L11.4385 0.189905H15.0613V14.0842H12.2119V5.04071H12.0965L8.50085 14.0164H6.56053L2.96483 5.00678H2.8495V14.0842H7.34552e-05V0.189905ZM20.3989 14.281C19.734 14.281 19.1415 14.1656 18.6214 13.935C18.1013 13.6998 17.6897 13.3538 17.3866 12.897C17.0881 12.4356 16.9389 11.8612 16.9389 11.1737C16.9389 10.5948 17.0452 10.1086 17.2577 9.71512C17.4703 9.32162 17.7598 9.00502 18.1261 8.76531C18.4925 8.52559 18.9086 8.34468 19.3744 8.22256C19.8448 8.10044 20.3378 8.01451 20.8534 7.96476C21.4595 7.90144 21.948 7.84264 22.3188 7.78836C22.6897 7.72957 22.9588 7.64363 23.1262 7.53056C23.2935 7.41749 23.3772 7.25014 23.3772 7.02852V6.98781C23.3772 6.55814 23.2415 6.2257 22.9701 5.99051C22.7033 5.75532 22.3234 5.63773 21.8304 5.63773C21.3102 5.63773 20.8964 5.75306 20.5888 5.98373C20.2813 6.20987 20.0778 6.49482 19.9783 6.83856L17.3052 6.62146C17.4409 5.98825 17.7078 5.44098 18.1058 4.97965C18.5038 4.51379 19.0171 4.15648 19.6458 3.90772C20.279 3.65444 21.0117 3.5278 21.8439 3.5278C22.4229 3.5278 22.9769 3.59564 23.5061 3.73133C24.0398 3.86702 24.5124 4.07733 24.924 4.36227C25.3401 4.64721 25.668 5.01357 25.9078 5.46134C26.1475 5.90458 26.2673 6.43602 26.2673 7.05565V14.0842H23.5265V12.6392H23.445C23.2777 12.9648 23.0538 13.252 22.7734 13.5008C22.493 13.745 22.156 13.9372 21.7625 14.0774C21.369 14.2131 20.9145 14.281 20.3989 14.281ZM21.2266 12.2864C21.6517 12.2864 22.0271 12.2027 22.3528 12.0354C22.6784 11.8635 22.934 11.6328 23.1194 11.3434C23.3048 11.0539 23.3976 10.726 23.3976 10.3596V9.25378C23.3071 9.31258 23.1827 9.36685 23.0244 9.4166C22.8706 9.46183 22.6965 9.5048 22.502 9.54551C22.3075 9.58169 22.1131 9.61561 21.9186 9.64727C21.7241 9.67441 21.5477 9.69928 21.3894 9.7219C21.0502 9.77165 20.7539 9.8508 20.5006 9.95935C20.2474 10.0679 20.0506 10.2149 19.9104 10.4003C19.7702 10.5812 19.7001 10.8074 19.7001 11.0788C19.7001 11.4723 19.8426 11.773 20.1275 11.9811C20.417 12.1846 20.7833 12.2864 21.2266 12.2864ZM28.5096 14.0842V3.66349H31.3115V5.48169H31.42C31.61 4.83491 31.9289 4.34644 32.3766 4.01627C32.8244 3.68158 33.34 3.51423 33.9235 3.51423C34.0682 3.51423 34.2242 3.52328 34.3916 3.54137C34.5589 3.55946 34.7059 3.58434 34.8326 3.616V6.18047C34.6969 6.13977 34.5092 6.10359 34.2695 6.07193C34.0297 6.04027 33.8104 6.02444 33.6114 6.02444C33.1862 6.02444 32.8063 6.11715 32.4716 6.30259C32.1414 6.48351 31.8791 6.73679 31.6846 7.06244C31.4947 7.38809 31.3997 7.76349 31.3997 8.18864V14.0842H28.5096ZM38.9456 11.0856L38.9523 7.61875H39.373L42.7109 3.66349H46.0284L41.544 8.90099H40.8587L38.9456 11.0856ZM36.3268 14.0842V0.189905H39.2169V14.0842H36.3268ZM42.8398 14.0842L39.7733 9.54551L41.7 7.50342L46.2252 14.0842H42.8398ZM51.7663 14.2878C50.6943 14.2878 49.7717 14.0707 48.9983 13.6365C48.2294 13.1977 47.6369 12.5781 47.2208 11.7776C46.8047 10.9725 46.5966 10.0204 46.5966 8.92135C46.5966 7.84942 46.8047 6.90866 47.2208 6.09906C47.6369 5.28947 48.2226 4.65852 48.9779 4.20623C49.7377 3.75394 50.6288 3.5278 51.6509 3.5278C52.3384 3.5278 52.9784 3.63861 53.5709 3.86023C54.1679 4.07733 54.6881 4.40524 55.1313 4.84396C55.5791 5.28268 55.9273 5.83447 56.1761 6.49934C56.4248 7.15968 56.5492 7.9331 56.5492 8.81958V9.61335H47.7499V7.82228H53.8287C53.8287 7.40618 53.7382 7.03756 53.5573 6.71644C53.3764 6.39531 53.1254 6.14429 52.8043 5.96338C52.4877 5.77794 52.1191 5.68522 51.6984 5.68522C51.2597 5.68522 50.8707 5.78698 50.5315 5.99051C50.1968 6.18952 49.9345 6.45863 49.7445 6.79785C49.5546 7.13254 49.4573 7.50568 49.4528 7.91727V9.62013C49.4528 10.1357 49.5478 10.5812 49.7377 10.9566C49.9322 11.332 50.2059 11.6215 50.5587 11.825C50.9114 12.0286 51.3298 12.1303 51.8138 12.1303C52.1349 12.1303 52.4289 12.0851 52.6957 11.9947C52.9626 11.9042 53.191 11.7685 53.3809 11.5876C53.5709 11.4067 53.7156 11.1851 53.8151 10.9227L56.4882 11.0991C56.3525 11.7414 56.0743 12.3022 55.6537 12.7816C55.2376 13.2565 54.6994 13.6274 54.039 13.8943C53.3832 14.1566 52.6256 14.2878 51.7663 14.2878ZM63.9781 3.66349V5.83447H57.7026V3.66349H63.9781ZM59.1273 1.16685H62.0174V10.882C62.0174 11.1489 62.0581 11.3569 62.1395 11.5062C62.2209 11.6509 62.334 11.7527 62.4787 11.8115C62.628 11.8703 62.7999 11.8997 62.9943 11.8997C63.13 11.8997 63.2657 11.8884 63.4014 11.8658C63.5371 11.8386 63.6411 11.8183 63.7135 11.8047L64.168 13.9553C64.0233 14.0006 63.8198 14.0526 63.5574 14.1114C63.2951 14.1747 62.9762 14.2131 62.6008 14.2267C61.9043 14.2538 61.2937 14.1611 60.7691 13.9485C60.2489 13.736 59.8441 13.4058 59.5547 12.958C59.2652 12.5103 59.1227 11.9449 59.1273 11.2619V1.16685ZM77.8741 4.18588C77.8198 3.63861 77.5869 3.21346 77.1753 2.91042C76.7637 2.60739 76.2051 2.45587 75.4996 2.45587C75.0201 2.45587 74.6153 2.52372 74.2852 2.6594C73.955 2.79057 73.7017 2.97375 73.5253 3.20894C73.3535 3.44413 73.2675 3.71098 73.2675 4.00949C73.2585 4.25825 73.3105 4.47535 73.4236 4.66078C73.5412 4.84622 73.7017 5.00678 73.9052 5.14247C74.1088 5.27364 74.344 5.38897 74.6108 5.48847C74.8777 5.58345 75.1626 5.66487 75.4656 5.73271L76.714 6.03122C77.32 6.16691 77.8763 6.34782 78.3829 6.57397C78.8895 6.80011 79.3282 7.07827 79.6991 7.40844C80.0699 7.73861 80.3572 8.12758 80.5607 8.57535C80.7687 9.02311 80.875 9.53646 80.8795 10.1154C80.875 10.9657 80.6579 11.7029 80.2283 12.3271C79.8031 12.9467 79.188 13.4284 78.3829 13.7721C77.5824 14.1114 76.6167 14.281 75.486 14.281C74.3643 14.281 73.3874 14.1091 72.5552 13.7654C71.7275 13.4216 71.0807 12.9128 70.6148 12.2389C70.1535 11.5605 69.9115 10.7215 69.8889 9.7219H72.7316C72.7632 10.1878 72.8966 10.5767 73.1318 10.8888C73.3715 11.1964 73.6904 11.4293 74.0884 11.5876C74.491 11.7414 74.9455 11.8183 75.4521 11.8183C75.9496 11.8183 76.3815 11.7459 76.7479 11.6012C77.1188 11.4564 77.406 11.2552 77.6095 10.9974C77.813 10.7396 77.9148 10.4433 77.9148 10.1086C77.9148 9.79653 77.8221 9.5342 77.6366 9.32162C77.4557 9.10905 77.1889 8.92813 76.8361 8.77888C76.4878 8.62962 76.0604 8.49393 75.5538 8.37182L74.0409 7.99189C72.8695 7.70695 71.9446 7.26145 71.2661 6.65538C70.5877 6.04931 70.2508 5.23293 70.2553 4.20623C70.2508 3.36497 70.4746 2.63001 70.9269 2.00132C71.3837 1.37264 72.0102 0.881908 72.8062 0.529122C73.6022 0.176336 74.5068 -5.66272e-05 75.5199 -5.66272e-05C76.5511 -5.66272e-05 77.4512 0.176336 78.2201 0.529122C78.9935 0.881908 79.595 1.37264 80.0247 2.00132C80.4544 2.63001 80.676 3.35819 80.6896 4.18588H77.8741ZM85.6913 8.05974V14.0842H82.8012V0.189905H85.6099V5.50204H85.732C85.9672 4.88693 86.3472 4.40524 86.8718 4.05698C87.3965 3.70419 88.0545 3.5278 88.8461 3.5278C89.5697 3.5278 90.2007 3.6861 90.7389 4.0027C91.2816 4.31478 91.7023 4.76481 92.0008 5.35279C92.3038 5.93624 92.4531 6.63503 92.4485 7.44915V14.0842H89.5584V7.96476C89.5629 7.32251 89.4001 6.82273 89.0699 6.46542C88.7443 6.10811 88.2875 5.92945 87.6995 5.92945C87.306 5.92945 86.9577 6.01313 86.6547 6.18047C86.3562 6.34782 86.121 6.59206 85.9491 6.91318C85.7818 7.22979 85.6959 7.61197 85.6913 8.05974ZM97.6945 14.281C97.0297 14.281 96.4372 14.1656 95.917 13.935C95.3969 13.6998 94.9853 13.3538 94.6823 12.897C94.3838 12.4356 94.2345 11.8612 94.2345 11.1737C94.2345 10.5948 94.3408 10.1086 94.5534 9.71512C94.766 9.32162 95.0554 9.00502 95.4218 8.76531C95.7881 8.52559 96.2042 8.34468 96.6701 8.22256C97.1405 8.10044 97.6335 8.01451 98.1491 7.96476C98.7552 7.90144 99.2436 7.84264 99.6145 7.78836C99.9854 7.72957 100.254 7.64363 100.422 7.53056C100.589 7.41749 100.673 7.25014 100.673 7.02852V6.98781C100.673 6.55814 100.537 6.2257 100.266 5.99051C99.9989 5.75532 99.619 5.63773 99.126 5.63773C98.6059 5.63773 98.1921 5.75306 97.8845 5.98373C97.5769 6.20987 97.3734 6.49482 97.2739 6.83856L94.6009 6.62146C94.7366 5.98825 95.0034 5.44098 95.4014 4.97965C95.7994 4.51379 96.3128 4.15648 96.9415 3.90772C97.5747 3.65444 98.3074 3.5278 99.1396 3.5278C99.7185 3.5278 100.273 3.59564 100.802 3.73133C101.335 3.86702 101.808 4.07733 102.22 4.36227C102.636 4.64721 102.964 5.01357 103.203 5.46134C103.443 5.90458 103.563 6.43602 103.563 7.05565V14.0842H100.822V12.6392H100.741C100.573 12.9648 100.349 13.252 100.069 13.5008C99.7886 13.745 99.4517 13.9372 99.0582 14.0774C98.6647 14.2131 98.2101 14.281 97.6945 14.281ZM98.5222 12.2864C98.9474 12.2864 99.3228 12.2027 99.6484 12.0354C99.9741 11.8635 100.23 11.6328 100.415 11.3434C100.6 11.0539 100.693 10.726 100.693 10.3596V9.25378C100.603 9.31258 100.478 9.36685 100.32 9.4166C100.166 9.46183 99.9922 9.5048 99.7977 9.54551C99.6032 9.58169 99.4087 9.61561 99.2142 9.64727C99.0197 9.67441 98.8433 9.69928 98.685 9.7219C98.3458 9.77165 98.0496 9.8508 97.7963 9.95935C97.543 10.0679 97.3463 10.2149 97.2061 10.4003C97.0659 10.5812 96.9957 10.8074 96.9957 11.0788C96.9957 11.4723 97.1382 11.773 97.4232 11.9811C97.7126 12.1846 98.079 12.2864 98.5222 12.2864ZM105.805 14.0842V3.66349H108.607V5.48169H108.716C108.906 4.83491 109.225 4.34644 109.672 4.01627C110.12 3.68158 110.636 3.51423 111.219 3.51423C111.364 3.51423 111.52 3.52328 111.687 3.54137C111.855 3.55946 112.002 3.58434 112.128 3.616V6.18047C111.993 6.13977 111.805 6.10359 111.565 6.07193C111.325 6.04027 111.106 6.02444 110.907 6.02444C110.482 6.02444 110.102 6.11715 109.767 6.30259C109.437 6.48351 109.175 6.73679 108.98 7.06244C108.79 7.38809 108.695 7.76349 108.695 8.18864V14.0842H105.805ZM113.622 17.992V3.66349H116.472V5.41384H116.601C116.727 5.13343 116.911 4.84848 117.15 4.55902C117.395 4.26503 117.711 4.02079 118.1 3.82631C118.494 3.6273 118.982 3.5278 119.566 3.5278C120.325 3.5278 121.026 3.72681 121.669 4.12482C122.311 4.51831 122.824 5.11307 123.209 5.9091C123.593 6.70061 123.785 7.69338 123.785 8.88743C123.785 10.0498 123.598 11.0313 123.222 11.8318C122.851 12.6279 122.345 13.2317 121.703 13.6432C121.065 14.0503 120.35 14.2538 119.559 14.2538C118.998 14.2538 118.521 14.1611 118.127 13.9757C117.738 13.7902 117.419 13.5573 117.171 13.2769C116.922 12.992 116.732 12.7047 116.601 12.4153H116.513V17.992H113.622ZM116.452 8.87386C116.452 9.49349 116.537 10.034 116.709 10.4953C116.881 10.9566 117.13 11.3162 117.456 11.574C117.781 11.8273 118.177 11.9539 118.643 11.9539C119.113 11.9539 119.511 11.825 119.837 11.5672C120.163 11.3049 120.409 10.9431 120.576 10.4817C120.748 10.0159 120.834 9.47992 120.834 8.87386C120.834 8.27231 120.751 7.74313 120.583 7.28632C120.416 6.82951 120.169 6.4722 119.844 6.2144C119.518 5.95659 119.118 5.82769 118.643 5.82769C118.172 5.82769 117.774 5.95207 117.449 6.20083C117.128 6.44959 116.881 6.80237 116.709 7.25918C116.537 7.716 116.452 8.25422 116.452 8.87386Z" fill="#0054A7"/>
</svg>
