<svg width="107" height="24" viewBox="0 0 107 24" fill="none" xmlns="http://www.w3.org/2000/svg">
<g clip-path="url(#clip0_293_958)">
<path d="M0.611651 17.2162L9.41483 2.16211C10.533 2.81971 16.1718 5.93678 17.0824 6.52962L8.27922 21.5846C7.31648 22.8551 -0.608067 19.1442 0.611651 17.2154V17.2162Z" fill="#FBBC04"/>
<path d="M25.9008 17.2161L17.0976 2.16295C15.8669 0.117112 13.2164 -0.62636 11.0393 0.581963C8.8622 1.79029 8.19931 4.39316 9.43001 6.53036L18.2332 21.5854C19.4639 23.6303 22.1145 24.3737 24.2916 23.1655C26.3735 21.957 27.1315 19.2619 25.9008 17.2179V17.2161Z" fill="#4285F4"/>
<path d="M4.41899 23.7475C6.85953 23.7475 8.83798 21.8203 8.83798 19.4431C8.83798 17.0658 6.85953 15.1387 4.41899 15.1387C1.97845 15.1387 0 17.0658 0 19.4431C0 21.8203 1.97845 23.7475 4.41899 23.7475Z" fill="#34A853"/>
</g>
<path d="M37.9204 10.3746C37.8595 10.1631 37.7741 9.9762 37.664 9.81395C37.5539 9.64881 37.4192 9.50974 37.2598 9.39675C37.1034 9.28086 36.9237 9.19249 36.7209 9.13165C36.521 9.07081 36.2994 9.04039 36.056 9.04039C35.6011 9.04039 35.2013 9.15338 34.8565 9.37937C34.5147 9.60535 34.2481 9.93419 34.0569 10.3659C33.8657 10.7947 33.7701 11.3191 33.7701 11.9391C33.7701 12.5591 33.8642 13.0864 34.0526 13.521C34.2409 13.9556 34.5074 14.2873 34.8522 14.5162C35.197 14.7422 35.604 14.8552 36.0734 14.8552C36.4993 14.8552 36.8629 14.7798 37.1642 14.6292C37.4684 14.4756 37.7002 14.2598 37.8595 13.9816C38.0218 13.7035 38.1029 13.3747 38.1029 12.9951L38.4853 13.0516H36.1907V11.6349H39.9151V12.7561C39.9151 13.5384 39.75 14.2105 39.4197 14.7726C39.0894 15.3318 38.6345 15.7635 38.0551 16.0677C37.4756 16.369 36.8122 16.5196 36.0647 16.5196C35.2303 16.5196 34.4973 16.3357 33.8657 15.9677C33.2341 15.5969 32.7415 15.071 32.3881 14.3902C32.0375 13.7064 31.8622 12.8952 31.8622 11.9565C31.8622 11.2351 31.9665 10.5919 32.1751 10.0269C32.3866 9.45904 32.6822 8.9781 33.0617 8.58407C33.4412 8.19005 33.8831 7.89018 34.3872 7.68448C34.8913 7.47877 35.4374 7.37592 36.0256 7.37592C36.5297 7.37592 36.9991 7.4498 37.4336 7.59756C37.8682 7.74242 38.2536 7.94813 38.5896 8.21467C38.9286 8.48122 39.2053 8.79847 39.4197 9.16642C39.6341 9.53147 39.7717 9.93419 39.8326 10.3746H37.9204ZM44.3099 16.5283C43.6348 16.5283 43.051 16.3849 42.5585 16.0981C42.0689 15.8084 41.6908 15.4056 41.4242 14.8899C41.1577 14.3713 41.0244 13.7701 41.0244 13.0864C41.0244 12.3969 41.1577 11.7942 41.4242 11.2785C41.6908 10.7599 42.0689 10.3572 42.5585 10.0704C43.051 9.78064 43.6348 9.63577 44.3099 9.63577C44.985 9.63577 45.5673 9.78064 46.0569 10.0704C46.5495 10.3572 46.929 10.7599 47.1956 11.2785C47.4621 11.7942 47.5954 12.3969 47.5954 13.0864C47.5954 13.7701 47.4621 14.3713 47.1956 14.8899C46.929 15.4056 46.5495 15.8084 46.0569 16.0981C45.5673 16.3849 44.985 16.5283 44.3099 16.5283ZM44.3186 15.0942C44.6257 15.0942 44.8821 15.0073 45.0878 14.8334C45.2935 14.6567 45.4485 14.4162 45.5528 14.112C45.66 13.8078 45.7136 13.4616 45.7136 13.0734C45.7136 12.6851 45.66 12.3389 45.5528 12.0347C45.4485 11.7305 45.2935 11.49 45.0878 11.3133C44.8821 11.1365 44.6257 11.0482 44.3186 11.0482C44.0086 11.0482 43.7478 11.1365 43.5363 11.3133C43.3277 11.49 43.1698 11.7305 43.0626 12.0347C42.9583 12.3389 42.9062 12.6851 42.9062 13.0734C42.9062 13.4616 42.9583 13.8078 43.0626 14.112C43.1698 14.4162 43.3277 14.6567 43.5363 14.8334C43.7478 15.0073 44.0086 15.0942 44.3186 15.0942ZM51.8152 16.5283C51.1402 16.5283 50.5564 16.3849 50.0638 16.0981C49.5742 15.8084 49.1961 15.4056 48.9296 14.8899C48.663 14.3713 48.5297 13.7701 48.5297 13.0864C48.5297 12.3969 48.663 11.7942 48.9296 11.2785C49.1961 10.7599 49.5742 10.3572 50.0638 10.0704C50.5564 9.78064 51.1402 9.63577 51.8152 9.63577C52.4903 9.63577 53.0726 9.78064 53.5623 10.0704C54.0548 10.3572 54.4343 10.7599 54.7009 11.2785C54.9674 11.7942 55.1007 12.3969 55.1007 13.0864C55.1007 13.7701 54.9674 14.3713 54.7009 14.8899C54.4343 15.4056 54.0548 15.8084 53.5623 16.0981C53.0726 16.3849 52.4903 16.5283 51.8152 16.5283ZM51.8239 15.0942C52.131 15.0942 52.3874 15.0073 52.5931 14.8334C52.7988 14.6567 52.9538 14.4162 53.0581 14.112C53.1653 13.8078 53.2189 13.4616 53.2189 13.0734C53.2189 12.6851 53.1653 12.3389 53.0581 12.0347C52.9538 11.7305 52.7988 11.49 52.5931 11.3133C52.3874 11.1365 52.131 11.0482 51.8239 11.0482C51.5139 11.0482 51.2531 11.1365 51.0416 11.3133C50.833 11.49 50.6751 11.7305 50.5679 12.0347C50.4636 12.3389 50.4115 12.6851 50.4115 13.0734C50.4115 13.4616 50.4636 13.8078 50.5679 14.112C50.6751 14.4162 50.833 14.6567 51.0416 14.8334C51.2531 15.0073 51.5139 15.0942 51.8239 15.0942ZM59.3118 19.0402C58.7121 19.0402 58.1978 18.9577 57.7691 18.7925C57.3432 18.6303 57.0042 18.4086 56.7521 18.1276C56.5001 17.8466 56.3364 17.5308 56.261 17.1802L57.9733 16.9499C58.0255 17.0831 58.108 17.2077 58.221 17.3236C58.334 17.4395 58.4832 17.5322 58.6687 17.6018C58.857 17.6742 59.0859 17.7104 59.3553 17.7104C59.758 17.7104 60.0898 17.6119 60.3505 17.4149C60.6142 17.2208 60.746 16.8948 60.746 16.4371V15.2159H60.6678C60.5866 15.4013 60.4649 15.5766 60.3027 15.7417C60.1405 15.9069 59.9319 16.0416 59.6769 16.1459C59.4219 16.2502 59.1177 16.3023 58.7643 16.3023C58.263 16.3023 57.8067 16.1865 57.3953 15.9547C56.9868 15.72 56.6609 15.3622 56.4175 14.8812C56.177 14.3974 56.0568 13.7861 56.0568 13.0473C56.0568 12.2911 56.1799 11.6595 56.4262 11.1525C56.6724 10.6455 56.9998 10.2659 57.4083 10.0139C57.8198 9.7618 58.2703 9.63577 58.7599 9.63577C59.1337 9.63577 59.4466 9.69951 59.6986 9.82699C59.9507 9.95157 60.1535 10.108 60.307 10.2963C60.4635 10.4818 60.5837 10.6643 60.6678 10.8439H60.7373V9.72269H62.5756V16.4631C62.5756 17.031 62.4365 17.5061 62.1584 17.8886C61.8802 18.271 61.4949 18.5578 61.0024 18.7491C60.5127 18.9432 59.9492 19.0402 59.3118 19.0402ZM59.351 14.9117C59.6494 14.9117 59.9014 14.8378 60.1071 14.69C60.3157 14.5394 60.4751 14.325 60.5852 14.0468C60.6982 13.7658 60.7547 13.4297 60.7547 13.0386C60.7547 12.6475 60.6996 12.3085 60.5895 12.0217C60.4794 11.7319 60.3201 11.5074 60.1115 11.348C59.9029 11.1887 59.6494 11.109 59.351 11.109C59.0467 11.109 58.7903 11.1916 58.5817 11.3567C58.3731 11.519 58.2152 11.745 58.108 12.0347C58.0008 12.3244 57.9472 12.6591 57.9472 13.0386C57.9472 13.4239 58.0008 13.7571 58.108 14.0381C58.2181 14.3163 58.376 14.5321 58.5817 14.6857C58.7903 14.8363 59.0467 14.9117 59.351 14.9117ZM65.9002 7.4976V16.3979H64.0488V7.4976H65.9002ZM70.4253 16.5283C69.7387 16.5283 69.1476 16.3893 68.6522 16.1111C68.1597 15.8301 67.7801 15.4332 67.5136 14.9204C67.247 14.4046 67.1138 13.7948 67.1138 13.0907C67.1138 12.4041 67.247 11.8015 67.5136 11.2829C67.7801 10.7643 68.1553 10.3601 68.6392 10.0704C69.1259 9.78064 69.6967 9.63577 70.3514 9.63577C70.7918 9.63577 71.2018 9.70676 71.5813 9.84872C71.9638 9.98779 72.2969 10.1978 72.5809 10.4789C72.8677 10.7599 73.0908 11.1134 73.2501 11.5393C73.4095 11.9623 73.4892 12.4577 73.4892 13.0256V13.534H67.8526V12.3867H71.7465C71.7465 12.1202 71.6885 11.884 71.5726 11.6783C71.4567 11.4726 71.2959 11.3118 71.0902 11.1959C70.8874 11.0772 70.6513 11.0178 70.3819 11.0178C70.1008 11.0178 69.8517 11.0829 69.6344 11.2133C69.42 11.3408 69.2519 11.5132 69.1302 11.7305C69.0086 11.9449 68.9463 12.1839 68.9434 12.4476V13.5384C68.9434 13.8687 69.0042 14.154 69.1259 14.3945C69.2505 14.635 69.4258 14.8204 69.6518 14.9508C69.8777 15.0812 70.1457 15.1463 70.4557 15.1463C70.6614 15.1463 70.8498 15.1174 71.0207 15.0594C71.1916 15.0015 71.338 14.9146 71.4596 14.7987C71.5813 14.6828 71.674 14.5408 71.7378 14.3728L73.45 14.4858C73.3631 14.8972 73.1849 15.2564 72.9155 15.5635C72.649 15.8678 72.3042 16.1053 71.8812 16.2763C71.4611 16.4443 70.9758 16.5283 70.4253 16.5283ZM79.0986 16.3979H77.0821L80.1546 7.4976H82.5796L85.6478 16.3979H83.6313L81.4019 9.53147H81.3324L79.0986 16.3979ZM78.9726 12.8995H83.7356V14.3684H78.9726V12.8995ZM88.8333 16.5066C88.3263 16.5066 87.8671 16.3762 87.4557 16.1155C87.0472 15.8518 86.7227 15.465 86.4822 14.9551C86.2447 14.4423 86.1259 13.8136 86.1259 13.069C86.1259 12.3041 86.249 11.6682 86.4953 11.1612C86.7415 10.6513 87.0689 10.2703 87.4774 10.0182C87.8888 9.76325 88.3394 9.63577 88.829 9.63577C89.2027 9.63577 89.5142 9.69951 89.7634 9.82699C90.0154 9.95157 90.2182 10.108 90.3718 10.2963C90.5282 10.4818 90.647 10.6643 90.7281 10.8439H90.7846V7.4976H92.6316V16.3979H90.8064V15.3289H90.7281C90.6412 15.5143 90.5181 15.6983 90.3587 15.8808C90.2023 16.0604 89.998 16.2096 89.746 16.3284C89.4968 16.4472 89.1926 16.5066 88.8333 16.5066ZM89.42 15.0333C89.7185 15.0333 89.9705 14.9522 90.1762 14.79C90.3848 14.6248 90.5442 14.3945 90.6543 14.099C90.7673 13.8035 90.8238 13.4572 90.8238 13.0603C90.8238 12.6634 90.7687 12.3186 90.6586 12.026C90.5485 11.7334 90.3892 11.5074 90.1806 11.348C89.972 11.1887 89.7185 11.109 89.42 11.109C89.1158 11.109 88.8594 11.1916 88.6508 11.3567C88.4422 11.5219 88.2843 11.7508 88.1771 12.0434C88.0699 12.336 88.0163 12.675 88.0163 13.0603C88.0163 13.4486 88.0699 13.7919 88.1771 14.0903C88.2872 14.3858 88.4451 14.6176 88.6508 14.7856C88.8594 14.9508 89.1158 15.0333 89.42 15.0333ZM99.7078 11.6262L98.0129 11.7305C97.9839 11.5856 97.9216 11.4552 97.826 11.3394C97.7304 11.2206 97.6044 11.1264 97.4479 11.0569C97.2944 10.9844 97.1104 10.9482 96.896 10.9482C96.6092 10.9482 96.3673 11.0091 96.1703 11.1308C95.9732 11.2495 95.8747 11.4089 95.8747 11.6088C95.8747 11.7681 95.9385 11.9029 96.066 12.013C96.1934 12.1231 96.4122 12.2114 96.7222 12.2781L97.9303 12.5214C98.5793 12.6547 99.0632 12.8691 99.3819 13.1646C99.7006 13.4601 99.8599 13.8484 99.8599 14.3293C99.8599 14.7668 99.731 15.1507 99.4731 15.481C99.2182 15.8113 98.8676 16.0691 98.4214 16.2545C97.9781 16.4371 97.4668 16.5283 96.8873 16.5283C96.0037 16.5283 95.2996 16.3444 94.7752 15.9764C94.2537 15.6056 93.9481 15.1014 93.8583 14.464L95.6792 14.3684C95.7342 14.6379 95.8675 14.8436 96.079 14.9855C96.2905 15.1246 96.5614 15.1941 96.8917 15.1941C97.2162 15.1941 97.4769 15.1319 97.6739 15.0073C97.8738 14.8798 97.9752 14.7161 97.9781 14.5162C97.9752 14.3481 97.9043 14.2105 97.7652 14.1033C97.6261 13.9932 97.4117 13.9092 97.122 13.8513L95.966 13.6209C95.3141 13.4906 94.8288 13.2646 94.5101 12.943C94.1943 12.6214 94.0364 12.2114 94.0364 11.7131C94.0364 11.2843 94.1523 10.9149 94.3841 10.6049C94.6188 10.2949 94.9476 10.0559 95.3706 9.88783C95.7965 9.71979 96.2948 9.63577 96.8656 9.63577C97.7087 9.63577 98.3722 9.81395 98.856 10.1703C99.3427 10.5267 99.6267 11.012 99.7078 11.6262Z" fill="black"/>
<defs>
<clipPath id="clip0_293_958">
<rect width="26.486" height="23.7961" fill="white"/>
</clipPath>
</defs>
</svg>
