<svg width="89" height="29" viewBox="0 0 89 29" fill="none" xmlns="http://www.w3.org/2000/svg">
<g clip-path="url(#clip0_2348_3478)">
<path d="M9.54688 14.5278C9.54688 11.8805 11.6623 9.73438 14.2719 9.73438C16.8814 9.73438 18.9968 11.8805 18.9968 14.5278C18.9968 17.1752 16.8814 19.3213 14.2719 19.3213C11.6623 19.3213 9.54688 17.1752 9.54688 14.5278Z" fill="#1ABCFE"/>
<path d="M0.0976562 24.1157C0.0976562 21.4684 2.2131 19.3223 4.82264 19.3223H9.54763V24.1157C9.54763 26.7631 7.4322 28.9092 4.82264 28.9092C2.2131 28.9092 0.0976562 26.7631 0.0976562 24.1157Z" fill="#0ACF83"/>
<path d="M9.54688 0.148438V9.73534H14.2719C16.8814 9.73534 18.9968 7.58925 18.9968 4.9419C18.9968 2.29455 16.8814 0.148438 14.2719 0.148438H9.54688Z" fill="#FF7262"/>
<path d="M0.0976562 4.9419C0.0976562 7.58925 2.2131 9.73534 4.82264 9.73534H9.54763V0.148438H4.82264C2.2131 0.148438 0.0976562 2.29454 0.0976562 4.9419Z" fill="#F24E1E"/>
<path d="M0.0976562 14.5278C0.0976562 17.1752 2.2131 19.3213 4.82264 19.3213H9.54763V9.73438H4.82264C2.2131 9.73438 0.0976562 11.8805 0.0976562 14.5278Z" fill="#A259FF"/>
</g>
<path d="M36.7805 19.4238V8.5559H43.9763V10.4504H39.0783V13.04H43.4987V14.9344H39.0783V19.4238H36.7805ZM45.4794 19.4238V11.2729H47.74V19.4238H45.4794ZM46.615 10.2222C46.2789 10.2222 45.9906 10.1107 45.75 9.88786C45.513 9.66145 45.3945 9.39081 45.3945 9.07595C45.3945 8.76463 45.513 8.49753 45.75 8.27465C45.9906 8.04824 46.2789 7.93503 46.615 7.93503C46.9511 7.93503 47.2376 8.04824 47.4746 8.27465C47.7152 8.49753 47.8355 8.76463 47.8355 9.07595C47.8355 9.39081 47.7152 9.66145 47.4746 9.88786C47.2376 10.1107 46.9511 10.2222 46.615 10.2222ZM53.223 22.6502C52.4907 22.6502 51.8628 22.5494 51.3392 22.3478C50.8191 22.1497 50.4052 21.879 50.0974 21.5359C49.7897 21.1927 49.5898 20.8071 49.4978 20.379L51.5886 20.0978C51.6523 20.2605 51.7531 20.4126 51.8911 20.5541C52.029 20.6956 52.2112 20.8089 52.4376 20.8938C52.6676 20.9822 52.9471 21.0264 53.2761 21.0264C53.7678 21.0264 54.1729 20.9061 54.4913 20.6656C54.8132 20.4285 54.9742 20.0305 54.9742 19.4716V17.9804H54.8787C54.7796 18.2068 54.631 18.4209 54.4329 18.6225C54.2348 18.8242 53.9801 18.9887 53.6688 19.116C53.3575 19.2434 52.986 19.3071 52.5544 19.3071C51.9424 19.3071 51.3852 19.1656 50.8828 18.8826C50.384 18.596 49.986 18.1591 49.6888 17.5718C49.3952 16.981 49.2484 16.2346 49.2484 15.3324C49.2484 14.4091 49.3987 13.6379 49.6994 13.0188C50.0001 12.3997 50.3999 11.9362 50.8987 11.6284C51.4011 11.3206 51.9512 11.1668 52.5491 11.1668C53.0055 11.1668 53.3875 11.2446 53.6953 11.4002C54.0031 11.5524 54.2507 11.7434 54.4382 11.9734C54.6293 12.1998 54.7761 12.4226 54.8787 12.642H54.9636V11.2729H57.2083V19.5034C57.2083 20.1968 57.0385 20.777 56.6989 21.244C56.3592 21.711 55.8887 22.0612 55.2873 22.2947C54.6894 22.5317 54.0013 22.6502 53.223 22.6502ZM53.2708 17.609C53.6352 17.609 53.943 17.5188 54.1941 17.3383C54.4489 17.1544 54.6434 16.8926 54.7779 16.553C54.9158 16.2098 54.9848 15.7994 54.9848 15.3218C54.9848 14.8442 54.9176 14.4303 54.7832 14.0801C54.6487 13.7263 54.4542 13.4521 54.1994 13.2576C53.9447 13.063 53.6352 12.9657 53.2708 12.9657C52.8993 12.9657 52.5862 13.0665 52.3315 13.2682C52.0768 13.4663 51.884 13.7422 51.7531 14.096C51.6222 14.4498 51.5568 14.8584 51.5568 15.3218C51.5568 15.7923 51.6222 16.1992 51.7531 16.5423C51.8875 16.882 52.0803 17.1455 52.3315 17.333C52.5862 17.517 52.8993 17.609 53.2708 17.609ZM59.0072 19.4238V11.2729H61.1617V12.711H61.2572C61.427 12.2334 61.7101 11.8566 62.1063 11.5807C62.5025 11.3047 62.9766 11.1668 63.5285 11.1668C64.0874 11.1668 64.5632 11.3065 64.9559 11.586C65.3486 11.8619 65.6104 12.2369 65.7413 12.711H65.8262C65.9925 12.244 66.2932 11.8708 66.7283 11.5913C67.167 11.3083 67.6853 11.1668 68.2832 11.1668C69.0438 11.1668 69.6611 11.4091 70.1352 11.8938C70.6128 12.3749 70.8516 13.0577 70.8516 13.9421V19.4238H68.5963V14.3879C68.5963 13.935 68.476 13.5954 68.2354 13.369C67.9948 13.1426 67.6941 13.0294 67.3333 13.0294C66.9229 13.0294 66.6027 13.1603 66.3728 13.4221C66.1428 13.6803 66.0279 14.0217 66.0279 14.4462V19.4238H63.8362V14.3401C63.8362 13.9403 63.7213 13.6219 63.4913 13.3849C63.2649 13.1479 62.966 13.0294 62.5945 13.0294C62.3433 13.0294 62.1169 13.093 61.9152 13.2204C61.7171 13.3442 61.5597 13.5193 61.443 13.7458C61.3262 13.9686 61.2678 14.2304 61.2678 14.5311V19.4238H59.0072ZM74.9615 19.5777C74.4415 19.5777 73.978 19.4875 73.5712 19.3071C73.1644 19.1231 72.8424 18.8525 72.6054 18.4952C72.3719 18.1343 72.2552 17.685 72.2552 17.1473C72.2552 16.6945 72.3383 16.3142 72.5046 16.0064C72.6708 15.6986 72.8973 15.451 73.1838 15.2635C73.4704 15.076 73.7958 14.9344 74.1602 14.8389C74.5282 14.7434 74.9138 14.6762 75.3171 14.6373C75.7911 14.5877 76.1732 14.5418 76.4633 14.4993C76.7534 14.4533 76.9639 14.3861 77.0948 14.2976C77.2257 14.2092 77.2911 14.0783 77.2911 13.905V13.8731C77.2911 13.537 77.185 13.277 76.9727 13.093C76.764 12.9091 76.4668 12.8171 76.0812 12.8171C75.6744 12.8171 75.3507 12.9073 75.1101 13.0877C74.8695 13.2646 74.7104 13.4875 74.6325 13.7564L72.5417 13.5866C72.6479 13.0913 72.8566 12.6632 73.1679 12.3024C73.4792 11.938 73.8808 11.6585 74.3725 11.4639C74.8678 11.2658 75.4409 11.1668 76.0918 11.1668C76.5447 11.1668 76.978 11.2198 77.392 11.326C77.8094 11.4321 78.1791 11.5966 78.501 11.8195C78.8265 12.0423 79.083 12.3289 79.2705 12.6791C79.458 13.0258 79.5517 13.4415 79.5517 13.9262V19.4238H77.4079V18.2935H77.3442C77.2133 18.5482 77.0382 18.7729 76.8188 18.9675C76.5995 19.1585 76.3359 19.3089 76.0282 19.4185C75.7204 19.5247 75.3648 19.5777 74.9615 19.5777ZM75.6089 18.0176C75.9415 18.0176 76.2351 17.9521 76.4898 17.8212C76.7445 17.6868 76.9444 17.5064 77.0895 17.28C77.2345 17.0535 77.307 16.7971 77.307 16.5105V15.6455C77.2363 15.6915 77.139 15.734 77.0152 15.7729C76.8949 15.8083 76.7587 15.8419 76.6066 15.8737C76.4545 15.902 76.3023 15.9285 76.1502 15.9533C75.9981 15.9745 75.8601 15.994 75.7363 16.0117C75.471 16.0506 75.2392 16.1125 75.0411 16.1974C74.843 16.2823 74.6891 16.3973 74.5795 16.5423C74.4698 16.6839 74.415 16.8607 74.415 17.073C74.415 17.3808 74.5264 17.616 74.7493 17.7788C74.9757 17.938 75.2622 18.0176 75.6089 18.0176Z" fill="black"/>
<defs>
<clipPath id="clip0_2348_3478">
<rect width="19.2327" height="28.8491" fill="white"/>
</clipPath>
</defs>
</svg>
