<svg width="109" height="28" viewBox="0 0 109 28" fill="none" xmlns="http://www.w3.org/2000/svg">
<g clip-path="url(#clip0_756_10586)">
<path d="M1.86707 11.0215H12.5961V14.0393L8.57274 14.3542C2.05115 14.8266 0 16.5323 0 21.3608V22.3317C0 25.8744 2.47189 27.9999 6.28492 27.9999C9.30905 27.9999 11.0183 27.2914 13.1484 25.1133H13.4902V27.4226H17.7766V6.32422H1.86707V11.0215ZM12.5961 21.1771C11.255 22.5154 9.28275 23.3814 7.62606 23.3814C5.86417 23.3814 5.10157 22.7253 5.15416 21.2558C5.20676 19.2089 5.94306 18.7366 9.36164 18.4217L12.5961 18.1068C12.5961 18.133 12.5961 21.1771 12.5961 21.1771Z" fill="#FF8800"/>
<path d="M102.61 14.827L99.4277 14.5121C97.6658 14.3284 97.2188 13.8823 97.2188 12.4652C97.2188 10.8645 97.8499 10.4709 100.322 10.4709C102.531 10.4709 103.162 10.812 103.477 12.334H108.447C108.316 7.29561 106.764 6.00977 100.611 6.00977C93.8791 6.00977 92.1961 7.29561 92.1961 12.4652C92.1961 17.1888 93.432 18.4746 98.4547 18.9732L101.084 19.2356C103.425 19.4456 104.003 19.8917 104.003 21.3087C104.003 23.0407 103.293 23.4868 100.427 23.4868C97.9025 23.4868 97.2451 23.0932 97.1136 21.4399H92.1172C92.2487 26.6621 93.8528 28.0004 100.217 28.0004C107.317 28.0004 109.079 26.5833 109.079 20.8364C109 16.559 107.711 15.2994 102.61 14.827Z" fill="#054ADA"/>
<path d="M76.0231 15.2206C76.0231 8.39777 73.6827 6.00977 66.9244 6.00977C60.1662 6.00977 57.668 9.1063 57.668 16.7951C57.668 25.1925 59.9821 28.0004 67.4241 28.0004C72.7886 28.0004 75.0501 26.3734 75.8127 21.7548H70.7112C70.1326 23.1719 69.5278 23.4868 67.3452 23.4868C64.0581 23.4868 63.2166 22.5683 63.0325 18.6321H75.6549C75.8916 17.4774 76.0231 16.1129 76.0231 15.2206ZM63.0851 14.4596C63.1377 11.4943 64.321 10.3921 67.1611 10.3921C70.0011 10.3921 70.9741 11.4943 71.053 14.4596H63.0851Z" fill="#054ADA"/>
<path d="M35.2898 6.32427H27.0063V0H21.7207V27.4227H27.0063V11.0478H34.5272V27.4227H39.8129V10.6279H35.2898V6.32427Z" fill="#054ADA"/>
<path d="M78.9961 7.24274V27.4227H84.2817V10.8379H90.6193V6.32427H84.2817V5.74695C84.3343 4.51359 84.6236 4.1462 85.6492 4.1462H91.4082V0H85.2021C80.9946 0 78.9961 1.28585 78.9961 7.24274Z" fill="#054ADA"/>
<path d="M43.7051 27.4226H48.9907V11.2839H56.8272V6.32422H43.7051V27.4226Z" fill="#054ADA"/>
</g>
<defs>
<clipPath id="clip0_756_10586">
<rect width="109" height="28" fill="white"/>
</clipPath>
</defs>
</svg>
