<svg width="124" height="16" viewBox="0 0 124 16" fill="none" xmlns="http://www.w3.org/2000/svg">
<g clip-path="url(#clip0_796_35797)">
<path fill-rule="evenodd" clip-rule="evenodd" d="M12.6993 0C9.3165 0 7.2092 1.6837 6.35888 5.0511C7.63436 3.3674 9.11316 2.73833 10.8138 3.14537C11.775 3.3859 12.4775 4.08899 13.2353 4.84758C14.4738 6.12423 15.9157 7.5859 19.0582 7.5859C22.4409 7.5859 24.5667 5.9022 25.417 2.5348C24.1416 4.2185 22.6628 4.84758 20.9806 4.42203C20.0194 4.1815 19.317 3.47841 18.5591 2.71982C17.3021 1.46167 15.8602 0 12.6993 0ZM6.35888 7.5859C2.95762 7.5859 0.850316 9.2696 0 12.637C1.27547 10.9533 2.75428 10.3242 4.45491 10.7313C5.41614 10.9718 6.11858 11.6749 6.87647 12.4335C8.11497 13.7101 9.55681 15.1718 12.6993 15.1718C16.0821 15.1718 18.2078 13.4881 19.0582 10.1207C17.7827 11.8044 16.3039 12.4335 14.6032 12.0079C13.642 11.7674 12.9396 11.0643 12.1817 10.3057C10.9432 9.04758 9.50135 7.5859 6.35888 7.5859Z" fill="#38BDF8"/>
<path fill-rule="evenodd" clip-rule="evenodd" d="M38.1168 6.38452H35.8986V10.6585C35.8986 11.8057 36.6565 11.7872 38.1168 11.7132V13.4339C35.1407 13.7854 33.9577 12.9713 33.9577 10.6585V6.38452H32.3125V4.5343H33.9577V2.14752L35.8986 1.57395V4.5343H38.1168V6.38452ZM46.583 4.5528H48.5055V13.4524H46.583V12.1757C45.8991 13.1193 44.8454 13.6929 43.459 13.6929C41.019 13.6929 39.0041 11.6391 39.0041 9.01183C39.0041 6.36602 41.019 4.33077 43.459 4.33077C44.8454 4.33077 45.9175 4.90434 46.583 5.82945V4.5528ZM43.7548 11.8427C45.363 11.8427 46.583 10.64 46.583 8.99333C46.583 7.32813 45.363 6.14399 43.7548 6.14399C42.1466 6.14399 40.9266 7.34663 40.9266 8.99333C40.9266 10.64 42.1466 11.8427 43.7548 11.8427ZM51.7219 3.20214C51.0379 3.20214 50.4834 2.62857 50.4834 1.981C50.4834 1.29641 51.0379 0.75985 51.7219 0.75985C52.4058 0.75985 52.9604 1.31492 52.9604 1.981C52.9604 2.64707 52.4058 3.20214 51.7219 3.20214ZM50.7607 13.4339V4.5528H52.6831V13.4524H50.7607V13.4339ZM54.9198 13.4339V0.445312H56.8423V13.4339H54.9198ZM69.3937 4.5528H71.427L68.6173 13.4524H66.7318L64.8648 7.45765L62.9793 13.4524H61.0753L58.2656 4.5528H60.299L62.0366 10.6955L63.9221 4.5528H65.7706L67.6376 10.6955L69.3937 4.5528ZM73.8301 3.20214C73.1461 3.20214 72.5916 2.62857 72.5916 1.981C72.5916 1.29641 73.1461 0.75985 73.8301 0.75985C74.514 0.75985 75.0686 1.31492 75.0686 1.981C75.0686 2.64707 74.514 3.20214 73.8301 3.20214ZM72.8689 13.4339V4.5528H74.7913V13.4524H72.8689V13.4339ZM81.7417 4.31227C83.7381 4.31227 85.1799 5.66293 85.1799 7.97571V13.4339H83.2575V8.17923C83.2575 6.82857 82.4811 6.10699 81.2611 6.10699C79.9856 6.10699 78.9874 6.84707 78.9874 8.67879V13.4524H77.0465V4.5528H78.9874V5.68144C79.542 4.75633 80.5217 4.31227 81.7417 4.31227ZM94.3301 0.981876H96.271V13.4339H94.3301V12.1572C93.6461 13.1008 92.5925 13.6744 91.2061 13.6744C88.7845 13.6744 86.7512 11.6206 86.7512 8.99333C86.7512 6.34751 88.7661 4.31227 91.2061 4.31227C92.5925 4.31227 93.6646 4.88584 94.3301 5.81095V0.981876ZM91.5019 11.8427C93.1101 11.8427 94.3301 10.64 94.3301 8.99333C94.3301 7.32813 93.1101 6.14399 91.5019 6.14399C89.8937 6.14399 88.6736 7.34663 88.6736 8.99333C88.6736 10.64 89.8937 11.8427 91.5019 11.8427ZM102.722 13.6744C100.024 13.6744 97.9901 11.6206 97.9901 8.99333C97.9901 6.34751 100.005 4.31227 102.722 4.31227C104.478 4.31227 105.994 5.21888 106.715 6.60655L105.051 7.56866C104.663 6.73606 103.776 6.1995 102.704 6.1995C101.133 6.1995 99.9311 7.38364 99.9311 8.99333C99.9311 10.603 101.133 11.7872 102.704 11.7872C103.776 11.7872 104.645 11.2321 105.088 10.418L106.752 11.3616C105.994 12.7678 104.478 13.6744 102.722 13.6744ZM109.932 6.99509C109.932 8.62329 114.738 7.64267 114.738 10.9361C114.738 12.7123 113.185 13.6744 111.244 13.6744C109.451 13.6744 108.175 12.8788 107.602 11.5836L109.266 10.6215C109.543 11.4171 110.264 11.8982 111.244 11.8982C112.094 11.8982 112.76 11.6206 112.76 10.8991C112.76 9.30787 107.954 10.2145 107.954 7.01359C107.954 5.3484 109.395 4.29377 111.225 4.29377C112.686 4.29377 113.906 4.97835 114.534 6.14399L112.908 7.0506C112.593 6.34751 111.965 6.03298 111.225 6.03298C110.542 6.05148 109.932 6.36602 109.932 6.99509ZM118.176 6.99509C118.176 8.62329 122.982 7.64267 122.982 10.9361C122.982 12.7123 121.429 13.6744 119.488 13.6744C117.695 13.6744 116.42 12.8788 115.847 11.5836L117.51 10.6215C117.788 11.4171 118.509 11.8982 119.488 11.8982C120.339 11.8982 121.004 11.6206 121.004 10.8991C121.004 9.30787 116.198 10.2145 116.198 7.01359C116.198 5.3484 117.64 4.29377 119.47 4.29377C120.93 4.29377 122.15 4.97835 122.779 6.14399L121.152 7.0506C120.838 6.34751 120.209 6.03298 119.47 6.03298C118.786 6.05148 118.176 6.36602 118.176 6.99509Z" fill="black"/>
</g>
<defs>
<clipPath id="clip0_796_35797">
<rect width="123.015" height="15.1718" fill="white"/>
</clipPath>
</defs>
</svg>
