<svg width="122" height="17" viewBox="0 0 122 17" fill="none" xmlns="http://www.w3.org/2000/svg">
<path d="M83.935 6.37201C83.935 4.37126 82.7108 2.91431 80.3646 2.91431H72.7852V13.2874H75.2742V9.74764H78.2223L81.1093 13.2874H83.9146V13.0617L81.1093 9.68608C82.874 9.32697 83.935 8.03418 83.935 6.37201ZM80.0891 7.65455H75.2844V5.06896H80.0891C80.9766 5.06896 81.5479 5.54093 81.5479 6.36176C81.5479 7.2031 80.997 7.65455 80.0891 7.65455Z" fill="black"/>
<path d="M121.567 2.91431H119.231V6.85425H112.957V2.91431H110.438V13.2977H112.957V9.20385H119.231V13.2977H121.567V2.91431Z" fill="black"/>
<path d="M66.1228 2.91431L63.3481 11.6458H63.195L60.4101 2.91431H55.9727V13.2977H58.3495V4.77141H58.4923L61.267 13.2977H65.0924L67.8773 4.77141H68.0202V13.2977H70.4684V2.91431H66.1228Z" fill="black"/>
<path d="M39.0082 7.16248C38.1309 7.07013 36.4885 6.91623 35.6112 6.82389C34.7441 6.73155 34.2443 6.47504 34.2443 5.90047C34.2443 5.34641 34.7747 4.8847 36.917 4.8847C38.8144 4.8847 40.5588 5.29511 42.0787 6.03385V3.71503C40.5588 2.98655 38.8756 2.62744 36.7843 2.62744C33.8464 2.62744 31.8164 3.85867 31.8164 5.95177C31.8164 7.71653 33.0099 8.681 35.397 8.94776C36.2641 9.04011 37.733 9.17349 38.7634 9.25557C39.8855 9.34791 40.2119 9.69676 40.2119 10.2098C40.2119 10.9177 39.4264 11.3487 37.4372 11.3487C35.4174 11.3487 33.367 10.6817 31.9082 9.74806V12.1387C33.0813 12.9287 35.1012 13.5957 37.3556 13.5957C40.5588 13.5957 42.6194 12.3542 42.6194 10.1277C42.6398 8.44501 41.5381 7.42924 39.0082 7.16248Z" fill="black"/>
<path d="M44.2695 2.91431V13.2977H53.8892V11.1738H46.6464V9.07046H53.7668V6.96711H46.6464V5.03818H53.8892V2.91431H44.2695Z" fill="black"/>
<path d="M105.282 7.16223C104.404 7.06989 102.762 6.91599 101.885 6.82365C101.018 6.7313 100.518 6.4748 100.518 5.90022C100.518 5.34617 101.048 4.88445 103.19 4.88445C105.088 4.88445 106.832 5.29486 108.352 6.0336V3.71479C106.832 2.98631 105.149 2.6272 103.058 2.6272C100.12 2.6272 98.0898 3.85843 98.0898 5.95152C98.0898 7.71629 99.2834 8.68075 101.67 8.94752C102.538 9.03986 104.006 9.17324 105.037 9.25533C106.159 9.34767 106.485 9.69652 106.485 10.2095C106.485 10.9175 105.7 11.3484 103.711 11.3484C101.691 11.3484 99.6404 10.6815 98.1817 9.74782V12.1385C99.3548 12.9285 101.375 13.5954 103.629 13.5954C106.832 13.5954 108.893 12.3539 108.893 10.1274C108.913 8.44477 107.811 7.429 105.282 7.16223Z" fill="black"/>
<path d="M93.9103 2.91431V8.22912C93.9103 10.2401 92.6964 11.3482 90.8704 11.3482C89.0342 11.3482 87.8304 10.2607 87.8304 8.19834V2.91431H85.3516V7.96235C85.3516 11.7279 87.6876 13.5952 90.9112 13.5952C94.0021 13.5952 96.3994 11.81 96.3994 8.08548V2.91431H93.9103Z" fill="black"/>
<path d="M23.2891 8.04405C23.2891 8.5468 23.0341 8.62888 22.4016 8.62888C21.7284 8.62888 21.6059 8.51602 21.5345 8.00301C21.4019 6.69995 20.5246 5.59184 19.0557 5.46872C18.5864 5.42768 18.4742 5.25325 18.4742 4.66842C18.4742 4.12463 18.5558 3.86812 18.9741 3.86812C21.5243 3.87838 23.2891 5.94069 23.2891 8.04405ZM27.0023 8.04405C27.0023 4.13489 24.3704 0 18.2906 0H6.21248C5.96765 0 5.81463 0.123123 5.81463 0.348849C5.81463 0.471972 5.90644 0.584835 5.98805 0.646397C6.4267 0.995246 7.07957 1.38514 7.93646 1.81607C8.77295 2.23674 9.42582 2.51376 10.0787 2.78053C10.3541 2.89339 10.4561 3.01652 10.4561 3.17042C10.4561 3.38589 10.3031 3.51927 10.0073 3.51927H0.418245C0.132614 3.51927 0 3.70395 0 3.88864C0 4.04254 0.0510051 4.17593 0.183619 4.30931C0.958904 5.13013 2.20344 6.11512 4.00904 7.25401C5.59021 8.24925 7.54882 9.32658 9.10959 10.0756C9.37482 10.1987 9.45643 10.3423 9.45643 10.4962C9.44623 10.6707 9.31361 10.8143 9.00758 10.8143H4.6109C4.36607 10.8143 4.22326 10.9477 4.22326 11.1529C4.22326 11.2658 4.31507 11.4094 4.43748 11.5223C5.43719 12.4354 7.03877 13.4307 9.1708 14.3438C12.0169 15.5648 14.9038 16.2933 18.1478 16.2933C24.299 16.2933 27.0023 11.6659 27.0023 8.04405ZM18.9741 13.5948C15.9545 13.5948 13.4349 11.1221 13.4349 8.04405C13.4349 5.00701 15.9545 2.57533 18.9741 2.57533C22.0752 2.57533 24.4929 5.00701 24.4929 8.04405C24.4827 11.1221 22.065 13.5948 18.9741 13.5948Z" fill="#FF642D"/>
</svg>
