<svg width="45" height="7" viewBox="0 0 45 7" fill="none" xmlns="http://www.w3.org/2000/svg">
<g clip-path="url(#clip0_293_988)">
<mask id="mask0_293_988" style="mask-type:luminance" maskUnits="userSpaceOnUse" x="0" y="0" width="44" height="32">
<path d="M0 0.880859H43.8556V31.6066H0V0.880859Z" fill="white"/>
</mask>
<g mask="url(#mask0_293_988)">
<path fill-rule="evenodd" clip-rule="evenodd" d="M18.2423 4.23304C19.6569 2.75774 21.6266 1.84229 23.8049 1.84229C26.7003 1.84229 29.2268 3.4586 30.5718 5.85839C31.7753 5.32009 33.0788 5.04264 34.3969 5.04426C39.6196 5.04426 43.8535 9.31964 43.8535 14.5939C43.8535 19.8681 39.6196 24.1437 34.3969 24.1437C33.7592 24.1437 33.1364 24.0794 32.5339 23.9578C31.3495 26.0728 29.0915 27.5021 26.5005 27.5021C25.4525 27.5036 24.418 27.2652 23.4761 26.8053C22.2753 29.6334 19.4767 31.6163 16.2161 31.6163C12.8197 31.6163 9.92503 29.4653 8.81471 26.4486C8.31985 26.5531 7.81545 26.6057 7.30969 26.6054C3.26604 26.6054 -0.0117188 23.2898 -0.0117188 19.2C-0.0117188 16.4588 1.46075 14.0656 3.64931 12.7854C3.18562 11.7166 2.94701 10.5635 2.94837 9.39821C2.94837 4.69432 6.76283 0.880859 11.4681 0.880859C14.2306 0.880859 16.6857 2.19547 18.2423 4.23304Z" fill="#00A1E0"/>
</g>
</g>
<defs>
<clipPath id="clip0_293_988">
<rect width="44.023" height="30.8" fill="white"/>
</clipPath>
</defs>
</svg>
