<svg width="103" height="31" viewBox="0 0 103 31" fill="none" xmlns="http://www.w3.org/2000/svg">
<g clip-path="url(#clip0_293_921)">
<path d="M21.5506 23.9871C21.5528 24.4072 21.4657 24.823 21.295 25.2069C21.1243 25.5909 20.8739 25.9341 20.5606 26.214C20.2472 26.4938 19.8779 26.7038 19.4772 26.8302C19.0764 26.9565 18.6535 26.9962 18.2362 26.9467C16.7174 26.7219 15.6045 25.4003 15.6415 23.8654V6.21919C15.6048 4.6827 16.7205 3.36034 18.2413 3.13804C18.6581 3.08923 19.0806 3.12947 19.4807 3.25612C19.8808 3.38276 20.2495 3.59292 20.5623 3.87268C20.8751 4.15245 21.125 4.49545 21.2954 4.87899C21.4658 5.26253 21.5528 5.67788 21.5506 6.09756V23.9871Z" fill="#F9AB00"/>
<path d="M2.95455 21.0633C4.58633 21.0633 5.9091 22.3862 5.9091 24.0179C5.9091 25.6496 4.58633 26.9724 2.95455 26.9724C1.32278 26.9724 0 25.6496 0 24.018C0 22.3863 1.32278 21.0633 2.95455 21.0633ZM10.7286 12.1084C9.08915 12.1983 7.81705 13.5735 7.85518 15.2151V23.1513C7.85518 25.3051 8.80288 26.6127 10.1914 26.8914C10.6219 26.9786 11.0664 26.969 11.4927 26.8631C11.919 26.7573 12.3164 26.5579 12.656 26.2793C12.9957 26.0008 13.2691 25.6502 13.4564 25.2529C13.6437 24.8556 13.7402 24.4216 13.7389 23.9823V15.0783C13.7397 14.6847 13.662 14.2948 13.5105 13.9315C13.359 13.5682 13.1366 13.2387 12.8564 12.9623C12.5762 12.6858 12.2437 12.468 11.8784 12.3214C11.513 12.1748 11.1222 12.1023 10.7286 12.1084Z" fill="#E37400"/>
</g>
<path d="M41.6083 6.22976C41.5543 6.04223 41.4785 5.87654 41.3809 5.73268C41.2833 5.58625 41.1638 5.46294 41.0225 5.36275C40.8838 5.25999 40.7245 5.18164 40.5447 5.12769C40.3675 5.07375 40.1709 5.04677 39.9552 5.04677C39.5518 5.04677 39.1973 5.14696 38.8916 5.34734C38.5885 5.54771 38.3521 5.83929 38.1826 6.22206C38.013 6.60226 37.9283 7.06723 37.9283 7.61698C37.9283 8.16673 38.0118 8.63428 38.1787 9.01961C38.3457 9.40495 38.5821 9.6991 38.8878 9.90204C39.1935 10.1024 39.5544 10.2026 39.9706 10.2026C40.3482 10.2026 40.6706 10.1358 40.9378 10.0022C41.2075 9.86608 41.413 9.67469 41.5543 9.42807C41.6982 9.18146 41.7701 8.88988 41.7701 8.55335L42.1092 8.60345H40.0746V7.34724H43.377V8.34142C43.377 9.03503 43.2305 9.63102 42.9377 10.1294C42.6448 10.6252 42.2415 11.008 41.7277 11.2777C41.2139 11.5449 40.6256 11.6785 39.9629 11.6785C39.223 11.6785 38.5731 11.5153 38.013 11.1891C37.453 10.8602 37.0163 10.394 36.7029 9.79029C36.3921 9.18403 36.2366 8.46473 36.2366 7.6324C36.2366 6.99273 36.3291 6.42243 36.5141 5.92149C36.7016 5.41798 36.9636 4.99154 37.3002 4.64217C37.6367 4.29279 38.0285 4.02691 38.4755 3.84452C38.9224 3.66212 39.4067 3.57093 39.9282 3.57093C40.3752 3.57093 40.7913 3.63643 41.1767 3.76745C41.562 3.8959 41.9037 4.07829 42.2017 4.31463C42.5022 4.55097 42.7476 4.83227 42.9377 5.15852C43.1278 5.48221 43.2498 5.83929 43.3037 6.22976H41.6083ZM47.2737 11.6862C46.6751 11.6862 46.1575 11.559 45.7208 11.3047C45.2866 11.0478 44.9514 10.6907 44.715 10.2334C44.4787 9.77359 44.3605 9.24054 44.3605 8.63428C44.3605 8.02287 44.4787 7.48854 44.715 7.03127C44.9514 6.57143 45.2866 6.21435 45.7208 5.96003C46.1575 5.70313 46.6751 5.57469 47.2737 5.57469C47.8723 5.57469 48.3886 5.70313 48.8228 5.96003C49.2595 6.21435 49.596 6.57143 49.8323 7.03127C50.0687 7.48854 50.1869 8.02287 50.1869 8.63428C50.1869 9.24054 50.0687 9.77359 49.8323 10.2334C49.596 10.6907 49.2595 11.0478 48.8228 11.3047C48.3886 11.559 47.8723 11.6862 47.2737 11.6862ZM47.2814 10.4145C47.5537 10.4145 47.7811 10.3375 47.9635 10.1833C48.1458 10.0266 48.2833 9.81341 48.3758 9.54368C48.4708 9.27394 48.5183 8.96695 48.5183 8.62272C48.5183 8.27848 48.4708 7.97149 48.3758 7.70176C48.2833 7.43202 48.1458 7.2188 47.9635 7.06209C47.7811 6.90539 47.5537 6.82704 47.2814 6.82704C47.0065 6.82704 46.7753 6.90539 46.5878 7.06209C46.4028 7.2188 46.2628 7.43202 46.1678 7.70176C46.0753 7.97149 46.0291 8.27848 46.0291 8.62272C46.0291 8.96695 46.0753 9.27394 46.1678 9.54368C46.2628 9.81341 46.4028 10.0266 46.5878 10.1833C46.7753 10.3375 47.0065 10.4145 47.2814 10.4145ZM53.9285 11.6862C53.3299 11.6862 52.8123 11.559 52.3756 11.3047C51.9414 11.0478 51.6062 10.6907 51.3698 10.2334C51.1335 9.77359 51.0153 9.24054 51.0153 8.63428C51.0153 8.02287 51.1335 7.48854 51.3698 7.03127C51.6062 6.57143 51.9414 6.21435 52.3756 5.96003C52.8123 5.70313 53.3299 5.57469 53.9285 5.57469C54.5271 5.57469 55.0434 5.70313 55.4776 5.96003C55.9143 6.21435 56.2508 6.57143 56.4871 7.03127C56.7235 7.48854 56.8417 8.02287 56.8417 8.63428C56.8417 9.24054 56.7235 9.77359 56.4871 10.2334C56.2508 10.6907 55.9143 11.0478 55.4776 11.3047C55.0434 11.559 54.5271 11.6862 53.9285 11.6862ZM53.9362 10.4145C54.2085 10.4145 54.4359 10.3375 54.6183 10.1833C54.8006 10.0266 54.9381 9.81341 55.0306 9.54368C55.1256 9.27394 55.1731 8.96695 55.1731 8.62272C55.1731 8.27848 55.1256 7.97149 55.0306 7.70176C54.9381 7.43202 54.8006 7.2188 54.6183 7.06209C54.4359 6.90539 54.2085 6.82704 53.9362 6.82704C53.6613 6.82704 53.4301 6.90539 53.2426 7.06209C53.0576 7.2188 52.9176 7.43202 52.8226 7.70176C52.7301 7.97149 52.6839 8.27848 52.6839 8.62272C52.6839 8.96695 52.7301 9.27394 52.8226 9.54368C52.9176 9.81341 53.0576 10.0266 53.2426 10.1833C53.4301 10.3375 53.6613 10.4145 53.9362 10.4145ZM60.5756 13.9134C60.0438 13.9134 59.5878 13.8402 59.2076 13.6938C58.83 13.5499 58.5294 13.3534 58.3059 13.1042C58.0824 12.855 57.9373 12.575 57.8705 12.2642L59.3887 12.0599C59.435 12.1781 59.5082 12.2886 59.6084 12.3913C59.7086 12.4941 59.8409 12.5763 60.0053 12.6379C60.1723 12.7022 60.3752 12.7343 60.6141 12.7343C60.9712 12.7343 61.2653 12.6469 61.4965 12.4722C61.7303 12.3001 61.8472 12.0111 61.8472 11.6052V10.5224H61.7778C61.7059 10.6868 61.598 10.8423 61.4542 10.9887C61.3103 11.1351 61.1253 11.2546 60.8993 11.3471C60.6732 11.4395 60.4035 11.4858 60.0901 11.4858C59.6456 11.4858 59.241 11.383 58.8762 11.1775C58.514 10.9694 58.225 10.6522 58.0092 10.2257C57.796 9.79671 57.6894 9.25467 57.6894 8.5996C57.6894 7.92911 57.7986 7.36908 58.0169 6.91952C58.2353 6.46996 58.5256 6.13343 58.8878 5.90993C59.2526 5.68644 59.6521 5.57469 60.0862 5.57469C60.4176 5.57469 60.695 5.6312 60.9185 5.74424C61.142 5.8547 61.3219 5.99342 61.458 6.1604C61.5967 6.32481 61.7033 6.48666 61.7778 6.64593H61.8395V5.65175H63.4695V11.6284C63.4695 12.1319 63.3462 12.5532 63.0996 12.8923C62.8529 13.2314 62.5113 13.4857 62.0746 13.6552C61.6404 13.8274 61.1407 13.9134 60.5756 13.9134ZM60.6103 10.2527C60.8749 10.2527 61.0984 10.1872 61.2808 10.0562C61.4657 9.92259 61.607 9.73249 61.7046 9.48587C61.8048 9.23669 61.8549 8.93869 61.8549 8.59189C61.8549 8.24508 61.8061 7.94452 61.7085 7.6902C61.6109 7.4333 61.4696 7.23421 61.2846 7.09292C61.0996 6.95163 60.8749 6.88099 60.6103 6.88099C60.3405 6.88099 60.1132 6.9542 59.9282 7.10063C59.7433 7.24449 59.6032 7.44486 59.5082 7.70176C59.4131 7.95865 59.3656 8.25536 59.3656 8.59189C59.3656 8.93356 59.4131 9.22898 59.5082 9.47817C59.6058 9.72478 59.7458 9.91617 59.9282 10.0523C60.1132 10.1859 60.3405 10.2527 60.6103 10.2527ZM66.4173 3.67882V11.5706H64.7758V3.67882H66.4173ZM70.4297 11.6862C69.8208 11.6862 69.2968 11.5628 68.8575 11.3162C68.4208 11.067 68.0842 10.7151 67.8479 10.2604C67.6115 9.80314 67.4934 9.26238 67.4934 8.63813C67.4934 8.02929 67.6115 7.49496 67.8479 7.03512C68.0842 6.57528 68.4169 6.21692 68.8459 5.96003C69.2775 5.70313 69.7836 5.57469 70.3642 5.57469C70.7546 5.57469 71.1181 5.63763 71.4547 5.7635C71.7938 5.88681 72.0892 6.07306 72.3409 6.32224C72.5953 6.57143 72.7931 6.88484 72.9344 7.26247C73.0757 7.63753 73.1463 8.07682 73.1463 8.58033V9.03117H68.1485V8.01388H71.6011C71.6011 7.77754 71.5497 7.56817 71.447 7.38578C71.3442 7.20339 71.2016 7.06081 71.0192 6.95805C70.8394 6.85273 70.63 6.80006 70.3911 6.80006C70.1419 6.80006 69.921 6.85786 69.7283 6.97347C69.5382 7.0865 69.3892 7.23935 69.2814 7.43202C69.1735 7.62212 69.1182 7.83406 69.1157 8.06783V9.03503C69.1157 9.32789 69.1696 9.58092 69.2775 9.79415C69.388 10.0074 69.5434 10.1718 69.7438 10.2874C69.9441 10.403 70.1818 10.4608 70.4566 10.4608C70.639 10.4608 70.806 10.4351 70.9576 10.3837C71.1091 10.3323 71.2389 10.2553 71.3468 10.1525C71.4547 10.0498 71.5369 9.92388 71.5934 9.77488L73.1116 9.87507C73.0345 10.2399 72.8766 10.5584 72.6377 10.8307C72.4013 11.1004 72.0956 11.3111 71.7205 11.4627C71.3481 11.6117 70.9178 11.6862 70.4297 11.6862ZM37.7356 26.5706H35.9476L38.672 18.6788H40.8222L43.5427 26.5706H41.7547L39.7779 20.4822H39.7162L37.7356 26.5706ZM37.6239 23.4686H41.8472V24.771H37.6239V23.4686ZM46.1032 23.1487V26.5706H44.4617V20.6518H46.0262V21.696H46.0955C46.2265 21.3518 46.4462 21.0795 46.7545 20.8791C47.0627 20.6762 47.4365 20.5747 47.8758 20.5747C48.2868 20.5747 48.6452 20.6646 48.9509 20.8444C49.2566 21.0242 49.4942 21.2811 49.6638 21.6151C49.8333 21.9465 49.9181 22.3421 49.9181 22.8019V26.5706H48.2765V23.0948C48.2791 22.7326 48.1866 22.45 47.9991 22.2471C47.8116 22.0415 47.5534 21.9388 47.2246 21.9388C47.0036 21.9388 46.8084 21.9863 46.6389 22.0814C46.4719 22.1764 46.3409 22.3151 46.2458 22.4975C46.1533 22.6774 46.1058 22.8944 46.1032 23.1487ZM52.8996 26.6823C52.522 26.6823 52.1855 26.6168 51.8901 26.4858C51.5946 26.3522 51.3609 26.1557 51.1887 25.8962C51.0192 25.6342 50.9344 25.3079 50.9344 24.9175C50.9344 24.5886 50.9948 24.3125 51.1155 24.089C51.2363 23.8655 51.4007 23.6857 51.6088 23.5495C51.8168 23.4133 52.0532 23.3106 52.3178 23.2412C52.5849 23.1719 52.865 23.1231 53.1578 23.0948C53.5021 23.0588 53.7795 23.0254 53.9901 22.9946C54.2008 22.9612 54.3537 22.9124 54.4487 22.8482C54.5438 22.784 54.5913 22.6889 54.5913 22.563V22.5399C54.5913 22.2959 54.5142 22.1071 54.3601 21.9735C54.2085 21.8399 53.9927 21.7731 53.7127 21.7731C53.4173 21.7731 53.1822 21.8386 53.0075 21.9696C52.8328 22.0981 52.7172 22.2599 52.6607 22.4551L51.1425 22.3318C51.2196 21.9722 51.3711 21.6613 51.5972 21.3993C51.8233 21.1347 52.1148 20.9318 52.4719 20.7905C52.8316 20.6466 53.2477 20.5747 53.7204 20.5747C54.0492 20.5747 54.3639 20.6132 54.6645 20.6903C54.9676 20.7674 55.2361 20.8868 55.4698 21.0487C55.7062 21.2105 55.8924 21.4186 56.0286 21.6729C56.1647 21.9247 56.2328 22.2265 56.2328 22.5784V26.5706H54.6761V25.7498H54.6298C54.5348 25.9347 54.4076 26.0979 54.2483 26.2392C54.0891 26.3779 53.8977 26.4871 53.6742 26.5667C53.4507 26.6438 53.1925 26.6823 52.8996 26.6823ZM53.3698 25.5494C53.6112 25.5494 53.8245 25.5019 54.0094 25.4068C54.1944 25.3092 54.3395 25.1782 54.4448 25.0138C54.5502 24.8494 54.6028 24.6631 54.6028 24.455V23.8269C54.5515 23.8603 54.4808 23.8912 54.3909 23.9194C54.3036 23.9451 54.2047 23.9695 54.0942 23.9926C53.9837 24.0132 53.8733 24.0325 53.7628 24.0504C53.6523 24.0659 53.5521 24.08 53.4622 24.0928C53.2696 24.1211 53.1013 24.166 52.9574 24.2277C52.8136 24.2894 52.7018 24.3728 52.6222 24.4782C52.5426 24.5809 52.5027 24.7094 52.5027 24.8635C52.5027 25.087 52.5837 25.2578 52.7455 25.376C52.9099 25.4916 53.118 25.5494 53.3698 25.5494ZM59.1479 18.6788V26.5706H57.5064V18.6788H59.1479ZM61.4763 28.7901C61.2682 28.7901 61.073 28.7734 60.8906 28.74C60.7108 28.7092 60.5618 28.6694 60.4436 28.6206L60.8135 27.3952C61.0062 27.4543 61.1796 27.4864 61.3337 27.4915C61.4904 27.4967 61.6253 27.4607 61.7383 27.3836C61.8539 27.3066 61.9477 27.1755 62.0196 26.9906L62.116 26.7401L59.9928 20.6518H61.7191L62.9445 24.9984H63.0061L64.243 20.6518H65.9809L63.6805 27.2102C63.57 27.5288 63.4197 27.8062 63.2296 28.0426C63.0421 28.2815 62.8044 28.4651 62.5167 28.5936C62.229 28.7246 61.8822 28.7901 61.4763 28.7901ZM69.9692 20.6518V21.8848H66.4048V20.6518H69.9692ZM67.214 19.2337H68.8555V24.7518C68.8555 24.9033 68.8787 25.0215 68.9249 25.1063C68.9712 25.1885 69.0354 25.2463 69.1176 25.2797C69.2024 25.3131 69.3 25.3298 69.4104 25.3298C69.4875 25.3298 69.5646 25.3233 69.6416 25.3105C69.7187 25.2951 69.7778 25.2835 69.8189 25.2758L70.0771 26.4973C69.9949 26.523 69.8793 26.5526 69.7303 26.586C69.5813 26.6219 69.4002 26.6438 69.1869 26.6515C68.7913 26.6669 68.4445 26.6142 68.1465 26.4935C67.8511 26.3727 67.6212 26.1852 67.4568 25.9309C67.2924 25.6766 67.2114 25.3555 67.214 24.9675V19.2337ZM71.0385 26.5706V20.6518H72.68V26.5706H71.0385ZM71.8631 19.8888C71.6191 19.8888 71.4097 19.8079 71.235 19.646C71.0629 19.4816 70.9768 19.2851 70.9768 19.0565C70.9768 18.8304 71.0629 18.6364 71.235 18.4746C71.4097 18.3102 71.6191 18.228 71.8631 18.228C72.1072 18.228 72.3153 18.3102 72.4874 18.4746C72.6621 18.6364 72.7494 18.8304 72.7494 19.0565C72.7494 19.2851 72.6621 19.4816 72.4874 19.646C72.3153 19.8079 72.1072 19.8888 71.8631 19.8888ZM76.6693 26.6862C76.063 26.6862 75.5415 26.5577 75.1048 26.3008C74.6706 26.0414 74.3367 25.6817 74.1029 25.2219C73.8717 24.762 73.7561 24.2328 73.7561 23.6343C73.7561 23.028 73.873 22.4962 74.1068 22.039C74.3431 21.5791 74.6783 21.2208 75.1125 20.9639C75.5466 20.7044 76.063 20.5747 76.6615 20.5747C77.1779 20.5747 77.63 20.6685 78.0179 20.856C78.4058 21.0435 78.7128 21.3068 78.9389 21.6459C79.165 21.985 79.2896 22.3832 79.3127 22.8405H77.7636C77.7199 22.5451 77.6043 22.3074 77.4168 22.1276C77.2318 21.9452 76.9891 21.854 76.6885 21.854C76.4342 21.854 76.212 21.9234 76.0219 22.0621C75.8344 22.1982 75.6879 22.3973 75.5826 22.6594C75.4773 22.9214 75.4246 23.2387 75.4246 23.6112C75.4246 23.9888 75.476 24.3099 75.5787 24.5745C75.6841 24.8391 75.8318 25.0408 76.0219 25.1795C76.212 25.3182 76.4342 25.3876 76.6885 25.3876C76.8761 25.3876 77.0443 25.349 77.1933 25.272C77.3449 25.1949 77.4695 25.0831 77.5671 24.9367C77.6673 24.7877 77.7328 24.6092 77.7636 24.4011H79.3127C79.287 24.8532 79.1637 25.2514 78.9428 25.5956C78.7244 25.9373 78.4225 26.2045 78.0372 26.3972C77.6519 26.5898 77.1959 26.6862 76.6693 26.6862ZM85.2883 22.3395L83.7855 22.432C83.7598 22.3036 83.7046 22.188 83.6198 22.0852C83.535 21.9799 83.4233 21.8964 83.2846 21.8347C83.1484 21.7705 82.9853 21.7384 82.7952 21.7384C82.5409 21.7384 82.3263 21.7924 82.1517 21.9003C81.977 22.0056 81.8896 22.1469 81.8896 22.3241C81.8896 22.4654 81.9461 22.5849 82.0592 22.6825C82.1722 22.7801 82.3662 22.8585 82.641 22.9175L83.7123 23.1333C84.2877 23.2515 84.7167 23.4416 84.9993 23.7036C85.2819 23.9657 85.4232 24.3099 85.4232 24.7363C85.4232 25.1243 85.3089 25.4646 85.0802 25.7575C84.8542 26.0503 84.5433 26.279 84.1477 26.4434C83.7547 26.6052 83.3013 26.6862 82.7875 26.6862C82.0039 26.6862 81.3797 26.523 80.9147 26.1968C80.4523 25.868 80.1813 25.421 80.1017 24.8558L81.7162 24.771C81.765 25.0099 81.8832 25.1923 82.0707 25.3182C82.2583 25.4415 82.4985 25.5032 82.7913 25.5032C83.079 25.5032 83.3102 25.4479 83.4849 25.3375C83.6622 25.2244 83.7521 25.0793 83.7547 24.902C83.7521 24.753 83.6892 24.631 83.5659 24.536C83.4425 24.4383 83.2524 24.3639 82.9956 24.3125L81.9706 24.1082C81.3925 23.9926 80.9622 23.7923 80.6797 23.5071C80.3997 23.222 80.2596 22.8585 80.2596 22.4166C80.2596 22.0364 80.3624 21.7089 80.5679 21.434C80.776 21.1591 81.0676 20.9472 81.4426 20.7982C81.8203 20.6492 82.2621 20.5747 82.7682 20.5747C83.5158 20.5747 84.104 20.7327 84.5331 21.0487C84.9646 21.3646 85.2164 21.7949 85.2883 22.3395ZM88.8334 25.1833V23.8693L92.1281 18.6788H93.261V20.4976H92.5905L90.5135 23.7846V23.8462H95.1954V25.1833H88.8334ZM92.6213 26.5706V24.7826L92.6521 24.2007V18.6788H94.2166V26.5706H92.6213Z" fill="black"/>
<defs>
<clipPath id="clip0_293_921">
<rect width="21.5482" height="23.9051" fill="white" transform="translate(0 3.11792)"/>
</clipPath>
</defs>
</svg>
