<svg width="137" height="28" viewBox="0 0 137 28" fill="none" xmlns="http://www.w3.org/2000/svg">
<g clip-path="url(#clip0_796_34827)">
<path d="M91.0742 0.0117188H114.937V4.44514H105.471V27.7688H100.738V4.44514H91.0742V0.0117188Z" fill="black"/>
<path d="M51.8278 0.0117188V4.44514H32.7V11.5772H48.0825V16.0106H32.7V23.3354H51.8278V27.7688H27.9668V4.44514H27.9648V0.0117188H51.8278Z" fill="black"/>
<path d="M63.7411 0.0234375H57.5469L79.7332 27.7805H85.9455L74.8509 13.9115L85.9278 0.0446144L79.7332 0.0542499L71.7497 10.0347L63.7411 0.0234375Z" fill="black"/>
<path d="M70.0994 19.8509L66.9975 15.9688L57.5312 27.8021H63.7432L70.0994 19.8509Z" fill="black"/>
<path fill-rule="evenodd" clip-rule="evenodd" d="M28.1326 27.7687L5.91642 0H0V27.7571H4.73314V5.93306L22.1866 27.7687H28.1326Z" fill="black"/>
<path d="M116 27.5998C115.654 27.5998 115.359 27.4789 115.112 27.2372C114.865 26.9954 114.743 26.7028 114.746 26.3561C114.743 26.0189 114.865 25.7294 115.112 25.4876C115.359 25.2459 115.654 25.125 116 25.125C116.334 25.125 116.626 25.2459 116.872 25.4876C117.123 25.7294 117.248 26.0189 117.251 26.3561C117.248 26.5851 117.19 26.795 117.074 26.9827C116.956 27.1736 116.805 27.3231 116.616 27.4312C116.43 27.5426 116.225 27.5998 116 27.5998Z" fill="black"/>
<path d="M124.079 15.9062H126.176V24.04C126.173 24.7875 126.013 25.4269 125.699 25.9645C125.381 26.5021 124.942 26.9124 124.377 27.2019C123.816 27.4881 123.159 27.6345 122.411 27.6345C121.728 27.6345 121.116 27.5104 120.571 27.2687C120.025 27.0269 119.592 26.6643 119.275 26.1872C118.954 25.71 118.797 25.1152 118.797 24.4026H120.898C120.901 24.7144 120.971 24.9847 121.106 25.2106C121.241 25.4364 121.427 25.6082 121.664 25.7291C121.904 25.85 122.18 25.9104 122.491 25.9104C122.828 25.9104 123.117 25.8404 123.351 25.6973C123.585 25.5573 123.765 25.3474 123.89 25.0674C124.012 24.7907 124.076 24.4472 124.079 24.04V15.9062Z" fill="black"/>
<path d="M134.808 19.0868C134.757 18.5938 134.532 18.2089 134.141 17.9353C133.746 17.6586 133.237 17.5218 132.611 17.5218C132.172 17.5218 131.794 17.5886 131.479 17.719C131.165 17.8526 130.921 18.0307 130.754 18.2566C130.588 18.4825 130.504 18.7401 130.498 19.0296C130.498 19.2714 130.555 19.4813 130.668 19.6562C130.78 19.8344 130.931 19.9839 131.126 20.1048C131.319 20.2288 131.534 20.3306 131.768 20.4133C132.005 20.496 132.242 20.566 132.48 20.6233L133.573 20.8936C134.013 20.9954 134.439 21.1322 134.847 21.3072C135.254 21.4789 135.623 21.6984 135.946 21.9624C136.27 22.2265 136.527 22.5446 136.716 22.9167C136.905 23.2889 137.002 23.7247 137.002 24.2273C137.002 24.9048 136.829 25.4997 136.479 26.015C136.129 26.5271 135.626 26.9279 134.965 27.2174C134.308 27.5037 133.512 27.65 132.576 27.65C131.672 27.65 130.883 27.5101 130.219 27.2301C129.552 26.9534 129.032 26.5462 128.657 26.0118C128.282 25.4774 128.08 24.8253 128.051 24.0587H130.129C130.158 24.4595 130.286 24.7935 130.504 25.0639C130.725 25.3311 131.014 25.5283 131.367 25.6619C131.723 25.7923 132.12 25.8591 132.56 25.8591C133.019 25.8591 133.423 25.7891 133.772 25.6523C134.118 25.5156 134.391 25.3247 134.587 25.0766C134.786 24.8317 134.885 24.5422 134.888 24.2114C134.885 23.9092 134.795 23.6579 134.622 23.4606C134.446 23.2635 134.202 23.098 133.891 22.9644C133.577 22.8309 133.211 22.71 132.794 22.605L131.466 22.2678C130.507 22.0229 129.747 21.6507 129.192 21.1513C128.635 20.6519 128.359 19.9903 128.359 19.16C128.359 18.4793 128.545 17.8813 128.92 17.3691C129.292 16.857 129.802 16.4594 130.447 16.1763C131.094 15.89 131.826 15.75 132.64 15.75C133.467 15.75 134.192 15.89 134.818 16.1763C135.443 16.4594 135.934 16.8538 136.29 17.3564C136.646 17.859 136.832 18.4347 136.841 19.0868H134.808Z" fill="black"/>
</g>
<defs>
<clipPath id="clip0_796_34827">
<rect width="137" height="28" fill="white"/>
</clipPath>
</defs>
</svg>
