<svg width="1440" height="1243" viewBox="0 0 1440 1243" fill="none" xmlns="http://www.w3.org/2000/svg">
<g opacity="0.5">
<path opacity="0.2" d="M1007.81 -215L-489 513.783" stroke="url(#paint0_linear_70_2615)"/>
<path opacity="0.2" d="M1095.85 -172.133L-400.953 556.65" stroke="url(#paint1_linear_70_2615)"/>
<path opacity="0.2" d="M1183.91 -129.258L-312.902 599.525" stroke="url(#paint2_linear_70_2615)"/>
<path opacity="0.2" d="M1271.95 -86.3906L-224.855 642.392" stroke="url(#paint3_linear_70_2615)"/>
<path opacity="0.2" d="M1360 -43.5234L-136.809 685.259" stroke="url(#paint4_linear_70_2615)"/>
<path opacity="0.2" d="M1448.05 -0.648438L-48.7617 728.134" stroke="url(#paint5_linear_70_2615)"/>
<path opacity="0.2" d="M1536.09 42.2188L39.2851 771.001" stroke="url(#paint6_linear_70_2615)"/>
<path opacity="0.2" d="M1624.1 85.0859L127.292 813.869" stroke="url(#paint7_linear_70_2615)"/>
<path opacity="0.2" d="M1712.15 127.953L215.339 856.736" stroke="url(#paint8_linear_70_2615)"/>
<path opacity="0.2" d="M1800.19 170.828L303.386 899.611" stroke="url(#paint9_linear_70_2615)"/>
<path opacity="0.2" d="M1888.24 213.695L391.433 942.478" stroke="url(#paint10_linear_70_2615)"/>
<path opacity="0.2" d="M1976.29 256.562L479.479 985.345" stroke="url(#paint11_linear_70_2615)"/>
<path opacity="0.2" d="M2064.33 299.438L567.527 1028.22" stroke="url(#paint12_linear_70_2615)"/>
<path opacity="0.2" d="M2152.38 342.305L655.577 1071.09" stroke="url(#paint13_linear_70_2615)"/>
<path opacity="0.2" d="M2240.43 385.172L743.624 1113.95" stroke="url(#paint14_linear_70_2615)"/>
<path opacity="0.2" d="M2328.48 428.047L831.671 1156.83" stroke="url(#paint15_linear_70_2615)"/>
<path opacity="0.2" d="M2416.53 470.914L919.718 1199.7" stroke="url(#paint16_linear_70_2615)"/>
<path opacity="0.2" d="M2504.57 513.781L1007.76 1242.56" stroke="url(#paint17_linear_70_2615)"/>
<path opacity="0.2" d="M831.714 -129.258L2328.52 599.525" stroke="url(#paint18_linear_70_2615)"/>
<path opacity="0.2" d="M743.667 -86.3906L2240.47 642.392" stroke="url(#paint19_linear_70_2615)"/>
<path opacity="0.2" d="M655.62 -43.5234L2152.43 685.259" stroke="url(#paint20_linear_70_2615)"/>
<path opacity="0.2" d="M567.569 -0.648438L2064.38 728.134" stroke="url(#paint21_linear_70_2615)"/>
<path opacity="0.2" d="M479.522 42.2188L1976.33 771.001" stroke="url(#paint22_linear_70_2615)"/>
<path opacity="0.2" d="M391.475 85.0859L1888.28 813.869" stroke="url(#paint23_linear_70_2615)"/>
<path opacity="0.2" d="M303.428 127.953L1800.24 856.736" stroke="url(#paint24_linear_70_2615)"/>
<path opacity="0.2" d="M215.397 170.828L1712.2 899.611" stroke="url(#paint25_linear_70_2615)"/>
<path opacity="0.2" d="M127.35 213.695L1624.16 942.478" stroke="url(#paint26_linear_70_2615)"/>
<path opacity="0.2" d="M39.3035 256.562L1536.11 985.345" stroke="url(#paint27_linear_70_2615)"/>
<path opacity="0.2" d="M-48.7434 299.438L1448.06 1028.22" stroke="url(#paint28_linear_70_2615)"/>
<path opacity="0.2" d="M-136.79 342.305L1360.02 1071.09" stroke="url(#paint29_linear_70_2615)"/>
<path opacity="0.2" d="M-224.837 385.172L1271.97 1113.95" stroke="url(#paint30_linear_70_2615)"/>
<path opacity="0.2" d="M-312.873 428.047L1183.93 1156.83" stroke="url(#paint31_linear_70_2615)"/>
</g>
<defs>
<linearGradient id="paint0_linear_70_2615" x1="1008.26" y1="-214.781" x2="434.579" y2="963.465" gradientUnits="userSpaceOnUse">
<stop stop-color="#19494E"/>
<stop offset="1" stop-color="#0E59AE"/>
</linearGradient>
<linearGradient id="paint1_linear_70_2615" x1="1096.3" y1="-171.914" x2="522.626" y2="1006.33" gradientUnits="userSpaceOnUse">
<stop stop-color="#19494E"/>
<stop offset="1" stop-color="#0E59AE"/>
</linearGradient>
<linearGradient id="paint2_linear_70_2615" x1="1184.35" y1="-129.039" x2="610.676" y2="1049.21" gradientUnits="userSpaceOnUse">
<stop stop-color="#19494E"/>
<stop offset="1" stop-color="#0E59AE"/>
</linearGradient>
<linearGradient id="paint3_linear_70_2615" x1="1272.4" y1="-86.1717" x2="698.723" y2="1092.07" gradientUnits="userSpaceOnUse">
<stop stop-color="#19494E"/>
<stop offset="1" stop-color="#0E59AE"/>
</linearGradient>
<linearGradient id="paint4_linear_70_2615" x1="1360.45" y1="-43.3046" x2="786.77" y2="1134.94" gradientUnits="userSpaceOnUse">
<stop stop-color="#19494E"/>
<stop offset="1" stop-color="#0E59AE"/>
</linearGradient>
<linearGradient id="paint5_linear_70_2615" x1="1448.5" y1="-0.429557" x2="874.817" y2="1177.82" gradientUnits="userSpaceOnUse">
<stop stop-color="#19494E"/>
<stop offset="1" stop-color="#0E59AE"/>
</linearGradient>
<linearGradient id="paint6_linear_70_2615" x1="1536.54" y1="42.4376" x2="962.864" y2="1220.68" gradientUnits="userSpaceOnUse">
<stop stop-color="#19494E"/>
<stop offset="1" stop-color="#0E59AE"/>
</linearGradient>
<linearGradient id="paint7_linear_70_2615" x1="1624.55" y1="85.3048" x2="1050.87" y2="1263.55" gradientUnits="userSpaceOnUse">
<stop stop-color="#19494E"/>
<stop offset="1" stop-color="#0E59AE"/>
</linearGradient>
<linearGradient id="paint8_linear_70_2615" x1="1712.6" y1="128.172" x2="1138.92" y2="1306.42" gradientUnits="userSpaceOnUse">
<stop stop-color="#19494E"/>
<stop offset="1" stop-color="#0E59AE"/>
</linearGradient>
<linearGradient id="paint9_linear_70_2615" x1="1800.64" y1="171.047" x2="1226.96" y2="1349.29" gradientUnits="userSpaceOnUse">
<stop stop-color="#19494E"/>
<stop offset="1" stop-color="#0E59AE"/>
</linearGradient>
<linearGradient id="paint10_linear_70_2615" x1="1888.69" y1="213.914" x2="1315.01" y2="1392.16" gradientUnits="userSpaceOnUse">
<stop stop-color="#19494E"/>
<stop offset="1" stop-color="#0E59AE"/>
</linearGradient>
<linearGradient id="paint11_linear_70_2615" x1="1976.74" y1="256.781" x2="1403.06" y2="1435.03" gradientUnits="userSpaceOnUse">
<stop stop-color="#19494E"/>
<stop offset="1" stop-color="#0E59AE"/>
</linearGradient>
<linearGradient id="paint12_linear_70_2615" x1="2064.78" y1="299.656" x2="1491.11" y2="1477.9" gradientUnits="userSpaceOnUse">
<stop stop-color="#19494E"/>
<stop offset="1" stop-color="#0E59AE"/>
</linearGradient>
<linearGradient id="paint13_linear_70_2615" x1="2152.83" y1="342.524" x2="1579.16" y2="1520.77" gradientUnits="userSpaceOnUse">
<stop stop-color="#19494E"/>
<stop offset="1" stop-color="#0E59AE"/>
</linearGradient>
<linearGradient id="paint14_linear_70_2615" x1="2240.88" y1="385.391" x2="1667.2" y2="1563.64" gradientUnits="userSpaceOnUse">
<stop stop-color="#19494E"/>
<stop offset="1" stop-color="#0E59AE"/>
</linearGradient>
<linearGradient id="paint15_linear_70_2615" x1="2328.93" y1="428.266" x2="1755.25" y2="1606.51" gradientUnits="userSpaceOnUse">
<stop stop-color="#19494E"/>
<stop offset="1" stop-color="#0E59AE"/>
</linearGradient>
<linearGradient id="paint16_linear_70_2615" x1="2416.97" y1="471.133" x2="1843.3" y2="1649.38" gradientUnits="userSpaceOnUse">
<stop stop-color="#19494E"/>
<stop offset="1" stop-color="#0E59AE"/>
</linearGradient>
<linearGradient id="paint17_linear_70_2615" x1="2505.02" y1="514" x2="1931.34" y2="1692.25" gradientUnits="userSpaceOnUse">
<stop stop-color="#19494E"/>
<stop offset="1" stop-color="#0E59AE"/>
</linearGradient>
<linearGradient id="paint18_linear_70_2615" x1="1580.12" y1="235.134" x2="1579.77" y2="235.841" gradientUnits="userSpaceOnUse">
<stop stop-color="#19494E"/>
<stop offset="1" stop-color="#0E59AE"/>
</linearGradient>
<linearGradient id="paint19_linear_70_2615" x1="1492.07" y1="278.001" x2="1491.73" y2="278.708" gradientUnits="userSpaceOnUse">
<stop stop-color="#19494E"/>
<stop offset="1" stop-color="#0E59AE"/>
</linearGradient>
<linearGradient id="paint20_linear_70_2615" x1="1404.02" y1="320.868" x2="1403.68" y2="321.576" gradientUnits="userSpaceOnUse">
<stop stop-color="#19494E"/>
<stop offset="1" stop-color="#0E59AE"/>
</linearGradient>
<linearGradient id="paint21_linear_70_2615" x1="1315.97" y1="363.743" x2="1315.63" y2="364.451" gradientUnits="userSpaceOnUse">
<stop stop-color="#19494E"/>
<stop offset="1" stop-color="#0E59AE"/>
</linearGradient>
<linearGradient id="paint22_linear_70_2615" x1="1227.93" y1="406.61" x2="1227.58" y2="407.318" gradientUnits="userSpaceOnUse">
<stop stop-color="#19494E"/>
<stop offset="1" stop-color="#0E59AE"/>
</linearGradient>
<linearGradient id="paint23_linear_70_2615" x1="1139.88" y1="449.477" x2="1139.53" y2="450.185" gradientUnits="userSpaceOnUse">
<stop stop-color="#19494E"/>
<stop offset="1" stop-color="#0E59AE"/>
</linearGradient>
<linearGradient id="paint24_linear_70_2615" x1="1051.83" y1="492.344" x2="1051.49" y2="493.052" gradientUnits="userSpaceOnUse">
<stop stop-color="#19494E"/>
<stop offset="1" stop-color="#0E59AE"/>
</linearGradient>
<linearGradient id="paint25_linear_70_2615" x1="963.801" y1="535.219" x2="963.456" y2="535.927" gradientUnits="userSpaceOnUse">
<stop stop-color="#19494E"/>
<stop offset="1" stop-color="#0E59AE"/>
</linearGradient>
<linearGradient id="paint26_linear_70_2615" x1="875.754" y1="578.087" x2="875.409" y2="578.794" gradientUnits="userSpaceOnUse">
<stop stop-color="#19494E"/>
<stop offset="1" stop-color="#0E59AE"/>
</linearGradient>
<linearGradient id="paint27_linear_70_2615" x1="787.707" y1="620.954" x2="787.363" y2="621.662" gradientUnits="userSpaceOnUse">
<stop stop-color="#19494E"/>
<stop offset="1" stop-color="#0E59AE"/>
</linearGradient>
<linearGradient id="paint28_linear_70_2615" x1="699.66" y1="663.829" x2="699.316" y2="664.537" gradientUnits="userSpaceOnUse">
<stop stop-color="#19494E"/>
<stop offset="1" stop-color="#0E59AE"/>
</linearGradient>
<linearGradient id="paint29_linear_70_2615" x1="611.613" y1="706.696" x2="611.269" y2="707.404" gradientUnits="userSpaceOnUse">
<stop stop-color="#19494E"/>
<stop offset="1" stop-color="#0E59AE"/>
</linearGradient>
<linearGradient id="paint30_linear_70_2615" x1="523.567" y1="749.563" x2="523.222" y2="750.271" gradientUnits="userSpaceOnUse">
<stop stop-color="#19494E"/>
<stop offset="1" stop-color="#0E59AE"/>
</linearGradient>
<linearGradient id="paint31_linear_70_2615" x1="435.531" y1="792.438" x2="435.186" y2="793.146" gradientUnits="userSpaceOnUse">
<stop stop-color="#19494E"/>
<stop offset="1" stop-color="#0E59AE"/>
</linearGradient>
</defs>
</svg>
