<svg width="60" height="54" viewBox="0 0 60 54" fill="none" xmlns="http://www.w3.org/2000/svg">
<path d="M6.67566 45.6407C18.5458 57.5109 37.8852 55.7515 47.4542 46.1825C57.0231 36.6136 49.9594 28.925 52.2855 21.3444C55.0755 12.2522 50.4552 5.94598 44.0698 1.87154C37.5131 -2.31226 30.314 0.995604 25.5054 7.08439C16.5082 18.4769 11.1401 10.6054 3.74338 19.2682C-3.65332 27.931 1.29497 40.2601 6.67566 45.6407Z" fill="#E7EEF7"/>
<g clip-path="url(#clip0_901_19975)">
<path d="M48.1383 36.7389H12.182C9.94766 36.7389 8.16016 34.9514 8.16016 32.717V18.967C8.16016 16.767 9.94766 14.9795 12.182 14.9795H48.1727C50.3727 14.9795 52.1945 16.767 52.1945 19.0014V32.7514C52.1602 34.9514 50.3727 36.7389 48.1383 36.7389Z" fill="#7F54B3"/>
<path d="M12.9047 32.4759C12.9047 32.4759 13.8672 36.5322 15.8266 33.8166C17.7859 31.1009 19.6766 26.8384 19.6766 26.8384C19.6766 26.8384 19.8141 25.7728 20.3641 28.1103C20.9141 30.4478 23.2859 33.6103 23.2859 33.6103C23.2859 33.6103 25.4516 36.3259 26.3453 33.4728C26.0016 29.6916 27.3078 22.8166 28.6484 19.5166C29.1984 16.5947 26.1391 17.4197 25.8641 18.1072C25.5891 18.7947 23.6984 23.1947 23.5609 27.8009C23.5609 27.8009 21.9453 23.4009 21.8078 21.8197C21.6703 20.2041 19.9859 19.7916 19.0234 21.3384C18.0609 22.8853 15.1391 28.8666 15.1391 28.8666L13.2484 19.1041C13.2484 19.1041 11.3578 16.5947 10.2578 19.6541C10.2578 19.6541 12.2172 31.6509 12.9047 32.4759ZM38.0672 21.8197C35.1453 16.9384 30.8141 20.6509 30.8141 20.6509C30.8141 20.6509 27.5141 24.4666 28.9922 29.6572C31.3641 34.7791 34.6984 32.5103 35.5922 32.0978C36.5203 31.6509 40.4391 27.1822 38.0672 21.8197ZM35.8328 26.1166C35.8328 28.1447 34.1484 30.0353 32.7734 29.6228C32.0172 29.1759 31.5359 27.9728 31.5359 25.9103C32.2234 22.5759 33.7359 22.1291 34.5266 22.1978C36.0047 22.9884 35.9359 24.7416 35.8328 26.1166ZM49.0328 21.8197C46.1109 16.9384 41.7797 20.6509 41.7797 20.6509C41.7797 20.6509 38.4797 24.4666 39.9578 29.6572C42.3297 34.7791 45.6641 32.5103 46.5578 32.0978C47.4516 31.6509 51.4047 27.1822 49.0328 21.8197ZM46.7984 26.1166C46.7984 28.1447 45.1141 30.0353 43.7391 29.6228C42.9828 29.1759 42.5016 27.9728 42.5016 25.9103C43.1891 22.5759 44.7016 22.1291 45.4922 22.1978C46.9359 22.9884 46.8672 24.7416 46.7984 26.1166Z" fill="white"/>
<path d="M29.2305 36.7385L36.8961 41.2416L35.2805 36.7385L30.8805 35.501L29.2305 36.7385Z" fill="#7F54B3"/>
</g>
<defs>
<clipPath id="clip0_901_19975">
<rect width="44" height="44" fill="white" transform="translate(8.16016 6.11035)"/>
</clipPath>
</defs>
</svg>
