<svg width="59" height="54" viewBox="0 0 59 54" fill="none" xmlns="http://www.w3.org/2000/svg">
<path d="M55.7271 38.6091C61.2999 22.774 51.3535 6.09546 38.5884 1.60307C25.8232 -2.88931 21.9436 6.80392 14.1022 7.98325C4.6974 9.39769 1.008 16.29 0.0941089 23.8092C-0.844338 31.5302 5.2505 36.5921 12.8196 38.2962C26.982 41.4847 22.2044 49.728 33.2134 52.6533C44.2224 55.5785 53.201 45.787 55.7271 38.6091Z" fill="#E7EEF7"/>
<g clip-path="url(#clip0_901_19994)">
<path d="M52.6717 13.3031C52.3907 12.2781 51.8424 11.3436 51.0816 10.5927C50.3208 9.84188 49.3739 9.3008 48.3352 9.0234C44.5328 8 29.2291 8 29.2291 8C29.2291 8 13.9246 8.03098 10.1221 9.05438C9.08346 9.3318 8.13656 9.8729 7.37572 10.6238C6.61488 11.3747 6.06665 12.3092 5.78562 13.3342C4.63546 20.0016 4.18929 30.1612 5.8172 36.5619C6.09826 37.5869 6.6465 38.5213 7.40734 39.2722C8.16818 40.0231 9.11506 40.5641 10.1537 40.8415C13.9562 41.8649 29.2603 41.8649 29.2603 41.8649C29.2603 41.8649 44.5641 41.8649 48.3664 40.8415C49.4051 40.5642 50.352 40.0231 51.1129 39.2722C51.8738 38.5214 52.4221 37.5869 52.7031 36.5619C53.9163 29.885 54.2901 19.7317 52.6717 13.3031Z" fill="#FF0000"/>
<path d="M24.3594 32.1892L37.055 24.9325L24.3594 17.6758V32.1892Z" fill="white"/>
</g>
<defs>
<clipPath id="clip0_901_19994">
<rect width="49" height="34" fill="white" transform="translate(4.75391 8)"/>
</clipPath>
</defs>
</svg>
