<svg width="59" height="50" viewBox="0 0 59 50" fill="none" xmlns="http://www.w3.org/2000/svg">
<path d="M0 20.7821C0 37.5691 14.9191 50 28.4517 50C41.9842 50 42.426 39.5686 49.4312 35.853C57.8331 31.3967 59.0253 23.6705 57.3912 16.2743C55.7133 8.67964 48.2837 5.92806 40.5781 6.83335C26.1604 8.52706 27.9305 -0.834746 16.5748 0.0605086C5.21899 0.955763 0 13.1727 0 20.7821Z" fill="#E7EEF7"/>
<g clip-path="url(#clip0_901_19957)">
<path d="M42.7733 11.6401C42.7435 11.4201 42.5536 11.2983 42.3967 11.2849C41.2398 11.1967 40.0828 11.1091 38.9258 11.0223C38.9258 11.0223 36.624 8.70248 36.3714 8.44571C36.1186 8.18909 35.6249 8.26715 35.4332 8.32441C35.405 8.33285 34.9303 8.48157 34.1451 8.72824C33.3762 6.48213 32.0192 4.41805 29.6318 4.41805C29.5659 4.41805 29.4981 4.42076 29.4303 4.42468C28.7513 3.51319 27.9103 3.11719 27.1838 3.11719C21.6226 3.11719 18.9657 10.1745 18.1327 13.7608C15.9717 14.4406 14.4366 14.9238 14.2405 14.9863C13.0343 15.3704 12.9962 15.409 12.8378 16.5628C12.7186 17.4363 9.5625 42.2133 9.5625 42.2133L34.1553 46.8909L47.4806 43.9646C47.4806 43.9646 42.8027 11.8601 42.7733 11.6401ZM32.7858 9.15498L30.7049 9.8088C30.7056 9.65993 30.7064 9.51346 30.7064 9.35328C30.7064 7.95734 30.5155 6.83338 30.2093 5.94238C31.4394 6.09909 32.2586 7.5199 32.7858 9.15498ZM28.6833 6.21919C29.0253 7.08909 29.2477 8.33752 29.2477 10.0222C29.2477 10.1084 29.2469 10.1872 29.2462 10.2669C27.8929 10.6924 26.4223 11.1544 24.9485 11.6179C25.776 8.37579 27.3272 6.80987 28.6833 6.21919ZM27.0311 4.63142C27.2711 4.63142 27.5129 4.71415 27.7443 4.87583C25.962 5.7272 24.0516 7.87145 23.2449 12.1535L19.8477 13.2215C20.7927 9.95542 23.0366 4.63142 27.0311 4.63142Z" fill="#95BF46"/>
<path d="M42.4004 11.2851C41.2434 11.1968 40.0865 11.1093 38.9295 11.0224C38.9295 11.0224 36.6276 8.70264 36.375 8.44588C36.2804 8.35034 36.1529 8.30137 36.0196 8.28027L34.1602 46.8907L47.4842 43.9647C47.4842 43.9647 42.8063 11.8602 42.777 11.6402C42.7471 11.4202 42.5573 11.2985 42.4004 11.2851Z" fill="#5E8E3E"/>
<path d="M29.632 18.7591L27.989 23.7206C27.989 23.7206 26.5494 22.9406 24.7848 22.9406C22.1978 22.9406 22.0676 24.5887 22.0676 25.004C22.0676 27.27 27.8864 28.1382 27.8864 33.4459C27.8864 37.6219 25.2773 40.3109 21.7593 40.3109C17.5378 40.3109 15.3789 37.6437 15.3789 37.6437L16.5093 33.8525C16.5093 33.8525 18.7284 35.7865 20.6009 35.7865C21.8245 35.7865 22.3222 34.8086 22.3222 34.094C22.3222 31.1382 17.5485 31.0064 17.5485 26.1493C17.5485 22.0614 20.4388 18.1055 26.2733 18.1055C28.5214 18.1055 29.632 18.7591 29.632 18.7591Z" fill="white"/>
</g>
<defs>
<clipPath id="clip0_901_19957">
<rect width="38" height="44" fill="white" transform="translate(9.55859 3)"/>
</clipPath>
</defs>
</svg>
