<svg width="192" height="92" viewBox="0 0 192 92" fill="none" xmlns="http://www.w3.org/2000/svg">
<path d="M169.698 20.6222C162.078 12.7231 151.949 8.37231 141.173 8.37231C130.398 8.37231 120.267 12.7226 112.647 20.6222L94.9054 39.0164L77.1626 20.6222C69.5439 12.7231 59.4135 8.37231 48.6383 8.37231C37.8626 8.37231 27.7331 12.7226 20.1131 20.6222C4.38416 36.9289 4.38416 63.4623 20.1131 79.7699C27.9776 87.9232 38.308 91.9995 48.6383 91.9995C58.9682 91.9995 69.2985 87.9232 77.1626 79.7699L94.9054 61.3748L112.647 79.7699C120.512 87.9232 130.843 91.9995 141.173 91.9995C151.503 91.9995 161.834 87.9224 169.698 79.7699C177.318 71.8704 181.513 61.3669 181.513 50.1958C181.513 39.0243 177.318 28.5217 169.698 20.6222ZM66.3878 68.5979C61.6472 73.5128 55.3433 76.2194 48.6392 76.2194C41.9337 76.2194 35.6298 73.5123 30.8892 68.5971C26.1478 63.6822 23.5376 57.147 23.5376 50.1958C23.5376 43.2446 26.1478 36.7094 30.8892 31.7941C35.6298 26.8789 41.9332 24.1718 48.6387 24.1718C55.3433 24.1718 61.6472 26.8789 66.3878 31.7941L84.1373 50.1958L66.3878 68.5979ZM84.1373 50.1958L66.3878 68.5979L84.1373 50.1958ZM158.922 68.5979C149.135 78.7449 133.21 78.7449 123.423 68.5979L105.674 50.1958L123.423 31.7941C128.165 26.8789 134.468 24.1718 141.173 24.1718C147.877 24.1718 154.181 26.8789 158.922 31.7941C163.664 36.7094 166.274 43.2446 166.274 50.1958C166.274 57.1475 163.664 63.6822 158.922 68.5979Z" fill="#0E59AE"/>
<path d="M119.075 64.2152L83.0561 26.8486L71.0977 36.7391L107.91 74.645L119.075 64.2152Z" fill="#0E59AE"/>
<path d="M170.545 21.5229C166.405 24.7271 162.445 28.1732 159.341 32.2428C163.817 37.1043 166.281 43.4522 166.281 50.1963C166.281 57.1479 163.671 63.6827 158.929 68.5984C154.973 72.6998 150.014 75.1415 144.863 75.9273C148.423 80.1264 151.965 84.6839 154.817 89.5476C160.256 87.532 165.358 84.2767 169.705 79.7699C177.324 71.8704 181.52 61.367 181.52 50.1959C181.52 39.443 177.631 29.3114 170.545 21.5229Z" fill="#388AED"/>
<path d="M19.2473 21.6301C23.388 24.8343 27.3474 28.2803 30.4519 32.35C25.9753 37.2115 23.5116 43.5594 23.5116 50.3035C23.5116 57.2551 26.1227 63.7903 30.8637 68.706C34.8196 72.807 39.7786 75.2487 44.9292 76.0345C41.3697 80.2336 37.8278 84.7911 34.9758 89.6548C29.5379 87.6392 24.4354 84.3839 20.0885 79.8771C12.4689 71.9776 8.27344 61.4746 8.27344 50.303C8.273 39.5506 12.1618 29.419 19.2473 21.6301Z" fill="#388AED"/>
<path d="M64.3984 70.5813L100.562 33.3223L112.376 43.1048L75.9248 81.2262L64.3984 70.5813Z" fill="#BED7FF"/>
<path d="M59.2535 2.9165H38.3398V23.7962H59.2535V2.9165Z" fill="#FFBF00"/>
<path d="M47.3712 15.6585C44.0538 12.2267 43.2048 7.55662 43.1051 2.9165H38.3398V23.7962H59.2535V19.7189C54.9184 19.9538 50.4626 18.8567 47.3712 15.6585Z" fill="#FFA607"/>
<path d="M47.4527 20.1493L41.7674 14.9257C41.3031 14.4996 41.273 13.778 41.6998 13.315C42.1258 12.8518 42.8479 12.8221 43.3126 13.2472L47.313 16.9239L54.9493 8.59638C55.3763 8.13206 56.0974 8.10037 56.5624 8.52405C57.0274 8.9491 57.0581 9.67108 56.6331 10.1351L47.4527 20.1493Z" fill="white"/>
<path d="M153.784 0H130.969V21.4743H153.784V0Z" fill="#9EC0FF"/>
<path d="M136.023 10.3948C137.269 10.3948 137.445 9.71173 137.445 9.09834C137.445 8.60793 137.375 8.11714 137.304 7.62673C137.234 7.13631 137.164 6.66304 137.164 6.17263C137.164 4.56089 138.217 3.87744 139.708 3.87744H140.077V4.84113H139.761C138.726 4.84113 138.375 5.4016 138.375 6.34777C138.375 6.75062 138.427 7.17097 138.498 7.5917C138.568 8.02957 138.62 8.45029 138.62 8.92319C138.638 10.0445 138.147 10.605 137.357 10.8155V10.8506C138.147 11.0432 138.638 11.6391 138.62 12.7601C138.62 13.2333 138.568 13.6712 138.498 14.0915C138.427 14.5294 138.375 14.9326 138.375 15.353C138.375 16.3338 138.778 16.8771 139.761 16.8771H140.077V17.8405H139.708C138.252 17.8405 137.164 17.2099 137.164 15.4406C137.164 14.9673 137.234 14.4769 137.304 14.004C137.375 13.5307 137.445 13.0578 137.445 12.5849C137.445 12.0416 137.269 11.2884 136.023 11.2884V10.3948Z" fill="white"/>
<path d="M148.729 11.2884C147.483 11.2884 147.308 12.0416 147.308 12.5849C147.308 13.0582 147.378 13.5307 147.448 14.004C147.519 14.4769 147.588 14.9673 147.588 15.4406C147.588 17.2099 146.483 17.8405 145.044 17.8405H144.676V16.8771H144.974C145.957 16.8596 146.378 16.3338 146.378 15.353C146.378 14.9326 146.308 14.5294 146.255 14.0915C146.185 13.6712 146.115 13.2333 146.115 12.7601C146.115 11.6387 146.606 11.0432 147.378 10.8506V10.8155C146.606 10.6054 146.115 10.0445 146.115 8.92319C146.115 8.45029 146.185 8.02994 146.255 7.5917C146.308 7.17134 146.378 6.75062 146.378 6.34777C146.378 5.4016 146.009 4.85864 144.992 4.84113H144.676V3.87744H145.027C146.518 3.87744 147.589 4.56089 147.589 6.17263C147.589 6.66304 147.519 7.13631 147.449 7.62673C147.378 8.11714 147.308 8.60755 147.308 9.09834C147.308 9.71173 147.484 10.3948 148.729 10.3948V11.2884H148.729Z" fill="white"/>
<path d="M173.67 35.9942C166.076 38.2677 161.489 44.9434 163.778 52.5707C165.243 57.4498 168.109 59.5495 173.536 62.7582C174.824 63.52 175.419 67.0732 175.476 67.9953C177.349 66.9412 180.123 67.7984 182.76 66.998C184.962 66.3274 185.487 66.2511 187.375 66.0234C186.671 64.783 186.008 60.2108 187.132 59.2021C191.821 54.9947 192.932 49.8662 191.275 44.3424C188.985 36.7144 181.263 33.7231 173.67 35.9942Z" fill="#FFBF00"/>
<path d="M182.63 66.9896L182.266 67.0698C182.226 66.8938 182.082 66.4372 181.929 65.9543C181.786 65.5097 181.636 65.035 181.547 64.7118C181.158 63.3129 179.851 58.2663 178.987 53.8875C178.649 53.9585 178.311 53.9904 177.979 53.9812C177.89 53.978 177.8 53.9737 177.711 53.9663C177.824 54.5666 177.929 55.1711 178.032 55.7693C178.198 56.7358 178.356 57.6469 178.549 58.5083C178.649 58.9557 178.76 59.4386 178.875 59.9484C179.391 62.1985 180.03 64.9978 180.526 67.7833L180.162 67.8489C179.666 65.0702 179.029 62.2758 178.516 60.0311C178.399 59.5205 178.287 59.0376 178.187 58.5899C177.992 57.7189 177.834 56.8025 177.667 55.8328C177.556 55.1984 177.446 54.5577 177.324 53.9244C175.042 53.598 172.348 51.9532 171.677 49.763C171.077 47.8 171.923 47.2227 172.333 47.0599C173.542 46.5774 175.497 47.6442 176.282 49.212C176.928 50.507 177.325 52.0245 177.636 53.5884C177.755 53.5998 177.872 53.6065 177.988 53.6104C178.294 53.6186 178.604 53.5891 178.915 53.5235C178.387 50.7873 178.048 48.3645 178.241 47.3373C178.541 45.7447 179.456 44.8673 180.694 44.9907C182.097 45.1319 183.581 46.605 183.553 48.5748C183.534 49.9117 182.88 51.2954 181.759 52.3704C181.037 53.0594 180.202 53.5508 179.348 53.7977C180.139 57.8186 181.32 62.5132 181.903 64.6114C181.993 64.9325 182.141 65.4008 182.282 65.8422C182.444 66.3545 182.585 66.7955 182.63 66.9896ZM179.277 53.4319C180.06 53.1988 180.833 52.7426 181.501 52.1022C182.552 51.0949 183.164 49.8084 183.182 48.5695C183.207 46.83 181.871 45.4821 180.657 45.3597C179.617 45.2561 178.871 46.0015 178.606 47.4069C178.426 48.363 178.754 50.7178 179.277 53.4319ZM172.462 47.4079C171.821 47.6701 171.669 48.4666 172.032 49.6548C172.649 51.669 175.114 53.1935 177.248 53.5387C176.944 52.0447 176.56 50.6014 175.95 49.3781C175.195 47.8688 173.405 47.0315 172.471 47.404C172.467 47.4058 172.464 47.4065 172.462 47.4079Z" fill="white"/>
<path opacity="0.4" d="M191.275 44.3439C190.523 41.839 189.182 39.8377 187.456 38.355C187.788 38.918 188.084 39.5098 188.336 40.1336C190.63 45.817 189.22 53.6241 184.39 57.6517C178.779 62.33 172.416 56.8251 169.746 51.7665C167.551 47.6094 166.273 43.0666 167.833 39.0727C163.97 42.2949 162.164 47.1957 163.778 52.5715C165.242 57.4506 168.109 59.5502 173.536 62.759C174.824 63.5207 175.419 67.0739 175.476 67.996C177.349 66.9419 180.122 67.7991 182.76 66.9987C184.962 66.3282 185.486 66.2519 187.375 66.0241C186.67 64.7838 186.008 60.2116 187.132 59.2029C191.82 54.9961 192.932 49.8676 191.275 44.3439Z" fill="#FFA607"/>
<path d="M178.855 73.9932C179.734 75.5677 181.712 76.4054 183.701 75.909C185.689 75.4109 187.04 73.743 187.072 71.9414L178.855 73.9932Z" fill="#5D81EC"/>
<path d="M175.363 67.6719L176.489 71.9627C176.904 73.5419 178.559 74.4771 180.184 74.0503L185.978 72.536C187.604 72.1128 188.587 70.4854 188.173 68.9069L187.046 64.6182L175.363 67.6719Z" fill="#9EC0FF"/>
<path d="M0 52.2683C0 44.6297 6.21804 38.4375 13.8879 38.4375C21.5591 38.4375 27.7772 44.6301 27.7772 52.2683C27.7772 59.9083 21.5591 66.1008 13.8879 66.1008C6.21804 66.1008 0 59.9079 0 52.2683Z" fill="#2E6ADB"/>
<path d="M2.65234 52.2683C2.65234 46.09 7.68218 41.0815 13.8853 41.0815C20.089 41.0815 25.1198 46.0903 25.1198 52.2683C25.1198 58.4469 20.089 63.4566 13.8853 63.4566C7.68185 63.4563 2.65234 58.4465 2.65234 52.2683Z" fill="white"/>
<path d="M13.8867 41.7844V45.5464" stroke="#132444" stroke-width="0.245526" stroke-miterlimit="10"/>
<path d="M13.8867 58.9905V62.7522" stroke="#132444" stroke-width="0.245526" stroke-miterlimit="10"/>
<path d="M20.9312 44.4783L18.4023 47.2743" stroke="#132444" stroke-width="0.245526" stroke-miterlimit="10"/>
<path d="M9.36874 57.262L6.83984 60.058" stroke="#132444" stroke-width="0.245526" stroke-miterlimit="10"/>
<path d="M3.35938 52.2683H7.1376" stroke="#132444" stroke-width="0.245526" stroke-miterlimit="10"/>
<path d="M20.6367 52.2683H24.4153" stroke="#132444" stroke-width="0.245526" stroke-miterlimit="10"/>
<path d="M6.44141 44.8557L9.11301 47.5157" stroke="#132444" stroke-width="0.245526" stroke-miterlimit="10"/>
<path d="M18.6562 57.022L21.3285 59.6813" stroke="#132444" stroke-width="0.245526" stroke-miterlimit="10"/>
<path d="M13.1044 52.9955C12.9051 52.3375 13.2784 51.6435 13.938 51.4439C14.5982 51.2446 15.2946 51.6166 15.4935 52.2723C15.6928 52.9299 15.3196 53.6242 14.6593 53.8232C14.0004 54.0222 13.304 53.6524 13.1044 52.9955Z" fill="#2D4C7F"/>
<path d="M14.3365 52.7569L12.0976 49.4899L11.543 47.0347L12.9483 48.9481L14.3365 52.7569Z" fill="#2D4C7F"/>
<path d="M14.1094 52.4616L15.1584 47.4762L16.7387 44.5779L16.1896 47.568L14.1094 52.4616Z" fill="#2D4C7F"/>
</svg>
