<svg width="59" height="50" viewBox="0 0 59 50" fill="none" xmlns="http://www.w3.org/2000/svg">
<path d="M58.0195 29.2179C58.0195 12.4309 43.1005 0 29.5679 0C16.0353 0 15.5935 10.4314 8.58837 14.147C0.186424 18.6033 -1.00573 26.3295 0.628345 33.7257C2.30624 41.3204 9.73584 44.0719 17.4414 43.1666C31.8591 41.4729 30.089 50.8347 41.4448 49.9395C52.8005 49.0442 58.0195 36.8273 58.0195 29.2179Z" fill="#E7EEF7"/>
<g clip-path="url(#clip0_901_20015)">
<path d="M29 47C41.1503 47 51 37.1503 51 25C51 12.8497 41.1503 3 29 3C16.8497 3 7 12.8497 7 25C7 37.1503 16.8497 47 29 47Z" fill="#FF873D"/>
<path d="M50.7259 28.4874C49.0683 38.8931 40.1153 46.8651 29.2742 46.997L18.4036 36.1265L19.6943 35.1372L15.6367 31.0796L36.967 14.7285L50.7259 28.4874Z" fill="#E37936"/>
<path d="M29.5201 23.5691H28.4805V36.2107H29.5201V23.5691Z" fill="#FFD630"/>
<path d="M39.5983 35.0867H18.4023V36.1263H39.5983V35.0867Z" fill="#FFD630"/>
<path d="M28.9983 37.2846C29.925 37.2846 30.6762 36.5334 30.6762 35.6067C30.6762 34.68 29.925 33.9287 28.9983 33.9287C28.0716 33.9287 27.3203 34.68 27.3203 35.6067C27.3203 36.5334 28.0716 37.2846 28.9983 37.2846Z" fill="#00CC96"/>
<path d="M29.0001 33.9291C29.9268 33.9291 30.678 34.6804 30.678 35.607C30.678 36.5266 29.9385 37.2735 29.0217 37.2847H29V33.9287L29.0001 33.9291Z" fill="#07B587"/>
<path d="M18.5239 23.4819C18.71 23.4819 18.8937 23.4937 19.0738 23.5162C18.9313 23.0329 18.8539 22.5213 18.8539 21.9915C18.8539 19.0181 21.2641 16.608 24.2372 16.608C24.7821 16.608 25.3081 16.6893 25.8038 16.8401C26.8647 14.4127 29.2865 12.7158 32.105 12.7158C35.9014 12.7158 38.9792 15.7933 38.9792 19.5897C38.9792 20.8258 38.6528 21.9851 38.082 22.9874C38.4297 22.9042 38.7925 22.8604 39.1659 22.8604C41.7387 22.8604 43.8247 24.946 43.8247 27.5191C43.8247 29.831 42.1408 31.7489 39.933 32.1151V32.1781H39.1659H18.5236C16.122 32.1781 14.1758 30.2315 14.1758 27.8303C14.1758 25.4288 16.1224 23.4822 18.5236 23.4822L18.5239 23.4819Z" fill="#F7F7F8"/>
</g>
<defs>
<clipPath id="clip0_901_20015">
<rect width="44" height="44" fill="white" transform="translate(7 3)"/>
</clipPath>
</defs>
</svg>
