<svg width="405" height="360" viewBox="0 0 405 360" fill="none" xmlns="http://www.w3.org/2000/svg">
<g opacity="0.09">
<path d="M209.34 359.965C294.019 359.965 362.664 291.319 362.664 206.64C362.664 121.962 294.019 53.3159 209.34 53.3159C124.661 53.3159 56.0156 121.962 56.0156 206.64C56.0156 291.319 124.661 359.965 209.34 359.965Z" fill="#078999"/>
<path d="M354.074 182.556L354.08 182.586C354.114 182.619 354.109 182.605 354.074 182.556Z" fill="#74C15D"/>
<path d="M227.528 54.384C227.386 54.3664 227.243 54.3675 227.101 54.384L225.717 54.5532L225.513 56.3884C225.484 56.6539 225.518 56.923 225.612 57.1733L230.825 71.0103C231.064 71.6424 230.904 72.3555 230.419 72.8255L229.049 74.1543L222.205 81.2649C221.744 81.7431 221.049 81.9088 220.422 81.6891L212.075 78.7635C211.95 78.7201 211.821 78.6907 211.689 78.6766L201.121 77.5804C201.046 77.5722 200.97 77.5698 200.895 77.5722L194.44 77.766C194.123 77.7754 193.815 77.8741 193.551 78.0504L182.061 85.7096C181.487 86.0927 181.201 86.7859 181.341 87.4626L182.189 91.576C182.263 91.9355 182.453 92.2622 182.729 92.5054L194.918 103.256C195.589 103.848 195.686 104.858 195.138 105.566L188.969 113.534C188.724 113.849 188.378 114.067 187.989 114.153L184.889 114.829C184.109 114.999 183.317 114.602 182.986 113.876L178.727 104.537C178.707 104.492 178.685 104.448 178.66 104.405L176.211 100.078C175.673 99.1272 174.391 98.9251 173.588 99.6653L166.901 105.816C166.769 105.938 166.66 106.073 166.572 106.231C165.991 107.269 163.769 111.457 164.671 113.334C165.466 114.985 168.2 118.038 169.432 119.373C169.816 119.789 169.963 120.363 169.833 120.914L169.624 121.793C169.45 122.522 169.775 123.279 170.425 123.654L178.319 128.217C179.318 128.794 179.461 130.178 178.602 130.947L174.9 134.265C174.704 134.442 174.469 134.569 174.215 134.639L164.214 137.371C163.55 137.552 163.063 138.112 162.978 138.795C162.596 141.88 161.651 150.283 162.599 150.907C163.472 151.482 165.098 149.904 165.857 149.079C166.132 148.78 166.502 148.587 166.906 148.542L179.128 147.193C179.593 147.141 180.017 146.899 180.298 146.526L188.033 136.215C188.18 136.02 188.367 135.859 188.581 135.741L196.083 131.672C196.577 131.405 197.173 131.399 197.672 131.658L212.211 139.208C212.573 139.396 212.855 139.708 213.005 140.086L215.115 145.39C215.666 146.775 217.608 146.825 218.231 145.472L219.822 142.014C220.129 141.348 219.972 140.561 219.434 140.062L208.943 130.332C207.626 129.11 208.864 126.948 210.584 127.465L217.275 129.474C217.639 129.583 217.955 129.811 218.174 130.122L224.475 139.071C224.51 139.12 224.548 139.168 224.587 139.214L226.661 141.573C227.528 142.559 229.137 142.229 229.546 140.981C230.06 139.41 232.288 139.428 232.777 141.007C233.719 144.056 234.754 147.443 234.861 147.958C235.038 148.818 241.007 148.154 242.305 147.999C242.471 147.979 242.627 147.936 242.781 147.869L248.45 145.387C248.605 145.319 248.748 145.229 248.876 145.118L252.272 142.191C252.98 141.581 254.05 141.659 254.662 142.367L260.573 149.205C261.025 149.729 261.114 150.475 260.797 151.09L258.395 155.755C258.127 156.274 257.619 156.618 257.036 156.668C252.518 157.044 233.001 158.704 232.282 159.402C231.744 159.923 231.388 162.275 231.208 163.805C231.115 164.596 230.489 165.212 229.696 165.288C225.503 165.692 213.121 166.824 212.467 166.149C211.776 165.436 206.584 161.083 205.313 160.02C205.127 159.865 204.978 159.673 204.873 159.455L199.477 148.233C199.103 147.456 198.207 147.084 197.393 147.366L154.864 162.137C154.437 162.286 154.089 162.592 153.894 163C152.006 166.958 141.85 188.184 140.972 188.607C140.079 189.037 142.722 216.494 143.139 220.773C143.174 221.14 143.328 221.477 143.577 221.749L164.959 245.033C165.426 245.542 166.155 245.716 166.801 245.475L201.25 232.601C202.112 232.279 203.075 232.704 203.418 233.558L204.506 236.268C204.696 236.743 205.083 237.104 205.57 237.254C208.096 238.035 216.047 240.551 216.438 241.365C216.853 242.226 218.756 253.377 219.172 255.834C219.225 256.148 219.36 256.431 219.572 256.668C222.175 259.592 239.83 279.501 239.065 280.973C238.239 282.562 236.024 291.182 237.123 292.641C238.222 294.1 244.471 304.612 245.88 306.716C246.992 308.375 252.23 313.482 254.4 315.57C254.956 316.106 255.801 316.197 256.459 315.793L273.225 305.521C273.383 305.425 273.518 305.31 273.637 305.168C275.976 302.362 301.179 272.075 300.439 270.536C299.662 268.922 294.24 256.82 293.14 255.361C292.041 253.901 301.116 226.479 301.14 224.876C301.163 223.455 318.342 198.428 322.2 192.826C322.648 192.174 322.581 191.307 322.046 190.724L318.326 186.68C317.674 185.971 316.562 185.947 315.881 186.627L306.196 196.282C305.807 196.67 305.254 196.845 304.713 196.753L289.718 194.187C289.328 194.12 288.98 193.928 288.723 193.627C286.004 190.449 270.026 171.756 269.6 170.87C269.369 170.392 266.525 166.899 263.706 163.488L263.713 163.496L266.762 162.03C267.425 161.712 268.218 161.856 268.726 162.389L292.432 187.299C292.824 187.711 293.396 187.899 293.957 187.799L302.475 186.285C302.859 186.217 303.202 186.025 303.457 185.729C305.267 183.626 312.83 174.86 313.397 174.586C314.043 174.276 318.553 158.854 318.553 158.854L320.361 151.97C320.563 151.203 321.269 150.678 322.062 150.706L335.06 151.181C335.689 151.204 336.254 151.573 336.527 152.141L346.355 172.576C346.409 172.688 346.472 172.79 346.549 172.887C346.937 173.382 348.278 175.084 349.723 176.93C350.822 178.332 353.062 177.312 352.724 175.564L346.832 145.135C346.784 144.888 346.792 144.633 346.854 144.39L347.63 141.378C347.59 140.968 347.552 140.592 347.512 140.182C323.955 91.2 277.769 60.4336 227.528 54.384Z" fill="#74C15D"/>
<path d="M118.411 330.118C117.961 326.84 116.827 318.143 117.359 317.243C118.017 316.131 122.332 316.838 122.332 316.838C122.332 316.838 116.861 307.941 107.926 290.769C98.9915 273.598 106.959 284.874 107.641 282.159C108.324 279.445 111.745 275.813 111.937 273.733C112.129 271.652 104.719 263.686 102.173 262.525C99.6271 261.365 85.393 249.128 84.1382 247.346C82.8834 245.563 80.3549 232.865 80.3549 232.865L68.3014 225.161L61.6173 211.264C61.6173 211.264 59.1183 207.457 56.0294 202.73C55.4091 226.306 60.2345 250.378 71.16 273.094C82.4193 296.501 98.8481 315.74 118.411 330.118Z" fill="#74C15D"/>
<path d="M70.1875 142.232C73.556 139.883 78.6246 136.69 78.6246 136.69L84.1996 128.444L95.9863 133.112C95.9863 133.112 96.77 144.661 96.9744 141.78C97.1789 138.899 99.7097 130.934 99.7097 130.934C99.7097 130.934 101.716 125.187 104.826 120.908C107.936 116.629 111.861 111.561 114.276 110.797C116.692 110.034 119.267 98.8556 119.267 98.8556L119.652 94.6953C121.421 94.2417 125.655 89.8193 125.655 89.8193L127.916 88.7325C127.916 88.7325 135.069 82.1119 137.186 79.9007C139.303 77.6895 141.097 75.6346 141.097 75.6346L132.959 94.2582L130.999 100.103C130.999 100.103 141.587 92.3607 153.278 89.3882C164.968 86.4168 168.68 85.0409 168.68 85.0409L172.328 80.2273L173.392 70.0408C173.392 70.0408 177.459 66.0966 177.974 63.8619C178.294 62.4767 175.313 59.6275 173 57.6583C162.805 60.155 152.714 63.7338 142.877 68.464C109.511 84.5122 84.5955 111.058 70.1875 142.232Z" fill="#74C15D"/>
<path d="M310.712 258.838C312.203 266.072 304.077 283.894 304.077 283.894C304.077 283.894 299.144 302.567 305.83 294.978C312.516 287.389 312.386 285.464 312.386 285.464L315.316 282.464L317.998 274.813C317.998 274.813 319.617 263.3 320.169 258.661C320.169 258.661 309.22 251.604 310.712 258.838Z" fill="#74C15D"/>
<g opacity="0.5">
<path d="M347.518 140.186C321.045 85.1413 265.999 53.1001 208.734 53.2881C248.034 60.3587 283.504 85.5337 302.134 124.27C332.976 188.395 305.993 265.381 241.867 296.222C177.741 327.064 100.756 300.081 69.9142 235.955C62.2479 220.015 58.158 203.28 57.3191 186.658C53.5371 215.228 57.7444 245.184 71.1679 273.095C107.87 349.407 199.485 381.517 275.797 344.816C352.109 308.115 384.22 216.497 347.518 140.186Z" fill="#005479"/>
</g>
</g>
<path d="M190.476 123.069V110.357H195.727C196.679 110.357 197.5 110.543 198.191 110.916C198.887 111.284 199.422 111.799 199.799 112.461C200.176 113.119 200.364 113.885 200.364 114.758C200.364 115.635 200.171 116.403 199.787 117.061C199.406 117.715 198.862 118.222 198.154 118.582C197.446 118.942 196.606 119.122 195.634 119.122H192.394V116.701H195.063C195.526 116.701 195.913 116.62 196.224 116.459C196.538 116.297 196.776 116.072 196.938 115.782C197.099 115.488 197.18 115.147 197.18 114.758C197.18 114.365 197.099 114.026 196.938 113.74C196.776 113.45 196.538 113.227 196.224 113.07C195.909 112.912 195.522 112.834 195.063 112.834H193.548V123.069H190.476ZM201.878 123.069V110.357H207.13C208.081 110.357 208.903 110.543 209.594 110.916C210.289 111.284 210.825 111.799 211.201 112.461C211.578 113.119 211.766 113.885 211.766 114.758C211.766 115.635 211.574 116.403 211.189 117.061C210.808 117.715 210.264 118.222 209.556 118.582C208.849 118.942 208.009 119.122 207.036 119.122H203.796V116.701H206.465C206.929 116.701 207.316 116.62 207.626 116.459C207.941 116.297 208.178 116.072 208.34 115.782C208.501 115.488 208.582 115.147 208.582 114.758C208.582 114.365 208.501 114.026 208.34 113.74C208.178 113.45 207.941 113.227 207.626 113.07C207.312 112.912 206.925 112.834 206.465 112.834H204.951V123.069H201.878ZM224.82 114.963H221.716C221.675 114.644 221.59 114.357 221.462 114.1C221.333 113.843 221.164 113.624 220.953 113.442C220.742 113.26 220.491 113.121 220.202 113.026C219.916 112.927 219.599 112.877 219.252 112.877C218.635 112.877 218.104 113.028 217.657 113.33C217.214 113.632 216.873 114.069 216.633 114.64C216.397 115.211 216.279 115.902 216.279 116.713C216.279 117.557 216.399 118.265 216.639 118.836C216.883 119.403 217.224 119.831 217.663 120.121C218.106 120.406 218.629 120.549 219.233 120.549C219.573 120.549 219.881 120.506 220.158 120.419C220.44 120.332 220.686 120.206 220.897 120.04C221.112 119.871 221.288 119.666 221.424 119.426C221.565 119.182 221.662 118.906 221.716 118.6L224.82 118.619C224.766 119.182 224.602 119.736 224.329 120.282C224.06 120.828 223.69 121.327 223.218 121.778C222.746 122.225 222.171 122.581 221.493 122.846C220.818 123.111 220.044 123.243 219.171 123.243C218.021 123.243 216.99 122.991 216.08 122.486C215.174 121.977 214.458 121.236 213.932 120.264C213.407 119.291 213.144 118.108 213.144 116.713C213.144 115.315 213.411 114.129 213.945 113.157C214.479 112.184 215.201 111.445 216.111 110.941C217.021 110.436 218.042 110.183 219.171 110.183C219.941 110.183 220.653 110.291 221.306 110.506C221.96 110.717 222.535 111.028 223.032 111.437C223.529 111.843 223.932 112.341 224.242 112.933C224.553 113.525 224.745 114.201 224.82 114.963ZM154.912 134.357H158.717L161.944 142.228H162.093L165.321 134.357H169.126V147.069H166.134V139.261H166.029L162.975 146.989H161.063L158.009 139.217H157.904V147.069H154.912V134.357ZM173.792 147.069H170.49L174.779 134.357H178.87L183.159 147.069H179.856L176.871 137.56H176.772L173.792 147.069ZM173.351 142.066H180.254V144.4H173.351V142.066ZM184.527 147.069V134.357H189.778C190.73 134.357 191.552 134.529 192.243 134.872C192.938 135.212 193.474 135.7 193.85 136.337C194.227 136.97 194.415 137.721 194.415 138.59C194.415 139.472 194.223 140.221 193.838 140.837C193.453 141.45 192.907 141.917 192.199 142.24C191.492 142.559 190.654 142.718 189.685 142.718H186.365V140.297H189.114C189.578 140.297 189.965 140.237 190.275 140.117C190.589 139.993 190.827 139.807 190.989 139.559C191.15 139.306 191.231 138.983 191.231 138.59C191.231 138.197 191.15 137.872 190.989 137.616C190.827 137.355 190.589 137.161 190.275 137.032C189.961 136.9 189.574 136.834 189.114 136.834H187.6V147.069H184.527ZM191.684 141.259L194.85 147.069H191.498L188.394 141.259H191.684ZM196.1 147.069V134.357H199.173V139.732H199.34L203.543 134.357H207.161L202.655 140.03L207.242 147.069H203.567L200.402 142.073L199.173 143.624V147.069H196.1ZM208.373 147.069V134.357H217.237V136.852H211.446V139.459H216.784V141.961H211.446V144.574H217.237V147.069H208.373ZM218.745 136.852V134.357H229.49V136.852H225.635V147.069H222.606V136.852H218.745ZM234.063 134.357V147.069H230.99V134.357H234.063ZM246.81 134.357V147.069H244.203L239.145 139.732H239.064V147.069H235.992V134.357H238.636L243.639 141.681H243.744V134.357H246.81ZM257.085 138.51C257.014 138.249 256.911 138.019 256.774 137.821C256.638 137.618 256.47 137.446 256.272 137.306C256.073 137.165 255.845 137.059 255.589 136.989C255.332 136.914 255.051 136.877 254.745 136.877C254.128 136.877 253.594 137.026 253.143 137.324C252.696 137.622 252.351 138.057 252.107 138.628C251.862 139.195 251.74 139.884 251.74 140.695C251.74 141.51 251.858 142.205 252.094 142.78C252.33 143.355 252.671 143.794 253.118 144.096C253.565 144.398 254.107 144.549 254.745 144.549C255.307 144.549 255.783 144.458 256.172 144.276C256.565 144.09 256.863 143.827 257.066 143.488C257.269 143.148 257.37 142.749 257.37 142.29L257.941 142.358H254.85V140.117H260.331V141.799C260.331 142.937 260.089 143.912 259.605 144.723C259.125 145.534 258.463 146.157 257.618 146.591C256.778 147.026 255.812 147.243 254.72 147.243C253.507 147.243 252.442 146.98 251.523 146.455C250.605 145.929 249.889 145.18 249.376 144.208C248.862 143.231 248.606 142.073 248.606 140.732C248.606 139.689 248.761 138.764 249.071 137.957C249.382 137.146 249.814 136.459 250.369 135.897C250.927 135.334 251.573 134.908 252.305 134.618C253.042 134.328 253.834 134.183 254.683 134.183C255.419 134.183 256.104 134.289 256.737 134.5C257.374 134.711 257.937 135.009 258.425 135.394C258.918 135.779 259.317 136.236 259.623 136.765C259.93 137.295 260.12 137.877 260.194 138.51H257.085Z" fill="#0E59AE"/>
<g filter="url(#filter0_d_3055_28660)">
<rect x="37.5781" y="231.869" width="49.3383" height="49.3383" rx="24.6692" fill="#EAF2FF" shape-rendering="crispEdges"/>
<rect x="47.3828" y="242.955" width="29.7278" height="16.4016" fill="#B8CEFF"/>
<g clip-path="url(#clip0_3055_28660)">
<path d="M66.4676 267.886C61.5223 267.886 57.5 263.662 57.5 258.47C57.5 253.277 61.5223 249.052 66.4676 249.052C71.4129 249.052 75.4352 253.275 75.4352 258.468C75.4352 263.66 71.4129 267.886 66.4676 267.886ZM66.4676 250.845C62.4633 250.845 59.2078 254.265 59.2078 258.468C59.2078 262.67 62.4653 266.09 66.4676 266.09C70.4699 266.09 73.7274 262.67 73.7274 258.468C73.7274 254.265 70.4719 250.845 66.4676 250.845Z" fill="#3688FF"/>
<path d="M75.6486 269.006C75.4303 269.006 75.2121 268.918 75.0439 268.743L73.1219 266.725C72.7875 266.374 72.7875 265.807 73.1219 265.458C73.4542 265.107 73.9968 265.107 74.3292 265.458L76.2512 267.476C76.5856 267.827 76.5856 268.394 76.2512 268.743C76.087 268.92 75.8668 269.006 75.6486 269.006Z" fill="#5F6379"/>
</g>
</g>
<g filter="url(#filter1_d_3055_28660)">
<rect x="29.7148" y="156.438" width="49.3383" height="49.3383" rx="24.6692" fill="#EAF2FF" shape-rendering="crispEdges"/>
<path fill-rule="evenodd" clip-rule="evenodd" d="M42.7344 175.281C42.7344 173.35 44.2995 171.785 46.2302 171.785H62.544C64.4747 171.785 66.0398 173.35 66.0398 175.281V186.933C66.0398 188.864 64.4747 190.429 62.544 190.429H46.2302C44.2995 190.429 42.7344 188.864 42.7344 186.933V175.281ZM52.0565 183.438V184.603C52.0565 185.246 52.5782 185.768 53.2218 185.768C53.8654 185.768 54.3871 185.246 54.3871 184.603V179.942C54.3871 178.011 52.822 176.446 50.8913 176.446C48.9606 176.446 47.3955 178.011 47.3955 179.942V184.603C47.3955 185.246 47.9172 185.768 48.5607 185.768C49.2043 185.768 49.726 185.246 49.726 184.603V183.438H52.0565ZM61.3787 177.611C61.3787 176.968 60.857 176.446 60.2134 176.446C59.5699 176.446 59.0482 176.968 59.0482 177.611V179.942H58.4655C57.5668 179.942 56.807 180.29 56.2837 180.879C55.7795 181.446 55.5524 182.17 55.5524 182.855C55.5524 183.54 55.7795 184.263 56.2837 184.831C56.8069 185.419 57.5667 185.768 58.4655 185.768H60.2134C60.857 185.768 61.3787 185.246 61.3787 184.603V181.115V181.107V181.099V177.611Z" fill="#E36872"/>
<path d="M58.4654 182.272H59.0481V183.438H58.4654C58.1991 183.438 58.0849 183.349 58.0254 183.283C57.947 183.194 57.8828 183.044 57.8828 182.855C57.8828 182.666 57.947 182.516 58.0254 182.427C58.0849 182.361 58.1991 182.272 58.4654 182.272Z" fill="#E36872"/>
<path d="M50.8918 178.776C50.2483 178.776 49.7266 179.298 49.7266 179.942V181.107H52.0571V179.942C52.0571 179.298 51.5354 178.776 50.8918 178.776Z" fill="#E36872"/>
</g>
<g filter="url(#filter2_d_3055_28660)">
<rect x="66.2031" y="83.8539" width="49.3383" height="49.3383" rx="24.6692" fill="#EAF2FF" shape-rendering="crispEdges"/>
<g clip-path="url(#clip1_3055_28660)">
<path d="M104.01 95.3871V122.506H76.9027V97.993H76.8906V95.5758H76.9147C76.8987 95.5155 76.8906 95.4513 76.8906 95.3871C76.8906 94.9212 77.2681 94.5398 77.7379 94.5398H103.163C103.632 94.5398 104.01 94.9212 104.01 95.3871Z" fill="#44494F"/>
<path d="M103.521 97.8605H77.3828V121.945H103.521V97.8605Z" fill="white"/>
<path opacity="0.06" d="M103.521 97.8605H77.3828V98.9602H103.521V97.8605Z" fill="#0D0D0D"/>
<path d="M83.5571 96.9495C83.9123 96.9495 84.2002 96.643 84.2002 96.265C84.2002 95.8869 83.9123 95.5804 83.5571 95.5804C83.202 95.5804 82.9141 95.8869 82.9141 96.265C82.9141 96.643 83.202 96.9495 83.5571 96.9495Z" fill="#8BC66F"/>
<path d="M81.2134 96.9495C81.5685 96.9495 81.8564 96.643 81.8564 96.265C81.8564 95.8869 81.5685 95.5804 81.2134 95.5804C80.8582 95.5804 80.5703 95.8869 80.5703 96.265C80.5703 96.643 80.8582 96.9495 81.2134 96.9495Z" fill="#F4DB6D"/>
<path d="M78.8774 96.9495C79.2326 96.9495 79.5205 96.643 79.5205 96.265C79.5205 95.8869 79.2326 95.5804 78.8774 95.5804C78.5223 95.5804 78.2344 95.8869 78.2344 96.265C78.2344 96.643 78.5223 96.9495 78.8774 96.9495Z" fill="#E06276"/>
<g opacity="0.5">
<path d="M87.5775 114.275H84.1445V117.141H87.5775V114.275Z" fill="#CDE3DF"/>
<path d="M90.4152 116.546H88.1211V116.941H90.4152V116.546Z" fill="#CDE3DF"/>
<path d="M92.8596 114.391H88.1211V114.804H92.8596V114.391Z" fill="#CDE3DF"/>
<path d="M92.8596 115.464H88.1211V115.877H92.8596V115.464Z" fill="#CDE3DF"/>
<path opacity="0.5" d="M87.5775 114.275H84.1445V117.141H87.5775V114.275Z" fill="#C9E5E1"/>
<g opacity="0.5">
<path d="M90.4152 116.546H88.1211V116.941H90.4152V116.546Z" fill="#C9E5E1"/>
<path d="M92.8596 114.391H88.1211V114.804H92.8596V114.391Z" fill="#C9E5E1"/>
<path d="M92.8596 115.464H88.1211V115.877H92.8596V115.464Z" fill="#C9E5E1"/>
</g>
</g>
<path opacity="0.5" d="M92.8206 119.861H88.082V120.274H92.8206V119.861Z" fill="#CDE3DF"/>
<path opacity="0.5" d="M83.4217 104.726H78.5742V106.076H83.4217V104.726Z" fill="#CDE3DF"/>
<path opacity="0.5" d="M83.4217 106.951H78.5742V108.302H83.4217V106.951Z" fill="#CDE3DF"/>
<path opacity="0.5" d="M83.4217 109.176H78.5742V110.527H83.4217V109.176Z" fill="#CDE3DF"/>
<path opacity="0.5" d="M83.4217 111.401H78.5742V112.752H83.4217V111.401Z" fill="#CDE3DF"/>
<path opacity="0.5" d="M102.43 102.684H78.4727V103.829H102.43V102.684Z" fill="#CDE3DF"/>
<path opacity="0.5" d="M102.43 118.406H78.4727V118.647H102.43V118.406Z" fill="#CDE3DF"/>
<g opacity="0.5">
<path d="M97.2337 114.238H93.8008V117.104H97.2337V114.238Z" fill="#CDE3DF"/>
<path d="M100.071 116.509H97.7773V116.904H100.071V116.509Z" fill="#CDE3DF"/>
<path d="M102.516 114.354H97.7773V114.767H102.516V114.354Z" fill="#CDE3DF"/>
<path d="M102.516 115.427H97.7773V115.84H102.516V115.427Z" fill="#CDE3DF"/>
<path opacity="0.5" d="M97.2337 114.238H93.8008V117.104H97.2337V114.238Z" fill="#C9E5E1"/>
<g opacity="0.5">
<path d="M100.071 116.509H97.7773V116.904H100.071V116.509Z" fill="#C9E5E1"/>
<path d="M102.516 114.354H97.7773V114.767H102.516V114.354Z" fill="#C9E5E1"/>
<path d="M102.516 115.427H97.7773V115.84H102.516V115.427Z" fill="#C9E5E1"/>
</g>
</g>
<path d="M99.9577 100.381C99.9206 100.223 99.8437 100.076 99.7355 99.9555C99.6272 99.8348 99.4875 99.74 99.3242 99.6856C99.3074 99.68 99.2903 99.6747 99.273 99.67C99.1195 99.628 98.9647 99.6258 98.8192 99.6568C98.647 99.6934 98.4879 99.7764 98.3599 99.8961L99.0704 100.614L98.36 99.8961C98.234 100.014 98.1379 100.167 98.089 100.345C98.0401 100.524 98.0451 100.705 98.0936 100.87C98.143 101.038 98.2376 101.191 98.3672 101.31C98.3683 101.311 98.3693 101.312 98.3706 101.313C98.4794 101.412 98.6127 101.488 98.7645 101.53C98.7819 101.534 98.7992 101.538 98.8165 101.542C98.9848 101.578 99.1534 101.568 99.3079 101.519C99.3093 101.519 99.3108 101.518 99.3121 101.518C99.4651 101.469 99.6042 101.382 99.7157 101.266C99.823 101.154 99.9047 101.014 99.9485 100.854C99.9923 100.694 99.993 100.532 99.9577 100.381Z" fill="#7BCAD4"/>
<path d="M102.157 100.381C102.12 100.223 102.043 100.076 101.935 99.9555C101.827 99.8348 101.687 99.74 101.524 99.6856C101.507 99.68 101.49 99.6747 101.472 99.67C101.319 99.628 101.164 99.6258 101.018 99.6568C100.846 99.6934 100.687 99.7764 100.559 99.8961L101.27 100.614L101.271 100.615H101.271L101.27 100.614L100.559 99.8961C100.433 100.014 100.337 100.167 100.288 100.345C100.239 100.524 100.244 100.705 100.293 100.87C100.342 101.038 100.437 101.191 100.566 101.31C100.568 101.311 100.569 101.312 100.57 101.313C100.679 101.412 100.812 101.488 100.964 101.53C100.981 101.534 100.998 101.538 101.016 101.542C101.184 101.578 101.353 101.568 101.507 101.519C101.509 101.519 101.51 101.518 101.511 101.518C101.664 101.469 101.803 101.382 101.915 101.266C102.022 101.154 102.104 101.014 102.148 100.854C102.192 100.694 102.192 100.532 102.157 100.381Z" fill="#4F9FD8"/>
<path d="M87.4108 101.735V100.193H87.1016V101.98H88.3864V101.735H87.4108Z" fill="#44494F"/>
<path d="M90.1137 100.836C90.1097 100.767 90.1017 100.703 90.0896 100.647C90.0736 100.591 90.0535 100.539 90.0254 100.494C90.0013 100.446 89.9611 100.402 89.9129 100.358C89.8447 100.298 89.7684 100.253 89.684 100.221C89.5997 100.193 89.4994 100.177 89.3909 100.177C89.2785 100.177 89.1781 100.193 89.0938 100.221C89.0095 100.253 88.9332 100.298 88.8649 100.358C88.8168 100.402 88.7766 100.446 88.7525 100.494C88.7244 100.539 88.7043 100.591 88.6883 100.647C88.6763 100.703 88.6682 100.767 88.6642 100.836C88.6642 100.908 88.6602 100.992 88.6602 101.085C88.6602 101.177 88.6642 101.261 88.6642 101.334C88.6682 101.402 88.6763 101.466 88.6883 101.522C88.7043 101.579 88.7244 101.631 88.7525 101.679C88.7766 101.723 88.8168 101.771 88.8649 101.811C88.9332 101.872 89.0095 101.916 89.0938 101.948C89.1781 101.98 89.2785 101.992 89.3909 101.992C89.4994 101.992 89.5998 101.98 89.684 101.948C89.7684 101.916 89.8447 101.872 89.9129 101.811C89.9611 101.771 90.0013 101.723 90.0254 101.679C90.0535 101.631 90.0736 101.579 90.0896 101.522C90.1017 101.466 90.1097 101.402 90.1137 101.334C90.1137 101.261 90.1177 101.177 90.1177 101.085C90.1177 100.992 90.1137 100.908 90.1137 100.836ZM89.8045 101.31C89.8045 101.37 89.7965 101.418 89.7885 101.462C89.7805 101.502 89.7684 101.534 89.7524 101.562C89.7363 101.591 89.7162 101.615 89.6921 101.639C89.652 101.675 89.6079 101.703 89.5556 101.723C89.5075 101.743 89.4512 101.751 89.391 101.751C89.3268 101.751 89.2706 101.743 89.2224 101.723C89.1702 101.703 89.126 101.675 89.0858 101.639C89.0617 101.615 89.0416 101.591 89.0256 101.562C89.0096 101.534 88.9975 101.502 88.9895 101.458C88.9814 101.418 88.9734 101.366 88.9734 101.306C88.9694 101.249 88.9694 101.173 88.9694 101.085C88.9694 100.996 88.9694 100.92 88.9734 100.86C88.9734 100.8 88.9814 100.751 88.9895 100.711C88.9975 100.667 89.0096 100.635 89.0256 100.607C89.0417 100.579 89.0617 100.551 89.0858 100.526C89.1661 100.454 89.2665 100.418 89.391 100.418C89.5114 100.418 89.6118 100.454 89.6921 100.526C89.7162 100.551 89.7363 100.575 89.7524 100.603C89.7684 100.631 89.7805 100.667 89.7885 100.707C89.7965 100.751 89.8045 100.8 89.8045 100.86C89.8086 100.92 89.8086 100.996 89.8086 101.085C89.8086 101.173 89.8086 101.249 89.8045 101.31Z" fill="#44494F"/>
<path d="M91.2269 101.012V101.245H91.6605V101.342C91.6605 101.402 91.6525 101.454 91.6364 101.498C91.6243 101.546 91.5963 101.587 91.5601 101.627C91.52 101.667 91.4717 101.699 91.4115 101.719C91.3553 101.743 91.291 101.751 91.2268 101.751C91.1064 101.751 91.006 101.715 90.9257 101.643C90.9016 101.619 90.8815 101.595 90.8654 101.562C90.8494 101.534 90.8373 101.502 90.8253 101.462C90.8172 101.418 90.8133 101.37 90.8092 101.31C90.8052 101.249 90.8052 101.173 90.8052 101.085C90.8052 100.996 90.8052 100.92 90.8092 100.86C90.8133 100.8 90.8172 100.751 90.8253 100.711C90.8373 100.667 90.8494 100.635 90.8654 100.607C90.8815 100.579 90.9016 100.551 90.9257 100.526C91.006 100.454 91.1064 100.418 91.2268 100.418C91.3393 100.418 91.4316 100.446 91.5038 100.498C91.5761 100.555 91.6283 100.631 91.6524 100.727H91.9616C91.9455 100.655 91.9214 100.583 91.8853 100.515C91.8451 100.45 91.7969 100.39 91.7327 100.338C91.6725 100.29 91.6002 100.249 91.5119 100.221C91.4275 100.189 91.3312 100.177 91.2268 100.177C91.1144 100.177 91.018 100.193 90.9297 100.221C90.8453 100.253 90.769 100.298 90.7048 100.358C90.6526 100.402 90.6165 100.446 90.5883 100.494C90.5602 100.539 90.5401 100.591 90.5281 100.647C90.5121 100.703 90.504 100.767 90.504 100.836C90.5 100.908 90.5 100.992 90.5 101.085C90.5 101.177 90.5 101.261 90.504 101.334C90.504 101.402 90.5121 101.466 90.5281 101.522C90.5401 101.579 90.5602 101.631 90.5883 101.679C90.6165 101.723 90.6526 101.771 90.7048 101.811C90.769 101.872 90.8453 101.916 90.9297 101.948C91.018 101.98 91.1144 101.992 91.2268 101.992C91.3352 101.992 91.4356 101.976 91.5279 101.944C91.6243 101.912 91.7086 101.86 91.7849 101.791C91.8492 101.727 91.8973 101.655 91.9255 101.579C91.9536 101.502 91.9656 101.402 91.9656 101.285V101.012H91.2269Z" fill="#44494F"/>
<path d="M93.7973 100.836C93.7933 100.767 93.7852 100.703 93.7732 100.647C93.7572 100.591 93.7371 100.539 93.713 100.494C93.6848 100.446 93.6447 100.402 93.5965 100.358C93.5282 100.298 93.4519 100.253 93.3676 100.221C93.2833 100.193 93.1829 100.177 93.0745 100.177C92.9621 100.177 92.8617 100.193 92.7773 100.221C92.6931 100.253 92.6168 100.298 92.5485 100.358C92.5003 100.402 92.4601 100.446 92.4361 100.494C92.4079 100.539 92.3879 100.591 92.3718 100.647C92.3598 100.703 92.3518 100.767 92.3477 100.836C92.3477 100.908 92.3438 100.992 92.3438 101.085C92.3438 101.177 92.3477 101.261 92.3477 101.334C92.3518 101.402 92.3598 101.466 92.3718 101.522C92.3879 101.579 92.408 101.631 92.4361 101.679C92.4601 101.723 92.5003 101.771 92.5485 101.811C92.6168 101.872 92.6931 101.916 92.7773 101.948C92.8617 101.98 92.9621 101.992 93.0745 101.992C93.1829 101.992 93.2833 101.98 93.3676 101.948C93.4519 101.916 93.5282 101.872 93.5965 101.811C93.6447 101.771 93.6848 101.723 93.713 101.679C93.7371 101.631 93.7572 101.579 93.7732 101.522C93.7852 101.466 93.7933 101.402 93.7973 101.334C93.7973 101.261 93.8013 101.177 93.8013 101.085C93.8013 100.992 93.7973 100.908 93.7973 100.836ZM93.4881 101.31C93.4881 101.37 93.4801 101.418 93.4721 101.462C93.464 101.502 93.452 101.534 93.4359 101.562C93.4199 101.591 93.3998 101.615 93.3757 101.639C93.3355 101.675 93.2914 101.703 93.2392 101.723C93.191 101.743 93.1348 101.751 93.0745 101.751C93.0103 101.751 92.9541 101.743 92.9059 101.723C92.8537 101.703 92.8096 101.675 92.7694 101.639C92.7453 101.615 92.7252 101.591 92.7092 101.562C92.6931 101.534 92.681 101.502 92.673 101.458C92.665 101.418 92.657 101.366 92.657 101.306C92.6529 101.249 92.6529 101.173 92.6529 101.085C92.6529 100.996 92.6529 100.92 92.657 100.86C92.657 100.8 92.665 100.751 92.673 100.711C92.681 100.667 92.6931 100.635 92.7092 100.607C92.7252 100.579 92.7453 100.551 92.7694 100.526C92.8497 100.454 92.9501 100.418 93.0745 100.418C93.195 100.418 93.2954 100.454 93.3757 100.526C93.3998 100.551 93.4199 100.575 93.4359 100.603C93.452 100.631 93.464 100.667 93.4721 100.707C93.4801 100.751 93.4881 100.8 93.4881 100.86C93.4922 100.92 93.4922 100.996 93.4922 101.085C93.4922 101.173 93.4922 101.249 93.4881 101.31Z" fill="#44494F"/>
<path d="M102.43 104.746H84.1289V113.606H102.43V104.746Z" fill="#CCE3AE"/>
<path opacity="0.8" d="M92.429 107.748C93.1557 107.748 93.7448 107.173 93.7448 106.463C93.7448 105.754 93.1557 105.178 92.429 105.178C91.7024 105.178 91.1133 105.754 91.1133 106.463C91.1133 107.173 91.7024 107.748 92.429 107.748Z" fill="#F9F8C9"/>
<g opacity="0.5">
<path d="M94.6392 113.606H84.1445L87.8753 109.297C88.7085 108.333 90.0752 108.333 90.9084 109.297L92.3245 110.934L94.6392 113.606Z" fill="#7BC48E"/>
</g>
<g opacity="0.5">
<path d="M102.429 111.675V113.606H90.1641L92.4874 110.934L95.5777 107.384C96.4337 106.395 97.8417 106.395 98.6977 107.384L102.429 111.675Z" fill="#7BC48E"/>
</g>
</g>
</g>
<g filter="url(#filter3_d_3055_28660)">
<rect x="140.211" y="43.7664" width="49.3383" height="49.3383" rx="24.6692" fill="#EAF2FF" shape-rendering="crispEdges"/>
<path d="M162.762 58.3209C161.872 58.3209 161.002 58.585 160.262 59.0798C159.522 59.5746 158.946 60.2777 158.606 61.1003C158.266 61.9229 158.177 62.8279 158.352 63.7007C158.526 64.5735 158.956 65.375 159.586 66.0035C160.216 66.6321 161.019 67.0596 161.892 67.2318C162.765 67.4041 163.67 67.3133 164.492 66.9711C165.313 66.6289 166.015 66.0505 166.508 65.3093C167.001 64.5681 167.263 63.6973 167.26 62.8072C167.26 62.2171 167.144 61.6328 166.918 61.0877C166.691 60.5426 166.36 60.0476 165.942 59.6308C165.524 59.2141 165.028 58.8839 164.483 58.6591C163.937 58.4343 163.352 58.3194 162.762 58.3209ZM170.628 67.2702C170.559 67.2716 170.492 67.2966 170.439 67.3411C170.386 67.3857 170.35 67.447 170.337 67.5149L170.127 68.9948C169.791 69.1369 169.471 69.3126 169.171 69.5192L167.773 68.9599C167.706 68.9486 167.638 68.9569 167.576 68.9838C167.514 69.0107 167.461 69.055 167.423 69.1114L166.258 71.0457C166.224 71.1042 166.212 71.173 166.225 71.2394C166.238 71.3059 166.275 71.3654 166.328 71.4069L167.493 72.3275C167.444 72.7144 167.444 73.1059 167.493 73.4928L166.328 74.4133C166.276 74.4529 166.239 74.5104 166.227 74.5748C166.214 74.6393 166.225 74.7062 166.258 74.7629L167.423 76.7089C167.493 76.8604 167.645 76.8604 167.773 76.8604L169.171 76.2894C169.467 76.5065 169.788 76.6865 170.127 76.8255L170.337 78.3053C170.348 78.3732 170.384 78.4345 170.438 78.4775C170.491 78.5205 170.559 78.5422 170.628 78.5384H172.877C172.942 78.5366 173.004 78.5124 173.053 78.4699C173.102 78.4274 173.134 78.3692 173.145 78.3053L173.355 76.8255C173.685 76.6765 174.001 76.4971 174.299 76.2894L175.685 76.8604C175.825 76.8604 175.976 76.8604 176.058 76.7089L177.223 74.7629C177.257 74.7062 177.268 74.6393 177.255 74.5748C177.242 74.5104 177.206 74.4529 177.153 74.4133L175.988 73.4928C176 73.3026 176 73.1119 175.988 72.9218C176.005 72.7357 176.005 72.5485 175.988 72.3625L177.153 71.4419C177.205 71.3989 177.24 71.3395 177.253 71.2737C177.265 71.2079 177.255 71.1397 177.223 71.0807L176.058 69.1463C175.988 68.9948 175.837 68.9948 175.697 68.9948L174.299 69.6008C174.001 69.3898 173.681 69.2139 173.343 69.0764L173.133 67.5965C173.128 67.5315 173.098 67.4708 173.051 67.4257C173.004 67.3807 172.942 67.3544 172.877 67.3518H170.756M162.89 69.6008C157.926 69.6008 153.906 71.5817 153.906 74.0638V76.3011H164.778C164.288 75.2647 164.033 74.1325 164.033 72.9859C164.033 71.8393 164.288 70.707 164.778 69.6707C164.151 69.6098 163.521 69.5864 162.89 69.6008ZM171.747 71.2671C171.979 71.2477 172.214 71.2768 172.435 71.3527C172.656 71.4285 172.859 71.5493 173.031 71.7076C173.203 71.8658 173.34 72.058 173.434 72.272C173.528 72.4861 173.576 72.7172 173.576 72.9509C173.576 73.1846 173.528 73.4158 173.434 73.6298C173.34 73.8438 173.203 74.036 173.031 74.1943C172.859 74.3525 172.656 74.4734 172.435 74.5492C172.214 74.625 171.979 74.6541 171.747 74.6347C171.324 74.5996 170.93 74.4069 170.643 74.095C170.356 73.7831 170.197 73.3748 170.197 72.9509C170.197 72.5271 170.356 72.1187 170.643 71.8068C170.93 71.4949 171.324 71.3023 171.747 71.2671Z" fill="#41C3F1"/>
</g>
<g filter="url(#filter4_d_3055_28660)">
<rect x="214.219" y="43.7664" width="49.3383" height="49.3383" rx="24.6692" fill="#EAF2FF" shape-rendering="crispEdges"/>
<g clip-path="url(#clip2_3055_28660)">
<path d="M244.26 74.3217H233.117V80.609H244.26V74.3217Z" fill="#BED7FF"/>
<path d="M233.117 75.4091H239.747L233.117 78.7696V75.4091Z" fill="#0E59AE"/>
<path d="M245.736 81.8902H231.638C231.091 81.8902 230.645 81.4427 230.645 80.8967C230.645 80.3497 231.092 79.9031 231.638 79.9031H245.735C246.282 79.9031 246.728 80.3506 246.728 80.8967C246.729 81.4436 246.282 81.8902 245.736 81.8902Z" fill="#0E59AE"/>
<path d="M251.689 75.409H225.689C224.668 75.409 223.832 74.5733 223.832 73.5519V56.8375C223.832 55.8161 224.668 54.9803 225.689 54.9803H251.689C252.711 54.9803 253.546 55.8161 253.546 56.8375V73.5519C253.546 74.5733 252.711 75.409 251.689 75.409Z" fill="#0E59AE"/>
<path d="M252.276 56.2534H225.105V74.1359H252.276V56.2534Z" fill="#BED7FF"/>
<path d="M230.777 64.9701L236.106 62.384V63.3953L231.88 65.3629V65.3852L236.106 67.364V68.365L230.777 65.7789V64.9701Z" fill="#0BA4E0"/>
<path d="M236.887 68.8144L239.631 60.6633H240.597L237.853 68.8144H236.887Z" fill="#0BA4E0"/>
<path d="M246.603 65.802L241.273 68.3658V67.3648L245.569 65.386V65.3637L241.273 63.3849V62.3839L246.603 64.9477V65.802Z" fill="#0BA4E0"/>
</g>
</g>
<g filter="url(#filter5_d_3055_28660)">
<rect x="288.227" y="83.8539" width="49.3383" height="49.3383" rx="24.6692" fill="#EAF2FF" shape-rendering="crispEdges"/>
<g clip-path="url(#clip3_3055_28660)">
<path d="M315.225 95.7051H310.564C309.92 95.7051 309.398 96.2268 309.398 96.8703V121.341C309.398 121.985 309.92 122.506 310.564 122.506H315.225C315.868 122.506 316.39 121.985 316.39 121.341V96.8703C316.39 96.2268 315.868 95.7051 315.225 95.7051Z" fill="#EC5044"/>
<path d="M324.549 110.848H319.888C319.244 110.848 318.723 111.369 318.723 112.013V121.341C318.723 121.985 319.244 122.506 319.888 122.506H324.549C325.193 122.506 325.714 121.985 325.714 121.341V112.013C325.714 111.369 325.193 110.848 324.549 110.848Z" fill="#F6C253"/>
<path d="M305.904 105.027H301.243C300.6 105.027 300.078 105.549 300.078 106.192V121.341C300.078 121.985 300.6 122.506 301.243 122.506H305.904C306.548 122.506 307.07 121.985 307.07 121.341V106.192C307.07 105.549 306.548 105.027 305.904 105.027Z" fill="#41C3F1"/>
</g>
</g>
<g filter="url(#filter6_d_3055_28660)">
<rect x="324.457" y="156.438" width="49.3383" height="49.3383" rx="24.6692" fill="#EAF2FF" shape-rendering="crispEdges"/>
<g clip-path="url(#clip4_3055_28660)">
<path d="M349.128 195.09C356.851 195.09 363.111 188.83 363.111 181.107C363.111 173.384 356.851 167.124 349.128 167.124C341.405 167.124 335.145 173.384 335.145 181.107C335.145 188.83 341.405 195.09 349.128 195.09Z" fill="#FF7069"/>
<path d="M346.551 191.448L345.238 184.391L341.734 185.665L344.272 192.194C344.501 192.771 346.721 192.234 346.551 191.448Z" fill="#E4E7ED"/>
<path d="M345.316 184.839L345.236 184.381L341.723 185.655L341.942 186.203L345.316 184.839Z" fill="#C6CBD6"/>
<path d="M347.572 182.62L358.281 183.286L353.156 170.298L345.801 178.121C346.458 179.793 346.915 180.948 347.582 182.61L347.572 182.62Z" fill="#E4E7ED"/>
<path d="M347.574 182.62L358.283 183.287L357.825 182.122H347.375L347.574 182.62Z" fill="#C6CBD6"/>
<path d="M345.961 178.221C345.842 177.922 345.553 177.743 345.324 177.843L339.184 180.291C338.945 180.38 338.855 180.709 338.975 181.007L339.87 183.277L340.766 185.536C340.885 185.834 341.174 186.014 341.403 185.914L347.544 183.466C347.783 183.376 347.872 183.048 347.753 182.749L346.857 180.49L345.961 178.221Z" fill="#6C7678"/>
<path d="M358.863 182.968C358.972 183.247 358.873 183.555 358.624 183.655C358.385 183.754 358.097 183.605 357.987 183.316L352.911 170.478C352.802 170.199 352.901 169.891 353.15 169.791C353.389 169.691 353.678 169.851 353.787 170.129L358.863 182.968Z" fill="#6C7678"/>
<path d="M340.549 184.998L339.135 181.435C336.587 182.112 337.702 186.173 340.549 184.998Z" fill="#E4E7ED"/>
<path d="M358.953 175.245L357.102 175.971C356.992 176.011 356.952 176.17 357.012 176.32C357.072 176.469 357.211 176.559 357.321 176.519L359.172 175.792C359.281 175.752 359.321 175.593 359.261 175.444C359.202 175.295 359.062 175.205 358.953 175.245Z" fill="#FFE356"/>
<path d="M344.22 192.085L346.549 191.487C346.887 191.398 347.046 192.035 346.708 192.124L344.389 192.702C344.07 192.781 343.901 192.174 344.21 192.095L344.22 192.085Z" fill="#6C7678"/>
<path d="M357.077 171.632L355.883 173.225C355.813 173.314 355.863 173.473 355.993 173.573C356.122 173.673 356.281 173.673 356.351 173.583L357.545 171.991C357.615 171.901 357.565 171.742 357.436 171.642C357.306 171.543 357.147 171.543 357.077 171.632Z" fill="#FFE356"/>
<path d="M360.212 179.674L358.262 179.306C358.152 179.286 358.083 179.136 358.112 178.977C358.142 178.818 358.262 178.708 358.371 178.728L360.322 179.097C360.431 179.116 360.501 179.266 360.471 179.425C360.441 179.584 360.322 179.694 360.212 179.674Z" fill="#FFE356"/>
<path d="M340.082 180.52C340.003 180.55 339.903 180.51 339.873 180.43C339.843 180.351 339.883 180.251 339.963 180.221L344.163 178.599C344.242 178.569 344.342 178.609 344.372 178.688C344.402 178.768 344.362 178.868 344.282 178.897L340.082 180.52Z" fill="#E4E7ED"/>
</g>
</g>
<g filter="url(#filter7_d_3055_28660)">
<rect x="324.715" y="231.869" width="49.3383" height="49.3383" rx="24.6692" fill="#EAF2FF" shape-rendering="crispEdges"/>
<g clip-path="url(#clip5_3055_28660)">
<path d="M350.085 247.361C349.186 245.304 347.133 243.865 344.744 243.865C342.355 243.865 340.302 245.304 339.403 247.361L338.918 247.944V249.692C338.918 252.91 341.526 255.518 344.744 255.518C347.962 255.518 350.57 252.91 350.57 249.692V247.944L350.085 247.361Z" fill="#F6BB42"/>
<path d="M350.57 247.944C350.57 251.162 347.962 253.77 344.744 253.77C341.526 253.77 338.918 251.162 338.918 247.944C338.918 244.726 341.526 242.118 344.744 242.118C347.962 242.118 350.57 244.726 350.57 247.944Z" fill="#FFCE54"/>
<path d="M347.658 252.46H346.492V254.426H347.658V252.46Z" fill="black"/>
<path d="M344.746 245.613C344.424 245.613 344.164 245.874 344.164 246.196V249.692C344.164 250.014 344.424 250.275 344.746 250.275C345.068 250.275 345.329 250.014 345.329 249.692V246.196C345.329 245.874 345.068 245.613 344.746 245.613Z" fill="#E8AA3D"/>
<path d="M357.498 258.2C357.498 257.475 356.981 256.887 356.251 256.887C355.52 256.887 354.688 257.475 354.688 258.2V257.555C354.688 256.83 353.945 256.241 353.216 256.241C352.484 256.241 351.743 256.83 351.743 257.555V256.576C351.743 255.858 351.009 255.276 350.29 255.263C350.258 255.261 350.226 255.259 350.193 255.259C349.463 255.259 348.728 255.847 348.728 256.573V251.589C348.728 250.863 348.039 250.275 347.308 250.275C346.577 250.275 345.91 250.863 345.91 251.589V261.622L344.943 260.36C344.432 259.693 343.473 259.563 342.802 260.071C342.13 260.579 342 261.531 342.512 262.198L347.042 268.109L347.311 268.935C347.385 269.26 347.677 269.502 348.026 269.502H355.168C355.168 269.502 355.169 269.501 355.171 269.5C355.177 269.5 355.182 269.502 355.188 269.502C355.523 269.502 355.803 269.28 355.893 268.976C355.895 268.971 355.897 268.968 355.898 268.963C357.801 261.194 357.498 258.2 357.498 258.2Z" fill="#F5F7FA"/>
<path d="M358.081 258.173C358.067 257.123 357.269 256.304 356.251 256.304C355.833 256.304 355.394 256.443 355.023 256.682C354.669 256.084 353.974 255.659 353.216 255.659C352.85 255.659 352.499 255.758 352.195 255.927C352.084 255.664 351.906 255.421 351.668 255.215C351.289 254.887 350.796 254.692 350.313 254.68C350.279 254.679 350.239 254.676 350.193 254.676C349.883 254.676 349.581 254.748 349.311 254.875V251.589C349.311 250.561 348.394 249.692 347.309 249.692C346.235 249.692 345.328 250.56 345.328 251.589V259.909C344.926 259.443 344.35 259.178 343.727 259.178C343.262 259.178 342.821 259.327 342.451 259.607C342.001 259.947 341.711 260.441 341.636 260.998C341.561 261.555 341.708 262.106 342.05 262.553L346.519 268.384L346.75 269.096C346.898 269.679 347.42 270.084 348.026 270.084H355.255L355.261 270.082C355.804 270.052 356.282 269.684 356.446 269.164C356.452 269.147 356.459 269.125 356.465 269.099C358.29 261.645 358.11 258.53 358.081 258.173ZM355.339 268.797C355.338 268.802 355.336 268.807 355.335 268.812C355.32 268.861 355.273 268.912 355.202 268.918C355.193 268.918 355.183 268.917 355.172 268.917H354.98L354.979 268.918H348.026C347.946 268.918 347.891 268.861 347.879 268.804L347.873 268.78L347.565 267.834L342.975 261.844C342.823 261.646 342.758 261.401 342.791 261.155C342.824 260.908 342.953 260.687 343.154 260.535C343.32 260.411 343.518 260.344 343.727 260.344C344.026 260.344 344.301 260.479 344.481 260.713L346.494 263.34V251.589C346.494 251.206 346.882 250.857 347.309 250.857C347.739 250.857 348.146 251.213 348.146 251.589V256.573V259.004H348.147C348.147 259.008 348.146 259.011 348.146 259.015C348.146 259.336 348.407 259.597 348.729 259.597C349.05 259.597 349.311 259.336 349.311 259.015C349.311 259.011 349.311 259.008 349.311 259.004V256.573C349.311 256.204 349.749 255.841 350.193 255.841C350.212 255.841 350.231 255.843 350.248 255.844L350.279 255.845C350.724 255.853 351.161 256.216 351.161 256.576V257.555V259.004C351.161 259.008 351.161 259.011 351.161 259.015C351.161 259.335 351.421 259.597 351.743 259.597C352.065 259.597 352.326 259.335 352.326 259.015C352.326 259.011 352.325 259.008 352.325 259.004H352.326V257.555C352.326 257.186 352.766 256.824 353.216 256.824C353.657 256.824 354.106 257.193 354.106 257.555V258.2V259.004H354.106C354.106 259.008 354.106 259.011 354.106 259.015C354.106 259.335 354.367 259.597 354.689 259.597C355.01 259.597 355.271 259.335 355.271 259.015C355.271 259.011 355.271 259.008 355.271 259.004H355.271V258.2C355.271 257.852 355.784 257.47 356.251 257.47C356.687 257.47 356.915 257.837 356.915 258.2V258.228L356.919 258.258C356.921 258.287 357.176 261.287 355.339 268.797Z" fill="#434A54"/>
</g>
</g>
<path d="M225.347 292.459H193.957V316.737H225.347V292.459Z" fill="#B2DAFC"/>
<path d="M245.696 322.377H173.598V318.33C173.598 316.096 175.409 314.284 177.644 314.284H241.65C243.884 314.284 245.696 316.095 245.696 318.33V322.377H245.696Z" fill="#739CD7"/>
<path d="M193.957 298.774L225.347 303.188V292.459H193.957V298.774Z" fill="#95C8ED"/>
<path d="M306.702 296.991H112.601C110.265 296.991 108.371 295.097 108.371 292.761V165.981C108.371 163.644 110.265 161.75 112.601 161.75H306.702C309.038 161.75 310.932 163.644 310.932 165.981V292.761C310.932 295.097 309.038 296.991 306.702 296.991Z" fill="#759BD7"/>
<path d="M306.638 165.429H112.66V282.772H306.638V165.429Z" fill="#E2EDF9"/>
<path d="M214.003 289.7C214.003 291.934 212.192 293.746 209.957 293.746C207.722 293.746 205.91 291.935 205.91 289.7C205.91 287.465 207.722 285.653 209.957 285.653C212.192 285.653 214.003 287.465 214.003 289.7Z" fill="#95C8ED"/>
<path d="M197.809 256.083H163.414V258.753H197.809V256.083Z" fill="#ACC5E8"/>
<path d="M186.153 260.573H163.414V263.243H186.153V260.573Z" fill="#F7F7F7"/>
<path d="M242.904 177.511H177.176V180.18H242.904V177.511Z" fill="#ACC5E8"/>
<path d="M242.904 183.802H177.176V186.471H242.904V183.802Z" fill="#ACC5E8"/>
<path d="M221.216 190.092H177.176V192.762H221.216V190.092Z" fill="#ACC5E8"/>
<path d="M285.926 240.704H251.531V243.374H285.926V240.704Z" fill="#ACC5E8"/>
<path d="M274.27 245.194H251.531V247.864H274.27V245.194Z" fill="#F7F7F7"/>
<path d="M148.994 259.864L145.609 256.77L190.074 208.143L233.712 241.047L270.759 190.043L274.469 192.738L234.678 247.52L190.643 214.316L148.994 259.864Z" fill="#E36872"/>
<path d="M147.301 269.352C153.395 269.352 158.335 264.411 158.335 258.317C158.335 252.222 153.395 247.282 147.301 247.282C141.206 247.282 136.266 252.222 136.266 258.317C136.266 264.411 141.206 269.352 147.301 269.352Z" fill="#759BD7"/>
<path d="M147.301 265.872C151.474 265.872 154.857 262.49 154.857 258.317C154.857 254.144 151.474 250.762 147.301 250.762C143.129 250.762 139.746 254.144 139.746 258.317C139.746 262.49 143.129 265.872 147.301 265.872Z" fill="#F7F7F7"/>
<path d="M146.5 261.434V254.345L147.659 255.446H145.124V253.404H149.207V261.434H146.5Z" fill="#759BD7"/>
<path d="M190.355 222.264C196.45 222.264 201.39 217.323 201.39 211.229C201.39 205.135 196.45 200.194 190.355 200.194C184.261 200.194 179.32 205.135 179.32 211.229C179.32 217.323 184.261 222.264 190.355 222.264Z" fill="#759BD7"/>
<path d="M193.651 218.026C197.405 216.205 198.972 211.685 197.151 207.931C195.329 204.176 190.81 202.61 187.055 204.431C183.301 206.252 181.734 210.772 183.556 214.526C185.377 218.281 189.897 219.847 193.651 218.026Z" fill="#F7F7F7"/>
<path d="M187.587 214.346V212.683L190.489 209.999C190.673 209.823 190.806 209.67 190.891 209.54C190.982 209.41 191.043 209.295 191.074 209.196C191.105 209.089 191.12 208.989 191.12 208.898C191.12 208.699 191.055 208.546 190.925 208.439C190.795 208.324 190.6 208.267 190.34 208.267C190.103 208.267 189.877 208.332 189.663 208.462C189.449 208.584 189.281 208.768 189.158 209.012L187.116 207.991C187.407 207.441 187.843 206.993 188.424 206.649C189.005 206.305 189.728 206.133 190.592 206.133C191.227 206.133 191.789 206.236 192.279 206.443C192.768 206.649 193.15 206.94 193.426 207.314C193.701 207.689 193.839 208.133 193.839 208.645C193.839 208.905 193.804 209.165 193.735 209.425C193.674 209.685 193.544 209.961 193.345 210.251C193.147 210.534 192.852 210.851 192.462 211.203L190.283 213.188L189.858 212.247H194.022V214.346H187.587Z" fill="#759BD7"/>
<path d="M234.191 255.319C240.286 255.319 245.226 250.378 245.226 244.284C245.226 238.19 240.286 233.249 234.191 233.249C228.097 233.249 223.156 238.19 223.156 244.284C223.156 250.378 228.097 255.319 234.191 255.319Z" fill="#759BD7"/>
<path d="M241.645 245.488C242.316 241.369 239.521 237.487 235.403 236.816C231.284 236.145 227.401 238.94 226.731 243.058C226.06 247.177 228.854 251.059 232.973 251.73C237.091 252.401 240.974 249.606 241.645 245.488Z" fill="#F7F7F7"/>
<path d="M233.761 247.585C233.211 247.585 232.652 247.523 232.086 247.401C231.521 247.279 231.023 247.099 230.595 246.862L231.513 244.866C231.857 245.065 232.216 245.214 232.591 245.313C232.974 245.405 233.333 245.451 233.67 245.451C233.975 245.451 234.224 245.401 234.415 245.302C234.614 245.195 234.713 245.038 234.713 244.832C234.713 244.656 234.641 244.522 234.495 244.43C234.35 244.331 234.105 244.281 233.761 244.281H232.694V242.618L234.771 240.507L235.012 241.413H231.008V239.371H236.996V241.035L234.92 243.145L233.624 242.411H234.335C235.344 242.411 236.113 242.637 236.641 243.088C237.168 243.539 237.432 244.12 237.432 244.832C237.432 245.29 237.302 245.73 237.042 246.151C236.79 246.571 236.392 246.916 235.849 247.183C235.314 247.451 234.618 247.585 233.761 247.585Z" fill="#759BD7"/>
<path d="M278.076 208.975C287.074 205.96 291.924 196.222 288.909 187.224C285.895 178.226 276.157 173.376 267.159 176.391C258.161 179.406 253.311 189.144 256.326 198.141C259.341 207.139 269.079 211.989 278.076 208.975Z" fill="#759BD7"/>
<path d="M286.875 194.933C288.119 187.06 282.744 179.669 274.871 178.426C266.998 177.183 259.608 182.557 258.365 190.43C257.121 198.303 262.496 205.693 270.369 206.937C278.242 208.18 285.632 202.806 286.875 194.933Z" fill="#F7F7F7"/>
<path d="M272.617 203.727C278.711 203.727 283.652 198.786 283.652 192.692C283.652 186.598 278.711 181.657 272.617 181.657C266.523 181.657 261.582 186.598 261.582 192.692C261.582 198.786 266.523 203.727 272.617 203.727Z" fill="#759BD7"/>
<path d="M280.078 193.874C280.728 189.752 277.913 185.885 273.791 185.235C269.669 184.586 265.801 187.401 265.152 191.523C264.503 195.645 267.318 199.512 271.44 200.162C275.562 200.811 279.429 197.996 280.078 193.874Z" fill="#F7F7F7"/>
<path d="M274.247 196.68C276.445 195.774 277.493 193.258 276.588 191.06C275.682 188.862 273.166 187.814 270.968 188.72C268.77 189.625 267.722 192.141 268.628 194.339C269.533 196.537 272.049 197.585 274.247 196.68Z" fill="#F99595"/>
<path d="M162.084 181.57H129.289V214.365H162.084V181.57Z" fill="#ACC5E8"/>
<path d="M164.15 179.904H131.355V212.698H164.15V179.904Z" fill="white"/>
<path d="M164.112 182.103H130.484C129.27 182.103 128.285 181.118 128.285 179.904C128.285 178.689 129.269 177.705 130.484 177.705H164.112C165.326 177.705 166.311 178.689 166.311 179.904C166.31 181.118 165.326 182.103 164.112 182.103Z" fill="#96AFE4"/>
<path d="M135.73 181.15C136.311 181.15 136.781 180.679 136.781 180.099C136.781 179.519 136.311 179.048 135.73 179.048C135.15 179.048 134.68 179.519 134.68 180.099C134.68 180.679 135.15 181.15 135.73 181.15Z" fill="#7B8FDA"/>
<path d="M134.027 177.705C134.027 176.338 134.697 175.23 135.525 175.23C136.352 175.23 137.022 176.338 137.022 177.705C137.022 179.072 136.352 180.18 135.525 180.18" stroke="white" stroke-width="0.775999" stroke-miterlimit="10"/>
<path d="M160.195 181.15C160.776 181.15 161.246 180.679 161.246 180.099C161.246 179.519 160.776 179.048 160.195 179.048C159.615 179.048 159.145 179.519 159.145 180.099C159.145 180.679 159.615 181.15 160.195 181.15Z" fill="#7B8FDA"/>
<path d="M158.488 177.705C158.488 176.338 159.158 175.23 159.986 175.23C160.813 175.23 161.483 176.338 161.483 177.705C161.483 179.072 160.813 180.18 159.986 180.18" stroke="white" stroke-width="0.775999" stroke-miterlimit="10"/>
<path d="M148.703 181.15C149.283 181.15 149.754 180.679 149.754 180.099C149.754 179.519 149.283 179.048 148.703 179.048C148.123 179.048 147.652 179.519 147.652 180.099C147.652 180.679 148.123 181.15 148.703 181.15Z" fill="#7B8FDA"/>
<path d="M147 177.705C147 176.338 147.67 175.23 148.497 175.23C149.325 175.23 149.995 176.338 149.995 177.705C149.995 179.072 149.325 180.18 148.497 180.18" stroke="white" stroke-width="0.775999" stroke-miterlimit="10"/>
<path d="M140.857 200.54C140.071 200.54 139.325 200.442 138.621 200.245C137.917 200.038 137.301 199.738 136.773 199.344L138.202 197.155C138.595 197.445 139.041 197.667 139.537 197.822C140.045 197.978 140.552 198.055 141.059 198.055C141.484 198.055 141.841 198.009 142.131 197.916C142.421 197.812 142.638 197.667 142.783 197.481C142.938 197.284 143.016 197.051 143.016 196.782C143.016 196.482 142.897 196.254 142.659 196.099C142.431 195.943 142.069 195.866 141.572 195.866H140.252L140.64 193.925L144.134 190.772L144.305 191.828H138.714L139.196 189.452H147.053L146.681 191.378L143.187 194.53L141.789 193.707H142.472C143.228 193.707 143.875 193.826 144.414 194.064C144.962 194.292 145.382 194.623 145.671 195.058C145.972 195.493 146.122 196.006 146.122 196.596C146.122 197.351 145.894 198.03 145.438 198.63C144.993 199.22 144.372 199.686 143.575 200.028C142.778 200.369 141.872 200.54 140.857 200.54ZM151.441 200.54C150.613 200.54 149.893 200.374 149.283 200.043C148.672 199.712 148.201 199.236 147.869 198.614C147.538 197.993 147.372 197.238 147.372 196.347C147.372 195.353 147.512 194.427 147.792 193.568C148.071 192.698 148.47 191.942 148.987 191.3C149.505 190.648 150.116 190.141 150.82 189.778C151.524 189.416 152.3 189.235 153.149 189.235C153.977 189.235 154.692 189.401 155.292 189.732C155.903 190.063 156.374 190.539 156.705 191.161C157.047 191.782 157.218 192.537 157.218 193.428C157.218 194.422 157.073 195.353 156.783 196.223C156.504 197.082 156.105 197.838 155.587 198.49C155.08 199.132 154.474 199.634 153.77 199.997C153.066 200.359 152.29 200.54 151.441 200.54ZM151.736 198.024C152.14 198.024 152.492 197.874 152.792 197.574C153.092 197.263 153.341 196.875 153.537 196.409C153.734 195.943 153.879 195.452 153.972 194.934C154.076 194.416 154.128 193.94 154.128 193.505C154.128 192.874 154.009 192.424 153.77 192.154C153.543 191.885 153.237 191.751 152.854 191.751C152.45 191.751 152.098 191.906 151.798 192.216C151.498 192.517 151.25 192.9 151.053 193.366C150.856 193.831 150.706 194.323 150.602 194.841C150.509 195.359 150.463 195.835 150.463 196.27C150.463 196.901 150.577 197.351 150.804 197.621C151.042 197.89 151.353 198.024 151.736 198.024Z" fill="#759BD7"/>
<path d="M157.392 203.674H136.277V206.773H157.392V203.674Z" fill="#F0F4F7"/>
<path d="M8.11328 131.832L21.5547 111.513L34.9874 131.832H28.4327V148.001H14.6679V131.832H8.11328Z" fill="#7B8FDA"/>
<path d="M365.797 57.4371L379.238 37.1177L392.671 57.4371H386.116V73.6052H372.352V57.4371H365.797Z" fill="#60A2F4"/>
<path d="M384.602 130.24L394.595 115.133L404.582 130.24H399.709V142.26H389.475V130.24H384.602Z" fill="#96AFE4"/>
<path d="M259.637 29.7773L269.63 14.671L279.616 29.7773H274.743V41.7977H264.51V29.7773H259.637Z" fill="white"/>
<path d="M37.9258 43.3411L47.9186 28.2349L57.9052 43.3411H53.0321V55.3615H42.799V43.3411H37.9258Z" fill="#F99595"/>
<path d="M354.905 34.6697L328.328 34.7265C326.561 34.7292 325.127 33.2985 325.125 31.5314C325.122 29.7651 326.553 28.3301 328.319 28.3283L354.896 28.2706C356.663 28.268 358.098 29.6987 358.099 31.4658C358.103 33.2329 356.672 34.668 354.905 34.6697Z" fill="#B1DCFB"/>
<path d="M204.832 6.39909L150.48 6.45677C148.714 6.4594 147.279 5.02874 147.277 3.2616C147.275 1.49534 148.705 0.0603081 150.472 0.0576862L204.823 3.59791e-06C206.589 -0.00261826 208.024 1.42804 208.026 3.19518C208.029 4.96231 206.599 6.39734 204.832 6.39909Z" fill="#B1DCFB"/>
<path d="M24.0936 86.5206L19.0211 86.5276C17.6884 86.5294 16.6064 85.4509 16.6046 84.1181L16.5977 79.3568C16.5959 78.024 17.6752 76.9421 19.008 76.9403L24.0805 76.9334C25.4132 76.9316 26.4952 78.0101 26.4969 79.3428L26.5039 84.1041C26.5048 85.4378 25.4263 86.5189 24.0936 86.5206Z" fill="#B1DCFB"/>
<path d="M385.98 170.545L381.523 170.551C380.352 170.553 379.402 169.605 379.401 168.435L379.395 164.251C379.393 163.08 380.341 162.13 381.511 162.128L385.968 162.122C387.139 162.12 388.089 163.068 388.09 164.24L388.096 168.422C388.098 169.593 387.15 170.543 385.98 170.545Z" fill="white"/>
<path d="M135.473 44.742H108.994C107.254 44.742 105.844 43.3314 105.844 41.5922C105.844 39.8522 107.254 38.4417 108.994 38.4417H135.473C137.213 38.4417 138.622 39.8522 138.622 41.5922C138.623 43.3323 137.213 44.742 135.473 44.742Z" fill="white"/>
<path d="M29.6279 181.448H3.1506C1.41056 181.448 0 180.037 0 178.298C0 176.558 1.41056 175.147 3.1506 175.147H29.6279C31.3679 175.147 32.7776 176.558 32.7776 178.298C32.7785 180.037 31.3679 181.448 29.6279 181.448Z" fill="#60A2F4"/>
<defs>
<filter id="filter0_d_3055_28660" x="16.6032" y="214.39" width="91.2896" height="91.288" filterUnits="userSpaceOnUse" color-interpolation-filters="sRGB">
<feFlood flood-opacity="0" result="BackgroundImageFix"/>
<feColorMatrix in="SourceAlpha" type="matrix" values="0 0 0 0 0 0 0 0 0 0 0 0 0 0 0 0 0 0 127 0" result="hardAlpha"/>
<feOffset dy="3.49581"/>
<feGaussianBlur stdDeviation="10.4874"/>
<feComposite in2="hardAlpha" operator="out"/>
<feColorMatrix type="matrix" values="0 0 0 0 0.054902 0 0 0 0 0.34902 0 0 0 0 0.682353 0 0 0 0.25 0"/>
<feBlend mode="normal" in2="BackgroundImageFix" result="effect1_dropShadow_3055_28660"/>
<feBlend mode="normal" in="SourceGraphic" in2="effect1_dropShadow_3055_28660" result="shape"/>
</filter>
<filter id="filter1_d_3055_28660" x="8.73996" y="138.959" width="91.2896" height="91.288" filterUnits="userSpaceOnUse" color-interpolation-filters="sRGB">
<feFlood flood-opacity="0" result="BackgroundImageFix"/>
<feColorMatrix in="SourceAlpha" type="matrix" values="0 0 0 0 0 0 0 0 0 0 0 0 0 0 0 0 0 0 127 0" result="hardAlpha"/>
<feOffset dy="3.49581"/>
<feGaussianBlur stdDeviation="10.4874"/>
<feComposite in2="hardAlpha" operator="out"/>
<feColorMatrix type="matrix" values="0 0 0 0 0.054902 0 0 0 0 0.34902 0 0 0 0 0.682353 0 0 0 0.25 0"/>
<feBlend mode="normal" in2="BackgroundImageFix" result="effect1_dropShadow_3055_28660"/>
<feBlend mode="normal" in="SourceGraphic" in2="effect1_dropShadow_3055_28660" result="shape"/>
</filter>
<filter id="filter2_d_3055_28660" x="45.2282" y="66.3748" width="91.2896" height="91.288" filterUnits="userSpaceOnUse" color-interpolation-filters="sRGB">
<feFlood flood-opacity="0" result="BackgroundImageFix"/>
<feColorMatrix in="SourceAlpha" type="matrix" values="0 0 0 0 0 0 0 0 0 0 0 0 0 0 0 0 0 0 127 0" result="hardAlpha"/>
<feOffset dy="3.49581"/>
<feGaussianBlur stdDeviation="10.4874"/>
<feComposite in2="hardAlpha" operator="out"/>
<feColorMatrix type="matrix" values="0 0 0 0 0.054902 0 0 0 0 0.34902 0 0 0 0 0.682353 0 0 0 0.25 0"/>
<feBlend mode="normal" in2="BackgroundImageFix" result="effect1_dropShadow_3055_28660"/>
<feBlend mode="normal" in="SourceGraphic" in2="effect1_dropShadow_3055_28660" result="shape"/>
</filter>
<filter id="filter3_d_3055_28660" x="119.236" y="26.2873" width="91.2896" height="91.288" filterUnits="userSpaceOnUse" color-interpolation-filters="sRGB">
<feFlood flood-opacity="0" result="BackgroundImageFix"/>
<feColorMatrix in="SourceAlpha" type="matrix" values="0 0 0 0 0 0 0 0 0 0 0 0 0 0 0 0 0 0 127 0" result="hardAlpha"/>
<feOffset dy="3.49581"/>
<feGaussianBlur stdDeviation="10.4874"/>
<feComposite in2="hardAlpha" operator="out"/>
<feColorMatrix type="matrix" values="0 0 0 0 0.054902 0 0 0 0 0.34902 0 0 0 0 0.682353 0 0 0 0.25 0"/>
<feBlend mode="normal" in2="BackgroundImageFix" result="effect1_dropShadow_3055_28660"/>
<feBlend mode="normal" in="SourceGraphic" in2="effect1_dropShadow_3055_28660" result="shape"/>
</filter>
<filter id="filter4_d_3055_28660" x="193.244" y="26.2873" width="91.2896" height="91.288" filterUnits="userSpaceOnUse" color-interpolation-filters="sRGB">
<feFlood flood-opacity="0" result="BackgroundImageFix"/>
<feColorMatrix in="SourceAlpha" type="matrix" values="0 0 0 0 0 0 0 0 0 0 0 0 0 0 0 0 0 0 127 0" result="hardAlpha"/>
<feOffset dy="3.49581"/>
<feGaussianBlur stdDeviation="10.4874"/>
<feComposite in2="hardAlpha" operator="out"/>
<feColorMatrix type="matrix" values="0 0 0 0 0.054902 0 0 0 0 0.34902 0 0 0 0 0.682353 0 0 0 0.25 0"/>
<feBlend mode="normal" in2="BackgroundImageFix" result="effect1_dropShadow_3055_28660"/>
<feBlend mode="normal" in="SourceGraphic" in2="effect1_dropShadow_3055_28660" result="shape"/>
</filter>
<filter id="filter5_d_3055_28660" x="267.252" y="66.3748" width="91.2896" height="91.288" filterUnits="userSpaceOnUse" color-interpolation-filters="sRGB">
<feFlood flood-opacity="0" result="BackgroundImageFix"/>
<feColorMatrix in="SourceAlpha" type="matrix" values="0 0 0 0 0 0 0 0 0 0 0 0 0 0 0 0 0 0 127 0" result="hardAlpha"/>
<feOffset dy="3.49581"/>
<feGaussianBlur stdDeviation="10.4874"/>
<feComposite in2="hardAlpha" operator="out"/>
<feColorMatrix type="matrix" values="0 0 0 0 0.054902 0 0 0 0 0.34902 0 0 0 0 0.682353 0 0 0 0.25 0"/>
<feBlend mode="normal" in2="BackgroundImageFix" result="effect1_dropShadow_3055_28660"/>
<feBlend mode="normal" in="SourceGraphic" in2="effect1_dropShadow_3055_28660" result="shape"/>
</filter>
<filter id="filter6_d_3055_28660" x="303.482" y="138.959" width="91.2896" height="91.288" filterUnits="userSpaceOnUse" color-interpolation-filters="sRGB">
<feFlood flood-opacity="0" result="BackgroundImageFix"/>
<feColorMatrix in="SourceAlpha" type="matrix" values="0 0 0 0 0 0 0 0 0 0 0 0 0 0 0 0 0 0 127 0" result="hardAlpha"/>
<feOffset dy="3.49581"/>
<feGaussianBlur stdDeviation="10.4874"/>
<feComposite in2="hardAlpha" operator="out"/>
<feColorMatrix type="matrix" values="0 0 0 0 0.054902 0 0 0 0 0.34902 0 0 0 0 0.682353 0 0 0 0.25 0"/>
<feBlend mode="normal" in2="BackgroundImageFix" result="effect1_dropShadow_3055_28660"/>
<feBlend mode="normal" in="SourceGraphic" in2="effect1_dropShadow_3055_28660" result="shape"/>
</filter>
<filter id="filter7_d_3055_28660" x="303.74" y="214.39" width="91.2896" height="91.288" filterUnits="userSpaceOnUse" color-interpolation-filters="sRGB">
<feFlood flood-opacity="0" result="BackgroundImageFix"/>
<feColorMatrix in="SourceAlpha" type="matrix" values="0 0 0 0 0 0 0 0 0 0 0 0 0 0 0 0 0 0 127 0" result="hardAlpha"/>
<feOffset dy="3.49581"/>
<feGaussianBlur stdDeviation="10.4874"/>
<feComposite in2="hardAlpha" operator="out"/>
<feColorMatrix type="matrix" values="0 0 0 0 0.054902 0 0 0 0 0.34902 0 0 0 0 0.682353 0 0 0 0.25 0"/>
<feBlend mode="normal" in2="BackgroundImageFix" result="effect1_dropShadow_3055_28660"/>
<feBlend mode="normal" in="SourceGraphic" in2="effect1_dropShadow_3055_28660" result="shape"/>
</filter>
<clipPath id="clip0_3055_28660">
<rect width="20.5019" height="21.527" fill="white" transform="translate(56.6055 248.593)"/>
</clipPath>
<clipPath id="clip1_3055_28660">
<rect width="27.9665" height="27.9665" fill="white" transform="translate(76.8906 94.5398)"/>
</clipPath>
<clipPath id="clip2_3055_28660">
<rect width="29.7144" height="29.7144" fill="white" transform="translate(223.832 53.5782)"/>
</clipPath>
<clipPath id="clip3_3055_28660">
<rect width="27.9665" height="27.9665" fill="white" transform="translate(298.914 94.5398)"/>
</clipPath>
<clipPath id="clip4_3055_28660">
<rect width="27.9665" height="27.9665" fill="white" transform="translate(335.145 167.124)"/>
</clipPath>
<clipPath id="clip5_3055_28660">
<rect width="27.9665" height="27.9665" fill="white" transform="translate(334.527 242.118)"/>
</clipPath>
</defs>
</svg>
