<svg width="52" height="52" viewBox="0 0 52 52" fill="none" xmlns="http://www.w3.org/2000/svg">
<path d="M15.0298 9.75296C19.3632 9.63813 24.0692 12.8621 24.8297 19.7196L24.8882 20.3978L24.8903 20.4108C25.3042 27.602 20.2883 37.4343 9.33151 42.162C9.08772 42.2671 8.81381 42.2791 8.56178 42.1956C8.30975 42.1121 8.09714 41.939 7.96434 41.7091L5.55934 37.5513C5.48763 37.4272 5.44128 37.29 5.42295 37.1479C5.40463 37.0057 5.4147 36.8613 5.45259 36.7231C5.49048 36.5848 5.55542 36.4554 5.64367 36.3425C5.73192 36.2295 5.8417 36.1352 5.96667 36.065C9.67167 33.9806 12.5598 30.7111 14.2975 26.744C11.7192 26.289 9.86667 25.2208 8.62517 23.7973C7.18001 22.1376 6.66434 20.114 6.66434 18.3438C6.66434 13.5468 10.3542 9.66629 15.0277 9.75296M36.6943 9.75296C41.0277 9.63813 45.7337 12.8621 46.4942 19.7196L46.5527 20.3978L46.5548 20.4108C46.9687 27.602 41.9528 37.4343 30.996 42.162C30.7522 42.2671 30.4783 42.2791 30.2263 42.1956C29.9742 42.1121 29.7616 41.939 29.6288 41.7091L27.2238 37.5513C27.1521 37.4272 27.1058 37.29 27.0875 37.1479C27.0691 37.0057 27.0792 36.8613 27.1171 36.7231C27.155 36.5848 27.2199 36.4554 27.3082 36.3425C27.3964 36.2295 27.5062 36.1352 27.6312 36.065C31.3362 33.9806 34.2243 30.7111 35.962 26.744C33.3837 26.289 31.5312 25.2208 30.2897 23.7973C28.8445 22.1376 28.3288 20.114 28.3288 18.3438C28.3288 13.5468 32.023 9.66629 36.6943 9.75296Z" fill="#E7EEF7"/>
</svg>
