<svg width="80" height="75" viewBox="0 0 80 75" fill="none" xmlns="http://www.w3.org/2000/svg">
<path d="M10.9105 12.667C-2.50886 31.1371 3.96894 56.7404 18.8583 67.5582C33.7477 78.376 42.5726 67.2518 53.2502 68.7636C66.0569 70.5768 73.5448 63.029 77.6593 53.585C81.8843 43.8876 75.9094 34.921 66.7076 29.7573C49.4903 20.0955 58.9217 11.21 45.7117 3.11739C32.5017 -4.97526 16.9933 4.29457 10.9105 12.667Z" fill="#E7EEF7"/>
<g clip-path="url(#clip0_901_16823)">
<path d="M31.6795 54.3843H25.4418C22.8311 54.3843 20.707 52.2602 20.707 49.6494V45.1596C20.707 42.5489 22.8311 40.4248 25.4418 40.4248H28.2916C29.4171 40.4248 30.3325 39.5092 30.3325 38.3839V35.4692H33.0264V38.3838C33.0264 40.9946 30.9024 43.1186 28.2916 43.1186H25.4418C24.3164 43.1186 23.4009 44.0342 23.4009 45.1596V49.6494C23.4009 50.7748 24.3165 51.6903 25.4418 51.6903H31.6796L31.6795 54.3843Z" fill="#215EBF"/>
<path d="M52.5572 54.3843H46.3195V51.6904H52.5572C53.6827 51.6904 54.5983 50.7748 54.5983 49.6494V45.1596C54.5983 44.0342 53.6827 43.1187 52.5572 43.1187H49.7075C47.0967 43.1187 44.9727 40.9947 44.9727 38.3839V35.4692H47.6665V38.3838C47.6665 39.5092 48.5821 40.4247 49.7075 40.4247H52.5572C55.168 40.4247 57.2921 42.5488 57.2921 45.1596V49.6494C57.2921 52.2602 55.1681 54.3843 52.5572 54.3843Z" fill="#215EBF"/>
<path d="M61 18.8569H17V37.486H61V18.8569Z" fill="#126FD8"/>
<path d="M39.0952 18.8569H17V37.486H39.0952V18.8569Z" fill="#0E59AE"/>
<path d="M23.7475 31.3412H20.3945V34.0351H23.7475V31.3412Z" fill="white"/>
<path d="M29.3881 31.3412H26.0352V34.0351H29.3881V31.3412Z" fill="white"/>
<path d="M46.3182 31.3412H31.6797V34.0351H46.3182V31.3412Z" fill="white"/>
<path d="M51.9584 31.3412H48.6055V34.0351H51.9584V31.3412Z" fill="white"/>
<path d="M57.6029 31.3412H54.25V34.0351H57.6029V31.3412Z" fill="white"/>
<path d="M23.7475 26.8245H20.3945V29.5183H23.7475V26.8245Z" fill="white"/>
<path d="M29.3881 26.8245H26.0352V29.5183H29.3881V26.8245Z" fill="white"/>
<path d="M35.0326 26.8245H31.6797V29.5183H35.0326V26.8245Z" fill="white"/>
<path d="M40.6732 26.8245H37.3203V29.5183H40.6732V26.8245Z" fill="white"/>
<path d="M46.3178 26.8245H42.9648V29.5183H46.3178V26.8245Z" fill="white"/>
<path d="M51.9584 26.8245H48.6055V29.5183H51.9584V26.8245Z" fill="white"/>
<path d="M57.6029 26.8245H54.25V29.5183H57.6029V26.8245Z" fill="white"/>
<path d="M23.7475 22.3077H20.3945V25.0016H23.7475V22.3077Z" fill="white"/>
<path d="M29.3881 22.3077H26.0352V25.0016H29.3881V22.3077Z" fill="white"/>
<path d="M35.0326 22.3077H31.6797V25.0016H35.0326V22.3077Z" fill="white"/>
<path d="M40.6732 22.3077H37.3203V25.0016H40.6732V22.3077Z" fill="white"/>
<path d="M46.3178 22.3077H42.9648V25.0016H46.3178V22.3077Z" fill="white"/>
<path d="M51.9584 22.3077H48.6055V25.0016H51.9584V22.3077Z" fill="white"/>
<path d="M57.6029 22.3077H54.25V25.0016H57.6029V22.3077Z" fill="white"/>
<path d="M36.418 54.2975V59.5578C36.418 60.9832 37.5734 62.1385 38.9987 62.1385C40.4239 62.1385 41.5794 60.9831 41.5794 59.5578V54.2975H36.418Z" fill="#215EBF"/>
<path d="M38.9987 54.2975H36.418V59.5578C36.418 60.9832 37.5734 62.1385 38.9987 62.1385V54.2975Z" fill="#215EBF"/>
<path d="M39.0012 45.3391C35.9608 45.3391 33.4961 47.8038 33.4961 50.8442C33.4961 52.3481 34.0992 53.7112 35.0767 54.7048L35.077 54.7044C35.7458 55.3708 36.2231 56.2291 36.4205 57.1895V57.9737H41.582V57.1895C41.7794 56.2291 42.2566 55.3709 42.9254 54.7044L42.9258 54.7048C43.9033 53.7111 44.5063 52.3481 44.5063 50.8442C44.5062 47.8038 42.0415 45.3391 39.0012 45.3391Z" fill="#FBB500"/>
<path d="M39.0012 57.9736V45.3391C35.9608 45.3391 33.4961 47.8038 33.4961 50.8442C33.4961 52.3481 34.0992 53.7112 35.0767 54.7048L35.077 54.7043C35.7458 55.3707 36.2231 56.229 36.4205 57.1895V57.9736L39.0012 57.9736Z" fill="#FFCE47"/>
</g>
<defs>
<clipPath id="clip0_901_16823">
<rect width="44" height="44" fill="white" transform="translate(17 18.4977)"/>
</clipPath>
</defs>
</svg>
