<svg width="249" height="193" viewBox="0 0 249 193" fill="none" xmlns="http://www.w3.org/2000/svg">
<g opacity="0.62" filter="url(#filter0_f_901_16965)">
<path d="M20.4869 196.93C22.6051 196.93 24.3255 195.213 24.3255 193.091C24.3255 190.973 22.6089 189.253 20.4869 189.253C18.3688 189.253 16.6484 190.969 16.6484 193.091C16.6484 195.213 18.365 196.93 20.4869 196.93ZM20.4869 191.291C21.4835 191.291 22.2906 192.098 22.2906 193.095C22.2906 194.091 21.4835 194.899 20.4869 194.899C19.4904 194.899 18.6833 194.091 18.6833 193.095C18.6833 192.098 19.4904 191.291 20.4869 191.291Z" fill="#114A82"/>
<path d="M33.3073 196.93C35.4254 196.93 37.1458 195.213 37.1458 193.091C37.1458 190.973 35.4292 189.253 33.3073 189.253C31.1891 189.253 29.4688 190.969 29.4688 193.091C29.4688 195.213 31.1891 196.93 33.3073 196.93ZM33.3073 191.291C34.3038 191.291 35.1109 192.098 35.1109 193.095C35.1109 194.091 34.3038 194.899 33.3073 194.899C32.3107 194.899 31.5036 194.091 31.5036 193.095C31.5074 192.098 32.3107 191.291 33.3073 191.291Z" fill="#9EDFE5"/>
<path d="M161.465 26.0195C163.392 25.2154 164.303 23.001 163.499 21.0735C162.695 19.146 160.481 18.2352 158.553 19.0393C156.626 19.8434 155.715 22.0578 156.519 23.9854C157.323 25.9129 159.538 26.8236 161.465 26.0195Z" fill="#BEC9DF"/>
<path d="M201.243 16.0953C197.692 16.0953 194.812 18.9752 194.812 22.5257C194.812 26.0762 197.692 28.956 201.243 28.956C204.793 28.956 207.673 26.0762 207.673 22.5257C207.673 18.9752 204.793 16.0953 201.243 16.0953ZM201.243 25.595C199.549 25.595 198.177 24.2233 198.177 22.5295C198.177 20.8357 199.549 19.464 201.243 19.464C202.937 19.464 204.308 20.8357 204.308 22.5295C204.308 24.2233 202.937 25.595 201.243 25.595Z" fill="#BEC9DF"/>
<path d="M216.041 18.7933C213.98 18.7933 212.309 20.4644 212.309 22.5257C212.309 24.5871 213.98 26.2582 216.041 26.2582C218.102 26.2582 219.773 24.5871 219.773 22.5257C219.773 20.4644 218.102 18.7933 216.041 18.7933ZM216.041 23.5337C215.484 23.5337 215.033 23.0828 215.033 22.5257C215.033 21.9687 215.484 21.5178 216.041 21.5178C216.598 21.5178 217.049 21.9687 217.049 22.5257C217.049 23.0828 216.598 23.5337 216.041 23.5337Z" fill="#114A82"/>
<path d="M186.952 19.2177C185.122 19.2177 183.641 20.6992 183.641 22.5295C183.641 24.3597 185.122 25.8413 186.952 25.8413C188.783 25.8413 190.264 24.3597 190.264 22.5295C190.264 20.6992 188.783 19.2177 186.952 19.2177ZM186.952 24.1058C186.081 24.1058 185.372 23.3972 185.372 22.5257C185.372 21.6541 186.081 20.9455 186.952 20.9455C187.824 20.9455 188.533 21.6541 188.533 22.5257C188.533 23.3972 187.824 24.1058 186.952 24.1058Z" fill="#9EDFE5"/>
<path d="M246.779 144.918L249.371 147.506L250.133 146.745L246.779 143.391L243.43 146.745L244.191 147.506L246.779 144.918Z" fill="#BEC9DF"/>
<path d="M246.779 149.439L249.371 152.027L250.133 151.265L246.779 147.912L243.43 151.265L244.191 152.027L246.779 149.439Z" fill="#BEC9DF"/>
<path d="M246.779 154.012L249.371 156.604L250.133 155.839L246.779 152.489L243.43 155.839L244.191 156.604L246.779 154.012Z" fill="#BEC9DF"/>
<path d="M246.779 135.824L249.371 138.412L250.133 137.65L246.779 134.297L243.43 137.65L244.191 138.412L246.779 135.824Z" fill="#BEC9DF"/>
<path d="M246.779 140.345L249.371 142.933L250.133 142.171L246.779 138.818L243.43 142.171L244.191 142.933L246.779 140.345Z" fill="#BEC9DF"/>
<path d="M0.748342 122.801C3.64261 122.801 5.98887 120.454 5.98887 117.56C5.98887 114.666 3.64261 112.319 0.748342 112.319C-2.14592 112.319 -4.49219 114.666 -4.49219 117.56C-4.49219 120.454 -2.14592 122.801 0.748342 122.801Z" fill="#9EDFE5"/>
<path d="M26.0935 117.549L28.6815 114.957L27.9199 114.195L24.5664 117.549L27.9199 120.902L28.6815 120.137L26.0935 117.549Z" fill="#BEC9DF"/>
<path d="M30.613 117.549L33.2011 114.957L32.4394 114.195L29.0859 117.549L32.4394 120.902L33.2011 120.137L30.613 117.549Z" fill="#BEC9DF"/>
<path d="M35.1912 117.549L37.7831 114.957L37.0177 114.195L33.668 117.549L37.0177 120.902L37.7831 120.137L35.1912 117.549Z" fill="#BEC9DF"/>
<path d="M17.0036 117.549L19.5917 114.957L18.83 114.195L15.4766 117.549L18.83 120.902L19.5917 120.137L17.0036 117.549Z" fill="#BEC9DF"/>
<path d="M21.5271 117.549L24.1151 114.957L23.3535 114.195L20 117.549L23.3535 120.902L24.1151 120.137L21.5271 117.549Z" fill="#BEC9DF"/>
<path d="M90.8954 38.1827L84.6659 44.3819L78.4326 38.1827L72.2031 44.3819L65.9735 38.1827L60.4791 43.6506L54.9809 38.1827L48.7514 44.3819L42.5181 38.1827L36.2886 44.3819L30.0591 38.1827L23.875 44.3365L24.5646 45.0261L30.0591 39.5582L36.2886 45.7574L42.5181 39.5582L48.7514 45.7574L54.9809 39.5582L60.4791 45.0299L65.9735 39.5582L72.2031 45.7574L78.4326 39.5582L84.6659 45.7574L90.8954 39.5582L96.3936 45.0261L97.0795 44.3365L90.8954 38.1827Z" fill="#0B315E"/>
<path d="M90.8981 27.0992L84.6686 33.2985L78.4353 27.0992L72.2057 33.2985L65.9762 27.0992L61.035 32.0177L61.0312 33.397L65.9762 28.4747L72.2057 34.6739L78.4353 28.4747L84.6686 34.6739L90.8981 28.4747L96.3963 33.9426L97.0822 33.2492L90.8981 27.0992Z" fill="#BEC9DF"/>
<path d="M218.159 188.317L211.929 194.516L205.696 188.317L199.467 194.516L193.237 188.317L187 194.527L187.716 195.186L193.237 189.688L199.467 195.887L205.696 189.688L211.929 195.887L218.159 189.688L223.657 195.156L224.343 194.466L218.159 188.317Z" fill="#BEC9DF"/>
<path d="M236.049 166.858C235.598 166.858 235.234 166.491 235.234 166.043C235.234 165.593 235.602 165.229 236.049 165.229C236.496 165.229 236.864 165.596 236.864 166.043C236.864 166.494 236.5 166.858 236.049 166.858Z" fill="#0B315E"/>
<path d="M236.049 173.857C235.598 173.857 235.234 173.489 235.234 173.042C235.234 172.591 235.602 172.227 236.049 172.227C236.496 172.227 236.864 172.595 236.864 173.042C236.864 173.489 236.5 173.857 236.049 173.857Z" fill="#0B315E"/>
<path d="M243.721 173.857C243.27 173.857 242.906 173.489 242.906 173.042C242.906 172.591 243.274 172.227 243.721 172.227C244.172 172.227 244.536 172.595 244.536 173.042C244.539 173.489 244.172 173.857 243.721 173.857Z" fill="#0B315E"/>
<path d="M236.049 180.856C235.598 180.856 235.234 180.488 235.234 180.041C235.234 179.59 235.602 179.226 236.049 179.226C236.496 179.226 236.864 179.594 236.864 180.041C236.864 180.488 236.5 180.856 236.049 180.856Z" fill="#0B315E"/>
<path d="M243.721 180.856C243.27 180.856 242.906 180.488 242.906 180.041C242.906 179.59 243.274 179.226 243.721 179.226C244.172 179.226 244.536 179.594 244.536 180.041C244.539 180.488 244.172 180.856 243.721 180.856Z" fill="#0B315E"/>
<path d="M236.049 187.851C235.598 187.851 235.234 187.483 235.234 187.036C235.234 186.585 235.602 186.221 236.049 186.221C236.496 186.221 236.864 186.589 236.864 187.036C236.864 187.487 236.5 187.851 236.049 187.851Z" fill="#0B315E"/>
<path d="M243.721 187.851C243.27 187.851 242.906 187.483 242.906 187.036C242.906 186.585 243.274 186.221 243.721 186.221C244.172 186.221 244.536 186.589 244.536 187.036C244.539 187.487 244.172 187.851 243.721 187.851Z" fill="#0B315E"/>
<path d="M3.87976 128.109C3.4781 128.109 3.14844 127.783 3.14844 127.378C3.14844 126.976 3.47431 126.647 3.87976 126.647C4.28142 126.647 4.61109 126.972 4.61109 127.378C4.61109 127.783 4.28521 128.109 3.87976 128.109Z" fill="#0B315E"/>
<path d="M10.7548 128.109C10.3531 128.109 10.0234 127.783 10.0234 127.378C10.0234 126.976 10.3493 126.647 10.7548 126.647C11.1564 126.647 11.4861 126.972 11.4861 127.378C11.4861 127.783 11.1564 128.109 10.7548 128.109Z" fill="#0B315E"/>
<path d="M17.6337 128.109C17.232 128.109 16.9023 127.783 16.9023 127.378C16.9023 126.976 17.2282 126.647 17.6337 126.647C18.0353 126.647 18.365 126.972 18.365 127.378C18.3612 127.783 18.0353 128.109 17.6337 128.109Z" fill="#0B315E"/>
<path d="M24.5009 128.109C24.0992 128.109 23.7695 127.783 23.7695 127.378C23.7695 126.976 24.0954 126.647 24.5009 126.647C24.9025 126.647 25.2322 126.972 25.2322 127.378C25.2322 127.783 24.9025 128.109 24.5009 128.109Z" fill="#0B315E"/>
<path d="M31.3759 128.109C30.9742 128.109 30.6445 127.783 30.6445 127.378C30.6445 126.976 30.9704 126.647 31.3759 126.647C31.7775 126.647 32.1072 126.972 32.1072 127.378C32.1034 127.783 31.7775 128.109 31.3759 128.109Z" fill="#0B315E"/>
<path d="M38.2352 128.109C37.8336 128.109 37.5039 127.783 37.5039 127.378C37.5039 126.976 37.8298 126.647 38.2352 126.647C38.6369 126.647 38.9666 126.972 38.9666 127.378C38.9666 127.783 38.6407 128.109 38.2352 128.109Z" fill="#0B315E"/>
<path d="M221.259 43.8629C220.857 43.8629 220.527 43.537 220.527 43.1316C220.527 42.7299 220.853 42.4003 221.259 42.4003C221.664 42.4003 221.99 42.7261 221.99 43.1316C221.99 43.5333 221.66 43.8629 221.259 43.8629Z" fill="#0B315E"/>
<path d="M228.13 43.8629C227.728 43.8629 227.398 43.537 227.398 43.1316C227.398 42.7299 227.724 42.4003 228.13 42.4003C228.531 42.4003 228.861 42.7261 228.861 43.1316C228.857 43.5333 228.531 43.8629 228.13 43.8629Z" fill="#0B315E"/>
<path d="M235.001 43.8629C234.599 43.8629 234.27 43.537 234.27 43.1316C234.27 42.7299 234.595 42.4003 235.001 42.4003C235.403 42.4003 235.732 42.7261 235.732 43.1316C235.732 43.5333 235.406 43.8629 235.001 43.8629Z" fill="#0B315E"/>
<path d="M241.872 43.8629C241.47 43.8629 241.141 43.537 241.141 43.1316C241.141 42.7299 241.467 42.4003 241.872 42.4003C242.274 42.4003 242.603 42.7261 242.603 43.1316C242.603 43.5333 242.274 43.8629 241.872 43.8629Z" fill="#0B315E"/>
<path d="M248.743 43.8629C248.341 43.8629 248.012 43.537 248.012 43.1316C248.012 42.7299 248.338 42.4003 248.743 42.4003C249.145 42.4003 249.474 42.7261 249.474 43.1316C249.474 43.5333 249.149 43.8629 248.743 43.8629Z" fill="#0B315E"/>
<path d="M221.259 50.1304C220.857 50.1304 220.527 49.8045 220.527 49.399C220.527 48.9974 220.853 48.6677 221.259 48.6677C221.664 48.6677 221.99 48.9936 221.99 49.399C221.99 49.8007 221.66 50.1304 221.259 50.1304Z" fill="#0B315E"/>
<path d="M228.13 50.1304C227.728 50.1304 227.398 49.8045 227.398 49.399C227.398 48.9974 227.724 48.6677 228.13 48.6677C228.531 48.6677 228.861 48.9936 228.861 49.399C228.857 49.8007 228.531 50.1304 228.13 50.1304Z" fill="#0B315E"/>
<path d="M235.001 50.1304C234.599 50.1304 234.27 49.8045 234.27 49.399C234.27 48.9974 234.595 48.6677 235.001 48.6677C235.403 48.6677 235.732 48.9936 235.732 49.399C235.732 49.8007 235.406 50.1304 235.001 50.1304Z" fill="#0B315E"/>
<path d="M241.872 50.1304C241.47 50.1304 241.141 49.8045 241.141 49.399C241.141 48.9974 241.467 48.6677 241.872 48.6677C242.274 48.6677 242.603 48.9936 242.603 49.399C242.603 49.8007 242.274 50.1304 241.872 50.1304Z" fill="#0B315E"/>
<path d="M248.743 50.1304C248.341 50.1304 248.012 49.8045 248.012 49.399C248.012 48.9974 248.338 48.6677 248.743 48.6677C249.145 48.6677 249.474 48.9936 249.474 49.399C249.474 49.8007 249.149 50.1304 248.743 50.1304Z" fill="#0B315E"/>
<path d="M221.259 56.3939C220.857 56.3939 220.527 56.068 220.527 55.6626C220.527 55.2609 220.853 54.9313 221.259 54.9313C221.664 54.9313 221.99 55.2571 221.99 55.6626C221.99 56.068 221.66 56.3939 221.259 56.3939Z" fill="#0B315E"/>
<path d="M228.13 56.3939C227.728 56.3939 227.398 56.068 227.398 55.6626C227.398 55.2609 227.724 54.9313 228.13 54.9313C228.531 54.9313 228.861 55.2571 228.861 55.6626C228.857 56.068 228.531 56.3939 228.13 56.3939Z" fill="#0B315E"/>
<path d="M235.001 56.3939C234.599 56.3939 234.27 56.068 234.27 55.6626C234.27 55.2609 234.595 54.9313 235.001 54.9313C235.403 54.9313 235.732 55.2571 235.732 55.6626C235.732 56.068 235.406 56.3939 235.001 56.3939Z" fill="#0B315E"/>
<path d="M241.872 56.3939C241.47 56.3939 241.141 56.068 241.141 55.6626C241.141 55.2609 241.467 54.9313 241.872 54.9313C242.274 54.9313 242.603 55.2571 242.603 55.6626C242.603 56.068 242.274 56.3939 241.872 56.3939Z" fill="#0B315E"/>
<path d="M248.743 56.3939C248.341 56.3939 248.012 56.068 248.012 55.6626C248.012 55.2609 248.338 54.9313 248.743 54.9313C249.145 54.9313 249.474 55.2571 249.474 55.6626C249.474 56.068 249.149 56.3939 248.743 56.3939Z" fill="#0B315E"/>
<path d="M221.259 62.6614C220.857 62.6614 220.527 62.3355 220.527 61.9301C220.527 61.5284 220.853 61.1987 221.259 61.1987C221.664 61.1987 221.99 61.5246 221.99 61.9301C221.99 62.3317 221.66 62.6614 221.259 62.6614Z" fill="#0B315E"/>
<path d="M228.13 62.6614C227.728 62.6614 227.398 62.3355 227.398 61.9301C227.398 61.5284 227.724 61.1987 228.13 61.1987C228.531 61.1987 228.861 61.5246 228.861 61.9301C228.857 62.3317 228.531 62.6614 228.13 62.6614Z" fill="#0B315E"/>
<path d="M235.001 62.6614C234.599 62.6614 234.27 62.3355 234.27 61.9301C234.27 61.5284 234.595 61.1987 235.001 61.1987C235.403 61.1987 235.732 61.5246 235.732 61.9301C235.732 62.3317 235.406 62.6614 235.001 62.6614Z" fill="#0B315E"/>
<path d="M241.872 62.6614C241.47 62.6614 241.141 62.3355 241.141 61.9301C241.141 61.5284 241.467 61.1987 241.872 61.1987C242.274 61.1987 242.603 61.5246 242.603 61.9301C242.603 62.3317 242.274 62.6614 241.872 62.6614Z" fill="#0B315E"/>
<path d="M248.743 62.6614C248.341 62.6614 248.012 62.3355 248.012 61.9301C248.012 61.5284 248.338 61.1987 248.743 61.1987C249.145 61.1987 249.474 61.5246 249.474 61.9301C249.474 62.3317 249.149 62.6614 248.743 62.6614Z" fill="#0B315E"/>
<path d="M221.259 68.9288C220.857 68.9288 220.527 68.603 220.527 68.1975C220.527 67.7958 220.853 67.4662 221.259 67.4662C221.664 67.4662 221.99 67.7921 221.99 68.1975C221.99 68.5992 221.66 68.9288 221.259 68.9288Z" fill="#0B315E"/>
<path d="M228.13 68.9288C227.728 68.9288 227.398 68.603 227.398 68.1975C227.398 67.7958 227.724 67.4662 228.13 67.4662C228.531 67.4662 228.861 67.7921 228.861 68.1975C228.857 68.5992 228.531 68.9288 228.13 68.9288Z" fill="#0B315E"/>
<path d="M235.001 68.9288C234.599 68.9288 234.27 68.603 234.27 68.1975C234.27 67.7958 234.595 67.4662 235.001 67.4662C235.403 67.4662 235.732 67.7921 235.732 68.1975C235.732 68.5992 235.406 68.9288 235.001 68.9288Z" fill="#0B315E"/>
<path d="M241.872 68.9288C241.47 68.9288 241.141 68.603 241.141 68.1975C241.141 67.7958 241.467 67.4662 241.872 67.4662C242.274 67.4662 242.603 67.7921 242.603 68.1975C242.603 68.5992 242.274 68.9288 241.872 68.9288Z" fill="#0B315E"/>
<path d="M248.743 68.9288C248.341 68.9288 248.012 68.603 248.012 68.1975C248.012 67.7958 248.338 67.4662 248.743 67.4662C249.145 67.4662 249.474 67.7921 249.474 68.1975C249.474 68.5992 249.149 68.9288 248.743 68.9288Z" fill="#0B315E"/>
<path d="M221.259 75.1924C220.857 75.1924 220.527 74.8665 220.527 74.4611C220.527 74.0594 220.853 73.7297 221.259 73.7297C221.664 73.7297 221.99 74.0556 221.99 74.4611C221.99 74.8665 221.66 75.1924 221.259 75.1924Z" fill="#0B315E"/>
<path d="M228.13 75.1924C227.728 75.1924 227.398 74.8665 227.398 74.4611C227.398 74.0594 227.724 73.7297 228.13 73.7297C228.531 73.7297 228.861 74.0556 228.861 74.4611C228.857 74.8665 228.531 75.1924 228.13 75.1924Z" fill="#0B315E"/>
<path d="M235.001 75.1924C234.599 75.1924 234.27 74.8665 234.27 74.4611C234.27 74.0594 234.595 73.7297 235.001 73.7297C235.403 73.7297 235.732 74.0556 235.732 74.4611C235.732 74.8665 235.406 75.1924 235.001 75.1924Z" fill="#0B315E"/>
<path d="M241.872 75.1924C241.47 75.1924 241.141 74.8665 241.141 74.4611C241.141 74.0594 241.467 73.7297 241.872 73.7297C242.274 73.7297 242.603 74.0556 242.603 74.4611C242.603 74.8665 242.274 75.1924 241.872 75.1924Z" fill="#0B315E"/>
<path d="M248.743 75.1924C248.341 75.1924 248.012 74.8665 248.012 74.4611C248.012 74.0594 248.338 73.7297 248.743 73.7297C249.145 73.7297 249.474 74.0556 249.474 74.4611C249.474 74.8665 249.149 75.1924 248.743 75.1924Z" fill="#0B315E"/>
<path d="M250.2 80.1071L217.973 47.8795H250.2V80.1071Z" fill="#BEC9DF"/>
<path d="M6.64148 23.6321C6.21709 23.6321 5.91016 23.939 5.91016 24.3596C5.91016 24.784 6.21709 25.0909 6.63769 25.0909C7.06209 25.0909 7.36523 24.784 7.36902 24.3634C7.36902 23.939 7.06588 23.6321 6.64148 23.6321Z" fill="#0B315E"/>
<path d="M13.9418 23.6321C13.5174 23.6245 13.1991 23.9239 13.1915 24.3445C13.184 24.7689 13.4871 25.0872 13.9039 25.0947C14.3283 25.1023 14.6428 24.803 14.6504 24.3824C14.6618 23.9542 14.3624 23.6397 13.9418 23.6321Z" fill="#0B315E"/>
<path d="M21.2194 23.6321C20.795 23.6283 20.4843 23.9353 20.4805 24.3559C20.4767 24.7803 20.7836 25.091 21.2042 25.0948C21.6286 25.0986 21.9356 24.7954 21.9394 24.371C21.9432 23.9428 21.6438 23.6359 21.2194 23.6321Z" fill="#0B315E"/>
<path d="M2.99331 27.2736C2.57271 27.2774 2.26578 27.5881 2.26957 28.0125C2.27336 28.4331 2.58786 28.74 3.00847 28.7362C3.43287 28.7325 3.73221 28.4217 3.72843 27.9973C3.72843 27.5729 3.41771 27.2698 2.99331 27.2736Z" fill="#0B315E"/>
<path d="M10.3127 27.2735C9.88834 27.2621 9.56626 27.5577 9.5511 27.9745C9.53973 28.3989 9.83529 28.721 10.2521 28.7362C10.6765 28.7475 10.9986 28.452 11.01 28.0351C11.0251 27.6032 10.7333 27.2849 10.3127 27.2735Z" fill="#0B315E"/>
<path d="M17.5787 27.2736C17.1543 27.2698 16.8398 27.5729 16.836 27.9898C16.8322 28.4142 17.1353 28.7287 17.5559 28.7325C17.9803 28.7362 18.291 28.4331 18.2948 28.0125C18.2986 27.5881 17.9993 27.2774 17.5787 27.2736Z" fill="#0B315E"/>
<path d="M-1.36984 31.5933C-1.39257 32.0215 -1.10459 32.3511 -0.691563 32.3777C-0.267167 32.4004 0.0662874 32.1124 0.0890229 31.6994C0.111758 31.2712 -0.172435 30.9415 -0.585463 30.9188C-1.01744 30.8923 -1.3471 31.1803 -1.36984 31.5933Z" fill="#0B315E"/>
<path d="M6.66832 30.915C6.24393 30.9036 5.92184 31.1954 5.91047 31.616C5.89911 32.0404 6.19467 32.3625 6.61148 32.3776C7.03588 32.389 7.35797 32.0935 7.36933 31.6766C7.3807 31.2447 7.08893 30.9264 6.66832 30.915Z" fill="#0B315E"/>
<path d="M13.9116 30.915C13.491 30.9187 13.1879 31.2332 13.1955 31.6576C13.1992 32.0783 13.5137 32.3814 13.9381 32.3776C14.3588 32.37 14.6581 32.0593 14.6543 31.6349C14.6467 31.2105 14.336 30.9112 13.9116 30.915Z" fill="#0B315E"/>
<path d="M2.98584 34.5565C2.56523 34.5641 2.26209 34.8786 2.26967 35.303C2.27725 35.7236 2.59176 36.0268 3.01615 36.0192C3.43676 36.0116 3.73611 35.7009 3.72853 35.2727C3.72474 34.8483 3.41402 34.549 2.98584 34.5565Z" fill="#0B315E"/>
<path d="M10.2974 34.5564C9.87302 34.5526 9.55851 34.8558 9.55472 35.2726C9.55093 35.697 9.85407 36.0115 10.2747 36.0153C10.6991 36.0191 11.0098 35.7197 11.0136 35.2953C11.0174 34.8709 10.718 34.5602 10.2974 34.5564Z" fill="#0B315E"/>
<path d="M-0.669533 39.6606C-0.245137 39.672 0.0769489 39.3764 0.0883167 38.9596C0.0996844 38.5314 -0.192088 38.2131 -0.608905 38.2017C-1.0333 38.1904 -1.35539 38.4859 -1.37054 38.9027C-1.3857 39.3233 -1.08635 39.6454 -0.669533 39.6606Z" fill="#0B315E"/>
<path d="M6.65666 38.1979C6.23226 38.1903 5.91397 38.4897 5.90639 38.9103C5.89881 39.3347 6.20195 39.653 6.61877 39.6605C7.04316 39.6681 7.35767 39.3688 7.36525 38.9482C7.37662 38.52 7.07727 38.2055 6.65666 38.1979Z" fill="#0B315E"/>
<path d="M2.98584 41.8394C2.56523 41.847 2.26209 42.1577 2.26967 42.5821C2.27725 43.0027 2.59176 43.3058 3.01236 43.2982C3.43297 43.2907 3.73232 42.9799 3.72853 42.5555C3.72095 42.1349 3.41023 41.8318 2.98584 41.8394Z" fill="#0B315E"/>
<path d="M3.72586 13.4883C3.74859 13.0601 3.4644 12.7304 3.05137 12.7077C2.62319 12.6849 2.29352 12.9729 2.27079 13.386C2.24805 13.8103 2.53603 14.1438 2.94906 14.1665C3.37346 14.1931 3.70691 13.9013 3.72586 13.4883Z" fill="#0B315E"/>
<path d="M10.2974 12.7077C9.87302 12.7039 9.55851 13.007 9.55472 13.4238C9.55093 13.8482 9.85407 14.1627 10.2747 14.1665C10.6991 14.1703 11.0098 13.871 11.0136 13.4466C11.0174 13.0222 10.718 12.7153 10.2974 12.7077Z" fill="#0B315E"/>
<path d="M-0.628366 16.3492C-1.05276 16.3454 -1.36348 16.6447 -1.37106 17.0653C-1.37485 17.4897 -1.0755 17.8042 -0.654891 17.808C-0.230495 17.8118 0.0802228 17.5125 0.0878013 17.0881C0.0915906 16.6675 -0.20776 16.3567 -0.628366 16.3492Z" fill="#0B315E"/>
<path d="M6.64531 16.3492C6.22091 16.3454 5.91019 16.6485 5.91019 17.0729C5.9064 17.4973 6.21333 17.808 6.63394 17.8118C7.05833 17.8156 7.36526 17.5087 7.36905 17.0881C7.36905 16.6599 7.0697 16.3529 6.64531 16.3492Z" fill="#0B315E"/>
<path d="M13.9228 16.3491C13.4985 16.3491 13.1953 16.6561 13.1953 17.0804C13.1953 17.5048 13.506 17.8118 13.9266 17.808C14.351 17.808 14.6542 17.5011 14.6542 17.0729C14.6504 16.6523 14.3472 16.3491 13.9228 16.3491Z" fill="#0B315E"/>
<path d="M3.03149 19.9907C2.60709 19.9793 2.28501 20.2749 2.26985 20.6917C2.25848 21.1161 2.55404 21.4382 2.97086 21.4533C3.39525 21.4685 3.71734 21.1691 3.72871 20.7523C3.74386 20.3203 3.45209 20.0058 3.03149 19.9907Z" fill="#0B315E"/>
<path d="M10.286 19.9906C9.86162 19.9906 9.55469 20.2975 9.55469 20.7181C9.55469 21.1425 9.86162 21.4495 10.2822 21.4533C10.7066 21.4533 11.0135 21.1501 11.0135 20.7257C11.0135 20.2975 10.7104 19.9906 10.286 19.9906Z" fill="#0B315E"/>
<path d="M17.5749 19.9906C17.1505 19.9868 16.8398 20.2938 16.836 20.7144C16.8322 21.1388 17.1391 21.4495 17.5597 21.4533C17.9841 21.4571 18.291 21.1501 18.2948 20.7295C18.2986 20.3014 17.9993 19.9944 17.5749 19.9906Z" fill="#0B315E"/>
<path d="M-0.632273 23.6321C-1.05667 23.6283 -1.37118 23.9315 -1.37496 24.3521C-1.37875 24.7765 -1.07561 25.091 -0.655007 25.0948C-0.230612 25.0986 0.0801071 24.7954 0.0838963 24.3748C0.0914748 23.9466 -0.207877 23.6359 -0.632273 23.6321Z" fill="#0B315E"/>
<path d="M39.5325 155.911V137.355H20.9766V155.911V174.467H39.5325H58.0885V155.911H39.5325Z" fill="#BEC9DF"/>
<path d="M50.8893 182.428H13.0195V144.558H32.3333V163.114H50.8893V182.428ZM13.7774 181.67H50.1314V163.872H31.5755V145.316H13.7774V181.67Z" fill="#0B315E"/>
<path d="M43.4144 137.556H42.2852V153.66H43.4144V137.556Z" fill="#9EDFE5"/>
<path d="M46.2933 137.552H45.1641V153.656H46.2933V137.552Z" fill="#9EDFE5"/>
<path d="M49.1644 137.556H48.0352V153.66H49.1644V137.556Z" fill="#9EDFE5"/>
<path d="M52.0354 137.556H50.9062V153.66H52.0354V137.556Z" fill="#9EDFE5"/>
<path d="M54.9104 137.552H53.7812V153.656H54.9104V137.552Z" fill="#9EDFE5"/>
<path d="M57.7474 137.556H56.6523V153.66H57.7474V137.556Z" fill="#9EDFE5"/>
<path d="M12.8066 75.2H-23.9453V103.449H12.8066C16.6982 103.441 20.2184 101.865 22.7723 99.3109C25.3301 96.757 26.9102 93.2254 26.9102 89.3263C26.9102 81.5318 20.5973 75.2113 12.8066 75.2Z" fill="#BEC9DF"/>
<path d="M26.9136 89.3263C26.9136 93.2254 25.3335 96.757 22.7757 99.3109C20.2218 101.865 16.7016 103.441 12.81 103.449H12.7873C4.9966 103.437 -1.3125 97.117 -1.3125 89.3263C-1.3125 81.5318 4.9966 75.2113 12.7873 75.2H12.81C20.6007 75.2113 26.9136 81.5318 26.9136 89.3263Z" fill="#BEC9DF"/>
<path d="M12.8061 103.828C4.79946 103.816 -1.69531 97.3102 -1.69531 89.3263C-1.69531 81.3385 4.79946 74.8324 12.7834 74.821C20.7939 74.8324 27.2886 81.3385 27.2886 89.3263C27.2886 93.2027 25.7805 96.8442 23.0409 99.58C20.3088 102.312 16.675 103.82 12.8061 103.828ZM12.8061 75.5789C5.22006 75.5903 -0.937463 81.7554 -0.937463 89.3263C-0.937463 96.8934 5.21628 103.059 12.7834 103.07C16.4703 103.062 19.9148 101.634 22.5028 99.0419C25.0985 96.4501 26.5308 92.9981 26.5308 89.3263C26.5308 81.7592 20.3733 75.5903 12.8061 75.5789Z" fill="#0B315E"/>
<path d="M202.777 57.6862H201.496V64.1393H202.777V57.6862Z" fill="#0B315E"/>
<path d="M209.812 57.6862H208.531V64.1393H209.812V57.6862Z" fill="#0B315E"/>
<path d="M169.955 34.6361C156.716 34.6361 145.984 45.3673 145.984 58.6069C145.984 71.8465 156.716 82.5777 169.955 82.5777C183.195 82.5777 193.926 71.8465 193.926 58.6069C193.926 45.3673 183.195 34.6361 169.955 34.6361ZM169.955 73.1652C161.914 73.1652 155.397 66.6477 155.397 58.6069C155.397 50.5661 161.914 44.0486 169.955 44.0486C177.996 44.0486 184.513 50.5661 184.513 58.6069C184.513 66.6477 177.996 73.1652 169.955 73.1652Z" fill="#9EDFE5"/>
<path d="M177.714 186.202C161.936 186.202 147.101 180.056 135.941 168.901L136.476 168.366C159.215 191.106 196.209 191.106 218.949 168.366C229.964 157.351 236.031 142.705 236.031 127.132C236.031 111.558 229.964 96.9086 218.949 85.8971L219.483 85.3628C230.642 96.5221 236.785 111.357 236.785 127.135C236.785 142.914 230.638 157.749 219.483 168.908C208.327 180.06 193.492 186.202 177.714 186.202Z" fill="#0B315E"/>
<path d="M177.713 182.114C163.625 182.114 149.54 176.752 138.816 166.028L139.351 165.494C160.502 186.646 194.92 186.646 216.075 165.494C237.227 144.342 237.227 109.921 216.075 88.7694L216.61 88.2351C238.057 109.682 238.057 144.581 216.61 166.032C205.886 176.752 191.798 182.114 177.713 182.114Z" fill="#0B315E"/>
<path d="M177.716 178.074C164.109 178.074 151.316 172.773 141.691 163.152L142.226 162.618C151.706 172.099 164.309 177.316 177.712 177.316C191.118 177.316 203.721 172.095 213.198 162.618C222.679 153.137 227.897 140.534 227.897 127.132C227.897 113.725 222.675 101.122 213.198 91.6454L213.733 91.1111C223.353 100.732 228.655 113.528 228.655 127.135C228.655 140.743 223.353 153.535 213.733 163.16C204.115 172.773 191.323 178.074 177.716 178.074Z" fill="#0B315E"/>
<path d="M177.711 173.986C165.706 173.986 153.702 169.416 144.562 160.276L145.097 159.742C163.081 177.726 192.341 177.726 210.325 159.742C228.309 141.758 228.309 112.498 210.325 94.5138L210.859 93.9795C229.138 112.259 229.138 142.001 210.859 160.276C201.72 169.416 189.715 173.986 177.711 173.986Z" fill="#0B315E"/>
<path d="M177.714 169.924C166.751 169.924 155.785 165.752 147.438 157.404L147.972 156.87C164.372 173.27 191.052 173.27 207.448 156.87C223.848 140.47 223.848 113.79 207.448 97.3937L207.982 96.8594C224.674 113.551 224.674 140.716 207.982 157.408C199.642 165.752 188.676 169.924 177.714 169.924Z" fill="#0B315E"/>
<path d="M177.713 165.862C167.789 165.862 157.864 162.084 150.312 154.532L150.847 153.997C165.659 168.81 189.762 168.81 204.575 153.997C211.751 146.821 215.704 137.279 215.704 127.132C215.704 116.984 211.751 107.443 204.575 100.266L205.109 99.7316C212.43 107.049 216.458 116.783 216.458 127.132C216.458 137.48 212.426 147.215 205.109 154.532C197.557 162.084 187.637 165.862 177.713 165.862Z" fill="#0B315E"/>
<path d="M177.719 161.799C168.837 161.799 159.955 158.419 153.191 151.656L153.726 151.121C166.954 164.35 188.477 164.35 201.705 151.121C214.933 137.893 214.933 116.37 201.705 103.142L202.239 102.608C215.763 116.131 215.763 138.136 202.239 151.659C195.483 158.416 186.601 161.799 177.719 161.799Z" fill="#0B315E"/>
<path d="M201.284 82.6459L199.098 84.8285V82.6459H201.284Z" fill="#0B315E"/>
<path d="M205.331 82.6459L199.098 88.8792V86.6966L203.148 82.6459H205.331Z" fill="#0B315E"/>
<path d="M217.449 82.6459L199.098 100.993V98.8449L215.297 82.6459H217.449Z" fill="#0B315E"/>
<path d="M213.432 82.6459L199.098 96.9768V94.7942L211.25 82.6459H213.432Z" fill="#0B315E"/>
<path d="M209.382 82.6459L199.098 92.9299V90.7435L207.199 82.6459H209.382Z" fill="#0B315E"/>
<path d="M135.499 191.738C177.365 191.738 211.303 157.8 211.303 115.934C211.303 74.0689 177.365 40.1305 135.499 40.1305C93.6341 40.1305 59.6953 74.0689 59.6953 115.934C59.6953 157.8 93.6341 191.738 135.499 191.738Z" fill="url(#paint0_radial_901_16965)"/>
<path d="M118.153 180.496C159.085 180.496 192.267 147.314 192.267 106.382C192.267 65.4499 159.085 32.2678 118.153 32.2678C77.2211 32.2678 44.0391 65.4499 44.0391 106.382C44.0391 147.314 77.2211 180.496 118.153 180.496Z" fill="#F9F5EF"/>
<path d="M119.252 49.6643C119.775 49.6643 120.199 49.2403 120.199 48.717C120.199 48.1937 119.775 47.7697 119.252 47.7697C118.729 47.7697 118.305 48.1937 118.305 48.717C118.305 49.2403 118.729 49.6643 119.252 49.6643Z" fill="#114A82"/>
<path d="M129.151 50.4866C128.64 50.4866 128.227 50.0736 128.227 49.562C128.227 49.0505 128.64 48.6375 129.151 48.6375C129.663 48.6375 130.076 49.0505 130.076 49.562C130.076 50.0736 129.663 50.4866 129.151 50.4866Z" fill="#114A82"/>
<path d="M138.761 53.0027C139.26 53.0027 139.663 52.5987 139.663 52.1008C139.663 51.6029 139.26 51.199 138.761 51.199C138.263 51.199 137.859 51.6029 137.859 52.1008C137.859 52.5987 138.263 53.0027 138.761 53.0027Z" fill="#114A82"/>
<path d="M147.785 57.1405C147.3 57.1405 146.906 56.7465 146.906 56.2614C146.906 55.7764 147.3 55.3823 147.785 55.3823C148.27 55.3823 148.664 55.7764 148.664 56.2614C148.668 56.7465 148.274 57.1405 147.785 57.1405Z" fill="#114A82"/>
<path d="M155.962 62.7636C155.488 62.7636 155.105 62.3809 155.105 61.9073C155.105 61.4336 155.488 61.0509 155.962 61.0509C156.435 61.0509 156.818 61.4336 156.818 61.9073C156.818 62.3809 156.435 62.7636 155.962 62.7636Z" fill="#114A82"/>
<path d="M163.052 69.7056C163.515 69.7056 163.89 69.3309 163.89 68.8682C163.89 68.4055 163.515 68.0308 163.052 68.0308C162.59 68.0308 162.215 68.4055 162.215 68.8682C162.215 69.3309 162.59 69.7056 163.052 69.7056Z" fill="#114A82"/>
<path d="M168.846 77.754C168.395 77.754 168.031 77.3902 168.031 76.9393C168.031 76.4884 168.395 76.1246 168.846 76.1246C169.297 76.1246 169.661 76.4884 169.661 76.9393C169.661 77.3902 169.297 77.754 168.846 77.754Z" fill="#114A82"/>
<path d="M173.957 86.0243C174.026 85.5924 173.733 85.1862 173.301 85.1164C172.869 85.0467 172.463 85.3404 172.393 85.772C172.323 86.204 172.617 86.6102 173.049 86.6799C173.481 86.7496 173.887 86.4559 173.957 86.0243Z" fill="#114A82"/>
<path d="M175.882 96.2152C175.458 96.2152 175.113 95.8704 175.113 95.446C175.113 95.0216 175.458 94.6768 175.882 94.6768C176.307 94.6768 176.652 95.0216 176.652 95.446C176.652 95.8704 176.307 96.2152 175.882 96.2152Z" fill="#114A82"/>
<path d="M176.907 106.075C176.494 106.075 176.16 105.741 176.16 105.328C176.16 104.915 176.494 104.582 176.907 104.582C177.32 104.582 177.653 104.915 177.653 105.328C177.653 105.741 177.32 106.075 176.907 106.075Z" fill="#114A82"/>
<path d="M176.247 115.968C175.846 115.968 175.523 115.643 175.523 115.245C175.523 114.843 175.849 114.521 176.247 114.521C176.649 114.521 176.971 114.847 176.971 115.245C176.971 115.643 176.645 115.968 176.247 115.968Z" fill="#114A82"/>
<path d="M173.877 125.597C173.49 125.597 173.176 125.282 173.176 124.896C173.176 124.509 173.49 124.195 173.877 124.195C174.263 124.195 174.578 124.509 174.578 124.896C174.578 125.282 174.263 125.597 173.877 125.597Z" fill="#114A82"/>
<path d="M169.885 134.676C169.51 134.676 169.207 134.373 169.207 133.998C169.207 133.623 169.51 133.319 169.885 133.319C170.26 133.319 170.564 133.623 170.564 133.998C170.564 134.369 170.26 134.676 169.885 134.676Z" fill="#114A82"/>
<path d="M164.394 142.929C164.03 142.929 163.738 142.633 163.738 142.273C163.738 141.91 164.034 141.618 164.394 141.618C164.758 141.618 165.049 141.913 165.049 142.273C165.049 142.633 164.758 142.929 164.394 142.929Z" fill="#114A82"/>
<path d="M157.558 150.121C157.206 150.121 156.922 149.837 156.922 149.484C156.922 149.132 157.206 148.848 157.558 148.848C157.911 148.848 158.195 149.132 158.195 149.484C158.191 149.837 157.907 150.121 157.558 150.121Z" fill="#114A82"/>
<path d="M149.59 156.04C149.253 156.04 148.977 155.767 148.977 155.426C148.977 155.085 149.249 154.812 149.59 154.812C149.931 154.812 150.204 155.085 150.204 155.426C150.204 155.767 149.928 156.04 149.59 156.04Z" fill="#114A82"/>
<path d="M140.728 160.504C140.402 160.504 140.137 160.238 140.137 159.912C140.137 159.587 140.402 159.321 140.728 159.321C141.054 159.321 141.319 159.587 141.319 159.912C141.319 160.238 141.054 160.504 140.728 160.504Z" fill="#114A82"/>
<path d="M131.217 163.368C130.902 163.368 130.648 163.114 130.648 162.8C130.648 162.485 130.902 162.231 131.217 162.231C131.531 162.231 131.785 162.485 131.785 162.8C131.785 163.114 131.531 163.368 131.217 163.368Z" fill="#114A82"/>
<path d="M121.354 164.554C121.051 164.554 120.809 164.312 120.809 164.009C120.809 163.705 121.051 163.463 121.354 163.463C121.657 163.463 121.9 163.705 121.9 164.009C121.9 164.312 121.657 164.554 121.354 164.554Z" fill="#114A82"/>
<path d="M111.433 164.043C111.145 164.043 110.91 163.808 110.91 163.52C110.91 163.232 111.145 162.997 111.433 162.997C111.721 162.997 111.956 163.232 111.956 163.52C111.956 163.808 111.721 164.043 111.433 164.043Z" fill="#114A82"/>
<path d="M101.742 161.837C101.466 161.837 101.242 161.614 101.242 161.337C101.242 161.061 101.466 160.837 101.742 160.837C102.019 160.837 102.243 161.061 102.243 161.337C102.243 161.614 102.019 161.837 101.742 161.837Z" fill="#114A82"/>
<path d="M92.5634 157.987C92.2981 157.987 92.0859 157.771 92.0859 157.51C92.0859 157.245 92.3019 157.033 92.5634 157.033C92.8286 157.033 93.0408 157.249 93.0408 157.51C93.0446 157.775 92.8286 157.987 92.5634 157.987Z" fill="#114A82"/>
<path d="M84.1891 152.618C83.9352 152.618 83.7344 152.414 83.7344 152.163C83.7344 151.913 83.939 151.709 84.1891 151.709C84.4392 151.709 84.6438 151.913 84.6438 152.163C84.6438 152.414 84.443 152.618 84.1891 152.618Z" fill="#114A82"/>
<path d="M76.8498 145.896C77.0904 145.896 77.2856 145.701 77.2856 145.46C77.2856 145.22 77.0904 145.025 76.8498 145.025C76.6092 145.025 76.4141 145.22 76.4141 145.46C76.4141 145.701 76.6092 145.896 76.8498 145.896Z" fill="#114A82"/>
<path d="M119.252 54.1015C119.775 54.1015 120.199 53.6775 120.199 53.1542C120.199 52.6309 119.775 52.2069 119.252 52.2069C118.729 52.2069 118.305 52.6309 118.305 53.1542C118.305 53.6775 118.729 54.1015 119.252 54.1015Z" fill="#114A82"/>
<path d="M129.038 54.9655C128.534 54.9655 128.125 54.5562 128.125 54.0522C128.125 53.5483 128.534 53.139 129.038 53.139C129.542 53.139 129.951 53.5483 129.951 54.0522C129.951 54.5562 129.542 54.9655 129.038 54.9655Z" fill="#114A82"/>
<path d="M138.485 57.6104C138.968 57.6104 139.36 57.2186 139.36 56.7351C139.36 56.2515 138.968 55.8597 138.485 55.8597C138.001 55.8597 137.609 56.2515 137.609 56.7351C137.609 57.2186 138.001 57.6104 138.485 57.6104Z" fill="#114A82"/>
<path d="M147.279 61.9604C146.816 61.9604 146.438 61.5852 146.438 61.1192C146.438 60.6569 146.813 60.278 147.279 60.278C147.741 60.278 148.12 60.6531 148.12 61.1192C148.116 61.5852 147.741 61.9604 147.279 61.9604Z" fill="#114A82"/>
<path d="M155.108 67.849C154.665 67.849 154.305 67.489 154.305 67.0456C154.305 66.6023 154.665 66.2423 155.108 66.2423C155.551 66.2423 155.911 66.6023 155.911 67.0456C155.911 67.489 155.555 67.849 155.108 67.849Z" fill="#114A82"/>
<path d="M161.734 75.0713C161.31 75.0713 160.965 74.7264 160.965 74.3021C160.965 73.8777 161.31 73.5328 161.734 73.5328C162.158 73.5328 162.503 73.8777 162.503 74.3021C162.503 74.7264 162.158 75.0713 161.734 75.0713Z" fill="#114A82"/>
<path d="M166.907 83.3849C166.502 83.3849 166.176 83.0552 166.176 82.6536C166.176 82.2481 166.505 81.9222 166.907 81.9222C167.309 81.9222 167.638 82.2519 167.638 82.6536C167.638 83.0552 167.313 83.3849 166.907 83.3849Z" fill="#114A82"/>
<path d="M170.463 92.5055C170.848 92.5055 171.16 92.1933 171.16 91.8083C171.16 91.4233 170.848 91.1111 170.463 91.1111C170.078 91.1111 169.766 91.4233 169.766 91.8083C169.766 92.1933 170.078 92.5055 170.463 92.5055Z" fill="#114A82"/>
<path d="M172.257 102.13C171.893 102.13 171.598 101.835 171.598 101.471C171.598 101.107 171.893 100.812 172.257 100.812C172.621 100.812 172.916 101.107 172.916 101.471C172.916 101.835 172.621 102.13 172.257 102.13Z" fill="#114A82"/>
<path d="M172.254 111.918C171.909 111.918 171.629 111.637 171.629 111.293C171.629 110.948 171.909 110.667 172.254 110.667C172.599 110.667 172.879 110.948 172.879 111.293C172.879 111.637 172.599 111.918 172.254 111.918Z" fill="#114A82"/>
<path d="M170.462 121.539C170.136 121.539 169.875 121.274 169.875 120.951C169.875 120.626 170.14 120.364 170.462 120.364C170.788 120.364 171.05 120.629 171.05 120.951C171.05 121.274 170.788 121.539 170.462 121.539Z" fill="#114A82"/>
<path d="M166.909 130.663C166.602 130.663 166.355 130.417 166.355 130.11C166.355 129.803 166.602 129.557 166.909 129.557C167.216 129.557 167.462 129.803 167.462 130.11C167.462 130.413 167.216 130.663 166.909 130.663Z" fill="#114A82"/>
<path d="M161.734 138.973C161.45 138.973 161.219 138.742 161.219 138.458C161.219 138.174 161.45 137.942 161.734 137.942C162.018 137.942 162.249 138.174 162.249 138.458C162.249 138.742 162.018 138.973 161.734 138.973Z" fill="#114A82"/>
<path d="M155.114 146.195C154.849 146.195 154.633 145.979 154.633 145.714C154.633 145.449 154.849 145.233 155.114 145.233C155.379 145.233 155.595 145.449 155.595 145.714C155.591 145.979 155.379 146.195 155.114 146.195Z" fill="#114A82"/>
<path d="M147.279 152.084C147.033 152.084 146.836 151.883 146.836 151.641C146.836 151.398 147.037 151.197 147.279 151.197C147.526 151.197 147.723 151.398 147.723 151.641C147.723 151.883 147.526 152.084 147.279 152.084Z" fill="#114A82"/>
<path d="M138.483 156.434C138.256 156.434 138.074 156.252 138.074 156.025C138.074 155.797 138.256 155.615 138.483 155.615C138.711 155.615 138.893 155.797 138.893 156.025C138.893 156.252 138.711 156.434 138.483 156.434Z" fill="#114A82"/>
<path d="M129.035 159.083C129.243 159.083 129.41 158.915 129.41 158.708C129.41 158.5 129.243 158.332 129.035 158.332C128.828 158.332 128.66 158.5 128.66 158.708C128.66 158.915 128.828 159.083 129.035 159.083Z" fill="#114A82"/>
<path d="M119.251 159.943C119.438 159.943 119.589 159.792 119.589 159.606C119.589 159.419 119.438 159.268 119.251 159.268C119.065 159.268 118.914 159.419 118.914 159.606C118.914 159.792 119.065 159.943 119.251 159.943Z" fill="#114A82"/>
<path d="M119.252 59.217C119.775 59.217 120.199 58.793 120.199 58.2697C120.199 57.7464 119.775 57.3224 119.252 57.3224C118.729 57.3224 118.305 57.7464 118.305 58.2697C118.305 58.793 118.729 59.217 119.252 59.217Z" fill="#114A82"/>
<path d="M128.645 60.0469C128.168 60.0469 127.785 59.6604 127.785 59.1867C127.785 58.7093 128.172 58.3265 128.645 58.3265C129.119 58.3265 129.505 58.713 129.505 59.1867C129.509 59.6604 129.123 60.0469 128.645 60.0469Z" fill="#114A82"/>
<path d="M137.671 62.6956C137.243 62.6956 136.895 62.3469 136.895 61.9188C136.895 61.4906 137.243 61.142 137.671 61.142C138.1 61.142 138.448 61.4906 138.448 61.9188C138.448 62.3469 138.1 62.6956 137.671 62.6956Z" fill="#114A82"/>
<path d="M145.987 67.0608C146.367 67.0608 146.676 66.752 146.676 66.3712C146.676 65.9903 146.367 65.6815 145.987 65.6815C145.606 65.6815 145.297 65.9903 145.297 66.3712C145.297 66.752 145.606 67.0608 145.987 67.0608Z" fill="#114A82"/>
<path d="M153.278 72.9644C152.945 72.9644 152.672 72.6916 152.672 72.3581C152.672 72.0247 152.945 71.7518 153.278 71.7518C153.612 71.7518 153.884 72.0247 153.884 72.3581C153.884 72.6916 153.612 72.9644 153.278 72.9644Z" fill="#114A82"/>
<path d="M159.261 80.1678C158.973 80.1678 158.742 79.9366 158.742 79.6486C158.742 79.3607 158.973 79.1295 159.261 79.1295C159.549 79.1295 159.78 79.3607 159.78 79.6486C159.78 79.9366 159.549 80.1678 159.261 80.1678Z" fill="#114A82"/>
<path d="M163.717 88.398C163.478 88.398 163.281 88.2048 163.281 87.9623C163.281 87.7235 163.475 87.5265 163.717 87.5265C163.956 87.5265 164.153 87.7197 164.153 87.9623C164.153 88.2048 163.956 88.398 163.717 88.398Z" fill="#114A82"/>
<path d="M166.454 97.3407C166.261 97.3407 166.105 97.1853 166.105 96.992C166.105 96.7988 166.261 96.6434 166.454 96.6434C166.647 96.6434 166.803 96.7988 166.803 96.992C166.803 97.1853 166.647 97.3407 166.454 97.3407Z" fill="#114A82"/>
<path d="M167.371 106.643C167.515 106.643 167.632 106.526 167.632 106.382C167.632 106.237 167.515 106.12 167.371 106.12C167.226 106.12 167.109 106.237 167.109 106.382C167.109 106.526 167.226 106.643 167.371 106.643Z" fill="#114A82"/>
<path d="M76.0075 129.561C54.3785 129.561 36.7812 111.963 36.7812 90.3305C36.7812 68.6977 54.3785 51.1042 76.0075 51.1042C97.6366 51.1042 115.238 68.7015 115.238 90.3305C115.238 111.96 97.6403 129.561 76.0075 129.561ZM76.0075 51.8621C54.7953 51.8621 37.5391 69.1183 37.5391 90.3305C37.5391 111.543 54.7953 128.803 76.0075 128.803C97.2197 128.803 114.48 111.547 114.48 90.3305C114.48 69.1183 97.2197 51.8621 76.0075 51.8621Z" fill="#0B315E"/>
<path d="M76.0025 123.145C57.9088 123.145 43.1914 108.424 43.1914 90.3343C43.1914 72.2406 57.9126 57.5232 76.0025 57.5232C94.0962 57.5232 108.814 72.2444 108.814 90.3343C108.817 108.424 94.0962 123.145 76.0025 123.145ZM76.0025 60.115C59.3412 60.115 45.787 73.6692 45.787 90.3305C45.787 106.992 59.3412 120.546 76.0025 120.546C92.6638 120.546 106.218 106.992 106.218 90.3305C106.218 73.6692 92.6638 60.115 76.0025 60.115Z" fill="#BEC9DF"/>
<path d="M76.0053 116.726C61.4508 116.726 49.6094 104.885 49.6094 90.3306C49.6094 75.7761 61.4508 63.9347 76.0053 63.9347C90.5598 63.9347 102.401 75.7761 102.401 90.3306C102.401 104.885 90.5598 116.726 76.0053 116.726ZM76.0053 64.6925C61.8676 64.6925 50.3672 76.1929 50.3672 90.3306C50.3672 104.468 61.8676 115.969 76.0053 115.969C90.143 115.969 101.643 104.468 101.643 90.3306C101.643 76.1929 90.143 64.6925 76.0053 64.6925Z" fill="#0B315E"/>
<path d="M76.0002 110.311C64.9849 110.311 56.0195 101.35 56.0195 90.3306C56.0195 79.3114 64.9811 70.3499 76.0002 70.3499C87.0194 70.3499 95.9809 79.3114 95.9809 90.3306C95.9809 101.35 87.0194 110.311 76.0002 110.311ZM76.0002 71.1115C65.4017 71.1115 56.7774 79.7358 56.7774 90.3343C56.7774 100.933 65.4017 109.557 76.0002 109.557C86.5988 109.557 95.2231 100.933 95.2231 90.3343C95.2231 79.7358 86.6025 71.1115 76.0002 71.1115Z" fill="#0B315E"/>
<path d="M76.0031 103.896C68.5231 103.896 62.4414 97.8105 62.4414 90.3305C62.4414 82.8505 68.5269 76.7688 76.0031 76.7688C83.4831 76.7688 89.5686 82.8543 89.5686 90.3305C89.5686 97.8105 83.4831 103.896 76.0031 103.896ZM76.0031 77.5266C68.9438 77.5266 63.1993 83.2712 63.1993 90.3305C63.1993 97.3899 68.9438 103.138 76.0031 103.138C83.0625 103.138 88.8108 97.3937 88.8108 90.3305C88.8108 83.2674 83.0663 77.5266 76.0031 77.5266Z" fill="#0B315E"/>
<path d="M76.0098 97.4809C72.069 97.4809 68.8633 94.2752 68.8633 90.3344C68.8633 86.3936 72.069 83.1879 76.0098 83.1879C79.9506 83.1879 83.1563 86.3936 83.1563 90.3344C83.1601 94.2714 79.9506 97.4809 76.0098 97.4809ZM76.0098 83.9419C72.4858 83.9419 69.6211 86.8066 69.6211 90.3306C69.6211 93.8546 72.4858 96.7193 76.0098 96.7193C79.5338 96.7193 82.3985 93.8546 82.3985 90.3306C82.4023 86.8104 79.5338 83.9419 76.0098 83.9419Z" fill="#0B315E"/>
<path d="M128.717 163.436C155.368 163.436 176.973 141.831 176.973 115.18C176.973 88.5295 155.368 66.9243 128.717 66.9243C102.066 66.9243 80.4609 88.5295 80.4609 115.18C80.4609 141.831 102.066 163.436 128.717 163.436Z" fill="url(#paint1_radial_901_16965)"/>
<path d="M118.155 151.474C143.058 151.474 163.247 131.285 163.247 106.382C163.247 81.478 143.058 61.2897 118.155 61.2897C93.2509 61.2897 73.0625 81.478 73.0625 106.382C73.0625 131.285 93.2509 151.474 118.155 151.474Z" fill="#0B315E"/>
<path d="M112.952 127.848L115.601 125.199L114.82 124.419L111.395 127.848L114.82 131.277L115.601 130.497L112.952 127.848Z" fill="white"/>
<path d="M117.581 127.848L120.229 125.199L119.449 124.419L116.02 127.848L119.449 131.277L120.229 130.497L117.581 127.848Z" fill="white"/>
<path d="M122.26 127.848L124.909 125.199L124.128 124.419L120.699 127.848L124.128 131.277L124.909 130.497L122.26 127.848Z" fill="white"/>
<path d="M123.348 89.277L120.699 91.9257L121.48 92.7025L124.909 89.277L121.48 85.8478L120.699 86.6284L123.348 89.277Z" fill="white"/>
<path d="M118.731 89.277L116.082 91.9257L116.863 92.7025L120.292 89.277L116.863 85.8478L116.082 86.6284L118.731 89.277Z" fill="white"/>
<path d="M114.043 89.277L111.395 91.9257L112.171 92.7025L115.601 89.277L112.171 85.8478L111.395 86.6284L114.043 89.277Z" fill="white"/>
<path d="M192.678 142.917C201.682 133.913 201.682 119.313 192.678 110.309C183.673 101.305 169.074 101.305 160.07 110.309C151.065 119.313 151.065 133.913 160.07 142.917C169.074 151.921 183.673 151.922 192.678 142.917Z" fill="#BEC9DF"/>
<path d="M179.894 134.993C184.519 133.044 186.688 127.715 184.739 123.091C182.791 118.467 177.462 116.297 172.838 118.246C168.213 120.194 166.044 125.523 167.993 130.148C169.941 134.772 175.27 136.941 179.894 134.993Z" fill="#0B315E"/>
<path d="M243.762 102.422L249.73 96.4539C248.669 97.0601 247.687 97.7839 246.797 98.6061L245.914 99.489C245.092 100.376 244.368 101.361 243.762 102.422Z" fill="#BEC9DF"/>
<path d="M241.98 107.166L254.474 94.6729C254.129 94.7411 253.788 94.8244 253.451 94.9154L242.223 106.143C242.128 106.48 242.049 106.821 241.98 107.166Z" fill="#BEC9DF"/>
<path d="M241.656 110.341C241.656 110.376 241.656 110.41 241.656 110.444L257.742 94.3584C257.707 94.3584 257.673 94.3584 257.639 94.3584C257.408 94.3584 257.177 94.366 256.946 94.3736L241.671 109.648C241.664 109.879 241.656 110.107 241.656 110.341Z" fill="#BEC9DF"/>
<path d="M241.915 113.157L260.471 94.6008C260.247 94.563 260.02 94.5251 259.796 94.4948L241.812 112.479C241.839 112.71 241.873 112.933 241.915 113.157Z" fill="#BEC9DF"/>
<path d="M242.518 115.514L262.82 95.2109C262.623 95.1427 262.426 95.0821 262.229 95.0215L242.332 114.919C242.389 115.12 242.449 115.317 242.518 115.514Z" fill="#BEC9DF"/>
<path d="M243.402 117.594L264.906 96.0901C264.732 96.0029 264.558 95.9158 264.379 95.8362L243.145 117.067C243.228 117.245 243.311 117.42 243.402 117.594Z" fill="#BEC9DF"/>
<path d="M244.506 119.447L266.753 97.2004C266.597 97.0943 266.442 96.9882 266.287 96.8859L244.195 118.977C244.298 119.136 244.4 119.292 244.506 119.447Z" fill="#BEC9DF"/>
<path d="M245.821 121.095L268.401 98.5153C268.264 98.3902 268.124 98.269 267.984 98.1515L245.453 120.682C245.574 120.823 245.696 120.959 245.821 121.095Z" fill="#BEC9DF"/>
<path d="M247.327 122.55L269.854 100.023C269.737 99.8831 269.615 99.7429 269.49 99.6064L246.91 122.187C247.047 122.312 247.187 122.433 247.327 122.55Z" fill="#BEC9DF"/>
<path d="M249.028 123.808L271.112 101.725C271.01 101.566 270.908 101.41 270.798 101.259L248.559 123.498C248.714 123.604 248.869 123.71 249.028 123.808Z" fill="#BEC9DF"/>
<path d="M61.6875 190.211L67.9625 183.936C66.8485 184.573 65.814 185.334 64.878 186.198L63.9497 187.127C63.0857 188.066 62.3241 189.097 61.6875 190.211Z" fill="#0B315E"/>
<path d="M59.8203 195.198L72.9538 182.064C72.5901 182.136 72.2339 182.223 71.8777 182.318L60.0742 194.122C59.9757 194.478 59.8923 194.838 59.8203 195.198Z" fill="#0B315E"/>
<path d="M59.4844 198.536C59.4844 198.57 59.4844 198.608 59.4844 198.642L76.392 181.735C76.3579 181.735 76.32 181.735 76.2859 181.735C76.0434 181.735 75.7971 181.742 75.5584 181.75L59.4995 197.809C59.492 198.051 59.4844 198.294 59.4844 198.536Z" fill="#0B315E"/>
<path d="M59.7466 201.499L79.2499 181.996C79.0149 181.954 78.7762 181.917 78.5413 181.886L59.6367 200.791C59.667 201.026 59.7049 201.264 59.7466 201.499Z" fill="#0B315E"/>
<path d="M60.3806 203.974L81.7217 182.633C81.5171 182.561 81.3086 182.496 81.1002 182.436L60.1836 203.352C60.2442 203.561 60.3124 203.769 60.3806 203.974Z" fill="#0B315E"/>
<path d="M61.312 206.16L83.9149 183.557C83.733 183.463 83.5473 183.375 83.3616 183.288L61.043 205.607C61.1301 205.796 61.2173 205.978 61.312 206.16Z" fill="#0B315E"/>
<path d="M62.4742 208.108L85.8576 184.724C85.6947 184.611 85.5318 184.501 85.365 184.395L62.1445 207.615C62.2506 207.786 62.3605 207.949 62.4742 208.108Z" fill="#0B315E"/>
<path d="M63.8515 209.843L87.5873 186.107C87.4433 185.978 87.2993 185.85 87.1515 185.725L63.4688 209.407C63.5938 209.555 63.7188 209.699 63.8515 209.843Z" fill="#0B315E"/>
<path d="M65.4395 211.37L89.1186 187.691C88.9935 187.543 88.8647 187.396 88.7358 187.252L65 210.988C65.1478 211.12 65.2918 211.245 65.4395 211.37Z" fill="#0B315E"/>
<path d="M67.227 212.697L90.4399 189.484C90.3338 189.317 90.2239 189.154 90.1102 188.991L66.7344 212.367C66.8973 212.477 67.0603 212.587 67.227 212.697Z" fill="#0B315E"/>
<path d="M69.2445 213.795L91.5442 191.496C91.4571 191.31 91.3699 191.124 91.2752 190.943L68.6875 213.53C68.8732 213.621 69.0588 213.712 69.2445 213.795Z" fill="#0B315E"/>
<path d="M109.07 15.4321L115.345 9.1571C114.231 9.7937 113.197 10.5553 112.261 11.4193L111.332 12.3477C110.469 13.2836 109.707 14.3181 109.07 15.4321Z" fill="#0B315E"/>
<path d="M107.195 20.4187L120.329 7.28516C119.965 7.35715 119.609 7.4443 119.253 7.53904L107.449 19.3425C107.354 19.6987 107.267 20.0549 107.195 20.4187Z" fill="#0B315E"/>
<path d="M106.863 23.7571C106.863 23.7912 106.863 23.8291 106.863 23.8632L123.775 6.95557C123.741 6.95557 123.703 6.95557 123.669 6.95557C123.422 6.95557 123.18 6.96314 122.941 6.97072L106.882 23.0296C106.871 23.2721 106.863 23.5146 106.863 23.7571Z" fill="#0B315E"/>
<path d="M107.122 26.7203L126.625 7.21707C126.39 7.17538 126.151 7.13749 125.916 7.10718L107.012 26.0117C107.042 26.2467 107.08 26.4854 107.122 26.7203Z" fill="#0B315E"/>
<path d="M107.76 29.1947L129.101 7.85366C128.896 7.78166 128.688 7.71724 128.479 7.65662L107.562 28.5733C107.627 28.7817 107.691 28.9901 107.76 29.1947Z" fill="#0B315E"/>
<path d="M108.691 31.3811L131.294 8.77819C131.112 8.68725 130.926 8.59631 130.741 8.50916L108.422 30.8278C108.509 31.0135 108.596 31.1992 108.691 31.3811Z" fill="#0B315E"/>
<path d="M109.857 33.3287L133.24 9.94527C133.078 9.83159 132.915 9.7217 132.748 9.6156L109.527 32.8361C109.633 33.0028 109.743 33.1658 109.857 33.3287Z" fill="#0B315E"/>
<path d="M111.234 35.0642L134.97 11.3284C134.826 11.1996 134.682 11.0707 134.534 10.9457L110.852 34.6285C110.977 34.7725 111.105 34.9202 111.234 35.0642Z" fill="#0B315E"/>
<path d="M112.818 36.5912L136.497 12.9122C136.372 12.7644 136.244 12.6166 136.115 12.4727L112.379 36.2085C112.523 36.3373 112.667 36.4662 112.818 36.5912Z" fill="#0B315E"/>
<path d="M114.61 37.9137L137.823 14.7007C137.717 14.534 137.607 14.3711 137.493 14.2081L114.117 37.5878C114.28 37.6977 114.443 37.8076 114.61 37.9137Z" fill="#0B315E"/>
<path d="M116.623 39.0164L138.923 16.7167C138.836 16.531 138.749 16.3453 138.654 16.1635L116.066 38.7512C116.252 38.8421 116.438 38.9293 116.623 39.0164Z" fill="#0B315E"/>
<path d="M118.883 39.869L139.777 18.9751C139.716 18.7667 139.648 18.5583 139.58 18.3536L118.262 39.6719C118.466 39.7439 118.675 39.8084 118.883 39.869Z" fill="#0B315E"/>
<path d="M121.455 40.4146L140.325 21.5442C140.295 21.3054 140.257 21.0667 140.215 20.8318L120.742 40.3047C120.977 40.3464 121.216 40.3843 121.455 40.4146Z" fill="#0B315E"/>
<path d="M123.67 40.5623C123.931 40.5623 124.189 40.5548 124.443 40.5434L140.452 24.5338C140.464 24.2762 140.471 24.0185 140.471 23.7608C140.471 23.7381 140.471 23.7191 140.471 23.6964L123.605 40.5623C123.624 40.5586 123.647 40.5623 123.67 40.5623Z" fill="#0B315E"/>
<path d="M128.142 39.9561L139.87 28.2284C139.969 27.8722 140.056 27.5122 140.132 27.1484L127.062 40.2176C127.426 40.1418 127.786 40.0546 128.142 39.9561Z" fill="#0B315E"/>
<path d="M138.202 32.1843L132.09 38.2964C134.621 36.8262 136.732 34.7155 138.202 32.1843Z" fill="#0B315E"/>
<path d="M70.0273 4V18.7515H84.7789V4H70.0273ZM82.7251 16.6978H72.0811V6.05377H82.7251V16.6978Z" fill="#BEC9DF"/>
<path d="M31.9607 19.9224L31.9531 27.175L38.2357 23.5525L31.9607 19.9224Z" fill="#9EDFE5"/>
<path d="M40.6676 15.8906L40.6562 31.2143L53.9338 23.5639L40.6676 15.8906ZM42.7403 19.4904L49.777 23.5601L42.7365 27.6183L42.7403 19.4904Z" fill="#0B315E"/>
<path d="M69.1367 173.592L86.9613 173.607L78.0604 158.166L69.1367 173.592ZM73.3238 171.178L78.0566 162.997L82.778 171.185L73.3238 171.178Z" fill="#0B315E"/>
<path d="M102.777 185.145C102.777 176.653 109.659 169.772 118.15 169.772C126.642 169.772 133.523 176.653 133.523 185.145H102.777Z" fill="#9EDFE5"/>
<path d="M29.0957 67.2008H-3.73438L12.6806 50.7858L29.0957 67.2008Z" fill="#9EDFE5"/>
<path d="M8.35259 201.113C8.35259 183.247 -6.12991 168.76 -24 168.76V181.462C-13.1476 181.462 -4.34896 190.26 -4.34896 201.113H8.35259Z" fill="#BEC9DF"/>
<path d="M260.249 11.6505H239.859V32.0708H260.249V11.6505Z" fill="#BEC9DF"/>
<path d="M254.448 17.4633H245.668V26.2543H254.448V17.4633Z" fill="#114A82"/>
</g>
<defs>
<filter id="filter0_f_901_16965" x="-28" y="0" width="305.637" height="219.341" filterUnits="userSpaceOnUse" color-interpolation-filters="sRGB">
<feFlood flood-opacity="0" result="BackgroundImageFix"/>
<feBlend mode="normal" in="SourceGraphic" in2="BackgroundImageFix" result="shape"/>
<feGaussianBlur stdDeviation="2" result="effect1_foregroundBlur_901_16965"/>
</filter>
<radialGradient id="paint0_radial_901_16965" cx="0" cy="0" r="1" gradientUnits="userSpaceOnUse" gradientTransform="translate(135.499 115.936) scale(75.8039 75.8039)">
<stop/>
<stop offset="1" stop-color="white"/>
</radialGradient>
<radialGradient id="paint1_radial_901_16965" cx="0" cy="0" r="1" gradientUnits="userSpaceOnUse" gradientTransform="translate(128.718 115.182) scale(48.2572 48.2572)">
<stop/>
<stop offset="1" stop-color="white"/>
</radialGradient>
</defs>
</svg>
