<svg width="79" height="68" viewBox="0 0 79 68" fill="none" xmlns="http://www.w3.org/2000/svg">
<path d="M0 28.2637C0 51.094 20.2899 68 38.6942 68C57.0986 68 57.6994 53.8132 67.2264 48.7601C78.653 42.6995 80.2744 32.1919 78.052 22.1331C75.7701 11.8043 65.6658 8.06216 55.1863 9.29336C35.5782 11.5968 37.9855 -1.13525 22.5417 0.0822917C7.09783 1.29984 0 17.9149 0 28.2637Z" fill="#E7EEF7"/>
<g clip-path="url(#clip0_901_16946)">
<path d="M32.5722 21.8698C31.5705 21.7583 30.0638 22.1235 29.2246 22.6834L18.5255 29.8163C17.6861 30.3762 17 31.6586 17 32.6669V54.6669C17 55.6754 17.8244 56.4998 18.8329 56.4998H59.1672C60.1756 56.4998 61 55.6754 61 54.6669V32.6669C61 31.6585 60.3138 30.3761 59.4746 29.8162L52.0921 24.8949C51.2528 24.335 49.7476 23.7858 48.7445 23.6744L32.5722 21.8698Z" fill="#215EBF"/>
<path d="M48.7463 23.6745L40.6589 22.7722L32.5726 21.8699C31.5709 21.7584 30.0657 22.1236 29.2265 22.6822L23.8755 26.2499L18.5259 29.8164C18.0156 30.1561 17.5618 30.7643 17.2852 31.4142L38.9669 45.6717L60.6983 31.3725C60.4191 30.7388 59.9746 30.1493 59.475 29.8163L55.7838 27.355L52.0911 24.8936C51.252 24.3352 49.7481 23.7873 48.7463 23.6745Z" fill="#B4CCE6"/>
<path d="M25.2508 49.1671H21.5837C21.0774 49.1671 20.668 48.7562 20.668 48.25C20.668 47.7437 21.0775 47.3329 21.5837 47.3329H25.2508C25.757 47.3329 26.1679 47.7437 26.1679 48.25C26.1679 48.7562 25.757 49.1671 25.2508 49.1671Z" fill="white"/>
<path d="M32.5836 52.8328H21.5837C21.0774 52.8328 20.668 52.4232 20.668 51.9171C20.668 51.4109 21.0775 51 21.5837 51H32.5836C33.0899 51 33.5007 51.4108 33.5007 51.9171C33.5007 52.4233 33.0898 52.8328 32.5836 52.8328Z" fill="white"/>
<path d="M40.6195 39.1889L33.9393 40.2765L29.7969 30.2475L38.9478 28.8241L37.5486 33.5198L40.6195 39.1889Z" fill="white"/>
<path d="M54.6683 22.3357C55.1383 25.22 53.1805 27.9378 50.2976 28.4064C47.4133 28.8764 44.6956 26.9186 44.2256 24.0357C43.7569 21.1514 45.7146 18.4337 48.5977 17.9651C51.4819 17.495 54.1998 19.4529 54.6683 22.3357Z" fill="white"/>
<path d="M53.3755 33.2861L38.546 31.1269L36.2109 19.3146L49.9944 12.5L53.3755 33.2861Z" fill="#215EBF"/>
<path d="M33.5588 28.8898C33.6246 29.3007 33.3466 29.6861 32.9371 29.7532L26.3037 30.8328C25.8942 30.8987 25.5075 30.6207 25.4403 30.2111L24.4748 24.272C24.4077 23.8611 24.6856 23.4758 25.0966 23.4086L31.7285 22.329C32.1394 22.2632 32.5261 22.5411 32.5919 22.9507L33.5588 28.8898Z" fill="#2C7DFF"/>
<path d="M39.1688 30.2635C39.2358 30.6744 38.9566 31.0598 38.5471 31.1269L29.6391 32.5758C29.2283 32.6429 28.8416 32.365 28.7757 31.9541L27.0839 21.5609C27.0181 21.1514 27.296 20.7647 27.7056 20.6989L36.6147 19.2488C37.0243 19.183 37.411 19.4609 37.4781 19.8705L39.1688 30.2635Z" fill="#BED7FF"/>
<path d="M41.01 44.7546C40.5065 44.192 39.7747 43.8389 38.9609 43.8389C38.1459 43.8389 37.4141 44.192 36.9106 44.7546L36.2109 45.6717V46.5889C36.2109 48.1074 37.441 49.3389 38.9609 49.3389C40.4796 49.3389 41.711 48.1075 41.711 46.5889V45.6717L41.01 44.7546Z" fill="#BED7FF"/>
<path d="M41.711 45.6717C41.711 47.1904 40.4797 48.4217 38.9609 48.4217C37.441 48.4217 36.2109 47.1905 36.2109 45.6717C36.2109 44.153 37.441 42.9218 38.9609 42.9218C40.4796 42.9218 41.711 44.1531 41.711 45.6717Z" fill="#2C7DFF"/>
</g>
<defs>
<clipPath id="clip0_901_16946">
<rect width="44" height="44" fill="white" transform="translate(17 12.5)"/>
</clipPath>
</defs>
</svg>
