<svg width="48" height="48" viewBox="0 0 48 48" fill="none" xmlns="http://www.w3.org/2000/svg">
<rect width="48" height="48" rx="24" fill="#E9D4E9"/>
<g clip-path="url(#clip0_2821_29636)">
<path d="M24 40C32.837 40 40 32.837 40 24C40 15.163 32.837 8 24 8C15.163 8 8 15.163 8 24C8 32.837 15.163 40 24 40Z" fill="#207DE9"/>
<path d="M40 24.0031L32.25 13.9351H8V34.0661L32.223 34.0361L40 24.0031ZM20.905 29.4061H11.933V27.9061H20.905V29.4061ZM26.573 24.5731H11.933V23.0731H26.573V24.5731ZM26.573 19.7391H11.933V18.2391H26.573V19.7391ZM30.504 24.0101C30.504 23.0451 31.286 22.2621 32.25 22.2621C33.214 22.2621 33.996 23.0441 33.996 24.0101C33.996 24.9751 33.214 25.7581 32.25 25.7581C31.286 25.7581 30.504 24.9761 30.504 24.0101Z" fill="#AF3FAC"/>
<path d="M32.2509 25.7469C33.2157 25.7469 33.9979 24.9648 33.9979 23.9999C33.9979 23.0351 33.2157 22.2529 32.2509 22.2529C31.2861 22.2529 30.5039 23.0351 30.5039 23.9999C30.5039 24.9648 31.2861 25.7469 32.2509 25.7469Z" fill="white"/>
<path d="M26.5736 23.0701H11.9336V24.5701H26.5736V23.0701Z" fill="white"/>
<path d="M20.9056 27.906H11.9336V29.406H20.9056V27.906Z" fill="white"/>
<path d="M26.5736 18.239H11.9336V19.739H26.5736V18.239Z" fill="white"/>
</g>
<defs>
<clipPath id="clip0_2821_29636">
<rect width="32" height="32" fill="white" transform="translate(8 8)"/>
</clipPath>
</defs>
</svg>
