<svg width="48" height="48" viewBox="0 0 48 48" fill="none" xmlns="http://www.w3.org/2000/svg">
<rect width="48" height="48" rx="24" fill="#E7EEF7"/>
<path d="M36 18H18C17.2044 18 16.4413 18.3161 15.8787 18.8787C15.3161 19.4413 15 20.2044 15 21V31C15 31.7956 15.3161 32.5587 15.8787 33.1213C16.4413 33.6839 17.2044 34 18 34H28.32L29.7 37.44C29.8849 37.8986 30.2027 38.2914 30.6126 38.568C31.0224 38.8446 31.5056 38.9924 32 38.9924C32.4944 38.9924 32.9776 38.8446 33.3874 38.568C33.7973 38.2914 34.1151 37.8986 34.3 37.44L35.68 34H36C36.7956 34 37.5587 33.6839 38.1213 33.1213C38.6839 32.5587 39 31.7956 39 31V21C39 20.2044 38.6839 19.4413 38.1213 18.8787C37.5587 18.3161 36.7956 18 36 18Z" fill="#0E59AE"/>
<path d="M30 9H12C11.2044 9 10.4413 9.31607 9.87868 9.87868C9.31607 10.4413 9 11.2044 9 12V22C9 22.7956 9.31607 23.5587 9.87868 24.1213C10.4413 24.6839 11.2044 25 12 25H12.32L13.7 28.44C13.8849 28.8986 14.2027 29.2914 14.6126 29.568C15.0224 29.8446 15.5055 29.9924 16 29.9924C16.4945 29.9924 16.9776 29.8446 17.3874 29.568C17.7973 29.2914 18.1151 28.8986 18.3 28.44L19.68 25H30C30.7956 25 31.5587 24.6839 32.1213 24.1213C32.6839 23.5587 33 22.7956 33 22V12C33 11.2044 32.6839 10.4413 32.1213 9.87868C31.5587 9.31607 30.7956 9 30 9Z" fill="#9EDFE5"/>
<path d="M25.07 15.49L20.44 13.18C20.184 13.0485 19.8983 12.9858 19.6107 12.9981C19.3232 13.0104 19.0438 13.0972 18.8 13.25C18.5557 13.4002 18.3539 13.6105 18.2138 13.8608C18.0738 14.1112 18.0002 14.3932 18 14.68V19.32C18.0002 19.6068 18.0738 19.8888 18.2138 20.1391C18.3539 20.3895 18.5557 20.5997 18.8 20.75C19.0641 20.9141 19.369 21.0007 19.68 21C19.9439 20.9998 20.2041 20.9382 20.44 20.82L25.07 18.51C25.3447 18.3674 25.575 18.1521 25.7357 17.8876C25.8965 17.6231 25.9815 17.3195 25.9815 17.01C25.9815 16.7005 25.8965 16.3969 25.7357 16.1324C25.575 15.8679 25.3447 15.6526 25.07 15.51V15.49Z" fill="#0E59AE"/>
<path d="M24 29H23.5C23.2348 29 22.9804 28.8946 22.7929 28.7071C22.6054 28.5196 22.5 28.2652 22.5 28C22.5 27.7348 22.6054 27.4804 22.7929 27.2929C22.9804 27.1054 23.2348 27 23.5 27H24C24.2652 27 24.5196 27.1054 24.7071 27.2929C24.8946 27.4804 25 27.7348 25 28C25 28.2652 24.8946 28.5196 24.7071 28.7071C24.5196 28.8946 24.2652 29 24 29Z" fill="white"/>
<path d="M28 29H27.5C27.2348 29 26.9804 28.8946 26.7929 28.7071C26.6054 28.5196 26.5 28.2652 26.5 28C26.5 27.7348 26.6054 27.4804 26.7929 27.2929C26.9804 27.1054 27.2348 27 27.5 27H28C28.2652 27 28.5196 27.1054 28.7071 27.2929C28.8946 27.4804 29 27.7348 29 28C29 28.2652 28.8946 28.5196 28.7071 28.7071C28.5196 28.8946 28.2652 29 28 29Z" fill="white"/>
<path d="M32 29H31.5C31.2348 29 30.9804 28.8946 30.7929 28.7071C30.6054 28.5196 30.5 28.2652 30.5 28C30.5 27.7348 30.6054 27.4804 30.7929 27.2929C30.9804 27.1054 31.2348 27 31.5 27H32C32.2652 27 32.5196 27.1054 32.7071 27.2929C32.8946 27.4804 33 27.7348 33 28C33 28.2652 32.8946 28.5196 32.7071 28.7071C32.5196 28.8946 32.2652 29 32 29Z" fill="white"/>
</svg>
