<svg width="48" height="48" viewBox="0 0 48 48" fill="none" xmlns="http://www.w3.org/2000/svg">
<rect width="48" height="48" rx="24" fill="#E7EEF7"/>
<g clip-path="url(#clip0_2821_27534)">
<path d="M8.76953 23.2284C8.76953 14.8315 15.601 8 23.998 8C37.1021 8 44.0148 23.5026 35.4495 33.2669C35.0015 33.7777 34.2169 33.7989 33.7407 33.3228L33.1345 32.7168C32.6771 32.2594 32.677 31.5177 33.1343 31.0602L33.8711 30.3232L27.9678 28.7414L29.9493 36.134C30.1065 36.7203 29.7899 37.3295 29.2197 37.5377C19.3006 41.16 8.76953 33.7946 8.76953 23.2284Z" fill="#9EDFE5"/>
<path d="M24.0039 8.00012V38.4705C25.7218 38.4694 27.4808 38.1734 29.2213 37.5378C29.7915 37.3296 30.1081 36.7203 29.951 36.1341L27.9695 28.7415L33.8727 30.3232L33.1359 31.0603C32.6785 31.5178 32.6787 32.2594 33.1361 32.7169L33.7423 33.3229C34.2185 33.7991 35.0031 33.7777 35.4512 33.2669C44.0153 23.5036 37.1052 8.00356 24.0039 8.00012Z" fill="#0E59AE"/>
<path d="M12.6758 23.2285C12.6758 16.9846 17.7556 11.9048 23.9995 11.9048C32.9742 11.9048 38.3652 21.8973 33.4995 29.3857C33.223 29.8112 32.704 30.0102 32.214 29.879L27.9695 28.7415L28.9335 32.3388C29.0865 32.9098 28.7901 33.5053 28.2423 33.7275C20.8105 36.7417 12.6758 31.216 12.6758 23.2285Z" fill="#EAF2FF"/>
<path d="M24.0039 11.9048V34.5618C25.4019 34.5624 26.8346 34.2984 28.2422 33.7274C28.79 33.5052 29.0864 32.9097 28.9333 32.3387L27.9693 28.7414L32.2139 29.8789C32.704 30.0101 33.2229 29.811 33.4994 29.3856C38.3644 21.8985 32.976 11.908 24.0039 11.9048Z" fill="#9EDFE5"/>
<path d="M23.9981 22.057C23.2105 22.057 22.5575 21.4168 22.5424 20.6299C22.5352 20.2508 22.683 19.8872 22.9586 19.6063C23.8233 18.7249 25.454 19.1542 25.454 20.4234C25.454 21.0704 25.9785 21.5949 26.6254 21.5949C27.2723 21.5949 27.7968 21.0704 27.7968 20.4234C27.7968 18.7714 26.6844 17.3752 25.1695 16.9421V16.3907C25.1695 15.7437 24.645 15.2192 23.9981 15.2192C23.3512 15.2192 22.8267 15.7437 22.8267 16.3907V17.0047C21.271 17.5271 20.1675 18.9784 20.2 20.6747C20.2393 22.7287 21.9431 24.3998 23.9981 24.3998C24.7857 24.3998 25.4387 25.04 25.4537 25.8268C25.4888 27.6614 22.5421 27.8602 22.5421 26.0333C22.5421 25.3864 22.0176 24.8619 21.3707 24.8619C20.7237 24.8619 20.1992 25.3864 20.1992 26.0333C20.1992 27.6854 21.3117 29.0816 22.8265 29.5147V30.0661C22.8265 30.713 23.351 31.2375 23.998 31.2375C24.6449 31.2375 25.1694 30.713 25.1694 30.0661V29.4521C26.725 28.9297 27.8285 27.4784 27.796 25.7821C27.7568 23.7281 26.0531 22.057 23.9981 22.057Z" fill="#9EDFE5"/>
<path d="M25.4553 20.4235C25.4553 21.0705 25.9798 21.595 26.6267 21.595C27.2737 21.595 27.7982 21.0705 27.7982 20.4235C27.7982 18.7715 26.6857 17.3754 25.1708 16.9422V16.3908C25.1708 15.7454 24.6487 15.222 24.0039 15.2196V19.1443C24.7387 19.1105 25.4553 19.5822 25.4553 20.4235Z" fill="#0E59AE"/>
<path d="M24.0039 22.0571V24.4001C24.7895 24.4025 25.4401 25.0416 25.4552 25.8269C25.4727 26.7478 24.7391 27.2563 24.0039 27.3035V31.2373C24.6488 31.2348 25.1708 30.7115 25.1708 30.0661V29.4521C26.7264 28.9298 27.8299 27.4784 27.7975 25.7821C27.7583 23.7296 26.0568 22.0596 24.0039 22.0571Z" fill="#0E59AE"/>
<path d="M34.3775 39.6568L31.1132 36.3926L29.7702 37.7357C29.4743 38.0317 29.0429 38.1473 28.6384 38.0388C27.7686 37.8055 28.0447 38.0841 25.1778 27.3878C24.9444 26.5173 25.7431 25.7203 26.6125 25.9531L36.4351 28.5849C37.3054 28.8181 37.5967 29.908 36.9605 30.5446L35.6175 31.888L38.8816 35.1528C39.3389 35.6103 39.3389 36.3519 38.8815 36.8094L36.0342 39.6567C35.5767 40.1143 34.8349 40.1144 34.3775 39.6568Z" fill="#0E59AE"/>
</g>
<defs>
<clipPath id="clip0_2821_27534">
<rect width="32" height="32" fill="white" transform="translate(8 8)"/>
</clipPath>
</defs>
</svg>
