<svg width="48" height="48" viewBox="0 0 48 48" fill="none" xmlns="http://www.w3.org/2000/svg">
<rect width="48" height="48" rx="24" fill="#E9D4E9"/>
<path opacity="0.4" d="M28.668 25.5333H25.7746C23.4013 25.5333 21.468 23.6133 21.468 21.2266V18.3333C21.468 17.7866 21.028 17.3333 20.468 17.3333H16.2413C13.1613 17.3333 10.668 19.3333 10.668 22.9066V31.7599C10.668 35.3333 13.1613 37.3333 16.2413 37.3333H24.0946C27.1746 37.3333 29.668 35.3333 29.668 31.7599V26.5333C29.668 25.9733 29.2146 25.5333 28.668 25.5333Z" fill="#AF3FAC"/>
<path d="M31.761 10.6667H29.1344H27.681H23.9077C20.8943 10.6667 18.4543 12.5867 18.3477 16.0134C18.4277 16.0134 18.4943 16.0001 18.5743 16.0001H22.3477H23.801H26.4277C29.5077 16.0001 32.001 18.0001 32.001 21.5734V24.2001V27.8134V30.4401C32.001 30.5201 31.9877 30.5867 31.9877 30.6534C34.961 30.5601 37.3344 28.5867 37.3344 25.1067V22.4801V18.8667V16.2401C37.3344 12.6667 34.841 10.6667 31.761 10.6667Z" fill="#207DE9"/>
<path d="M23.9755 17.5337C23.5621 17.1204 22.8555 17.4004 22.8555 17.9737V21.467C22.8555 22.9337 24.0955 24.1337 25.6155 24.1337C26.5621 24.147 27.8821 24.147 29.0155 24.147C29.5888 24.147 29.8821 23.4803 29.4821 23.0803C28.0288 21.627 25.4421 19.0271 23.9755 17.5337Z" fill="#AF3FAC"/>
</svg>
