<svg width="143" height="143" viewBox="0 0 143 143" fill="none" xmlns="http://www.w3.org/2000/svg">
<path d="M132.03 102.662C113.696 133.702 74.2612 147.118 45.4905 140.932C37.635 139.243 22.311 131.722 11.3688 118.304C-9.64489 92.5341 0.198973 45.6557 26.7567 20.7543C30.1768 17.5476 53.7467 -3.85235 85.5625 0.609549C108.856 3.8763 123.515 19.1794 125.293 21.0795C127.538 23.4799 132.444 29.1281 136.427 37.5948C145.786 57.4887 143.486 83.264 132.03 102.662Z" fill="url(#paint0_linear_901_17301)"/>
<path d="M6.43119 33.8607C15.6058 40.9207 67.3192 84.1863 35.436 140.006C35.436 140.006 -5.94106 120.287 4.86146 34.5116C4.95593 33.7612 5.83178 33.3995 6.43119 33.8607Z" fill="#91B3FA"/>
<path d="M9.58334 45.062C9.58334 45.062 12.3292 49.8846 16.1559 57.2733C16.6315 58.1982 17.1271 59.1617 17.6399 60.1589C18.1451 61.1599 18.6675 62.1948 19.2045 63.2587C19.7345 64.3261 20.2856 65.4194 20.8327 66.5448C21.1081 67.1067 21.3863 67.6747 21.6673 68.2482C21.9444 68.8234 22.2242 69.4042 22.5063 69.9899C23.637 72.3317 24.7738 74.7667 25.9156 77.2471C26.4776 78.4915 27.0442 79.7456 27.6129 81.0048C28.1662 82.2709 28.7359 83.5357 29.2798 84.8118C29.8234 86.0881 30.3788 87.3595 30.9018 88.6386C31.1666 89.2768 31.4309 89.9138 31.6944 90.5489C31.9569 91.1844 32.207 91.8228 32.4625 92.4562C32.7159 93.0903 32.9685 93.7218 33.2197 94.3503C33.4631 94.982 33.7052 95.6104 33.9458 96.2351C34.4346 97.4816 34.8878 98.7244 35.3371 99.9455C36.2337 102.388 37.0527 104.768 37.7909 107.037C38.5267 109.307 39.1835 111.467 39.7387 113.476C40.0329 114.475 40.2732 115.445 40.5087 116.365C40.6265 116.826 40.7412 117.274 40.8527 117.71C40.9589 118.147 41.0497 118.575 41.1445 118.988C41.3262 119.815 41.5146 120.586 41.656 121.306C41.7934 122.027 41.9195 122.689 42.0335 123.287C42.0898 123.586 42.1431 123.869 42.1933 124.135C42.2339 124.403 42.2719 124.655 42.3073 124.889C42.3781 125.357 42.4382 125.755 42.487 126.078C42.5845 126.723 42.6366 127.067 42.6366 127.067C42.6644 127.251 42.5378 127.423 42.3538 127.451C42.1698 127.479 41.9981 127.352 41.9703 127.168L41.9701 127.167L41.968 127.152C41.968 127.152 41.9178 126.811 41.824 126.171C41.777 125.851 41.7191 125.457 41.6511 124.993C41.6171 124.761 41.5805 124.511 41.5415 124.245C41.4928 123.981 41.4411 123.699 41.3865 123.402C41.276 122.808 41.1538 122.151 41.0206 121.435C40.8833 120.719 40.6992 119.952 40.5222 119.129C40.4299 118.718 40.3416 118.293 40.2378 117.857C40.1287 117.423 40.0165 116.977 39.9014 116.518C39.6711 115.601 39.4363 114.636 39.1476 113.639C38.6036 111.637 37.9588 109.482 37.2353 107.216C36.5094 104.951 35.703 102.575 34.8192 100.134C34.3763 98.9133 33.9295 97.6715 33.4472 96.4253C33.2097 95.8008 32.9708 95.1725 32.7307 94.5411C32.4827 93.9127 32.2334 93.2812 31.9832 92.6471C31.7309 92.0138 31.484 91.3754 31.2248 90.7398C30.9645 90.1046 30.7034 89.4675 30.4418 88.8291C29.9252 87.5497 29.3762 86.2778 28.8389 85.001C28.3014 83.7242 27.7379 82.4585 27.1909 81.1916C26.6283 79.9315 26.068 78.6762 25.5119 77.4309C24.3823 74.9482 23.2572 72.5106 22.1379 70.1661C21.8586 69.5797 21.5816 68.9982 21.3072 68.4222C21.029 67.848 20.7535 67.2793 20.4809 66.7167C19.9391 65.5899 19.3932 64.495 18.8684 63.4261C18.3364 62.3607 17.819 61.3243 17.3184 60.3218C16.8103 59.3231 16.3194 58.3582 15.8482 57.4319C14.8994 55.5824 14.0203 53.8919 13.2307 52.399C12.4432 50.9049 11.7462 49.6079 11.1699 48.5412C10.0146 46.4087 9.33485 45.2024 9.33485 45.2024C9.29608 45.1337 9.32042 45.0467 9.38913 45.008C9.4578 44.9693 9.54467 44.9933 9.58334 45.062Z" fill="#BDD0FB"/>
<path d="M69.5952 47.9743C74.6869 56.2607 102.348 105.693 60.6248 139.982C60.6248 139.982 34.0369 112.127 68.1682 48.0159C68.4667 47.455 69.2626 47.433 69.5952 47.9743Z" fill="#BDD0FB"/>
<path d="M68.7408 57.7067C68.7408 57.7067 69.4563 62.3143 70.2541 69.2595C70.4543 70.9957 70.6585 72.878 70.8601 74.8704C71.0584 76.8632 71.2615 78.9654 71.442 81.1427C71.6302 83.3194 71.7956 85.5713 71.9512 87.8603C72.0208 89.0053 72.091 90.1595 72.1615 91.3182C72.2178 92.4777 72.2873 93.6412 72.3332 94.8059C72.3788 95.9706 72.4352 97.1349 72.4638 98.2958C72.481 98.8761 72.4983 99.4553 72.5155 100.033C72.5266 100.61 72.5377 101.186 72.5489 101.76C72.5585 102.334 72.5681 102.905 72.5776 103.474C72.5801 104.043 72.5824 104.609 72.5848 105.171C72.5963 106.296 72.5808 107.408 72.569 108.501C72.5432 110.687 72.4756 112.801 72.3773 114.804C72.2769 116.807 72.1474 118.7 71.9832 120.443C71.9156 121.317 71.8147 122.15 71.7246 122.944C71.6795 123.34 71.6357 123.727 71.593 124.103C71.5458 124.478 71.4891 124.841 71.4401 125.194C71.3357 125.899 71.2533 126.56 71.1493 127.168C71.0418 127.775 70.9431 128.333 70.8538 128.837C70.8086 129.089 70.7659 129.328 70.7257 129.552C70.6773 129.775 70.6321 129.984 70.5899 130.178C70.5057 130.567 70.4339 130.898 70.3758 131.166C70.2594 131.703 70.1974 131.989 70.1974 131.989C70.158 132.171 69.9786 132.286 69.7967 132.247C69.6149 132.207 69.4994 132.028 69.5389 131.846L69.5392 131.844L69.5423 131.83C69.5423 131.83 69.6051 131.548 69.7229 131.018C69.7817 130.753 69.8544 130.426 69.9398 130.042C69.9825 129.849 70.0284 129.643 70.0774 129.423C70.1184 129.201 70.162 128.965 70.208 128.715C70.299 128.216 70.3998 127.664 70.5095 127.062C70.616 126.46 70.7009 125.803 70.8084 125.104C70.8589 124.755 70.9169 124.394 70.9658 124.022C71.0101 123.648 71.0557 123.265 71.1026 122.87C71.1962 122.082 71.301 121.254 71.3728 120.386C71.5451 118.652 71.6838 116.768 71.7942 114.774C71.9025 112.779 71.981 110.673 72.018 108.492C72.0355 107.402 72.0567 106.294 72.0511 105.171C72.0517 104.61 72.0523 104.046 72.0529 103.478C72.0462 102.911 72.0396 102.341 72.033 101.768C72.0249 101.196 72.0168 100.621 72.0087 100.044C71.9945 99.4677 71.9803 98.8895 71.966 98.3102C71.9436 97.1514 71.8933 95.9888 71.8539 94.8258C71.8142 93.6629 71.7508 92.5007 71.7007 91.3426C71.6363 90.1852 71.5722 89.0322 71.5087 87.8884C71.3651 85.6016 71.2117 83.3516 71.035 81.1763C70.8661 79.0004 70.674 76.8992 70.4863 74.9074C70.2954 72.9158 70.1011 71.0341 69.9101 69.2983C69.1492 62.3546 68.4587 57.7496 68.4587 57.7496C68.4469 57.6717 68.5007 57.599 68.5786 57.5873C68.6562 57.5755 68.7287 57.6292 68.7408 57.7067Z" fill="url(#paint1_linear_901_17301)"/>
<path d="M142.861 142.199H114.73V46.7676C114.73 45.6287 115.654 44.7054 116.793 44.7054H140.799C141.938 44.7054 142.861 45.6287 142.861 46.7676V142.199Z" fill="url(#paint2_linear_901_17301)"/>
<path d="M135.927 142.199H107.797V46.7676C107.797 45.6287 108.72 44.7054 109.859 44.7054H133.865C135.004 44.7054 135.927 45.6287 135.927 46.7676V142.199Z" fill="url(#paint3_linear_901_17301)"/>
<path d="M109.809 58.8647C109.666 58.8647 109.551 58.7491 109.551 58.6064V52.6139C109.551 49.4392 111.345 46.8563 113.55 46.8563H119.736C119.878 46.8563 119.994 46.9719 119.994 47.1147C119.994 47.2574 119.878 47.373 119.736 47.373H113.55C111.63 47.373 110.067 49.7241 110.067 52.6139V58.6064C110.067 58.7491 109.952 58.8647 109.809 58.8647Z" fill="#91B3FA"/>
<path d="M109.809 65.2186C109.666 65.2186 109.551 65.1029 109.551 64.9602V62.5188C109.551 62.3761 109.666 62.2605 109.809 62.2605C109.952 62.2605 110.067 62.3761 110.067 62.5188V64.9602C110.067 65.1029 109.952 65.2186 109.809 65.2186Z" fill="#91B3FA"/>
<path d="M101.102 141.84C101.102 141.84 102.675 136.969 108.666 134.52C114.225 132.248 127.688 127.332 131.83 122.74C132.014 122.537 132.344 122.814 132.26 123.102C131.364 126.193 128.571 133.633 121.452 138.578C112.273 144.956 101.102 141.84 101.102 141.84Z" fill="#BDD0FB"/>
<path opacity="0.5" d="M128.548 127.33C128.548 127.33 128.506 127.441 128.411 127.644C128.315 127.845 128.174 128.142 127.957 128.499C127.749 128.861 127.467 129.285 127.119 129.752C127.035 129.872 126.941 129.989 126.843 130.109C126.745 130.23 126.645 130.354 126.542 130.481C126.331 130.731 126.093 130.981 125.853 131.249C125.6 131.504 125.335 131.769 125.054 132.037C124.76 132.289 124.464 132.561 124.144 132.822C123.816 133.072 123.49 133.345 123.133 133.591C122.953 133.712 122.772 133.835 122.589 133.959C122.404 134.08 122.224 134.215 122.027 134.324C121.833 134.439 121.638 134.554 121.441 134.671C121.242 134.784 121.049 134.912 120.839 135.011C120.425 135.217 120.008 135.434 119.581 135.637C119.146 135.823 118.708 136.01 118.268 136.198C117.821 136.372 117.38 136.532 116.935 136.7C116.042 137.026 115.142 137.348 114.254 137.64C113.365 137.933 112.486 138.209 111.634 138.471C110.781 138.722 109.956 138.965 109.173 139.195C108.392 139.424 107.65 139.631 106.975 139.843C106.297 140.05 105.681 140.249 105.143 140.446C104.873 140.543 104.628 140.65 104.397 140.741C104.171 140.84 103.968 140.94 103.781 141.025C103.421 141.218 103.134 141.366 102.957 141.495C102.773 141.615 102.675 141.679 102.675 141.679L102.668 141.683C102.628 141.709 102.575 141.698 102.549 141.659C102.524 141.621 102.534 141.571 102.569 141.543C102.569 141.543 102.664 141.47 102.842 141.332C103.016 141.187 103.293 141.007 103.653 140.788C103.839 140.689 104.042 140.575 104.268 140.46C104.497 140.355 104.742 140.231 105.01 140.117C105.546 139.888 106.156 139.64 106.831 139.408C107.505 139.169 108.237 138.925 109.013 138.674C109.788 138.423 110.605 138.159 111.451 137.886C112.295 137.613 113.165 137.326 114.045 137.021C114.926 136.716 115.815 136.406 116.702 136.078C117.144 135.911 117.594 135.746 118.027 135.577C118.458 135.399 118.887 135.222 119.313 135.046C119.731 134.853 120.139 134.647 120.546 134.452C120.948 134.246 121.332 134.02 121.718 133.811C121.913 133.71 122.091 133.584 122.275 133.471C122.456 133.356 122.637 133.241 122.815 133.128C122.997 133.02 123.158 132.887 123.329 132.771C123.498 132.652 123.664 132.534 123.828 132.417C124.151 132.177 124.451 131.925 124.749 131.691C125.033 131.44 125.308 131.197 125.571 130.964C125.82 130.716 126.068 130.486 126.289 130.253C126.502 130.014 126.723 129.801 126.905 129.58C127.089 129.36 127.269 129.16 127.416 128.96C127.571 128.766 127.711 128.585 127.828 128.415C127.952 128.249 128.053 128.095 128.141 127.961C128.233 127.829 128.302 127.711 128.36 127.617C128.475 127.427 128.528 127.321 128.528 127.321C128.531 127.316 128.537 127.314 128.543 127.316C128.548 127.319 128.55 127.325 128.548 127.33Z" fill="white"/>
<path d="M138.062 93.2483C138.141 92.7706 137.525 92.5046 137.233 92.8903C134.405 96.6194 126.685 106.165 119.132 109.869C106.833 115.901 95.0948 128.937 97.4784 139.022C97.4784 139.022 129.507 145.291 138.062 93.2483Z" fill="#91B3FA"/>
<path opacity="0.5" d="M134.879 98.9123C134.879 98.9123 134.856 98.9554 134.813 99.039C134.766 99.1219 134.695 99.2518 134.604 99.4071C134.422 99.723 134.149 100.182 133.793 100.761C133.078 101.915 132.038 103.554 130.726 105.479C130.065 106.437 129.347 107.474 128.564 108.555C127.786 109.639 126.947 110.769 126.065 111.928C125.172 113.078 124.244 114.262 123.271 115.442C123.028 115.737 122.784 116.033 122.54 116.331C122.291 116.625 122.042 116.92 121.792 117.215C121.296 117.809 120.781 118.391 120.271 118.977C119.761 119.563 119.236 120.136 118.717 120.71C118.186 121.273 117.657 121.834 117.133 122.391C116.595 122.936 116.072 123.485 115.537 124.011C115.27 124.274 115.004 124.535 114.74 124.794C114.477 125.055 114.214 125.311 113.946 125.559C112.889 126.563 111.846 127.511 110.826 128.374C109.811 129.244 108.822 130.03 107.901 130.745C107.433 131.094 106.985 131.429 106.56 131.747C106.129 132.058 105.708 132.337 105.319 132.607C105.124 132.741 104.935 132.871 104.752 132.996C104.565 133.115 104.385 133.229 104.212 133.339C103.866 133.559 103.549 133.761 103.262 133.943C102.682 134.299 102.212 134.555 101.898 134.739C101.582 134.92 101.414 135.017 101.414 135.017C101.373 135.041 101.32 135.027 101.297 134.985C101.274 134.945 101.286 134.894 101.325 134.87L101.329 134.868C101.329 134.868 101.493 134.765 101.8 134.572C102.106 134.378 102.562 134.103 103.13 133.736C103.411 133.546 103.721 133.336 104.059 133.108C104.228 132.994 104.404 132.875 104.586 132.752C104.764 132.622 104.949 132.488 105.139 132.35C105.519 132.07 105.927 131.779 106.349 131.462C106.767 131.138 107.207 130.798 107.665 130.443C108.569 129.717 109.539 128.918 110.534 128.036C111.529 127.156 112.563 126.21 113.608 125.205C113.873 124.958 114.134 124.702 114.394 124.441C114.655 124.181 114.918 123.92 115.183 123.657C115.712 123.131 116.23 122.581 116.761 122.036C117.281 121.479 117.804 120.917 118.329 120.353C118.842 119.778 119.372 119.215 119.882 118.632C120.392 118.051 120.908 117.474 121.405 116.885C121.655 116.592 121.905 116.299 122.154 116.007C122.399 115.712 122.643 115.418 122.887 115.125C123.862 113.954 124.793 112.778 125.689 111.636C126.577 110.488 127.436 109.379 128.226 108.307C129.022 107.241 129.754 106.217 130.428 105.271C131.093 104.319 131.708 103.449 132.236 102.667C132.769 101.888 133.222 101.2 133.593 100.633C133.961 100.064 134.251 99.618 134.441 99.3093C134.534 99.1575 134.605 99.0412 134.654 98.9628C134.7 98.8811 134.723 98.839 134.723 98.839L134.728 98.8306C134.751 98.7893 134.803 98.7745 134.845 98.7978C134.885 98.8205 134.9 98.8714 134.879 98.9123Z" fill="white"/>
<path d="M102.943 142.199H75.6406V73.0235C75.6406 71.8845 76.5639 70.9613 77.7028 70.9613H100.881C102.02 70.9613 102.943 71.8846 102.943 73.0235L102.943 142.199Z" fill="#2C7DFF"/>
<path d="M96.0094 142.199H68.707V73.0235C68.707 71.8845 69.6303 70.9613 70.7692 70.9613H93.9472C95.0861 70.9613 96.0094 71.8846 96.0094 73.0235L96.0094 142.199Z" fill="url(#paint4_linear_901_17301)"/>
<path opacity="0.72" d="M70.5357 84.2772C70.393 84.2772 70.2773 84.1616 70.2773 84.0189V78.9648C70.2773 76.2649 71.8154 74.0684 73.7063 74.0684H78.9493C79.092 74.0684 79.2077 74.184 79.2077 74.3267C79.2077 74.4694 79.092 74.585 78.9493 74.585H73.7063C72.1004 74.585 70.794 76.5498 70.794 78.9648V84.019C70.794 84.1616 70.6783 84.2772 70.5357 84.2772Z" fill="white"/>
<path opacity="0.72" d="M70.5357 89.6359C70.393 89.6359 70.2773 89.5202 70.2773 89.3775V87.3184C70.2773 87.1757 70.393 87.0601 70.5357 87.0601C70.6783 87.0601 70.794 87.1757 70.794 87.3184V89.3775C70.794 89.5203 70.6783 89.6359 70.5357 89.6359Z" fill="white"/>
<path d="M64.8227 142.101H41.2969V95.9764C41.2969 94.8374 42.2202 93.9142 43.359 93.9142H62.7605C63.8995 93.9142 64.8227 94.8375 64.8227 95.9764V142.101Z" fill="url(#paint5_linear_901_17301)"/>
<path d="M57.8891 142.101H34.3633V95.9764C34.3633 94.8374 35.2866 93.9142 36.4254 93.9142H55.827C56.9659 93.9142 57.8891 94.8375 57.8891 95.9764V142.101Z" fill="url(#paint6_linear_901_17301)"/>
<path d="M36.3013 107.66C36.1587 107.66 36.043 107.545 36.043 107.402V101.691C36.043 98.6592 37.8369 96.1924 40.0419 96.1924H46.2279C46.3705 96.1924 46.4862 96.308 46.4862 96.4507C46.4862 96.5934 46.3705 96.709 46.2279 96.709H40.0419C38.1218 96.709 36.5596 98.9441 36.5596 101.691V107.402C36.5596 107.545 36.4439 107.66 36.3013 107.66Z" fill="#91B3FA"/>
<path d="M36.3013 113.715C36.1587 113.715 36.043 113.599 36.043 113.457V111.13C36.043 110.987 36.1587 110.872 36.3013 110.872C36.4439 110.872 36.5596 110.987 36.5596 111.13V113.457C36.5596 113.6 36.4439 113.715 36.3013 113.715Z" fill="#91B3FA"/>
<path d="M121.473 9.21084L124.563 15.4708C124.845 16.0428 125.391 16.4393 126.022 16.531L132.93 17.5348C134.52 17.7658 135.155 19.7193 134.004 20.8405L129.005 25.7132C128.549 26.1584 128.34 26.7999 128.448 27.4287L129.628 34.309C129.9 35.8922 128.238 37.0996 126.816 36.3521L120.637 33.1036C120.073 32.8068 119.398 32.8068 118.833 33.1036L112.654 36.3521C111.233 37.0996 109.571 35.8922 109.842 34.309L111.022 27.4287C111.13 26.8 110.922 26.1584 110.465 25.7132L105.466 20.8405C104.316 19.7193 104.951 17.7658 106.54 17.5348L113.449 16.531C114.08 16.4393 114.626 16.0428 114.908 15.4708L117.997 9.21084C118.708 7.77038 120.762 7.77038 121.473 9.21084Z" fill="white"/>
<path d="M127.723 35.4082C127.603 35.4082 127.483 35.3772 127.366 35.3158L121.187 32.0673C120.742 31.8337 120.242 31.7102 119.74 31.7102C119.238 31.7102 118.738 31.8337 118.294 32.0673L112.115 35.3158C111.998 35.3771 111.878 35.4082 111.757 35.4082C111.535 35.4082 111.313 35.3021 111.163 35.1245C111.062 35.004 110.951 34.7989 111.001 34.5068L112.181 27.6266C112.354 26.6179 112.02 25.5892 111.287 24.8748L106.288 20.0022C105.98 19.7017 106.05 19.352 106.094 19.2156C106.139 19.0792 106.288 18.7553 106.714 18.6934L113.622 17.6895C114.635 17.5424 115.51 16.9067 115.963 15.9889L119.052 9.72902C119.243 9.343 119.597 9.30127 119.74 9.30127C119.884 9.30127 120.238 9.343 120.428 9.72902L123.518 15.9889C123.971 16.9067 124.846 17.5424 125.859 17.6895L132.767 18.6934C133.193 18.7553 133.342 19.0792 133.386 19.2156C133.43 19.352 133.5 19.7017 133.192 20.0022L128.193 24.8748C127.46 25.5892 127.126 26.6179 127.299 27.6265L128.479 34.5068C128.529 34.7989 128.419 35.0039 128.317 35.1245C128.167 35.3021 127.945 35.4082 127.723 35.4082Z" fill="url(#paint7_linear_901_17301)"/>
<path opacity="0.72" d="M113.184 25.9543C113.11 25.9543 113.041 25.9072 113.017 25.8329C112.812 25.2027 112.453 24.625 111.978 24.1624L110.076 22.3086C110.007 22.2409 110.006 22.1297 110.073 22.0602C110.141 21.9908 110.252 21.9893 110.322 22.057L112.223 23.9108C112.739 24.4131 113.129 25.0402 113.351 25.7243C113.381 25.8166 113.33 25.9156 113.238 25.9456C113.22 25.9516 113.202 25.9543 113.184 25.9543Z" fill="white"/>
<path opacity="0.72" d="M116.918 31.6416C116.855 31.6416 116.794 31.6074 116.762 31.5477C116.717 31.4618 116.75 31.3556 116.836 31.3104L117.663 30.8756C118.3 30.5409 119.017 30.3639 119.736 30.3639C120.456 30.3639 121.173 30.5409 121.81 30.8757C121.895 30.9208 121.928 31.027 121.883 31.1128C121.838 31.1987 121.732 31.2317 121.646 31.1866C121.059 30.8782 120.399 30.7151 119.736 30.7151C119.074 30.7151 118.413 30.8781 117.827 31.1865L117 31.6213C116.973 31.635 116.945 31.6416 116.918 31.6416Z" fill="white"/>
<path opacity="0.72" d="M125.516 33.0375C125.378 33.0375 125.239 33.0171 125.103 32.9756C125.011 32.9473 124.958 32.8491 124.987 32.7564C125.015 32.6636 125.113 32.6113 125.206 32.6397C125.562 32.7484 125.945 32.6631 126.23 32.4114C126.517 32.1592 126.644 31.7977 126.579 31.4195L125.967 27.854C125.719 26.4085 126.198 24.9344 127.248 23.9107L129.839 21.3856C130.14 21.092 130.242 20.6778 130.112 20.2777C129.982 19.8775 129.656 19.6026 129.24 19.5421L125.66 19.0219C124.209 18.8111 122.955 17.9 122.306 16.5848L120.705 13.3409C120.518 12.9636 120.156 12.7384 119.735 12.7384C119.315 12.7384 118.952 12.9636 118.766 13.3409L117.165 16.5848C116.516 17.9 115.262 18.8111 113.811 19.0219L110.231 19.5421C110.017 19.5731 109.823 19.6626 109.668 19.8009C109.595 19.8655 109.484 19.8591 109.42 19.7867C109.355 19.7144 109.361 19.6034 109.434 19.5388C109.64 19.3545 109.898 19.2354 110.18 19.1945L113.76 18.6743C115.097 18.4801 116.252 17.6409 116.85 16.4292L118.451 13.1853C118.694 12.693 119.186 12.3871 119.735 12.3871C120.284 12.3871 120.776 12.693 121.019 13.1853L122.62 16.4292C123.218 17.6408 124.374 18.4801 125.711 18.6743L129.29 19.1945C129.834 19.2734 130.277 19.6469 130.446 20.1691C130.616 20.6914 130.477 21.2539 130.084 21.6371L127.494 24.1622C126.526 25.1051 126.085 26.463 126.313 27.7946L126.925 31.3601C127.01 31.8537 126.837 32.3452 126.462 32.6749C126.193 32.9123 125.858 33.0374 125.516 33.0375Z" fill="white"/>
<path d="M88.3643 42.1082L91.043 47.5358C91.2877 48.0317 91.7609 48.3754 92.3082 48.455L98.2978 49.3253C99.6761 49.5256 100.226 51.2194 99.2291 52.1916L94.895 56.4163C94.499 56.8024 94.3183 57.3586 94.4118 57.9036L95.4349 63.8691C95.6703 65.2418 94.2295 66.2886 92.9968 65.6404L87.6395 62.8239C87.15 62.5666 86.5651 62.5666 86.0756 62.8239L80.7183 65.6404C79.4855 66.2885 78.0447 65.2417 78.2801 63.8691L79.3033 57.9036C79.3968 57.3585 79.216 56.8023 78.82 56.4163L74.4859 52.1916C73.4885 51.2194 74.0389 49.5256 75.4172 49.3253L81.4068 48.455C81.9541 48.3754 82.4273 48.0317 82.672 47.5358L85.3507 42.1082C85.967 40.8593 87.7479 40.8593 88.3643 42.1082Z" fill="white"/>
<path d="M93.7755 64.8222C93.671 64.8222 93.5667 64.7953 93.4656 64.7421L88.1083 61.9256C87.723 61.723 87.2892 61.6159 86.854 61.6159C86.4188 61.6159 85.985 61.723 85.5997 61.9255L80.2424 64.7421C80.1412 64.7952 80.037 64.8222 79.9325 64.8222C79.74 64.8222 79.5475 64.7302 79.4177 64.5762C79.3296 64.4717 79.2337 64.294 79.2771 64.0407L80.3003 58.0753C80.4503 57.2007 80.1605 56.3088 79.5251 55.6894L75.1909 51.4647C74.9237 51.2041 74.9842 50.901 75.0226 50.7827C75.0611 50.6645 75.1903 50.3836 75.5597 50.3299L81.5493 49.4595C82.4274 49.3319 83.1861 48.7807 83.5788 47.985L86.2575 42.5574C86.4227 42.2227 86.7298 42.1865 86.8541 42.1865C86.9784 42.1865 87.2855 42.2227 87.4507 42.5574L90.1294 47.985C90.5221 48.7807 91.2808 49.3319 92.1589 49.4595L98.1485 50.3299C98.5179 50.3835 98.6472 50.6644 98.6856 50.7827C98.724 50.901 98.7845 51.2041 98.5173 51.4647L94.1831 55.6894C93.5477 56.3088 93.2579 57.2007 93.4079 58.0752L94.431 64.0406C94.4745 64.2939 94.3785 64.4716 94.2904 64.5761C94.1604 64.7302 93.9679 64.8222 93.7755 64.8222Z" fill="url(#paint8_linear_901_17301)"/>
<path opacity="0.72" d="M81.1776 56.6253C81.1134 56.6253 81.0537 56.5844 81.0328 56.52C80.8552 55.9736 80.5439 55.4727 80.1324 55.0716L78.4835 53.4643C78.4233 53.4056 78.422 53.3092 78.4807 53.249C78.5394 53.1888 78.6358 53.1875 78.696 53.2462L80.3449 54.8535C80.7917 55.289 81.1297 55.8327 81.3224 56.4259C81.3484 56.5058 81.3047 56.5917 81.2247 56.6178C81.2091 56.6228 81.1932 56.6253 81.1776 56.6253Z" fill="white"/>
<path opacity="0.72" d="M84.4102 61.5566C84.3555 61.5566 84.3026 61.527 84.2753 61.4752C84.2362 61.4008 84.2648 61.3086 84.3393 61.2696L85.0564 60.8925C85.6085 60.6022 86.2301 60.4489 86.8539 60.4489C87.4776 60.4489 88.0992 60.6023 88.6514 60.8926C88.7258 60.9317 88.7545 61.0238 88.7154 61.0982C88.6762 61.1727 88.5842 61.2013 88.5097 61.1621C88.001 60.8947 87.4284 60.7534 86.8539 60.7534C86.2793 60.7534 85.7067 60.8947 85.1981 61.162L84.481 61.5391C84.4583 61.5509 84.4341 61.5566 84.4102 61.5566Z" fill="white"/>
<path opacity="0.72" d="M91.8654 62.7666C91.746 62.7666 91.6257 62.749 91.5079 62.713C91.4275 62.6884 91.3822 62.6033 91.4068 62.523C91.4313 62.4425 91.5164 62.3972 91.5969 62.4218C91.9053 62.516 92.2374 62.442 92.4851 62.2239C92.7333 62.0052 92.8435 61.6917 92.7872 61.3639L92.257 58.2725C92.0421 57.0192 92.4574 55.7411 93.3679 54.8535L95.6139 52.6642C95.8751 52.4096 95.9638 52.0505 95.8511 51.7036C95.7384 51.3566 95.4556 51.1182 95.0946 51.0657L91.9908 50.6147C90.7324 50.432 89.6451 49.642 89.0822 48.5016L87.6941 45.6891C87.5327 45.362 87.2185 45.1667 86.8538 45.1667C86.489 45.1667 86.1748 45.362 86.0134 45.6891L84.6254 48.5016C84.0625 49.642 82.9753 50.4319 81.7169 50.6147L78.6131 51.0657C78.4279 51.0927 78.2591 51.1702 78.1247 51.2901C78.0619 51.3462 77.9657 51.3406 77.9097 51.2779C77.8538 51.2151 77.8592 51.1189 77.922 51.0629C78.101 50.9032 78.3249 50.7999 78.5693 50.7644L81.6731 50.3134C82.8322 50.145 83.8338 49.4173 84.3523 48.3669L85.7404 45.5543C85.9511 45.1274 86.3777 44.8622 86.8538 44.8622C87.3298 44.8622 87.7565 45.1274 87.9672 45.5543L89.3553 48.3669C89.8737 49.4173 90.8753 50.145 92.0346 50.3134L95.1383 50.7644C95.6094 50.8329 95.9935 51.1566 96.1407 51.6094C96.2878 52.0623 96.1674 52.55 95.8264 52.8823L93.5805 55.0716C92.7417 55.8892 92.3592 57.0665 92.5571 58.221L93.0874 61.3124C93.1608 61.7404 93.0109 62.1666 92.6864 62.4524C92.4528 62.658 92.1619 62.7666 91.8654 62.7666Z" fill="white"/>
<path d="M48.9585 71.2509L51.2264 75.8461C51.4336 76.266 51.8341 76.557 52.2975 76.6243L57.3686 77.3612C58.5355 77.5308 59.0014 78.9648 58.1571 79.7878L54.4876 83.3647C54.1523 83.6915 53.9993 84.1624 54.0784 84.6239L54.9447 89.6745C55.144 90.8366 53.9242 91.7229 52.8805 91.1742L48.3448 88.7896C47.9303 88.5718 47.4352 88.5718 47.0208 88.7896L42.4851 91.1742C41.4414 91.7229 40.2215 90.8366 40.4209 89.6745L41.2871 84.6239C41.3663 84.1624 41.2133 83.6915 40.878 83.3647L37.2085 79.7878C36.3641 78.9648 36.8301 77.5308 37.997 77.3612L43.068 76.6243C43.5314 76.557 43.932 76.266 44.1392 75.8461L46.4071 71.2509C46.9288 70.1935 48.4366 70.1935 48.9585 71.2509Z" fill="white"/>
<path d="M53.5467 90.4811C53.4582 90.4811 53.37 90.4583 53.2843 90.4133L48.7486 88.0287C48.4224 87.8572 48.0552 87.7666 47.6866 87.7666C47.3181 87.7666 46.9509 87.8572 46.6247 88.0287L42.089 90.4133C42.0033 90.4583 41.9151 90.4811 41.8266 90.4811C41.6636 90.4811 41.5007 90.4032 41.3908 90.2728C41.3162 90.1843 41.235 90.0338 41.2718 89.8194L42.138 84.7689C42.265 84.0284 42.0197 83.2733 41.4817 82.7489L37.8122 79.1721C37.5859 78.9515 37.6371 78.6948 37.6697 78.5947C37.7022 78.4945 37.8117 78.2567 38.1244 78.2113L43.1955 77.4744C43.9388 77.3665 44.5812 76.8998 44.9137 76.2261L47.1816 71.6309C47.3214 71.3476 47.5814 71.3169 47.6866 71.3169C47.7919 71.3169 48.0519 71.3476 48.1917 71.6309L50.4596 76.2261C50.7921 76.8998 51.4345 77.3665 52.1779 77.4744L57.2489 78.2113C57.5616 78.2568 57.6711 78.4945 57.7036 78.5947C57.7362 78.6948 57.7874 78.9515 57.5611 79.1721L53.8916 82.7489C53.3536 83.2733 53.1083 84.0284 53.2353 84.7688L54.1015 89.8194C54.1383 90.0338 54.0571 90.1843 53.9825 90.2727C53.8725 90.4032 53.7096 90.4811 53.5467 90.4811Z" fill="url(#paint9_linear_901_17301)"/>
<path opacity="0.72" d="M42.8746 83.5415C42.8202 83.5415 42.7697 83.507 42.752 83.4524C42.6016 82.9898 42.338 82.5657 41.9896 82.2262L40.5936 80.8654C40.5426 80.8157 40.5416 80.7341 40.5913 80.6831C40.641 80.6321 40.7226 80.6311 40.7736 80.6807L42.1697 82.0415C42.5479 82.4103 42.834 82.8706 42.9972 83.3728C43.0193 83.4405 42.9822 83.5132 42.9145 83.5352C42.9012 83.5395 42.8878 83.5415 42.8746 83.5415Z" fill="white"/>
<path opacity="0.72" d="M45.6173 87.7163C45.571 87.7163 45.5262 87.6912 45.5031 87.6474C45.47 87.5843 45.4942 87.5063 45.5572 87.4732L46.1644 87.1541C46.6319 86.9083 47.1581 86.7784 47.6862 86.7784C48.2143 86.7784 48.7405 86.9084 49.2081 87.1542C49.2711 87.1873 49.2953 87.2652 49.2622 87.3282C49.2291 87.3913 49.1511 87.4155 49.0881 87.3823C48.6574 87.1559 48.1726 87.0363 47.6862 87.0363C47.1997 87.0363 46.715 87.1559 46.2844 87.3822L45.6772 87.7014C45.658 87.7115 45.6375 87.7163 45.6173 87.7163Z" fill="white"/>
<path opacity="0.72" d="M51.9302 88.7409C51.8291 88.7409 51.7272 88.726 51.6275 88.6955C51.5594 88.6747 51.5211 88.6026 51.5419 88.5346C51.5626 88.4665 51.6346 88.4281 51.7028 88.4489C51.964 88.5287 52.2451 88.4661 52.4548 88.2814C52.665 88.0962 52.7582 87.8308 52.7106 87.5532L52.2617 84.936C52.0798 83.8749 52.4313 82.7928 53.2023 82.0413L55.1038 80.1878C55.3249 79.9722 55.4 79.6682 55.3046 79.3745C55.2092 79.0807 54.9697 78.8789 54.6641 78.8345L52.0363 78.4526C50.9709 78.2979 50.0504 77.6291 49.5738 76.6636L48.3986 74.2824C48.262 74.0055 47.996 73.8402 47.6871 73.8402C47.3783 73.8402 47.1123 74.0055 46.9757 74.2824L45.8005 76.6636C45.3239 77.6291 44.4034 78.2979 43.338 78.4526L40.7102 78.8345C40.5535 78.8573 40.4105 78.9229 40.2968 79.0244C40.2436 79.0718 40.1622 79.0672 40.1147 79.0141C40.0674 78.961 40.072 78.8795 40.1251 78.8321C40.2767 78.6968 40.4662 78.6094 40.6731 78.5793L43.301 78.1975C44.2823 78.0549 45.1303 77.4388 45.5693 76.5495L46.7445 74.1683C46.9229 73.8068 47.2841 73.5823 47.6871 73.5823C48.0902 73.5823 48.4514 73.8068 48.6298 74.1683L49.8051 76.5495C50.244 77.4388 51.092 78.0549 52.0734 78.1975L54.7012 78.5793C55.1001 78.6373 55.4252 78.9114 55.5498 79.2948C55.6743 79.6781 55.5724 80.0911 55.2838 80.3724L53.3822 82.226C52.6721 82.9182 52.3482 83.915 52.5158 84.8924L52.9647 87.5097C53.0269 87.872 52.9 88.2328 52.6252 88.4748C52.4275 88.649 52.1812 88.7409 51.9302 88.7409Z" fill="white"/>
<path d="M13.799 95.8253L15.656 99.5881C15.8257 99.9319 16.1537 100.17 16.5332 100.225L20.6857 100.829C21.6412 100.968 22.0227 102.142 21.3313 102.816L18.3266 105.745C18.052 106.012 17.9267 106.398 17.9915 106.776L18.7009 110.912C18.8641 111.863 17.8652 112.589 17.0105 112.14L13.2964 110.187C12.957 110.009 12.5516 110.009 12.2122 110.187L8.4981 112.14C7.64342 112.589 6.64458 111.863 6.80777 110.912L7.51711 106.776C7.58195 106.398 7.45661 106.012 7.18205 105.745L4.17731 102.816C3.48587 102.142 3.8674 100.968 4.82293 100.829L8.97543 100.225C9.35487 100.17 9.68289 99.9319 9.85261 99.5881L11.7097 95.8253C12.1369 94.9594 13.3716 94.9594 13.799 95.8253Z" fill="white"/>
<path d="M17.556 111.572C17.4836 111.572 17.4114 111.553 17.3412 111.517L13.6271 109.564C13.36 109.424 13.0593 109.349 12.7575 109.349C12.4557 109.349 12.155 109.424 11.8879 109.564L8.17382 111.517C8.10368 111.553 8.03139 111.572 7.95901 111.572C7.82555 111.572 7.69211 111.508 7.60207 111.402C7.541 111.329 7.47448 111.206 7.50458 111.03L8.21392 106.895C8.31789 106.288 8.117 105.67 7.6765 105.241L4.67175 102.312C4.48647 102.131 4.5284 101.921 4.55503 101.839C4.58166 101.757 4.67129 101.562 4.92738 101.525L9.07982 100.922C9.68852 100.833 10.2146 100.451 10.4868 99.8993L12.3439 96.1365C12.4584 95.9044 12.6713 95.8794 12.7575 95.8794C12.8437 95.8794 13.0566 95.9045 13.1711 96.1365L15.0282 99.8993C15.3005 100.451 15.8265 100.833 16.4352 100.922L20.5877 101.525C20.8437 101.562 20.9334 101.757 20.96 101.839C20.9866 101.921 21.0286 102.131 20.8433 102.312L17.8385 105.241C17.398 105.67 17.1971 106.288 17.3011 106.895L18.0104 111.03C18.0405 111.206 17.974 111.329 17.9129 111.402C17.8229 111.508 17.6895 111.572 17.556 111.572Z" fill="url(#paint10_linear_901_17301)"/>
<path opacity="0.72" d="M8.81764 105.89C8.77316 105.89 8.73174 105.861 8.71725 105.817C8.59415 105.438 8.37831 105.091 8.093 104.812L6.94983 103.698C6.90811 103.657 6.90724 103.591 6.94795 103.549C6.98861 103.507 7.05543 103.506 7.09721 103.547L8.24037 104.661C8.55008 104.963 8.78443 105.34 8.91804 105.751C8.93604 105.807 8.90574 105.866 8.85029 105.884C8.83948 105.888 8.82846 105.89 8.81764 105.89Z" fill="white"/>
<path opacity="0.72" d="M11.0588 109.308C11.0208 109.308 10.9842 109.288 10.9653 109.252C10.9381 109.2 10.958 109.136 11.0096 109.109L11.5067 108.848C11.8895 108.647 12.3205 108.54 12.7528 108.54C13.1853 108.54 13.6162 108.647 13.999 108.848C14.0506 108.875 14.0705 108.939 14.0433 108.99C14.0162 109.042 13.9524 109.062 13.9008 109.035C13.5481 108.849 13.1512 108.751 12.7528 108.751C12.3545 108.751 11.9575 108.849 11.6049 109.035L11.1078 109.296C11.0921 109.304 11.0753 109.308 11.0588 109.308Z" fill="white"/>
<path opacity="0.72" d="M16.2255 110.147C16.1427 110.147 16.0593 110.135 15.9776 110.11C15.9219 110.093 15.8905 110.034 15.9075 109.978C15.9245 109.922 15.9835 109.891 16.0393 109.908C16.2531 109.973 16.4833 109.922 16.655 109.771C16.8272 109.619 16.9035 109.402 16.8645 109.174L16.4969 107.031C16.3479 106.162 16.6359 105.276 17.2671 104.661L18.8242 103.143C19.0053 102.967 19.0667 102.718 18.9886 102.477C18.9104 102.237 18.7144 102.071 18.4641 102.035L16.3123 101.722C15.4399 101.596 14.6861 101.048 14.2959 100.257L13.3335 98.3074C13.2216 98.0806 13.0038 97.9453 12.751 97.9453C12.4981 97.9453 12.2803 98.0807 12.1683 98.3074L11.206 100.257C10.8158 101.048 10.0621 101.596 9.18967 101.722L7.03787 102.035C6.90952 102.054 6.79249 102.107 6.69929 102.191C6.65578 102.229 6.5891 102.226 6.55023 102.182C6.51141 102.138 6.51524 102.072 6.5587 102.033C6.68287 101.922 6.83805 101.851 7.00747 101.826L9.15926 101.513C9.96288 101.397 10.6572 100.892 11.0167 100.164L11.979 98.214C12.1251 97.918 12.4209 97.7341 12.7509 97.7341C13.081 97.7341 13.3768 97.918 13.5229 98.214L14.4852 100.164C14.8447 100.892 15.5391 101.397 16.3427 101.513L18.4944 101.826C18.821 101.873 19.0873 102.098 19.1893 102.412C19.2913 102.726 19.2079 103.064 18.9715 103.294L17.4144 104.812C16.8329 105.379 16.5677 106.195 16.7049 106.996L17.0725 109.139C17.1234 109.435 17.0195 109.731 16.7945 109.929C16.6327 110.072 16.431 110.147 16.2255 110.147Z" fill="white"/>
<path d="M30.6157 142.101H7.08984V120.217C7.08984 119.078 8.01314 118.154 9.15201 118.154H28.5535C29.6924 118.154 30.6157 119.078 30.6157 120.217V142.101Z" fill="#2C7DFF"/>
<path d="M23.6782 142.101H0.152344V120.217C0.152344 119.078 1.07564 118.154 2.21451 118.154H21.616C22.7549 118.154 23.6782 119.078 23.6782 120.217V142.101Z" fill="url(#paint11_linear_901_17301)"/>
<path opacity="0.72" d="M1.82474 131.506C1.6821 131.506 1.56641 131.39 1.56641 131.247V125.537C1.56641 122.505 3.36035 120.038 5.5653 120.038H11.7513C11.8939 120.038 12.0096 120.153 12.0096 120.296C12.0096 120.439 11.8939 120.554 11.7513 120.554H5.5653C3.64526 120.554 2.08307 122.789 2.08307 125.537V131.248C2.08302 131.39 1.96732 131.506 1.82474 131.506Z" fill="white"/>
<path opacity="0.72" d="M1.82474 137.561C1.6821 137.561 1.56641 137.445 1.56641 137.302V134.976C1.56641 134.833 1.6821 134.718 1.82474 134.718C1.96737 134.718 2.08307 134.833 2.08307 134.976V137.302C2.08302 137.445 1.96732 137.561 1.82474 137.561Z" fill="white"/>
<defs>
<linearGradient id="paint0_linear_901_17301" x1="138.611" y1="168.171" x2="50.2176" y2="43.8282" gradientUnits="userSpaceOnUse">
<stop stop-color="#DAE3FE"/>
<stop offset="1" stop-color="#E9EFFD"/>
</linearGradient>
<linearGradient id="paint1_linear_901_17301" x1="68.4569" y1="94.92" x2="72.5888" y2="94.92" gradientUnits="userSpaceOnUse">
<stop stop-color="#DAE3FE"/>
<stop offset="1" stop-color="#E9EFFD"/>
</linearGradient>
<linearGradient id="paint2_linear_901_17301" x1="138.677" y1="93.2716" x2="140.15" y2="193.39" gradientUnits="userSpaceOnUse">
<stop stop-color="#0E59AE"/>
<stop offset="1" stop-color="#9EDFE5"/>
</linearGradient>
<linearGradient id="paint3_linear_901_17301" x1="99.8149" y1="100.941" x2="201.737" y2="89.4312" gradientUnits="userSpaceOnUse">
<stop stop-color="#0E59AE"/>
<stop offset="1" stop-color="#9EDFE5"/>
</linearGradient>
<linearGradient id="paint4_linear_901_17301" x1="112.843" y1="60.7473" x2="15.0787" y2="210.051" gradientUnits="userSpaceOnUse">
<stop stop-color="#388AED"/>
<stop offset="1" stop-color="#9EDFE5"/>
</linearGradient>
<linearGradient id="paint5_linear_901_17301" x1="61.3236" y1="117.918" x2="61.7539" y2="167.409" gradientUnits="userSpaceOnUse">
<stop stop-color="#0E59AE"/>
<stop offset="1" stop-color="#9EDFE5"/>
</linearGradient>
<linearGradient id="paint6_linear_901_17301" x1="27.6878" y1="121.709" x2="110.973" y2="105.795" gradientUnits="userSpaceOnUse">
<stop stop-color="#0E59AE"/>
<stop offset="1" stop-color="#9EDFE5"/>
</linearGradient>
<linearGradient id="paint7_linear_901_17301" x1="121.822" y1="11.3231" x2="114.248" y2="40.9319" gradientUnits="userSpaceOnUse">
<stop stop-color="#FBAB18"/>
<stop offset="1" stop-color="#E6913A"/>
</linearGradient>
<linearGradient id="paint8_linear_901_17301" x1="88.6592" y1="43.9395" x2="82.092" y2="69.6114" gradientUnits="userSpaceOnUse">
<stop stop-color="#FBAB18"/>
<stop offset="1" stop-color="#E6913A"/>
</linearGradient>
<linearGradient id="paint9_linear_901_17301" x1="49.2149" y1="72.801" x2="43.6549" y2="94.5358" gradientUnits="userSpaceOnUse">
<stop stop-color="#FBAB18"/>
<stop offset="1" stop-color="#E6913A"/>
</linearGradient>
<linearGradient id="paint10_linear_901_17301" x1="14.009" y1="97.0947" x2="9.45609" y2="114.892" gradientUnits="userSpaceOnUse">
<stop stop-color="#FBAB18"/>
<stop offset="1" stop-color="#E6913A"/>
</linearGradient>
<linearGradient id="paint11_linear_901_17301" x1="38.1836" y1="114.721" x2="20.9876" y2="182.037" gradientUnits="userSpaceOnUse">
<stop stop-color="#388AED"/>
<stop offset="1" stop-color="#9EDFE5"/>
</linearGradient>
</defs>
</svg>
