<svg width="48" height="48" viewBox="0 0 48 48" fill="none" xmlns="http://www.w3.org/2000/svg">
<rect width="48" height="48" rx="24" fill="#E7EEF7"/>
<path d="M19.7305 39.2852C19.7305 39.6784 20.0521 40 20.4452 40H31.0094C31.4025 40 31.7242 39.6784 31.7242 39.2852V37.6484H19.7305V39.2852Z" fill="#0E59AE"/>
<path d="M19.4903 19.5399L19.4939 14.3114C19.4939 13.7074 19.7226 13.1427 20.1408 12.721C20.6054 12.2564 21.2701 11.992 21.9706 11.992C22.5174 11.992 23.0427 12.1599 23.4501 12.4601C23.9433 12.8247 24.2506 13.375 24.315 14.004C24.315 14.0183 24.5973 16.7451 24.851 19.186C26.6272 18.1425 27.8244 16.2126 27.8244 14.004C27.8244 10.6875 25.1369 8 21.8204 8C18.5039 8 15.8164 10.6875 15.8164 14.004C15.8128 16.4914 17.3281 18.6285 19.4903 19.5399Z" fill="#9EDFE5"/>
<path d="M33.596 26.3623C33.596 25.6654 33.1493 25.0471 32.4845 24.8327C30.5011 24.1858 26.4984 22.8957 25.8872 22.7742C25.6978 22.7384 25.512 22.7206 25.3333 22.7206C24.8508 22.7206 24.4291 22.8528 24.1754 23.078H24.1718C24.1718 23.078 24.1718 23.078 24.1718 23.0744C24.1682 23.0458 23.2462 14.1291 23.2462 14.1148C23.1711 13.4001 22.5779 13.0605 21.9668 13.0605C21.2735 13.0605 20.5587 13.4966 20.5622 14.3078L20.5551 28.7568C20.5551 28.9283 20.43 29.0713 20.2585 29.0963C20.2549 29.0963 20.2549 29.0963 20.2513 29.0963C20.2371 29.0999 20.2192 29.0999 20.2049 29.0999C20.2013 29.0999 20.1977 29.0999 20.1941 29.0999C19.7081 29.0856 18.6109 29.0713 17.5424 27.5238C17.3994 27.3201 17.2708 27.1343 17.1528 26.9627C16.7811 26.4302 16.2844 26.2015 15.8162 26.2015C14.9942 26.2015 14.2545 26.9126 14.4331 27.9741C14.6905 29.5216 16.3845 33.1275 19.7224 36.5084H31.7161L32.9276 34.4606C33.3601 33.7351 33.5888 32.906 33.5888 32.059L33.596 26.3623Z" fill="#0E59AE"/>
</svg>
