<svg width="48" height="48" viewBox="0 0 48 48" fill="none" xmlns="http://www.w3.org/2000/svg">
<rect width="48" height="48" rx="24" fill="#E9D4E9"/>
<path d="M29.3333 16H18.6667C17.1939 16 16 17.1939 16 18.6667V29.3333C16 30.8061 17.1939 32 18.6667 32H29.3333C30.8061 32 32 30.8061 32 29.3333V18.6667C32 17.1939 30.8061 16 29.3333 16Z" fill="#207DE9"/>
<path d="M24.0013 21.3334C24.0013 22.0407 23.7203 22.7189 23.2203 23.219C22.7202 23.7191 22.0419 24.0001 21.3346 24.0001H13.3346C12.6274 24.0001 11.9491 23.7191 11.449 23.219C10.9489 22.7189 10.668 22.0407 10.668 21.3334V13.3334C10.668 12.6262 10.9489 11.9479 11.449 11.4478C11.9491 10.9477 12.6274 10.6667 13.3346 10.6667H21.3346C22.0419 10.6667 22.7202 10.9477 23.2203 11.4478C23.7203 11.9479 24.0013 12.6262 24.0013 13.3334V21.3334ZM34.668 24.0001H26.668C25.9607 24.0001 25.2824 24.281 24.7824 24.7811C24.2823 25.2812 24.0013 25.9595 24.0013 26.6667V34.6667C24.0013 35.374 24.2823 36.0523 24.7824 36.5524C25.2824 37.0525 25.9607 37.3334 26.668 37.3334H34.668C35.3752 37.3334 36.0535 37.0525 36.5536 36.5524C37.0537 36.0523 37.3346 35.374 37.3346 34.6667V26.6667C37.3346 25.9595 37.0537 25.2812 36.5536 24.7811C36.0535 24.281 35.3752 24.0001 34.668 24.0001Z" fill="#AF3FAC"/>
</svg>
