<svg width="82" height="71" viewBox="0 0 82 71" fill="none" xmlns="http://www.w3.org/2000/svg">
<path d="M79.8458 42.4658C80.6425 19.6494 60.955 2.0456 42.5619 1.4033C24.1688 0.760996 23.0732 14.9181 13.3757 19.6357C1.74446 25.2938 -0.2426 35.7384 1.62735 45.8687C3.54743 56.2708 13.5149 60.3633 24.0311 59.4986C43.7076 57.8809 40.8574 70.5212 56.3343 69.8433C71.8112 69.1655 79.4846 52.8083 79.8458 42.4658Z" fill="#E7EEF7"/>
<g clip-path="url(#clip0_901_16798)">
<path d="M25.0352 32.6274V55.2935H41.5936V44.399C41.5936 41.8677 43.6456 39.8157 46.1769 39.8157C48.7082 39.8157 50.7603 41.8677 50.7603 44.399V55.2935H55.2852V32.6274H25.0352ZM36.7967 41.8872H31.2967C30.5373 41.8872 29.9217 41.2715 29.9217 40.5122C29.9217 39.7528 30.5373 39.1372 31.2967 39.1372H36.7967C37.5561 39.1372 38.1717 39.7528 38.1717 40.5122C38.1717 41.2715 37.5561 41.8872 36.7967 41.8872Z" fill="#0E59AE"/>
<path d="M60.7852 56.6685H19.5352C18.7758 56.6685 18.1602 56.0528 18.1602 55.2935C18.1602 54.5341 18.7758 53.9185 19.5352 53.9185H60.7852C61.5445 53.9185 62.1602 54.5341 62.1602 55.2935C62.1602 56.0528 61.5445 56.6685 60.7852 56.6685Z" fill="#051F3D"/>
<path d="M25.344 30.5864C21.2055 30.5864 18.3973 26.3783 19.9855 22.5567L23.5234 14.0435H32.6901L31.092 25.5798C30.6945 28.4496 28.2412 30.5864 25.344 30.5864Z" fill="#2C7DFF"/>
<path d="M40.3742 30.5864H39.9484C36.427 30.5864 33.7173 27.4754 34.2005 23.9873L35.578 14.0435H44.7446L46.1221 23.9873C46.6053 27.4754 43.8956 30.5864 40.3742 30.5864Z" fill="#2C7DFF"/>
<path d="M54.975 30.5864C52.0778 30.5864 49.6246 28.4496 49.227 25.5798L47.6289 14.0435H56.7956L60.3335 22.5567C61.9217 26.3783 59.1135 30.5864 54.975 30.5864Z" fill="#2C7DFF"/>
</g>
<defs>
<clipPath id="clip0_901_16798">
<rect width="44" height="44" fill="white" transform="translate(18.1602 13.356)"/>
</clipPath>
</defs>
</svg>
