<svg width="48" height="48" viewBox="0 0 48 48" fill="none" xmlns="http://www.w3.org/2000/svg">
<rect width="48" height="48" rx="24" fill="#E7EEF7"/>
<path d="M27.6143 14.0967C24.6268 15.0535 22.667 17.4056 21.7347 21.153C20.3363 26.7741 18.6032 27.4909 12.9609 25.4915C14.9873 29.2344 19.0944 30.735 21.7347 30.735C24.375 30.735 31.2132 27.0589 30.4297 20.0713C29.7496 18.0361 28.8111 16.0446 27.6143 14.0967Z" fill="#D8D8D8"/>
<mask id="mask0_2870_31370" style="mask-type:luminance" maskUnits="userSpaceOnUse" x="12" y="14" width="19" height="17">
<path d="M27.6143 14.0967C24.6268 15.0535 22.667 17.4056 21.7347 21.153C20.3363 26.7741 18.6032 27.4909 12.9609 25.4915C14.9873 29.2344 19.0944 30.735 21.7347 30.735C24.375 30.735 31.2132 27.0589 30.4297 20.0713C29.7496 18.0361 28.8111 16.0446 27.6143 14.0967Z" fill="white"/>
</mask>
<g mask="url(#mask0_2870_31370)">
<path d="M40 8H8V40H40V8Z" fill="#9EDFE5"/>
</g>
<path d="M29.5735 27.6935L36.9481 35.0801C37.4635 35.5956 37.4635 36.4313 36.9481 36.9467C36.4326 37.4622 35.5969 37.4622 35.0815 36.9467L27.7084 29.5616C25.9193 30.9547 23.67 31.7844 21.2269 31.7844C15.3953 31.7844 10.668 27.057 10.668 21.2255C10.668 15.394 15.3953 10.6666 21.2269 10.6666C27.0584 10.6666 31.7858 15.394 31.7858 21.2255C31.7858 23.6625 30.9602 25.9066 29.5735 27.6935ZM21.2269 29.1447C25.6005 29.1447 29.146 25.5992 29.146 21.2255C29.146 16.8519 25.6005 13.3063 21.2269 13.3063C16.8532 13.3063 13.3077 16.8519 13.3077 21.2255C13.3077 25.5992 16.8532 29.1447 21.2269 29.1447Z" fill="black"/>
<mask id="mask1_2870_31370" style="mask-type:luminance" maskUnits="userSpaceOnUse" x="10" y="10" width="28" height="28">
<path d="M29.5735 27.6935L36.9481 35.0801C37.4635 35.5956 37.4635 36.4313 36.9481 36.9467C36.4326 37.4622 35.5969 37.4622 35.0815 36.9467L27.7084 29.5616C25.9193 30.9547 23.67 31.7844 21.2269 31.7844C15.3953 31.7844 10.668 27.057 10.668 21.2255C10.668 15.394 15.3953 10.6666 21.2269 10.6666C27.0584 10.6666 31.7858 15.394 31.7858 21.2255C31.7858 23.6625 30.9602 25.9066 29.5735 27.6935ZM21.2269 29.1447C25.6005 29.1447 29.146 25.5992 29.146 21.2255C29.146 16.8519 25.6005 13.3063 21.2269 13.3063C16.8532 13.3063 13.3077 16.8519 13.3077 21.2255C13.3077 25.5992 16.8532 29.1447 21.2269 29.1447Z" fill="white"/>
</mask>
<g mask="url(#mask1_2870_31370)">
<path d="M40 8H8V40H40V8Z" fill="#0E59AE"/>
</g>
</svg>
