<svg width="79" height="68" viewBox="0 0 79 68" fill="none" xmlns="http://www.w3.org/2000/svg">
<path d="M78.9062 39.7365C78.9062 16.9062 58.6163 0.000248194 40.212 0.000248194C21.8077 0.000248194 21.2069 14.187 11.6799 19.2401C0.253232 25.3007 -1.36811 35.8083 0.854245 45.8672C3.13618 56.1959 13.2404 59.9381 23.72 58.7069C43.3281 56.4034 40.9207 69.1355 56.3646 67.918C71.8084 66.7004 78.9062 50.0854 78.9062 39.7365Z" fill="#E7EEF7"/>
<g clip-path="url(#clip0_901_16906)">
<path d="M58.4592 16.151C58.4592 15.4773 57.9159 14.9268 57.235 14.9268H20.7398C20.0734 14.9268 19.5156 15.47 19.5156 16.151V40.3024H58.4448V16.151H58.4592Z" fill="white"/>
<path d="M19.5312 47.5536C19.5312 48.2201 20.0745 48.7778 20.7555 48.7778H57.2507C57.9243 48.7778 58.4749 48.2345 58.4749 47.5536V42.7363H19.5312V47.5536Z" fill="#2C7DFF"/>
<path d="M56.0261 17.3462H21.9648V40.3024H56.0261V17.3462Z" fill="#BED7FF"/>
<path d="M28.8753 22.7141C30.1212 22.7141 31.1426 23.7283 31.1426 24.9814C31.1426 25.6551 31.6858 26.2056 32.3668 26.2056C33.0477 26.2056 33.591 25.6624 33.591 24.9814C33.591 22.8082 32.1132 20.99 30.1066 20.4467V19.3818C30.1066 18.7081 29.5634 18.1576 28.8824 18.1576C28.2015 18.1576 27.6582 18.7008 27.6582 19.3818V20.4467C25.6589 20.9827 24.1739 22.8082 24.1739 24.9814C24.1739 27.5676 26.2746 29.6828 28.8753 29.6828C28.8391 29.6901 28.8753 29.6828 28.8825 29.6828C30.0415 29.7769 31.1354 30.7404 31.1354 31.9284C31.1354 33.1744 30.1212 34.1957 28.8681 34.1957C27.6221 34.1957 26.6008 33.1815 26.6008 31.9284C26.6008 31.2547 26.0575 30.7042 25.3765 30.7042C24.6956 30.7042 24.1523 31.2475 24.1523 31.9284C24.1523 34.1016 25.6301 35.9198 27.6367 36.4632V37.5208C27.6367 38.1944 28.1799 38.745 28.8609 38.745C29.5419 38.745 30.0851 38.2017 30.0851 37.5208V36.4632C32.0844 35.9271 33.5695 34.1016 33.5695 31.9284C33.5695 29.3423 31.2804 27.2416 28.6943 27.2416C28.7305 27.2343 28.6943 27.2416 28.687 27.2416C27.528 27.1475 26.6079 26.1694 26.6079 24.9814C26.6079 23.7355 27.6293 22.7141 28.8753 22.7141Z" fill="#194F82"/>
<path d="M44.75 28.3209L47.0102 33.8771L47.5897 31.9719C47.7129 31.5807 48.0171 31.2765 48.3938 31.1678L50.299 30.5883L44.75 28.3209Z" fill="#FFC10D"/>
<path d="M54.3894 29.6176L42.9873 24.9743C42.5381 24.7932 42.0165 24.8946 41.6688 25.2423C41.3211 25.59 41.2197 26.1116 41.4008 26.5608L46.0443 37.9626C46.4572 38.7956 47.2032 38.716 47.225 38.716C47.7393 38.6869 48.1884 38.3538 48.3333 37.8612L49.3185 34.6231L51.1802 36.4848C51.6583 36.963 52.4261 36.963 52.9043 36.4848C53.3824 36.0067 53.3824 35.2389 52.9043 34.7607L51.0426 32.8991L54.2807 31.9139C54.7733 31.769 55.121 31.3199 55.1354 30.8055C55.1717 30.284 54.8674 29.8059 54.3894 29.6176ZM47.5944 31.9719L47.0149 33.8771L44.7547 28.3209L50.3109 30.5811L48.4057 31.1606C48.0219 31.2837 47.7176 31.5807 47.5944 31.9719Z" fill="#194F82"/>
<path d="M42.9508 22.8226C43.6244 22.8226 44.175 22.2794 44.175 21.5984V19.867C44.175 19.1934 43.6317 18.6428 42.9508 18.6428C42.2771 18.6428 41.7266 19.1861 41.7266 19.867V21.5984C41.7337 22.2721 42.2771 22.8226 42.9508 22.8226Z" fill="#194F82"/>
<path d="M39.6056 26.1694C39.6056 25.4957 39.0623 24.9452 38.3814 24.9452H36.65C35.9763 24.9452 35.4258 25.4884 35.4258 26.1694C35.4258 26.8431 35.969 27.3936 36.65 27.3936H38.3814C39.055 27.3863 39.6056 26.8504 39.6056 26.1694Z" fill="#194F82"/>
<path d="M39.36 20.8523C38.8819 20.3741 38.1141 20.3741 37.6359 20.8523C37.1578 21.3304 37.1578 22.0982 37.6359 22.5763L38.8602 23.8005C39.3383 24.2787 40.1061 24.2787 40.5842 23.8005C41.0624 23.3224 41.0624 22.5546 40.5842 22.0765L39.36 20.8523Z" fill="#194F82"/>
<path d="M38.8602 28.5454L37.6359 29.7696C37.1578 30.2477 37.1578 31.0155 37.6359 31.4937C38.1141 31.9718 38.8819 31.9718 39.36 31.4937L40.5842 30.2695C41.0624 29.7913 41.0624 29.0235 40.5842 28.5454C40.1061 28.0672 39.3382 28.0672 38.8602 28.5454Z" fill="#194F82"/>
<path d="M47.0358 23.8005L48.26 22.5763C48.7382 22.0982 48.7382 21.3304 48.26 20.8523C47.7819 20.3741 47.0141 20.3741 46.5359 20.8523L45.3117 22.0765C44.8336 22.5546 44.8336 23.3224 45.3117 23.8005C45.7898 24.2787 46.565 24.2787 47.0358 23.8005Z" fill="#194F82"/>
<path d="M57.251 12.5H20.7414C18.7348 12.5 17.0977 14.1371 17.0977 16.151V47.5464C17.0977 49.553 18.7348 51.1974 20.7486 51.1974H31.1148V54.0516H27.3406C26.667 54.0516 26.1164 54.5948 26.1164 55.2758C26.1164 55.9568 26.6597 56.5 27.3406 56.5H50.6517C51.3254 56.5 51.876 55.9568 51.876 55.2758C51.876 54.6021 51.3327 54.0516 50.6517 54.0516H46.8776V51.1974H57.251C59.2576 51.1974 60.902 49.5603 60.902 47.5464V16.151C60.8947 14.1371 59.2576 12.5 57.251 12.5ZM58.4608 47.5536C58.4608 48.2201 57.9174 48.7778 57.2366 48.7778H20.7414C20.075 48.7778 19.5172 48.2346 19.5172 47.5536V42.7364H58.4463V47.5536H58.4608ZM19.5316 16.151C19.5316 15.4773 20.0749 14.9268 20.7558 14.9268H57.251C57.9247 14.9268 58.4752 15.47 58.4752 16.151V40.3024H19.5316V16.151ZM44.4437 54.0515H33.5487V51.1973H44.4437V54.0515Z" fill="#194F82"/>
<path d="M38.1695 46.9379H39.8139C40.4876 46.9379 41.0381 46.3947 41.0381 45.7137C41.0381 45.0327 40.4949 44.4895 39.8139 44.4895H38.1695C37.4958 44.4895 36.9453 45.0327 36.9453 45.7137C36.9526 46.4018 37.4958 46.9379 38.1695 46.9379Z" fill="#194F82"/>
</g>
<defs>
<clipPath id="clip0_901_16906">
<rect width="44" height="44" fill="white" transform="translate(17 12.5)"/>
</clipPath>
</defs>
</svg>
