<svg width="81" height="74" viewBox="0 0 81 74" fill="none" xmlns="http://www.w3.org/2000/svg">
<path d="M9.07921 62.0713C25.2227 78.2147 51.5242 75.8219 64.538 62.8081C77.5518 49.7943 67.9451 39.3379 71.1086 29.0282C74.9029 16.6628 68.6194 8.08639 59.9353 2.54515C51.0182 -3.14481 41.2273 1.35388 34.6877 9.63463C22.4515 25.1284 15.1508 14.4232 5.09131 26.2046C-4.9682 37.986 1.76147 54.7535 9.07921 62.0713Z" fill="#E7EEF7"/>
<path d="M58.0393 20.6031H17.8086V51.022H58.0393V20.6031Z" fill="#F2F2F2"/>
<path d="M58.7606 51.7413H17.0898V19.883H47.4302V21.323H18.5304V50.3013H57.3205V21.3225H52.691V19.8824H58.7606V51.7413ZM51.0724 21.3225H49.2858V19.8824H51.0724V21.3225Z" fill="black"/>
<path d="M58.0393 28.2056H17.8086V51.021H58.0393V28.2056Z" fill="#215EBF"/>
<path d="M58.7606 51.7413H17.0898V27.4858H58.7606V51.7413ZM18.5304 50.3013H57.3205V28.9258H18.5304V50.3013Z" fill="black"/>
<path d="M23.0693 23.3678H20.8672V25.4942H23.0693V23.3678Z" fill="#2C7DFF"/>
<path d="M27.0107 23.3405H24.8086V25.4663H27.0107V23.3405Z" fill="#2C7DFF"/>
<path d="M30.8584 23.3405H28.6562V25.4663H30.8584V23.3405Z" fill="#2C7DFF"/>
<path fill-rule="evenodd" clip-rule="evenodd" d="M46.9398 31.1422C51.3213 31.1422 54.8718 34.6927 54.8718 39.0747C54.8718 43.4562 51.3213 47.0067 46.9398 47.0067C42.5583 47.0067 39.0078 43.4562 39.0078 39.0747C39.0078 34.6932 42.5588 31.1422 46.9398 31.1422Z" fill="#F2F2F2"/>
<path d="M46.9408 47.727C42.1697 47.727 38.2891 43.8458 38.2891 39.0747C38.2891 34.3042 42.1697 30.4225 46.9408 30.4225C51.7113 30.4225 55.5925 34.3042 55.5925 39.0747C55.593 43.8458 51.7113 47.727 46.9408 47.727ZM46.9408 31.863C42.9642 31.863 39.7291 35.0981 39.7291 39.0747C39.7291 43.0519 42.9642 46.2864 46.9408 46.2864C50.9174 46.2864 54.1525 43.0513 54.1525 39.0747C54.153 35.0981 50.9174 31.863 46.9408 31.863Z" fill="black"/>
<path fill-rule="evenodd" clip-rule="evenodd" d="M54.0242 42.6432L56.4712 45.1697L52.6811 48.8426L50.2188 46.2991C51.8655 45.5518 53.2111 44.2544 54.0242 42.6432Z" fill="#B3B3B3"/>
<path d="M52.6661 49.8607L48.9922 46.0648L49.9229 45.6429C51.4138 44.9667 52.6428 43.7863 53.3827 42.3193L53.8385 41.4156L57.4907 45.1855L52.6661 49.8607ZM51.4053 46.4867L52.6985 47.8228L55.4545 45.1527L54.1703 43.8272C53.4585 44.9084 52.5103 45.82 51.4053 46.4867Z" fill="black"/>
<path d="M52.0868 49.4142L57.0625 54.5602L62.0477 49.74L57.0721 44.594L52.0868 49.4142Z" fill="#2C7DFF"/>
<path d="M57.0471 55.5772L51.0703 49.3958L57.0916 43.5748L63.0679 49.7562L57.0471 55.5772ZM53.1071 49.4303L57.081 53.5409L61.0311 49.7218L57.0572 45.6111L53.1071 49.4303Z" fill="black"/>
<path d="M22.7356 43.3335L21.8086 42.2316L27.6985 37.2788L34.085 41.1303L38.9467 37.7695L44.4592 40.2335L49.6829 37.1754L50.4106 38.4183L44.5477 41.85L39.0993 39.4152L34.138 42.8443L27.8363 39.0437L22.7356 43.3335Z" fill="black"/>
<path fill-rule="evenodd" clip-rule="evenodd" d="M27.7664 36.5641C28.6484 36.5641 29.3644 37.2806 29.3644 38.1626C29.3644 39.0471 28.6484 39.7632 27.7664 39.7632C26.8819 39.7632 26.168 39.0471 26.168 38.1626C26.1685 37.2801 26.8824 36.5641 27.7664 36.5641Z" fill="#2C7DFF"/>
<path d="M27.7674 40.4825C26.4891 40.4825 25.4492 39.441 25.4492 38.1616C25.4492 36.8832 26.4891 35.8434 27.7674 35.8434C29.0458 35.8434 30.0857 36.8832 30.0857 38.1616C30.0857 39.441 29.0463 40.4825 27.7674 40.4825ZM27.7674 37.2834C27.283 37.2834 26.8892 37.6772 26.8892 38.1616C26.8892 38.6471 27.283 39.0425 27.7674 39.0425C28.2513 39.0425 28.6451 38.6471 28.6451 38.1616C28.6456 37.6772 28.2519 37.2834 27.7674 37.2834Z" fill="black"/>
<path fill-rule="evenodd" clip-rule="evenodd" d="M34.1128 40.1266C34.9948 40.1266 35.7108 40.8431 35.7108 41.7277C35.7108 42.6096 34.9948 43.3257 34.1128 43.3257C33.2283 43.3257 32.5117 42.6096 32.5117 41.7277C32.5122 40.8431 33.2283 40.1266 34.1128 40.1266Z" fill="#2C7DFF"/>
<path d="M34.1138 44.0459C32.8344 44.0459 31.793 43.0056 31.793 41.7277C31.793 40.4478 32.8344 39.4069 34.1138 39.4069C35.3917 39.4069 36.4321 40.4478 36.4321 41.7277C36.4321 43.0056 35.3917 44.0459 34.1138 44.0459ZM34.1138 40.8469C33.6284 40.8469 33.233 41.2417 33.233 41.7277C33.233 42.2116 33.6284 42.6054 34.1138 42.6054C34.5977 42.6054 34.992 42.2116 34.992 41.7277C34.992 41.2417 34.5977 40.8469 34.1138 40.8469Z" fill="black"/>
<path fill-rule="evenodd" clip-rule="evenodd" d="M44.3987 39.1324C45.2833 39.1324 45.9972 39.849 45.9972 40.7336C45.9972 41.6155 45.2833 42.3321 44.3987 42.3321C43.5168 42.3321 42.8008 41.6155 42.8008 40.7336C42.8013 39.849 43.5168 39.1324 44.3987 39.1324Z" fill="#2C7DFF"/>
<path d="M44.4002 43.0518C43.1224 43.0518 42.082 42.0119 42.082 40.7336C42.082 39.4542 43.1224 38.4127 44.4002 38.4127C45.6786 38.4127 46.7185 39.4542 46.7185 40.7336C46.7185 42.0119 45.6786 43.0518 44.4002 43.0518ZM44.4002 39.8533C43.9164 39.8533 43.5226 40.2481 43.5226 40.7336C43.5226 41.218 43.9164 41.6113 44.4002 41.6113C44.8847 41.6113 45.2779 41.218 45.2779 40.7336C45.2785 40.2481 44.8847 39.8533 44.4002 39.8533Z" fill="black"/>
<path fill-rule="evenodd" clip-rule="evenodd" d="M50.0477 36.1989C50.9296 36.1989 51.6462 36.9128 51.6462 37.7973C51.6462 38.6793 50.9296 39.3953 50.0477 39.3953C49.1658 39.3953 48.4492 38.6793 48.4492 37.7973C48.4492 36.9128 49.1658 36.1989 50.0477 36.1989Z" fill="#2C7DFF"/>
<path d="M50.0487 40.1156C48.7703 40.1156 47.7305 39.0757 47.7305 37.7973C47.7305 36.519 48.7703 35.4791 50.0487 35.4791C51.327 35.4791 52.3669 36.519 52.3669 37.7973C52.3669 39.0757 51.327 40.1156 50.0487 40.1156ZM50.0487 36.9191C49.5648 36.9191 49.1705 37.3129 49.1705 37.7973C49.1705 38.2812 49.5648 38.675 50.0487 38.675C50.5326 38.675 50.9264 38.2812 50.9264 37.7973C50.9264 37.3129 50.5326 36.9191 50.0487 36.9191Z" fill="black"/>
<path fill-rule="evenodd" clip-rule="evenodd" d="M22.2704 41.1852C23.1517 41.1852 23.8683 41.9017 23.8683 42.7837C23.8683 43.6682 23.1517 44.3848 22.2704 44.3848C21.3884 44.3848 20.6719 43.6682 20.6719 42.7837C20.6724 41.9012 21.3884 41.1852 22.2704 41.1852Z" fill="#2C7DFF"/>
<path d="M22.2713 45.104C20.993 45.104 19.9531 44.0631 19.9531 42.7831C19.9531 41.5053 20.993 40.4655 22.2713 40.4655C23.5492 40.4655 24.589 41.5053 24.589 42.7831C24.589 44.0631 23.5492 45.104 22.2713 45.104ZM22.2713 41.9055C21.7869 41.9055 21.3931 42.2993 21.3931 42.7831C21.3931 43.2692 21.7869 43.664 22.2713 43.664C22.7552 43.664 23.149 43.2692 23.149 42.7831C23.1496 42.2993 22.7552 41.9055 22.2713 41.9055Z" fill="black"/>
</svg>
