<svg width="48" height="48" viewBox="0 0 48 48" fill="none" xmlns="http://www.w3.org/2000/svg">
<rect width="48" height="48" rx="24" fill="#E9D4E9"/>
<path d="M23.0013 15.9976V34.5442C23.0013 35.4909 22.0413 36.1442 21.1746 35.7842C18.6946 34.7442 15.6146 33.8376 13.428 33.5442L13.0146 33.4909C11.7213 33.3309 10.668 32.1442 10.668 30.8509V14.9976C10.668 13.3976 11.9613 12.1042 13.5613 12.1042H13.6546C16.1613 12.3176 19.8546 13.4909 22.2946 14.8109C22.7346 15.0509 23.0013 15.4909 23.0013 15.9976Z" fill="#AF3FAC"/>
<path d="M34.44 12.1042H34.36C34.04 12.1309 33.6933 12.1709 33.3333 12.2376C31.6933 12.5043 29.7467 13.0643 28 13.7576C27.1733 14.0909 26.4 14.4509 25.72 14.8109C25.28 15.0509 25 15.5043 25 15.9976V34.5442C25 35.4909 25.96 36.1442 26.8267 35.7842C29.3067 34.7442 32.3867 33.8376 34.5733 33.5442L34.9867 33.4909C36.28 33.3309 37.3333 32.1442 37.3333 30.8509V14.9976C37.3333 13.3976 36.04 12.1042 34.44 12.1042ZM33.6933 26.3042C33.6933 26.8242 33.32 27.0509 32.8667 26.7976L31.4533 26.0109C31.3067 25.9309 31.0667 25.9309 30.9067 26.0109L29.4933 26.7976C29.04 27.0509 28.6667 26.8242 28.6667 26.3042V22.2109C28.6667 21.5976 29.1733 21.0909 29.7867 21.0909H32.5867C33.2 21.0909 33.7067 21.5976 33.7067 22.2109V26.3042H33.6933Z" fill="#207DE9"/>
</svg>
