 <svg width="185" height="329" viewBox="0 0 185 329" fill="none" xmlns="http://www.w3.org/2000/svg">
                            <g filter="url(#filter0_f_3252_1367)">
                              <path fill-rule="evenodd" clip-rule="evenodd" d="M116.217 285.748C91.8364 270.276 55.0822 285.315 33.6954 265.914C11.7859 246.039 2.50952 213.66 4.19205 184.127C5.77959 156.262 36.8213 138.909 42.4881 111.58C51.2183 69.4774 15.7369 16.3277 45.4341 -14.7675C72.3777 -42.9795 121.13 -14.1703 160.051 -11.5178C197.184 -8.98715 235.592 -16.3725 268.79 0.45438C304.233 18.4193 337.052 46.9816 349.751 84.6342C362.198 121.541 345.024 160.459 335.489 198.223C326.659 233.197 316.824 267.102 296.207 296.701C273.207 329.721 250.448 380.423 210.281 377.979C165.544 375.257 154.06 309.764 116.217 285.748Z" fill="#2C7DFF" fill-opacity="0.25"/>
                            </g>
                            <defs>
                              <filter id="filter0_f_3252_1367" x="0" y="-31.0615" width="358.113" height="413.126" filterUnits="userSpaceOnUse" color-interpolation-filters="sRGB">
                                <feFlood flood-opacity="0" result="BackgroundImageFix"/>
                                <feBlend mode="normal" in="SourceGraphic" in2="BackgroundImageFix" result="shape"/>
                                <feGaussianBlur stdDeviation="2" result="effect1_foregroundBlur_3252_1367"/>
                              </filter>
                            </defs>
                          </svg>