<svg width="152" height="24" viewBox="0 0 152 24" fill="none" xmlns="http://www.w3.org/2000/svg">
<path d="M11.9984 17.2742L7.84838 19.7742C7.66504 19.8909 7.47338 19.9409 7.27338 19.9242C7.07338 19.9076 6.89838 19.8409 6.74838 19.7242C6.59838 19.6076 6.48171 19.4619 6.39838 19.2872C6.31504 19.1126 6.29838 18.9166 6.34838 18.6992L7.44838 13.9742L3.77338 10.7992C3.60671 10.6492 3.50271 10.4782 3.46138 10.2862C3.42004 10.0942 3.43238 9.90689 3.49838 9.72422C3.56438 9.54155 3.66438 9.39155 3.79838 9.27422C3.93238 9.15689 4.11571 9.08189 4.34838 9.04922L9.19838 8.62422L11.0734 4.17422C11.1567 3.97422 11.286 3.82422 11.4614 3.72422C11.6367 3.62422 11.8157 3.57422 11.9984 3.57422C12.181 3.57422 12.36 3.62422 12.5354 3.72422C12.7107 3.82422 12.84 3.97422 12.9234 4.17422L14.7984 8.62422L19.6484 9.04922C19.8817 9.08255 20.065 9.15755 20.1984 9.27422C20.3317 9.39089 20.4317 9.54089 20.4984 9.72422C20.565 9.90755 20.5777 10.0952 20.5364 10.2872C20.495 10.4792 20.3907 10.6499 20.2234 10.7992L16.5484 13.9742L17.6484 18.6992C17.6984 18.9159 17.6817 19.1119 17.5984 19.2872C17.515 19.4626 17.3984 19.6082 17.2484 19.7242C17.0984 19.8402 16.9234 19.9069 16.7234 19.9242C16.5234 19.9416 16.3317 19.8916 16.1484 19.7742L11.9984 17.2742Z" fill="#0E59AE"/>
<path d="M43.9984 17.2742L39.8484 19.7742C39.665 19.8909 39.4734 19.9409 39.2734 19.9242C39.0734 19.9076 38.8984 19.8409 38.7484 19.7242C38.5984 19.6076 38.4817 19.4619 38.3984 19.2872C38.315 19.1126 38.2984 18.9166 38.3484 18.6992L39.4484 13.9742L35.7734 10.7992C35.6067 10.6492 35.5027 10.4782 35.4614 10.2862C35.42 10.0942 35.4324 9.90689 35.4984 9.72422C35.5644 9.54155 35.6644 9.39155 35.7984 9.27422C35.9324 9.15689 36.1157 9.08189 36.3484 9.04922L41.1984 8.62422L43.0734 4.17422C43.1567 3.97422 43.286 3.82422 43.4614 3.72422C43.6367 3.62422 43.8157 3.57422 43.9984 3.57422C44.181 3.57422 44.36 3.62422 44.5354 3.72422C44.7107 3.82422 44.84 3.97422 44.9234 4.17422L46.7984 8.62422L51.6484 9.04922C51.8817 9.08255 52.065 9.15755 52.1984 9.27422C52.3317 9.39089 52.4317 9.54089 52.4984 9.72422C52.565 9.90755 52.5777 10.0952 52.5364 10.2872C52.495 10.4792 52.3907 10.6499 52.2234 10.7992L48.5484 13.9742L49.6484 18.6992C49.6984 18.9159 49.6817 19.1119 49.5984 19.2872C49.515 19.4626 49.3984 19.6082 49.2484 19.7242C49.0984 19.8402 48.9234 19.9069 48.7234 19.9242C48.5234 19.9416 48.3317 19.8916 48.1484 19.7742L43.9984 17.2742Z" fill="#0E59AE"/>
<path d="M75.9984 17.2742L71.8484 19.7742C71.665 19.8909 71.4734 19.9409 71.2734 19.9242C71.0734 19.9076 70.8984 19.8409 70.7484 19.7242C70.5984 19.6076 70.4817 19.4619 70.3984 19.2872C70.315 19.1126 70.2984 18.9166 70.3484 18.6992L71.4484 13.9742L67.7734 10.7992C67.6067 10.6492 67.5027 10.4782 67.4614 10.2862C67.42 10.0942 67.4324 9.90689 67.4984 9.72422C67.5644 9.54155 67.6644 9.39155 67.7984 9.27422C67.9324 9.15689 68.1157 9.08189 68.3484 9.04922L73.1984 8.62422L75.0734 4.17422C75.1567 3.97422 75.286 3.82422 75.4614 3.72422C75.6367 3.62422 75.8157 3.57422 75.9984 3.57422C76.181 3.57422 76.36 3.62422 76.5354 3.72422C76.7107 3.82422 76.84 3.97422 76.9234 4.17422L78.7984 8.62422L83.6484 9.04922C83.8817 9.08255 84.065 9.15755 84.1984 9.27422C84.3317 9.39089 84.4317 9.54089 84.4984 9.72422C84.565 9.90755 84.5777 10.0952 84.5364 10.2872C84.495 10.4792 84.3907 10.6499 84.2234 10.7992L80.5484 13.9742L81.6484 18.6992C81.6984 18.9159 81.6817 19.1119 81.5984 19.2872C81.515 19.4626 81.3984 19.6082 81.2484 19.7242C81.0984 19.8402 80.9234 19.9069 80.7234 19.9242C80.5234 19.9416 80.3317 19.8916 80.1484 19.7742L75.9984 17.2742Z" fill="#0E59AE"/>
<path d="M107.998 17.2742L103.848 19.7742C103.665 19.8909 103.473 19.9409 103.273 19.9242C103.073 19.9076 102.898 19.8409 102.748 19.7242C102.598 19.6076 102.482 19.4619 102.398 19.2872C102.315 19.1126 102.298 18.9166 102.348 18.6992L103.448 13.9742L99.7734 10.7992C99.6067 10.6492 99.5027 10.4782 99.4614 10.2862C99.42 10.0942 99.4324 9.90689 99.4984 9.72422C99.5644 9.54155 99.6644 9.39155 99.7984 9.27422C99.9324 9.15689 100.116 9.08189 100.348 9.04922L105.198 8.62422L107.073 4.17422C107.157 3.97422 107.286 3.82422 107.461 3.72422C107.637 3.62422 107.816 3.57422 107.998 3.57422C108.181 3.57422 108.36 3.62422 108.535 3.72422C108.711 3.82422 108.84 3.97422 108.923 4.17422L110.798 8.62422L115.648 9.04922C115.882 9.08255 116.065 9.15755 116.198 9.27422C116.332 9.39089 116.432 9.54089 116.498 9.72422C116.565 9.90755 116.578 10.0952 116.536 10.2872C116.495 10.4792 116.391 10.6499 116.223 10.7992L112.548 13.9742L113.648 18.6992C113.698 18.9159 113.682 19.1119 113.598 19.2872C113.515 19.4626 113.398 19.6082 113.248 19.7242C113.098 19.8402 112.923 19.9069 112.723 19.9242C112.523 19.9416 112.332 19.8916 112.148 19.7742L107.998 17.2742Z" fill="#0E59AE"/>
<path d="M139.998 17.2742L135.848 19.7742C135.665 19.8909 135.473 19.9409 135.273 19.9242C135.073 19.9076 134.898 19.8409 134.748 19.7242C134.598 19.6076 134.482 19.4619 134.398 19.2872C134.315 19.1126 134.298 18.9166 134.348 18.6992L135.448 13.9742L131.773 10.7992C131.607 10.6492 131.503 10.4782 131.461 10.2862C131.42 10.0942 131.432 9.90689 131.498 9.72422C131.564 9.54155 131.664 9.39155 131.798 9.27422C131.932 9.15689 132.116 9.08189 132.348 9.04922L137.198 8.62422L139.073 4.17422C139.157 3.97422 139.286 3.82422 139.461 3.72422C139.637 3.62422 139.816 3.57422 139.998 3.57422C140.181 3.57422 140.36 3.62422 140.535 3.72422C140.711 3.82422 140.84 3.97422 140.923 4.17422L142.798 8.62422L147.648 9.04922C147.882 9.08255 148.065 9.15755 148.198 9.27422C148.332 9.39089 148.432 9.54089 148.498 9.72422C148.565 9.90755 148.578 10.0952 148.536 10.2872C148.495 10.4792 148.391 10.6499 148.223 10.7992L144.548 13.9742L145.648 18.6992C145.698 18.9159 145.682 19.1119 145.598 19.2872C145.515 19.4626 145.398 19.6082 145.248 19.7242C145.098 19.8402 144.923 19.9069 144.723 19.9242C144.523 19.9416 144.332 19.8916 144.148 19.7742L139.998 17.2742Z" fill="#0E59AE"/>
</svg>
