<svg width="95" height="80" viewBox="0 0 95 80" fill="none" xmlns="http://www.w3.org/2000/svg">
<circle cx="55" cy="40" r="40" fill="#38AEC7"/>
<path d="M1.78873e-07 40L22.5 27.0096L22.5 52.9904L1.78873e-07 40Z" fill="#38AEC7"/>
<path d="M69 42.5H57V30.5C57 29.9696 56.7893 29.4609 56.4142 29.0858C56.0391 28.7107 55.5304 28.5 55 28.5C54.4696 28.5 53.9609 28.7107 53.5858 29.0858C53.2107 29.4609 53 29.9696 53 30.5V42.5H41C40.4696 42.5 39.9609 42.7107 39.5858 43.0858C39.2107 43.4609 39 43.9696 39 44.5V50.5C39 51.0304 39.2107 51.5391 39.5858 51.9142C39.9609 52.2893 40.4696 52.5 41 52.5C41.5304 52.5 42.0391 52.2893 42.4142 51.9142C42.7893 51.5391 43 51.0304 43 50.5V46.5H67V50.5C67 51.0304 67.2107 51.5391 67.5858 51.9142C67.9609 52.2893 68.4696 52.5 69 52.5C69.5304 52.5 70.0391 52.2893 70.4142 51.9142C70.7893 51.5391 71 51.0304 71 50.5V44.5C71 43.9696 70.7893 43.4609 70.4142 43.0858C70.0391 42.7107 69.5304 42.5 69 42.5Z" fill="#002A33"/>
<path d="M47 50.5V58.5C47 59.0304 46.7893 59.5391 46.4142 59.9142C46.0391 60.2893 45.5304 60.5 45 60.5H37C36.4696 60.5 35.9609 60.2893 35.5858 59.9142C35.2107 59.5391 35 59.0304 35 58.5V50.5C35 49.9696 35.2107 49.4609 35.5858 49.0858C35.9609 48.7107 36.4696 48.5 37 48.5H45C45.5304 48.5 46.0391 48.7107 46.4142 49.0858C46.7893 49.4609 47 49.9696 47 50.5ZM73 48.5H65C64.4696 48.5 63.9609 48.7107 63.5858 49.0858C63.2107 49.4609 63 49.9696 63 50.5V58.5C63 59.0304 63.2107 59.5391 63.5858 59.9142C63.9609 60.2893 64.4696 60.5 65 60.5H73C73.5304 60.5 74.0391 60.2893 74.4142 59.9142C74.7893 59.5391 75 59.0304 75 58.5V50.5C75 49.9696 74.7893 49.4609 74.4142 49.0858C74.0391 48.7107 73.5304 48.5 73 48.5ZM49 32.5H61C61.5304 32.5 62.0391 32.2893 62.4142 31.9142C62.7893 31.5391 63 31.0304 63 30.5V22.5C63 21.9696 62.7893 21.4609 62.4142 21.0858C62.0391 20.7107 61.5304 20.5 61 20.5H49C48.4696 20.5 47.9609 20.7107 47.5858 21.0858C47.2107 21.4609 47 21.9696 47 22.5V30.5C47 31.0304 47.2107 31.5391 47.5858 31.9142C47.9609 32.2893 48.4696 32.5 49 32.5ZM56.42 37.42C56.2341 37.2325 56.0129 37.0838 55.7692 36.9822C55.5254 36.8807 55.264 36.8284 55 36.8284C54.736 36.8284 54.4746 36.8807 54.2308 36.9822C53.9871 37.0838 53.7659 37.2325 53.58 37.42L47.92 43.08C47.7325 43.2659 47.5838 43.4871 47.4822 43.7308C47.3807 43.9746 47.3284 44.236 47.3284 44.5C47.3284 44.764 47.3807 45.0254 47.4822 45.2691C47.5838 45.5129 47.7325 45.7341 47.92 45.92L53.58 51.58C53.7659 51.7675 53.9871 51.9162 54.2308 52.0178C54.4746 52.1193 54.736 52.1716 55 52.1716C55.264 52.1716 55.5254 52.1193 55.7692 52.0178C56.0129 51.9162 56.2341 51.7675 56.42 51.58L62.08 45.92C62.2675 45.7341 62.4162 45.5129 62.5178 45.2691C62.6193 45.0254 62.6716 44.764 62.6716 44.5C62.6716 44.236 62.6193 43.9746 62.5178 43.7308C62.4162 43.4871 62.2675 43.2659 62.08 43.08L56.42 37.42Z" fill="white"/>
</svg>
