<svg width="95" height="80" viewBox="0 0 95 80" fill="none" xmlns="http://www.w3.org/2000/svg">
<circle cx="55" cy="40" r="40" fill="#2779D4"/>
<path d="M1.78873e-07 40L22.5 27.0096L22.5 52.9904L1.78873e-07 40Z" fill="#2779D4"/>
<g clip-path="url(#clip0_2874_20886)">
<path d="M57.9214 46.1562L64.6399 33.0555L58.347 34.4063L54.0236 30.0829L55.5124 28.594L59.0253 32.1069L68.5394 30.0662L63.0452 40.7794L73.9184 34.5248L69.8791 42.9622L76.9846 50.0677L75.4958 51.5565L67.3363 43.3969L69.0919 39.7306L57.9214 46.1562Z" fill="#FCD462"/>
<path d="M65.8974 56.2957C74.8972 56.2957 82.1929 48.9999 82.193 40C82.193 31.0001 74.8972 23.7044 65.8973 23.7044C57.5687 23.7044 50.7117 29.9565 49.7335 38.0211H46.7226C46.5535 36.7267 46.2107 35.7398 45.6856 35.7399L43.1454 35.7399L43.1454 44.2604L45.6855 44.2604C46.2107 44.2604 46.5536 43.2736 46.7226 41.9791L49.7335 41.9791C50.7117 50.0436 57.5688 56.2957 65.8974 56.2957ZM53.5326 40.0002C53.5326 33.1821 59.079 27.6352 65.8971 27.6352C72.7151 27.6352 78.2625 33.1821 78.2625 40.0001C78.2625 46.8181 72.7152 52.3651 65.8971 52.3652C59.079 52.3651 53.5326 46.8181 53.5326 40.0002Z" fill="white"/>
<path d="M43.1399 40.5535L24.2976 40.5535C24.3635 42.4835 24.7711 44.2604 25.5281 44.2604L43.14 44.2604L43.1399 40.5535Z" fill="#3A556A"/>
<path d="M43.1466 35.7399L25.5349 35.7399C24.6334 35.74 24.226 38.2554 24.3043 40.5535L43.1467 40.5535L43.1466 35.7399Z" fill="#64798A"/>
</g>
<defs>
<clipPath id="clip0_2874_20886">
<rect width="48" height="48" fill="white" transform="translate(55 6.05884) rotate(45)"/>
</clipPath>
</defs>
</svg>
