<svg width="95" height="80" viewBox="0 0 95 80" fill="none" xmlns="http://www.w3.org/2000/svg">
<circle cx="55" cy="40" r="40" fill="#77B83E"/>
<path d="M1.78873e-07 40L22.5 27.0096L22.5 52.9904L1.78873e-07 40Z" fill="#77B83E"/>
<path d="M69.0373 42.8792L66.9721 39.3017H65.7096C64.8708 39.3017 64.1908 38.6218 64.1908 37.783V24.4824C64.1908 24.4624 64.1741 24.4456 64.154 24.4456H63.2258C62.387 24.4456 61.707 23.7656 61.707 22.9268V21.7974C61.707 20.3892 62.8526 19.2437 64.2608 19.2437H76.4444C77.8527 19.2437 78.9982 20.3893 78.9982 21.7974V36.7479C78.9982 38.156 77.8527 39.3017 76.4444 39.3017H73.7331L71.668 42.8792C71.0836 43.8914 69.6206 43.8896 69.0373 42.8792Z" fill="#94DB55"/>
<path d="M38.3302 42.8792L36.2651 39.3017H33.5537C32.1455 39.3017 31 38.1561 31 36.7479V21.7974C31 20.3892 32.1455 19.2437 33.5537 19.2437H45.7373C47.146 19.2437 48.2921 20.3893 48.2921 21.7974V22.9268C48.2921 23.7656 47.6121 24.4456 46.7733 24.4456H45.8451C45.8252 24.4456 45.8083 24.4623 45.8083 24.4824V37.7829C45.8083 38.6217 45.1283 39.3017 44.2895 39.3017H43.0268L40.9607 42.8793C40.3763 43.8916 38.9147 43.8916 38.3302 42.8792Z" fill="#E7FFD2"/>
<path d="M54.9992 56.5418C54.4566 56.5418 53.9552 56.2523 53.684 55.7825L50.36 50.0249H45.844C44.1487 50.0249 42.7695 48.6457 42.7695 46.9505V24.4822C42.7695 22.7869 44.1487 21.4077 45.844 21.4077H64.1545C65.8497 21.4077 67.2289 22.7869 67.2289 24.4822V46.9505C67.2289 48.6457 65.8497 50.0249 64.1545 50.0249H59.6385L56.3143 55.7825C56.0432 56.2523 55.5418 56.5418 54.9992 56.5418Z" fill="#CFFFA4"/>
<path d="M64.1553 21.4077H55V56.5417C55.5426 56.5417 56.044 56.2522 56.3152 55.7823L59.6394 50.0247H64.1553C65.8506 50.0247 67.2298 48.6456 67.2298 46.9503V24.4822C67.2298 22.7869 65.8506 21.4077 64.1553 21.4077Z" fill="#E7FFD2"/>
<path d="M55.0021 35.427C52.4012 35.427 50.2852 33.3111 50.2852 30.7101C50.2852 28.1091 52.4011 25.9932 55.0021 25.9932C57.603 25.9932 59.7191 28.1091 59.7191 30.7101C59.7191 33.3111 57.603 35.427 55.0021 35.427Z" fill="#94DB55"/>
<path d="M61.7996 45.5813H48.2023C47.3636 45.5813 46.6836 44.9013 46.6836 44.0625C46.6836 39.4764 50.4148 35.7451 55.001 35.7451C59.5872 35.7451 63.3184 39.4764 63.3184 44.0625C63.3184 44.9014 62.6383 45.5813 61.7996 45.5813Z" fill="#94DB55"/>
<path d="M73.2712 60.7567H36.7297C35.8909 60.7567 35.2109 60.0768 35.2109 59.238C35.2109 58.3992 35.8909 57.7192 36.7297 57.7192H73.2712C74.11 57.7192 74.7899 58.3992 74.7899 59.238C74.7899 60.0768 74.11 60.7567 73.2712 60.7567Z" fill="#D1D3D4"/>
<path d="M59.7167 30.7101C59.7167 28.1093 57.6008 25.9934 55 25.9932V35.427C57.6007 35.4269 59.7167 33.311 59.7167 30.7101Z" fill="#94DB55"/>
<path d="M55 35.7451V45.5813H61.7984C62.6372 45.5813 63.3171 44.9013 63.3171 44.0625C63.3171 39.4764 59.5861 35.7452 55 35.7451Z" fill="#94DB55"/>
<path d="M73.2708 57.7192H55V60.7567H73.2708C74.1095 60.7567 74.7895 60.0768 74.7895 59.238C74.7895 58.3992 74.1095 57.7192 73.2708 57.7192Z" fill="white"/>
</svg>
