<svg width="95" height="80" viewBox="0 0 95 80" fill="none" xmlns="http://www.w3.org/2000/svg">
<circle cx="55" cy="40" r="40" fill="#35B0B3"/>
<path d="M1.78873e-07 40L22.5 27.0096L22.5 52.9904L1.78873e-07 40Z" fill="#35B0B3"/>
<path d="M71.9706 23.0294C67.4373 18.4965 61.4105 16 55 16C48.5891 16 42.5624 18.4965 38.0294 23.0294C33.4965 27.5624 31 33.5895 31 40C31 46.4105 33.4965 52.4376 38.0294 56.9706C42.5624 61.5035 48.5891 64 55 64C61.4105 64 67.4373 61.5035 71.9706 56.9706C76.5035 52.4376 79 46.4105 79 40C79 33.5895 76.5035 27.5624 71.9706 23.0294Z" fill="#EBF6FF"/>
<path d="M71.9706 23.0294C67.4373 18.4965 61.4105 16 55 16V64C61.4105 64 67.4373 61.5035 71.9706 56.9706C76.5035 52.4376 79 46.4105 79 40C79 33.5895 76.5035 27.5624 71.9706 23.0294Z" fill="#B2DCFF"/>
<path d="M71.9622 23.0294C67.4288 18.4965 61.4021 16 54.9916 16C48.5807 16 42.554 18.4965 38.021 23.0294C37.7573 23.2931 37.6094 23.6509 37.6094 24.0237C37.6094 24.3965 37.7573 24.7543 38.021 25.0179L43.3464 30.3434C43.8958 30.8927 44.786 30.8927 45.3353 30.3434C47.9146 27.7642 51.3441 26.3436 54.9916 26.3436C58.639 26.3436 62.0686 27.7642 64.6482 30.3438C64.9229 30.618 65.2825 30.7554 65.6425 30.7554C66.0024 30.7554 66.3624 30.618 66.6367 30.3434L71.9622 25.0179C72.2258 24.7543 72.3741 24.3969 72.3741 24.0237C72.3741 23.6509 72.2258 23.2931 71.9622 23.0294Z" fill="#FFD12B"/>
<path d="M71.9706 23.0294C67.4373 18.4965 61.4105 16 55 16V26.3436C58.6475 26.3436 62.077 27.7642 64.6566 30.3438C64.9313 30.6184 65.2909 30.7554 65.6509 30.7554C66.0105 30.7554 66.3705 30.618 66.6451 30.3434L71.9706 25.0183C72.2343 24.7546 72.3826 24.3969 72.3826 24.024C72.3826 23.6509 72.2343 23.2931 71.9706 23.0294Z" fill="#FF8E1D"/>
<path d="M41.344 40.0002C41.344 36.3524 42.7642 32.9232 45.3434 30.3436C45.6074 30.08 45.7557 29.7225 45.7557 29.3494C45.7557 28.9766 45.6074 28.6188 45.3434 28.3551L40.0183 23.0297C39.469 22.4803 38.5787 22.4803 38.0294 23.0297C33.4965 27.5626 31 33.5894 31 40.0002C31 46.4108 33.4965 52.4375 38.0294 56.9708C38.2931 57.2345 38.6509 57.3828 39.0237 57.3828C39.3965 57.3828 39.7543 57.2345 40.0179 56.9708L45.3434 51.6454C45.8927 51.0964 45.8927 50.2062 45.3434 49.6569C42.7642 47.0773 41.344 43.6477 41.344 40.0002Z" fill="#80D398"/>
<path d="M71.976 23.0297C71.7123 22.766 71.3545 22.6177 70.9817 22.6177C70.6085 22.6177 70.2507 22.766 69.9874 23.0297L64.662 28.3551C64.1127 28.9041 64.1127 29.7947 64.662 30.3436C67.2412 32.9232 68.6614 36.3524 68.6614 40.0002C68.6614 43.6477 67.2412 47.0773 64.662 49.6569C64.1127 50.2058 64.1127 51.0964 64.662 51.6454L69.9874 56.9708C70.2511 57.2345 70.6089 57.3828 70.9817 57.3828C71.3549 57.3828 71.7123 57.2345 71.976 56.9708C76.5089 52.4375 79.0054 46.4108 79.0054 40.0002C79.0054 33.5897 76.5089 27.563 71.976 23.0297Z" fill="#FF39B1"/>
<path d="M70.4617 38.6495C68.2618 38.0112 57.1774 34.8281 55.0076 34.8281C52.1559 34.8281 49.8359 37.1484 49.8359 40.0001C49.8359 42.8518 52.1559 45.1721 55.0076 45.1721C57.1774 45.1721 68.2618 41.989 70.4617 41.3507C71.063 41.1764 71.4761 40.626 71.4761 40.0001C71.4761 39.3743 71.063 38.8239 70.4617 38.6495Z" fill="#00345C"/>
<path d="M49.8359 40.0001C49.8359 42.8518 52.1559 45.1721 55.0076 45.1721V34.8281C52.1559 34.8281 49.8359 37.1484 49.8359 40.0001Z" fill="#005AB1"/>
<path d="M58.1216 52.0576H51.8828C51.1061 52.0576 50.4766 51.4281 50.4766 50.6514C50.4766 49.8746 51.1061 49.2451 51.8828 49.2451H58.1216C58.8983 49.2451 59.5278 49.8746 59.5278 50.6514C59.5278 51.4281 58.8983 52.0576 58.1216 52.0576Z" fill="#005AB1"/>
<path d="M58.1194 49.2451H55V52.0576H58.1194C58.8961 52.0576 59.5256 51.4281 59.5256 50.6514C59.5256 49.8746 58.8961 49.2451 58.1194 49.2451Z" fill="#00345C"/>
</svg>
