<svg width="95" height="80" viewBox="0 0 95 80" fill="none" xmlns="http://www.w3.org/2000/svg">
<circle cx="55" cy="40" r="40" fill="#45A5E1"/>
<path d="M1.78873e-07 40L22.5 27.0096L22.5 52.9904L1.78873e-07 40Z" fill="#45A5E1"/>
<g clip-path="url(#clip0_2906_6573)">
<path d="M54.9999 63.9999C68.2547 63.9999 78.9999 53.2547 78.9999 39.9999C78.9999 26.7451 68.2547 16 54.9999 16C41.7451 16 31 26.7451 31 39.9999C31 53.2547 41.7451 63.9999 54.9999 63.9999Z" fill="#A5DCFE"/>
<path opacity="0.1" d="M78.9832 40.7124L64.5304 26.2595L45.4837 26.2495L45.4688 53.7418L55.711 63.9841C68.3996 63.6136 78.6125 53.4009 78.9832 40.7124Z" fill="black"/>
<path d="M64.5257 26.2539H45.4766V53.7447H64.5257V26.2539Z" fill="white"/>
<path d="M53.0201 28.9589C52.4405 28.3787 51.6396 28.0196 50.7547 28.019C49.8699 28.0186 49.0685 28.3769 48.4883 28.9563L50.7529 31.2235L53.0201 28.9589Z" fill="#E56353"/>
<path d="M48.0023 28.9561C47.4221 29.5356 47.063 30.3366 47.0625 31.2214C47.062 32.1064 47.4203 32.9076 47.9998 33.4878L50.267 31.2231L48.0023 28.9561Z" fill="#D15241"/>
<path d="M53.0211 28.9585L50.7539 31.2232L53.0186 33.4904C53.5988 32.9108 53.9579 32.1099 53.9584 31.2249C53.9589 30.34 53.6008 29.5386 53.0211 28.9585Z" fill="#FCD462"/>
<path d="M50.7554 31.2231L48.4883 33.4878C49.0679 34.068 49.8688 34.4271 50.7536 34.4276L50.7554 31.2231Z" fill="#D5D6DB"/>
<path d="M50.7556 31.2231L50.7539 34.4276C51.6388 34.428 52.4401 34.0698 53.0203 33.4903L50.7556 31.2231Z" fill="#44C4A1"/>
<path d="M56.2313 28.019H55.293V28.9574H56.2313V28.019Z" fill="#D15241"/>
<path d="M56.2313 29.3745H55.293V30.3129H56.2313V29.3745Z" fill="#D5D6DB"/>
<path d="M56.2274 30.7271H55.2891V31.6654H56.2274V30.7271Z" fill="#E56353"/>
<path d="M56.2274 32.0806H55.2891V33.0189H56.2274V32.0806Z" fill="#44C4A1"/>
<path d="M56.2274 33.4331H55.2891V34.3715H56.2274V33.4331Z" fill="#FCD462"/>
<path d="M62.7169 36.4004H47.3867V36.8197H62.7169V36.4004Z" fill="#EBF0F3"/>
<path d="M62.7446 34.1093L57 34.1193L57.0002 33.6999L62.7448 33.6899L62.7446 34.1093Z" fill="#EBF0F3"/>
<path d="M62.7133 32.7567L56.9688 32.7667L56.969 32.3474L62.7135 32.3374L62.7133 32.7567Z" fill="#EBF0F3"/>
<path d="M62.7133 31.4037L56.9688 31.4138L56.969 30.9944L62.7135 30.9844L62.7133 31.4037Z" fill="#EBF0F3"/>
<path d="M62.7172 30.0507L56.9727 30.0607L56.9729 29.6413L62.7174 29.6313L62.7172 30.0507Z" fill="#EBF0F3"/>
<path d="M62.7211 28.6977L56.9766 28.7077L56.9768 28.2883L62.7214 28.2783L62.7211 28.6977Z" fill="#EBF0F3"/>
<path d="M62.713 37.9795H47.3828V38.3988H62.713V37.9795Z" fill="#EBF0F3"/>
<path d="M62.713 39.5591H47.3828V39.9784H62.713V39.5591Z" fill="#EBF0F3"/>
<path d="M62.7091 41.1436H47.3789V41.5628H62.7091V41.1436Z" fill="#EBF0F3"/>
<path d="M55.6868 43.1336L47.375 43.1388L47.3752 42.7195L55.6871 42.7144L55.6868 43.1336Z" fill="#EBF0F3"/>
<path d="M47.7857 51.7789L47.7899 43.9886L47.3795 43.9883L47.3752 51.7787L47.375 52.1891L47.7855 52.1893L62.7057 52.1974L62.706 51.787L47.7857 51.7789Z" fill="#64798A"/>
<path d="M48.951 50.6873C48.9159 50.6873 48.8807 50.6756 48.8514 50.6519C48.7836 50.5967 48.7733 50.4971 48.8284 50.4292L50.8047 47.9984L53.6724 49.3888L55.4533 48.0177L57.654 48.8922L59.6187 47.7902L60.5104 45.5973C60.5435 45.5163 60.6355 45.4773 60.7167 45.5102C60.7977 45.5432 60.8367 45.6355 60.8037 45.7165L59.8701 48.0119L57.6773 49.2421L55.5037 48.3784L53.7103 49.7591L50.8921 48.3926L49.0741 50.6291C49.0427 50.6675 48.9971 50.6873 48.951 50.6873Z" fill="#64798A"/>
<path d="M50.8539 48.6374C51.0644 48.6374 51.2351 48.4667 51.2351 48.2562C51.2351 48.0457 51.0644 47.875 50.8539 47.875C50.6433 47.875 50.4727 48.0457 50.4727 48.2562C50.4727 48.4667 50.6433 48.6374 50.8539 48.6374Z" fill="#FCD462"/>
<path d="M53.6703 49.906C53.8808 49.906 54.0515 49.7353 54.0515 49.5248C54.0515 49.3142 53.8808 49.1436 53.6703 49.1436C53.4597 49.1436 53.2891 49.3142 53.2891 49.5248C53.2891 49.7353 53.4597 49.906 53.6703 49.906Z" fill="#44C4A1"/>
<path d="M55.5101 48.6374C55.7207 48.6374 55.8913 48.4667 55.8913 48.2562C55.8913 48.0457 55.7207 47.875 55.5101 47.875C55.2996 47.875 55.1289 48.0457 55.1289 48.2562C55.1289 48.4667 55.2996 48.6374 55.5101 48.6374Z" fill="#E56353"/>
<path d="M57.6591 49.4056C57.8699 49.4056 58.0408 49.2347 58.0408 49.0238C58.0408 48.813 57.8699 48.6421 57.6591 48.6421C57.4483 48.6421 57.2773 48.813 57.2773 49.0238C57.2773 49.2347 57.4483 49.4056 57.6591 49.4056Z" fill="#EBF0F3"/>
<path d="M59.725 48.2614C59.9355 48.2614 60.1062 48.0908 60.1062 47.8802C60.1062 47.6697 59.9355 47.499 59.725 47.499C59.5144 47.499 59.3438 47.6697 59.3438 47.8802C59.3438 48.0908 59.5144 48.2614 59.725 48.2614Z" fill="#DC8744"/>
</g>
<defs>
<clipPath id="clip0_2906_6573">
<rect width="48" height="48" fill="white" transform="translate(31 16)"/>
</clipPath>
</defs>
</svg>
