<svg width="473" height="428" viewBox="0 0 473 428" fill="none" xmlns="http://www.w3.org/2000/svg">
<g filter="url(#filter0_d_3396_6111)">
<rect x="101.195" y="82.8765" width="287.815" height="293.128" rx="10.627" fill="#F6F9FF"/>
<rect x="118.023" y="99.702" width="254.162" height="92.1007" rx="10.627" fill="white"/>
<rect x="118.023" y="198.887" width="254.162" height="164.719" rx="10.627" fill="white"/>
<line x1="251.081" y1="116.528" x2="251.081" y2="174.977" stroke="#D9D9D9" stroke-width="0.442792"/>
<path d="M136.417 122.978C135.893 122.978 135.404 122.882 134.951 122.691C134.497 122.492 134.1 122.22 133.76 121.872C133.42 121.518 133.155 121.111 132.963 120.65C132.779 120.19 132.687 119.697 132.687 119.173C132.687 118.642 132.779 118.149 132.963 117.696C133.155 117.235 133.417 116.832 133.75 116.485C134.09 116.137 134.483 115.868 134.929 115.677C135.383 115.486 135.872 115.39 136.396 115.39C136.92 115.39 137.405 115.486 137.852 115.677C138.305 115.868 138.702 116.137 139.042 116.485C139.382 116.832 139.648 117.235 139.839 117.696C140.03 118.156 140.126 118.652 140.126 119.184C140.126 119.708 140.03 120.2 139.839 120.661C139.648 121.121 139.382 121.525 139.042 121.872C138.709 122.22 138.316 122.492 137.862 122.691C137.416 122.882 136.934 122.978 136.417 122.978ZM136.396 122.021C136.927 122.021 137.391 121.901 137.788 121.66C138.192 121.412 138.511 121.075 138.744 120.65C138.978 120.218 139.095 119.726 139.095 119.173C139.095 118.762 139.028 118.387 138.893 118.047C138.759 117.7 138.571 117.398 138.33 117.143C138.089 116.888 137.806 116.694 137.48 116.559C137.154 116.417 136.793 116.346 136.396 116.346C135.872 116.346 135.407 116.467 135.004 116.708C134.607 116.949 134.292 117.282 134.058 117.707C133.831 118.132 133.718 118.621 133.718 119.173C133.718 119.584 133.782 119.967 133.909 120.321C134.044 120.668 134.228 120.969 134.462 121.224C134.703 121.472 134.986 121.667 135.312 121.809C135.645 121.95 136.006 122.021 136.396 122.021ZM141.326 122.871V117.824H142.283V122.871H141.326ZM142.283 119.991L141.921 119.832C141.921 119.187 142.07 118.674 142.368 118.291C142.665 117.909 143.094 117.717 143.653 117.717C143.909 117.717 144.139 117.763 144.344 117.855C144.55 117.94 144.741 118.086 144.918 118.291L144.291 118.939C144.185 118.826 144.068 118.745 143.94 118.695C143.813 118.645 143.664 118.621 143.494 118.621C143.14 118.621 142.849 118.734 142.623 118.961C142.396 119.187 142.283 119.531 142.283 119.991ZM147.519 125.092C147.002 125.092 146.541 124.997 146.137 124.805C145.741 124.614 145.422 124.345 145.181 123.998L145.797 123.371C146.003 123.633 146.247 123.831 146.531 123.966C146.814 124.108 147.151 124.178 147.54 124.178C148.057 124.178 148.465 124.04 148.762 123.764C149.067 123.495 149.219 123.13 149.219 122.669V121.415L149.389 120.278L149.219 119.152V117.824H150.176V122.669C150.176 123.151 150.062 123.573 149.836 123.934C149.616 124.295 149.304 124.579 148.9 124.784C148.504 124.99 148.043 125.092 147.519 125.092ZM147.519 122.786C147.058 122.786 146.644 122.677 146.276 122.457C145.914 122.237 145.627 121.936 145.415 121.554C145.202 121.164 145.096 120.728 145.096 120.246C145.096 119.765 145.202 119.336 145.415 118.961C145.627 118.578 145.914 118.277 146.276 118.057C146.644 117.831 147.058 117.717 147.519 117.717C147.916 117.717 148.266 117.795 148.571 117.951C148.876 118.107 149.117 118.327 149.294 118.61C149.478 118.886 149.577 119.212 149.591 119.588V120.927C149.57 121.295 149.467 121.621 149.283 121.904C149.106 122.181 148.865 122.397 148.56 122.553C148.256 122.708 147.909 122.786 147.519 122.786ZM147.71 121.883C148.022 121.883 148.295 121.816 148.529 121.681C148.769 121.547 148.954 121.359 149.081 121.118C149.209 120.87 149.272 120.583 149.272 120.257C149.272 119.931 149.205 119.648 149.07 119.407C148.943 119.159 148.762 118.968 148.529 118.833C148.295 118.691 148.018 118.621 147.7 118.621C147.381 118.621 147.101 118.691 146.86 118.833C146.619 118.968 146.428 119.159 146.286 119.407C146.152 119.648 146.084 119.928 146.084 120.246C146.084 120.565 146.152 120.849 146.286 121.097C146.428 121.345 146.619 121.539 146.86 121.681C147.108 121.816 147.391 121.883 147.71 121.883ZM153.726 122.978C153.266 122.978 152.848 122.864 152.472 122.638C152.097 122.404 151.799 122.088 151.58 121.692C151.367 121.295 151.261 120.849 151.261 120.353C151.261 119.857 151.367 119.41 151.58 119.014C151.799 118.617 152.093 118.302 152.462 118.068C152.837 117.834 153.259 117.717 153.726 117.717C154.109 117.717 154.449 117.799 154.746 117.962C155.051 118.118 155.295 118.337 155.48 118.621C155.664 118.897 155.767 119.219 155.788 119.588V121.107C155.767 121.469 155.664 121.791 155.48 122.074C155.303 122.358 155.062 122.581 154.757 122.744C154.459 122.9 154.116 122.978 153.726 122.978ZM153.886 122.074C154.36 122.074 154.743 121.915 155.033 121.596C155.324 121.27 155.469 120.856 155.469 120.353C155.469 120.006 155.402 119.704 155.267 119.449C155.14 119.187 154.955 118.985 154.715 118.844C154.474 118.695 154.194 118.621 153.875 118.621C153.556 118.621 153.273 118.695 153.025 118.844C152.784 118.992 152.593 119.198 152.451 119.46C152.316 119.715 152.249 120.009 152.249 120.342C152.249 120.682 152.316 120.983 152.451 121.245C152.593 121.5 152.787 121.702 153.035 121.851C153.283 122 153.567 122.074 153.886 122.074ZM155.405 122.871V121.511L155.586 120.278L155.405 119.056V117.824H156.372V122.871H155.405ZM161.335 122.871V119.928C161.335 119.545 161.215 119.23 160.974 118.982C160.733 118.734 160.422 118.61 160.039 118.61C159.784 118.61 159.557 118.667 159.359 118.78C159.16 118.893 159.005 119.049 158.891 119.248C158.778 119.446 158.721 119.673 158.721 119.928L158.328 119.704C158.328 119.322 158.413 118.982 158.583 118.684C158.753 118.387 158.99 118.153 159.295 117.983C159.6 117.806 159.943 117.717 160.326 117.717C160.708 117.717 161.045 117.813 161.335 118.004C161.633 118.195 161.867 118.447 162.037 118.759C162.207 119.063 162.292 119.389 162.292 119.736V122.871H161.335ZM157.765 122.871V117.824H158.721V122.871H157.765ZM163.597 122.871V117.824H164.554V122.871H163.597ZM164.076 116.814C163.899 116.814 163.753 116.757 163.64 116.644C163.527 116.523 163.47 116.375 163.47 116.198C163.47 116.028 163.527 115.886 163.64 115.772C163.753 115.652 163.899 115.592 164.076 115.592C164.253 115.592 164.398 115.652 164.511 115.772C164.625 115.886 164.681 116.028 164.681 116.198C164.681 116.375 164.625 116.523 164.511 116.644C164.398 116.757 164.253 116.814 164.076 116.814ZM168.269 122.978C167.773 122.978 167.324 122.861 166.92 122.627C166.523 122.393 166.208 122.078 165.974 121.681C165.747 121.277 165.634 120.831 165.634 120.342C165.634 119.846 165.747 119.4 165.974 119.003C166.208 118.606 166.523 118.295 166.92 118.068C167.324 117.834 167.773 117.717 168.269 117.717C168.659 117.717 169.02 117.792 169.353 117.94C169.686 118.082 169.973 118.291 170.214 118.567L169.577 119.205C169.421 119.021 169.229 118.883 169.003 118.791C168.783 118.691 168.539 118.642 168.269 118.642C167.951 118.642 167.667 118.716 167.419 118.865C167.171 119.007 166.976 119.205 166.835 119.46C166.693 119.715 166.622 120.009 166.622 120.342C166.622 120.675 166.693 120.969 166.835 121.224C166.976 121.479 167.171 121.681 167.419 121.83C167.667 121.979 167.951 122.053 168.269 122.053C168.539 122.053 168.783 122.007 169.003 121.915C169.229 121.816 169.424 121.674 169.587 121.49L170.214 122.127C169.98 122.397 169.693 122.606 169.353 122.754C169.02 122.903 168.659 122.978 168.269 122.978ZM175.333 122.871V115.709H176.331V122.871H175.333ZM172.825 116.41V115.496H178.829V116.41H172.825ZM178.718 122.871V117.824H179.674V122.871H178.718ZM179.674 119.991L179.313 119.832C179.313 119.187 179.462 118.674 179.759 118.291C180.057 117.909 180.485 117.717 181.045 117.717C181.3 117.717 181.53 117.763 181.736 117.855C181.941 117.94 182.133 118.086 182.31 118.291L181.683 118.939C181.576 118.826 181.46 118.745 181.332 118.695C181.205 118.645 181.056 118.621 180.886 118.621C180.532 118.621 180.241 118.734 180.014 118.961C179.788 119.187 179.674 119.531 179.674 119.991ZM184.964 122.978C184.503 122.978 184.085 122.864 183.71 122.638C183.334 122.404 183.037 122.088 182.817 121.692C182.605 121.295 182.498 120.849 182.498 120.353C182.498 119.857 182.605 119.41 182.817 119.014C183.037 118.617 183.331 118.302 183.699 118.068C184.075 117.834 184.496 117.717 184.964 117.717C185.346 117.717 185.686 117.799 185.984 117.962C186.289 118.118 186.533 118.337 186.717 118.621C186.901 118.897 187.004 119.219 187.025 119.588V121.107C187.004 121.469 186.901 121.791 186.717 122.074C186.54 122.358 186.299 122.581 185.995 122.744C185.697 122.9 185.353 122.978 184.964 122.978ZM185.123 122.074C185.598 122.074 185.98 121.915 186.271 121.596C186.561 121.27 186.707 120.856 186.707 120.353C186.707 120.006 186.639 119.704 186.505 119.449C186.377 119.187 186.193 118.985 185.952 118.844C185.711 118.695 185.431 118.621 185.113 118.621C184.794 118.621 184.51 118.695 184.262 118.844C184.022 118.992 183.83 119.198 183.689 119.46C183.554 119.715 183.487 120.009 183.487 120.342C183.487 120.682 183.554 120.983 183.689 121.245C183.83 121.5 184.025 121.702 184.273 121.851C184.521 122 184.804 122.074 185.123 122.074ZM186.643 122.871V121.511L186.823 120.278L186.643 119.056V117.824H187.61V122.871H186.643ZM189.704 122.871V117.271C189.704 116.881 189.786 116.541 189.949 116.251C190.119 115.953 190.352 115.719 190.65 115.549C190.948 115.372 191.291 115.284 191.681 115.284C192.078 115.284 192.404 115.369 192.659 115.539C192.914 115.709 193.101 115.943 193.222 116.24C193.349 116.531 193.413 116.86 193.413 117.228H192.712C192.705 116.903 192.616 116.644 192.446 116.453C192.276 116.254 192.021 116.155 191.681 116.155C191.348 116.155 191.093 116.254 190.916 116.453C190.746 116.644 190.661 116.91 190.661 117.25V122.871H189.704ZM188.461 118.695V117.824H195.273V118.695H188.461ZM192.712 122.871V117.069C192.712 116.694 192.793 116.368 192.956 116.091C193.119 115.808 193.342 115.585 193.626 115.422C193.916 115.259 194.253 115.177 194.635 115.177C194.926 115.177 195.177 115.227 195.39 115.326C195.602 115.425 195.797 115.571 195.974 115.762L195.347 116.378C195.255 116.279 195.152 116.205 195.039 116.155C194.926 116.098 194.787 116.07 194.625 116.07C194.32 116.07 194.083 116.159 193.913 116.336C193.75 116.513 193.668 116.757 193.668 117.069V122.871H192.712ZM196.236 122.871V117.824H197.192V122.871H196.236ZM196.714 116.814C196.537 116.814 196.392 116.757 196.279 116.644C196.165 116.523 196.109 116.375 196.109 116.198C196.109 116.028 196.165 115.886 196.279 115.772C196.392 115.652 196.537 115.592 196.714 115.592C196.891 115.592 197.037 115.652 197.15 115.772C197.263 115.886 197.32 116.028 197.32 116.198C197.32 116.375 197.263 116.523 197.15 116.644C197.037 116.757 196.891 116.814 196.714 116.814ZM200.908 122.978C200.412 122.978 199.962 122.861 199.558 122.627C199.162 122.393 198.846 122.078 198.613 121.681C198.386 121.277 198.273 120.831 198.273 120.342C198.273 119.846 198.386 119.4 198.613 119.003C198.846 118.606 199.162 118.295 199.558 118.068C199.962 117.834 200.412 117.717 200.908 117.717C201.298 117.717 201.659 117.792 201.992 117.94C202.325 118.082 202.612 118.291 202.853 118.567L202.215 119.205C202.059 119.021 201.868 118.883 201.641 118.791C201.422 118.691 201.177 118.642 200.908 118.642C200.589 118.642 200.306 118.716 200.058 118.865C199.81 119.007 199.615 119.205 199.473 119.46C199.332 119.715 199.261 120.009 199.261 120.342C199.261 120.675 199.332 120.969 199.473 121.224C199.615 121.479 199.81 121.681 200.058 121.83C200.306 121.979 200.589 122.053 200.908 122.053C201.177 122.053 201.422 122.007 201.641 121.915C201.868 121.816 202.063 121.674 202.226 121.49L202.853 122.127C202.619 122.397 202.332 122.606 201.992 122.754C201.659 122.903 201.298 122.978 200.908 122.978Z" fill="#BFBFBF"/>
<path d="M137.49 225.599L134.047 221.72L137.416 218.16H138.978L135.259 222.028V221.359L139.084 225.599H137.49ZM132.995 225.599V218.16H134.217V225.599H132.995ZM141.837 225.705C141.327 225.705 140.866 225.592 140.456 225.365C140.052 225.132 139.729 224.813 139.488 224.409C139.255 224.005 139.138 223.552 139.138 223.049C139.138 222.546 139.255 222.096 139.488 221.699C139.722 221.295 140.038 220.976 140.434 220.743C140.838 220.509 141.284 220.392 141.773 220.392C142.248 220.392 142.666 220.502 143.027 220.721C143.396 220.941 143.683 221.242 143.888 221.625C144.101 222.007 144.207 222.443 144.207 222.932C144.207 223.017 144.2 223.105 144.186 223.197C144.179 223.282 144.164 223.378 144.143 223.484H139.956V222.528H143.537L143.102 222.91C143.088 222.599 143.027 222.337 142.921 222.124C142.815 221.912 142.662 221.749 142.464 221.635C142.273 221.522 142.035 221.465 141.752 221.465C141.454 221.465 141.196 221.529 140.976 221.657C140.757 221.784 140.587 221.965 140.466 222.198C140.346 222.425 140.286 222.698 140.286 223.017C140.286 223.336 140.349 223.615 140.477 223.856C140.604 224.097 140.785 224.285 141.019 224.42C141.253 224.547 141.522 224.611 141.826 224.611C142.089 224.611 142.329 224.565 142.549 224.473C142.776 224.381 142.967 224.246 143.123 224.069L143.867 224.823C143.619 225.114 143.318 225.333 142.964 225.482C142.609 225.631 142.234 225.705 141.837 225.705ZM146.708 225.652L144.53 220.498H145.815L147.303 224.281H146.931L148.504 220.498H149.801L147.431 225.652H146.708ZM145.188 227.725L146.772 224.462L147.431 225.652L146.485 227.725H145.188ZM151.748 225.599L149.697 220.498H150.909L152.29 224.207L151.929 224.218L153.278 220.498H153.958L155.308 224.218L154.947 224.207L156.328 220.498H157.54L155.489 225.599H154.809L153.427 222.071H153.81L152.428 225.599H151.748ZM160.485 225.705C159.99 225.705 159.54 225.588 159.136 225.355C158.732 225.114 158.41 224.791 158.169 224.388C157.935 223.984 157.818 223.534 157.818 223.038C157.818 222.542 157.935 222.096 158.169 221.699C158.41 221.302 158.732 220.987 159.136 220.753C159.54 220.512 159.99 220.392 160.485 220.392C160.988 220.392 161.442 220.509 161.846 220.743C162.25 220.976 162.568 221.295 162.802 221.699C163.043 222.096 163.163 222.542 163.163 223.038C163.163 223.534 163.043 223.984 162.802 224.388C162.568 224.791 162.25 225.114 161.846 225.355C161.442 225.588 160.988 225.705 160.485 225.705ZM160.485 224.579C160.776 224.579 161.031 224.515 161.251 224.388C161.477 224.253 161.651 224.069 161.771 223.835C161.899 223.601 161.963 223.336 161.963 223.038C161.963 222.74 161.899 222.478 161.771 222.252C161.644 222.025 161.47 221.848 161.251 221.72C161.031 221.586 160.776 221.518 160.485 221.518C160.202 221.518 159.947 221.586 159.72 221.72C159.501 221.848 159.327 222.025 159.2 222.252C159.079 222.478 159.019 222.74 159.019 223.038C159.019 223.336 159.079 223.601 159.2 223.835C159.327 224.069 159.501 224.253 159.72 224.388C159.947 224.515 160.202 224.579 160.485 224.579ZM164.136 225.599V220.498H165.305V225.599H164.136ZM165.305 222.762L164.901 222.56C164.901 221.915 165.042 221.394 165.326 220.998C165.616 220.594 166.052 220.392 166.633 220.392C166.888 220.392 167.118 220.438 167.324 220.53C167.529 220.622 167.72 220.771 167.898 220.976L167.132 221.763C167.04 221.664 166.938 221.593 166.824 221.55C166.711 221.508 166.58 221.486 166.431 221.486C166.105 221.486 165.836 221.589 165.623 221.795C165.411 222 165.305 222.322 165.305 222.762ZM170.444 225.705C169.983 225.705 169.565 225.588 169.19 225.355C168.821 225.121 168.527 224.806 168.308 224.409C168.095 224.005 167.989 223.555 167.989 223.059C167.989 222.556 168.095 222.106 168.308 221.71C168.527 221.306 168.821 220.987 169.19 220.753C169.565 220.512 169.983 220.392 170.444 220.392C170.833 220.392 171.177 220.477 171.474 220.647C171.779 220.81 172.02 221.037 172.197 221.327C172.374 221.618 172.463 221.947 172.463 222.315V223.782C172.463 224.15 172.374 224.48 172.197 224.77C172.027 225.061 171.79 225.291 171.485 225.461C171.18 225.624 170.833 225.705 170.444 225.705ZM170.635 224.6C170.925 224.6 171.177 224.536 171.389 224.409C171.609 224.274 171.779 224.09 171.899 223.856C172.02 223.622 172.08 223.353 172.08 223.049C172.08 222.744 172.02 222.475 171.899 222.241C171.779 222.007 171.609 221.827 171.389 221.699C171.177 221.564 170.925 221.497 170.635 221.497C170.351 221.497 170.1 221.564 169.88 221.699C169.668 221.827 169.498 222.007 169.37 222.241C169.25 222.475 169.19 222.744 169.19 223.049C169.19 223.353 169.25 223.622 169.37 223.856C169.498 224.09 169.668 224.274 169.88 224.409C170.1 224.536 170.351 224.6 170.635 224.6ZM173.175 225.599H172.006V224.228L172.208 222.985L172.006 221.752V217.948H173.175V225.599ZM177.598 222.443V221.433H179.479C179.855 221.433 180.145 221.338 180.351 221.146C180.563 220.948 180.67 220.675 180.67 220.328C180.67 220.016 180.567 219.754 180.361 219.542C180.156 219.329 179.866 219.223 179.49 219.223H177.598V218.16H179.543C180.011 218.16 180.422 218.256 180.776 218.447C181.13 218.631 181.403 218.886 181.594 219.212C181.793 219.531 181.892 219.896 181.892 220.307C181.892 220.739 181.793 221.115 181.594 221.433C181.403 221.752 181.13 222 180.776 222.177C180.422 222.354 180.011 222.443 179.543 222.443H177.598ZM176.759 225.599V218.16H177.981V225.599H176.759ZM180.84 225.599L178.236 222.369L179.373 221.954L182.381 225.599H180.84ZM185.108 225.705C184.647 225.705 184.229 225.588 183.854 225.355C183.485 225.121 183.191 224.806 182.972 224.409C182.759 224.005 182.653 223.555 182.653 223.059C182.653 222.556 182.759 222.106 182.972 221.71C183.191 221.306 183.485 220.987 183.854 220.753C184.229 220.512 184.647 220.392 185.108 220.392C185.497 220.392 185.841 220.477 186.138 220.647C186.443 220.81 186.684 221.037 186.861 221.327C187.038 221.618 187.127 221.947 187.127 222.315V223.782C187.127 224.15 187.038 224.48 186.861 224.77C186.691 225.061 186.454 225.291 186.149 225.461C185.844 225.624 185.497 225.705 185.108 225.705ZM185.299 224.6C185.731 224.6 186.078 224.455 186.34 224.164C186.61 223.874 186.744 223.502 186.744 223.049C186.744 222.744 186.684 222.475 186.563 222.241C186.443 222.007 186.273 221.827 186.053 221.699C185.841 221.564 185.589 221.497 185.299 221.497C185.015 221.497 184.764 221.564 184.544 221.699C184.332 221.827 184.162 222.007 184.034 222.241C183.914 222.475 183.854 222.744 183.854 223.049C183.854 223.353 183.914 223.622 184.034 223.856C184.162 224.09 184.332 224.274 184.544 224.409C184.764 224.536 185.015 224.6 185.299 224.6ZM186.67 225.599V224.228L186.872 222.985L186.67 221.752V220.498H187.839V225.599H186.67ZM192.632 225.599V222.655C192.632 222.315 192.523 222.036 192.303 221.816C192.09 221.596 191.814 221.486 191.474 221.486C191.247 221.486 191.045 221.536 190.868 221.635C190.691 221.734 190.553 221.873 190.454 222.05C190.355 222.227 190.305 222.429 190.305 222.655L189.848 222.4C189.848 222.011 189.933 221.667 190.103 221.37C190.273 221.065 190.507 220.828 190.804 220.658C191.109 220.48 191.449 220.392 191.825 220.392C192.207 220.392 192.547 220.491 192.845 220.689C193.142 220.881 193.376 221.132 193.546 221.444C193.716 221.749 193.801 222.067 193.801 222.4V225.599H192.632ZM189.136 225.599V220.498H190.305V225.599H189.136ZM198.23 225.599L196.073 222.996L198.22 220.498H199.612L197.146 223.304L197.2 222.634L199.718 225.599H198.23ZM194.989 225.599V217.948H196.158V225.599H194.989ZM200.241 225.599V220.498H201.41V225.599H200.241ZM200.825 219.563C200.627 219.563 200.46 219.496 200.326 219.361C200.198 219.226 200.134 219.06 200.134 218.862C200.134 218.663 200.198 218.497 200.326 218.362C200.46 218.228 200.627 218.16 200.825 218.16C201.031 218.16 201.197 218.228 201.325 218.362C201.452 218.497 201.516 218.663 201.516 218.862C201.516 219.06 201.452 219.226 201.325 219.361C201.197 219.496 201.031 219.563 200.825 219.563ZM206.217 225.599V222.655C206.217 222.315 206.107 222.036 205.888 221.816C205.675 221.596 205.399 221.486 205.059 221.486C204.832 221.486 204.63 221.536 204.453 221.635C204.276 221.734 204.138 221.873 204.038 222.05C203.939 222.227 203.89 222.429 203.89 222.655L203.433 222.4C203.433 222.011 203.518 221.667 203.688 221.37C203.858 221.065 204.092 220.828 204.389 220.658C204.694 220.48 205.034 220.392 205.409 220.392C205.792 220.392 206.132 220.491 206.43 220.689C206.727 220.881 206.961 221.132 207.131 221.444C207.301 221.749 207.386 222.067 207.386 222.4V225.599H206.217ZM202.721 225.599V220.498H203.89V225.599H202.721ZM210.699 227.831C210.161 227.831 209.69 227.732 209.286 227.533C208.882 227.342 208.556 227.069 208.308 226.715L209.073 225.95C209.279 226.205 209.513 226.396 209.775 226.524C210.037 226.651 210.352 226.715 210.721 226.715C211.181 226.715 211.546 226.595 211.815 226.354C212.084 226.12 212.219 225.797 212.219 225.387V224.133L212.421 223.006L212.219 221.869V220.498H213.388V225.387C213.388 225.875 213.275 226.301 213.048 226.662C212.821 227.03 212.506 227.317 212.102 227.523C211.698 227.728 211.231 227.831 210.699 227.831ZM210.646 225.493C210.193 225.493 209.782 225.383 209.413 225.163C209.052 224.937 208.765 224.629 208.553 224.239C208.347 223.849 208.244 223.414 208.244 222.932C208.244 222.45 208.347 222.018 208.553 221.635C208.765 221.253 209.052 220.952 209.413 220.732C209.782 220.505 210.193 220.392 210.646 220.392C211.05 220.392 211.404 220.473 211.709 220.636C212.014 220.799 212.251 221.026 212.421 221.316C212.591 221.6 212.676 221.933 212.676 222.315V223.569C212.676 223.945 212.587 224.278 212.41 224.568C212.24 224.859 212.003 225.085 211.698 225.248C211.394 225.411 211.043 225.493 210.646 225.493ZM210.88 224.388C211.163 224.388 211.411 224.327 211.624 224.207C211.836 224.087 211.999 223.92 212.113 223.708C212.233 223.488 212.293 223.233 212.293 222.942C212.293 222.652 212.233 222.4 212.113 222.188C211.999 221.968 211.836 221.798 211.624 221.678C211.411 221.557 211.163 221.497 210.88 221.497C210.597 221.497 210.345 221.557 210.125 221.678C209.913 221.798 209.746 221.968 209.626 222.188C209.506 222.4 209.445 222.652 209.445 222.942C209.445 223.226 209.506 223.477 209.626 223.697C209.746 223.917 209.913 224.087 210.125 224.207C210.345 224.327 210.597 224.388 210.88 224.388Z" fill="#BFBFBF"/>
<path d="M270.111 122.871V122H272.343C272.768 122 273.101 121.876 273.342 121.628C273.583 121.373 273.703 121.068 273.703 120.714C273.703 120.473 273.65 120.257 273.544 120.066C273.437 119.867 273.282 119.712 273.076 119.598C272.878 119.485 272.644 119.428 272.375 119.428H270.111V118.557H272.226C272.58 118.557 272.86 118.465 273.066 118.28C273.278 118.089 273.384 117.816 273.384 117.462C273.384 117.108 273.275 116.839 273.055 116.655C272.835 116.463 272.545 116.368 272.183 116.368H270.111V115.496H272.205C272.687 115.496 273.087 115.585 273.406 115.762C273.731 115.932 273.976 116.159 274.139 116.442C274.309 116.725 274.394 117.037 274.394 117.377C274.394 117.774 274.284 118.121 274.064 118.419C273.852 118.716 273.537 118.95 273.119 119.12L273.204 118.801C273.678 118.971 274.047 119.23 274.309 119.577C274.578 119.917 274.713 120.321 274.713 120.788C274.713 121.178 274.617 121.529 274.426 121.841C274.235 122.152 273.958 122.404 273.597 122.595C273.243 122.779 272.807 122.871 272.29 122.871H270.111ZM269.442 122.871V115.496H270.441V122.871H269.442ZM278.039 122.978C277.579 122.978 277.161 122.864 276.785 122.638C276.41 122.404 276.112 122.088 275.893 121.692C275.68 121.295 275.574 120.849 275.574 120.353C275.574 119.857 275.68 119.41 275.893 119.014C276.112 118.617 276.406 118.302 276.775 118.068C277.15 117.834 277.572 117.717 278.039 117.717C278.422 117.717 278.762 117.799 279.06 117.962C279.364 118.118 279.609 118.337 279.793 118.621C279.977 118.897 280.08 119.219 280.101 119.588V121.107C280.08 121.469 279.977 121.791 279.793 122.074C279.616 122.358 279.375 122.581 279.07 122.744C278.773 122.9 278.429 122.978 278.039 122.978ZM278.199 122.074C278.674 122.074 279.056 121.915 279.347 121.596C279.637 121.27 279.782 120.856 279.782 120.353C279.782 120.006 279.715 119.704 279.58 119.449C279.453 119.187 279.269 118.985 279.028 118.844C278.787 118.695 278.507 118.621 278.188 118.621C277.869 118.621 277.586 118.695 277.338 118.844C277.097 118.992 276.906 119.198 276.764 119.46C276.63 119.715 276.562 120.009 276.562 120.342C276.562 120.682 276.63 120.983 276.764 121.245C276.906 121.5 277.101 121.702 277.349 121.851C277.597 122 277.88 122.074 278.199 122.074ZM279.719 122.871V121.511L279.899 120.278L279.719 119.056V117.824H280.686V122.871H279.719ZM284.384 122.978C283.888 122.978 283.438 122.861 283.034 122.627C282.638 122.393 282.322 122.078 282.089 121.681C281.862 121.277 281.749 120.831 281.749 120.342C281.749 119.846 281.862 119.4 282.089 119.003C282.322 118.606 282.638 118.295 283.034 118.068C283.438 117.834 283.888 117.717 284.384 117.717C284.774 117.717 285.135 117.792 285.468 117.94C285.801 118.082 286.088 118.291 286.329 118.567L285.691 119.205C285.535 119.021 285.344 118.883 285.117 118.791C284.898 118.691 284.653 118.642 284.384 118.642C284.065 118.642 283.782 118.716 283.534 118.865C283.286 119.007 283.091 119.205 282.949 119.46C282.808 119.715 282.737 120.009 282.737 120.342C282.737 120.675 282.808 120.969 282.949 121.224C283.091 121.479 283.286 121.681 283.534 121.83C283.782 121.979 284.065 122.053 284.384 122.053C284.653 122.053 284.898 122.007 285.117 121.915C285.344 121.816 285.539 121.674 285.702 121.49L286.329 122.127C286.095 122.397 285.808 122.606 285.468 122.754C285.135 122.903 284.774 122.978 284.384 122.978ZM290.508 122.871L288.149 120.289L290.487 117.824H291.645L289.041 120.544L289.084 119.991L291.741 122.871H290.508ZM287.277 122.871V115.284H288.234V122.871H287.277ZM292.57 122.871V115.284H293.527V122.871H292.57ZM294.937 122.871V117.824H295.893V122.871H294.937ZM295.415 116.814C295.238 116.814 295.092 116.757 294.979 116.644C294.866 116.523 294.809 116.375 294.809 116.198C294.809 116.028 294.866 115.886 294.979 115.772C295.092 115.652 295.238 115.592 295.415 115.592C295.592 115.592 295.737 115.652 295.85 115.772C295.964 115.886 296.021 116.028 296.021 116.198C296.021 116.375 295.964 116.523 295.85 116.644C295.737 116.757 295.592 116.814 295.415 116.814ZM300.873 122.871V119.928C300.873 119.545 300.753 119.23 300.512 118.982C300.271 118.734 299.959 118.61 299.577 118.61C299.322 118.61 299.095 118.667 298.897 118.78C298.698 118.893 298.542 119.049 298.429 119.248C298.316 119.446 298.259 119.673 298.259 119.928L297.866 119.704C297.866 119.322 297.951 118.982 298.121 118.684C298.291 118.387 298.528 118.153 298.833 117.983C299.137 117.806 299.481 117.717 299.864 117.717C300.246 117.717 300.583 117.813 300.873 118.004C301.171 118.195 301.405 118.447 301.575 118.759C301.745 119.063 301.83 119.389 301.83 119.736V122.871H300.873ZM297.302 122.871V117.824H298.259V122.871H297.302ZM306.355 122.871L303.996 120.289L306.334 117.824H307.492L304.889 120.544L304.931 119.991L307.588 122.871H306.355ZM303.125 122.871V115.284H304.081V122.871H303.125ZM309.721 122.978C309.438 122.978 309.168 122.942 308.913 122.871C308.665 122.793 308.435 122.687 308.223 122.553C308.01 122.411 307.826 122.244 307.67 122.053L308.286 121.437C308.471 121.663 308.683 121.833 308.924 121.947C309.165 122.053 309.434 122.106 309.732 122.106C310.029 122.106 310.259 122.057 310.422 121.957C310.585 121.851 310.667 121.706 310.667 121.522C310.667 121.338 310.599 121.196 310.465 121.097C310.337 120.99 310.171 120.905 309.965 120.842C309.76 120.771 309.54 120.703 309.307 120.64C309.08 120.569 308.864 120.48 308.658 120.374C308.453 120.268 308.283 120.122 308.148 119.938C308.021 119.754 307.957 119.51 307.957 119.205C307.957 118.9 308.031 118.638 308.18 118.419C308.329 118.192 308.534 118.018 308.796 117.898C309.066 117.777 309.388 117.717 309.763 117.717C310.16 117.717 310.511 117.788 310.816 117.93C311.127 118.064 311.382 118.27 311.581 118.546L310.964 119.163C310.823 118.978 310.646 118.837 310.433 118.737C310.228 118.638 309.994 118.589 309.732 118.589C309.455 118.589 309.243 118.638 309.094 118.737C308.952 118.83 308.881 118.961 308.881 119.131C308.881 119.301 308.945 119.432 309.073 119.524C309.2 119.616 309.367 119.694 309.572 119.758C309.785 119.821 310.004 119.889 310.231 119.96C310.458 120.023 310.674 120.112 310.879 120.225C311.085 120.339 311.251 120.491 311.379 120.682C311.513 120.873 311.581 121.125 311.581 121.437C311.581 121.911 311.411 122.287 311.071 122.563C310.738 122.839 310.288 122.978 309.721 122.978Z" fill="#BFBFBF"/>
<path d="M141.495 138.092V156.125H137.682V141.711H137.576L133.447 144.3V140.918L137.911 138.092H141.495ZM152.368 156.372C151.123 156.372 150.014 156.143 149.039 155.685C148.07 155.227 147.301 154.596 146.732 153.792C146.163 152.988 145.866 152.066 145.843 151.027H149.541C149.582 151.726 149.876 152.292 150.422 152.726C150.967 153.161 151.616 153.378 152.368 153.378C152.966 153.378 153.495 153.246 153.953 152.982C154.416 152.712 154.777 152.339 155.036 151.863C155.3 151.382 155.432 150.83 155.432 150.208C155.432 149.574 155.297 149.016 155.027 148.535C154.763 148.054 154.396 147.678 153.926 147.408C153.456 147.138 152.919 147 152.315 146.994C151.786 146.994 151.273 147.103 150.774 147.32C150.281 147.537 149.896 147.834 149.62 148.209L146.23 147.602L147.084 138.092H158.109V141.209H150.228L149.761 145.726H149.867C150.184 145.28 150.662 144.91 151.302 144.617C151.942 144.323 152.658 144.176 153.451 144.176C154.537 144.176 155.505 144.432 156.356 144.942C157.208 145.453 157.88 146.155 158.373 147.047C158.866 147.933 159.11 148.955 159.104 150.111C159.11 151.326 158.828 152.407 158.258 153.352C157.695 154.291 156.905 155.031 155.89 155.571C154.88 156.105 153.706 156.372 152.368 156.372ZM168.834 156.522C167.319 156.516 166.016 156.143 164.924 155.403C163.838 154.664 163.002 153.592 162.415 152.189C161.833 150.786 161.546 149.099 161.552 147.126C161.552 145.16 161.842 143.484 162.423 142.098C163.01 140.713 163.847 139.659 164.933 138.937C166.025 138.209 167.325 137.845 168.834 137.845C170.343 137.845 171.64 138.209 172.726 138.937C173.818 139.665 174.657 140.722 175.244 142.107C175.831 143.487 176.122 145.16 176.116 147.126C176.116 149.104 175.823 150.795 175.235 152.198C174.654 153.601 173.821 154.672 172.735 155.412C171.649 156.152 170.348 156.522 168.834 156.522ZM168.834 153.36C169.867 153.36 170.692 152.841 171.308 151.802C171.925 150.763 172.23 149.204 172.224 147.126C172.224 145.758 172.083 144.619 171.801 143.71C171.525 142.8 171.132 142.116 170.621 141.658C170.117 141.2 169.521 140.971 168.834 140.971C167.807 140.971 166.985 141.485 166.368 142.512C165.752 143.539 165.441 145.077 165.435 147.126C165.435 148.512 165.573 149.668 165.849 150.596C166.131 151.517 166.527 152.21 167.038 152.674C167.548 153.131 168.147 153.36 168.834 153.36ZM180.336 156.354C179.755 156.354 179.256 156.149 178.839 155.738C178.428 155.321 178.223 154.822 178.223 154.241C178.223 153.666 178.428 153.173 178.839 152.762C179.256 152.351 179.755 152.145 180.336 152.145C180.9 152.145 181.393 152.351 181.815 152.762C182.238 153.173 182.449 153.666 182.449 154.241C182.449 154.628 182.35 154.984 182.15 155.306C181.956 155.623 181.701 155.879 181.384 156.073C181.067 156.26 180.718 156.354 180.336 156.354ZM191.495 156.372C190.139 156.372 188.932 156.152 187.876 155.712C186.825 155.265 186 154.658 185.401 153.889C184.803 153.12 184.503 152.248 184.503 151.274C184.503 150.522 184.674 149.832 185.014 149.204C185.36 148.57 185.83 148.045 186.423 147.628C187.016 147.205 187.679 146.935 188.413 146.818V146.695C187.45 146.501 186.669 146.034 186.071 145.295C185.472 144.549 185.173 143.683 185.173 142.697C185.173 141.764 185.445 140.933 185.991 140.205C186.537 139.471 187.286 138.896 188.237 138.479C189.194 138.056 190.28 137.845 191.495 137.845C192.71 137.845 193.793 138.056 194.744 138.479C195.701 138.902 196.452 139.48 196.998 140.214C197.544 140.942 197.82 141.769 197.826 142.697C197.82 143.689 197.515 144.555 196.91 145.295C196.306 146.034 195.531 146.501 194.586 146.695V146.818C195.308 146.935 195.962 147.205 196.549 147.628C197.142 148.045 197.612 148.57 197.958 149.204C198.31 149.832 198.489 150.522 198.495 151.274C198.489 152.248 198.187 153.12 197.588 153.889C196.99 154.658 196.162 155.265 195.105 155.712C194.054 156.152 192.851 156.372 191.495 156.372ZM191.495 153.572C192.1 153.572 192.628 153.463 193.08 153.246C193.532 153.023 193.884 152.718 194.137 152.33C194.395 151.937 194.524 151.485 194.524 150.974C194.524 150.452 194.392 149.991 194.128 149.592C193.864 149.187 193.505 148.87 193.053 148.641C192.601 148.406 192.082 148.288 191.495 148.288C190.914 148.288 190.394 148.406 189.936 148.641C189.478 148.87 189.117 149.187 188.853 149.592C188.595 149.991 188.466 150.452 188.466 150.974C188.466 151.485 188.592 151.937 188.844 152.33C189.097 152.718 189.452 153.023 189.91 153.246C190.368 153.463 190.896 153.572 191.495 153.572ZM191.495 145.515C192 145.515 192.449 145.412 192.842 145.207C193.235 145.001 193.544 144.716 193.767 144.352C193.99 143.988 194.101 143.569 194.101 143.093C194.101 142.624 193.99 142.213 193.767 141.86C193.544 141.502 193.238 141.223 192.851 141.024C192.463 140.818 192.011 140.716 191.495 140.716C190.984 140.716 190.532 140.818 190.139 141.024C189.746 141.223 189.437 141.502 189.214 141.86C188.997 142.213 188.888 142.624 188.888 143.093C188.888 143.569 189 143.988 189.223 144.352C189.446 144.716 189.754 145.001 190.148 145.207C190.541 145.412 190.99 145.515 191.495 145.515ZM204.595 152.233L204.604 147.734H205.15L209.482 142.6H213.788L207.968 149.398H207.078L204.595 152.233ZM201.196 156.125V138.092H204.947V156.125H201.196ZM209.65 156.125L205.67 150.234L208.17 147.584L214.044 156.125H209.65Z" fill="black"/>
<path d="M269.759 152.955V149.953L277.288 138.092H279.877V142.248H278.344L273.598 149.759V149.9H284.297V152.955H269.759ZM278.415 156.125V152.04L278.485 150.71V138.092H282.06V156.125H278.415ZM294.441 138.092V156.125H290.628V141.711H290.522L286.393 144.3V140.918L290.857 138.092H294.441ZM305.648 156.372C304.721 156.366 303.825 156.21 302.962 155.905C302.105 155.6 301.336 155.104 300.655 154.417C299.974 153.73 299.434 152.82 299.035 151.687C298.642 150.554 298.445 149.163 298.445 147.514C298.451 145.999 298.624 144.646 298.965 143.454C299.311 142.257 299.804 141.241 300.444 140.408C301.09 139.574 301.862 138.94 302.76 138.506C303.658 138.065 304.665 137.845 305.78 137.845C306.984 137.845 308.046 138.08 308.968 138.55C309.889 139.013 310.629 139.644 311.187 140.443C311.75 141.241 312.091 142.136 312.208 143.128H308.448C308.302 142.5 307.993 142.007 307.524 141.649C307.054 141.291 306.473 141.112 305.78 141.112C304.606 141.112 303.714 141.623 303.103 142.644C302.499 143.666 302.191 145.054 302.179 146.809H302.302C302.572 146.275 302.936 145.82 303.394 145.444C303.858 145.063 304.383 144.772 304.97 144.573C305.563 144.367 306.188 144.264 306.846 144.264C307.914 144.264 308.865 144.517 309.699 145.022C310.532 145.521 311.19 146.207 311.671 147.082C312.152 147.957 312.393 148.958 312.393 150.085C312.393 151.306 312.108 152.392 311.539 153.343C310.975 154.294 310.186 155.039 309.17 155.579C308.161 156.114 306.987 156.378 305.648 156.372ZM305.631 153.378C306.218 153.378 306.743 153.237 307.207 152.955C307.67 152.674 308.034 152.292 308.299 151.811C308.563 151.329 308.695 150.789 308.695 150.19C308.695 149.592 308.563 149.055 308.299 148.579C308.04 148.104 307.682 147.725 307.224 147.443C306.766 147.161 306.244 147.02 305.657 147.02C305.217 147.02 304.809 147.103 304.433 147.267C304.063 147.431 303.737 147.66 303.456 147.954C303.18 148.247 302.962 148.588 302.804 148.975C302.645 149.357 302.566 149.765 302.566 150.199C302.566 150.78 302.698 151.312 302.962 151.793C303.232 152.274 303.596 152.659 304.054 152.947C304.518 153.234 305.044 153.378 305.631 153.378ZM316.574 156.354C315.992 156.354 315.493 156.149 315.077 155.738C314.666 155.321 314.46 154.822 314.46 154.241C314.46 153.666 314.666 153.173 315.077 152.762C315.493 152.351 315.992 152.145 316.574 152.145C317.137 152.145 317.63 152.351 318.053 152.762C318.476 153.173 318.687 153.666 318.687 154.241C318.687 154.628 318.587 154.984 318.388 155.306C318.194 155.623 317.938 155.879 317.621 156.073C317.304 156.26 316.955 156.354 316.574 156.354ZM328.173 156.372C326.928 156.372 325.819 156.143 324.844 155.685C323.876 155.227 323.107 154.596 322.537 153.792C321.968 152.988 321.671 152.066 321.648 151.027H325.346C325.387 151.726 325.681 152.292 326.227 152.726C326.773 153.161 327.421 153.378 328.173 153.378C328.771 153.378 329.3 153.246 329.758 152.982C330.221 152.712 330.582 152.339 330.841 151.863C331.105 151.382 331.237 150.83 331.237 150.208C331.237 149.574 331.102 149.016 330.832 148.535C330.568 148.054 330.201 147.678 329.731 147.408C329.262 147.138 328.724 147 328.12 146.994C327.591 146.994 327.078 147.103 326.579 147.32C326.086 147.537 325.701 147.834 325.425 148.209L322.035 147.602L322.889 138.092H333.914V141.209H326.033L325.566 145.726H325.672C325.989 145.28 326.467 144.91 327.107 144.617C327.747 144.323 328.463 144.176 329.256 144.176C330.342 144.176 331.31 144.432 332.162 144.942C333.013 145.453 333.685 146.155 334.178 147.047C334.671 147.933 334.915 148.955 334.909 150.111C334.915 151.326 334.633 152.407 334.064 153.352C333.5 154.291 332.71 155.031 331.695 155.571C330.685 156.105 329.511 156.372 328.173 156.372ZM341.002 152.233L341.011 147.734H341.557L345.889 142.6H350.195L344.375 149.398H343.485L341.002 152.233ZM337.603 156.125V138.092H341.355V156.125H337.603ZM346.057 156.125L342.077 150.234L344.577 147.584L350.451 156.125H346.057Z" fill="black"/>
<line x1="135.734" y1="249.144" x2="356.245" y2="249.144" stroke="#D9D9D9" stroke-width="0.442792"/>
<line x1="135.734" y1="277.483" x2="356.245" y2="277.483" stroke="#D9D9D9" stroke-width="0.442792"/>
<line x1="135.734" y1="305.822" x2="356.245" y2="305.822" stroke="#D9D9D9" stroke-width="0.442792"/>
<line x1="135.734" y1="334.16" x2="356.245" y2="334.16" stroke="#D9D9D9" stroke-width="0.442792"/>
<line x1="135.734" y1="348.33" x2="356.245" y2="348.33" stroke="#D9D9D9" stroke-width="0.442792"/>
<path d="M179.128 321.098C138.391 324.64 141.933 336.153 135.734 348.551H356.687V248.037C347.979 255.86 328.88 285.675 309.752 280.361C285.841 273.719 247.761 285.675 237.576 299.401C227.392 313.128 219.865 317.556 179.128 321.098Z" fill="url(#paint0_linear_3396_6111)"/>
<path d="M135.734 348.109C141.933 335.71 138.391 324.197 179.128 320.655C219.865 317.113 227.392 312.685 237.576 298.958C247.761 285.232 285.841 273.276 309.752 279.918C328.88 285.232 347.979 255.417 356.687 247.594" stroke="#491FA4" stroke-width="1.32838"/>
</g>
<g filter="url(#filter1_d_3396_6111)">
<rect x="101.195" y="20" width="287.815" height="47.8215" rx="10.627" fill="#F6F9FF"/>
<path d="M124.576 49.5399C123.802 49.5399 123.14 49.3982 122.593 49.1148C122.045 48.8314 121.558 48.4205 121.133 47.8821L122.04 46.9752C122.352 47.4098 122.711 47.7404 123.117 47.9671C123.523 48.1844 124.024 48.293 124.619 48.293C125.204 48.293 125.672 48.1655 126.022 47.9104C126.38 47.6554 126.56 47.3059 126.56 46.8619C126.56 46.4935 126.475 46.1959 126.305 45.9692C126.135 45.7425 125.903 45.5583 125.611 45.4166C125.327 45.2655 125.016 45.1332 124.675 45.0199C124.335 44.8971 123.995 44.7695 123.655 44.6373C123.315 44.4956 123.003 44.3256 122.72 44.1272C122.437 43.9194 122.205 43.6502 122.026 43.3195C121.856 42.9889 121.771 42.5733 121.771 42.0726C121.771 41.5153 121.903 41.043 122.167 40.6557C122.441 40.259 122.81 39.9567 123.273 39.7489C123.745 39.5316 124.274 39.423 124.86 39.423C125.502 39.423 126.078 39.5505 126.588 39.8056C127.098 40.0512 127.514 40.377 127.835 40.7832L126.928 41.6901C126.636 41.35 126.319 41.095 125.979 40.9249C125.648 40.7549 125.266 40.6699 124.831 40.6699C124.302 40.6699 123.882 40.788 123.57 41.0241C123.259 41.2508 123.103 41.572 123.103 41.9876C123.103 42.3182 123.188 42.5875 123.358 42.7953C123.537 42.9937 123.769 43.1637 124.052 43.3054C124.335 43.4471 124.647 43.5793 124.987 43.7021C125.337 43.8155 125.681 43.943 126.022 44.0847C126.362 44.2264 126.673 44.4059 126.957 44.6231C127.24 44.8404 127.467 45.1238 127.637 45.4733C127.816 45.8134 127.906 46.2432 127.906 46.7627C127.906 47.6317 127.604 48.3119 126.999 48.8031C126.404 49.2943 125.596 49.5399 124.576 49.5399ZM132.495 49.5399C131.824 49.5399 131.22 49.3887 130.681 49.0865C130.143 48.7747 129.718 48.3544 129.406 47.8254C129.094 47.2964 128.938 46.6966 128.938 46.0259C128.938 45.3647 129.089 44.7695 129.392 44.2406C129.703 43.7116 130.119 43.2959 130.639 42.9937C131.168 42.6819 131.758 42.5261 132.41 42.5261C133.033 42.5261 133.581 42.6678 134.053 42.9511C134.535 43.2345 134.908 43.6266 135.173 44.1272C135.447 44.6279 135.584 45.1946 135.584 45.8275C135.584 45.922 135.579 46.0259 135.57 46.1392C135.56 46.2432 135.541 46.366 135.513 46.5076H129.831V45.4449H134.833L134.365 45.8559C134.365 45.4024 134.285 45.0199 134.124 44.7081C133.964 44.387 133.737 44.1414 133.444 43.9713C133.151 43.7919 132.797 43.7021 132.381 43.7021C131.947 43.7021 131.564 43.7966 131.234 43.9855C130.903 44.1744 130.648 44.4389 130.469 44.779C130.289 45.1191 130.199 45.5205 130.199 45.9834C130.199 46.4557 130.294 46.8713 130.483 47.2303C130.672 47.5798 130.941 47.8537 131.29 48.0521C131.64 48.241 132.041 48.3355 132.495 48.3355C132.873 48.3355 133.217 48.2694 133.529 48.1371C133.85 48.0049 134.124 47.8065 134.351 47.542L135.173 48.378C134.852 48.7559 134.455 49.044 133.983 49.2423C133.52 49.4407 133.024 49.5399 132.495 49.5399ZM139.836 49.5399C139.222 49.5399 138.665 49.3887 138.164 49.0865C137.664 48.7747 137.267 48.3544 136.974 47.8254C136.691 47.2964 136.549 46.7013 136.549 46.0401C136.549 45.3788 136.691 44.7837 136.974 44.2547C137.267 43.7257 137.659 43.3054 138.15 42.9937C138.651 42.6819 139.213 42.5261 139.836 42.5261C140.347 42.5261 140.8 42.6347 141.197 42.852C141.603 43.0598 141.929 43.3526 142.174 43.7305C142.42 44.0989 142.557 44.5287 142.585 45.0199V47.0461C142.557 47.5278 142.42 47.9576 142.174 48.3355C141.938 48.7133 141.617 49.0109 141.211 49.2282C140.814 49.436 140.356 49.5399 139.836 49.5399ZM140.049 48.3355C140.682 48.3355 141.192 48.123 141.579 47.6979C141.967 47.2633 142.16 46.7107 142.16 46.0401C142.16 45.5772 142.07 45.1757 141.891 44.8357C141.721 44.4862 141.475 44.2169 141.154 44.028C140.833 43.8296 140.46 43.7305 140.035 43.7305C139.61 43.7305 139.232 43.8296 138.901 44.028C138.58 44.2264 138.325 44.5003 138.136 44.8498C137.957 45.1899 137.867 45.5819 137.867 46.0259C137.867 46.4793 137.957 46.8808 138.136 47.2303C138.325 47.5703 138.585 47.8396 138.915 48.0379C139.246 48.2363 139.624 48.3355 140.049 48.3355ZM142.075 49.3982V47.5845L142.316 45.9409L142.075 44.3114V42.6678H143.365V49.3982H142.075ZM145.221 49.3982V42.6678H146.496V49.3982H145.221ZM146.496 45.5583L146.015 45.3458C146.015 44.4862 146.213 43.8013 146.61 43.2912C147.007 42.7811 147.578 42.5261 148.324 42.5261C148.664 42.5261 148.971 42.5875 149.245 42.7103C149.519 42.8236 149.774 43.0173 150.01 43.2912L149.174 44.1555C149.033 44.0044 148.877 43.8958 148.707 43.8296C148.537 43.7635 148.338 43.7305 148.112 43.7305C147.639 43.7305 147.252 43.8816 146.95 44.1839C146.648 44.4862 146.496 44.9443 146.496 45.5583ZM153.762 49.5399C153.1 49.5399 152.501 49.384 151.962 49.0723C151.433 48.7606 151.013 48.3402 150.701 47.8112C150.399 47.2728 150.248 46.6777 150.248 46.0259C150.248 45.3647 150.399 44.7695 150.701 44.2406C151.013 43.7116 151.433 43.2959 151.962 42.9937C152.501 42.6819 153.1 42.5261 153.762 42.5261C154.281 42.5261 154.763 42.6253 155.207 42.8236C155.651 43.0125 156.033 43.2912 156.355 43.6596L155.504 44.5098C155.297 44.2642 155.042 44.08 154.739 43.9572C154.447 43.8249 154.121 43.7588 153.762 43.7588C153.337 43.7588 152.959 43.858 152.628 44.0564C152.297 44.2453 152.038 44.5098 151.849 44.8498C151.66 45.1899 151.565 45.5819 151.565 46.0259C151.565 46.4699 151.66 46.8619 151.849 47.2019C152.038 47.542 152.297 47.8112 152.628 48.0096C152.959 48.208 153.337 48.3072 153.762 48.3072C154.121 48.3072 154.447 48.2458 154.739 48.123C155.042 47.9907 155.301 47.8018 155.519 47.5562L156.355 48.4063C156.043 48.7653 155.66 49.044 155.207 49.2423C154.763 49.4407 154.281 49.5399 153.762 49.5399ZM162.38 49.3982V45.4733C162.38 44.9632 162.22 44.5428 161.899 44.2122C161.577 43.8816 161.162 43.7163 160.652 43.7163C160.312 43.7163 160.009 43.7919 159.745 43.943C159.48 44.0941 159.272 44.302 159.121 44.5664C158.97 44.8309 158.895 45.1332 158.895 45.4733L158.37 45.1757C158.37 44.6656 158.484 44.2122 158.71 43.8155C158.937 43.4187 159.254 43.107 159.66 42.8803C160.066 42.6441 160.524 42.5261 161.034 42.5261C161.544 42.5261 161.993 42.6394 162.38 42.8661C162.777 43.0928 163.089 43.4093 163.315 43.8155C163.542 44.2217 163.656 44.6893 163.656 45.2182V49.3982H162.38ZM157.619 49.3982V39.2813H158.895V49.3982H157.619Z" fill="black"/>
<rect x="341.188" y="26.1991" width="35.4233" height="35.4233" rx="2.65675" fill="#0FA6C4"/>
<path d="M366.87 51.8817L363.024 48.0356M363.024 48.0356C363.682 47.3777 364.204 46.5967 364.56 45.7371C364.916 44.8776 365.099 43.9563 365.099 43.0259C365.099 42.0955 364.916 41.1742 364.56 40.3146C364.204 39.4551 363.682 38.674 363.024 38.0161C362.366 37.3583 361.585 36.8364 360.726 36.4803C359.866 36.1243 358.945 35.941 358.015 35.941C357.084 35.941 356.163 36.1243 355.303 36.4803C354.444 36.8364 353.663 37.3583 353.005 38.0161C351.676 39.3448 350.93 41.1469 350.93 43.0259C350.93 44.9049 351.676 46.707 353.005 48.0356C354.333 49.3643 356.136 50.1107 358.015 50.1107C359.894 50.1107 361.696 49.3643 363.024 48.0356Z" stroke="white" stroke-width="1.32838" stroke-linecap="round" stroke-linejoin="round"/>
</g>
<g filter="url(#filter2_d_3396_6111)">
<rect x="24" y="259" width="154.977" height="128.41" rx="10.627" fill="white"/>
<path d="M38.1719 297.081C38.1719 296.102 38.9649 295.309 39.943 295.309H57.6547C58.6329 295.309 59.4259 296.102 59.4259 297.081V376.783H38.1719V297.081Z" fill="#FFE2EF"/>
<path d="M38.1719 346.673C38.1719 345.695 38.9649 344.902 39.943 344.902H57.6547C58.6329 344.902 59.4259 345.695 59.4259 346.673V376.783H38.1719V346.673Z" fill="#FF75B6"/>
<path d="M64.7344 297.081C64.7344 296.102 65.5274 295.309 66.5055 295.309H84.2172C85.1954 295.309 85.9884 296.102 85.9884 297.081V376.783H64.7344V297.081Z" fill="#FFE2EF"/>
<path d="M64.7344 320.991C64.7344 320.013 65.5274 319.22 66.5055 319.22H84.2172C85.1954 319.22 85.9884 320.013 85.9884 320.991V376.783H64.7344V320.991Z" fill="#FF75B6"/>
<path d="M91.3047 297.081C91.3047 296.102 92.0977 295.309 93.0759 295.309H110.788C111.766 295.309 112.559 296.102 112.559 297.081V376.783H91.3047V297.081Z" fill="#FFE2EF"/>
<path d="M91.3047 334.275C91.3047 333.297 92.0977 332.504 93.0759 332.504H110.788C111.766 332.504 112.559 333.297 112.559 334.275V376.783H91.3047V334.275Z" fill="#FF75B6"/>
<path d="M117.875 297.081C117.875 296.102 118.668 295.309 119.646 295.309H137.358C138.336 295.309 139.129 296.102 139.129 297.081V376.783H117.875V297.081Z" fill="#FFE2EF"/>
<path d="M117.875 320.991C117.875 320.013 118.668 319.22 119.646 319.22H137.358C138.336 319.22 139.129 320.013 139.129 320.991V376.783H117.875V320.991Z" fill="#FF75B6"/>
<path d="M144.438 297.081C144.438 296.102 145.23 295.309 146.209 295.309H163.92C164.899 295.309 165.692 296.102 165.692 297.081V376.783H144.438V297.081Z" fill="#FFE2EF"/>
<path d="M144.438 303.28C144.438 302.302 145.23 301.509 146.209 301.509H163.92C164.899 301.509 165.692 302.302 165.692 303.28V376.783H144.438V303.28Z" fill="#FF75B6"/>
<path d="M38.9795 282.17V274.731H40.2016V282.17H38.9795ZM39.8191 282.17V281.054H43.9848V282.17H39.8191ZM39.8191 278.907V277.834H43.6235V278.907H39.8191ZM39.8191 275.847V274.731H43.9317V275.847H39.8191ZM48.5847 282.17V279.226C48.5847 278.886 48.4749 278.606 48.2552 278.387C48.0427 278.167 47.7664 278.057 47.4263 278.057C47.1996 278.057 46.9977 278.107 46.8206 278.206C46.6435 278.305 46.5053 278.443 46.4061 278.621C46.307 278.798 46.2574 279 46.2574 279.226L45.8004 278.971C45.8004 278.582 45.8854 278.238 46.0555 277.94C46.2255 277.636 46.4593 277.398 46.7568 277.228C47.0615 277.051 47.4015 276.963 47.777 276.963C48.1596 276.963 48.4997 277.062 48.7972 277.26C49.0948 277.452 49.3286 277.703 49.4986 278.015C49.6686 278.319 49.7536 278.638 49.7536 278.971V282.17H48.5847ZM45.0884 282.17V277.069H46.2574V282.17H45.0884ZM53.0669 284.402C52.5285 284.402 52.0574 284.302 51.6536 284.104C51.2497 283.913 50.9238 283.64 50.6759 283.286L51.441 282.521C51.6465 282.776 51.8803 282.967 52.1424 283.094C52.4045 283.222 52.7198 283.286 53.0882 283.286C53.5487 283.286 53.9136 283.165 54.1828 282.924C54.452 282.691 54.5866 282.368 54.5866 281.957V280.703L54.7885 279.577L54.5866 278.44V277.069H55.7556V281.957C55.7556 282.446 55.6422 282.871 55.4155 283.233C55.1888 283.601 54.8735 283.888 54.4697 284.093C54.0659 284.299 53.5983 284.402 53.0669 284.402ZM53.0138 282.064C52.5604 282.064 52.1495 281.954 51.7811 281.734C51.4198 281.508 51.1328 281.199 50.9203 280.81C50.7148 280.42 50.6121 279.984 50.6121 279.503C50.6121 279.021 50.7148 278.589 50.9203 278.206C51.1328 277.823 51.4198 277.522 51.7811 277.303C52.1495 277.076 52.5604 276.963 53.0138 276.963C53.4176 276.963 53.7719 277.044 54.0765 277.207C54.3812 277.37 54.6185 277.597 54.7885 277.887C54.9586 278.171 55.0436 278.504 55.0436 278.886V280.14C55.0436 280.516 54.955 280.849 54.7779 281.139C54.6079 281.43 54.3705 281.656 54.0659 281.819C53.7612 281.982 53.4106 282.064 53.0138 282.064ZM53.2476 280.958C53.531 280.958 53.779 280.898 53.9915 280.778C54.204 280.657 54.367 280.491 54.4803 280.278C54.6008 280.059 54.661 279.804 54.661 279.513C54.661 279.223 54.6008 278.971 54.4803 278.759C54.367 278.539 54.204 278.369 53.9915 278.249C53.779 278.128 53.531 278.068 53.2476 278.068C52.9642 278.068 52.7127 278.128 52.4931 278.249C52.2805 278.369 52.1141 278.539 51.9936 278.759C51.8732 278.971 51.813 279.223 51.813 279.513C51.813 279.797 51.8732 280.048 51.9936 280.268C52.1141 280.487 52.2805 280.657 52.4931 280.778C52.7127 280.898 52.9642 280.958 53.2476 280.958ZM59.1902 282.276C58.7297 282.276 58.3117 282.159 57.9362 281.926C57.5678 281.692 57.2738 281.376 57.0542 280.98C56.8416 280.576 56.7353 280.126 56.7353 279.63C56.7353 279.127 56.8416 278.677 57.0542 278.28C57.2738 277.877 57.5678 277.558 57.9362 277.324C58.3117 277.083 58.7297 276.963 59.1902 276.963C59.5798 276.963 59.9234 277.048 60.221 277.218C60.5256 277.381 60.7665 277.607 60.9436 277.898C61.1207 278.188 61.2093 278.518 61.2093 278.886V280.353C61.2093 280.721 61.1207 281.051 60.9436 281.341C60.7736 281.631 60.5363 281.862 60.2316 282.032C59.927 282.195 59.5798 282.276 59.1902 282.276ZM59.3815 281.171C59.8136 281.171 60.1608 281.026 60.4229 280.735C60.6921 280.445 60.8267 280.073 60.8267 279.619C60.8267 279.315 60.7665 279.046 60.6461 278.812C60.5256 278.578 60.3556 278.397 60.136 278.27C59.9234 278.135 59.6719 278.068 59.3815 278.068C59.0981 278.068 58.8466 278.135 58.6269 278.27C58.4144 278.397 58.2444 278.578 58.1169 278.812C57.9964 279.046 57.9362 279.315 57.9362 279.619C57.9362 279.924 57.9964 280.193 58.1169 280.427C58.2444 280.661 58.4144 280.845 58.6269 280.98C58.8466 281.107 59.0981 281.171 59.3815 281.171ZM60.7523 282.17V280.799L60.9543 279.556L60.7523 278.323V277.069H61.9213V282.17H60.7523ZM65.344 284.402C64.8056 284.402 64.3345 284.302 63.9306 284.104C63.5268 283.913 63.2009 283.64 62.953 283.286L63.7181 282.521C63.9236 282.776 64.1574 282.967 64.4195 283.094C64.6816 283.222 64.9969 283.286 65.3653 283.286C65.8258 283.286 66.1907 283.165 66.4599 282.924C66.7291 282.691 66.8637 282.368 66.8637 281.957V280.703L67.0656 279.577L66.8637 278.44V277.069H68.0327V281.957C68.0327 282.446 67.9193 282.871 67.6926 283.233C67.4659 283.601 67.1506 283.888 66.7468 284.093C66.343 284.299 65.8754 284.402 65.344 284.402ZM65.2909 282.064C64.8375 282.064 64.4266 281.954 64.0582 281.734C63.6969 281.508 63.4099 281.199 63.1974 280.81C62.9919 280.42 62.8892 279.984 62.8892 279.503C62.8892 279.021 62.9919 278.589 63.1974 278.206C63.4099 277.823 63.6969 277.522 64.0582 277.303C64.4266 277.076 64.8375 276.963 65.2909 276.963C65.6947 276.963 66.049 277.044 66.3536 277.207C66.6582 277.37 66.8956 277.597 67.0656 277.887C67.2356 278.171 67.3207 278.504 67.3207 278.886V280.14C67.3207 280.516 67.2321 280.849 67.055 281.139C66.885 281.43 66.6476 281.656 66.343 281.819C66.0383 281.982 65.6876 282.064 65.2909 282.064ZM65.5247 280.958C65.8081 280.958 66.056 280.898 66.2686 280.778C66.4811 280.657 66.6441 280.491 66.7574 280.278C66.8779 280.059 66.9381 279.804 66.9381 279.513C66.9381 279.223 66.8779 278.971 66.7574 278.759C66.6441 278.539 66.4811 278.369 66.2686 278.249C66.056 278.128 65.8081 278.068 65.5247 278.068C65.2413 278.068 64.9898 278.128 64.7702 278.249C64.5576 278.369 64.3912 278.539 64.2707 278.759C64.1503 278.971 64.0901 279.223 64.0901 279.513C64.0901 279.797 64.1503 280.048 64.2707 280.268C64.3912 280.487 64.5576 280.657 64.7702 280.778C64.9898 280.898 65.2413 280.958 65.5247 280.958ZM71.7011 282.276C71.191 282.276 70.7305 282.163 70.3196 281.936C69.9157 281.702 69.5934 281.384 69.3525 280.98C69.1187 280.576 69.0018 280.122 69.0018 279.619C69.0018 279.116 69.1187 278.667 69.3525 278.27C69.5863 277.866 69.9016 277.547 70.2983 277.313C70.7021 277.08 71.1485 276.963 71.6373 276.963C72.112 276.963 72.53 277.073 72.8913 277.292C73.2597 277.512 73.5466 277.813 73.7521 278.195C73.9646 278.578 74.0709 279.014 74.0709 279.503C74.0709 279.588 74.0638 279.676 74.0496 279.768C74.0425 279.853 74.0284 279.949 74.0071 280.055H69.8201V279.099H73.4014L72.9657 279.481C72.9515 279.17 72.8913 278.907 72.785 278.695C72.6787 278.482 72.5264 278.319 72.3281 278.206C72.1368 278.093 71.8994 278.036 71.616 278.036C71.3185 278.036 71.0599 278.1 70.8403 278.227C70.6207 278.355 70.4506 278.535 70.3302 278.769C70.2097 278.996 70.1495 279.269 70.1495 279.588C70.1495 279.906 70.2133 280.186 70.3408 280.427C70.4683 280.668 70.649 280.856 70.8828 280.99C71.1166 281.118 71.3858 281.182 71.6904 281.182C71.9526 281.182 72.1934 281.136 72.4131 281.043C72.6398 280.951 72.8311 280.817 72.9869 280.64L73.7308 281.394C73.4829 281.685 73.1818 281.904 72.8275 282.053C72.4733 282.202 72.0978 282.276 71.7011 282.276ZM75.008 282.17V277.069H76.1769V282.17H75.008ZM78.398 282.17V279.131C78.398 278.791 78.2917 278.528 78.0792 278.344C77.8666 278.153 77.6045 278.057 77.2928 278.057C77.0802 278.057 76.889 278.1 76.7189 278.185C76.556 278.27 76.4249 278.394 76.3257 278.557C76.2265 278.713 76.1769 278.904 76.1769 279.131L75.72 278.876C75.72 278.486 75.805 278.149 75.975 277.866C76.1451 277.583 76.3753 277.363 76.6658 277.207C76.9563 277.044 77.2822 276.963 77.6435 276.963C78.0048 276.963 78.3307 277.041 78.6212 277.196C78.9116 277.352 79.1419 277.572 79.3119 277.855C79.4819 278.139 79.567 278.479 79.567 278.876V282.17H78.398ZM81.788 282.17V279.131C81.788 278.791 81.6817 278.528 81.4692 278.344C81.2567 278.153 80.9945 278.057 80.6828 278.057C80.4773 278.057 80.2896 278.1 80.1196 278.185C79.9495 278.27 79.8149 278.394 79.7157 278.557C79.6166 278.713 79.567 278.904 79.567 279.131L78.9081 278.876C78.9435 278.486 79.0569 278.149 79.2481 277.866C79.4394 277.583 79.6839 277.363 79.9814 277.207C80.2861 277.044 80.619 276.963 80.9803 276.963C81.3488 276.963 81.6817 277.041 81.9793 277.196C82.2768 277.352 82.5142 277.572 82.6913 277.855C82.8684 278.139 82.957 278.479 82.957 278.876V282.17H81.788ZM86.5311 282.276C86.021 282.276 85.5605 282.163 85.1496 281.936C84.7458 281.702 84.4234 281.384 84.1826 280.98C83.9488 280.576 83.8319 280.122 83.8319 279.619C83.8319 279.116 83.9488 278.667 84.1826 278.27C84.4164 277.866 84.7316 277.547 85.1284 277.313C85.5322 277.08 85.9785 276.963 86.4674 276.963C86.942 276.963 87.36 277.073 87.7214 277.292C88.0898 277.512 88.3767 277.813 88.5821 278.195C88.7947 278.578 88.901 279.014 88.901 279.503C88.901 279.588 88.8939 279.676 88.8797 279.768C88.8726 279.853 88.8584 279.949 88.8372 280.055H84.6502V279.099H88.2315L87.7957 279.481C87.7816 279.17 87.7214 278.907 87.6151 278.695C87.5088 278.482 87.3565 278.319 87.1581 278.206C86.9668 278.093 86.7295 278.036 86.4461 278.036C86.1486 278.036 85.89 278.1 85.6703 278.227C85.4507 278.355 85.2807 278.535 85.1602 278.769C85.0398 278.996 84.9796 279.269 84.9796 279.588C84.9796 279.906 85.0434 280.186 85.1709 280.427C85.2984 280.668 85.4791 280.856 85.7129 280.99C85.9466 281.118 86.2159 281.182 86.5205 281.182C86.7826 281.182 87.0235 281.136 87.2431 281.043C87.4698 280.951 87.6611 280.817 87.817 280.64L88.5609 281.394C88.3129 281.685 88.0118 281.904 87.6576 282.053C87.3034 282.202 86.9279 282.276 86.5311 282.276ZM93.3343 282.17V279.226C93.3343 278.886 93.2245 278.606 93.0049 278.387C92.7923 278.167 92.516 278.057 92.176 278.057C91.9493 278.057 91.7474 278.107 91.5702 278.206C91.3931 278.305 91.255 278.443 91.1558 278.621C91.0566 278.798 91.007 279 91.007 279.226L90.55 278.971C90.55 278.582 90.6351 278.238 90.8051 277.94C90.9751 277.636 91.2089 277.398 91.5065 277.228C91.8111 277.051 92.1512 276.963 92.5267 276.963C92.9092 276.963 93.2493 277.062 93.5469 277.26C93.8444 277.452 94.0782 277.703 94.2482 278.015C94.4183 278.319 94.5033 278.638 94.5033 278.971V282.17H93.3343ZM89.838 282.17V277.069H91.007V282.17H89.838ZM96.4047 282.17V274.944H97.5737V282.17H96.4047ZM95.1826 278.132V277.069H98.7958V278.132H95.1826ZM103.636 282.17V274.944H104.858V282.17H103.636ZM101.213 275.847V274.731H107.281V275.847H101.213ZM108.197 282.17V277.069H109.366V282.17H108.197ZM108.781 276.134C108.583 276.134 108.416 276.066 108.282 275.932C108.154 275.797 108.091 275.631 108.091 275.432C108.091 275.234 108.154 275.068 108.282 274.933C108.416 274.798 108.583 274.731 108.781 274.731C108.987 274.731 109.153 274.798 109.281 274.933C109.408 275.068 109.472 275.234 109.472 275.432C109.472 275.631 109.408 275.797 109.281 275.932C109.153 276.066 108.987 276.134 108.781 276.134ZM110.677 282.17V277.069H111.846V282.17H110.677ZM114.067 282.17V279.131C114.067 278.791 113.961 278.528 113.748 278.344C113.536 278.153 113.273 278.057 112.962 278.057C112.749 278.057 112.558 278.1 112.388 278.185C112.225 278.27 112.094 278.394 111.995 278.557C111.895 278.713 111.846 278.904 111.846 279.131L111.389 278.876C111.389 278.486 111.474 278.149 111.644 277.866C111.814 277.583 112.044 277.363 112.335 277.207C112.625 277.044 112.951 276.963 113.312 276.963C113.674 276.963 114 277.041 114.29 277.196C114.581 277.352 114.811 277.572 114.981 277.855C115.151 278.139 115.236 278.479 115.236 278.876V282.17H114.067ZM117.457 282.17V279.131C117.457 278.791 117.351 278.528 117.138 278.344C116.926 278.153 116.663 278.057 116.352 278.057C116.146 278.057 115.959 278.1 115.789 278.185C115.618 278.27 115.484 278.394 115.385 278.557C115.286 278.713 115.236 278.904 115.236 279.131L114.577 278.876C114.612 278.486 114.726 278.149 114.917 277.866C115.108 277.583 115.353 277.363 115.65 277.207C115.955 277.044 116.288 276.963 116.649 276.963C117.018 276.963 117.351 277.041 117.648 277.196C117.946 277.352 118.183 277.572 118.36 277.855C118.537 278.139 118.626 278.479 118.626 278.876V282.17H117.457ZM122.2 282.276C121.69 282.276 121.229 282.163 120.819 281.936C120.415 281.702 120.092 281.384 119.852 280.98C119.618 280.576 119.501 280.122 119.501 279.619C119.501 279.116 119.618 278.667 119.852 278.27C120.085 277.866 120.401 277.547 120.797 277.313C121.201 277.08 121.647 276.963 122.136 276.963C122.611 276.963 123.029 277.073 123.39 277.292C123.759 277.512 124.046 277.813 124.251 278.195C124.464 278.578 124.57 279.014 124.57 279.503C124.57 279.588 124.563 279.676 124.549 279.768C124.542 279.853 124.527 279.949 124.506 280.055H120.319V279.099H123.9L123.465 279.481C123.451 279.17 123.39 278.907 123.284 278.695C123.178 278.482 123.025 278.319 122.827 278.206C122.636 278.093 122.398 278.036 122.115 278.036C121.818 278.036 121.559 278.1 121.339 278.227C121.12 278.355 120.95 278.535 120.829 278.769C120.709 278.996 120.649 279.269 120.649 279.588C120.649 279.906 120.712 280.186 120.84 280.427C120.967 280.668 121.148 280.856 121.382 280.99C121.616 281.118 121.885 281.182 122.189 281.182C122.452 281.182 122.692 281.136 122.912 281.043C123.139 280.951 123.33 280.817 123.486 280.64L124.23 281.394C123.982 281.685 123.681 281.904 123.327 282.053C122.972 282.202 122.597 282.276 122.2 282.276Z" fill="black"/>
</g>
<g filter="url(#filter3_d_3396_6111)">
<g clip-path="url(#clip0_3396_6111)">
<rect x="333.219" y="290.103" width="115.126" height="108.927" rx="10.627" fill="white"/>
<path d="M430.63 364.491C431.608 364.491 432.405 363.698 432.363 362.721C432.152 357.76 431.055 352.871 429.118 348.289C426.951 343.162 423.778 338.521 419.786 334.642C415.794 330.763 411.065 327.724 405.878 325.704C400.691 323.685 395.152 322.727 389.588 322.886C384.024 323.045 378.549 324.319 373.486 326.631C368.423 328.944 363.875 332.249 360.112 336.35C356.348 340.451 353.446 345.265 351.576 350.508C349.904 355.194 349.088 360.137 349.161 365.102C349.175 366.08 350.016 366.826 350.993 366.77L361.095 366.192C362.072 366.136 362.812 365.298 362.818 364.32C362.838 361.181 363.385 358.062 364.443 355.098C365.699 351.576 367.649 348.342 370.177 345.587C372.705 342.832 375.761 340.612 379.162 339.058C382.563 337.505 386.241 336.649 389.979 336.542C393.716 336.435 397.438 337.079 400.922 338.435C404.407 339.792 407.584 341.833 410.265 344.439C412.947 347.045 415.078 350.163 416.534 353.607C417.759 356.506 418.485 359.588 418.683 362.721C418.745 363.698 419.533 364.491 420.511 364.491H430.63Z" fill="url(#paint1_linear_3396_6111)"/>
<path d="M413.142 346.327L390.27 364.16L386.992 359.216L413.142 346.327Z" fill="black"/>
<circle cx="389.86" cy="360.869" r="4.44885" transform="rotate(56.457 389.86 360.869)" fill="black"/>
<path d="M364.092 383.97V382.907H365.952C366.207 382.907 366.43 382.857 366.622 382.758C366.82 382.652 366.976 382.507 367.089 382.323C367.203 382.131 367.259 381.908 367.259 381.653C367.259 381.398 367.203 381.178 367.089 380.994C366.976 380.803 366.82 380.658 366.622 380.558C366.43 380.452 366.207 380.399 365.952 380.399H364.092V379.336H366.016C366.484 379.336 366.902 379.432 367.27 379.623C367.645 379.815 367.939 380.084 368.152 380.431C368.372 380.778 368.481 381.185 368.481 381.653C368.481 382.121 368.372 382.528 368.152 382.875C367.939 383.222 367.645 383.492 367.27 383.683C366.902 383.874 366.484 383.97 366.016 383.97H364.092ZM363.253 386.775V379.336H364.475V386.775H363.253ZM371.384 386.882C370.923 386.882 370.505 386.765 370.13 386.531C369.761 386.297 369.467 385.982 369.248 385.585C369.035 385.181 368.929 384.731 368.929 384.235C368.929 383.732 369.035 383.283 369.248 382.886C369.467 382.482 369.761 382.163 370.13 381.929C370.505 381.688 370.923 381.568 371.384 381.568C371.773 381.568 372.117 381.653 372.415 381.823C372.719 381.986 372.96 382.213 373.137 382.503C373.314 382.794 373.403 383.123 373.403 383.492V384.958C373.403 385.326 373.314 385.656 373.137 385.946C372.967 386.237 372.73 386.467 372.425 386.637C372.121 386.8 371.773 386.882 371.384 386.882ZM371.575 385.776C372.007 385.776 372.354 385.631 372.616 385.341C372.886 385.05 373.02 384.678 373.02 384.225C373.02 383.92 372.96 383.651 372.84 383.417C372.719 383.183 372.549 383.003 372.33 382.875C372.117 382.741 371.865 382.673 371.575 382.673C371.292 382.673 371.04 382.741 370.82 382.875C370.608 383.003 370.438 383.183 370.31 383.417C370.19 383.651 370.13 383.92 370.13 384.225C370.13 384.529 370.19 384.799 370.31 385.032C370.438 385.266 370.608 385.45 370.82 385.585C371.04 385.713 371.292 385.776 371.575 385.776ZM372.946 386.775V385.404L373.148 384.161L372.946 382.928V381.674H374.115V386.775H372.946ZM377.538 389.007C376.999 389.007 376.528 388.908 376.124 388.709C375.72 388.518 375.394 388.245 375.146 387.891L375.912 387.126C376.117 387.381 376.351 387.572 376.613 387.7C376.875 387.827 377.19 387.891 377.559 387.891C378.019 387.891 378.384 387.771 378.653 387.53C378.923 387.296 379.057 386.974 379.057 386.563V385.309L379.259 384.182L379.057 383.045V381.674H380.226V386.563C380.226 387.052 380.113 387.477 379.886 387.838C379.659 388.206 379.344 388.493 378.94 388.699C378.537 388.904 378.069 389.007 377.538 389.007ZM377.484 386.669C377.031 386.669 376.62 386.559 376.252 386.34C375.89 386.113 375.603 385.805 375.391 385.415C375.185 385.025 375.083 384.59 375.083 384.108C375.083 383.626 375.185 383.194 375.391 382.811C375.603 382.429 375.89 382.128 376.252 381.908C376.62 381.681 377.031 381.568 377.484 381.568C377.888 381.568 378.242 381.65 378.547 381.812C378.852 381.975 379.089 382.202 379.259 382.493C379.429 382.776 379.514 383.109 379.514 383.492V384.746C379.514 385.121 379.426 385.454 379.249 385.744C379.078 386.035 378.841 386.262 378.537 386.425C378.232 386.588 377.881 386.669 377.484 386.669ZM377.718 385.564C378.002 385.564 378.25 385.504 378.462 385.383C378.675 385.263 378.838 385.096 378.951 384.884C379.071 384.664 379.132 384.409 379.132 384.119C379.132 383.828 379.071 383.577 378.951 383.364C378.838 383.144 378.675 382.974 378.462 382.854C378.25 382.733 378.002 382.673 377.718 382.673C377.435 382.673 377.183 382.733 376.964 382.854C376.751 382.974 376.585 383.144 376.464 383.364C376.344 383.577 376.284 383.828 376.284 384.119C376.284 384.402 376.344 384.653 376.464 384.873C376.585 385.093 376.751 385.263 376.964 385.383C377.183 385.504 377.435 385.564 377.718 385.564ZM383.895 386.882C383.384 386.882 382.924 386.768 382.513 386.541C382.109 386.308 381.787 385.989 381.546 385.585C381.312 385.181 381.195 384.728 381.195 384.225C381.195 383.722 381.312 383.272 381.546 382.875C381.78 382.471 382.095 382.153 382.492 381.919C382.896 381.685 383.342 381.568 383.831 381.568C384.305 381.568 384.723 381.678 385.085 381.897C385.453 382.117 385.74 382.418 385.946 382.801C386.158 383.183 386.264 383.619 386.264 384.108C386.264 384.193 386.257 384.281 386.243 384.374C386.236 384.459 386.222 384.554 386.201 384.66H382.014V383.704H385.595L385.159 384.087C385.145 383.775 385.085 383.513 384.979 383.3C384.872 383.088 384.72 382.925 384.522 382.811C384.33 382.698 384.093 382.641 383.81 382.641C383.512 382.641 383.253 382.705 383.034 382.833C382.814 382.96 382.644 383.141 382.524 383.375C382.403 383.601 382.343 383.874 382.343 384.193C382.343 384.512 382.407 384.792 382.534 385.032C382.662 385.273 382.843 385.461 383.076 385.596C383.31 385.723 383.579 385.787 383.884 385.787C384.146 385.787 384.387 385.741 384.607 385.649C384.833 385.557 385.025 385.422 385.18 385.245L385.924 385.999C385.676 386.29 385.375 386.51 385.021 386.658C384.667 386.807 384.291 386.882 383.895 386.882ZM391.561 386.882C390.973 386.882 390.473 386.775 390.062 386.563C389.651 386.35 389.283 386.038 388.957 385.628L389.786 384.799C389.991 385.096 390.236 385.33 390.519 385.5C390.803 385.663 391.164 385.744 391.603 385.744C392.014 385.744 392.34 385.659 392.581 385.489C392.829 385.319 392.953 385.086 392.953 384.788C392.953 384.54 392.889 384.338 392.761 384.182C392.634 384.026 392.464 383.899 392.251 383.8C392.046 383.693 391.816 383.601 391.561 383.523C391.313 383.438 391.061 383.346 390.806 383.247C390.558 383.141 390.328 383.01 390.115 382.854C389.91 382.698 389.743 382.496 389.616 382.248C389.488 382 389.425 381.685 389.425 381.302C389.425 380.863 389.531 380.491 389.743 380.187C389.963 379.875 390.257 379.637 390.625 379.475C390.994 379.312 391.405 379.23 391.858 379.23C392.347 379.23 392.783 379.326 393.165 379.517C393.555 379.708 393.87 379.953 394.111 380.25L393.282 381.079C393.07 380.838 392.847 380.661 392.613 380.548C392.386 380.427 392.124 380.367 391.826 380.367C391.458 380.367 391.167 380.442 390.955 380.59C390.749 380.739 390.647 380.948 390.647 381.217C390.647 381.444 390.71 381.628 390.838 381.77C390.966 381.905 391.132 382.021 391.337 382.121C391.55 382.213 391.78 382.301 392.028 382.386C392.283 382.471 392.535 382.567 392.783 382.673C393.038 382.78 393.268 382.918 393.474 383.088C393.686 383.251 393.856 383.463 393.984 383.725C394.111 383.987 394.175 384.317 394.175 384.714C394.175 385.38 393.938 385.907 393.463 386.297C392.995 386.687 392.361 386.882 391.561 386.882ZM397.965 386.882C397.575 386.882 397.228 386.8 396.924 386.637C396.619 386.467 396.378 386.237 396.201 385.946C396.031 385.656 395.946 385.326 395.946 384.958V383.492C395.946 383.123 396.035 382.794 396.212 382.503C396.389 382.213 396.63 381.986 396.934 381.823C397.239 381.653 397.583 381.568 397.965 381.568C398.426 381.568 398.84 381.688 399.209 381.929C399.584 382.163 399.878 382.482 400.091 382.886C400.31 383.283 400.42 383.732 400.42 384.235C400.42 384.731 400.31 385.181 400.091 385.585C399.878 385.982 399.584 386.297 399.209 386.531C398.84 386.765 398.426 386.882 397.965 386.882ZM395.234 388.901V381.674H396.403V383.045L396.201 384.289L396.403 385.521V388.901H395.234ZM397.774 385.776C398.057 385.776 398.305 385.713 398.518 385.585C398.737 385.45 398.907 385.266 399.028 385.032C399.155 384.799 399.219 384.529 399.219 384.225C399.219 383.92 399.155 383.651 399.028 383.417C398.907 383.183 398.737 383.003 398.518 382.875C398.305 382.741 398.057 382.673 397.774 382.673C397.49 382.673 397.239 382.741 397.019 382.875C396.8 383.003 396.63 383.183 396.509 383.417C396.389 383.651 396.329 383.92 396.329 384.225C396.329 384.529 396.389 384.799 396.509 385.032C396.63 385.266 396.8 385.45 397.019 385.585C397.239 385.713 397.49 385.776 397.774 385.776ZM403.768 386.882C403.258 386.882 402.798 386.768 402.387 386.541C401.983 386.308 401.661 385.989 401.42 385.585C401.186 385.181 401.069 384.728 401.069 384.225C401.069 383.722 401.186 383.272 401.42 382.875C401.654 382.471 401.969 382.153 402.366 381.919C402.769 381.685 403.216 381.568 403.705 381.568C404.179 381.568 404.597 381.678 404.959 381.897C405.327 382.117 405.614 382.418 405.819 382.801C406.032 383.183 406.138 383.619 406.138 384.108C406.138 384.193 406.131 384.281 406.117 384.374C406.11 384.459 406.096 384.554 406.074 384.66H401.887V383.704H405.469L405.033 384.087C405.019 383.775 404.959 383.513 404.852 383.3C404.746 383.088 404.594 382.925 404.395 382.811C404.204 382.698 403.967 382.641 403.683 382.641C403.386 382.641 403.127 382.705 402.908 382.833C402.688 382.96 402.518 383.141 402.397 383.375C402.277 383.601 402.217 383.874 402.217 384.193C402.217 384.512 402.281 384.792 402.408 385.032C402.536 385.273 402.716 385.461 402.95 385.596C403.184 385.723 403.453 385.787 403.758 385.787C404.02 385.787 404.261 385.741 404.48 385.649C404.707 385.557 404.898 385.422 405.054 385.245L405.798 385.999C405.55 386.29 405.249 386.51 404.895 386.658C404.541 386.807 404.165 386.882 403.768 386.882ZM409.445 386.882C408.935 386.882 408.474 386.768 408.064 386.541C407.66 386.308 407.337 385.989 407.096 385.585C406.863 385.181 406.746 384.728 406.746 384.225C406.746 383.722 406.863 383.272 407.096 382.875C407.33 382.471 407.646 382.153 408.042 381.919C408.446 381.685 408.892 381.568 409.381 381.568C409.856 381.568 410.274 381.678 410.635 381.897C411.004 382.117 411.291 382.418 411.496 382.801C411.709 383.183 411.815 383.619 411.815 384.108C411.815 384.193 411.808 384.281 411.794 384.374C411.787 384.459 411.772 384.554 411.751 384.66H407.564V383.704H411.145L410.71 384.087C410.696 383.775 410.635 383.513 410.529 383.3C410.423 383.088 410.27 382.925 410.072 382.811C409.881 382.698 409.643 382.641 409.36 382.641C409.062 382.641 408.804 382.705 408.584 382.833C408.365 382.96 408.195 383.141 408.074 383.375C407.954 383.601 407.894 383.874 407.894 384.193C407.894 384.512 407.957 384.792 408.085 385.032C408.212 385.273 408.393 385.461 408.627 385.596C408.861 385.723 409.13 385.787 409.434 385.787C409.697 385.787 409.937 385.741 410.157 385.649C410.384 385.557 410.575 385.422 410.731 385.245L411.475 385.999C411.227 386.29 410.926 386.51 410.572 386.658C410.217 386.807 409.842 386.882 409.445 386.882ZM414.888 386.882C414.427 386.882 414.009 386.765 413.634 386.531C413.266 386.297 412.972 385.982 412.752 385.585C412.539 385.181 412.433 384.731 412.433 384.235C412.433 383.732 412.539 383.283 412.752 382.886C412.972 382.482 413.266 382.163 413.634 381.929C414.009 381.688 414.427 381.568 414.888 381.568C415.278 381.568 415.621 381.653 415.919 381.823C416.223 381.986 416.464 382.213 416.641 382.503C416.819 382.794 416.907 383.123 416.907 383.492V384.958C416.907 385.326 416.819 385.656 416.641 385.946C416.471 386.237 416.234 386.467 415.929 386.637C415.625 386.8 415.278 386.882 414.888 386.882ZM415.079 385.776C415.37 385.776 415.621 385.713 415.834 385.585C416.053 385.45 416.223 385.266 416.344 385.032C416.464 384.799 416.525 384.529 416.525 384.225C416.525 383.92 416.464 383.651 416.344 383.417C416.223 383.183 416.053 383.003 415.834 382.875C415.621 382.741 415.37 382.673 415.079 382.673C414.796 382.673 414.544 382.741 414.325 382.875C414.112 383.003 413.942 383.183 413.815 383.417C413.694 383.651 413.634 383.92 413.634 384.225C413.634 384.529 413.694 384.799 413.815 385.032C413.942 385.266 414.112 385.45 414.325 385.585C414.544 385.713 414.796 385.776 415.079 385.776ZM417.619 386.775H416.45V385.404L416.652 384.161L416.45 382.928V379.124H417.619V386.775Z" fill="black"/>
</g>
</g>
<defs>
<filter id="filter0_d_3396_6111" x="77.1953" y="62.8765" width="335.812" height="341.128" filterUnits="userSpaceOnUse" color-interpolation-filters="sRGB">
<feFlood flood-opacity="0" result="BackgroundImageFix"/>
<feColorMatrix in="SourceAlpha" type="matrix" values="0 0 0 0 0 0 0 0 0 0 0 0 0 0 0 0 0 0 127 0" result="hardAlpha"/>
<feOffset dy="4"/>
<feGaussianBlur stdDeviation="12"/>
<feComposite in2="hardAlpha" operator="out"/>
<feColorMatrix type="matrix" values="0 0 0 0 0 0 0 0 0 0 0 0 0 0 0 0 0 0 0.15 0"/>
<feBlend mode="normal" in2="BackgroundImageFix" result="effect1_dropShadow_3396_6111"/>
<feBlend mode="normal" in="SourceGraphic" in2="effect1_dropShadow_3396_6111" result="shape"/>
</filter>
<filter id="filter1_d_3396_6111" x="77.1953" y="0" width="335.812" height="95.8215" filterUnits="userSpaceOnUse" color-interpolation-filters="sRGB">
<feFlood flood-opacity="0" result="BackgroundImageFix"/>
<feColorMatrix in="SourceAlpha" type="matrix" values="0 0 0 0 0 0 0 0 0 0 0 0 0 0 0 0 0 0 127 0" result="hardAlpha"/>
<feOffset dy="4"/>
<feGaussianBlur stdDeviation="12"/>
<feComposite in2="hardAlpha" operator="out"/>
<feColorMatrix type="matrix" values="0 0 0 0 0 0 0 0 0 0 0 0 0 0 0 0 0 0 0.15 0"/>
<feBlend mode="normal" in2="BackgroundImageFix" result="effect1_dropShadow_3396_6111"/>
<feBlend mode="normal" in="SourceGraphic" in2="effect1_dropShadow_3396_6111" result="shape"/>
</filter>
<filter id="filter2_d_3396_6111" x="0" y="239" width="202.977" height="176.41" filterUnits="userSpaceOnUse" color-interpolation-filters="sRGB">
<feFlood flood-opacity="0" result="BackgroundImageFix"/>
<feColorMatrix in="SourceAlpha" type="matrix" values="0 0 0 0 0 0 0 0 0 0 0 0 0 0 0 0 0 0 127 0" result="hardAlpha"/>
<feOffset dy="4"/>
<feGaussianBlur stdDeviation="12"/>
<feComposite in2="hardAlpha" operator="out"/>
<feColorMatrix type="matrix" values="0 0 0 0 0 0 0 0 0 0 0 0 0 0 0 0 0 0 0.15 0"/>
<feBlend mode="normal" in2="BackgroundImageFix" result="effect1_dropShadow_3396_6111"/>
<feBlend mode="normal" in="SourceGraphic" in2="effect1_dropShadow_3396_6111" result="shape"/>
</filter>
<filter id="filter3_d_3396_6111" x="309.219" y="270.103" width="163.125" height="156.927" filterUnits="userSpaceOnUse" color-interpolation-filters="sRGB">
<feFlood flood-opacity="0" result="BackgroundImageFix"/>
<feColorMatrix in="SourceAlpha" type="matrix" values="0 0 0 0 0 0 0 0 0 0 0 0 0 0 0 0 0 0 127 0" result="hardAlpha"/>
<feOffset dy="4"/>
<feGaussianBlur stdDeviation="12"/>
<feComposite in2="hardAlpha" operator="out"/>
<feColorMatrix type="matrix" values="0 0 0 0 0 0 0 0 0 0 0 0 0 0 0 0 0 0 0.15 0"/>
<feBlend mode="normal" in2="BackgroundImageFix" result="effect1_dropShadow_3396_6111"/>
<feBlend mode="normal" in="SourceGraphic" in2="effect1_dropShadow_3396_6111" result="shape"/>
</filter>
<linearGradient id="paint0_linear_3396_6111" x1="246.211" y1="248.037" x2="246.432" y2="390.173" gradientUnits="userSpaceOnUse">
<stop stop-color="#EEE6FF"/>
<stop offset="1" stop-color="white"/>
</linearGradient>
<linearGradient id="paint1_linear_3396_6111" x1="353.584" y1="354.75" x2="432.401" y2="360.949" gradientUnits="userSpaceOnUse">
<stop stop-color="#FC8081"/>
<stop offset="0.576923" stop-color="#FDD87E"/>
<stop offset="0.894231" stop-color="#38DCAC"/>
</linearGradient>
<clipPath id="clip0_3396_6111">
<rect x="333.219" y="290.103" width="115.126" height="108.927" rx="10.627" fill="white"/>
</clipPath>
</defs>
</svg>
