<svg width="452" height="382" viewBox="0 0 452 382" fill="none" xmlns="http://www.w3.org/2000/svg">
<g opacity="0.09">
<path d="M234.531 381.802C331.423 381.802 409.969 303.256 409.969 206.364C409.969 109.473 331.423 30.9268 234.531 30.9268C137.64 30.9268 59.0938 109.473 59.0938 206.364C59.0938 303.256 137.64 381.802 234.531 381.802Z" fill="#078999"/>
<path d="M400.141 178.806L400.147 178.841C400.186 178.879 400.18 178.863 400.141 178.806Z" fill="#74C15D"/>
<path d="M255.343 32.1489C255.18 32.1287 255.016 32.1301 254.854 32.1489L253.27 32.3425L253.037 34.4424C253.004 34.7462 253.043 35.0541 253.15 35.3404L259.115 51.1731C259.388 51.8964 259.205 52.7124 258.65 53.2501L257.083 54.7706L249.252 62.9068C248.725 63.4539 247.929 63.6435 247.212 63.3921L237.66 60.0446C237.518 59.9949 237.37 59.9612 237.219 59.9451L225.127 58.6908C225.041 58.6814 224.955 58.6787 224.869 58.6814L217.483 58.9032C217.12 58.914 216.768 59.0269 216.465 59.2285L203.319 67.9925C202.661 68.4308 202.334 69.2239 202.494 69.9983L203.465 74.705C203.55 75.1163 203.766 75.4901 204.082 75.7684L218.03 88.0693C218.798 88.7469 218.908 89.9031 218.281 90.7124L211.222 99.8299C210.942 100.19 210.546 100.44 210.101 100.538L206.554 101.311C205.662 101.506 204.756 101.052 204.377 100.221L199.503 89.5347C199.48 89.4836 199.455 89.4339 199.427 89.3841L196.625 84.4328C196.009 83.3452 194.542 83.114 193.623 83.9609L185.972 90.9987C185.82 91.1385 185.696 91.2931 185.596 91.4733C184.93 92.6617 182.388 97.453 183.42 99.6013C184.329 101.49 187.458 104.983 188.868 106.511C189.307 106.987 189.476 107.643 189.326 108.274L189.087 109.279C188.888 110.114 189.26 110.98 190.004 111.409L199.037 116.63C200.179 117.291 200.343 118.874 199.361 119.755L195.125 123.551C194.9 123.753 194.631 123.898 194.341 123.979L182.898 127.104C182.138 127.312 181.58 127.953 181.483 128.734C181.046 132.264 179.964 141.879 181.049 142.593C182.048 143.25 183.908 141.445 184.777 140.501C185.092 140.16 185.515 139.938 185.977 139.887L199.962 138.343C200.494 138.284 200.979 138.007 201.301 137.58L210.152 125.782C210.32 125.558 210.534 125.374 210.778 125.24L219.362 120.584C219.928 120.278 220.61 120.271 221.181 120.568L237.816 129.207C238.23 129.422 238.553 129.778 238.725 130.211L241.14 136.28C241.77 137.865 243.992 137.923 244.705 136.374L246.525 132.417C246.876 131.655 246.697 130.754 246.082 130.184L234.078 119.05C232.571 117.652 233.986 115.179 235.954 115.77L243.611 118.069C244.027 118.194 244.389 118.455 244.639 118.81L251.849 129.05C251.889 129.106 251.932 129.161 251.978 129.214L254.351 131.913C255.343 133.041 257.183 132.663 257.651 131.236C258.24 129.438 260.789 129.458 261.348 131.265C262.426 134.754 263.611 138.63 263.733 139.219C263.936 140.203 270.766 139.443 272.251 139.266C272.441 139.243 272.619 139.193 272.796 139.116L279.282 136.277C279.46 136.199 279.624 136.096 279.77 135.969L283.655 132.62C284.466 131.921 285.689 132.011 286.39 132.821L293.153 140.645C293.671 141.245 293.773 142.098 293.41 142.803L290.661 148.14C290.354 148.734 289.774 149.128 289.107 149.184C283.936 149.615 261.605 151.514 260.782 152.313C260.167 152.91 259.759 155.601 259.553 157.351C259.447 158.256 258.731 158.961 257.823 159.048C253.025 159.511 238.858 160.805 238.109 160.033C237.319 159.217 231.378 154.237 229.924 153.02C229.711 152.842 229.54 152.623 229.421 152.373L223.246 139.533C222.819 138.645 221.793 138.218 220.861 138.541L172.199 155.442C171.71 155.613 171.312 155.963 171.089 156.431C168.928 160.958 157.307 185.246 156.303 185.73C155.281 186.222 158.305 217.64 158.782 222.536C158.823 222.955 158.999 223.341 159.284 223.652L183.75 250.294C184.284 250.877 185.118 251.076 185.858 250.8L225.275 236.07C226.262 235.701 227.363 236.187 227.755 237.164L229 240.266C229.218 240.809 229.66 241.221 230.218 241.393C233.108 242.287 242.206 245.166 242.653 246.097C243.128 247.083 245.306 259.842 245.782 262.653C245.842 263.012 245.997 263.336 246.239 263.608C249.218 266.953 269.419 289.733 268.543 291.417C267.598 293.236 265.064 303.099 266.321 304.768C267.579 306.438 274.729 318.466 276.342 320.874C277.614 322.772 283.607 328.615 286.09 331.005C286.726 331.618 287.694 331.722 288.447 331.259L307.631 319.507C307.811 319.396 307.966 319.265 308.101 319.102C310.778 315.892 339.616 281.237 338.769 279.475C337.881 277.628 331.676 263.781 330.418 262.112C329.16 260.442 339.544 229.064 339.572 227.23C339.597 225.604 359.255 196.967 363.668 190.557C364.182 189.811 364.105 188.819 363.492 188.152L359.236 183.525C358.49 182.714 357.218 182.686 356.438 183.465L345.357 194.513C344.912 194.956 344.278 195.157 343.66 195.052L326.502 192.116C326.055 192.039 325.658 191.818 325.363 191.474C322.252 187.838 303.97 166.449 303.482 165.435C303.219 164.888 299.964 160.891 296.739 156.988L296.747 156.998L300.236 155.32C300.994 154.956 301.901 155.121 302.482 155.731L329.607 184.234C330.056 184.705 330.711 184.92 331.352 184.806L341.099 183.073C341.539 182.995 341.931 182.776 342.223 182.437C344.293 180.031 352.947 170.001 353.596 169.687C354.336 169.332 359.495 151.686 359.495 151.686L361.564 143.81C361.796 142.932 362.604 142.331 363.511 142.363L378.384 142.906C379.103 142.933 379.75 143.355 380.062 144.005L391.307 167.387C391.369 167.515 391.442 167.632 391.529 167.743C391.974 168.309 393.508 170.257 395.161 172.369C396.418 173.973 398.982 172.806 398.595 170.806L391.853 135.988C391.798 135.706 391.807 135.414 391.879 135.136L392.766 131.69C392.72 131.221 392.677 130.791 392.631 130.322C365.677 74.2748 312.83 39.0711 255.343 32.1489Z" fill="#74C15D"/>
<path d="M130.489 347.651C129.974 343.9 128.677 333.948 129.286 332.918C130.039 331.647 134.977 332.456 134.977 332.456C134.977 332.456 128.716 322.275 118.492 302.627C108.27 282.979 117.386 295.881 118.167 292.775C118.948 289.67 122.863 285.513 123.082 283.134C123.302 280.753 114.823 271.638 111.91 270.31C108.997 268.981 92.7098 254.98 91.274 252.94C89.8382 250.901 86.9451 236.371 86.9451 236.371L73.1532 227.556L65.5051 211.655C65.5051 211.655 62.6456 207.299 59.1113 201.891C58.4015 228.867 63.9228 256.41 76.4241 282.402C89.3072 309.185 108.106 331.199 130.489 347.651Z" fill="#74C15D"/>
<path d="M75.3125 132.667C79.1668 129.979 84.9664 126.326 84.9664 126.326L91.3455 116.89L104.832 122.231C104.832 122.231 105.729 135.446 105.963 132.15C106.197 128.853 109.092 119.74 109.092 119.74C109.092 119.74 111.389 113.163 114.947 108.267C118.506 103.371 122.996 97.5725 125.76 96.6987C128.524 95.8249 131.471 83.0345 131.471 83.0345L131.91 78.2741C133.935 77.7552 138.78 72.695 138.78 72.695L141.367 71.4514C141.367 71.4514 149.551 63.8759 151.974 61.3458C154.396 58.8157 156.449 56.4644 156.449 56.4644L147.137 77.774L144.894 84.4622C144.894 84.4622 157.01 75.6028 170.386 72.2016C183.763 68.8017 188.01 67.2274 188.01 67.2274L192.184 61.7195L193.402 50.0638C193.402 50.0638 198.055 45.5508 198.645 42.9938C199.011 41.4088 195.6 38.1487 192.953 35.8955C181.288 38.7523 169.741 42.8472 158.486 48.2597C120.307 66.6224 91.7985 96.9971 75.3125 132.667Z" fill="#74C15D"/>
<path d="M350.523 266.09C352.229 274.367 342.931 294.76 342.931 294.76C342.931 294.76 337.286 316.126 344.937 307.443C352.588 298.759 352.439 296.556 352.439 296.556L355.792 293.124L358.86 284.369C358.86 284.369 360.712 271.196 361.344 265.888C361.344 265.888 348.816 257.813 350.523 266.09Z" fill="#74C15D"/>
<g opacity="0.5">
<path d="M392.637 130.326C362.346 67.3422 299.361 30.6799 233.838 30.895C278.806 38.9854 319.391 67.7912 340.708 112.114C375.998 185.488 345.123 273.577 271.749 308.866C198.375 344.156 110.286 313.281 74.9964 239.907C66.2244 221.668 61.5446 202.52 60.5847 183.5C56.2572 216.191 61.0714 250.467 76.4308 282.404C118.426 369.722 223.255 406.462 310.573 364.468C397.891 322.474 434.633 217.643 392.637 130.326Z" fill="#005479"/>
</g>
</g>
<path d="M190.016 109H184.64V94.4545H190.009C191.491 94.4545 192.767 94.7457 193.837 95.3281C194.912 95.9058 195.741 96.7391 196.323 97.8281C196.906 98.9124 197.197 100.21 197.197 101.72C197.197 103.235 196.906 104.537 196.323 105.626C195.746 106.715 194.919 107.551 193.844 108.134C192.77 108.711 191.494 109 190.016 109ZM188.156 106.003H189.881C190.696 106.003 191.385 105.866 191.948 105.591C192.516 105.312 192.945 104.859 193.234 104.234C193.527 103.605 193.674 102.767 193.674 101.72C193.674 100.674 193.527 99.8404 193.234 99.2202C192.94 98.5952 192.507 98.1454 191.934 97.8707C191.366 97.5914 190.665 97.4517 189.832 97.4517H188.156V106.003ZM202.765 94.4545V109H199.249V94.4545H202.765ZM214.517 99.206C214.437 98.9077 214.319 98.6449 214.162 98.4176C214.006 98.1856 213.814 97.9891 213.587 97.8281C213.36 97.6671 213.099 97.5464 212.806 97.4659C212.512 97.3807 212.19 97.3381 211.84 97.3381C211.134 97.3381 210.524 97.5085 210.007 97.8494C209.496 98.1903 209.101 98.6875 208.821 99.3409C208.542 99.9896 208.402 100.778 208.402 101.706C208.402 102.639 208.537 103.434 208.807 104.092C209.077 104.75 209.468 105.252 209.979 105.598C210.49 105.944 211.111 106.116 211.84 106.116C212.484 106.116 213.028 106.012 213.473 105.804C213.923 105.591 214.264 105.29 214.496 104.902C214.728 104.514 214.844 104.057 214.844 103.531L215.498 103.609H211.961V101.045H218.232V102.97C218.232 104.272 217.955 105.387 217.401 106.315C216.852 107.243 216.094 107.956 215.128 108.453C214.167 108.95 213.061 109.199 211.811 109.199C210.424 109.199 209.205 108.898 208.154 108.297C207.103 107.696 206.283 106.839 205.696 105.726C205.109 104.608 204.816 103.283 204.816 101.749C204.816 100.555 204.993 99.4972 205.348 98.5739C205.703 97.6458 206.198 96.8598 206.833 96.2159C207.472 95.572 208.211 95.0843 209.049 94.7528C209.891 94.4214 210.798 94.2557 211.769 94.2557C212.612 94.2557 213.395 94.3764 214.12 94.6179C214.849 94.8594 215.493 95.2003 216.051 95.6406C216.615 96.081 217.072 96.6042 217.422 97.2102C217.773 97.8163 217.99 98.4815 218.076 99.206H214.517ZM223.82 94.4545V109H220.304V94.4545H223.82ZM225.551 97.3097V94.4545H237.845V97.3097H233.434V109H229.968V97.3097H225.551ZM240.892 109H237.113L242.021 94.4545H246.701L251.609 109H247.831L244.414 98.1193H244.301L240.892 109ZM240.387 103.276H248.285V105.946H240.387V103.276ZM253.175 109V94.4545H256.691V106.145H262.742V109H253.175ZM163.253 122.455H167.607L171.3 131.46H171.471L175.164 122.455H179.517V137H176.094V128.065H175.973L172.479 136.908H170.292L166.797 128.016H166.676V137H163.253V122.455ZM184.857 137H181.078L185.986 122.455H190.666L195.574 137H191.795L188.379 126.119H188.266L184.857 137ZM184.352 131.276H192.25V133.946H184.352V131.276ZM197.14 137V122.455H203.148C204.237 122.455 205.177 122.651 205.968 123.044C206.763 123.432 207.377 123.991 207.808 124.72C208.238 125.445 208.454 126.304 208.454 127.298C208.454 128.307 208.234 129.164 207.793 129.869C207.353 130.57 206.728 131.105 205.918 131.474C205.109 131.839 204.15 132.021 203.042 132.021H199.242V129.251H202.388C202.919 129.251 203.362 129.183 203.717 129.045C204.076 128.903 204.349 128.69 204.533 128.406C204.718 128.117 204.81 127.748 204.81 127.298C204.81 126.848 204.718 126.477 204.533 126.183C204.349 125.885 204.076 125.662 203.717 125.516C203.357 125.364 202.914 125.288 202.388 125.288H200.656V137H197.14ZM205.329 130.352L208.951 137H205.116L201.565 130.352H205.329ZM210.382 137V122.455H213.898V128.605H214.089L218.898 122.455H223.038L217.882 128.946L223.131 137H218.926L215.304 131.283L213.898 133.058V137H210.382ZM224.425 137V122.455H234.567V125.31H227.941V128.293H234.049V131.155H227.941V134.145H234.567V137H224.425ZM236.293 125.31V122.455H248.587V125.31H244.176V137H240.711V125.31H236.293ZM253.82 122.455V137H250.304V122.455H253.82ZM268.406 122.455V137H265.423L259.635 128.605H259.542V137H256.027V122.455H259.052L264.777 130.835H264.897V122.455H268.406ZM280.162 127.206C280.081 126.908 279.963 126.645 279.807 126.418C279.651 126.186 279.459 125.989 279.232 125.828C279.004 125.667 278.744 125.546 278.45 125.466C278.157 125.381 277.835 125.338 277.484 125.338C276.779 125.338 276.168 125.509 275.652 125.849C275.141 126.19 274.745 126.687 274.466 127.341C274.187 127.99 274.047 128.778 274.047 129.706C274.047 130.639 274.182 131.434 274.452 132.092C274.722 132.75 275.112 133.252 275.624 133.598C276.135 133.944 276.755 134.116 277.484 134.116C278.128 134.116 278.673 134.012 279.118 133.804C279.568 133.591 279.909 133.29 280.141 132.902C280.373 132.514 280.489 132.057 280.489 131.531L281.142 131.609H277.605V129.045H283.876V130.97C283.876 132.272 283.599 133.387 283.045 134.315C282.496 135.243 281.739 135.956 280.773 136.453C279.812 136.95 278.706 137.199 277.456 137.199C276.069 137.199 274.849 136.898 273.798 136.297C272.747 135.696 271.928 134.839 271.341 133.726C270.754 132.608 270.46 131.283 270.46 129.749C270.46 128.555 270.638 127.497 270.993 126.574C271.348 125.646 271.843 124.86 272.477 124.216C273.116 123.572 273.855 123.084 274.693 122.753C275.536 122.421 276.443 122.256 277.413 122.256C278.256 122.256 279.04 122.376 279.764 122.618C280.493 122.859 281.137 123.2 281.696 123.641C282.259 124.081 282.716 124.604 283.067 125.21C283.417 125.816 283.635 126.482 283.72 127.206H280.162Z" fill="#0E59AE"/>
<g filter="url(#filter0_d_3252_4240)">
<rect x="24" y="235.231" width="56.4541" height="56.4541" rx="28.2271" fill="#EAF2FF" shape-rendering="crispEdges"/>
<g clip-path="url(#clip0_3252_4240)">
<path d="M35.0556 270.61L47.0076 250.366C48.5258 251.251 56.1814 255.442 57.4178 256.239L45.4658 276.485C44.1587 278.193 33.3996 273.203 35.0556 270.609V270.61Z" fill="#FBBC04"/>
<path d="M69.3945 270.61L57.4425 250.367C55.7716 247.616 52.173 246.616 49.2172 248.241C46.2614 249.866 45.3614 253.366 47.0323 256.24L58.9843 276.486C60.6552 279.236 64.2539 280.235 67.2097 278.61C70.0363 276.985 71.0654 273.361 69.3945 270.612V270.61Z" fill="#4285F4"/>
<path d="M40.2262 279.393C43.5397 279.393 46.2258 276.801 46.2258 273.605C46.2258 270.408 43.5397 267.816 40.2262 267.816C36.9127 267.816 34.2266 270.408 34.2266 273.605C34.2266 276.801 36.9127 279.393 40.2262 279.393Z" fill="#34A853"/>
</g>
</g>
<g filter="url(#filter1_d_3252_4240)">
<rect x="29" y="150.843" width="56.4541" height="56.4541" rx="28.2271" fill="#EAF2FF" shape-rendering="crispEdges"/>
<g clip-path="url(#clip1_3252_4240)">
<path d="M65.7266 163.07H48.7266C44.5844 163.07 41.2266 166.428 41.2266 170.57V187.57C41.2266 191.712 44.5844 195.07 48.7266 195.07H65.7266C69.8687 195.07 73.2266 191.712 73.2266 187.57V170.57C73.2266 166.428 69.8687 163.07 65.7266 163.07Z" fill="url(#paint0_radial_3252_4240)"/>
<path d="M65.7266 163.07H48.7266C44.5844 163.07 41.2266 166.428 41.2266 170.57V187.57C41.2266 191.712 44.5844 195.07 48.7266 195.07H65.7266C69.8687 195.07 73.2266 191.712 73.2266 187.57V170.57C73.2266 166.428 69.8687 163.07 65.7266 163.07Z" fill="url(#paint1_radial_3252_4240)"/>
<path d="M57.2277 166.57C53.8329 166.57 53.4068 166.585 52.0736 166.645C50.7428 166.706 49.8344 166.917 49.0397 167.226C48.2174 167.545 47.5201 167.972 46.8253 168.667C46.1299 169.362 45.7028 170.06 45.3826 170.882C45.0726 171.677 44.8617 172.585 44.8018 173.915C44.7422 175.249 44.7266 175.675 44.7266 179.07C44.7266 182.465 44.7416 182.89 44.8021 184.223C44.8633 185.554 45.0739 186.462 45.3828 187.257C45.7023 188.079 46.1294 188.776 46.8244 189.471C47.5191 190.166 48.2164 190.595 49.0381 190.914C49.8334 191.223 50.7419 191.434 52.0724 191.495C53.4058 191.555 53.8316 191.57 57.2262 191.57C60.6213 191.57 61.0461 191.555 62.3793 191.495C63.7101 191.434 64.6194 191.223 65.4148 190.914C66.2367 190.595 66.9331 190.166 67.6276 189.471C68.3229 188.776 68.7499 188.079 69.0703 187.257C69.3776 186.462 69.5886 185.553 69.6511 184.223C69.7109 182.89 69.7266 182.465 69.7266 179.07C69.7266 175.675 69.7109 175.249 69.6511 173.916C69.5886 172.585 69.3776 171.677 69.0703 170.882C68.7499 170.06 68.3229 169.362 67.6276 168.667C66.9323 167.972 66.2369 167.545 65.4141 167.226C64.6172 166.917 63.7083 166.706 62.3776 166.645C61.0442 166.585 60.6197 166.57 57.2238 166.57H57.2277ZM56.1063 168.822C56.4392 168.822 56.8106 168.822 57.2277 168.822C60.5653 168.822 60.9608 168.834 62.2788 168.894C63.4976 168.95 64.1591 169.154 64.5997 169.325C65.1831 169.551 65.5989 169.822 66.0362 170.26C66.4737 170.697 66.7444 171.114 66.9716 171.697C67.1427 172.137 67.3466 172.799 67.4021 174.018C67.4619 175.335 67.4749 175.731 67.4749 179.067C67.4749 182.403 67.4619 182.799 67.4021 184.117C67.3463 185.335 67.1427 185.997 66.9716 186.437C66.7451 187.02 66.4737 187.436 66.0362 187.873C65.5987 188.31 65.1833 188.581 64.5997 188.808C64.1596 188.98 63.4976 189.183 62.2788 189.239C60.9611 189.298 60.5653 189.311 57.2277 189.311C53.8899 189.311 53.4943 189.298 52.1767 189.239C50.9579 189.182 50.2964 188.979 49.8554 188.808C49.2722 188.581 48.8554 188.31 48.4179 187.873C47.9804 187.435 47.7097 187.02 47.4826 186.436C47.3114 185.996 47.1076 185.334 47.0521 184.116C46.9922 182.798 46.9802 182.402 46.9802 179.064C46.9802 175.726 46.9922 175.332 47.0521 174.014C47.1078 172.796 47.3114 172.134 47.4826 171.694C47.7092 171.11 47.9804 170.694 48.4181 170.256C48.8557 169.819 49.2722 169.548 49.8556 169.321C50.2962 169.149 50.9579 168.946 52.1767 168.89C53.3298 168.838 53.7767 168.822 56.1063 168.819V168.822ZM63.9002 170.898C63.0721 170.898 62.4002 171.569 62.4002 172.397C62.4002 173.226 63.0721 173.897 63.9002 173.897C64.7283 173.897 65.4002 173.226 65.4002 172.397C65.4002 171.569 64.7283 170.897 63.9002 170.897V170.898ZM57.2277 172.651C53.6827 172.651 50.8084 175.525 50.8084 179.07C50.8084 182.615 53.6827 185.488 57.2277 185.488C60.7728 185.488 63.6461 182.615 63.6461 179.07C63.6461 175.525 60.7726 172.651 57.2274 172.651H57.2277ZM57.2277 174.903C59.5288 174.903 61.3944 176.769 61.3944 179.07C61.3944 181.371 59.5288 183.237 57.2277 183.237C54.9266 183.237 53.0611 181.371 53.0611 179.07C53.0611 176.769 54.9264 174.903 57.2277 174.903Z" fill="white"/>
</g>
</g>
<g filter="url(#filter2_d_3252_4240)">
<rect x="70.75" y="65.8691" width="56.4541" height="56.4541" rx="28.2271" fill="#EAF2FF" shape-rendering="crispEdges"/>
<path d="M108.31 82.0962C109.017 82.0962 109.695 82.3771 110.196 82.8772C110.696 83.3773 110.977 84.0556 110.977 84.7629V103.43C110.977 104.137 110.696 104.815 110.196 105.315C109.695 105.815 109.017 106.096 108.31 106.096H89.6432C88.936 106.096 88.2577 105.815 87.7576 105.315C87.2575 104.815 86.9766 104.137 86.9766 103.43V84.7629C86.9766 84.0556 87.2575 83.3773 87.7576 82.8772C88.2577 82.3771 88.936 82.0962 89.6432 82.0962H108.31ZM107.643 102.763V95.6962C107.643 94.5434 107.185 93.4378 106.37 92.6226C105.555 91.8075 104.449 91.3495 103.297 91.3495C102.163 91.3495 100.843 92.0429 100.203 93.0829V91.6029H96.4832V102.763H100.203V96.1895C100.203 95.1629 101.03 94.3229 102.057 94.3229C102.552 94.3229 103.026 94.5195 103.376 94.8696C103.727 95.2197 103.923 95.6945 103.923 96.1895V102.763H107.643ZM92.1499 89.5095C92.744 89.5095 93.3137 89.2735 93.7338 88.8534C94.1539 88.4334 94.3899 87.8636 94.3899 87.2695C94.3899 86.0295 93.3899 85.0162 92.1499 85.0162C91.5523 85.0162 90.9791 85.2536 90.5565 85.6762C90.134 86.0988 89.8966 86.6719 89.8966 87.2695C89.8966 88.5095 90.9099 89.5095 92.1499 89.5095ZM94.0032 102.763V91.6029H90.3099V102.763H94.0032Z" fill="#0E59AE"/>
</g>
<g filter="url(#filter3_d_3252_4240)">
<rect x="155.434" y="20" width="56.4541" height="56.4541" rx="28.2271" fill="#EAF2FF" shape-rendering="crispEdges"/>
<path d="M186.766 42.5604H190.099C190.388 42.5604 190.627 42.4658 190.816 42.2764C191.006 42.0871 191.1 41.8484 191.099 41.5604C191.098 41.2724 191.003 41.0338 190.815 40.8444C190.627 40.6551 190.388 40.5604 190.099 40.5604H186.766C186.477 40.5604 186.238 40.6551 186.05 40.8444C185.861 41.0338 185.767 41.2724 185.766 41.5604C185.765 41.8484 185.859 42.0875 186.05 42.2778C186.24 42.468 186.479 42.5622 186.766 42.5604ZM172.432 62.8938C171.699 62.8938 171.071 62.6329 170.55 62.1111C170.028 61.5893 169.767 60.9613 169.766 60.2271V49.5604C169.766 48.8271 170.027 48.1995 170.55 47.6778C171.072 47.156 171.7 46.8946 172.432 46.8938H188.432C189.166 46.8938 189.794 47.1551 190.316 47.6778C190.839 48.2004 191.1 48.828 191.099 49.5604V60.2271C191.099 60.9604 190.838 61.5884 190.316 62.1111C189.795 62.6338 189.167 62.8946 188.432 62.8938H172.432ZM193.099 50.8938V49.5604C193.099 48.716 192.894 47.9106 192.483 47.1444C192.072 46.3782 191.522 45.6391 190.832 44.9271H191.099C192.21 44.9271 193.155 44.6435 193.932 44.0764C194.71 43.5093 195.099 42.6706 195.099 41.5604C195.099 40.4502 194.71 39.5058 193.932 38.7271C193.155 37.9484 192.21 37.5595 191.099 37.5604H190.432C190.143 37.5604 189.905 37.6551 189.716 37.8444C189.528 38.0338 189.433 38.2724 189.432 38.5604C189.431 38.8484 189.526 39.0875 189.716 39.2778C189.907 39.468 190.145 39.5622 190.432 39.5604H191.099C191.655 39.5604 192.127 39.7551 192.516 40.1444C192.906 40.5338 193.1 41.0058 193.099 41.5604C193.098 42.1151 192.904 42.5875 192.516 42.9778C192.129 43.368 191.656 43.5622 191.099 43.5604H190.432C190.143 43.5604 189.905 43.6551 189.716 43.8444C189.528 44.0338 189.433 44.2724 189.432 44.5604C189.431 44.8484 189.526 44.9818 189.716 44.9604C189.907 44.9391 190.145 44.928 190.432 44.9271H189.432C189.255 44.9271 189.088 44.9218 188.932 44.9111C188.777 44.9004 188.61 44.8946 188.432 44.8938H187.432V44.5604C187.432 44.2715 187.338 44.0329 187.148 43.8444C186.959 43.656 186.72 43.5613 186.432 43.5604H185.766C185.21 43.5604 184.738 43.3662 184.35 42.9778C183.961 42.5893 183.767 42.1169 183.766 41.5604C183.765 41.004 183.959 40.532 184.35 40.1444C184.74 39.7569 185.212 39.5622 185.766 39.5604H186.432C186.721 39.5604 186.96 39.4658 187.15 39.2764C187.339 39.0871 187.433 38.8484 187.432 38.5604C187.431 38.2724 187.337 38.0338 187.148 37.8444C186.96 37.6551 186.721 37.5604 186.432 37.5604H185.766C184.655 37.5604 183.71 37.9493 182.932 38.7271C182.155 39.5049 181.766 40.4493 181.766 41.5604C181.766 42.2715 181.932 42.9106 182.266 43.4778C182.599 44.0449 183.032 44.5169 183.566 44.8938H177.766V36.2271C177.766 35.4938 178.027 34.8662 178.55 34.3444C179.072 33.8226 179.7 33.5613 180.432 33.5604H196.432C197.166 33.5604 197.794 33.8218 198.316 34.3444C198.839 34.8671 199.1 35.4946 199.099 36.2271V48.2271C199.099 48.9604 198.838 49.5884 198.316 50.1111C197.795 50.6338 197.167 50.8946 196.432 50.8938H193.099ZM182.866 55.4604C183.088 55.3271 183.199 55.1382 183.199 54.8938C183.199 54.6493 183.088 54.4604 182.866 54.3271L179.466 52.1938C179.243 52.0604 179.015 52.0551 178.782 52.1778C178.548 52.3004 178.431 52.4946 178.432 52.7604V57.0271C178.432 57.2938 178.549 57.4884 178.783 57.6111C179.017 57.7338 179.244 57.728 179.466 57.5938L182.866 55.4604Z" fill="#2C7DFF"/>
</g>
<g filter="url(#filter4_d_3252_4240)">
<rect x="240.113" y="20" width="56.4541" height="56.4541" rx="28.2271" fill="#EAF2FF" shape-rendering="crispEdges"/>
<g clip-path="url(#clip2_3252_4240)">
<path d="M274.488 54.9623H261.738V62.1565H274.488V54.9623Z" fill="#BED7FF"/>
<path d="M261.738 56.2064H269.325L261.738 60.0516V56.2064Z" fill="#0E59AE"/>
<path d="M276.178 63.6224H260.047C259.421 63.6224 258.91 63.1103 258.91 62.4855C258.91 61.8597 259.422 61.3486 260.047 61.3486H276.177C276.803 61.3486 277.314 61.8608 277.314 62.4855C277.315 63.1113 276.803 63.6224 276.178 63.6224Z" fill="#0E59AE"/>
<path d="M282.988 56.2064H253.238C252.07 56.2064 251.113 55.2502 251.113 54.0814V34.9564C251.113 33.7877 252.07 32.8314 253.238 32.8314H282.988C284.157 32.8314 285.113 33.7877 285.113 34.9564V54.0814C285.113 55.2502 284.157 56.2064 282.988 56.2064Z" fill="#0E59AE"/>
<path d="M283.659 34.2881H252.57V54.7497H283.659V34.2881Z" fill="#BED7FF"/>
<path d="M259.062 44.2619L265.16 41.3029V42.4599L260.324 44.7114V44.7369L265.16 47.001V48.1464L259.062 45.1874V44.2619Z" fill="#0BA4E0"/>
<path d="M266.051 48.6606L269.19 39.334H270.297L267.157 48.6606H266.051Z" fill="#0BA4E0"/>
<path d="M277.168 45.2138L271.07 48.1474V47.002L275.985 44.7378V44.7123L271.07 42.4481V41.3027L277.168 44.2363V45.2138Z" fill="#0BA4E0"/>
</g>
</g>
<g filter="url(#filter5_d_3252_4240)">
<rect x="324.797" y="65.8691" width="56.4541" height="56.4541" rx="28.2271" fill="#EAF2FF" shape-rendering="crispEdges"/>
<path d="M346.357 88.7628H342.357C342.003 88.7628 341.664 88.9033 341.414 89.1533C341.164 89.4034 341.023 89.7425 341.023 90.0962V92.7628C341.023 93.1164 341.164 93.4556 341.414 93.7056C341.664 93.9557 342.003 94.0962 342.357 94.0962H345.023C345.377 94.0962 345.716 94.2366 345.966 94.4867C346.216 94.7367 346.357 95.0759 346.357 95.4295V98.0962C346.357 98.4498 346.216 98.7889 345.966 99.039C345.716 99.289 345.377 99.4295 345.023 99.4295H341.023M355.69 99.4295H350.357V88.7628H355.69M351.69 94.0962H354.357M359.69 90.0962C359.69 89.7425 359.831 89.4034 360.081 89.1533C360.331 88.9033 360.67 88.7628 361.023 88.7628H363.69C364.044 88.7628 364.383 88.9033 364.633 89.1533C364.883 89.4034 365.023 89.7425 365.023 90.0962V98.0962C365.023 98.4498 364.883 98.7889 364.633 99.039C364.383 99.289 364.044 99.4295 363.69 99.4295H361.023C360.67 99.4295 360.331 99.289 360.081 99.039C359.831 98.7889 359.69 98.4498 359.69 98.0962V90.0962Z" stroke="#0E59AE" stroke-width="2" stroke-linecap="round" stroke-linejoin="round"/>
</g>
<g filter="url(#filter6_d_3252_4240)">
<rect x="366.25" y="150.551" width="56.4541" height="56.4541" rx="28.2271" fill="#EAF2FF" shape-rendering="crispEdges"/>
<g clip-path="url(#clip3_3252_4240)">
<path fill-rule="evenodd" clip-rule="evenodd" d="M382.745 162.993C380.587 162.993 378.941 164.787 378.941 166.869V190.682C378.941 192.766 380.587 194.561 382.745 194.561H401.545C403.703 194.561 405.348 192.766 405.348 190.682V166.993C405.348 165.932 404.927 164.914 404.177 164.164C403.427 163.414 402.409 162.993 401.348 162.993H382.745Z" fill="#8FBFFA"/>
<path fill-rule="evenodd" clip-rule="evenodd" d="M380.656 186.206H378.941V190.686C378.941 192.769 380.587 194.563 382.745 194.563H401.545C403.703 194.563 405.348 192.769 405.348 190.684V186.206H380.656ZM384.941 169.651C384.563 169.651 384.199 169.802 383.931 170.069C383.663 170.337 383.513 170.701 383.513 171.08C383.513 171.458 383.663 171.822 383.931 172.09C384.199 172.358 384.563 172.508 384.941 172.508H390.644C391.023 172.508 391.387 172.358 391.654 172.09C391.922 171.822 392.073 171.458 392.073 171.08C392.073 170.701 391.922 170.337 391.654 170.069C391.387 169.802 391.023 169.651 390.644 169.651H384.941ZM384.941 176.206C384.563 176.206 384.199 176.357 383.931 176.625C383.663 176.893 383.513 177.256 383.513 177.635C383.513 178.014 383.663 178.377 383.931 178.645C384.199 178.913 384.563 179.064 384.941 179.064H387.794C388.173 179.064 388.536 178.913 388.804 178.645C389.072 178.377 389.223 178.014 389.223 177.635C389.223 177.256 389.072 176.893 388.804 176.625C388.536 176.357 388.173 176.206 387.794 176.206H384.941Z" fill="#2859C5"/>
<path d="M399.969 179.678C399.803 179.845 399.591 179.957 399.361 179.998L394.451 180.881C394.271 180.913 394.086 180.902 393.911 180.848C393.736 180.794 393.577 180.699 393.447 180.57C393.316 180.442 393.219 180.284 393.162 180.11C393.105 179.936 393.091 179.751 393.121 179.571L393.941 174.584C393.98 174.347 394.092 174.129 394.261 173.96L403.669 164.597C403.882 164.383 404.134 164.213 404.413 164.097C404.691 163.981 404.99 163.921 405.292 163.921C405.594 163.921 405.892 163.981 406.171 164.097C406.45 164.213 406.702 164.383 406.915 164.597L409.338 167.02C409.552 167.233 409.722 167.485 409.838 167.764C409.954 168.042 410.014 168.341 410.014 168.643C410.014 168.945 409.954 169.243 409.838 169.522C409.722 169.801 409.552 170.053 409.338 170.266L399.969 179.678Z" fill="#2859C5"/>
</g>
</g>
<g filter="url(#filter7_d_3252_4240)">
<rect x="371.547" y="235.231" width="56.4541" height="56.4541" rx="28.2271" fill="#EAF2FF" shape-rendering="crispEdges"/>
<mask id="mask0_3252_4240" style="mask-type:luminance" maskUnits="userSpaceOnUse" x="385" y="252" width="27" height="22">
<path d="M398.773 253.625C410.773 253.625 410.773 253.625 410.773 262.959C410.773 272.292 410.773 272.292 398.773 272.292C386.773 272.292 386.773 272.292 386.773 262.959C386.773 253.625 386.773 253.625 398.773 253.625Z" fill="white" stroke="white" stroke-width="2" stroke-linecap="round" stroke-linejoin="round"/>
<path d="M396.105 258.292L404.105 262.959L396.105 267.625V258.292Z" fill="black"/>
</mask>
<g mask="url(#mask0_3252_4240)">
<path d="M382.773 246.958H414.773V278.958H382.773V246.958Z" fill="#FF0000"/>
</g>
</g>
<path d="M284.415 309.431H166.583C162.443 309.431 159.086 306.091 159.086 301.972V234.013C159.086 229.893 162.443 226.554 166.583 226.554H284.415C288.555 226.554 291.912 229.893 291.912 234.013V301.972C291.912 306.091 288.555 309.431 284.415 309.431Z" fill="#262F38"/>
<path d="M291.912 309.432H159.086L144 316.987H306.999L291.912 309.432Z" fill="#262F38"/>
<path d="M151.941 315.11L159.534 311.308H291.465L299.058 315.11H151.941Z" fill="#999999"/>
<path d="M300.543 324H150.457C146.891 324 144 321.124 144 317.576V316.986H306.999V317.576C306.999 321.124 304.109 324 300.543 324Z" fill="#1E262D"/>
<path d="M285.331 233.558H165.668V302.426H285.331V233.558Z" fill="#0F4FDF"/>
<path d="M173.617 306.914V191.281C173.617 187.818 176.439 185.011 179.919 185.011H270.473C273.953 185.011 276.775 187.818 276.775 191.281V306.914C276.775 310.377 273.953 313.184 270.473 313.184H179.919C176.439 313.184 173.617 310.377 173.617 306.914Z" fill="#BABABA"/>
<path d="M273.005 188.763H177.391V309.431H273.005V188.763Z" fill="white"/>
<path d="M249.33 213.283H201.672V217.077H249.33V213.283Z" fill="#999999"/>
<path d="M249.33 236.379H201.672V240.172H249.33V236.379Z" fill="#999999"/>
<path d="M249.33 259.474H201.672V263.267H249.33V259.474Z" fill="#999999"/>
<path d="M249.33 282.57H201.672V286.363H249.33V282.57Z" fill="#999999"/>
<path d="M190.588 221.867C194.3 221.867 197.309 218.873 197.309 215.18C197.309 211.487 194.3 208.493 190.588 208.493C186.876 208.493 183.867 211.487 183.867 215.18C183.867 218.873 186.876 221.867 190.588 221.867Z" fill="#39AB68"/>
<path d="M190.092 218.169C190.089 218.169 190.084 218.169 190.08 218.169C189.729 218.165 189.395 218.014 189.162 217.754L186.897 215.22C186.667 214.962 186.69 214.568 186.949 214.338C187.207 214.108 187.605 214.131 187.835 214.389L190.101 216.924L194.118 212.577C194.353 212.324 194.75 212.309 195.005 212.542C195.26 212.777 195.276 213.172 195.04 213.426L191.006 217.772C190.771 218.025 190.438 218.169 190.092 218.169Z" fill="white"/>
<path d="M195.339 242.957C197.964 240.346 197.964 236.112 195.339 233.5C192.714 230.889 188.459 230.889 185.834 233.5C183.21 236.112 183.21 240.346 185.834 242.957C188.459 245.568 192.714 245.568 195.339 242.957Z" fill="#39AB68"/>
<path d="M190.093 241.218C190.089 241.218 190.085 241.218 190.08 241.218C189.729 241.215 189.395 241.063 189.162 240.803L186.897 238.269C186.667 238.011 186.69 237.616 186.949 237.387C187.207 237.157 187.605 237.181 187.835 237.438L190.101 239.972L194.118 235.627C194.353 235.373 194.75 235.357 195.005 235.592C195.26 235.825 195.276 236.221 195.04 236.475L191.006 240.82C190.772 241.073 190.439 241.218 190.093 241.218Z" fill="white"/>
<path d="M190.588 267.965C194.3 267.965 197.309 264.971 197.309 261.278C197.309 257.585 194.3 254.591 190.588 254.591C186.876 254.591 183.867 257.585 183.867 261.278C183.867 264.971 186.876 267.965 190.588 267.965Z" fill="#39AB68"/>
<path d="M190.093 264.267C190.089 264.267 190.085 264.267 190.08 264.267C189.73 264.263 189.395 264.112 189.163 263.852L186.897 261.317C186.667 261.059 186.69 260.664 186.949 260.435C187.207 260.205 187.605 260.229 187.835 260.486L190.101 263.021L194.118 258.674C194.353 258.421 194.75 258.405 195.005 258.639C195.26 258.873 195.276 259.269 195.04 259.522L191.006 263.869C190.772 264.122 190.438 264.267 190.093 264.267Z" fill="white"/>
<path d="M197.125 285.879C197.978 282.285 195.742 278.683 192.129 277.835C188.517 276.986 184.897 279.212 184.044 282.806C183.191 286.4 185.428 290.001 189.041 290.85C192.653 291.698 196.273 289.473 197.125 285.879Z" fill="#39AB68"/>
<path d="M190.092 287.316C190.088 287.316 190.084 287.316 190.08 287.316C189.729 287.312 189.395 287.161 189.162 286.9L186.897 284.367C186.667 284.109 186.69 283.714 186.949 283.484C187.207 283.254 187.605 283.278 187.835 283.536L190.101 286.07L194.118 281.724C194.353 281.471 194.75 281.456 195.005 281.689C195.26 281.923 195.276 282.318 195.04 282.572L191.006 286.918C190.771 287.171 190.438 287.316 190.092 287.316Z" fill="white"/>
<path d="M285.047 275.91L275.839 268.211L265.047 275.91V216.91H285.047V275.91Z" fill="#F74D57"/>
<path d="M279.375 189.582C280.784 180.685 269.309 180.685 270.719 189.582C269.309 180.685 258.396 184.231 262.486 192.257C258.396 184.231 249.113 190.976 255.483 197.345C249.113 190.976 242.368 200.259 250.395 204.349C242.368 200.259 238.823 211.172 247.72 212.582C238.823 211.172 238.823 222.647 247.72 221.238C238.823 222.647 242.368 233.56 250.395 229.471C242.368 233.56 249.113 242.844 255.483 236.474C249.113 242.844 258.396 249.588 262.486 241.562C258.396 249.588 269.309 253.135 270.719 244.237C269.309 253.134 280.784 253.134 279.375 244.237C280.784 253.134 291.697 249.588 287.608 241.562C291.697 249.588 300.981 242.844 294.611 236.474C300.981 242.844 307.726 233.56 299.699 229.471C307.726 233.56 311.272 222.647 302.374 221.238C311.271 222.647 311.271 211.172 302.374 212.582C311.271 211.172 307.726 200.259 299.699 204.349C307.726 200.259 300.981 190.976 294.611 197.345C300.981 190.976 291.697 184.231 287.608 192.257C291.697 184.231 280.784 180.685 279.375 189.582Z" fill="#CC3644"/>
<path d="M275.047 239.91C287.197 239.91 297.047 230.284 297.047 218.41C297.047 206.536 287.197 196.91 275.047 196.91C262.897 196.91 253.047 206.536 253.047 218.41C253.047 230.284 262.897 239.91 275.047 239.91Z" fill="#F74D57"/>
<path d="M269.331 211.132C268.836 211.129 268.358 211.045 267.897 210.882C267.44 210.719 267.029 210.455 266.665 210.088C266.302 209.721 266.014 209.235 265.8 208.631C265.59 208.026 265.485 207.283 265.485 206.402C265.489 205.593 265.581 204.871 265.763 204.235C265.948 203.595 266.211 203.053 266.553 202.608C266.897 202.163 267.31 201.825 267.789 201.593C268.269 201.358 268.806 201.24 269.402 201.24C270.044 201.24 270.611 201.365 271.104 201.616C271.596 201.864 271.99 202.201 272.288 202.627C272.589 203.053 272.771 203.531 272.834 204.061H270.826C270.748 203.726 270.583 203.462 270.332 203.271C270.082 203.08 269.771 202.984 269.402 202.984C268.775 202.984 268.298 203.257 267.972 203.802C267.65 204.348 267.485 205.089 267.479 206.026H267.545C267.689 205.741 267.883 205.498 268.128 205.297C268.375 205.094 268.656 204.938 268.969 204.832C269.286 204.722 269.619 204.667 269.97 204.667C270.541 204.667 271.049 204.802 271.494 205.072C271.939 205.338 272.29 205.705 272.547 206.172C272.804 206.639 272.932 207.173 272.932 207.775C272.932 208.427 272.78 209.007 272.476 209.514C272.175 210.022 271.754 210.42 271.212 210.709C270.673 210.994 270.046 211.135 269.331 211.132ZM269.322 209.533C269.635 209.533 269.916 209.458 270.163 209.308C270.411 209.157 270.605 208.953 270.746 208.696C270.887 208.439 270.958 208.151 270.958 207.831C270.958 207.512 270.887 207.225 270.746 206.971C270.608 206.717 270.417 206.515 270.173 206.365C269.928 206.214 269.649 206.139 269.336 206.139C269.101 206.139 268.883 206.183 268.682 206.27C268.485 206.358 268.311 206.48 268.16 206.637C268.013 206.794 267.897 206.976 267.813 207.183C267.728 207.386 267.686 207.604 267.686 207.836C267.686 208.146 267.756 208.43 267.897 208.687C268.041 208.944 268.236 209.149 268.48 209.303C268.728 209.456 269.008 209.533 269.322 209.533ZM277.253 209.533V202.876H278.936V209.533H277.253ZM274.766 207.046V205.363H281.423V207.046H274.766Z" fill="white"/>
<path d="M258.273 218.372H260.553L262.748 222.518H262.842L265.038 218.372H267.318L263.806 224.596V228H261.785V224.596L258.273 218.372ZM270.171 228.141C269.428 228.141 268.788 227.991 268.252 227.69C267.72 227.386 267.309 226.956 267.021 226.402C266.732 225.844 266.588 225.184 266.588 224.422C266.588 223.679 266.732 223.028 267.021 222.467C267.309 221.906 267.715 221.468 268.238 221.155C268.765 220.841 269.382 220.685 270.091 220.685C270.567 220.685 271.01 220.762 271.421 220.915C271.835 221.066 272.195 221.293 272.502 221.597C272.813 221.901 273.054 222.283 273.226 222.744C273.399 223.202 273.485 223.737 273.485 224.352V224.902H267.387V223.661H271.6C271.6 223.372 271.537 223.117 271.412 222.894C271.286 222.672 271.112 222.498 270.89 222.373C270.67 222.244 270.415 222.18 270.124 222.18C269.819 222.18 269.55 222.25 269.315 222.391C269.083 222.529 268.901 222.716 268.77 222.951C268.638 223.183 268.571 223.441 268.567 223.727V224.907C268.567 225.264 268.633 225.573 268.765 225.833C268.9 226.093 269.089 226.293 269.334 226.434C269.578 226.576 269.868 226.646 270.203 226.646C270.426 226.646 270.63 226.615 270.815 226.552C271 226.489 271.158 226.395 271.289 226.27C271.421 226.145 271.521 225.991 271.59 225.809L273.443 225.931C273.349 226.376 273.156 226.765 272.864 227.097C272.576 227.426 272.203 227.683 271.745 227.868C271.291 228.05 270.766 228.141 270.171 228.141ZM276.851 228.136C276.39 228.136 275.98 228.056 275.619 227.897C275.259 227.734 274.974 227.494 274.764 227.177C274.557 226.858 274.453 226.46 274.453 225.983C274.453 225.582 274.527 225.245 274.674 224.972C274.822 224.7 275.022 224.48 275.276 224.314C275.53 224.148 275.818 224.023 276.141 223.938C276.467 223.853 276.809 223.794 277.166 223.759C277.586 223.716 277.925 223.675 278.182 223.637C278.439 223.596 278.625 223.537 278.741 223.459C278.857 223.38 278.915 223.264 278.915 223.111V223.082C278.915 222.785 278.821 222.554 278.633 222.391C278.448 222.228 278.185 222.147 277.843 222.147C277.483 222.147 277.196 222.227 276.983 222.387C276.77 222.543 276.629 222.741 276.56 222.979L274.707 222.829C274.801 222.39 274.986 222.011 275.262 221.691C275.538 221.368 275.894 221.12 276.329 220.948C276.768 220.773 277.276 220.685 277.852 220.685C278.254 220.685 278.638 220.732 279.004 220.826C279.374 220.92 279.702 221.066 279.987 221.263C280.275 221.46 280.502 221.714 280.669 222.025C280.835 222.332 280.918 222.7 280.918 223.129V228H279.018V226.999H278.962C278.846 227.224 278.691 227.423 278.497 227.596C278.302 227.765 278.069 227.898 277.796 227.995C277.523 228.089 277.208 228.136 276.851 228.136ZM277.425 226.754C277.719 226.754 277.979 226.696 278.205 226.58C278.431 226.461 278.608 226.301 278.736 226.101C278.865 225.9 278.929 225.673 278.929 225.419V224.653C278.866 224.693 278.78 224.731 278.671 224.765C278.564 224.797 278.443 224.827 278.309 224.855C278.174 224.88 278.039 224.903 277.904 224.925C277.769 224.944 277.647 224.961 277.537 224.977C277.302 225.012 277.097 225.066 276.922 225.142C276.746 225.217 276.61 225.319 276.513 225.447C276.415 225.573 276.367 225.729 276.367 225.917C276.367 226.19 276.466 226.398 276.663 226.543C276.864 226.684 277.118 226.754 277.425 226.754ZM282.472 228V220.779H284.413V222.039H284.488C284.62 221.591 284.841 221.252 285.151 221.023C285.462 220.791 285.819 220.675 286.223 220.675C286.323 220.675 286.432 220.682 286.548 220.694C286.664 220.707 286.765 220.724 286.853 220.746V222.523C286.759 222.495 286.629 222.47 286.463 222.448C286.297 222.426 286.145 222.415 286.007 222.415C285.712 222.415 285.449 222.479 285.217 222.608C284.988 222.733 284.807 222.908 284.672 223.134C284.54 223.36 284.474 223.62 284.474 223.915V228H282.472ZM293.897 222.838L292.063 222.951C292.032 222.794 291.965 222.653 291.861 222.528C291.758 222.399 291.621 222.297 291.452 222.222C291.286 222.144 291.087 222.105 290.855 222.105C290.545 222.105 290.283 222.17 290.07 222.302C289.857 222.431 289.75 222.603 289.75 222.819C289.75 222.992 289.819 223.137 289.957 223.256C290.095 223.375 290.332 223.471 290.667 223.543L291.974 223.806C292.676 223.951 293.2 224.183 293.544 224.502C293.889 224.822 294.061 225.242 294.061 225.762C294.061 226.235 293.922 226.651 293.643 227.008C293.367 227.365 292.988 227.644 292.505 227.845C292.026 228.042 291.473 228.141 290.846 228.141C289.89 228.141 289.128 227.942 288.561 227.544C287.997 227.143 287.666 226.597 287.569 225.908L289.539 225.804C289.598 226.096 289.742 226.318 289.971 226.472C290.2 226.623 290.493 226.698 290.85 226.698C291.201 226.698 291.484 226.63 291.697 226.496C291.913 226.358 292.023 226.181 292.026 225.964C292.023 225.783 291.946 225.634 291.795 225.518C291.645 225.399 291.413 225.308 291.1 225.245L289.849 224.996C289.144 224.855 288.619 224.61 288.274 224.262C287.932 223.915 287.762 223.471 287.762 222.932C287.762 222.468 287.887 222.069 288.138 221.733C288.392 221.398 288.747 221.139 289.205 220.957C289.666 220.776 290.205 220.685 290.822 220.685C291.734 220.685 292.452 220.878 292.975 221.263C293.502 221.649 293.809 222.174 293.897 222.838Z" fill="white"/>
<path d="M232.755 182.592C232.755 177.148 228.315 172.734 222.843 172.734C217.37 172.734 212.935 177.148 212.935 182.592H201.594V192.713H244.095V182.592H232.755ZM222.843 187.654C220.037 187.654 217.759 185.388 217.759 182.592C217.759 179.8 220.036 177.533 222.843 177.533C225.653 177.533 227.93 179.799 227.93 182.592C227.931 185.388 225.653 187.654 222.843 187.654Z" fill="#0F4FDF"/>
<path d="M250.502 167.812L244.76 170.815L245.856 164.453L241.211 159.948L247.63 159.02L250.502 153.232L253.372 159.02L259.792 159.948L255.147 164.453L256.243 170.815L250.502 167.812Z" fill="#F7B313"/>
<path d="M201.08 167.812L195.337 170.815L196.434 164.453L191.789 159.948L198.209 159.02L201.08 153.232L203.95 159.02L210.37 159.948L205.724 164.453L206.821 170.815L201.08 167.812Z" fill="#F7B313"/>
<path d="M224.449 158.064L220.091 160.343L220.923 155.516L217.398 152.097L222.27 151.393L224.449 147L226.628 151.393L231.5 152.097L227.974 155.516L228.806 160.343L224.449 158.064Z" fill="#F7B313"/>
<defs>
<filter id="filter0_d_3252_4240" x="0" y="215.231" width="104.453" height="104.454" filterUnits="userSpaceOnUse" color-interpolation-filters="sRGB">
<feFlood flood-opacity="0" result="BackgroundImageFix"/>
<feColorMatrix in="SourceAlpha" type="matrix" values="0 0 0 0 0 0 0 0 0 0 0 0 0 0 0 0 0 0 127 0" result="hardAlpha"/>
<feOffset dy="4"/>
<feGaussianBlur stdDeviation="12"/>
<feComposite in2="hardAlpha" operator="out"/>
<feColorMatrix type="matrix" values="0 0 0 0 0.054902 0 0 0 0 0.34902 0 0 0 0 0.682353 0 0 0 0.25 0"/>
<feBlend mode="normal" in2="BackgroundImageFix" result="effect1_dropShadow_3252_4240"/>
<feBlend mode="normal" in="SourceGraphic" in2="effect1_dropShadow_3252_4240" result="shape"/>
</filter>
<filter id="filter1_d_3252_4240" x="5" y="130.843" width="104.453" height="104.454" filterUnits="userSpaceOnUse" color-interpolation-filters="sRGB">
<feFlood flood-opacity="0" result="BackgroundImageFix"/>
<feColorMatrix in="SourceAlpha" type="matrix" values="0 0 0 0 0 0 0 0 0 0 0 0 0 0 0 0 0 0 127 0" result="hardAlpha"/>
<feOffset dy="4"/>
<feGaussianBlur stdDeviation="12"/>
<feComposite in2="hardAlpha" operator="out"/>
<feColorMatrix type="matrix" values="0 0 0 0 0.054902 0 0 0 0 0.34902 0 0 0 0 0.682353 0 0 0 0.25 0"/>
<feBlend mode="normal" in2="BackgroundImageFix" result="effect1_dropShadow_3252_4240"/>
<feBlend mode="normal" in="SourceGraphic" in2="effect1_dropShadow_3252_4240" result="shape"/>
</filter>
<filter id="filter2_d_3252_4240" x="46.75" y="45.8691" width="104.453" height="104.454" filterUnits="userSpaceOnUse" color-interpolation-filters="sRGB">
<feFlood flood-opacity="0" result="BackgroundImageFix"/>
<feColorMatrix in="SourceAlpha" type="matrix" values="0 0 0 0 0 0 0 0 0 0 0 0 0 0 0 0 0 0 127 0" result="hardAlpha"/>
<feOffset dy="4"/>
<feGaussianBlur stdDeviation="12"/>
<feComposite in2="hardAlpha" operator="out"/>
<feColorMatrix type="matrix" values="0 0 0 0 0.054902 0 0 0 0 0.34902 0 0 0 0 0.682353 0 0 0 0.25 0"/>
<feBlend mode="normal" in2="BackgroundImageFix" result="effect1_dropShadow_3252_4240"/>
<feBlend mode="normal" in="SourceGraphic" in2="effect1_dropShadow_3252_4240" result="shape"/>
</filter>
<filter id="filter3_d_3252_4240" x="131.434" y="0" width="104.453" height="104.454" filterUnits="userSpaceOnUse" color-interpolation-filters="sRGB">
<feFlood flood-opacity="0" result="BackgroundImageFix"/>
<feColorMatrix in="SourceAlpha" type="matrix" values="0 0 0 0 0 0 0 0 0 0 0 0 0 0 0 0 0 0 127 0" result="hardAlpha"/>
<feOffset dy="4"/>
<feGaussianBlur stdDeviation="12"/>
<feComposite in2="hardAlpha" operator="out"/>
<feColorMatrix type="matrix" values="0 0 0 0 0.054902 0 0 0 0 0.34902 0 0 0 0 0.682353 0 0 0 0.25 0"/>
<feBlend mode="normal" in2="BackgroundImageFix" result="effect1_dropShadow_3252_4240"/>
<feBlend mode="normal" in="SourceGraphic" in2="effect1_dropShadow_3252_4240" result="shape"/>
</filter>
<filter id="filter4_d_3252_4240" x="216.113" y="0" width="104.453" height="104.454" filterUnits="userSpaceOnUse" color-interpolation-filters="sRGB">
<feFlood flood-opacity="0" result="BackgroundImageFix"/>
<feColorMatrix in="SourceAlpha" type="matrix" values="0 0 0 0 0 0 0 0 0 0 0 0 0 0 0 0 0 0 127 0" result="hardAlpha"/>
<feOffset dy="4"/>
<feGaussianBlur stdDeviation="12"/>
<feComposite in2="hardAlpha" operator="out"/>
<feColorMatrix type="matrix" values="0 0 0 0 0.054902 0 0 0 0 0.34902 0 0 0 0 0.682353 0 0 0 0.25 0"/>
<feBlend mode="normal" in2="BackgroundImageFix" result="effect1_dropShadow_3252_4240"/>
<feBlend mode="normal" in="SourceGraphic" in2="effect1_dropShadow_3252_4240" result="shape"/>
</filter>
<filter id="filter5_d_3252_4240" x="300.797" y="45.8691" width="104.453" height="104.454" filterUnits="userSpaceOnUse" color-interpolation-filters="sRGB">
<feFlood flood-opacity="0" result="BackgroundImageFix"/>
<feColorMatrix in="SourceAlpha" type="matrix" values="0 0 0 0 0 0 0 0 0 0 0 0 0 0 0 0 0 0 127 0" result="hardAlpha"/>
<feOffset dy="4"/>
<feGaussianBlur stdDeviation="12"/>
<feComposite in2="hardAlpha" operator="out"/>
<feColorMatrix type="matrix" values="0 0 0 0 0.054902 0 0 0 0 0.34902 0 0 0 0 0.682353 0 0 0 0.25 0"/>
<feBlend mode="normal" in2="BackgroundImageFix" result="effect1_dropShadow_3252_4240"/>
<feBlend mode="normal" in="SourceGraphic" in2="effect1_dropShadow_3252_4240" result="shape"/>
</filter>
<filter id="filter6_d_3252_4240" x="342.25" y="130.551" width="104.453" height="104.454" filterUnits="userSpaceOnUse" color-interpolation-filters="sRGB">
<feFlood flood-opacity="0" result="BackgroundImageFix"/>
<feColorMatrix in="SourceAlpha" type="matrix" values="0 0 0 0 0 0 0 0 0 0 0 0 0 0 0 0 0 0 127 0" result="hardAlpha"/>
<feOffset dy="4"/>
<feGaussianBlur stdDeviation="12"/>
<feComposite in2="hardAlpha" operator="out"/>
<feColorMatrix type="matrix" values="0 0 0 0 0.054902 0 0 0 0 0.34902 0 0 0 0 0.682353 0 0 0 0.25 0"/>
<feBlend mode="normal" in2="BackgroundImageFix" result="effect1_dropShadow_3252_4240"/>
<feBlend mode="normal" in="SourceGraphic" in2="effect1_dropShadow_3252_4240" result="shape"/>
</filter>
<filter id="filter7_d_3252_4240" x="347.547" y="215.231" width="104.453" height="104.454" filterUnits="userSpaceOnUse" color-interpolation-filters="sRGB">
<feFlood flood-opacity="0" result="BackgroundImageFix"/>
<feColorMatrix in="SourceAlpha" type="matrix" values="0 0 0 0 0 0 0 0 0 0 0 0 0 0 0 0 0 0 127 0" result="hardAlpha"/>
<feOffset dy="4"/>
<feGaussianBlur stdDeviation="12"/>
<feComposite in2="hardAlpha" operator="out"/>
<feColorMatrix type="matrix" values="0 0 0 0 0.054902 0 0 0 0 0.34902 0 0 0 0 0.682353 0 0 0 0.25 0"/>
<feBlend mode="normal" in2="BackgroundImageFix" result="effect1_dropShadow_3252_4240"/>
<feBlend mode="normal" in="SourceGraphic" in2="effect1_dropShadow_3252_4240" result="shape"/>
</filter>
<radialGradient id="paint0_radial_3252_4240" cx="0" cy="0" r="1" gradientUnits="userSpaceOnUse" gradientTransform="translate(49.7266 197.534) rotate(-90) scale(31.7144 29.4969)">
<stop stop-color="#FFDD55"/>
<stop offset="0.1" stop-color="#FFDD55"/>
<stop offset="0.5" stop-color="#FF543E"/>
<stop offset="1" stop-color="#C837AB"/>
</radialGradient>
<radialGradient id="paint1_radial_3252_4240" cx="0" cy="0" r="1" gradientUnits="userSpaceOnUse" gradientTransform="translate(35.8665 165.375) rotate(78.68) scale(14.1765 58.436)">
<stop stop-color="#3771C8"/>
<stop offset="0.128" stop-color="#3771C8"/>
<stop offset="1" stop-color="#6600FF" stop-opacity="0"/>
</radialGradient>
<clipPath id="clip0_3252_4240">
<rect width="36" height="32" fill="white" transform="translate(34.2266 247.458)"/>
</clipPath>
<clipPath id="clip1_3252_4240">
<rect width="32" height="32" fill="white" transform="translate(41.2266 163.07)"/>
</clipPath>
<clipPath id="clip2_3252_4240">
<rect width="34" height="34" fill="white" transform="translate(251.113 31.2271)"/>
</clipPath>
<clipPath id="clip3_3252_4240">
<rect width="32" height="32" fill="white" transform="translate(378.477 162.778)"/>
</clipPath>
</defs>
</svg>
